<?xml version="1.0" encoding="utf-8"?>
<!-- Generator: Adobe Illustrator 17.0.0, SVG Export Plug-In . SVG Version: 6.00 Build 0)  -->
<!DOCTYPE svg PUBLIC "-//W3C//DTD SVG 1.1//EN" "http://www.w3.org/Graphics/SVG/1.1/DTD/svg11.dtd">
<svg version="1.1" id="Layer_1" xmlns="http://www.w3.org/2000/svg" xmlns:xlink="http://www.w3.org/1999/xlink" x="0px" y="0px" viewBox="0 0 200 200" enable-background="new 0 0 200 200" xml:space="preserve">
<g>
	<g>
		<g>
			<g>
				<path fill="#E5A126" d="M99.9972,198.1079c-54.0361,0-97.9986-43.9625-97.9986-98s43.9625-98,97.9986-98
					c54.0389,0,98.0041,43.9625,98.0041,98S154.0361,198.1079,99.9972,198.1079z"/>
				<path fill="#E5A126" d="M99.9972,196.7318c-53.2782,0-96.6225-43.3457-96.6225-96.6239S46.7191,3.484,99.9972,3.484
					c53.2809,0,96.628,43.3457,96.628,96.6239S153.2782,196.7318,99.9972,196.7318z"/>
				
					<radialGradient id="SVGID_1_" cx="103.7906" cy="-9.2473" r="204.239" gradientTransform="matrix(0.9899 0 0 0.9899 1.0139 1.0098)" gradientUnits="userSpaceOnUse">
					<stop  offset="0" style="stop-color:#FFF7C2"/>
					<stop  offset="0.3276" style="stop-color:#FFE996"/>
					<stop  offset="1" style="stop-color:#FDD022"/>
				</radialGradient>
				<path fill="url(#SVGID_1_)" d="M191.1209,100.1079c0,50.3245-40.7967,91.1195-91.1236,91.1195
					c-50.3217,0-91.1181-40.795-91.1181-91.1195c0-50.3242,40.7964-91.1195,91.1181-91.1195
					C150.3242,8.9884,191.1209,49.7837,191.1209,100.1079z"/>
				<g>
					<defs>
						<path id="SVGID_2_" d="M191.1209,100.1079c0,50.3245-40.7967,91.1195-91.1236,91.1195
							c-50.3217,0-91.1181-40.795-91.1181-91.1195c0-50.3242,40.7964-91.1195,91.1181-91.1195
							C150.3242,8.9884,191.1209,49.7837,191.1209,100.1079z"/>
					</defs>
					<clipPath id="SVGID_3_">
						<use xlink:href="#SVGID_2_"  overflow="visible"/>
					</clipPath>
				</g>
			</g>
		</g>
	</g>
	<g>
		<path fill="#82361A" d="M75.7156,32.6869c-0.0848,0-0.1695-0.0041-0.257-0.0109c-1.5395-0.1408-2.6715-1.4998-2.5348-3.0393
			c0.1531-1.802-0.0191-7.0931-2.636-9.941c-1.3262-1.4438-3.1528-2.1465-5.5837-2.1465c-9.4091,0-9.5814,11.8414-9.5841,12.3445
			c-0.0082,1.5408-1.2606,2.7891-2.8,2.7891c-0.0027,0-0.0055,0-0.0082,0c-1.5422-0.0041-2.7918-1.2524-2.7918-2.7959
			c0-6.2044,3.1747-17.9378,15.1842-17.9378c4.0442,0,7.32,1.3399,9.7318,3.984c4.818,5.2747,4.0989,13.8457,4.0661,14.208
			C78.368,31.5945,77.1484,32.6869,75.7156,32.6869z"/>
	</g>
	<g>
		<path fill="#82361A" d="M146.1869,32.6869c-0.0848,0-0.1695-0.0041-0.257-0.0109c-1.5395-0.1408-2.6715-1.4998-2.5348-3.0393
			c0.1531-1.802-0.0191-7.0931-2.636-9.941c-1.3262-1.4438-3.1528-2.1465-5.5837-2.1465c-9.4091,0-9.5814,11.8414-9.5841,12.3445
			c-0.0082,1.5408-1.2606,2.7891-2.8,2.7891c-0.0027,0-0.0055,0-0.0082,0c-1.5422-0.0041-2.7918-1.2524-2.7918-2.7959
			c0-6.2044,3.1747-17.9378,15.1842-17.9378c4.0442,0,7.32,1.3399,9.7318,3.984c4.818,5.2747,4.0989,13.8457,4.0661,14.208
			C148.8393,31.5945,147.6197,32.6869,146.1869,32.6869z"/>
	</g>
	<g>
		<g>
			<g>
				<path fill="#A05024" d="M98.7797,176.4357c-20.2328,0-37.6171-7.3789-50.2598-21.3389
					c-14.8924-16.4353-19.4751-37.3682-17.9727-46.9836c0.7849-4.9991,3.7493-7.5336,8.8291-7.5336h122.2686
					c2.4646,0,6.7462,0.9569,7.7703,7.3709c1.7766,10.9375-3.7278,30.5954-17.3867,45.7567
					C142.6913,164.075,125.8718,176.4357,98.7797,176.4357z"/>
				<path fill="#FFFFFF" d="M164.5718,108.804c-0.2284-1.3816-0.4811-3.5399-2.927-3.5399H39.3762
					c-2.4591,0-3.5102,0.6451-3.9615,3.5399c-2.2362,14.3026,12.4091,62.9472,63.365,62.9472
					C149.6337,171.7512,167.2621,125.3601,164.5718,108.804z"/>
			</g>
		</g>
		<rect x="140.7614" y="103.1249" fill="#A05024" width="3.3811" height="57.4549"/>
		<rect x="56.7415" y="103.1249" fill="#A05024" width="3.3783" height="57.4549"/>
		<rect x="114.0244" y="103.1249" fill="#A05024" width="3.3756" height="68.969"/>
		<rect x="83.6533" y="103.1249" fill="#A05024" width="3.3811" height="68.969"/>
	</g>
	<g>
		<g>
			<g>
				<path fill="#82361A" d="M82.7458,75.073c-2.3188,0-4.2001-1.8799-4.2001-4.2001c0-8.3851-6.8224-15.2074-15.2061-15.2074
					c-8.3864,0-15.2088,6.8224-15.2088,15.2074c0,2.3202-1.8813,4.2001-4.2001,4.2001s-4.2001-1.8799-4.2001-4.2001
					c0-13.0172,10.5904-23.6076,23.6089-23.6076c13.0158,0,23.6062,10.5904,23.6062,23.6076
					C86.9458,73.1931,85.0646,75.073,82.7458,75.073z"/>
			</g>
		</g>
		<g>
			<g>
				<path fill="#82361A" d="M154.7347,75.073c-2.3188,0-4.2001-1.8799-4.2001-4.2001c0-8.3851-6.8224-15.2074-15.2061-15.2074
					s-15.2061,6.8224-15.2061,15.2074c0,2.3202-1.8813,4.2001-4.2001,4.2001c-2.3188,0-4.2001-1.8799-4.2001-4.2001
					c0-13.0172,10.5904-23.6076,23.6062-23.6076s23.6062,10.5904,23.6062,23.6076C158.9347,73.1931,157.0535,75.073,154.7347,75.073
					z"/>
			</g>
		</g>
	</g>
</g>
</svg>
