<?xml version="1.0" encoding="utf-8"?>
<!-- Generator: Adobe Illustrator 17.0.0, SVG Export Plug-In . SVG Version: 6.00 Build 0)  -->
<!DOCTYPE svg PUBLIC "-//W3C//DTD SVG 1.1//EN" "http://www.w3.org/Graphics/SVG/1.1/DTD/svg11.dtd">
<svg version="1.1" id="Layer_1" xmlns="http://www.w3.org/2000/svg" xmlns:xlink="http://www.w3.org/1999/xlink" x="0px" y="0px"
	viewBox="0 0 200 200" enable-background="new 0 0 200 200" xml:space="preserve">
<g>
	<g>
		<g>
			<g>
				<path fill="#E4A024" d="M99.9972,198.9986C45.4108,198.9986,1,154.5881,1,100C1,45.4121,45.4108,1.0014,99.9972,1.0014
					C154.5867,1.0014,199,45.4121,199,100C199,154.5881,154.5867,198.9986,99.9972,198.9986z"/>
				<path fill="#E4A024" d="M99.9972,197.6085c-53.8236,0-97.6071-43.7874-97.6071-97.6085S46.1737,2.3916,99.9972,2.3916
					c53.8238,0,97.6127,43.7874,97.6127,97.6084S153.8211,197.6085,99.9972,197.6085z"/>
				<radialGradient id="SVGID_1_" cx="103.7957" cy="-9.3552" r="204.2389" gradientUnits="userSpaceOnUse">
					<stop  offset="0" style="stop-color:#FFF7C2"/>
					<stop  offset="0.3321" style="stop-color:#FFEB8F"/>
					<stop  offset="1" style="stop-color:#FED01F"/>
				</radialGradient>
				<path fill="url(#SVGID_1_)" d="M192.0494,100c0,50.8373-41.2177,92.048-92.0522,92.048
					c-50.8342,0-92.0466-41.2107-92.0466-92.048c0-50.837,41.2124-92.0479,92.0466-92.0479
					C150.8317,7.952,192.0494,49.1629,192.0494,100z"/>
				<g>
					<defs>
						<path id="SVGID_2_" d="M192.0494,100c0,50.8373-41.2177,92.048-92.0522,92.048c-50.8342,0-92.0466-41.2107-92.0466-92.048
							c0-50.837,41.2124-92.0479,92.0466-92.0479C150.8317,7.952,192.0494,49.1629,192.0494,100z"/>
					</defs>
					<clipPath id="SVGID_3_">
						<use xlink:href="#SVGID_2_"  overflow="visible"/>
					</clipPath>
				</g>
			</g>
		</g>
	</g>
	<g>
		<g>
			<g>
				<path fill="#FFFFFF" d="M154.7661,115.3483c0,15.5168-12.18,28.1027-27.2024,28.1027
					c-15.0172,0-27.2133-12.5859-27.2133-28.1027c0-15.5302,12.1961-28.1158,27.2133-28.1158
					C142.5861,87.2325,154.7661,99.8181,154.7661,115.3483z"/>
				<path fill="#AA5B26" d="M127.5636,147.6214c-17.3031,0-31.3837-14.4823-31.3837-32.2825
					c0-17.7972,14.0805-32.2767,31.3837-32.2767c17.2978,0,31.3728,14.4795,31.3728,32.2767
					C158.9364,133.1391,144.8615,147.6214,127.5636,147.6214z"/>
				<path fill="#FFFFFF" d="M100.3503,115.3388c0-15.5207,12.1908-28.1063,27.2133-28.1063s27.2024,12.5856,27.2024,28.1063
					c0,15.5263-12.18,28.1121-27.2024,28.1121S100.3503,130.8651,100.3503,115.3388z"/>
				<path fill="none" d="M100.3503,115.3388c0-15.5207,12.1908-28.1063,27.2133-28.1063s27.2024,12.5856,27.2024,28.1063
					c0,15.5263-12.18,28.1121-27.2024,28.1121S100.3503,130.8651,100.3503,115.3388z"/>
				<g>
					<defs>
						<path id="SVGID_4_" d="M100.3503,115.3388c0-15.5207,12.1908-28.1063,27.2133-28.1063s27.2024,12.5856,27.2024,28.1063
							c0,15.5263-12.18,28.1121-27.2024,28.1121S100.3503,130.8651,100.3503,115.3388z"/>
					</defs>
					<clipPath id="SVGID_5_">
						<use xlink:href="#SVGID_4_"  overflow="visible"/>
					</clipPath>
				</g>
				<path fill="#6D2F16" d="M154.6081,119.5324c-2.3106-4.1268-6.5645-6.9315-11.4978-6.9315
					c-7.3821,0-13.3609,6.201-13.3609,13.8575c0,6.7965,4.7234,12.4237,10.9495,13.6032
					C148.0464,135.9392,153.3195,128.4097,154.6081,119.5324z"/>
			</g>
		</g>
	</g>
	<g>
		<g>
			<g>
				<path fill="#FFFFFF" d="M24.5128,112.8642c0,14.2907,10.556,25.8841,23.5804,25.8841c13.0188,0,23.5859-11.5933,23.5859-25.8841
					c0-14.3018-10.5671-25.8952-23.5859-25.8952C35.0688,86.969,24.5128,98.5623,24.5128,112.8642z"/>
				<path fill="#AA5B26" d="M48.0931,143.387c-15.5602,0-28.2178-13.6949-28.2178-30.5285
					c0-16.8321,12.6576-30.5268,28.2178-30.5268s28.2234,13.6946,28.2234,30.5268C76.3165,129.6921,63.6533,143.387,48.0931,143.387
					z"/>
				<ellipse fill="#FFFFFF" cx="48.0959" cy="112.8586" rx="23.5831" ry="25.8896"/>
				<ellipse fill="none" cx="48.0959" cy="112.8586" rx="23.5831" ry="25.8896"/>
				<g>
					<defs>
						<ellipse id="SVGID_6_" cx="48.0959" cy="112.8586" rx="23.5831" ry="25.8896"/>
					</defs>
					<clipPath id="SVGID_7_">
						<use xlink:href="#SVGID_6_"  overflow="visible"/>
					</clipPath>
				</g>
				<path fill="#6D2F16" d="M71.2811,117.4897c-2.3672-3.0333-6.0507-5.0207-10.2369-5.0207
					c-7.1652,0-12.9507,5.7085-12.9507,12.7541c0,5.4109,3.4307,10.0067,8.266,11.8573
					C64.026,133.9247,69.7908,126.5341,71.2811,117.4897z"/>
			</g>
		</g>
	</g>
	<g>
		<path fill="#823308" d="M37.3359,73.0006c-1.348,0-2.5413-0.9668-2.7816-2.341c-0.2679-1.5372,0.7596-3.0026,2.2954-3.2733
			c0.2376-0.0428,23.816-4.3947,30.2575-22.497c0.5248-1.4723,2.138-2.2402,3.613-1.7154c1.4723,0.5234,2.2402,2.1407,1.7181,3.613
			c-7.5602,21.2402-33.5142,25.9802-34.6164,26.1722C37.6591,72.9868,37.4961,73.0006,37.3359,73.0006z"/>
	</g>
	<g>
		<path fill="#823308" d="M141.3645,70.6375c-0.2818,0-28.3157-0.29-38.7818-26.4222c-0.5801-1.4502,0.1243-3.0965,1.5745-3.6765
			c1.4557-0.5815,3.0937,0.1215,3.6793,1.5745c9.0187,22.5191,32.5364,22.863,33.5336,22.8672
			c1.5579,0.0055,2.823,1.2734,2.8202,2.8327C144.1875,69.3738,142.9252,70.6375,141.3645,70.6375z"/>
	</g>
	<g>
		<path fill="#A04E17" d="M112.9522,177.0306c-1.3535,0-2.5495-0.9723-2.7843-2.3507c-0.0718-0.3867-1.9419-9.8488-12.988-10.0007
			c-0.0691-0.0014-0.1353-0.0014-0.2016-0.0014c-3.7207,0-5.4167,1.4419-7.7481,3.4238c-2.7816,2.3645-6.2178,5.3228-13.3527,5.1046
			c-11.5102-0.3301-16.0348-11.7561-16.8165-17.7529c-0.2044-1.5482,0.8894-2.968,2.4363-3.1711
			c1.5634-0.1989,2.9639,0.8881,3.171,2.4349c0.0773,0.5635,1.8397,12.5613,11.3694,12.8347
			c5.0328,0.1312,6.9636-1.5814,9.527-3.7594c2.6352-2.2388,5.6129-4.7718,11.4163-4.7718c0.0911,0,0.1823,0,0.2762,0.0014
			c12.6593,0.174,17.6258,9.6927,18.4849,14.702c0.2652,1.5399-0.7707,3.0012-2.3092,3.2663
			C113.2698,177.0181,113.1096,177.0306,112.9522,177.0306z"/>
	</g>
</g>
</svg>
