<?xml version="1.0" encoding="utf-8"?>
<!-- Generator: Adobe Illustrator 17.0.0, SVG Export Plug-In . SVG Version: 6.00 Build 0)  -->
<!DOCTYPE svg PUBLIC "-//W3C//DTD SVG 1.1//EN" "http://www.w3.org/Graphics/SVG/1.1/DTD/svg11.dtd">
<svg version="1.1" id="Layer_1" xmlns="http://www.w3.org/2000/svg" xmlns:xlink="http://www.w3.org/1999/xlink" x="0px" y="0px" viewBox="0 0 200 200" enable-background="new 0 0 200 200" xml:space="preserve">
<g>
	<g>
		<g>
			<g>
				<g>
					<path fill="#E5A126" d="M99.8474,199c-15.4268,0-30.7839-3.8933-44.4113-11.2598
						c-21.9923-11.8842-38.0514-31.6579-45.2184-55.676c-7.1646-24.0192-4.5656-49.3586,7.3212-71.3495
						c16.3856-30.3198,48.0411-49.1554,82.617-49.1554c15.4242,0,30.7789,3.892,44.406,11.2571
						c21.9949,11.8855,38.0514,31.6605,45.2186,55.6797c7.1669,24.0192,4.568,49.3586-7.3188,71.3495
						C166.0785,180.1645,134.4232,199,99.8474,199z"/>
					<path fill="#E5A126" d="M56.0607,186.5822C11.228,162.3548-5.5329,106.171,18.6958,61.3406
						C42.9246,16.5092,99.1069-0.253,143.9372,23.9744c44.833,24.2301,61.5963,80.415,37.3675,125.2453
						C157.0786,194.0501,100.8937,210.8123,56.0607,186.5822z"/>
					
						<radialGradient id="SVGID_1_" cx="504.4643" cy="1771.9194" r="207.8223" gradientTransform="matrix(0.8186 0.4424 -0.4424 0.8186 523.2972 -1657.7646)" gradientUnits="userSpaceOnUse">
						<stop  offset="0" style="stop-color:#FFF7C2"/>
						<stop  offset="0.3276" style="stop-color:#FFE996"/>
						<stop  offset="1" style="stop-color:#FDD022"/>
					</radialGradient>
					<path fill="url(#SVGID_1_)" d="M176.6749,146.7158c-22.8841,42.3459-75.7659,58.121-118.1129,35.2353
						C16.2201,159.068,0.4413,106.1889,23.3257,63.8432C46.2125,21.4976,99.0916,5.7225,141.4309,28.6056
						C183.7805,51.491,199.5593,104.3715,176.6749,146.7158z"/>
					<g>
						<defs>
							<path id="SVGID_7_" d="M176.6749,146.7158c-22.8841,42.3459-75.7659,58.121-118.1129,35.2353
								C16.2201,159.068,0.4413,106.1889,23.3257,63.8432C46.2125,21.4976,99.0916,5.7225,141.4309,28.6056
								C183.7805,51.491,199.5593,104.3715,176.6749,146.7158z"/>
						</defs>
						<clipPath id="SVGID_2_">
							<use xlink:href="#SVGID_7_"  overflow="visible"/>
						</clipPath>
					</g>
				</g>
			</g>
		</g>
		<g>
			<path fill="#82361A" d="M96.5789,13.4333c-0.6962,0-1.3951-0.2555-1.9393-0.7708c-1.1326-1.0705-1.1907-2.851-0.1243-3.9864
				c0.1602-0.1699,16.1002-16.7024,37.3719-0.7155c1.2487,0.9393,1.5001,2.7114,0.5636,3.9615
				c-0.942,1.2473-2.7156,1.5014-3.9615,0.5608c-17.1582-12.8956-29.3439-0.4641-29.8549,0.0718
				C98.0762,13.1391,97.3303,13.4333,96.5789,13.4333z"/>
		</g>
		<g>
			<path fill="#82361A" d="M181.2153,56.3496c-0.221,0-0.4448-0.0249-0.6685-0.0787c-1.5166-0.3674-2.4504-1.8965-2.083-3.4145
				c0.163-0.71,3.8759-17.7218-16.3046-25.0039c-1.4697-0.529-2.2294-2.1507-1.699-3.6203c0.5276-1.4683,2.141-2.2335,3.6217-1.7004
				c25.0343,9.0336,19.9346,31.4282,19.8793,31.6534C183.6491,55.4808,182.4916,56.3496,181.2153,56.3496z"/>
		</g>
		<g>
			<g>
				<g>
					<path fill="#82361A" d="M109.2922,56.0582c-0.6271,0-1.2625-0.1395-1.8647-0.4337c-2.1023-1.0304-2.9753-3.572-1.9421-5.6771
						c1.6796-3.4352,1.9255-7.3194,0.6851-10.937c-1.2404-3.6189-3.8151-6.5376-7.2489-8.2186
						c-3.4366-1.6824-7.318-1.9255-10.937-0.6837c-3.6189,1.239-6.539,3.8137-8.2186,7.2476
						c-1.0304,2.1078-3.5747,2.978-5.6771,1.9462c-2.1051-1.0304-2.978-3.572-1.9476-5.6757
						c2.6797-5.4712,7.3263-9.5723,13.0918-11.5475c5.7599-1.9725,11.9481-1.5857,17.4179,1.0912
						c5.4726,2.6769,9.5723,7.3263,11.5475,13.089c1.9752,5.7641,1.5857,11.9508-1.094,17.4207
						C112.3697,55.1838,110.8613,56.0582,109.2922,56.0582z"/>
				</g>
			</g>
			<g>
				<g>
					<path fill="#82361A" d="M171.1348,86.3289c-0.6271,0-1.2625-0.1395-1.8647-0.4337c-2.1023-1.0304-2.9753-3.5734-1.9421-5.6771
						c1.6796-3.4339,1.9255-7.318,0.6851-10.9356c-1.2404-3.6189-3.8151-6.5376-7.2489-8.2186
						c-3.4339-1.681-7.3208-1.9214-10.9397-0.6837c-3.619,1.2404-6.5362,3.8151-8.2131,7.2476
						c-1.0304,2.1078-3.5665,2.9739-5.677,1.949c-2.1051-1.0291-2.978-3.5706-1.9476-5.6757
						c2.6741-5.4712,7.3208-9.5723,13.0862-11.5489c5.7655-1.9725,11.9508-1.5857,17.4207,1.0898
						c5.4726,2.6783,9.5723,7.3263,11.5475,13.089c1.9752,5.7627,1.5857,11.9494-1.094,17.4193
						C174.2122,85.4545,172.7039,86.3289,171.1348,86.3289z"/>
				</g>
			</g>
		</g>
	</g>
	<g>
		
			<radialGradient id="SVGID_3_" cx="511.9119" cy="1949.6713" r="57.4569" gradientTransform="matrix(0.8148 0.4495 -0.4495 0.8148 556.8849 -1711.7894)" gradientUnits="userSpaceOnUse">
			<stop  offset="0.0054" style="stop-color:#A44F24"/>
			<stop  offset="0.2689" style="stop-color:#A04C23"/>
			<stop  offset="0.5871" style="stop-color:#954120"/>
			<stop  offset="0.9322" style="stop-color:#822F1A"/>
			<stop  offset="1" style="stop-color:#7E2B18"/>
		</radialGradient>
		<path fill="url(#SVGID_3_)" d="M170.9937,111.5013c1.3317-2.1388,1.3473-4.27-0.8611-5.4872L60.2099,45.3612
			c-2.2083-1.2172-3.6169-1.2198-5.4011,1.3831c-8.9896,13.0798-21.653,65.617,24.1543,90.8919
			C124.6829,162.8623,161.7393,126.3098,170.9937,111.5013z"/>
		<path fill="#FFFFFF" d="M164.1584,107.8444L60.9475,50.8908c-2.4831-1.3715-3.6477-1.6466-5.4446,2.0104
			c-1.5423,3.1399-2.9025,9.6953-0.8329,12.095c8.0154,9.2852,84.6244,54.0566,98.9151,55.2841
			c6.3238,0.5386,9.311-3.7867,11.5833-6.4473C167.7445,110.8111,166.6442,109.2172,164.1584,107.8444z"/>
		
			<linearGradient id="SVGID_4_" gradientUnits="userSpaceOnUse" x1="733.7111" y1="1762.1151" x2="727.816" y2="1877.0835" gradientTransform="matrix(0.8756 0.4831 -0.4831 0.8756 323.1247 -1817.9868)">
			<stop  offset="0" style="stop-color:#F9B08F"/>
			<stop  offset="1" style="stop-color:#F2675B"/>
		</linearGradient>
		<path fill="url(#SVGID_4_)" d="M114.968,141.6658c2.0335-14.3086-6.6581-27.1041-19.5629-34.2263
			c-12.905-7.1196-31.0179-5.4009-39.0462,1.8895c0,0,6.0745,15.3329,23.9716,25.2069
			C101.6674,146.3109,114.968,141.6658,114.968,141.6658z"/>
	</g>
</g>
</svg>
