<?xml version="1.0" encoding="utf-8"?>
<!-- Generator: Adobe Illustrator 17.0.0, SVG Export Plug-In . SVG Version: 6.00 Build 0)  -->
<!DOCTYPE svg PUBLIC "-//W3C//DTD SVG 1.1//EN" "http://www.w3.org/Graphics/SVG/1.1/DTD/svg11.dtd">
<svg version="1.1" id="Layer_1" xmlns="http://www.w3.org/2000/svg" xmlns:xlink="http://www.w3.org/1999/xlink" x="0px" y="0px"
	 viewBox="0 0 200 200" enable-background="new 0 0 200 200" xml:space="preserve">
<g>
	<g>
		<g>
			<g>
				<path fill="#E4A024" d="M99.9972,198.689c-54.5875,0-98.9986-44.4114-98.9986-99c0-54.5889,44.4111-99,98.9986-99
					c54.5903,0,99.0042,44.4111,99.0042,99C199.0014,154.2776,154.5875,198.689,99.9972,198.689z"/>
				<path fill="#E4A024" d="M99.9972,197.2989c-53.819,0-97.6085-43.7881-97.6085-97.6099S46.1782,2.0791,99.9972,2.0791
					c53.8246,0,97.614,43.7881,97.614,97.6099S153.8218,197.2989,99.9972,197.2989z"/>
				<radialGradient id="SVGID_1_" cx="103.7958" cy="-9.6678" r="204.2419" gradientUnits="userSpaceOnUse">
					<stop  offset="0" style="stop-color:#FFF7C2"/>
					<stop  offset="0.3321" style="stop-color:#FFEB8F"/>
					<stop  offset="1" style="stop-color:#FED01F"/>
				</radialGradient>
				<circle fill="url(#SVGID_1_)" cx="100" cy="99.689" r="92.0507"/>
				<g>
					<defs>
						<circle id="SVGID_2_" cx="100" cy="99.689" r="92.0507"/>
					</defs>
					<clipPath id="SVGID_3_">
						<use xlink:href="#SVGID_2_"  overflow="visible"/>
					</clipPath>
				</g>
			</g>
		</g>
	</g>
	<g>
		<g>
			<path fill="#823308" d="M100.6187,126.9236c-63.9329,0-67.546-45.2723-67.5763-45.7295
				c-0.0994-1.5593,1.0856-2.9032,2.6435-3.0026c1.5634-0.0856,2.8976,1.08,3.0026,2.638c0.116,1.6864,3.5026,40.437,61.9302,40.437
				c58.6017,0,64.1484-38.9371,64.3583-40.5958c0.1906-1.5469,1.5883-2.6435,3.149-2.4598
				c1.5469,0.1892,2.6518,1.5911,2.4667,3.1393C170.5375,81.8059,164.4108,126.9236,100.6187,126.9236z"/>
		</g>
	</g>
	<g>
		<g>
			<g>
				<path fill="#823308" d="M84.6196,62.499c-2.3424,0-4.2429-1.8991-4.2429-4.2429c0-8.4705-6.8919-15.361-15.361-15.361
					c-8.4719,0-15.3638,6.8905-15.3638,15.361c0,2.3438-1.9004,4.2429-4.2429,4.2429s-4.2429-1.8991-4.2429-4.2429
					c0-13.1498,10.6983-23.8467,23.8495-23.8467c13.1484,0,23.8467,10.6969,23.8467,23.8467
					C88.8625,60.5999,86.962,62.499,84.6196,62.499z"/>
			</g>
		</g>
		<g>
			<g>
				<path fill="#823308" d="M157.3421,62.499c-2.3424,0-4.2429-1.8991-4.2429-4.2429c0-8.4705-6.8891-15.361-15.3582-15.361
					c-8.4719,0-15.3638,6.8905-15.3638,15.361c0,2.3438-1.9004,4.2429-4.2429,4.2429c-2.3424,0-4.2429-1.8991-4.2429-4.2429
					c0-13.1498,10.6983-23.8467,23.8495-23.8467c13.1484,0,23.844,10.6969,23.844,23.8467
					C161.5849,60.5999,159.6845,62.499,157.3421,62.499z"/>
			</g>
		</g>
	</g>
	<g>
		<path fill="#AA5B26" d="M94.734,167.6142c-4.9946,0.1528-10.07-0.8843-14.6748-2.999
			c-15.8521-7.2826-23.0935-25.5513-16.2502-40.8369c0.8409-3.046,1.9465-8.6154,1.5061-11.4119
			c-0.7578-4.8027,0.1082-8.9936,2.4334-11.8004c1.6354-1.9743,3.8632-3.1019,6.2744-3.1757
			c2.6173-0.0801,5.1343,1.085,7.0881,3.2795c1.4888,1.6778,2.543,3.4643,3.2662,5.27c1.1482-1.953,2.4657-4.0049,3.9724-6.098
			c4.4424-6.1778,11.7718-10.0094,19.6053-10.2491c9.0091-0.2757,20.0244,4.4766,23.9203,18.6404
			c3.4967,12.7136-1.5353,23.4089-6.8641,34.7328c-0.671,1.4283-1.3521,2.8762-2.0296,4.3555
			c-0.1273,0.274-0.2707,0.5328-0.4276,0.7842c-0.2432,0.661-0.4969,1.3199-0.7982,1.9695
			C116.9516,160.5326,106.5975,167.2512,94.734,167.6142z"/>
		
			<radialGradient id="SVGID_4_" cx="893.067" cy="-30.3487" r="102.3632" gradientTransform="matrix(0.9827 -0.0301 0.0301 0.9827 -764.3141 133.8336)" gradientUnits="userSpaceOnUse">
			<stop  offset="0.1174" style="stop-color:#FEEB65"/>
			<stop  offset="1" style="stop-color:#F6B330"/>
		</radialGradient>
		<path fill="url(#SVGID_4_)" d="M78.4185,103.0652c6.5042,7.3105,2.6761,17.5318,2.6058,19.1544c0,0,2.5612-9.5814,10.2495-20.2743
			c9.045-12.5743,31.6074-12.8235,37.1267,7.2434c3.5526,12.9166-2.7713,23.6957-8.6949,36.6322
			c-0.1077,0.2355-0.2498,0.4461-0.3975,0.6566c-0.2497,0.7031-0.5101,1.4052-0.828,2.0958
			c-6.2286,13.5526-22.75,19.2728-36.9138,12.7668c-14.1557-6.5035-20.5895-22.7696-14.3636-36.322
			c0,0,2.4233-8.4627,1.6725-13.2146C67.3178,101.9228,74.1924,98.3165,78.4185,103.0652z"/>
	</g>
</g>
</svg>
