<?xml version="1.0" encoding="utf-8"?>
<!-- Generator: Adobe Illustrator 17.0.0, SVG Export Plug-In . SVG Version: 6.00 Build 0)  -->
<!DOCTYPE svg PUBLIC "-//W3C//DTD SVG 1.1//EN" "http://www.w3.org/Graphics/SVG/1.1/DTD/svg11.dtd">
<svg version="1.1" id="Layer_1" xmlns="http://www.w3.org/2000/svg" xmlns:xlink="http://www.w3.org/1999/xlink" x="0px" y="0px" viewBox="0 0 200 200" enable-background="new 0 0 200 200" xml:space="preserve">
<g>
	<g>
		<g>
			<g>
				<path fill="#E5A126" d="M99.9972,198.9986C45.4105,198.9986,1,154.5881,1,100S45.4105,1.0014,99.9972,1.0014
					C154.5867,1.0014,199,45.4119,199,100S154.5867,198.9986,99.9972,198.9986z"/>
				<path fill="#E5A126" d="M99.9972,197.6085c-53.8211,0-97.6071-43.7874-97.6071-97.6085S46.1762,2.3915,99.9972,2.3915
					c53.8238,0,97.6127,43.7874,97.6127,97.6085S153.8211,197.6085,99.9972,197.6085z"/>
				<radialGradient id="SVGID_1_" cx="103.7957" cy="-9.3552" r="204.239" gradientUnits="userSpaceOnUse">
					<stop  offset="0" style="stop-color:#FFF7C2"/>
					<stop  offset="0.3276" style="stop-color:#FFE996"/>
					<stop  offset="1" style="stop-color:#FDD022"/>
				</radialGradient>
				<circle fill="url(#SVGID_1_)" cx="100" cy="100" r="92.0494"/>
				<g>
					<defs>
						<circle id="SVGID_2_" cx="100" cy="100" r="92.0494"/>
					</defs>
					<clipPath id="SVGID_3_">
						<use xlink:href="#SVGID_2_"  overflow="visible"/>
					</clipPath>
				</g>
			</g>
		</g>
	</g>
	<g>
		<path fill="#82361A" d="M61.5911,86.6841c-0.6187,0-1.2402-0.1354-1.8148-0.4088c-16.4022-7.7633-33.9148-1.243-34.0888-1.1767
			c-2.1822,0.8383-4.6378-0.261-5.4748-2.4515c-0.8342-2.1891,0.2624-4.6406,2.4529-5.4761
			c0.7182-0.2762,15.3857-5.7344,31.7989-1.7264c-2.8479-4.3077-8.4994-9.8446-19.6948-14.4879
			c-2.1656-0.8977-3.1931-3.381-2.2954-5.5452c0.8977-2.1642,3.3837-3.1918,5.5438-2.294
			C64.9914,64.303,65.809,81.585,65.8311,82.3156c0.0442,1.4764-0.6823,2.8686-1.917,3.6765
			C63.2125,86.4507,62.4032,86.6841,61.5911,86.6841z"/>
	</g>
	<g>
		<path fill="#82361A" d="M111.5186,87.7683c-0.7679,0-1.5358-0.2085-2.2126-0.6229c-1.2402-0.7569-2.0054-2.0965-2.0302-3.5481
			c-0.0111-0.7347,0.0304-18.1258,28.8985-30.6967c2.149-0.9336,4.6516,0.0511,5.5825,2.196c0.9364,2.149-0.047,4.6488-2.196,5.5852
			c-12.1345,5.2842-18.0816,11.1443-20.9985,15.6094c17.7805-5.0991,34.2573-0.3978,35.0639-0.163
			c2.2485,0.6616,3.5357,3.0191,2.8755,5.2676s-3.0053,3.5384-5.2621,2.8769c-0.2928-0.0829-20.145-5.6432-37.8482,3.0606
			C112.8002,87.6232,112.1594,87.7683,111.5186,87.7683z"/>
	</g>
	<g>
		<path fill="#A05024" d="M78.0761,149.9849c-1.8093,0-3.6213-0.2086-5.356-0.7016c-4.4776-1.2734-7.7508-4.258-9.4634-8.6306
			c-3.5191-9.0049,2.1435-15.9754,7.7508-19.8923c-5.298-3.9956-8.3668-10.0615-7.7702-16.0016
			c0.5856-5.8145,4.4969-10.0614,10.4661-11.3583c11.1898-2.4335,17.6452,3.6144,19.4959,7.1542
			c0.7209,1.3839,0.1851,3.0923-1.1988,3.816c-1.3701,0.7182-3.0716,0.1947-3.8036-1.174c-0.174-0.3094-3.6876-6.3518-13.2891-4.269
			c-4.8008,1.0441-5.8449,4.4555-6.041,6.396c-0.4171,4.1365,2.1932,9.9344,8.9055,12.8872c1.0275,0.453,1.6905,1.4681,1.6905,2.591
			c0,1.1215-0.6657,2.138-1.6932,2.5882c-0.5221,0.2334-12.8969,5.8532-9.2452,15.202c1.0717,2.7374,2.9528,4.4555,5.7455,5.251
			c5.5438,1.5703,13.2035-1.0358,15.5845-2.8202c1.2541-0.9405,3.0247-0.6809,3.9583,0.5676
			c0.9392,1.2499,0.685,3.0219-0.5663,3.9597C90.8073,147.3773,84.4762,149.9849,78.0761,149.9849z"/>
	</g>
	<g>
		<radialGradient id="SVGID_4_" cx="38.031" cy="106.3106" r="30.7262" gradientUnits="userSpaceOnUse">
			<stop  offset="0" style="stop-color:#F15A60;stop-opacity:0.5"/>
			<stop  offset="0.1384" style="stop-color:#F16262;stop-opacity:0.4367"/>
			<stop  offset="0.3698" style="stop-color:#F37767;stop-opacity:0.3309"/>
			<stop  offset="0.6559" style="stop-color:#F7956E;stop-opacity:0.2"/>
			<stop  offset="0.7027" style="stop-color:#F69B6C;stop-opacity:0.1714"/>
			<stop  offset="0.7826" style="stop-color:#F6AE68;stop-opacity:0.1227"/>
			<stop  offset="0.8851" style="stop-color:#F8CC5A;stop-opacity:0.0602"/>
			<stop  offset="0.9839" style="stop-color:#FAEE3C;stop-opacity:0"/>
		</radialGradient>
		<path fill="url(#SVGID_4_)" d="M68.7576,106.3086c0,16.9717-13.7547,30.7278-30.7292,30.7278
			c-16.9611,0-30.7239-13.7561-30.7239-30.7278c0-16.9695,13.7628-30.7239,30.7239-30.7239
			C55.0029,75.5847,68.7576,89.3392,68.7576,106.3086z"/>
		<radialGradient id="SVGID_5_" cx="142.4583" cy="110.0953" r="30.7262" gradientUnits="userSpaceOnUse">
			<stop  offset="0" style="stop-color:#F15A60;stop-opacity:0.5"/>
			<stop  offset="0.1384" style="stop-color:#F16262;stop-opacity:0.4367"/>
			<stop  offset="0.3698" style="stop-color:#F37767;stop-opacity:0.3309"/>
			<stop  offset="0.6559" style="stop-color:#F7956E;stop-opacity:0.2"/>
			<stop  offset="0.7027" style="stop-color:#F69B6C;stop-opacity:0.1714"/>
			<stop  offset="0.7826" style="stop-color:#F6AE68;stop-opacity:0.1227"/>
			<stop  offset="0.8851" style="stop-color:#F8CC5A;stop-opacity:0.0602"/>
			<stop  offset="0.9839" style="stop-color:#FAEE3C;stop-opacity:0"/>
		</radialGradient>
		<circle fill="url(#SVGID_5_)" cx="142.4583" cy="110.0934" r="30.7265"/>
	</g>
	<g>
		<g>
			<path fill="#F26A6B" d="M21.5801,116.0992c-0.4723,0-0.9474-0.1561-1.3424-0.4779c-0.906-0.7417-1.0414-2.0772-0.3011-2.9846
				l12.8306-15.7171c0.743-0.9102,2.08-1.0414,2.986-0.3025c0.906,0.7417,1.0414,2.0772,0.3011,2.9846l-12.8306,15.7171
				C22.8038,115.8326,22.1933,116.0992,21.5801,116.0992z"/>
		</g>
		<g>
			<path fill="#F26A6B" d="M34.3831,116.4831c-0.4723,0-0.9474-0.1561-1.3424-0.4779c-0.906-0.7417-1.0414-2.0772-0.3011-2.9846
				l12.8306-15.7171c0.743-0.9102,2.0772-1.04,2.986-0.3025c0.906,0.7417,1.0414,2.0772,0.3011,2.9846l-12.8306,15.7171
				C35.6067,116.2165,34.9963,116.4831,34.3831,116.4831z"/>
		</g>
	</g>
	<g>
		<g>
			<path fill="#F26A6B" d="M129.1886,116.0992c-0.4724,0-0.9474-0.1561-1.3425-0.4779c-0.906-0.7417-1.0414-2.0772-0.3011-2.9846
				l12.8334-15.7171c0.743-0.9102,2.0772-1.0414,2.986-0.3025c0.906,0.7417,1.0414,2.0772,0.3011,2.9846l-12.8334,15.7171
				C130.4123,115.8326,129.8018,116.0992,129.1886,116.0992z"/>
		</g>
		<g>
			<path fill="#F26A6B" d="M141.9916,116.4831c-0.4723,0-0.9474-0.1561-1.3424-0.4779c-0.906-0.7403-1.0414-2.0772-0.3011-2.9846
				l12.8278-15.7171c0.743-0.9102,2.08-1.04,2.986-0.3025c0.906,0.7403,1.0414,2.0772,0.3011,2.9846l-12.8278,15.7171
				C143.2152,116.2165,142.6048,116.4831,141.9916,116.4831z"/>
		</g>
	</g>
</g>
</svg>
