<?xml version="1.0" encoding="utf-8"?>
<!-- Generator: Adobe Illustrator 17.0.0, SVG Export Plug-In . SVG Version: 6.00 Build 0)  -->
<!DOCTYPE svg PUBLIC "-//W3C//DTD SVG 1.1//EN" "http://www.w3.org/Graphics/SVG/1.1/DTD/svg11.dtd">
<svg version="1.1" id="Layer_1" xmlns="http://www.w3.org/2000/svg" xmlns:xlink="http://www.w3.org/1999/xlink" x="0px" y="0px"
	  viewBox="0 0 200 200" enable-background="new 0 0 200 200" xml:space="preserve">
<g>
	<g>
		<g>
			<g>
				<path fill="#E4A024" d="M99.9972,198.9986C45.4108,198.9986,1,154.5878,1,100C1,45.4119,45.4108,1.0014,99.9972,1.0014
					C154.5867,1.0014,199,45.4119,199,100C199,154.5878,154.5867,198.9986,99.9972,198.9986z"/>
				<path fill="#E4A024" d="M99.9972,197.6085c-53.8183,0-97.6071-43.7874-97.6071-97.6085S46.1789,2.3915,99.9972,2.3915
					c53.8238,0,97.6127,43.7874,97.6127,97.6085S153.8211,197.6085,99.9972,197.6085z"/>
				<radialGradient id="SVGID_1_" cx="103.7957" cy="-9.3552" r="204.239" gradientUnits="userSpaceOnUse">
					<stop  offset="0" style="stop-color:#FFF7C2"/>
					<stop  offset="0.3321" style="stop-color:#FFEB8F"/>
					<stop  offset="1" style="stop-color:#FED01F"/>
				</radialGradient>
				<circle fill="url(#SVGID_1_)" cx="100" cy="100" r="92.0494"/>
				<g>
					<defs>
						<circle id="SVGID_2_" cx="100" cy="100" r="92.0494"/>
					</defs>
					<clipPath id="SVGID_3_">
						<use xlink:href="#SVGID_2_"  overflow="visible"/>
					</clipPath>
				</g>
			</g>
		</g>
	</g>
	<g>
		<path fill="#A04E17" d="M55.4611,144.0679c-0.9502,0-1.8783-0.4793-2.4142-1.3494c-2.2816-3.718-0.6933-9.8945,0.4558-13.2465
			c4.0384-11.7673,15.803-28.1573,35.6748-35.6223c34.0368-12.7907,54.7621,2.5178,55.6295,3.1766
			c1.243,0.9461,1.4834,2.7208,0.5387,3.9639c-0.9419,1.2403-2.7153,1.4847-3.9583,0.5428
			c-0.7955-0.5994-19.2696-14.0144-50.221-2.388c-18.0266,6.7731-28.6724,21.5596-32.3104,32.164
			c-1.6242,4.7332-1.4806,7.6474-0.9861,8.4512c0.8176,1.3314,0.4005,3.073-0.9309,3.8907
			C56.4776,143.9339,55.9666,144.0679,55.4611,144.0679z"/>
	</g>
	<g>
		<path fill="#A5601C" d="M105.7677,123.5718c-0.4917,0-0.9917-0.1284-1.4447-0.3992c-1.3425-0.7997-1.7817-2.5358-0.9834-3.8769
			c6.4913-10.8944,19.1122-11.7549,19.6453-11.7853c1.6518-0.1105,2.8976,1.098,2.9888,2.6573
			c0.0912,1.5579-1.0939,2.8935-2.649,2.9888c-0.1768,0.0124-10.2149,0.7928-15.1235,9.034
			C107.6709,123.0787,106.7317,123.5718,105.7677,123.5718z"/>
	</g>
	<g>
		<path fill="#FFFFFF" d="M43.2249,47.1306c0-12.7393,8.9707-23.073,20.0347-23.073c11.0584,0,20.04,10.3336,20.04,23.073
			c0,12.7485-8.9816,23.0821-20.04,23.0821C52.1957,70.2128,43.2249,59.8792,43.2249,47.1306z"/>
		<path fill="#AA5B26" d="M63.2596,19.4611c13.5807,0,24.6338,12.4146,24.6338,27.6762c0,15.2588-11.0531,27.672-24.6338,27.672
			c-13.5837,0-24.6285-12.4132-24.6285-27.672C38.6311,31.8757,49.6759,19.4611,63.2596,19.4611z"/>
		<ellipse fill="#FFFFFF" cx="63.2623" cy="47.1373" rx="20.0373" ry="23.0755"/>
		<path fill="#6D2F16" d="M82.7358,41.7827c-2.1007-10.1593-10.0146-17.725-19.4768-17.725c-1.453,0-2.8659,0.188-4.2318,0.5266
			c-3.1573,2.8184-5.1613,6.9663-5.1613,11.6031c0,8.4928,6.6861,15.3741,14.9508,15.3741
			C75.152,51.5615,80.5564,47.5042,82.7358,41.7827z"/>
		<ellipse fill="none" cx="63.2623" cy="47.1373" rx="20.0373" ry="23.0755"/>
	</g>
	<g>
		<path fill="#FFFFFF" d="M121.1315,47.1306c0-12.7393,8.9707-23.073,20.0347-23.073c11.0584,0,20.04,10.3336,20.04,23.073
			c0,12.7485-8.9816,23.0821-20.04,23.0821C130.1022,70.2128,121.1315,59.8792,121.1315,47.1306z"/>
		<path fill="#AA5B26" d="M141.1662,19.4611c13.5834,0,24.6338,12.4146,24.6338,27.6762c0,15.2588-11.0504,27.672-24.6338,27.672
			c-13.5837,0-24.6285-12.4132-24.6285-27.672C116.5377,31.8757,127.5825,19.4611,141.1662,19.4611z"/>
		<path fill="#FFFFFF" d="M161.2062,47.1373c0,12.7419-8.9788,23.0755-20.04,23.0755c-11.064,0-20.0347-10.3336-20.0347-23.0755
			c0-12.746,8.9707-23.0796,20.0347-23.0796C152.2274,24.0577,161.2062,34.3913,161.2062,47.1373z"/>
		<path fill="#6D2F16" d="M160.6417,41.7835c-2.1007-10.16-10.016-17.7259-19.4754-17.7259c-1.453,0-2.8659,0.1878-4.2304,0.5262
			c-3.1573,2.8186-5.1613,6.9665-5.1613,11.6035c0,8.4928,6.6847,15.3741,14.9494,15.3741
			C153.0606,51.5615,158.4636,47.5046,160.6417,41.7835z"/>
		<path fill="none" d="M161.2062,47.1373c0,12.7419-8.9788,23.0755-20.04,23.0755c-11.064,0-20.0347-10.3336-20.0347-23.0755
			c0-12.746,8.9707-23.0796,20.0347-23.0796C152.2274,24.0577,161.2062,34.3913,161.2062,47.1373z"/>
	</g>
</g>
</svg>
