<?xml version="1.0" encoding="utf-8"?>
<!-- Generator: Adobe Illustrator 17.0.0, SVG Export Plug-In . SVG Version: 6.00 Build 0)  -->
<!DOCTYPE svg PUBLIC "-//W3C//DTD SVG 1.1//EN" "http://www.w3.org/Graphics/SVG/1.1/DTD/svg11.dtd">
<svg version="1.1" id="Layer_1" xmlns="http://www.w3.org/2000/svg" xmlns:xlink="http://www.w3.org/1999/xlink" x="0px" y="0px" viewBox="0 0 200 200" enable-background="new 0 0 200 200" xml:space="preserve">
<g>
	<g>
		<g>
			<g>
				<path fill="#E5A126" d="M100.8116,198.1843c-54.1375,0-98.1829-44.0452-98.1829-98.1843S46.6741,1.8157,100.8116,1.8157
					C154.9521,1.8157,199,45.8609,199,100S154.9521,198.1843,100.8116,198.1843z"/>
				<path fill="#E5A126" d="M100.8116,196.8056c-53.3808,0-96.8042-43.4273-96.8042-96.8056S47.4307,3.1944,100.8116,3.1944
					c53.3811,0,96.8097,43.4273,96.8097,96.8056S154.1927,196.8056,100.8116,196.8056z"/>
				
					<radialGradient id="SVGID_1_" cx="4.0531" cy="-1.2458" r="207.7893" gradientTransform="matrix(0.9748 0 0 0.9748 100.6278 -7.2412)" gradientUnits="userSpaceOnUse">
					<stop  offset="0" style="stop-color:#FFF7C2"/>
					<stop  offset="0.3276" style="stop-color:#FFE996"/>
					<stop  offset="1" style="stop-color:#FDD022"/>
				</radialGradient>
				<path fill="url(#SVGID_1_)" d="M192.1066,100c0,50.4191-40.8786,91.2909-91.295,91.2909
					c-50.4161,0-91.2895-40.8717-91.2895-91.2909c0-50.4189,40.8734-91.2909,91.2895-91.2909
					C151.228,8.7091,192.1066,49.5811,192.1066,100z"/>
				<g>
					<defs>
						<path id="SVGID_2_" d="M192.1066,100c0,50.4191-40.8786,91.2909-91.295,91.2909c-50.4161,0-91.2895-40.8717-91.2895-91.2909
							c0-50.4189,40.8734-91.2909,91.2895-91.2909C151.228,8.7091,192.1066,49.5811,192.1066,100z"/>
					</defs>
					<clipPath id="SVGID_3_">
						<use xlink:href="#SVGID_2_"  overflow="visible"/>
					</clipPath>
				</g>
			</g>
		</g>
	</g>
	<g>
		<path fill="#82361A" d="M124.6683,118.6943c-1.2734,0-2.5192-0.5732-3.3451-1.6297c-1.2375-1.5814-1.1961-3.8133,0.0994-5.3478
			c0.3536-0.4199,8.9691-10.4027,35.951-22.1548c2.1546-0.9336,4.6461,0.0511,5.5826,2.196c0.9364,2.149-0.047,4.6489-2.196,5.5839
			c-6.2124,2.707-11.3723,5.298-15.6151,7.6639c11.7397-0.6547,20.706,1.906,21.2916,2.0772
			c2.2485,0.6616,3.5357,3.0192,2.8755,5.2677c-0.6602,2.2485-3.0275,3.5371-5.2594,2.8769l0,0
			c-0.1961-0.0552-19.9243-5.6143-37.5145,3.0316C125.939,118.5534,125.3009,118.6943,124.6683,118.6943z"/>
	</g>
	<g>
		<path fill="#82361A" d="M76.4279,118.6943c-0.6326,0-1.2707-0.1409-1.8701-0.4351c-17.6813-8.6943-37.3073-3.091-37.5034-3.0344
			c-2.2485,0.6616-4.6047-0.6243-5.2677-2.8741c-0.6602-2.2485,0.627-4.6061,2.8755-5.2663
			c0.5856-0.1726,9.5658-2.7402,21.2889-2.0786c-4.2429-2.3659-9.4028-4.9569-15.6152-7.6639
			c-2.1491-0.935-3.1324-3.4349-2.196-5.5839c0.9337-2.1477,3.4501-3.1228,5.5826-2.196
			c26.9819,11.7521,35.5975,21.735,35.951,22.1548c1.2955,1.5344,1.3369,3.7664,0.0994,5.3478
			C78.9471,118.1211,77.7013,118.6943,76.4279,118.6943z"/>
	</g>
	<g>
		
			<radialGradient id="SVGID_4_" cx="-58.3109" cy="139.0855" r="31.2604" gradientTransform="matrix(0.9748 0 0 0.9748 100.6278 -7.2412)" gradientUnits="userSpaceOnUse">
			<stop  offset="0" style="stop-color:#F15A60;stop-opacity:0.5"/>
			<stop  offset="0.1384" style="stop-color:#F16262;stop-opacity:0.4367"/>
			<stop  offset="0.3698" style="stop-color:#F37767;stop-opacity:0.3309"/>
			<stop  offset="0.6559" style="stop-color:#F7956E;stop-opacity:0.2"/>
			<stop  offset="0.7027" style="stop-color:#F69B6C;stop-opacity:0.1714"/>
			<stop  offset="0.7826" style="stop-color:#F6AE68;stop-opacity:0.1227"/>
			<stop  offset="0.8851" style="stop-color:#F8CC5A;stop-opacity:0.0602"/>
			<stop  offset="0.9839" style="stop-color:#FAEE3C;stop-opacity:0"/>
		</radialGradient>
		<path fill="url(#SVGID_4_)" d="M74.2586,128.3411c0,16.8324-13.6416,30.4753-30.4767,30.4753
			c-16.8216,0-30.4712-13.6429-30.4712-30.4753c0-16.8296,13.6496-30.4709,30.4712-30.4709
			C60.6171,97.8702,74.2586,111.5115,74.2586,128.3411z"/>
		
			<radialGradient id="SVGID_5_" cx="58.6937" cy="142.936" r="31.2603" gradientTransform="matrix(0.9748 0 0 0.9748 100.6278 -7.2412)" gradientUnits="userSpaceOnUse">
			<stop  offset="0" style="stop-color:#F15A60;stop-opacity:0.5"/>
			<stop  offset="0.1384" style="stop-color:#F16262;stop-opacity:0.4367"/>
			<stop  offset="0.3698" style="stop-color:#F37767;stop-opacity:0.3309"/>
			<stop  offset="0.6559" style="stop-color:#F7956E;stop-opacity:0.2"/>
			<stop  offset="0.7027" style="stop-color:#F69B6C;stop-opacity:0.1714"/>
			<stop  offset="0.7826" style="stop-color:#F6AE68;stop-opacity:0.1227"/>
			<stop  offset="0.8851" style="stop-color:#F8CC5A;stop-opacity:0.0602"/>
			<stop  offset="0.9839" style="stop-color:#FAEE3C;stop-opacity:0"/>
		</radialGradient>
		<circle fill="url(#SVGID_5_)" cx="157.8441" cy="132.095" r="30.4738"/>
	</g>
	<g>
		<g>
			<path fill="#F26A6B" d="M27.4693,138.0689c-0.4723,0-0.9475-0.1561-1.3425-0.4779c-0.906-0.7417-1.0414-2.0772-0.3011-2.9846
				l12.7258-15.5875c0.7431-0.9102,2.0772-1.0414,2.986-0.3025c0.906,0.7417,1.0414,2.0772,0.3011,2.9846l-12.7258,15.5875
				C28.693,137.8023,28.0826,138.0689,27.4693,138.0689z"/>
		</g>
		<g>
			<path fill="#F26A6B" d="M40.1648,138.4487c-0.4723,0-0.9475-0.1561-1.3425-0.4779c-0.906-0.7417-1.0414-2.0772-0.3011-2.9846
				L51.247,119.4c0.743-0.9088,2.08-1.0414,2.986-0.3025c0.906,0.7417,1.0414,2.0772,0.3011,2.9846l-12.7258,15.5861
				C41.3885,138.1821,40.778,138.4487,40.1648,138.4487z"/>
		</g>
	</g>
	<g>
		<g>
			<path fill="#F26A6B" d="M142.4657,138.0689c-0.4724,0-0.9475-0.1561-1.3425-0.4779c-0.906-0.7417-1.0414-2.0772-0.3011-2.9846
				l12.7258-15.5875c0.743-0.9102,2.0772-1.0414,2.986-0.3025c0.906,0.7417,1.0414,2.0772,0.3011,2.9846l-12.7258,15.5875
				C143.6894,137.8023,143.0789,138.0689,142.4657,138.0689z"/>
		</g>
		<g>
			<path fill="#F26A6B" d="M155.1611,138.4487c-0.4724,0-0.9475-0.1561-1.3425-0.4779c-0.906-0.7417-1.0414-2.0772-0.3011-2.9846
				L166.2434,119.4c0.7431-0.9088,2.0772-1.0414,2.986-0.3025c0.906,0.7417,1.0414,2.0772,0.3011,2.9846l-12.7258,15.5861
				C156.3848,138.1821,155.7743,138.4487,155.1611,138.4487z"/>
		</g>
	</g>
	<g>
		<path fill="#37C3E0" d="M17.4578,147.6416c-4.4835,0-8.6358-1.6897-11.7056-4.7581c-3.2501-3.2529-4.9357-7.6663-4.7363-12.4297
			c0.1911-4.6707,2.1783-9.123,5.598-12.5403c6.5813-6.5824,26.7904-7.9597,29.071-8.0956l3.3364-0.198l-0.1994,3.335
			c-0.1346,2.282-1.516,22.4897-8.089,29.0721C27.1624,145.5965,22.3262,147.6416,17.4578,147.6416L17.4578,147.6416z"/>
		<path fill="#B5E2EA" d="M8.7117,120.01c-5.978,5.9739-6.3629,15.2772-0.8589,20.7757c5.5037,5.5054,14.8046,5.1205,20.7798-0.8534
			c5.9697-5.978,7.2301-27.1524,7.2301-27.1524S14.6869,114.0361,8.7117,120.01z"/>
	</g>
	<g>
		<path fill="#A05024" d="M116.3246,172.0485c0,0-11.6325-11.0295-15.5102-11.0295c-3.8774,0-15.513,11.0295-15.513,11.0295
			c-1.1471,0-2.1783-0.715-2.5795-1.7934c-0.404-1.0784-0.0943-2.2941,0.7754-3.048l15.5102-13.4422
			c1.0395-0.8967,2.5743-0.8967,3.6138,0l15.5102,13.4422c0.8697,0.7539,1.1793,1.9696,0.7754,3.048
			C118.5056,171.3335,117.4744,172.0485,116.3246,172.0485z"/>
	</g>
	<g>
		<path fill="#37C3E0" d="M181.8902,149.2222c4.4807,0,8.6358-1.6897,11.7029-4.7581c3.2529-3.2529,4.9385-7.6663,4.7391-12.4297
			c-0.1911-4.6707-2.1783-9.1231-5.598-12.5403c-6.5838-6.5824-26.7904-7.9597-29.071-8.0956l-3.3364-0.198l0.1994,3.335
			c0.1346,2.282,1.516,22.49,8.089,29.0724C172.1856,147.177,177.0218,149.2222,181.8902,149.2222L181.8902,149.2222z"/>
		<path fill="#B5E2EA" d="M190.6363,121.5905c5.978,5.9738,6.3604,15.2772,0.8589,20.776
			c-5.504,5.5051-14.8046,5.1202-20.7798-0.8537c-5.9697-5.978-7.2326-27.1524-7.2326-27.1524S184.6611,115.6167,190.6363,121.5905z
			"/>
	</g>
</g>
</svg>
