<?xml version="1.0" encoding="utf-8"?>
<!-- Generator: Adobe Illustrator 17.0.0, SVG Export Plug-In . SVG Version: 6.00 Build 0)  -->
<!DOCTYPE svg PUBLIC "-//W3C//DTD SVG 1.1//EN" "http://www.w3.org/Graphics/SVG/1.1/DTD/svg11.dtd">
<svg version="1.1" id="Layer_1" xmlns="http://www.w3.org/2000/svg" xmlns:xlink="http://www.w3.org/1999/xlink" x="0px" y="0px"
	  viewBox="0 0 200 200" enable-background="new 0 0 200 200" xml:space="preserve">
<g>
	<g>
		<g>
			<g>
				<path fill="#E4A024" d="M99.9972,198.9986C45.4108,198.9986,1,154.5881,1,100S45.4108,1.0014,99.9972,1.0014
					C154.5867,1.0014,199,45.4119,199,100S154.5867,198.9986,99.9972,198.9986z"/>
				<path fill="#E4A024" d="M99.9972,197.6085c-53.8236,0-97.6071-43.7874-97.6071-97.6085S46.1737,2.3915,99.9972,2.3915
					c53.8238,0,97.6127,43.7874,97.6127,97.6085S153.8211,197.6085,99.9972,197.6085z"/>
				<radialGradient id="SVGID_1_" cx="103.7957" cy="-9.3552" r="204.239" gradientUnits="userSpaceOnUse">
					<stop  offset="0" style="stop-color:#FFF7C2"/>
					<stop  offset="0.3321" style="stop-color:#FFEB8F"/>
					<stop  offset="1" style="stop-color:#FED01F"/>
				</radialGradient>
				<path fill="url(#SVGID_1_)" d="M192.0494,100c0,50.8373-41.2177,92.048-92.0522,92.048
					c-50.8342,0-92.0466-41.2107-92.0466-92.048S49.163,7.952,99.9972,7.952C150.8317,7.952,192.0494,49.1627,192.0494,100z"/>
				<g>
					<defs>
						<path id="SVGID_2_" d="M192.0494,100c0,50.8373-41.2177,92.048-92.0522,92.048c-50.8342,0-92.0466-41.2107-92.0466-92.048
							S49.163,7.952,99.9972,7.952C150.8317,7.952,192.0494,49.1627,192.0494,100z"/>
					</defs>
					<clipPath id="SVGID_3_">
						<use xlink:href="#SVGID_2_"  overflow="visible"/>
					</clipPath>
				</g>
			</g>
		</g>
	</g>
	<g>
		<path fill="#FFFFFF" d="M158.9879,71.0532c0,12.7391-8.9704,23.0727-20.0344,23.0727c-11.0587,0-20.04-10.3336-20.04-23.0727
			c0-12.7488,8.9813-23.0824,20.04-23.0824C150.0174,47.9708,158.9879,58.3044,158.9879,71.0532z"/>
		<path fill="#AA5B26" d="M138.9534,98.7225c-13.5837,0-24.6341-12.4146-24.6341-27.6762c0-15.2585,11.0503-27.672,24.6341-27.672
			c13.5834,0,24.6285,12.4135,24.6285,27.672C163.5819,86.3079,152.5369,98.7225,138.9534,98.7225z"/>
		<ellipse fill="#FFFFFF" cx="138.9507" cy="71.0463" rx="20.0372" ry="23.0755"/>
		<path fill="#6D2F16" d="M138.9537,66.622c-8.2565,0-14.9522,6.8813-14.9522,15.3741c0,2.0006,0.3826,3.906,1.0593,5.6592
			c3.6048,3.9989,8.4954,6.4705,13.8929,6.4705c5.4003,0,10.2922-2.474,13.8956-6.4769c0.674-1.7513,1.0566-3.6547,1.0566-5.6528
			C153.9059,73.5034,147.2212,66.622,138.9537,66.622z"/>
		<ellipse fill="none" cx="138.9507" cy="71.0463" rx="20.0372" ry="23.0755"/>
	</g>
	<g>
		<path fill="#FFFFFF" d="M81.0788,71.0532c0,12.7391-8.968,23.0727-20.0319,23.0727c-11.0612,0-20.04-10.3336-20.04-23.0727
			c0-12.7488,8.9788-23.0824,20.04-23.0824C72.1108,47.9708,81.0788,58.3044,81.0788,71.0532z"/>
		<path fill="#AA5B26" d="M61.0469,98.7225c-13.5837,0-24.6341-12.4146-24.6341-27.6762c0-15.2585,11.0504-27.672,24.6341-27.672
			c13.5807,0,24.6285,12.4135,24.6285,27.672C85.6754,86.3079,74.6275,98.7225,61.0469,98.7225z"/>
		<path fill="#FFFFFF" d="M41.0069,71.0463c0-12.7419,8.9788-23.0755,20.04-23.0755c11.064,0,20.0319,10.3336,20.0319,23.0755
			c0,12.746-8.968,23.0796-20.0319,23.0796C49.9857,94.1259,41.0069,83.7923,41.0069,71.0463z"/>
		<path fill="#6D2F16" d="M61.0492,66.622c-8.2592,0-14.9577,6.8813-14.9577,15.3741c0,1.9987,0.384,3.9024,1.0593,5.654
			c3.6048,4.0022,8.4981,6.4756,13.8956,6.4756c5.4016,0,10.2936-2.4747,13.897-6.4786c0.674-1.7509,1.0552-3.6536,1.0552-5.6511
			C75.9986,73.5034,69.3139,66.622,61.0492,66.622z"/>
		<path fill="none" d="M41.0069,71.0463c0-12.7419,8.9788-23.0755,20.04-23.0755c11.064,0,20.0319,10.3336,20.0319,23.0755
			c0,12.746-8.968,23.0796-20.0319,23.0796C49.9857,94.1259,41.0069,83.7923,41.0069,71.0463z"/>
	</g>
	<g>
		<path fill="#A04E17" d="M100.0001,154.4597c-29.7829,0-40.959-19.1578-41.4203-19.974c-0.7707-1.359-0.29-3.0855,1.069-3.8548
			c1.3618-0.7652,3.0799-0.2928,3.8506,1.0621c0.4116,0.7154,10.1679,17.1095,36.5007,17.1095
			c26.3466,0,36.0947-16.4121,36.4952-17.1109c0.779-1.3508,2.5137-1.8203,3.8561-1.0511c1.3535,0.7721,1.8314,2.4888,1.0635,3.8451
			C140.9563,135.3005,129.7857,154.4597,100.0001,154.4597z"/>
	</g>
</g>
</svg>
