<?xml version="1.0" encoding="utf-8"?>
<!-- Generator: Adobe Illustrator 17.0.0, SVG Export Plug-In . SVG Version: 6.00 Build 0)  -->
<!DOCTYPE svg PUBLIC "-//W3C//DTD SVG 1.1//EN" "http://www.w3.org/Graphics/SVG/1.1/DTD/svg11.dtd">
<svg version="1.1" id="Layer_1" xmlns="http://www.w3.org/2000/svg" xmlns:xlink="http://www.w3.org/1999/xlink" x="0px" y="0px"
	viewBox="0 0 200 200" enable-background="new 0 0 200 200" xml:space="preserve">
<g>
	<g>
		<g>
			<g>
				<path fill="#E4A024" d="M99.9972,198.9986C45.4108,198.9986,1,154.5881,1,100S45.4108,1.0014,99.9972,1.0014
					C154.5867,1.0014,199,45.4119,199,100S154.5867,198.9986,99.9972,198.9986z"/>
				<path fill="#E4A024" d="M99.9972,197.6085c-53.8236,0-97.6071-43.7874-97.6071-97.6085S46.1737,2.3915,99.9972,2.3915
					c53.8238,0,97.6127,43.7874,97.6127,97.6085S153.8211,197.6085,99.9972,197.6085z"/>
				<radialGradient id="SVGID_1_" cx="103.7957" cy="-9.3552" r="204.239" gradientUnits="userSpaceOnUse">
					<stop  offset="0" style="stop-color:#FFF7C2"/>
					<stop  offset="0.3321" style="stop-color:#FFEB8F"/>
					<stop  offset="1" style="stop-color:#FED01F"/>
				</radialGradient>
				<path fill="url(#SVGID_1_)" d="M192.0494,100c0,50.8373-41.2177,92.048-92.0522,92.048
					c-50.8342,0-92.0466-41.2107-92.0466-92.048S49.163,7.952,99.9972,7.952C150.8317,7.952,192.0494,49.1627,192.0494,100z"/>
				<g>
					<defs>
						<path id="SVGID_2_" d="M192.0494,100c0,50.8373-41.2177,92.048-92.0522,92.048c-50.8342,0-92.0466-41.2107-92.0466-92.048
							S49.163,7.952,99.9972,7.952C150.8317,7.952,192.0494,49.1627,192.0494,100z"/>
					</defs>
					<clipPath id="SVGID_3_">
						<use xlink:href="#SVGID_2_"  overflow="visible"/>
					</clipPath>
				</g>
			</g>
		</g>
	</g>
	<linearGradient id="SVGID_4_" gradientUnits="userSpaceOnUse" x1="100.2486" y1="236.6951" x2="100.2486" y2="97.7721">
		<stop  offset="0" style="stop-color:#FFB18E"/>
		<stop  offset="1" style="stop-color:#FF6659"/>
	</linearGradient>
	<path fill="url(#SVGID_4_)" d="M81.0134,105.7762l-7.9985,39.3905c0,14.5134,12.1961,26.278,27.2294,26.278
		c15.0389,0,27.2378-11.7646,27.2378-26.278l-8.8159-39.3905H81.0134z"/>
	<g>
		<path fill="#FF6969" d="M100.2431,173.5663c-16.1842,0-29.3492-12.7396-29.3492-28.399c0-0.1423,0.0138-0.2831,0.0414-0.4226
			l7.9968-39.3914c0.2348-1.1477,1.3646-1.8839,2.5026-1.656c1.1463,0.232,1.8894,1.3521,1.6574,2.5012l-7.9554,39.1774
			c0.1188,13.2244,11.3364,23.9476,25.1063,23.9476s24.9875-10.7121,25.1174-23.9268l-8.7619-39.158
			c-0.2569-1.1422,0.4613-2.2775,1.6049-2.533c1.1436-0.2528,2.2761,0.4627,2.533,1.6076l8.8144,39.3914
			c0.0359,0.1519,0.0525,0.3066,0.0525,0.4627C129.6034,160.8267,116.4328,173.5663,100.2431,173.5663z"/>
	</g>
	<g>
		<path fill="#823308" d="M124.565,78.9639c-0.7679,0-1.5358-0.2085-2.2126-0.6229c-1.2403-0.7569-2.0054-2.0966-2.0303-3.5495
			c-0.011-0.7348,0.0331-18.1233,28.8989-30.693c2.1546-0.9378,4.6517,0.0511,5.5826,2.1946
			c0.9364,2.1491-0.047,4.6489-2.196,5.5839c-12.1347,5.2856-18.0819,11.1444-20.9961,15.611
			c17.778-5.1047,34.255-0.3978,35.0616-0.163c2.2485,0.6616,3.5357,3.0192,2.8755,5.2677
			c-0.6574,2.2485-3.0164,3.5371-5.2621,2.8769c-0.2956-0.0856-20.1481-5.6447-37.8487,3.0592
			C125.8439,78.8189,125.2031,78.9639,124.565,78.9639z"/>
	</g>
	<g>
		<path fill="#823308" d="M75.9296,78.9639c-0.6409,0-1.2789-0.145-1.8728-0.4351c-17.8443-8.7758-37.6443-3.12-37.8404-3.0606
			c-2.2485,0.6505-4.6047-0.6243-5.2677-2.8755c-0.6602-2.2485,0.627-4.6061,2.8755-5.2677
			c0.8066-0.2348,17.2863-4.9403,35.0726,0.1657c-2.9114-4.4555-8.8586-10.3226-21.0071-15.6124
			c-2.1491-0.9364-3.1324-3.4363-2.196-5.5853c0.9364-2.1477,3.4501-3.1255,5.5826-2.196
			c28.8686,12.5711,28.9072,29.9624,28.8962,30.6958c-0.0249,1.453-0.79,2.7913-2.0303,3.5481
			C77.4654,78.7553,76.6975,78.9639,75.9296,78.9639z"/>
	</g>
	
		<line fill="none" stroke="#EA5757" stroke-width="1.5" stroke-linecap="round" stroke-linejoin="round" stroke-miterlimit="10" x1="100.8255" y1="111.2811" x2="100.8255" y2="146.9547"/>
	<path fill="#A04E17" d="M100.8255,111.2811c-37.8672,0-65.1266-13.7558-66.2671-14.341c-1.3657-0.6978-1.9059-2.3757-1.208-3.74
		c0.4776-0.9339,1.4279-1.5136,2.4789-1.5136c0.4398,0,0.8633,0.1018,1.2597,0.3039c0.2714,0.1373,27.1182,13.5281,64.1221,13.5281
		c21.6878,0,42.4774-4.5668,61.7898-13.5729c0.372-0.1751,0.7682-0.2633,1.173-0.2633c1.0751,0,2.0632,0.6314,2.5195,1.6073
		c0.315,0.6748,0.3503,1.4282,0.0951,2.1247c-0.2525,0.6992-0.7629,1.2556-1.4363,1.5706
		C145.0107,106.4713,123.3009,111.2811,100.8255,111.2811z"/>
</g>
</svg>
