<?xml version="1.0" encoding="utf-8"?>
<!-- Generator: Adobe Illustrator 17.0.0, SVG Export Plug-In . SVG Version: 6.00 Build 0)  -->
<!DOCTYPE svg PUBLIC "-//W3C//DTD SVG 1.1//EN" "http://www.w3.org/Graphics/SVG/1.1/DTD/svg11.dtd">
<svg version="1.1" id="Layer_1" xmlns="http://www.w3.org/2000/svg" xmlns:xlink="http://www.w3.org/1999/xlink" x="0px" y="0px"
	  viewBox="0 0 200 200" enable-background="new 0 0 200 200" xml:space="preserve">
<g>
	<g>
		<g>
			<g>
				<path fill="#E4A024" d="M99.9972,198.9986C45.4105,198.9986,1,154.5881,1,100S45.4105,1.0014,99.9972,1.0014
					C154.5867,1.0014,199,45.4119,199,100S154.5867,198.9986,99.9972,198.9986z"/>
				<path fill="#E4A024" d="M99.9972,197.6085c-53.8211,0-97.6071-43.7874-97.6071-97.6085S46.1762,2.3915,99.9972,2.3915
					c53.8238,0,97.6127,43.7874,97.6127,97.6085S153.8211,197.6085,99.9972,197.6085z"/>
				<radialGradient id="SVGID_1_" cx="103.7957" cy="-9.3552" r="204.239" gradientUnits="userSpaceOnUse">
					<stop  offset="0" style="stop-color:#FFF7C2"/>
					<stop  offset="0.3321" style="stop-color:#FFEB8F"/>
					<stop  offset="1" style="stop-color:#FED01F"/>
				</radialGradient>
				<path fill="url(#SVGID_1_)" d="M192.0494,100c0,50.8373-41.2177,92.048-92.0522,92.048S7.9506,150.8373,7.9506,100
					S49.1627,7.952,99.9972,7.952S192.0494,49.1627,192.0494,100z"/>
				<g>
					<defs>
						<path id="SVGID_2_" d="M192.0494,100c0,50.8373-41.2177,92.048-92.0522,92.048S7.9506,150.8373,7.9506,100
							S49.1627,7.952,99.9972,7.952S192.0494,49.1627,192.0494,100z"/>
					</defs>
					<clipPath id="SVGID_3_">
						<use xlink:href="#SVGID_2_"  overflow="visible"/>
					</clipPath>
				</g>
			</g>
		</g>
	</g>
	
		<radialGradient id="SVGID_4_" cx="-157.3376" cy="135.6618" r="29.6821" gradientTransform="matrix(0.9465 0 0 0.9465 181.3116 -15.6112)" gradientUnits="userSpaceOnUse">
		<stop  offset="0" style="stop-color:#F15860;stop-opacity:0.5"/>
		<stop  offset="0.1648" style="stop-color:#F26262;stop-opacity:0.4246"/>
		<stop  offset="0.4393" style="stop-color:#F57B68;stop-opacity:0.2991"/>
		<stop  offset="0.6559" style="stop-color:#F7946D;stop-opacity:0.2"/>
		<stop  offset="0.7133" style="stop-color:#F89E67;stop-opacity:0.165"/>
		<stop  offset="0.8113" style="stop-color:#FAB955;stop-opacity:0.1053"/>
		<stop  offset="0.9371" style="stop-color:#FEE53A;stop-opacity:0.0285"/>
		<stop  offset="0.9839" style="stop-color:#FFF72E;stop-opacity:0"/>
	</radialGradient>
	<path fill="url(#SVGID_4_)" d="M57.5821,112.7922c0,16.972-13.7572,30.725-30.7239,30.725
		c-16.9664,0-19.6572-17.136-19.6572-34.1066s2.6907-27.3423,19.6572-27.3423C43.8249,82.0683,57.5821,95.8216,57.5821,112.7922z"/>
	
		<radialGradient id="SVGID_5_" cx="-32.8223" cy="139.2935" r="32.4623" gradientTransform="matrix(0.9465 0 0 0.9465 181.3116 -15.6112)" gradientUnits="userSpaceOnUse">
		<stop  offset="0" style="stop-color:#F15860;stop-opacity:0.5"/>
		<stop  offset="0.1648" style="stop-color:#F26262;stop-opacity:0.4246"/>
		<stop  offset="0.4393" style="stop-color:#F57B68;stop-opacity:0.2991"/>
		<stop  offset="0.6559" style="stop-color:#F7946D;stop-opacity:0.2"/>
		<stop  offset="0.7133" style="stop-color:#F89E67;stop-opacity:0.165"/>
		<stop  offset="0.8113" style="stop-color:#FAB955;stop-opacity:0.1053"/>
		<stop  offset="0.9371" style="stop-color:#FEE53A;stop-opacity:0.0285"/>
		<stop  offset="0.9839" style="stop-color:#FFF72E;stop-opacity:0"/>
	</radialGradient>
	<path fill="url(#SVGID_5_)" d="M180.9718,116.2294c0,16.972-13.7575,30.7253-30.7292,30.7253
		c-16.9586,0-30.7239-13.7533-30.7239-30.7253c0-16.9706,13.7653-30.7239,30.7239-30.7239
		C167.2143,85.5055,180.9718,99.2588,180.9718,116.2294z"/>
	<path fill="#FFFFFF" d="M161.1787,78.7545c0,15.298-12.0059,27.7073-26.8193,27.7073c-14.8081,0-26.8305-12.4093-26.8305-27.7073
		c0-15.3116,12.0223-27.7196,26.8305-27.7196C149.1728,51.0349,161.1787,63.4429,161.1787,78.7545z"/>
	<path fill="#AA5B26" d="M134.3594,110.7885c-17.1811,0-31.1557-14.375-31.1557-32.0434c0-17.6643,13.9746-32.0367,31.1557-32.0367
		c17.1727,0,31.1473,14.3725,31.1473,32.0367C165.5067,96.4135,151.5321,110.7885,134.3594,110.7885z"/>
	<path fill="#FFFFFF" d="M107.5289,78.745c0-15.3022,12.0168-27.7101,26.8305-27.7101c14.8134,0,26.8193,12.4079,26.8193,27.7101
		c0,15.3075-12.0059,27.7168-26.8193,27.7168C119.5457,106.4618,107.5289,94.0525,107.5289,78.745z"/>
	<path fill="none" d="M107.5289,78.745c0-15.3022,12.0168-27.7101,26.8305-27.7101c14.8134,0,26.8193,12.4079,26.8193,27.7101
		c0,15.3075-12.0059,27.7168-26.8193,27.7168C119.5457,106.4618,107.5289,94.0525,107.5289,78.745z"/>
	<g>
		<defs>
			<path id="SVGID_6_" d="M107.5289,78.745c0-15.3022,12.0168-27.7101,26.8305-27.7101c14.8134,0,26.8193,12.4079,26.8193,27.7101
				c0,15.3075-12.0059,27.7168-26.8193,27.7168C119.5457,106.4618,107.5289,94.0525,107.5289,78.745z"/>
		</defs>
		<clipPath id="SVGID_7_">
			<use xlink:href="#SVGID_6_"  overflow="visible"/>
		</clipPath>
	</g>
	<g>
		<path fill="#AA5B26" d="M123.0152,50.982c-3.7346,0-9.2288-1.6408-13.0462-9.9718c-0.326-0.7099-0.0138-1.5496,0.6961-1.8756
			c0.7016-0.326,1.5441-0.0166,1.8728,0.6961c5.1019,11.1237,13.1484,7.9885,13.4937,7.849
			c0.7154-0.2914,1.5469,0.047,1.8452,0.7665c0.2983,0.7182-0.0387,1.5414-0.7541,1.8438
			C127.0785,50.308,125.4073,50.982,123.0152,50.982z"/>
	</g>
	<g>
		<path fill="#AA5B26" d="M115.3526,55.5715c-3.7318,0-9.2232-1.6408-13.0407-9.9718c-0.326-0.7099-0.0138-1.5496,0.6961-1.8756
			c0.7044-0.3232,1.5469-0.0152,1.8728,0.6961c5.0992,11.1223,13.1429,7.9857,13.4882,7.849
			c0.7127-0.2914,1.5469,0.0483,1.8452,0.7665s-0.0387,1.5414-0.7541,1.8438C119.4159,54.8975,117.7475,55.5715,115.3526,55.5715z"
			/>
	</g>
	<g>
		<g>
			<path fill="#FF6969" d="M149.6518,124.7362c-0.4724,0-0.9475-0.1561-1.3425-0.4779c-0.906-0.7417-1.0414-2.0772-0.3011-2.986
				l12.8335-15.716c0.743-0.9074,2.0772-1.0414,2.986-0.3011c0.906,0.7417,1.0414,2.0772,0.3011,2.986l-12.8335,15.716
				C150.8755,124.4696,150.265,124.7362,149.6518,124.7362z"/>
		</g>
		<g>
			<path fill="#FF6969" d="M162.455,125.1215c-0.4724,0-0.9474-0.1561-1.3425-0.4779c-0.906-0.7417-1.0414-2.0772-0.3011-2.9846
				l12.8308-15.7174c0.7431-0.9116,2.0772-1.0428,2.986-0.3025c0.906,0.7417,1.0414,2.0772,0.3011,2.9846l-12.8308,15.7174
				C163.6787,124.855,163.0682,125.1215,162.455,125.1215z"/>
		</g>
	</g>
	<g>
		<g>
			<path fill="#FF6969" d="M12.0324,119.2144c-0.4723,0-0.9475-0.1561-1.3425-0.4779c-0.906-0.7403-1.0414-2.0772-0.3011-2.9846
				l9.5437-11.6927c0.7431-0.9116,2.0772-1.0428,2.986-0.3025c0.906,0.7403,1.0414,2.0772,0.3011,2.9846l-9.5437,11.6927
				C13.2561,118.9478,12.6457,119.2144,12.0324,119.2144z"/>
		</g>
		<g>
			<path fill="#FF6969" d="M21.5485,123.6216c-0.4723,0-0.9475-0.1561-1.3425-0.4779c-0.906-0.7417-1.0414-2.0772-0.3011-2.9846
				l12.8308-15.716c0.7431-0.9088,2.08-1.0428,2.986-0.3025c0.906,0.7417,1.0414,2.0772,0.3011,2.9846l-12.8308,15.716
				C22.7722,123.355,22.1617,123.6216,21.5485,123.6216z"/>
		</g>
	</g>
	<g>
		<path fill="#FFFFFF" d="M21.7186,77.6413c0,14.8557,10.9745,26.9052,24.509,26.9052c13.532,0,24.5173-12.0496,24.5173-26.9052
			c0-14.8651-10.9853-26.9147-24.5173-26.9147C32.6931,50.7266,21.7186,62.7762,21.7186,77.6413z"/>
		<path fill="#AA5B26" d="M46.2276,108.8729c-15.8994,0-28.8339-14.0138-28.8339-31.2396c0-17.2219,12.9345-31.233,28.8339-31.233
			c15.9049,0,28.845,14.011,28.845,31.233C75.0726,94.8591,62.1325,108.8729,46.2276,108.8729z"/>
		<path fill="#FFFFFF" d="M70.7449,77.6332c0-14.8571-10.9797-26.9066-24.5173-26.9066c-13.5345,0-24.509,12.0496-24.509,26.9066
			c0,14.8637,10.9745,26.9133,24.509,26.9133C59.7652,104.5465,70.7449,92.497,70.7449,77.6332z"/>
		<path fill="#6D2F16" d="M67.3677,68.7412c0-2.2854-0.3853-4.479-1.0745-6.5371C61.8584,55.271,54.5301,50.7265,46.228,50.7265
			c-8.5382,0-16.0488,4.8001-20.4367,12.0694c-0.5663,1.8856-0.8825,3.8781-0.8825,5.9453c0,11.5365,9.487,20.894,21.2267,20.894
			C57.8614,89.6352,67.3677,80.2777,67.3677,68.7412z"/>
		<path fill="none" d="M70.7449,77.6332c0-14.8571-10.9797-26.9066-24.5173-26.9066c-13.5345,0-24.509,12.0496-24.509,26.9066
			c0,14.8637,10.9745,26.9133,24.509,26.9133C59.7652,104.5465,70.7449,92.497,70.7449,77.6332z"/>
		<g>
			<defs>
				<path id="SVGID_8_" d="M70.7449,77.6332c0-14.8571-10.9797-26.9066-24.5173-26.9066c-13.5345,0-24.509,12.0496-24.509,26.9066
					c0,14.8637,10.9745,26.9133,24.509,26.9133C59.7652,104.5465,70.7449,92.497,70.7449,77.6332z"/>
			</defs>
			<clipPath id="SVGID_9_">
				<use xlink:href="#SVGID_8_"  overflow="visible"/>
			</clipPath>
		</g>
	</g>
	<g>
		<path fill="#AA5B26" d="M36.694,50.7445c-1.1408,0-2.464-0.1809-3.8534-0.7223c-3.4142-1.33-6.1682-4.3727-8.1819-9.0409
			c-0.3094-0.7182,0.0193-1.5496,0.7375-1.859c0.7154-0.308,1.5496,0.0207,1.859,0.7375c1.964,4.5481,4.5937,7.2026,7.8172,7.8877
			c2.3921,0.5069,4.2953-0.2956,4.3147-0.3025c0.7154-0.3163,1.5469,0.0152,1.859,0.7279c0.3121,0.7113-0.0028,1.54-0.7127,1.8576
			C40.4369,50.0732,38.8983,50.7445,36.694,50.7445z"/>
	</g>
	<g>
		<path fill="#AA5B26" d="M29.6917,55.2c-1.1408,0-2.4612-0.1795-3.8506-0.721c-3.4142-1.33-6.1654-4.3713-8.1819-9.0423
			c-0.3094-0.7182,0.0221-1.5496,0.7375-1.859c0.7127-0.3066,1.5524,0.0193,1.859,0.7375c1.7043,3.9501,3.928,6.4831,6.6101,7.5272
			c2.9335,1.1491,5.4859,0.0732,5.508,0.0608c0.7071-0.3135,1.5469-0.0014,1.8673,0.7141c0.3204,0.7127,0,1.5496-0.7127,1.8687
			C33.4318,54.5288,31.8932,55.2,29.6917,55.2z"/>
	</g>
	<circle fill="#FFFFFF" cx="60.5999" cy="80.7432" r="6.3438"/>
	<g>
		<path fill="#A04E17" d="M86.7106,180.0605c-0.7099,0-1.4171-0.2666-1.964-0.7928l-18.9465-18.2711
			c-1.1242-1.0842-1.1574-2.8741-0.0718-3.9998c1.0883-1.1215,2.8783-1.1533,3.9998-0.0718l17.162,16.5502l18.5846-14.7699
			c1.2209-0.9751,2.9998-0.7693,3.9749,0.4544c0.9723,1.2223,0.7679,3.0012-0.4558,3.9735l-20.5237,16.3126
			C87.9536,179.8574,87.3321,180.0605,86.7106,180.0605z"/>
	</g>
	<path fill="#6D2F16" d="M155.2496,70.8456c0-6.4397-2.9446-12.2013-7.5921-16.1434c-3.9224-2.3212-8.4539-3.6673-13.2976-3.6673
		c-9.3752,0-17.6192,4.9778-22.4173,12.5057c-0.8577,2.2837-1.348,4.7361-1.348,7.305c0,11.8783,9.9994,21.5102,22.3399,21.5102
		C145.2736,92.3557,155.2496,82.7239,155.2496,70.8456z"/>
	<circle fill="#FFFFFF" cx="148.202" cy="81.7833" r="6.7239"/>
</g>
</svg>
