<?xml version="1.0" encoding="utf-8"?>
<!-- Generator: Adobe Illustrator 17.0.0, SVG Export Plug-In . SVG Version: 6.00 Build 0)  -->
<!DOCTYPE svg PUBLIC "-//W3C//DTD SVG 1.1//EN" "http://www.w3.org/Graphics/SVG/1.1/DTD/svg11.dtd">
<svg version="1.1" id="Layer_1" xmlns="http://www.w3.org/2000/svg" xmlns:xlink="http://www.w3.org/1999/xlink" x="0px" y="0px" viewBox="0 0 200 200" enable-background="new 0 0 200 200" xml:space="preserve">
<g>
	<g>
		<g>
			<g>
				<g>
					<path fill="#E5A126" d="M99.9972,198.9987C45.4105,198.9987,1,154.5879,1,99.9998C1,45.412,45.4105,1.0013,99.9972,1.0013
						C154.5865,1.0013,199,45.412,199,99.9998C199,154.5879,154.5865,198.9987,99.9972,198.9987z"/>
					<path fill="#E5A126" d="M99.9972,197.6086c-53.8211,0-97.6071-43.7877-97.6071-97.6088S46.1762,2.3914,99.9972,2.3914
						c53.8238,0,97.6127,43.7873,97.6127,97.6084S153.8211,197.6086,99.9972,197.6086z"/>
					
						<radialGradient id="SVGID_1_" cx="40.1267" cy="-3.1949" r="207.7895" gradientTransform="matrix(0.9829 0 0 0.9829 64.3547 -6.2151)" gradientUnits="userSpaceOnUse">
						<stop  offset="0" style="stop-color:#FFF7C2"/>
						<stop  offset="0.3276" style="stop-color:#FFE996"/>
						<stop  offset="1" style="stop-color:#FDD022"/>
					</radialGradient>
					<path fill="url(#SVGID_1_)" d="M192.0494,99.9998c0,50.8373-41.2151,92.0483-92.0522,92.0483
						c-50.8345,0-92.0466-41.211-92.0466-92.0483c0-50.837,41.2121-92.0479,92.0466-92.0479
						C150.8342,7.9519,192.0494,49.1628,192.0494,99.9998z"/>
					<g>
						<defs>
							<path id="SVGID_2_" d="M192.0494,99.9998c0,50.8373-41.2151,92.0483-92.0522,92.0483
								c-50.8345,0-92.0466-41.211-92.0466-92.0483c0-50.837,41.2121-92.0479,92.0466-92.0479
								C150.8342,7.9519,192.0494,49.1628,192.0494,99.9998z"/>
						</defs>
						<clipPath id="SVGID_3_">
							<use xlink:href="#SVGID_2_"  overflow="visible"/>
						</clipPath>
					</g>
				</g>
			</g>
		</g>
		<g>
			<path fill="#82361A" d="M47.8621,44.358c-0.2403,0-0.4862-0.0304-0.732-0.0967c-1.5027-0.4033-2.4004-1.9419-2.0027-3.4487
				c0.0635-0.2348,6.5355-23.4545,34.1887-19.3125c1.5441,0.232,2.6104,1.6726,2.3783,3.2167
				c-0.232,1.5441-1.6684,2.6297-3.2181,2.3769c-22.4987-3.3783-27.678,14.4149-27.8824,15.1732
				C50.2514,43.5266,49.1078,44.358,47.8621,44.358z"/>
		</g>
		<g>
			<path fill="#82361A" d="M149.4641,44.3635c-1.2513,0.0014-2.3976-0.8384-2.7319-2.1062
				c-0.2072-0.75-5.334-18.5528-27.8797-15.1635c-1.5496,0.2527-2.9833-0.8328-3.218-2.3769
				c-0.232-1.5441,0.8342-2.9846,2.3783-3.2167c27.6642-4.1669,34.1252,19.0777,34.1887,19.3125
				c0.3978,1.511-0.5027,3.0578-2.0137,3.457C149.9475,44.3331,149.7044,44.3635,149.4641,44.3635z"/>
		</g>
		<g>
			<g>
				<path fill="#82361A" d="M84.0783,81.8393c-2.3424,0-4.2429-1.8991-4.2429-4.2429c0-8.4705-6.8919-15.361-15.361-15.361
					s-15.361,6.8905-15.361,15.361c0,2.3438-1.9004,4.2429-4.2429,4.2429s-4.2429-1.8991-4.2429-4.2429
					c0-13.1498,10.6983-23.8467,23.8467-23.8467s23.8467,10.6969,23.8467,23.8467C88.3211,79.9403,86.4207,81.8393,84.0783,81.8393z
					"/>
			</g>
		</g>
		<g>
			<g>
				<path fill="#82361A" d="M156.8007,81.8393c-2.3424,0-4.2429-1.8991-4.2429-4.2429c0-8.4705-6.8891-15.361-15.3582-15.361
					c-8.4719,0-15.3638,6.8905-15.3638,15.361c0,2.3438-1.9004,4.2429-4.2429,4.2429c-2.3424,0-4.2429-1.8991-4.2429-4.2429
					c0-13.1498,10.6983-23.8467,23.8495-23.8467c13.1484,0,23.844,10.6969,23.844,23.8467
					C161.0436,79.9403,159.1431,81.8393,156.8007,81.8393z"/>
			</g>
		</g>
	</g>
	<g>
		
			<radialGradient id="SVGID_4_" cx="37.8683" cy="152.82" r="53.3585" gradientTransform="matrix(0.9829 0 0 0.9829 64.3547 -6.2151)" gradientUnits="userSpaceOnUse">
			<stop  offset="0.0054" style="stop-color:#A44F24"/>
			<stop  offset="0.2689" style="stop-color:#A04C23"/>
			<stop  offset="0.5871" style="stop-color:#954120"/>
			<stop  offset="0.9322" style="stop-color:#822F1A"/>
			<stop  offset="1" style="stop-color:#7E2B18"/>
		</radialGradient>
		<path fill="url(#SVGID_4_)" d="M166.8615,113.1178c0.1304-2.4666-0.8661-4.3046-3.3396-4.3046H40.3741
			c-2.4736,0-3.6844,0.665-3.9858,3.7453c-1.5205,15.4937,12.5003,66.616,63.818,66.616
			C151.4289,179.1745,165.9329,130.2216,166.8615,113.1178z"/>
		<path fill="#FFFFFF" d="M159.2592,113.2168l-115.6297-0.0067c-2.7858,0-3.9151,0.315-3.7252,4.3088
			c0.1629,3.4278,2.1016,9.7011,5.0175,10.7804c11.2839,4.177,98.2941,6.3259,111.1499,0.6066
			c5.6853-2.5345,6.2013-7.6632,6.8936-11.0259C163.7446,114.064,162.045,113.2168,159.2592,113.2168z"/>
		<linearGradient id="SVGID_5_" gradientUnits="userSpaceOnUse" x1="102.9341" y1="112.4019" x2="97.1514" y2="225.1806">
			<stop  offset="0" style="stop-color:#F9B08F"/>
			<stop  offset="1" style="stop-color:#F2675B"/>
		</linearGradient>
		<path fill="url(#SVGID_5_)" d="M133.0371,165.5746c-5.0311-13.2537-18.5603-20.1242-33.0209-20.1242
			c-14.455,0-29.1978,10.0606-32.6378,20.1242c0,0,12.4811,10.2914,32.5319,10.2914
			C123.8167,175.866,133.0371,165.5746,133.0371,165.5746z"/>
	</g>
	<g>
		<path fill="#37C3E0" d="M24.1811,118.6933c-4.5151,0-8.7044-1.7037-11.7968-4.7976c-3.2799-3.2799-4.9822-7.7299-4.7812-12.5328
			c0.1955-4.7095,2.1992-9.1987,5.6472-12.6443c6.6384-6.637,27.0095-8.0257,29.3121-8.1628l3.3613-0.1996l-0.201,3.3627
			c-0.1357,2.3009-1.5258,22.6762-8.1561,29.3132C33.9692,116.6312,29.0927,118.6933,24.1811,118.6933L24.1811,118.6933z"/>
		<path fill="#B5E2EA" d="M15.3652,90.8325c-6.0273,6.0234-6.4129,15.4039-0.866,20.948c5.5496,5.551,14.9277,5.1629,20.9525-0.8605
			c6.0192-6.0276,7.2898-27.3776,7.2898-27.3776S21.39,84.8091,15.3652,90.8325z"/>
	</g>
	<g>
		<path fill="#37C3E0" d="M177.1298,118.6933c4.5179,0,8.7074-1.7037,11.7999-4.7976c3.2798-3.2799,4.9794-7.7299,4.7784-12.5328
			c-0.1927-4.7095-2.1964-9.1987-5.6445-12.6443c-6.6384-6.637-27.0126-8.0257-29.3121-8.1628l-3.3641-0.1996l0.201,3.3627
			c0.1357,2.3009,1.5286,22.6762,8.1561,29.3132C167.3447,116.6312,172.221,118.6933,177.1298,118.6933L177.1298,118.6933z"/>
		<path fill="#B5E2EA" d="M185.9484,90.8325c6.0248,6.0234,6.4132,15.4039,0.866,20.948
			c-5.5496,5.551-14.9274,5.1629-20.9522-0.8605c-6.0192-6.0276-7.2901-27.3776-7.2901-27.3776S179.9236,84.8091,185.9484,90.8325z"
			/>
	</g>
</g>
</svg>
