<?xml version="1.0" encoding="utf-8"?>
<!-- Generator: Adobe Illustrator 17.0.0, SVG Export Plug-In . SVG Version: 6.00 Build 0)  -->
<!DOCTYPE svg PUBLIC "-//W3C//DTD SVG 1.1//EN" "http://www.w3.org/Graphics/SVG/1.1/DTD/svg11.dtd">
<svg version="1.1" id="Layer_1" xmlns="http://www.w3.org/2000/svg" xmlns:xlink="http://www.w3.org/1999/xlink" x="0px" y="0px" viewBox="0 0 200 200" enable-background="new 0 0 200 200" xml:space="preserve">
<g>
	<g>
		<g>
			<g>
				<g>
					<path fill="#E5A126" d="M99.9972,198.9986C45.4108,198.9986,1,154.5881,1,100C1,45.4122,45.4108,1.0014,99.9972,1.0014
						C154.5867,1.0014,199,45.4122,199,100C199,154.5881,154.5867,198.9986,99.9972,198.9986z"/>
					<path fill="#E5A126" d="M99.9972,197.6085c-53.8236,0-97.6071-43.7874-97.6071-97.6085S46.1737,2.3915,99.9972,2.3915
						c53.8238,0,97.6127,43.7874,97.6127,97.6085S153.8211,197.6085,99.9972,197.6085z"/>
					<radialGradient id="SVGID_1_" cx="103.7957" cy="-9.3552" r="204.239" gradientUnits="userSpaceOnUse">
						<stop  offset="0" style="stop-color:#FFF7C2"/>
						<stop  offset="0.3276" style="stop-color:#FFE996"/>
						<stop  offset="1" style="stop-color:#FDD022"/>
					</radialGradient>
					<path fill="url(#SVGID_1_)" d="M192.0494,100c0,50.8373-41.2149,92.048-92.0522,92.048
						c-50.8342,0-92.0466-41.2107-92.0466-92.048c0-50.837,41.2124-92.048,92.0466-92.048
						C150.8345,7.952,192.0494,49.163,192.0494,100z"/>
					<g>
						<defs>
							<path id="SVGID_2_" d="M192.0494,100c0,50.8373-41.2149,92.048-92.0522,92.048c-50.8342,0-92.0466-41.2107-92.0466-92.048
								c0-50.837,41.2124-92.048,92.0466-92.048C150.8345,7.952,192.0494,49.163,192.0494,100z"/>
						</defs>
						<clipPath id="SVGID_3_">
							<use xlink:href="#SVGID_2_"  overflow="visible"/>
						</clipPath>
					</g>
				</g>
			</g>
		</g>
		<g>
			<path fill="#82361A" d="M45.7517,45.5763c-0.0249,0-0.0442,0-0.0608,0c-1.5607-0.0083-2.8175-1.2803-2.8092-2.841
				c0.0055-1.5579,1.2734-2.8161,2.8286-2.8161c0.0055,0,0.011,0,0.011,0c0.3619,0,24.2362-0.1616,33.7523-16.8015
				c0.7762-1.3563,2.5026-1.8272,3.8589-1.051s1.8286,2.504,1.0524,3.8603C73.3441,45.2297,47.5361,45.5763,45.7517,45.5763z"/>
		</g>
		<g>
			<path fill="#82361A" d="M154.1572,45.5763c-1.7817,0-27.5924-0.3453-38.6332-19.6495c-0.7762-1.3563-0.3039-3.0841,1.0524-3.8603
				c1.3535-0.7762,3.0827-0.3052,3.8589,1.051c9.5161,16.6386,33.3876,16.8015,33.7523,16.8015c0,0,0.0055,0,0.011,0
				c1.5552,0,2.8231,1.2582,2.8286,2.8161c0.0083,1.5607-1.2486,2.8327-2.8092,2.841
				C154.2014,45.5763,154.1821,45.5763,154.1572,45.5763z"/>
		</g>
		
			<radialGradient id="SVGID_4_" cx="1750.8441" cy="97.6996" r="40.7775" gradientTransform="matrix(1.5924 0 0 0.9288 -2689.0391 -21.3334)" gradientUnits="userSpaceOnUse">
			<stop  offset="0" style="stop-color:#F15A60;stop-opacity:0.5"/>
			<stop  offset="0.1384" style="stop-color:#F16262;stop-opacity:0.4367"/>
			<stop  offset="0.3698" style="stop-color:#F37767;stop-opacity:0.3309"/>
			<stop  offset="0.6559" style="stop-color:#F7956E;stop-opacity:0.2"/>
			<stop  offset="0.7027" style="stop-color:#F69B6C;stop-opacity:0.1714"/>
			<stop  offset="0.7826" style="stop-color:#F6AE68;stop-opacity:0.1227"/>
			<stop  offset="0.8851" style="stop-color:#F8CC5A;stop-opacity:0.0602"/>
			<stop  offset="0.9839" style="stop-color:#FAEE3C;stop-opacity:0"/>
		</radialGradient>
		<path fill="url(#SVGID_4_)" d="M163.9403,69.4107c0,20.9183-29.0758,37.8727-64.942,37.8727
			c-35.8393,0-64.9284-16.9545-64.9284-37.8727c0-20.9197,29.0891-37.8741,64.9284-37.8741
			C134.8645,31.5365,163.9403,48.491,163.9403,69.4107z"/>
		<g>
			<g>
				<path fill="#F26A6B" d="M78.7443,78.3204c-0.4724,0-0.9475-0.1561-1.3425-0.4779c-0.906-0.7417-1.0414-2.0772-0.3011-2.9846
					l12.8308-15.7174c0.7431-0.9088,2.08-1.0414,2.986-0.3025c0.906,0.7417,1.0414,2.0772,0.3011,2.9846L80.3879,77.54
					C79.968,78.0538,79.3575,78.3204,78.7443,78.3204z"/>
			</g>
			<g>
				<path fill="#F26A6B" d="M104.4915,78.3204c-0.4723,0-0.9475-0.1561-1.3425-0.4779c-0.906-0.7417-1.0414-2.0772-0.3011-2.9846
					l12.8308-15.7174c0.743-0.9088,2.0772-1.0414,2.986-0.3025c0.906,0.7417,1.0414,2.0772,0.3011,2.9846L106.135,77.54
					C105.7152,78.0538,105.1047,78.3204,104.4915,78.3204z"/>
			</g>
			<g>
				<path fill="#F26A6B" d="M91.5419,78.7043c-0.4723,0-0.9475-0.1561-1.3425-0.4779c-0.906-0.7417-1.0414-2.0772-0.3011-2.9846
					l12.8335-15.7174c0.743-0.9088,2.0772-1.0414,2.986-0.3025c0.906,0.7417,1.0414,2.0772,0.3011,2.9846L93.1855,77.924
					C92.7656,78.4378,92.1552,78.7043,91.5419,78.7043z"/>
			</g>
		</g>
	</g>
	<g>
		<path fill="#A05024" d="M122.9214,119.9216c-1.5165,0-2.7733-1.2044-2.8231-2.7333c-0.1188-3.457-1.011-13.2879-3.6932-17.2145
			c-2.2872-3.3534-26.54-3.852-33.2716-0.6823c-3.1932,1.5027-4.4777,10.958-4.3423,16.8747
			c0.0359,1.5621-1.2016,2.8576-2.765,2.8921c-0.0221,0.0014-0.0442,0.0014-0.0635,0.0014c-1.5331,0-2.7927-1.2237-2.8286-2.7637
			c-0.0691-3.0648-0.0331-18.5335,7.5907-22.1231c6.7372-3.1711,35.3875-4.6641,40.3541,2.6117
			c4.0854,5.9831,4.624,18.7752,4.671,20.2143c0.0525,1.5607-1.1684,2.8672-2.7319,2.9211
			C122.9877,119.9202,122.9545,119.9216,122.9214,119.9216z"/>
	</g>
	<path fill="none" stroke="#A05024" stroke-linecap="round" stroke-linejoin="round" stroke-miterlimit="10" d="M90.4401,106.9562
		c0,0,10.6948-3.4809,17.1269,0"/>
	<path fill="#37C3E0" d="M66.4797,190.3065c-1.0915-0.3272-26.9147-8.2662-41.8746-30.5624l-0.5919-0.8863l-0.0979-1.0618
		c-0.1682-1.8639-3.9424-44.2762-0.4262-70.3871c-2.1313-1.2992-4.6319-3.4767-5.4031-6.8121
		c-0.8797-3.7914,0.687-7.6618,4.6511-11.5038c10.5046-10.1721,39.9251-17.6073,49.17-17.6073l0.2961,0.0014
		c4.9955,0.0815,9.1795,3.5431,10.1735,8.4194c0.8552,4.1909-0.7901,10.2469-8.1561,13.7044
		c-4.993,6.7743-5.1423,62.2243-2.3785,112.4708l0.3258,5.9272L66.4797,190.3065z"/>
	<path fill="#B5E2EA" d="M72.1353,55.6573c6.7713,0.1101,9.8529,9.9399,0,14.3221c-10.5997,4.7133-4.4584,116.3318-4.4584,116.3318
		s-25.3099-7.5806-39.6073-28.8912c0,0-4.2574-46.9697,0-72.4303c0,0-11.7943-3.8309-2.4302-12.9006
		C35.0038,63.0194,63.7673,55.5217,72.1353,55.6573z"/>
	<g>
		<g>
			<path fill="#82361A" d="M20.3083,78.964c-1.1574,0-2.312-0.4724-3.149-1.3991c-1.5717-1.7389-1.4336-4.4224,0.3066-5.9928
				c0.8287-0.75,20.7254-18.4009,55.4417-22.3551c2.3231-0.2638,4.4335,1.4074,4.6959,3.7346
				c0.2652,2.3286-1.406,4.4307-3.7346,4.6959c-32.0396,3.6503-50.5331,20.0569-50.7182,20.2226
				C22.3414,78.6035,21.3221,78.964,20.3083,78.964z"/>
		</g>
	</g>
	<path fill="#37C3E0" d="M127.4413,186.0816c2.7641-50.2465,2.6148-105.6965-2.381-112.4708
		c-7.366-3.4575-9.0085-9.5134-8.1533-13.7044c0.9937-4.8763,5.1776-8.3379,10.1735-8.4194l0.2958-0.0014
		c9.2449,0,38.6654,7.4352,49.17,17.6073c3.9641,3.842,5.5307,7.7124,4.6511,11.5038c-0.7737,3.3341-3.2718,5.5143-5.4056,6.8121
		c3.5187,26.1109-0.258,68.5247-0.4265,70.3871l-0.0976,1.0618l-0.5919,0.8849c-14.9574,22.2975-40.7806,30.2365-41.8721,30.5638
		l-5.6878,1.7023L127.4413,186.0816z"/>
	<path fill="#B5E2EA" d="M127.1482,55.6573c-6.7716,0.1101-9.8532,9.9399,0,14.3221c10.5997,4.7133,4.4581,116.3318,4.4581,116.3318
		s25.3099-7.5806,39.6048-28.8912c0,0,4.2599-46.9697,0-72.4303c0,0,11.7971-3.8309,2.4327-12.9006
		S135.5159,55.5217,127.1482,55.6573z"/>
	<g>
		<g>
			<path fill="#82361A" d="M178.9735,78.964c-1.0138,0-2.0275-0.3591-2.8396-1.0897c-0.2293-0.2058-18.8857-16.5999-50.7209-20.2268
				c-2.3286-0.2652-3.9998-2.3673-3.7346-4.6959c0.2624-2.3286,2.3396-4.0136,4.6959-3.7346
				c34.7191,3.9542,54.613,21.6051,55.4417,22.3551c1.7402,1.5704,1.8783,4.2539,0.3066,5.9928
				C181.2856,78.4916,180.1309,78.964,178.9735,78.964z"/>
		</g>
	</g>
</g>
</svg>
