<?xml version="1.0" encoding="utf-8"?>
<!-- Generator: Adobe Illustrator 17.0.0, SVG Export Plug-In . SVG Version: 6.00 Build 0)  -->
<!DOCTYPE svg PUBLIC "-//W3C//DTD SVG 1.1//EN" "http://www.w3.org/Graphics/SVG/1.1/DTD/svg11.dtd">
<svg version="1.1" id="Layer_1" xmlns="http://www.w3.org/2000/svg" xmlns:xlink="http://www.w3.org/1999/xlink" x="0px" y="0px" viewBox="0 0 200 200" enable-background="new 0 0 200 200" xml:space="preserve">
<g>
	<g>
		<g>
			<g>
				<path fill="#E5A126" d="M99.9972,198.9986c-54.5865,0-98.9972-44.4108-98.9972-99C1,45.4119,45.4108,1.0014,99.9972,1.0014
					C154.5867,1.0014,199,45.4119,199,99.9986C199,154.5878,154.5867,198.9986,99.9972,198.9986z"/>
				<path fill="#E5A126" d="M99.9972,197.6085c-53.8236,0-97.6071-43.7863-97.6071-97.6099
					c0-53.8183,43.7835-97.6071,97.6071-97.6071c53.8238,0,97.6127,43.7888,97.6127,97.6071
					C197.6099,153.8222,153.8211,197.6085,99.9972,197.6085z"/>
				<radialGradient id="SVGID_1_" cx="103.7957" cy="-9.3552" r="204.239" gradientUnits="userSpaceOnUse">
					<stop  offset="0" style="stop-color:#FFF7C2"/>
					<stop  offset="0.3276" style="stop-color:#FFE996"/>
					<stop  offset="1" style="stop-color:#FDD022"/>
				</radialGradient>
				<path fill="url(#SVGID_1_)" d="M192.0494,99.9986c0,50.837-41.2177,92.0494-92.0522,92.0494
					c-50.8342,0-92.0466-41.2124-92.0466-92.0494c0-50.8373,41.2124-92.0466,92.0466-92.0466
					C150.8317,7.952,192.0494,49.1613,192.0494,99.9986z"/>
				<g>
					<defs>
						<path id="SVGID_2_" d="M192.0494,99.9986c0,50.837-41.2177,92.0494-92.0522,92.0494
							c-50.8342,0-92.0466-41.2124-92.0466-92.0494c0-50.8373,41.2124-92.0466,92.0466-92.0466
							C150.8317,7.952,192.0494,49.1613,192.0494,99.9986z"/>
					</defs>
					<clipPath id="SVGID_3_">
						<use xlink:href="#SVGID_2_"  overflow="visible"/>
					</clipPath>
				</g>
			</g>
		</g>
	</g>
	<g>
		<path fill="#F9F8FC" d="M44.5853,149.1238h108.1334c0,0-23.0401,30.6194-54.0654,30.6194
			C67.6282,179.7432,44.5853,149.1238,44.5853,149.1238z"/>
		<g>
			<path fill="#A05024" d="M150.3888,151.9521H46.9126c-1.5634,0-2.8285-1.2665-2.8285-2.8285c0-1.5621,1.2651-2.8285,2.8285-2.8285
				h103.4762c1.5634,0,2.8285,1.2665,2.8285,2.8285C153.2173,150.6856,151.9522,151.9521,150.3888,151.9521z"/>
		</g>
		<g>
			<path fill="#A05024" d="M98.6521,182.5715c-36.3207,0-60.8825-38.4683-61.91-40.1049c-0.8314-1.3231-0.4309-3.0675,0.8894-3.8989
				c1.3231-0.8245,3.0688-0.4309,3.9003,0.8894c0.2348,0.3757,23.9514,37.4573,57.1203,37.4573
				c33.1938,0,58.5512-38.6755,58.8053-39.0663c0.8452-1.3107,2.5938-1.6877,3.9086-0.8439
				c1.3121,0.8466,1.6905,2.5965,0.8452,3.9086C161.1145,142.6143,134.9479,182.5715,98.6521,182.5715z"/>
		</g>
		<rect x="79.7429" y="149.1238" fill="#A05024" width="3.2037" height="27.9136"/>
		<rect x="112.4922" y="149.1238" fill="#A05024" width="3.2037" height="27.9136"/>
	</g>
	<g>
		<path fill="#82361A" d="M111.3501,94.155c-0.4281,0-0.8618-0.0967-1.2679-0.3025c-1.3977-0.7016-1.9584-2.4018-1.2568-3.7981
			c0.848-1.6808,20.9626-41.2071,41.975-44.2828c21.783-3.2056,27.8572,11.4177,28.1085,12.0406
			c0.5801,1.4502-0.1271,3.0965-1.5772,3.6765c-1.4474,0.5732-3.0965-0.1257-3.6765-1.5772
			c-0.1823-0.4337-4.8809-11.06-22.0344-8.5436c-15.0487,2.2043-32.3458,30.5089-37.7405,41.2305
			C113.3831,93.586,112.3859,94.155,111.3501,94.155z"/>
	</g>
	<g>
		<path fill="#82361A" d="M74.6206,104.7993c-1.0828,0-2.1131-0.6243-2.5827-1.6725c-0.0553-0.1188-4.4638-9.6457-15.2172-15.2848
			c-6.726-3.5301-16.5016-4.8091-31.7022-4.1641c-1.4916,0.047-2.881-1.1436-2.9473-2.7042
			c-0.0663-1.562,1.1436-2.881,2.7042-2.9473c16.2613-0.685,26.918,0.7886,34.5749,4.8063
			c12.5682,6.5921,17.5457,17.525,17.7529,17.9863c0.6326,1.4281-0.0083,3.0992-1.4364,3.7345
			C75.394,104.7192,75.0045,104.7993,74.6206,104.7993z"/>
	</g>
	<g>
		<path fill="#6D3118" d="M72.6104,116.5661c0,5.4409-3.8581,9.8557-8.6232,9.8557c-4.7595,0-8.6204-4.4147-8.6204-9.8557
			c0-5.4412,3.8609-9.8532,8.6204-9.8532C68.7523,106.7129,72.6104,111.1249,72.6104,116.5661z"/>
		<g>
			<path fill="#82361A" d="M71.3805,112.365H27.6846c-2.3424,0-4.2428-1.899-4.2428-4.2428s1.9004-4.2428,4.2428-4.2428h43.6958
				c2.3424,0,4.2428,1.899,4.2428,4.2428S73.7229,112.365,71.3805,112.365z"/>
		</g>
	</g>
	<g>
		<path fill="#6D3118" d="M161.0622,116.5661c0,5.4409-3.8581,9.8557-8.6176,9.8557c-4.7623,0-8.6257-4.4147-8.6257-9.8557
			c0-5.4412,3.8634-9.8532,8.6257-9.8532C157.2041,106.7129,161.0622,111.1249,161.0622,116.5661z"/>
		<g>
			<path fill="#82361A" d="M159.8329,112.365H116.137c-2.3424,0-4.2428-1.899-4.2428-4.2428s1.9004-4.2428,4.2428-4.2428h43.6958
				c2.3424,0,4.2428,1.899,4.2428,4.2428S162.1752,112.365,159.8329,112.365z"/>
		</g>
	</g>
</g>
</svg>
