<?xml version="1.0" encoding="utf-8"?>
<!-- Generator: Adobe Illustrator 17.0.0, SVG Export Plug-In . SVG Version: 6.00 Build 0)  -->
<!DOCTYPE svg PUBLIC "-//W3C//DTD SVG 1.1//EN" "http://www.w3.org/Graphics/SVG/1.1/DTD/svg11.dtd">
<svg version="1.1" id="Layer_1" xmlns="http://www.w3.org/2000/svg" xmlns:xlink="http://www.w3.org/1999/xlink" x="0px" y="0px" viewBox="0 0 200 200" enable-background="new 0 0 200 200" xml:space="preserve">
<g>
	<g>
		<g>
			<g>
				<path fill="#E5A126" d="M99.9972,198.9986c-54.5867,0-98.9972-44.4108-98.9972-99C1,45.4119,45.4105,1.0014,99.9972,1.0014
					C154.5865,1.0014,199,45.4119,199,99.9986C199,154.5878,154.5865,198.9986,99.9972,198.9986z"/>
				<path fill="#E5A126" d="M99.9972,197.6085c-53.8238,0-97.6071-43.7863-97.6071-97.6099
					c0-53.8183,43.7833-97.6071,97.6071-97.6071s97.6127,43.7888,97.6127,97.6071
					C197.6099,153.8222,153.8211,197.6085,99.9972,197.6085z"/>
				<radialGradient id="SVGID_1_" cx="103.7957" cy="-9.3552" r="204.239" gradientUnits="userSpaceOnUse">
					<stop  offset="0" style="stop-color:#FFF7C2"/>
					<stop  offset="0.3276" style="stop-color:#FFE996"/>
					<stop  offset="1" style="stop-color:#FDD022"/>
				</radialGradient>
				<path fill="url(#SVGID_1_)" d="M192.0494,99.9986c0,50.837-41.2177,92.0494-92.0522,92.0494S7.9506,150.8356,7.9506,99.9986
					c0-50.8373,41.2121-92.0466,92.0466-92.0466S192.0494,49.1613,192.0494,99.9986z"/>
				<g>
					<defs>
						<path id="SVGID_2_" d="M192.0494,99.9986c0,50.837-41.2177,92.0494-92.0522,92.0494S7.9506,150.8356,7.9506,99.9986
							c0-50.8373,41.2121-92.0466,92.0466-92.0466S192.0494,49.1613,192.0494,99.9986z"/>
					</defs>
					<clipPath id="SVGID_3_">
						<use xlink:href="#SVGID_2_"  overflow="visible"/>
					</clipPath>
				</g>
			</g>
		</g>
	</g>
	<g>
		<g>
			<g>
				<g>
					<path fill-rule="evenodd" clip-rule="evenodd" fill="#2D2E2D" d="M194.5444,58.36c-0.5783,4.0984-0.5511,9.3792-0.9041,12.9156
						c-1.9656,2.153-3.7795,2.726-5.0336,5.1154c-3.584,6.8244-2.4219,16.8199-5.042,24.3786
						c-4.6291,13.3296-16.2091,20.6333-35.4537,19.527c-20.7078-1.203-30.797-11.6139-36.868-28.3443
						c-2.0093-5.5388-4.0889-19.2471-14.1509-14.7767c-2.7694,1.2353-4.556,7.2478-5.9136,11.1385
						c-4.7486,13.5687-9.7662,23.2723-22.4727,28.5653c-14.083,5.8674-35.8092,3.834-44.579-5.1735
						c-4.2193-4.3469-6.3314-10.0959-7.6484-15.6647c-1.8814-7.9362-1.0181-21.3431-8.8267-24.6869
						c-0.3367-3.4725-0.8091-9.4715-0.8688-13.2209c20.4665-3.4795,45.0975-3.2351,66.422,1.5517
						c8.5715,1.9317,16.6378,5.9161,25.0845,6.6601c9.0928,0.8049,16.8199-3.204,25.1009-5.3909
						C145.4314,55.148,169.5711,53.9942,194.5444,58.36z"/>
					<path fill-rule="evenodd" clip-rule="evenodd" fill="#2D2E2D" d="M151.7792,117.4104c-1.1838,0-2.4166-0.0395-3.6518-0.1087
						c-9.9291-0.5741-17.6968-3.2837-23.7488-8.2782c-5.4165-4.4759-9.6169-10.9689-12.845-19.8623
						c-0.2961-0.8213-0.6028-1.8475-0.9258-2.9337c-1.6237-5.4518-3.8554-12.9181-9.8043-12.9265
						c-1.1863,0-2.468,0.3069-3.8228,0.9069c-2.6145,1.1594-4.3033,6.094-5.65,10.0634c-0.1521,0.4346-0.3042,0.8566-0.4346,1.2558
						c-5.0717,14.4903-10.127,23.3048-22.3014,28.3849c-5.1207,2.1299-11.5719,3.3001-18.175,3.2946
						c-11.0476-0.0175-21.0364-3.2376-26.0701-8.3963c-3.5242-3.6313-5.9297-8.5606-7.5698-15.5207
						c-0.4776-2.0201-0.7818-4.3903-1.0912-6.8936c-0.9069-7.1786-1.9334-15.3036-7.7491-17.9387
						c-0.0867-0.8416-0.1738-1.6751-0.2661-2.5086c-0.2552-2.4041-0.5266-4.8927-0.5836-7.5575
						c15.0061-2.5373,27.9762-3.7645,39.6374-3.7522c9.6983,0.015,18.5876,0.9097,26.4123,2.6663
						c3.3994,0.7657,6.766,1.8694,10.0186,2.939c4.9091,1.61,9.9916,3.2704,15.1067,3.728
						c0.7874,0.0692,1.5964,0.1059,2.4002,0.1059v0.0025c5.6909,0.0042,10.9528-1.7402,16.0406-3.4236
						c2.2047-0.729,4.4826-1.4796,6.766-2.0824c9.72-2.5631,20.1242-3.8025,31.8074-3.7864
						c11.463,0.0178,24.1995,1.2667,38.9178,3.8256c-0.3231,2.3907-0.4426,4.2952-0.5674,6.1443
						c-0.0787,1.1702-0.1549,2.3782-0.2825,3.6952c-0.7276,0.7888-1.4279,1.3548-2.1041,1.8978
						c-1.086,0.8755-2.1041,1.6968-2.897,3.212c-2.0198,3.8484-2.5575,8.7466-3.0788,13.4831
						c-0.4073,3.7428-0.8391,7.617-1.9873,10.935C178.8024,110.8927,168.1999,117.4266,151.7792,117.4104z M152.9603,59.4148
						c-1.1783,0-2.3974,0.0311-3.6085,0.087c-12.3426,0.5822-24.8456,1.7579-30.311,8.9977
						c-2.9921,3.968-3.7033,9.4022-2.1775,16.6203c2.7638,13.0705,7.9904,20.849,16.9556,25.2232
						c5.3025,2.582,11.129,3.9491,16.8633,3.9543c10.779,0.0178,20.4175-4.6358,25.1634-12.143
						c5.0881-8.0421,8.4494-25.8885,2.6852-34.0594C174.6618,62.5982,165.3438,59.4338,152.9603,59.4148z"/>
					
						<radialGradient id="SVGID_4_" cx="63.9891" cy="70.3784" r="32.6338" gradientTransform="matrix(0.9807 0.0012 -0.0012 1 -10.2789 16.2486)" gradientUnits="userSpaceOnUse">
						<stop  offset="0" style="stop-color:#6A6868"/>
						<stop  offset="0.2283" style="stop-color:#666465"/>
						<stop  offset="0.5444" style="stop-color:#5B5A5A"/>
						<stop  offset="0.9102" style="stop-color:#4A4949"/>
						<stop  offset="1" style="stop-color:#454545"/>
					</radialGradient>
					<path fill-rule="evenodd" clip-rule="evenodd" fill="url(#SVGID_4_)" d="M46.8359,57.6583
						c16.7521-0.7929,36.2952,2.5859,39.9713,13.9635c1.6184,5.0094-0.0297,10.8238-0.972,14.8829
						c-2.7313,11.8416-7.0104,19.8851-16.8524,24.8999c-16.7357,8.5267-37.3298,4.3158-45.3744-8.4736
						c-4.4581-7.1013-8.9435-23.6296-4.3958-33.659C23.106,60.684,33.2061,58.2975,46.8359,57.6583z"/>
					
						<radialGradient id="SVGID_5_" cx="162.3284" cy="70.4135" r="32.7207" gradientTransform="matrix(0.9807 0.0012 -0.0012 1 -10.2789 16.2486)" gradientUnits="userSpaceOnUse">
						<stop  offset="0" style="stop-color:#6A6868"/>
						<stop  offset="0.2283" style="stop-color:#666465"/>
						<stop  offset="0.5444" style="stop-color:#5B5A5A"/>
						<stop  offset="0.9102" style="stop-color:#4A4949"/>
						<stop  offset="1" style="stop-color:#454545"/>
					</radialGradient>
					<path fill-rule="evenodd" clip-rule="evenodd" fill="url(#SVGID_5_)" d="M149.4171,57.6146
						c13.5156-0.642,26.2819,2.0757,31.2641,9.1526c6.3398,8.9896,2.3485,28.1297-2.9187,36.4515
						c-7.5806,12.0006-27.2811,17.3804-45.0188,8.7316c-10.3525-5.0514-15.4679-14.3057-18.1639-27.0437
						C109.6358,61.5517,127.463,58.6506,149.4171,57.6146z"/>
					
						<linearGradient id="SVGID_6_" gradientUnits="userSpaceOnUse" x1="64.7825" y1="44.8163" x2="64.7825" y2="72.0903" gradientTransform="matrix(0.9807 0.0012 -0.0012 1 -10.2789 16.2486)">
						<stop  offset="0" style="stop-color:#FFFFFF"/>
						<stop  offset="0.2396" style="stop-color:#A29F9F"/>
						<stop  offset="0.5684" style="stop-color:#524F4F"/>
						<stop  offset="0.8049" style="stop-color:#2B2B2B"/>
						<stop  offset="0.9235" style="stop-color:#1C1E1E"/>
					</linearGradient>
					<path opacity="0.5" fill-rule="evenodd" clip-rule="evenodd" fill="url(#SVGID_6_)" d="M47.224,59.6851
						c15.5738-0.7412,33.7622,2.4082,37.1777,12.9887c1.5097,4.6577-0.0272,10.0703-0.9014,13.8442
						c-2.5442,11.0178-66.1992-6.6979-61.9691-16.0298C25.1534,62.5006,34.5475,60.2823,47.224,59.6851z"/>
					
						<linearGradient id="SVGID_7_" gradientUnits="userSpaceOnUse" x1="160.9801" y1="44.7516" x2="160.9801" y2="70.7124" gradientTransform="matrix(0.9807 0.0012 -0.0012 1 -10.2789 16.2486)">
						<stop  offset="0" style="stop-color:#FFFFFF"/>
						<stop  offset="0.2396" style="stop-color:#A29F9F"/>
						<stop  offset="0.5684" style="stop-color:#524F4F"/>
						<stop  offset="0.8049" style="stop-color:#2B2B2B"/>
						<stop  offset="0.9235" style="stop-color:#1C1E1E"/>
					</linearGradient>
					<path opacity="0.5" fill-rule="evenodd" clip-rule="evenodd" fill="url(#SVGID_7_)" d="M149.3627,59.8099
						c12.5058-0.5877,24.3246,1.9236,28.9212,8.4683c5.8646,8.3121-58.6295,28.5545-61.1273,16.7765
						C112.5898,63.4562,129.073,60.7669,149.3627,59.8099z"/>
				</g>
			</g>
		</g>
	</g>
	<g>
		<path fill="#A05024" d="M99.3672,169.9729c-4.2763,0-8.661-0.623-12.351-1.7552c-1.7457-0.5349-2.7341-2.3907-2.202-4.1378
			c0.4345-1.401,1.7079-2.3432,3.1686-2.3432c0.3258,0,0.6517,0.0489,0.9692,0.1454c0.4915,0.1479,4.9661,1.4471,10.7354,1.4471
			c8.11,0,18.9351-2.5806,24.4467-14.8718c0.5269-1.1922,1.716-1.9604,3.0246-1.9604c0.4671,0,0.9205,0.0976,1.3495,0.2905
			c0.8091,0.3636,1.4279,1.0181,1.7429,1.8447c0.315,0.8268,0.2878,1.7257-0.0759,2.532
			c-7.0838,15.8046-21.5252,18.5562-29.5048,18.7897C100.236,169.9662,99.799,169.9729,99.3672,169.9729z"/>
	</g>
</g>
</svg>
