<?xml version="1.0" encoding="utf-8"?>
<!-- Generator: Adobe Illustrator 17.0.0, SVG Export Plug-In . SVG Version: 6.00 Build 0)  -->
<!DOCTYPE svg PUBLIC "-//W3C//DTD SVG 1.1//EN" "http://www.w3.org/Graphics/SVG/1.1/DTD/svg11.dtd">
<svg version="1.1" id="Layer_1" xmlns="http://www.w3.org/2000/svg" xmlns:xlink="http://www.w3.org/1999/xlink" x="0px" y="0px" viewBox="0 0 200 200" enable-background="new 0 0 200 200" xml:space="preserve">
<g>
	<g>
		<g>
			<g>
				<path fill="#E5A126" d="M99.9972,198.9986c-54.5867,0-98.9972-44.4105-98.9972-99C1,45.4119,45.4105,1.0014,99.9972,1.0014
					C154.5867,1.0014,199,45.4119,199,99.9986C199,154.5881,154.5867,198.9986,99.9972,198.9986z"/>
				<path fill="#E5A126" d="M99.9972,197.6085c-53.8238,0-97.6071-43.786-97.6071-97.6099
					c0-53.8183,43.7833-97.6071,97.6071-97.6071s97.6127,43.7888,97.6127,97.6071
					C197.6099,153.8224,153.8211,197.6085,99.9972,197.6085z"/>
				<radialGradient id="SVGID_1_" cx="103.7957" cy="-9.3552" r="204.239" gradientUnits="userSpaceOnUse">
					<stop  offset="0" style="stop-color:#FFF7C2"/>
					<stop  offset="0.3276" style="stop-color:#FFE996"/>
					<stop  offset="1" style="stop-color:#FDD022"/>
				</radialGradient>
				<path fill="url(#SVGID_1_)" d="M192.0494,99.9986c0,50.8373-41.2177,92.0494-92.0522,92.0494S7.9506,150.8359,7.9506,99.9986
					c0-50.837,41.2121-92.0466,92.0466-92.0466S192.0494,49.1616,192.0494,99.9986z"/>
				<g>
					<defs>
						<path id="SVGID_2_" d="M192.0494,99.9986c0,50.8373-41.2177,92.0494-92.0522,92.0494S7.9506,150.8359,7.9506,99.9986
							c0-50.837,41.2121-92.0466,92.0466-92.0466S192.0494,49.1616,192.0494,99.9986z"/>
					</defs>
					<clipPath id="SVGID_3_">
						<use xlink:href="#SVGID_2_"  overflow="visible"/>
					</clipPath>
				</g>
			</g>
		</g>
	</g>
	<g>
		<path fill="#82361A" d="M23.8164,70.916c-1.8811,0-3.602-1.2624-4.102-3.1683c-0.5939-2.2664,0.7624-4.5854,3.0275-5.1807
			l45.7709-12.0007c2.2651-0.5911,4.5881,0.7624,5.182,3.0288c0.5939,2.2664-0.7624,4.5854-3.0275,5.1806L24.8964,70.7765
			C24.5346,70.8704,24.1727,70.916,23.8164,70.916z"/>
	</g>
	<g>
		<path fill="#82361A" d="M157.5437,70.916c-0.3563,0-0.7182-0.0456-1.08-0.1395l-45.7709-12.0007
			c-2.2651-0.5953-3.6213-2.9142-3.0275-5.1806c0.5939-2.2664,2.9004-3.62,5.182-3.0288l45.7709,12.0007
			c2.2651,0.5953,3.6214,2.9142,3.0275,5.1807C161.1457,69.6536,159.4248,70.916,157.5437,70.916z"/>
	</g>
	<g>
		<radialGradient id="SVGID_4_" cx="34.5421" cy="90.2277" r="30.7262" gradientUnits="userSpaceOnUse">
			<stop  offset="0" style="stop-color:#F15A60;stop-opacity:0.5"/>
			<stop  offset="0.1384" style="stop-color:#F16262;stop-opacity:0.4367"/>
			<stop  offset="0.3698" style="stop-color:#F37767;stop-opacity:0.3309"/>
			<stop  offset="0.6559" style="stop-color:#F7956E;stop-opacity:0.2"/>
			<stop  offset="0.7027" style="stop-color:#F69B6C;stop-opacity:0.1714"/>
			<stop  offset="0.7826" style="stop-color:#F6AE68;stop-opacity:0.1227"/>
			<stop  offset="0.8851" style="stop-color:#F8CC5A;stop-opacity:0.0602"/>
			<stop  offset="0.9839" style="stop-color:#FAEE3C;stop-opacity:0"/>
		</radialGradient>
		<path fill="url(#SVGID_4_)" d="M65.2687,90.2258c0,16.972-13.7547,30.7278-30.7292,30.7278
			c-16.9611,0-30.7239-13.7558-30.7239-30.7278c0-16.9692,13.7628-30.7239,30.7239-30.7239
			C51.514,59.5019,65.2687,73.2566,65.2687,90.2258z"/>
		<radialGradient id="SVGID_5_" cx="149.5474" cy="94.0126" r="30.7263" gradientUnits="userSpaceOnUse">
			<stop  offset="0" style="stop-color:#F15A60;stop-opacity:0.5"/>
			<stop  offset="0.1384" style="stop-color:#F16262;stop-opacity:0.4367"/>
			<stop  offset="0.3698" style="stop-color:#F37767;stop-opacity:0.3309"/>
			<stop  offset="0.6559" style="stop-color:#F7956E;stop-opacity:0.2"/>
			<stop  offset="0.7027" style="stop-color:#F69B6C;stop-opacity:0.1714"/>
			<stop  offset="0.7826" style="stop-color:#F6AE68;stop-opacity:0.1227"/>
			<stop  offset="0.8851" style="stop-color:#F8CC5A;stop-opacity:0.0602"/>
			<stop  offset="0.9839" style="stop-color:#FAEE3C;stop-opacity:0"/>
		</radialGradient>
		<circle fill="url(#SVGID_5_)" cx="149.5474" cy="94.0105" r="30.7265"/>
	</g>
	<g>
		<g>
			<path fill="#F26A6B" d="M16.6676,101.5096c-0.4723,0-0.9475-0.1561-1.3425-0.4779c-0.906-0.7417-1.0414-2.0772-0.3011-2.9846
				l13.0545-15.9894c0.7431-0.9102,2.08-1.04,2.986-0.3025c0.906,0.7417,1.0414,2.0772,0.3011,2.9846l-13.0545,15.9894
				C17.8913,101.243,17.2808,101.5096,16.6676,101.5096z"/>
		</g>
		<g>
			<path fill="#F26A6B" d="M29.6917,101.9004c-0.4723,0-0.9475-0.1561-1.3425-0.4779c-0.906-0.7417-1.0414-2.0772-0.3011-2.9846
				l13.0545-15.9894c0.7431-0.9102,2.0772-1.0414,2.986-0.3025c0.906,0.7417,1.0414,2.0772,0.3011,2.9846l-13.0545,15.9894
				C30.9154,101.6339,30.305,101.9004,29.6917,101.9004z"/>
		</g>
	</g>
	<g>
		<g>
			<path fill="#F26A6B" d="M134.0423,100.0166c-0.4724,0-0.9475-0.1561-1.3425-0.4779c-0.906-0.7417-1.0414-2.0772-0.3011-2.9846
				l12.8308-15.7174c0.743-0.9088,2.0772-1.0414,2.986-0.3025c0.906,0.7417,1.0414,2.0772,0.3011,2.9846l-12.8308,15.7174
				C135.266,99.75,134.6555,100.0166,134.0423,100.0166z"/>
		</g>
		<g>
			<path fill="#F26A6B" d="M146.8427,100.4005c-0.4723,0-0.9474-0.1561-1.3425-0.4779c-0.906-0.7417-1.0414-2.0772-0.3011-2.9846
				l12.8308-15.7174c0.7431-0.9088,2.08-1.0414,2.986-0.3025c0.906,0.7417,1.0414,2.0772,0.3011,2.9846l-12.8308,15.7174
				C148.0663,100.134,147.4559,100.4005,146.8427,100.4005z"/>
		</g>
	</g>
	<path fill="none" stroke="#A05024" stroke-width="2.5" stroke-linecap="round" stroke-linejoin="round" stroke-miterlimit="10" d="
		M65.5483,103.8812c0,0,20.5368,21.6025,45.5482,1.5286"/>
</g>
</svg>
