<?xml version="1.0" encoding="utf-8"?>
<!-- Generator: Adobe Illustrator 17.0.0, SVG Export Plug-In . SVG Version: 6.00 Build 0)  -->
<!DOCTYPE svg PUBLIC "-//W3C//DTD SVG 1.1//EN" "http://www.w3.org/Graphics/SVG/1.1/DTD/svg11.dtd">
<svg version="1.1" id="Layer_1" xmlns="http://www.w3.org/2000/svg" xmlns:xlink="http://www.w3.org/1999/xlink" x="0px" y="0px" viewBox="0 0 200 200" enable-background="new 0 0 200 200" xml:space="preserve">
<g>
	<g>
		<g>
			<g>
				<path fill="#E5A126" d="M99.3887,198.3898C45.1376,198.3898,1,154.2521,1,99.9986C1,45.7476,45.1376,1.6102,99.3887,1.6102
					c54.2535,0,98.3937,44.1374,98.3937,98.3884C197.7823,154.2521,153.6422,198.3898,99.3887,198.3898z"/>
				<path fill="#E5A126" d="M99.3887,197.0082c-53.4928,0-97.0071-43.5168-97.0071-97.0096
					c0-53.4873,43.5143-97.0068,97.0071-97.0068c53.4925,0,97.0121,43.5195,97.0121,97.0068
					C196.4008,153.4914,152.8812,197.0082,99.3887,197.0082z"/>
				
					<radialGradient id="SVGID_1_" cx="16.468" cy="-4.1001" r="207.5922" gradientTransform="matrix(0.9778 0 0 0.9778 87.0612 -4.6737)" gradientUnits="userSpaceOnUse">
					<stop  offset="0" style="stop-color:#FFF7C2"/>
					<stop  offset="0.3276" style="stop-color:#FFE996"/>
					<stop  offset="1" style="stop-color:#FDD022"/>
				</radialGradient>
				<path fill="url(#SVGID_1_)" d="M190.8745,99.9986c0,50.5244-40.9642,91.4833-91.4858,91.4833
					c-50.5219,0-91.4808-40.9589-91.4808-91.4833c0-50.5247,40.9589-91.4805,91.4808-91.4805
					C149.9103,8.5181,190.8745,49.474,190.8745,99.9986z"/>
				<g>
					<defs>
						<path id="SVGID_2_" d="M190.8745,99.9986c0,50.5244-40.9642,91.4833-91.4858,91.4833
							c-50.5219,0-91.4808-40.9589-91.4808-91.4833c0-50.5247,40.9589-91.4805,91.4808-91.4805
							C149.9103,8.5181,190.8745,49.474,190.8745,99.9986z"/>
					</defs>
					<clipPath id="SVGID_3_">
						<use xlink:href="#SVGID_2_"  overflow="visible"/>
					</clipPath>
				</g>
			</g>
		</g>
		
			<radialGradient id="SVGID_4_" cx="1696.0115" cy="135.1837" r="41.4469" gradientTransform="matrix(1.557 0 0 0.9082 -2542.2725 -25.5334)" gradientUnits="userSpaceOnUse">
			<stop  offset="0" style="stop-color:#F15A60;stop-opacity:0.5"/>
			<stop  offset="0.1384" style="stop-color:#F16262;stop-opacity:0.4367"/>
			<stop  offset="0.3698" style="stop-color:#F37767;stop-opacity:0.3309"/>
			<stop  offset="0.6559" style="stop-color:#F7956E;stop-opacity:0.2"/>
			<stop  offset="0.7027" style="stop-color:#F69B6C;stop-opacity:0.1714"/>
			<stop  offset="0.7826" style="stop-color:#F6AE68;stop-opacity:0.1227"/>
			<stop  offset="0.8851" style="stop-color:#F8CC5A;stop-opacity:0.0602"/>
			<stop  offset="0.9839" style="stop-color:#FAEE3C;stop-opacity:0"/>
		</radialGradient>
		<path fill="url(#SVGID_4_)" d="M163.0272,97.2382c0,20.7896-28.897,37.6396-64.5426,37.6396
			c-35.6186,0-64.5291-16.8499-64.5291-37.6396c0-20.7913,28.9105-37.6412,64.5291-37.6412
			C134.1302,59.597,163.0272,76.447,163.0272,97.2382z"/>
		<g>
			<g>
				<path fill="#F26A6B" d="M81.1176,106.093c-0.4694,0-0.9416-0.1551-1.3342-0.4749c-0.9004-0.7371-1.035-2.0644-0.2992-2.9662
					l12.7517-15.6205c0.7385-0.9018,2.0644-1.0363,2.9676-0.3006c0.9004,0.7371,1.035,2.0644,0.2992,2.9662l-12.7517,15.6205
					C82.3338,105.8281,81.7271,106.093,81.1176,106.093z"/>
			</g>
			<g>
				<path fill="#F26A6B" d="M106.7061,106.093c-0.4694,0-0.9416-0.1551-1.3342-0.4749c-0.9004-0.7371-1.035-2.0644-0.2992-2.9662
					l12.7517-15.6205c0.7385-0.9018,2.0644-1.0363,2.9676-0.3006c0.9004,0.7371,1.035,2.0644,0.2992,2.9662l-12.7517,15.6205
					C107.9223,105.8281,107.3156,106.093,106.7061,106.093z"/>
			</g>
			<g>
				<path fill="#F26A6B" d="M93.8391,106.4746c-0.4694,0-0.9416-0.1551-1.3342-0.4749c-0.9004-0.7371-1.035-2.0644-0.2992-2.9662
					l12.7544-15.6205c0.7385-0.9046,2.0644-1.0363,2.9676-0.3006c0.9004,0.7371,1.035,2.0644,0.2992,2.9662l-12.7544,15.6205
					C95.0553,106.2097,94.4486,106.4746,93.8391,106.4746z"/>
			</g>
		</g>
	</g>
	<g>
		<path fill="#82361A" d="M126.4884,103.4383c-0.7632,0-1.5264-0.2073-2.199-0.6191c-1.2326-0.7522-1.993-2.0836-2.0178-3.5263
			c-0.011-0.7165,0.0302-17.6767,28.1388-29.9177c2.1413-0.9251,4.623,0.0522,5.5481,2.1825
			c0.9306,2.1358-0.0467,4.6203-2.1825,5.5509c-11.5328,5.0224-17.3033,10.6186-20.1913,14.9149
			c17.2018-4.8385,33.072-0.3102,33.8517-0.0796c2.2346,0.6561,3.5139,2.9992,2.8578,5.2338
			c-0.6561,2.2346-2.9868,3.5139-5.227,2.8605l0,0c-0.1949-0.0576-19.5078-5.4974-36.7177,2.9676
			C127.7622,103.2942,127.1253,103.4383,126.4884,103.4383z"/>
	</g>
	<g>
		<path fill="#82361A" d="M73.7494,103.4383c-0.6369,0-1.2738-0.1441-1.8613-0.4324c-17.3006-8.5089-36.5173-3.028-36.7067-2.969
			c-2.2374,0.6465-4.5763-0.6204-5.2352-2.8578c-0.6561-2.2346,0.6232-4.5791,2.8578-5.2352
			c0.7796-0.2279,16.6911-4.763,33.8929,0.092c-2.866-4.2881-8.6338-9.876-20.2325-14.9273
			c-2.1358-0.9306-3.1131-3.4151-2.1825-5.5509c0.9306-2.1344,3.4261-3.1062,5.5482-2.1825
			C77.9386,81.6177,77.9771,98.5779,77.9661,99.293c-0.0247,1.444-0.7851,2.7741-2.0178,3.5276
			C75.2757,103.2311,74.5126,103.4383,73.7494,103.4383z"/>
	</g>
	<g>
		<g>
			
				<radialGradient id="SVGID_5_" cx="-121.6097" cy="166.0307" r="45.5588" gradientTransform="matrix(0.9364 0 0 0.9364 214.4458 -13.6436)" gradientUnits="userSpaceOnUse">
				<stop  offset="0.0054" style="stop-color:#A44F24"/>
				<stop  offset="0.2689" style="stop-color:#A04C23"/>
				<stop  offset="0.5871" style="stop-color:#954120"/>
				<stop  offset="0.9322" style="stop-color:#822F1A"/>
				<stop  offset="1" style="stop-color:#7E2B18"/>
			</radialGradient>
			<path fill="url(#SVGID_5_)" d="M148.8018,132.8449c-6.269-12.2424-18.1869-21.2026-48.4686-21.2026
				s-42.5638,8.7808-48.4688,21.2026c-7.8363,16.4747-3.0633,37.5482,18.5089,39.0863c8.649,0.6174,18.1447-3.7425,29.9651-3.7425
				c12.2688,0,20.9786,3.3654,29.9097,3.802C150.9471,173.0117,158.0814,150.9607,148.8018,132.8449z"/>
		</g>
		<linearGradient id="SVGID_6_" gradientUnits="userSpaceOnUse" x1="71.339" y1="160.1445" x2="129.3959" y2="160.1445">
			<stop  offset="0" style="stop-color:#F9B08F"/>
			<stop  offset="1" style="stop-color:#F2675B"/>
		</linearGradient>
		<path fill="url(#SVGID_6_)" d="M129.3959,169.0408c-4.4512-11.7174-16.4139-17.7927-29.1972-17.7927
			c-12.7835,0-25.8148,8.897-28.8597,17.7927c0,0,11.1554-5.1529,28.8808-5.1529
			C121.3513,163.888,129.3959,169.0408,129.3959,169.0408z"/>
		<linearGradient id="SVGID_7_" gradientUnits="userSpaceOnUse" x1="100.3675" y1="124.8883" x2="100.3675" y2="200.5513">
			<stop  offset="0" style="stop-color:#F9B08F"/>
			<stop  offset="1" style="stop-color:#F2675B"/>
		</linearGradient>
		<path fill="url(#SVGID_7_)" d="M129.3959,169.0408c-4.4512-11.7174-16.4139-17.7927-29.1972-17.7927
			c-12.7835,0-25.8148,8.897-28.8597,17.7927c0,0,11.1554-5.1529,28.8808-5.1529
			C121.3513,163.888,129.3959,169.0408,129.3959,169.0408z"/>
		<path fill="#FFFFFF" d="M135.5647,126.0758c0.2823-0.9194-0.0265-2.1739-0.6755-2.8164c0,0-7.889-7.6623-34.5559-7.6623
			c-26.6618,0-34.5589,7.6623-34.5589,7.6623c-0.6463,0.6425-0.9524,1.8969-0.6754,2.8164l0.6201,1.9869
			c0.2745,0.9129,1.2007,1.6689,2.045,1.6689h65.1305c0.8575,0,1.781-0.756,2.0685-1.6689L135.5647,126.0758z"/>
	</g>
	<g>
		<path fill="#AA5C26" d="M167.7737,194.4769c-15.4089,0-24.2478-11.381-24.2478-31.2263c0-19.8439,8.8389-31.2249,24.2478-31.2249
			c17.2185,0,31.2263,14.0064,31.2263,31.2249C199,180.4681,184.9923,194.4769,167.7737,194.4769z"/>
		
			<radialGradient id="SVGID_8_" cx="98.1019" cy="118.1842" r="125.4836" gradientTransform="matrix(0.9778 0 0 0.9778 87.0612 -4.6737)" gradientUnits="userSpaceOnUse">
			<stop  offset="0.1174" style="stop-color:#FCEA65"/>
			<stop  offset="1" style="stop-color:#F5B32D"/>
		</radialGradient>
		<path fill="url(#SVGID_8_)" d="M195.2164,163.2506c0,15.1568-12.2875,27.4427-27.4427,27.4427
			c-15.1554,0-20.4642-12.2859-20.4642-27.4427c0-15.1565,5.3088-27.4427,20.4642-27.4427
			C182.9289,135.808,195.2164,148.0941,195.2164,163.2506z"/>
		<path fill="#AA5C26" d="M157.3675,142.6916c0-5.3414-4.5144-9.6884-10.058-9.6884c-5.5406,0-10.0526,4.3469-10.0526,9.6884
			v13.9472c0,5.3401,4.512,9.6857,10.0526,9.6857c5.5435,0,10.058-4.3456,10.058-9.6857V142.6916z"/>
		<path fill="#EBAD20" d="M140.3284,156.6388c0,3.6501,3.1292,6.6118,6.9812,6.6118l0,0c3.8576,0,6.9814-2.9617,6.9814-6.6118
			v-13.9472c0-3.6555-3.1238-6.6159-6.9814-6.6159l0,0c-3.8519,0-6.9812,2.9604-6.9812,6.6159V156.6388z"/>
		
			<radialGradient id="SVGID_9_" cx="45.7698" cy="104.7779" r="108.1591" gradientTransform="matrix(0.9778 0 0 0.9778 87.0612 -4.6737)" gradientUnits="userSpaceOnUse">
			<stop  offset="0.1174" style="stop-color:#FCEA65"/>
			<stop  offset="1" style="stop-color:#F5B32D"/>
		</radialGradient>
		<path fill="url(#SVGID_9_)" d="M140.3284,156.6388c0,3.6501,3.1292,6.6118,6.9812,6.6118l0,0
			c3.8576,0,6.9814-2.9617,6.9814-6.6118v-13.9472c0-3.6555-3.1238-6.6159-6.9814-6.6159l0,0c-3.8519,0-6.9812,2.9604-6.9812,6.6159
			V156.6388z"/>
	</g>
	<g>
		<path fill="#AA5C26" d="M33.4467,194.4769c15.4089,0,24.2451-11.381,24.2451-31.2263c0-19.8439-8.8362-31.2249-24.2451-31.2249
			c-17.2185,0-31.2263,14.0064-31.2263,31.2249C2.2204,180.4681,16.2282,194.4769,33.4467,194.4769z"/>
		
			<radialGradient id="SVGID_10_" cx="7963.8462" cy="118.1842" r="125.4834" gradientTransform="matrix(-0.9778 0 0 0.9778 7805.2583 -4.6737)" gradientUnits="userSpaceOnUse">
			<stop  offset="0.1174" style="stop-color:#FCEA65"/>
			<stop  offset="1" style="stop-color:#F5B32D"/>
		</radialGradient>
		<path fill="url(#SVGID_10_)" d="M6.004,163.2506c0,15.1568,12.2875,27.4427,27.4427,27.4427
			c15.1554,0,20.4615-12.2859,20.4615-27.4427c0-15.1565-5.3061-27.4427-20.4615-27.4427
			C18.2915,135.808,6.004,148.0941,6.004,163.2506z"/>
		<path fill="#AA5C26" d="M43.8529,142.6916c0-5.3414,4.5117-9.6884,10.058-9.6884c5.5406,0,10.0499,4.3469,10.0499,9.6884v13.9472
			c0,5.3401-4.5093,9.6857-10.0499,9.6857c-5.5462,0-10.058-4.3456-10.058-9.6857V142.6916z"/>
		<path fill="#EBAD20" d="M60.8869,156.6388c0,3.6501-3.1241,6.6118-6.976,6.6118l0,0c-3.8601,0-6.9841-2.9617-6.9841-6.6118
			v-13.9472c0-3.6555,3.1241-6.6159,6.9841-6.6159l0,0c3.8519,0,6.976,2.9604,6.976,6.6159V156.6388z"/>
		
			<radialGradient id="SVGID_11_" cx="7911.5205" cy="104.7779" r="108.1571" gradientTransform="matrix(-0.9778 0 0 0.9778 7805.2583 -4.6737)" gradientUnits="userSpaceOnUse">
			<stop  offset="0.1174" style="stop-color:#FCEA65"/>
			<stop  offset="1" style="stop-color:#F5B32D"/>
		</radialGradient>
		<path fill="url(#SVGID_11_)" d="M60.8869,156.6388c0,3.6501-3.1241,6.6118-6.976,6.6118l0,0
			c-3.8601,0-6.9841-2.9617-6.9841-6.6118v-13.9472c0-3.6555,3.1241-6.6159,6.9841-6.6159l0,0c3.8519,0,6.976,2.9604,6.976,6.6159
			V156.6388z"/>
	</g>
</g>
</svg>
