<?xml version="1.0" encoding="utf-8"?>
<!-- Generator: Adobe Illustrator 17.0.0, SVG Export Plug-In . SVG Version: 6.00 Build 0)  -->
<!DOCTYPE svg PUBLIC "-//W3C//DTD SVG 1.1//EN" "http://www.w3.org/Graphics/SVG/1.1/DTD/svg11.dtd">
<svg version="1.1" id="Layer_1" xmlns="http://www.w3.org/2000/svg" xmlns:xlink="http://www.w3.org/1999/xlink" x="0px" y="0px"
	  viewBox="0 0 200 200" enable-background="new 0 0 200 200" xml:space="preserve">
<g>
	<g>
		<g>
			<g>
				<path fill="#E4A024" d="M99.9972,198.9987C45.4108,198.9987,1,154.588,1,99.9999C1,45.412,45.4108,1.0013,99.9972,1.0013
					C154.5867,1.0013,199,45.412,199,99.9999C199,154.588,154.5867,198.9987,99.9972,198.9987z"/>
				<path fill="#E4A024" d="M99.9972,197.6086c-53.8236,0-97.6071-43.7877-97.6071-97.6088S46.1737,2.3914,99.9972,2.3914
					c53.8238,0,97.6127,43.7874,97.6127,97.6085S153.8211,197.6086,99.9972,197.6086z"/>
				
					<radialGradient id="SVGID_1_" cx="36.1518" cy="-5.8736" r="207.7869" gradientTransform="matrix(0.9829 0 0 0.9829 68.2611 -3.582)" gradientUnits="userSpaceOnUse">
					<stop  offset="0" style="stop-color:#FFF7C2"/>
					<stop  offset="0.3321" style="stop-color:#FFEB8F"/>
					<stop  offset="1" style="stop-color:#FED01F"/>
				</radialGradient>
				<path fill="url(#SVGID_1_)" d="M192.0494,99.9999c0,50.8373-41.2177,92.0483-92.0522,92.0483
					c-50.8342,0-92.0466-41.211-92.0466-92.0483c0-50.837,41.2124-92.048,92.0466-92.048
					C150.8317,7.9519,192.0494,49.1628,192.0494,99.9999z"/>
				<g>
					<defs>
						<path id="SVGID_2_" d="M192.0494,99.9999c0,50.8373-41.2177,92.0483-92.0522,92.0483
							c-50.8342,0-92.0466-41.211-92.0466-92.0483c0-50.837,41.2124-92.048,92.0466-92.048
							C150.8317,7.9519,192.0494,49.1628,192.0494,99.9999z"/>
					</defs>
					<clipPath id="SVGID_3_">
						<use xlink:href="#SVGID_2_"  overflow="visible"/>
					</clipPath>
				</g>
			</g>
		</g>
	</g>
	<g>
		<path fill="#FFFFFF" d="M158.9879,71.0531c0,12.7393-8.9704,23.0727-20.0344,23.0727c-11.0587,0-20.04-10.3333-20.04-23.0727
			c0-12.7485,8.9813-23.0821,20.04-23.0821C150.0174,47.971,158.9879,58.3046,158.9879,71.0531z"/>
		<path fill="#AA5B26" d="M138.9534,98.7226c-13.5837,0-24.6341-12.4149-24.6341-27.6762c0-15.2588,11.0503-27.672,24.6341-27.672
			c13.5834,0,24.6285,12.4132,24.6285,27.672C163.5819,86.3077,152.5369,98.7226,138.9534,98.7226z"/>
		<ellipse fill="#FFFFFF" cx="138.9507" cy="71.0464" rx="20.0372" ry="23.0755"/>
		<path fill="#6D2F16" d="M138.9532,66.6221c-8.2563,0-14.952,6.8814-14.952,15.3743c0,2.0006,0.384,3.9062,1.0607,5.6591
			c3.6033,3.9989,8.4939,6.4702,13.8913,6.4702c5.4002,0,10.2921-2.4739,13.8955-6.4768c0.6754-1.7513,1.0566-3.6544,1.0566-5.6526
			C153.9052,73.5035,147.2206,66.6221,138.9532,66.6221z"/>
		<ellipse fill="none" cx="138.9507" cy="71.0464" rx="20.0372" ry="23.0755"/>
	</g>
	<g>
		<path fill="#FFFFFF" d="M81.0788,71.0531c0,12.7393-8.968,23.0727-20.0319,23.0727c-11.0612,0-20.04-10.3333-20.04-23.0727
			c0-12.7485,8.9788-23.0821,20.04-23.0821C72.1108,47.971,81.0788,58.3046,81.0788,71.0531z"/>
		<path fill="#AA5B26" d="M61.0469,98.7226c-13.5837,0-24.6341-12.4149-24.6341-27.6762c0-15.2588,11.0504-27.672,24.6341-27.672
			c13.5807,0,24.6285,12.4132,24.6285,27.672C85.6754,86.3077,74.6275,98.7226,61.0469,98.7226z"/>
		<path fill="#FFFFFF" d="M41.0069,71.0464c0-12.7419,8.9788-23.0755,20.04-23.0755c11.064,0,20.0319,10.3336,20.0319,23.0755
			c0,12.746-8.968,23.0794-20.0319,23.0794C49.9857,94.1258,41.0069,83.7924,41.0069,71.0464z"/>
		<path fill="#6D2F16" d="M61.0497,66.6221c-8.2591,0-14.9575,6.8814-14.9575,15.3743c0,1.9985,0.3826,3.9022,1.0579,5.6538
			c3.6047,4.0021,8.498,6.4756,13.8968,6.4756c5.4016,0,10.2935-2.4746,13.8968-6.4787c0.6726-1.7507,1.0552-3.6534,1.0552-5.6507
			C75.9989,73.5035,69.3143,66.6221,61.0497,66.6221z"/>
		<path fill="none" d="M41.0069,71.0464c0-12.7419,8.9788-23.0755,20.04-23.0755c11.064,0,20.0319,10.3336,20.0319,23.0755
			c0,12.746-8.968,23.0794-20.0319,23.0794C49.9857,94.1258,41.0069,83.7924,41.0069,71.0464z"/>
	</g>
	<g>
		<path fill="#A04E17" d="M138.4339,149.2093c-0.9834,0-1.9391-0.5124-2.4612-1.4281
			c-0.4116-0.7154-10.1678-17.1093-36.5003-17.1093c-26.3463,0-36.0942,16.4119-36.4947,17.1107
			c-0.779,1.3521-2.5081,1.8231-3.8561,1.051c-1.3535-0.772-1.8314-2.4888-1.0635-3.845
			c0.4585-0.8149,11.629-19.9738,41.4143-19.9738c29.7825,0,40.9585,19.1575,41.4198,19.9738c0.7707,1.359,0.29,3.0854-1.069,3.8547
			C139.3841,149.0919,138.9062,149.2093,138.4339,149.2093z"/>
	</g>
</g>
</svg>
