<?xml version="1.0" encoding="utf-8"?>
<!-- Generator: Adobe Illustrator 17.0.0, SVG Export Plug-In . SVG Version: 6.00 Build 0)  -->
<!DOCTYPE svg PUBLIC "-//W3C//DTD SVG 1.1//EN" "http://www.w3.org/Graphics/SVG/1.1/DTD/svg11.dtd">
<svg version="1.1" id="Layer_1" xmlns="http://www.w3.org/2000/svg" xmlns:xlink="http://www.w3.org/1999/xlink" x="0px" y="0px" viewBox="0 0 200 200" enable-background="new 0 0 200 200" xml:space="preserve">
<g>
	<g>
		<g>
			<g>
				<path fill="#E5A126" d="M99.9972,198.9987C45.4108,198.9987,1,154.588,1,99.9999C1,45.412,45.4108,1.0013,99.9972,1.0013
					C154.5867,1.0013,199,45.412,199,99.9999C199,154.588,154.5867,198.9987,99.9972,198.9987z"/>
				<path fill="#E5A126" d="M99.9972,197.6086c-53.8236,0-97.6071-43.7877-97.6071-97.6088S46.1737,2.3914,99.9972,2.3914
					c53.8238,0,97.6127,43.7874,97.6127,97.6085S153.8211,197.6086,99.9972,197.6086z"/>
				<radialGradient id="SVGID_1_" cx="103.7957" cy="-9.3554" r="204.2393" gradientUnits="userSpaceOnUse">
					<stop  offset="0" style="stop-color:#FFF7C2"/>
					<stop  offset="0.3276" style="stop-color:#FFE996"/>
					<stop  offset="1" style="stop-color:#FDD022"/>
				</radialGradient>
				<path fill="url(#SVGID_1_)" d="M192.0494,99.9999c0,50.8373-41.2177,92.0483-92.0522,92.0483
					c-50.8317,0-92.0466-41.211-92.0466-92.0483c0-50.837,41.2149-92.048,92.0466-92.048
					C150.8317,7.9519,192.0494,49.1628,192.0494,99.9999z"/>
				<g>
					<defs>
						<path id="SVGID_2_" d="M192.0494,99.9999c0,50.8373-41.2177,92.0483-92.0522,92.0483
							c-50.8317,0-92.0466-41.211-92.0466-92.0483c0-50.837,41.2149-92.048,92.0466-92.048
							C150.8317,7.9519,192.0494,49.1628,192.0494,99.9999z"/>
					</defs>
					<clipPath id="SVGID_3_">
						<use xlink:href="#SVGID_2_"  overflow="visible"/>
					</clipPath>
				</g>
			</g>
		</g>
	</g>
	<g>
		<g>
			<radialGradient id="SVGID_4_" cx="38.6772" cy="86.7687" r="30.7262" gradientUnits="userSpaceOnUse">
				<stop  offset="0" style="stop-color:#F15A60;stop-opacity:0.5"/>
				<stop  offset="0.1384" style="stop-color:#F16262;stop-opacity:0.4367"/>
				<stop  offset="0.3698" style="stop-color:#F37767;stop-opacity:0.3309"/>
				<stop  offset="0.6559" style="stop-color:#F7956E;stop-opacity:0.2"/>
				<stop  offset="0.7027" style="stop-color:#F69B6C;stop-opacity:0.1714"/>
				<stop  offset="0.7826" style="stop-color:#F6AE68;stop-opacity:0.1227"/>
				<stop  offset="0.8851" style="stop-color:#F8CC5A;stop-opacity:0.0602"/>
				<stop  offset="0.9839" style="stop-color:#FAEE3C;stop-opacity:0"/>
			</radialGradient>
			<path fill="url(#SVGID_4_)" d="M69.4037,86.7667c0,16.972-13.7544,30.7278-30.7292,30.7278
				c-16.9611,0-30.7239-13.7558-30.7239-30.7278c0-16.9692,13.7628-30.7239,30.7239-30.7239
				C55.6493,56.0428,69.4037,69.7975,69.4037,86.7667z"/>
			<radialGradient id="SVGID_5_" cx="161.3228" cy="86.7687" r="30.7262" gradientUnits="userSpaceOnUse">
				<stop  offset="0" style="stop-color:#F15A60;stop-opacity:0.5"/>
				<stop  offset="0.1384" style="stop-color:#F16262;stop-opacity:0.4367"/>
				<stop  offset="0.3698" style="stop-color:#F37767;stop-opacity:0.3309"/>
				<stop  offset="0.6559" style="stop-color:#F7956E;stop-opacity:0.2"/>
				<stop  offset="0.7027" style="stop-color:#F69B6C;stop-opacity:0.1714"/>
				<stop  offset="0.7826" style="stop-color:#F6AE68;stop-opacity:0.1227"/>
				<stop  offset="0.8851" style="stop-color:#F8CC5A;stop-opacity:0.0602"/>
				<stop  offset="0.9839" style="stop-color:#FAEE3C;stop-opacity:0"/>
			</radialGradient>
			<circle fill="url(#SVGID_5_)" cx="161.3228" cy="86.7667" r="30.7265"/>
		</g>
		<g>
			<g>
				<path fill="#F26A6B" d="M17.9034,96.9809c-0.4723,0-0.9474-0.1561-1.3424-0.4779c-0.906-0.7417-1.0414-2.0772-0.3011-2.9846
					l12.8334-15.7172c0.743-0.9102,2.08-1.04,2.986-0.3025c0.906,0.7417,1.0414,2.0772,0.3011,2.9846L19.547,96.2005
					C19.1271,96.7143,18.5167,96.9809,17.9034,96.9809z"/>
			</g>
			<g>
				<path fill="#F26A6B" d="M30.7064,97.3648c-0.4723,0-0.9474-0.1561-1.3424-0.4779c-0.906-0.7417-1.0414-2.0772-0.3011-2.9846
					l12.8306-15.7158c0.743-0.9088,2.0772-1.0414,2.986-0.3025c0.906,0.7417,1.0414,2.0772,0.3011,2.9846L32.35,96.5845
					C31.9301,97.0983,31.3196,97.3648,30.7064,97.3648z"/>
			</g>
		</g>
		<g>
			<g>
				<path fill="#F26A6B" d="M154.0654,96.9809c-0.4723,0-0.9474-0.1561-1.3425-0.4779c-0.906-0.7417-1.0414-2.0772-0.3011-2.9846
					l12.8306-15.7172c0.743-0.9102,2.08-1.04,2.986-0.3025c0.906,0.7417,1.0414,2.0772,0.3011,2.9846l-12.8306,15.7172
					C155.2891,96.7143,154.6786,96.9809,154.0654,96.9809z"/>
			</g>
			<g>
				<path fill="#F26A6B" d="M166.8711,97.3648c-0.4723,0-0.9474-0.1561-1.3425-0.4779c-0.906-0.7417-1.0414-2.0772-0.3011-2.9846
					l12.8306-15.7158c0.7431-0.9088,2.0772-1.0414,2.986-0.3025c0.906,0.7417,1.0414,2.0772,0.3011,2.9846l-12.8306,15.7158
					C168.0948,97.0983,167.4844,97.3648,166.8711,97.3648z"/>
			</g>
		</g>
	</g>
	<g>
		<path fill="#FFFFFF" d="M125.3127,111.1806c-13.7219,9.2123-34.1992,8.7372-47.8994-0.7615
			c-8.6449-5.9961-33.4608-11.5758-39.4664,13.0988c-6.7062,27.5528,22.5133,55.0552,61.2468,55.0552
			c38.7279,0,72.65-28.966,65.7483-56.9516C158.9417,97.2633,133.9251,105.3974,125.3127,111.1806z"/>
		<g>
			<path fill="#A05024" d="M101.9944,181.4475c-0.0028,0-0.0028,0-0.0055,0c-0.953,0-1.9198-0.0152-2.8865-0.047
				c-23.2194-0.7541-44.8036-10.6457-56.3304-25.8132c-7.5906-9.991-10.2811-21.6173-7.5741-32.7381
				c4.3174-17.7419,17.2999-20.3923,24.653-20.3923c8.1541,0,15.4244,3.0371,19.1755,5.6377
				c6.4167,4.45,14.6482,6.9015,23.1752,6.9015c7.9663-0.0014,15.615-2.1891,21.5344-6.1639
				c4.8781-3.276,13.3941-6.5797,21.4212-6.5797c11.56,0,19.5622,6.6377,22.5316,18.6921
				c2.9307,11.879-0.163,24.4293-8.7094,35.3374C146.6322,172.0393,125.3298,181.4475,101.9944,181.4475z M59.8508,108.1141
				c-6.9526,0-15.9243,2.7885-19.1561,16.0721c-2.3286,9.5712-0.0525,19.2459,6.5824,27.9787
				c10.5214,13.8457,30.4482,22.881,52.0075,23.5813c0.906,0.029,1.812,0.0442,2.7042,0.0442c0.0028,0,0.0055,0,0.0055,0
				c21.6118,0,41.2486-8.5961,52.5323-22.997c7.4498-9.5104,10.1733-20.3398,7.6707-30.4952
				c-2.3534-9.5477-8.0851-14.3885-17.0403-14.3885c-6.8006,0-14.2366,2.9128-18.2667,5.6184
				c-6.8421,4.595-15.6094,7.1238-24.6889,7.1252c-9.6678,0-19.0429-2.8092-26.3987-7.9097
				C72.4798,110.4399,66.2592,108.1141,59.8508,108.1141z"/>
		</g>
		
			<line fill="none" stroke="#A05024" stroke-width="1.5" stroke-linecap="round" stroke-linejoin="round" stroke-miterlimit="10" x1="85.9331" y1="115.8737" x2="85.9331" y2="177.3837"/>
		
			<line fill="none" stroke="#A05024" stroke-width="1.5" stroke-linecap="round" stroke-linejoin="round" stroke-miterlimit="10" x1="60.493" y1="106.1456" x2="60.493" y2="167.6571"/>
		
			<line fill="none" stroke="#A05024" stroke-width="1.5" stroke-linecap="round" stroke-linejoin="round" stroke-miterlimit="10" x1="141.7823" y1="106.1456" x2="141.7823" y2="166.119"/>
		
			<line fill="none" stroke="#A05024" stroke-width="1.5" stroke-linecap="round" stroke-linejoin="round" stroke-miterlimit="10" x1="115.886" y1="115.8737" x2="115.886" y2="175.2077"/>
	</g>
	<circle fill="#6D3118" cx="61.0088" cy="76.1818" r="9.7742"/>
	<circle fill="#6D3118" cx="138.937" cy="76.1818" r="9.7742"/>
	<g>
		<path fill="#82361A" d="M72.0406,37.0181c-0.0856,0-0.1713-0.0041-0.2597-0.0111c-1.5524-0.1423-2.6987-1.5151-2.5606-3.0688
			c0.1547-1.8217-0.0221-7.1666-2.6628-10.0449c-1.3397-1.4585-3.1849-2.167-5.6405-2.167c-9.5076,0-9.6817,11.9619-9.6844,12.4701
			c-0.0083,1.5565-1.2734,2.8175-2.8285,2.8175c-0.0028,0-0.0055,0-0.0083,0c-1.5579-0.0041-2.8203-1.2651-2.8203-2.8244
			c0-6.2675,3.207-18.1203,15.3415-18.1203c4.0854,0,7.3918,1.3535,9.8281,4.0232c4.8671,5.3297,4.1434,13.9866,4.1102,14.3526
			C74.72,35.9146,73.488,37.0181,72.0406,37.0181z"/>
	</g>
	<g>
		<path fill="#82361A" d="M151.5517,35.2282c-0.0856,0-0.1712-0.0041-0.2596-0.0111c-1.5524-0.1423-2.6987-1.5151-2.5606-3.0689
			c0.1547-1.8217-0.0221-7.1653-2.6628-10.0435c-1.3397-1.4585-3.1849-2.167-5.6405-2.167c-9.5739,0-9.6844,11.9536-9.6844,12.4619
			c0,1.562-1.2651,2.8285-2.8285,2.8285c-1.5634,0-2.8285-1.2665-2.8285-2.8285c0-6.2675,3.207-18.1189,15.3415-18.1189
			c4.0854,0,7.3918,1.3535,9.8308,4.0232c4.8643,5.3284,4.1406,13.9852,4.1075,14.3512
			C154.2311,34.1247,152.9992,35.2282,151.5517,35.2282z"/>
	</g>
</g>
</svg>
