<?xml version="1.0" encoding="utf-8"?>
<!-- Generator: Adobe Illustrator 17.0.0, SVG Export Plug-In . SVG Version: 6.00 Build 0)  -->
<!DOCTYPE svg PUBLIC "-//W3C//DTD SVG 1.1//EN" "http://www.w3.org/Graphics/SVG/1.1/DTD/svg11.dtd">
<svg version="1.1" id="Layer_1" xmlns="http://www.w3.org/2000/svg" xmlns:xlink="http://www.w3.org/1999/xlink" x="0px" y="0px"
 viewBox="0 0 200 200" enable-background="new 0 0 200 200" xml:space="preserve">
<g>
	<g>
		<g>
			<g>
				<path fill="#E4A024" d="M99.9972,198.9987C45.4105,198.9987,1,154.588,1,100.0001C1,45.412,45.4105,1.0013,99.9972,1.0013
					C154.5867,1.0013,199,45.412,199,100.0001C199,154.588,154.5867,198.9987,99.9972,198.9987z"/>
				<path fill="#E4A024" d="M99.9972,197.6086c-53.8238,0-97.6071-43.7874-97.6071-97.6085S46.1734,2.3914,99.9972,2.3914
					s97.6127,43.7877,97.6127,97.6088S153.8211,197.6086,99.9972,197.6086z"/>
				<radialGradient id="SVGID_1_" cx="103.7957" cy="-9.3554" r="204.2393" gradientUnits="userSpaceOnUse">
					<stop  offset="0" style="stop-color:#FFF7C2"/>
					<stop  offset="0.3321" style="stop-color:#FFEB8F"/>
					<stop  offset="1" style="stop-color:#FED01F"/>
				</radialGradient>
				<path fill="url(#SVGID_1_)" d="M192.0494,100.0001c0,50.837-41.2177,92.048-92.0522,92.048s-92.0466-41.211-92.0466-92.048
					c0-50.8373,41.2121-92.0483,92.0466-92.0483S192.0494,49.1628,192.0494,100.0001z"/>
				<g>
					<defs>
						<path id="SVGID_2_" d="M192.0494,100.0001c0,50.837-41.2177,92.048-92.0522,92.048s-92.0466-41.211-92.0466-92.048
							c0-50.8373,41.2121-92.0483,92.0466-92.0483S192.0494,49.1628,192.0494,100.0001z"/>
					</defs>
					<clipPath id="SVGID_3_">
						<use xlink:href="#SVGID_2_"  overflow="visible"/>
					</clipPath>
				</g>
			</g>
		</g>
	</g>
	<g>
		<path fill="#FFFFFF" d="M81.7683,88.6075c7.8901,18.2209,0.6353,39.0632-16.2199,46.5474
			c-16.8444,7.4855-36.9361-1.2097-44.8178-19.4333c-7.882-18.2262-0.6055-39.0808,16.2469-46.5677
			C53.8382,61.6645,73.8891,70.3758,81.7683,88.6075z"/>
		<path fill="#AA5B26" d="M64.0387,140.0067c-18.1964,6.0968-38.8203-3.8826-46.96-22.7157
			c-8.7372-20.1865-0.5402-43.4129,18.2807-51.7753c1.0317-0.4587,2.0743-0.8633,3.125-1.2136
			c18.4789-6.1944,38.6629,3.5757,46.9383,22.7226c8.7428,20.1907,0.5538,43.4141-18.2615,51.767
			C66.1294,139.2519,65.0868,139.6578,64.0387,140.0067z"/>
		<path fill="#FFFFFF" d="M20.7331,115.7107c-7.8845-18.2153-0.608-39.0699,16.2444-46.5568
			c16.8608-7.4894,36.9116,1.2219,44.7908,19.4495c7.8901,18.225,0.6353,39.0674-16.2199,46.5516
			C48.704,142.6404,28.6123,133.9452,20.7331,115.7107z"/>
		<g>
			<defs>
				<path id="SVGID_4_" d="M20.7331,115.7107c-7.8845-18.2153-0.608-39.0699,16.2444-46.5568
					c16.8608-7.4894,36.9116,1.2219,44.7908,19.4495c7.8901,18.225,0.6353,39.0674-16.2199,46.5516
					C48.704,142.6404,28.6123,133.9452,20.7331,115.7107z"/>
			</defs>
			<clipPath id="SVGID_5_">
				<use xlink:href="#SVGID_4_"  overflow="visible"/>
			</clipPath>
		</g>
		<path fill="#6D2F16" d="M74.3181,94.7138c2.6282,5.0053,0.8199,11.129-4.0564,13.6921c-4.8682,2.5562-10.95,0.5688-13.5782-4.4392
			c-2.6201-5.0067-0.8171-11.1346,4.0592-13.6908C65.6162,87.7156,71.6899,89.7085,74.3181,94.7138z"/>
		<path fill="none" d="M20.7331,115.7107c-7.8845-18.2153-0.608-39.0699,16.2444-46.5568
			c16.8608-7.4894,36.9116,1.2219,44.7908,19.4495c7.8901,18.225,0.6353,39.0674-16.2199,46.5516
			C48.704,142.6404,28.6123,133.9452,20.7331,115.7107z"/>
	</g>
	<g>
		<g>
			<path fill="#FFFFFF" d="M168.2355,56.161c7.8873,18.2223,0.6269,39.0632-16.2283,46.546
				c-16.8388,7.4841-36.9305-1.2097-44.815-19.432c-7.882-18.2275-0.6028-39.0822,16.2416-46.5677
				C140.2943,29.2165,160.3479,37.9279,168.2355,56.161z"/>
			<path fill="#AA5B26" d="M150.4978,107.5602c-18.1911,6.0954-38.8175-3.884-46.9628-22.7171
				c-8.7291-20.1865-0.5296-43.414,18.2859-51.774c1.0317-0.4587,2.0743-0.8647,3.1225-1.215
				c18.4842-6.193,38.6654,3.5746,46.9436,22.724c8.74,20.1907,0.5485,43.4154-18.259,51.767
				C152.5939,106.8039,151.5513,107.2085,150.4978,107.5602z"/>
			<path fill="#FFFFFF" d="M107.2031,83.2628c-7.8928-18.2153-0.6136-39.0699,16.2308-46.5554
				c16.8605-7.4908,36.9141,1.2205,44.8017,19.4495c7.8873,18.2264,0.6269,39.0674-16.2283,46.5502
				C135.1684,110.1911,115.0767,101.4973,107.2031,83.2628z"/>
			<g>
				<defs>
					<path id="SVGID_6_" d="M107.2031,83.2628c-7.8928-18.2153-0.6136-39.0699,16.2308-46.5554
						c16.8605-7.4908,36.9141,1.2205,44.8017,19.4495c7.8873,18.2264,0.6269,39.0674-16.2283,46.5502
						C135.1684,110.1911,115.0767,101.4973,107.2031,83.2628z"/>
				</defs>
				<clipPath id="SVGID_7_">
					<use xlink:href="#SVGID_6_"  overflow="visible"/>
				</clipPath>
			</g>
			<path fill="#6D2F16" d="M156.4926,63.7944c2.4652,4.6903,0.7712,10.4368-3.7984,12.8369
				c-4.5693,2.4002-10.2658,0.5349-12.7363-4.1595c-2.4547-4.6972-0.7657-10.4423,3.8145-12.8411
				C148.3365,57.2319,154.0382,59.1014,156.4926,63.7944z"/>
			<path fill="none" d="M107.2031,83.2628c-7.8928-18.2153-0.6136-39.0699,16.2308-46.5554
				c16.8605-7.4908,36.9141,1.2205,44.8017,19.4495c7.8873,18.2264,0.6269,39.0674-16.2283,46.5502
				C135.1684,110.1911,115.0767,101.4973,107.2031,83.2628z"/>
		</g>
	</g>
	<path fill="#A04E17" d="M135.3666,166.4218c1.8925,6.5325-0.5077,12.967-5.3623,14.375
		c-4.8601,1.4076-10.3308-2.7449-12.2233-9.2788c-1.895-6.5311,0.5077-12.9673,5.365-14.3777
		C128.0059,155.7337,133.4741,159.8893,135.3666,166.4218z"/>
	<g>
		<path fill="#DD4026" d="M184.7566,45.9658h-17.8462v-3.03c0-4.0075,0.4507-6.9655,1.3467-8.8742
			c0.8987-1.9073,2.5332-3.3898,4.9062-4.4487l3.2717-1.4431c2.468-1.0887,3.7034-2.6282,3.7034-4.617
			c0-1.1539-0.4018-2.1327-1.2028-2.9336s-1.7784-1.2028-2.935-1.2028c-3.1414,0-4.7134,2.1802-4.7134,6.5406h-16.5919
			c0-5.8347,1.3467-10.597,4.04-14.284c1.9874-2.7259,4.5695-4.8899,7.7434-6.4931c3.1739-1.6033,6.4592-2.4056,9.8585-2.4056
			c6.0302,0,11.1047,1.9956,15.2234,5.9881c4.1215,3.9925,6.1822,8.9394,6.1822,14.8379c0,7.2805-2.9513,12.3943-8.8512,15.3443
			c-1.9223,0.9611-3.0952,1.796-3.5106,2.5006C184.963,42.1511,184.7566,43.658,184.7566,45.9658z M176.1471,48.5153
			c3.1414,0,5.8428,1.139,8.1045,3.4156c2.2589,2.2766,3.3911,4.9862,3.3911,8.129c0,3.1427-1.124,5.8116-3.3694,8.0081
			c-2.2427,2.1951-4.9523,3.2948-8.1262,3.2948c-3.3042,0-6.022-1.067-8.1534-3.1984c-2.1341-2.1327-3.1984-4.8505-3.1984-8.1534
			c0-3.2065,1.105-5.923,3.3178-8.152C170.326,49.6298,173.0031,48.5153,176.1471,48.5153z"/>
	</g>
</g>
</svg>
