<?xml version="1.0" encoding="utf-8"?>
<!-- Generator: Adobe Illustrator 17.0.0, SVG Export Plug-In . SVG Version: 6.00 Build 0)  -->
<!DOCTYPE svg PUBLIC "-//W3C//DTD SVG 1.1//EN" "http://www.w3.org/Graphics/SVG/1.1/DTD/svg11.dtd">
<svg version="1.1" id="Layer_1" xmlns="http://www.w3.org/2000/svg" xmlns:xlink="http://www.w3.org/1999/xlink" x="0px" y="0px" viewBox="0 0 200 200" enable-background="new 0 0 200 200" xml:space="preserve">
<g>
	<g>
		<g>
			<g>
				<path fill="#E5A126" d="M99.9972,198.9987C45.4108,198.9987,1,154.588,1,99.9999C1,45.412,45.4108,1.0013,99.9972,1.0013
					C154.5867,1.0013,199,45.412,199,99.9999C199,154.588,154.5867,198.9987,99.9972,198.9987z"/>
				<path fill="#E5A126" d="M99.9972,197.6086c-53.8236,0-97.6071-43.7877-97.6071-97.6088S46.1737,2.3914,99.9972,2.3914
					c53.8238,0,97.6127,43.7874,97.6127,97.6085S153.8211,197.6086,99.9972,197.6086z"/>
				
					<radialGradient id="SVGID_1_" cx="32.1394" cy="-5.8736" r="207.7869" gradientTransform="matrix(0.9829 0 0 0.9829 72.2051 -3.582)" gradientUnits="userSpaceOnUse">
					<stop  offset="0" style="stop-color:#FFF7C2"/>
					<stop  offset="0.3276" style="stop-color:#FFE996"/>
					<stop  offset="1" style="stop-color:#FDD022"/>
				</radialGradient>
				<path fill="url(#SVGID_1_)" d="M192.0494,99.9999c0,50.8373-41.2177,92.0483-92.0522,92.0483
					c-50.8342,0-92.0466-41.211-92.0466-92.0483c0-50.837,41.2124-92.048,92.0466-92.048
					C150.8317,7.9519,192.0494,49.1628,192.0494,99.9999z"/>
				<g>
					<defs>
						<path id="SVGID_2_" d="M192.0494,99.9999c0,50.8373-41.2177,92.0483-92.0522,92.0483
							c-50.8342,0-92.0466-41.211-92.0466-92.0483c0-50.837,41.2124-92.048,92.0466-92.048
							C150.8317,7.9519,192.0494,49.1628,192.0494,99.9999z"/>
					</defs>
					<clipPath id="SVGID_3_">
						<use xlink:href="#SVGID_2_"  overflow="visible"/>
					</clipPath>
				</g>
			</g>
		</g>
	</g>
	<g>
		<path fill="#A05024" d="M116,161.4774c0,0-11.729-11.121-15.6389-11.121c-3.9096,0-15.6416,11.121-15.6416,11.121
			c-1.1566,0-2.1964-0.7206-2.6009-1.808c-0.4073-1.0876-0.0951-2.3134,0.7818-3.0736l15.6389-13.5537
			c1.0481-0.9041,2.5956-0.9041,3.6438,0l15.6389,13.5537c0.8769,0.7601,1.1891,1.9859,0.7818,3.0736
			C118.1992,160.7568,117.1594,161.4774,116,161.4774z"/>
	</g>
	<g>
		<path fill="#82361A" d="M81.145,83.3796c-2.6297,0-4.2262-1.0994-4.5605-1.3563c-0.0829-0.0635-0.163-0.1312-0.2376-0.203
			L45.664,52.5281c-1.1298-1.0787-1.1712-2.8686-0.0939-3.9983c1.0828-1.1298,2.8727-1.1712,3.9997-0.0925l30.4869,29.103
			c0.4005,0.1533,3.8533,1.2858,10.1678-5.7579c1.0497-1.1629,2.8368-1.2596,3.9942-0.2182
			c1.1629,1.0414,1.2623,2.8299,0.221,3.9942C88.8102,81.8424,84.2525,83.3796,81.145,83.3796z"/>
	</g>
	<g>
		<path fill="#82361A" d="M114.3278,83.3796c-3.1103,0-7.6652-1.5372-13.2947-7.8227c-1.0414-1.1629-0.9419-2.9515,0.221-3.9942
			c1.1601-1.0386,2.9501-0.9447,3.9942,0.221c6.1598,6.878,9.5933,5.9623,10.2203,5.7096l30.4344-29.056
			c1.1297-1.08,2.9169-1.0386,3.9997,0.0925c1.0773,1.1298,1.0358,2.9197-0.0939,3.9983l-30.6802,29.2922
			c-0.0746,0.0718-0.1547,0.1409-0.2376,0.203C118.554,82.2802,116.9575,83.3796,114.3278,83.3796z"/>
	</g>
	<g>
		
			<radialGradient id="SVGID_4_" cx="-33.729" cy="113.2999" r="31.2503" gradientTransform="matrix(0.9829 0 0 0.9829 72.2051 -3.582)" gradientUnits="userSpaceOnUse">
			<stop  offset="0" style="stop-color:#F15A60;stop-opacity:0.5"/>
			<stop  offset="0.1384" style="stop-color:#F16262;stop-opacity:0.4367"/>
			<stop  offset="0.3698" style="stop-color:#F37767;stop-opacity:0.3309"/>
			<stop  offset="0.6559" style="stop-color:#F7956E;stop-opacity:0.2"/>
			<stop  offset="0.7027" style="stop-color:#F69B6C;stop-opacity:0.1714"/>
			<stop  offset="0.7826" style="stop-color:#F6AE68;stop-opacity:0.1227"/>
			<stop  offset="0.8851" style="stop-color:#F8CC5A;stop-opacity:0.0602"/>
			<stop  offset="0.9839" style="stop-color:#FAEE3C;stop-opacity:0"/>
		</radialGradient>
		<path fill="url(#SVGID_4_)" d="M69.7676,107.7829c0,16.9678-13.7547,30.7183-30.7131,30.7183S8.3362,124.7507,8.3362,107.7829
			c0-16.9667,13.76-30.7172,30.7183-30.7172S69.7676,90.8162,69.7676,107.7829z"/>
		
			<radialGradient id="SVGID_5_" cx="91.0139" cy="113.2999" r="31.2503" gradientTransform="matrix(0.9829 0 0 0.9829 72.2051 -3.582)" gradientUnits="userSpaceOnUse">
			<stop  offset="0" style="stop-color:#F15A60;stop-opacity:0.5"/>
			<stop  offset="0.1384" style="stop-color:#F16262;stop-opacity:0.4367"/>
			<stop  offset="0.3698" style="stop-color:#F37767;stop-opacity:0.3309"/>
			<stop  offset="0.6559" style="stop-color:#F7956E;stop-opacity:0.2"/>
			<stop  offset="0.7027" style="stop-color:#F69B6C;stop-opacity:0.1714"/>
			<stop  offset="0.7826" style="stop-color:#F6AE68;stop-opacity:0.1227"/>
			<stop  offset="0.8851" style="stop-color:#F8CC5A;stop-opacity:0.0602"/>
			<stop  offset="0.9839" style="stop-color:#FAEE3C;stop-opacity:0"/>
		</radialGradient>
		<path fill="url(#SVGID_5_)" d="M192.3808,107.7829c0,16.9678-13.7494,30.7183-30.7186,30.7183
			c-16.9556,0-30.7128-13.7505-30.7128-30.7183c0-16.9667,13.7572-30.7172,30.7128-30.7172
			C178.6314,77.0656,192.3808,90.8162,192.3808,107.7829z"/>
		<g>
			<g>
				<path fill="#F26A6B" d="M23.9307,117.4491c-0.4723,0-0.9475-0.1561-1.3425-0.4779c-0.906-0.7417-1.0414-2.0786-0.3011-2.986
					l12.8361-15.7158c0.743-0.906,2.0772-1.0414,2.986-0.3011c0.906,0.7417,1.0414,2.0786,0.3011,2.986l-12.8361,15.7158
					C25.1544,117.1825,24.5439,117.4491,23.9307,117.4491z"/>
			</g>
			<g>
				<path fill="#F26A6B" d="M36.7364,117.833c-0.4723,0-0.9474-0.1561-1.3424-0.4779c-0.906-0.7417-1.0414-2.0772-0.3011-2.9846
					l12.8306-15.7158c0.743-0.9102,2.0772-1.0427,2.986-0.3025c0.906,0.7417,1.0414,2.0772,0.3011,2.9846L38.38,117.0527
					C37.9601,117.5665,37.3497,117.833,36.7364,117.833z"/>
			</g>
		</g>
		<g>
			<g>
				<path fill="#F26A6B" d="M151.7562,117.4491c-0.4723,0-0.9474-0.1561-1.3425-0.4779c-0.906-0.7417-1.0414-2.0772-0.3011-2.986
					l12.8334-15.7158c0.743-0.906,2.0772-1.0414,2.986-0.3011c0.906,0.7417,1.0414,2.0772,0.3011,2.986l-12.8334,15.7158
					C152.9799,117.1825,152.3694,117.4491,151.7562,117.4491z"/>
			</g>
			<g>
				<path fill="#F26A6B" d="M164.5592,117.833c-0.4723,0-0.9474-0.1561-1.3425-0.4779c-0.906-0.7417-1.0414-2.0772-0.3011-2.9846
					l12.8306-15.7158c0.743-0.9102,2.08-1.0427,2.986-0.3025c0.906,0.7417,1.0414,2.0772,0.3011,2.9846l-12.8306,15.7158
					C165.7829,117.5665,165.1724,117.833,164.5592,117.833z"/>
			</g>
		</g>
	</g>
	<g>
		<g>
			<path fill="#82361A" d="M72.2644,92.571H26.9968c-2.3424,0-4.2428-1.899-4.2428-4.2428c0-2.3438,1.9004-4.2428,4.2428-4.2428
				h45.2676c2.3424,0,4.2428,1.899,4.2428,4.2428C76.5072,90.6719,74.6068,92.571,72.2644,92.571z"/>
		</g>
		<g>
			<path fill="#82361A" d="M169.2108,92.571h-45.2731c-2.3424,0-4.2428-1.899-4.2428-4.2428c0-2.3438,1.9004-4.2428,4.2428-4.2428
				h45.2731c2.3424,0,4.2428,1.899,4.2428,4.2428C173.4536,90.6719,171.5532,92.571,169.2108,92.571z"/>
		</g>
	</g>
</g>
</svg>
