<?xml version="1.0" encoding="utf-8"?>
<!-- Generator: Adobe Illustrator 17.0.0, SVG Export Plug-In . SVG Version: 6.00 Build 0)  -->
<!DOCTYPE svg PUBLIC "-//W3C//DTD SVG 1.1//EN" "http://www.w3.org/Graphics/SVG/1.1/DTD/svg11.dtd">
<svg version="1.1" id="Layer_1" xmlns="http://www.w3.org/2000/svg" xmlns:xlink="http://www.w3.org/1999/xlink" x="0px" y="0px" viewBox="0 0 200 200" enable-background="new 0 0 200 200" xml:space="preserve">
<g>
	<g>
		<g>
			<path fill="#E5A126" d="M9.9939,199c-3.8945,0-7.0631-3.1685-7.0631-7.0617c0-53.9482,43.8916-97.8384,97.8411-97.8384
				c53.9444,0,97.8332,43.8902,97.8332,97.8384c0,3.8932-3.1683,7.0617-7.0603,7.0617H9.9939z"/>
			<path fill="#E5A126" d="M9.9939,197.6333c-3.1445,0-5.6964-2.5505-5.6964-5.695c0-53.1941,43.2804-96.4717,96.4744-96.4717
				c53.1943,0,96.4665,43.2776,96.4665,96.4717c0,3.1445-2.5491,5.695-5.6936,5.695H9.9939z"/>
			
				<radialGradient id="SVGID_1_" cx="-107.9803" cy="164.6889" r="107.534" gradientTransform="matrix(0.9525 0 0 0.9525 204.3621 -9.9528)" gradientUnits="userSpaceOnUse">
				<stop  offset="0" style="stop-color:#FFF7C2"/>
				<stop  offset="0.3276" style="stop-color:#FFE996"/>
				<stop  offset="1" style="stop-color:#FDD022"/>
			</radialGradient>
			<path fill="url(#SVGID_1_)" d="M191.5449,191.9383c0-50.1379-40.6377-90.7756-90.7729-90.7756S9.9939,141.8004,9.9939,191.9383
				H191.5449z"/>
			<g>
				<defs>
					<path id="SVGID_2_" d="M191.5449,191.9383c0-50.1379-40.6377-90.7756-90.7729-90.7756S9.9939,141.8004,9.9939,191.9383
						H191.5449z"/>
				</defs>
				<clipPath id="SVGID_3_">
					<use xlink:href="#SVGID_2_"  overflow="visible"/>
				</clipPath>
			</g>
		</g>
		<polyline fill="#E5A126" points="74.3752,83.616 63.1855,27.8447 60.8097,68.1902 14.8066,44.1903 46.4676,86.9568 
			15.9653,90.4402 61.923,95.4666 52.6095,76.5289 74.3752,83.616 		"/>
	</g>
	<g>
		<path fill="#82361A" d="M120.3457,187.1678c-0.7679,0-1.5358-0.2086-2.2126-0.6229c-1.2403-0.7569-2.0054-2.0966-2.0303-3.5495
			c-0.011-0.7237,0.0304-17.865,28.4514-30.2428c2.138-0.9392,4.6461,0.0456,5.5826,2.1946c0.9364,2.1491-0.047,4.6489-2.196,5.584
			c-11.7701,5.1268-17.6068,10.8019-20.5044,15.1608c17.43-4.9376,33.5368-0.3356,34.3268-0.1064
			c2.2485,0.6616,3.5357,3.0192,2.8755,5.2677c-0.6602,2.2457-2.9943,3.5412-5.2649,2.8755
			c-0.3646-0.1036-19.8166-5.5218-37.1554,3.004C121.6274,187.0228,120.9866,187.1678,120.3457,187.1678z"/>
	</g>
	<g>
		<path fill="#82361A" d="M83.4638,187.1678c-0.6408,0-1.2817-0.145-1.8728-0.4351c-17.5128-8.6142-36.9565-3.062-37.1526-3.004
			c-2.2402,0.6519-4.6047-0.6243-5.2677-2.8755c-0.6602-2.2485,0.627-4.6061,2.8755-5.2677
			c0.7873-0.2307,16.8941-4.8354,34.3379,0.1091c-2.8921-4.3478-8.7316-10.0298-20.5154-15.1635
			c-2.1491-0.935-3.1324-3.4349-2.196-5.584c0.9392-2.1477,3.4501-3.1283,5.5826-2.1946
			c28.4238,12.3778,28.4625,29.5204,28.4515,30.2442c-0.0249,1.453-0.79,2.7913-2.0303,3.5481
			C84.9996,186.9592,84.2317,187.1678,83.4638,187.1678z"/>
	</g>
	<g>
		<path fill="#37C3E0" d="M21.8191,178.2635c-0.9769-2.4092-0.9769-5.013,0.0052-7.3315c1.0384-2.4609,3.0431-4.3294,5.651-5.265
			c2.5492-0.9184,5.3839-0.8222,7.9653,0.2709c4.9783,2.1047,10.1326,12.6711,10.7067,13.8697l0.8329,1.7537l-1.8366,0.6153
			c-1.2546,0.4311-12.4284,4.1001-17.4067,2.0006C25.0382,183.0414,22.8813,180.882,21.8191,178.2635L21.8191,178.2635z"/>
		<path fill="#B5E2EA" d="M34.7707,167.5235c-4.5166-1.9087-9.6043-0.0828-11.3608,4.0788
			c-1.7617,4.1599,0.4778,9.077,4.9969,10.9909c4.5194,1.903,16.1841-2.0408,16.1841-2.0408S39.2925,169.4346,34.7707,167.5235z"/>
	</g>
	<g>
		<path fill="#37C3E0" d="M185.7285,178.2635c0.9769-2.4092,0.9769-5.013-0.0055-7.3315c-1.0381-2.4609-3.0428-4.3294-5.6507-5.265
			c-2.5494-0.9184-5.3815-0.8222-7.9653,0.2709c-4.9783,2.1047-10.1326,12.6711-10.7066,13.8697l-0.8329,1.7537l1.8366,0.6153
			c1.2546,0.4311,12.4284,4.1001,17.4067,2.0006C182.5119,183.0414,184.666,180.882,185.7285,178.2635L185.7285,178.2635z"/>
		<path fill="#B5E2EA" d="M172.7742,167.5235c4.5194-1.9087,9.607-0.0828,11.3635,4.0788c1.7617,4.1599-0.4778,9.077-4.9996,10.9909
			c-4.5166,1.903-16.1816-2.0408-16.1816-2.0408S168.2551,169.4346,172.7742,167.5235z"/>
	</g>
	<g>
		<g>
			<g>
				
					<linearGradient id="SVGID_4_" gradientUnits="userSpaceOnUse" x1="8988.7568" y1="-1546.5474" x2="9211.3584" y2="-1546.5474" gradientTransform="matrix(-0.9737 -0.2277 0.2277 -0.9737 9346.2178 684.1367)">
					<stop  offset="0.0057" style="stop-color:#010101"/>
					<stop  offset="0.0911" style="stop-color:#060606"/>
					<stop  offset="0.178" style="stop-color:#141414"/>
					<stop  offset="0.2657" style="stop-color:#252525"/>
					<stop  offset="0.354" style="stop-color:#3A3939"/>
					<stop  offset="0.4426" style="stop-color:#575456"/>
					<stop  offset="0.5316" style="stop-color:#7F7D81"/>
					<stop  offset="0.6193" style="stop-color:#B8B7BE"/>
					<stop  offset="0.6635" style="stop-color:#E0E1E9"/>
				</linearGradient>
				<path fill="url(#SVGID_4_)" d="M68.356,110.4961c-2.3704,10.09,12.2119,22.13,32.5442,26.8866
					c20.3563,4.758,38.7479,0.4286,41.1076-9.6723c0.6218-2.6186,2.8293-12.0906,3.446-14.7105
					c2.3518-10.0941-12.2174-22.1366-32.5524-26.8959c-20.3402-4.7555-38.7531-0.4231-41.1073,9.6748
					C71.1747,98.4014,68.9593,107.8655,68.356,110.4961z"/>
				
					<linearGradient id="SVGID_5_" gradientUnits="userSpaceOnUse" x1="9236.3672" y1="-1519.6395" x2="8973.1211" y2="-1519.6395" gradientTransform="matrix(-0.9737 -0.2277 0.2277 -0.9737 9348.7139 673.4531)">
					<stop  offset="0.3847" style="stop-color:#D6DDE3"/>
					<stop  offset="0.4147" style="stop-color:#B6BBC0"/>
					<stop  offset="0.4871" style="stop-color:#7E8082"/>
					<stop  offset="0.5604" style="stop-color:#565657"/>
					<stop  offset="0.633" style="stop-color:#3A3A3A"/>
					<stop  offset="0.7049" style="stop-color:#252525"/>
					<stop  offset="0.7758" style="stop-color:#141414"/>
					<stop  offset="0.8453" style="stop-color:#060606"/>
					<stop  offset="0.9119" style="stop-color:#010101"/>
				</linearGradient>
				<path fill="url(#SVGID_5_)" d="M106.0146,115.5277c16.3683,3.8251,31.1696,0.3403,33.0728-7.7811l12.1373-51.9047
					c1.8981-8.1283-9.8202-17.8216-26.194-21.6508c-16.3628-3.8237-31.1696-0.3378-33.0728,7.7849L79.8233,93.8862
					C77.9228,102.0103,89.6463,111.7013,106.0146,115.5277z"/>
				
					<radialGradient id="SVGID_6_" cx="209.8331" cy="1128.2225" r="161.0051" gradientTransform="matrix(0.9275 0.2169 -0.2169 0.9275 259.8562 -973.4019)" gradientUnits="userSpaceOnUse">
					<stop  offset="0.2153" style="stop-color:#010101"/>
					<stop  offset="0.2737" style="stop-color:#0F1010"/>
					<stop  offset="0.3802" style="stop-color:#2A2A2A"/>
					<stop  offset="0.5231" style="stop-color:#4F4F50"/>
					<stop  offset="0.6947" style="stop-color:#8E9093"/>
					<stop  offset="0.8202" style="stop-color:#CDD3D9"/>
				</radialGradient>
				<path fill="url(#SVGID_6_)" d="M147.1755,48.9909c0,0,1.8445-27.3579,28.4389-34.884
					c16.0318-4.5391-4.538-12.0545-15.0391-11.5368c-46.7449,2.2917-59.9956,35.3724-59.9956,35.3724
					C98.9598,48.6733,136.5197,62.3818,147.1755,48.9909z"/>
				<g>
					<path fill="#5E5F5F" d="M113.7397,140.7768L113.7397,140.7768c-4.3111-0.22-8.7474-0.8514-13.1864-1.8885
						c-10.0635-2.3584-19.0858-6.5292-25.4174-11.7596c-6.6279-5.475-9.5614-11.5089-8.2934-16.9877l3.4514-14.7132
						c0.9876-4.2389,4.4095-7.6622,9.9085-9.9246L90.4633,41.625c0.9662-4.1495,4.7941-7.3714,10.7785-9.1117
						c7.2284-11.2151,24.3309-29.6761,59.2482-31.4858c0.8222-0.0361,1.7004-0.0388,2.6213,0.0052
						c6.8362,0.3444,19.3419,3.5395,19.9236,8.6927c0.4272,3.7598-5.1729,5.3413-7.0016,5.8631
						c-17.1637,4.8556-24.1333,20.411-26.8372,29.8097c3.1204,3.6209,4.3376,7.3419,3.5261,10.7881l-10.2502,43.8768
						c3.9213,4.4658,5.4722,9.0502,4.4792,13.2905l-3.438,14.708C141.5166,136.5887,129.8248,141.5777,113.7397,140.7768z
						 M162.954,4.1156c-0.8036-0.0426-1.5777-0.044-2.3037-0.0093c-34.0552,1.7658-50.4074,19.8971-57.1233,30.5584
						c-0.2031,0.3269-0.5234,0.5658-0.9023,0.6686c-5.1787,1.3842-8.4297,3.8666-9.1691,6.9964L83.0184,86.986
						c-0.1173,0.5032-0.4778,0.9102-0.9529,1.0879c-3.4435,1.3131-7.7732,3.7718-8.7766,8.0534l-3.4329,14.7132
						c-1.0064,4.2802,1.5668,9.2224,7.2446,13.9096c5.9714,4.9343,14.5424,8.8848,24.1574,11.1352
						c4.2496,0.9955,8.5044,1.607,12.6364,1.8098c14.3049,0.7181,25.0009-3.4356,26.6106-10.3344l3.4514-14.7053
						c0.9982-4.2854-1.7832-8.4057-4.3029-11.1082c-0.3471-0.3791-0.4887-0.905-0.3633-1.4055l10.4371-44.6522
						c0.7741-3.306-1.3987-6.5265-3.3686-8.6501c-0.3685-0.3909-0.5018-0.9381-0.3578-1.4506
						c2.7014-9.9153,10.0793-27.3554,29.189-32.7672c4.0066-1.1374,4.8181-2.2518,4.781-2.544
						C179.7678,8.1864,171.2689,4.5295,162.954,4.1156z"/>
				</g>
				<g>
					<path fill="#5E5F5F" d="M117.749,124.3806c-3.9719-0.1963-8.4459-0.8115-13.4373-1.982
						c-1.3-0.2777-32.4964-7.1658-34.0579-26.4917c-0.064-0.8528,0.5634-1.599,1.4069-1.6695
						c0.8326-0.0615,1.596,0.5658,1.6603,1.4159c1.3853,17.0678,31.359,23.6689,31.658,23.7383
						c29.8483,6.9696,39.0761-7.0631,39.1642-7.2047c0.4538-0.7192,1.3987-0.9367,2.1195-0.4885
						c0.7153,0.4513,0.9449,1.388,0.5018,2.1088C146.4176,114.3666,139.2957,125.4589,117.749,124.3806z"/>
				</g>
				<g>
					<path fill="#5E5F5F" d="M129.139,63.3494c-3.1792-0.1602-6.7454-0.6486-10.7255-1.5856
						c-0.9742-0.1788-25.3505-5.0316-27.1469-21.6536c-0.0853-0.8463,0.5204-1.6056,1.3667-1.6922
						c0.8356-0.1003,1.6097,0.5139,1.6977,1.3599c1.5403,14.3595,24.4911,18.9309,24.7232,18.9735
						c23.6957,5.5417,30.7533-5.4586,30.8172-5.5695c0.4485-0.7274,1.399-0.9515,2.1249-0.5084
						c0.7205,0.4496,0.9501,1.4,0.5018,2.1247C152.2233,55.2452,146.4654,64.2156,129.139,63.3494z"/>
				</g>
			</g>
		</g>
		<path fill="#832D1A" d="M197.994,112.2151c-0.1389-12.1641,0.395-25.3078,0.1282-37.3558l-49.9003-8.7714
			c-2.0927-0.5259-6.0807-0.4218-10.397,5.4269c-2.5224,3.4233-4.7247,8.2133-6.2007,13.4906
			c-2.8643,10.3089-2.7388,22.3476,4.3349,24.7352c0,0,50.6422,18.0633,62.1631,22.1688
			C198.1061,125.3441,198.0686,118.7791,197.994,112.2151z"/>
		
			<radialGradient id="SVGID_7_" cx="240.5442" cy="1306.675" r="84.3439" gradientTransform="matrix(0.9132 0.2708 -0.2708 0.9132 314.5807 -1187.7268)" gradientUnits="userSpaceOnUse">
			<stop  offset="0.0054" style="stop-color:#BC5927"/>
			<stop  offset="0.215" style="stop-color:#B85627"/>
			<stop  offset="0.4682" style="stop-color:#AB4C24"/>
			<stop  offset="0.7428" style="stop-color:#963D20"/>
			<stop  offset="1" style="stop-color:#7E2B18"/>
		</radialGradient>
		<path fill="url(#SVGID_7_)" d="M147.3302,69.9185c-3.8062-1.0611-9.1344,6.1687-11.9156,16.1401
			c-2.7708,9.9779-1.9434,18.9188,1.8631,19.9783l60.8177,21.6938c-0.0107-2.3198,0-48.8753,0-48.8753
			S147.3302,69.9199,147.3302,69.9185z"/>
	</g>
</g>
</svg>
