<?xml version="1.0" encoding="utf-8"?>
<!-- Generator: Adobe Illustrator 17.0.0, SVG Export Plug-In . SVG Version: 6.00 Build 0)  -->
<!DOCTYPE svg PUBLIC "-//W3C//DTD SVG 1.1//EN" "http://www.w3.org/Graphics/SVG/1.1/DTD/svg11.dtd">
<svg version="1.1" id="Layer_1" xmlns="http://www.w3.org/2000/svg" xmlns:xlink="http://www.w3.org/1999/xlink" x="0px" y="0px"
	  viewBox="0 0 200 200" enable-background="new 0 0 200 200" xml:space="preserve">
<g>
	<g>
		<g>
			<g>
				<path fill="#E4A024" d="M98.0362,197.0376C44.5308,197.0376,1,153.5068,1,100S44.5308,2.9624,98.0362,2.9624
					c53.5082,0,97.0417,43.5308,97.0417,97.0376S151.5444,197.0376,98.0362,197.0376z"/>
				<path fill="#E4A024" d="M98.0362,195.675c-52.7577,0-95.6736-42.9201-95.6736-95.675S45.2786,4.325,98.0362,4.325
					S193.7153,47.2451,193.7153,100S150.7939,195.675,98.0362,195.675z"/>
				<radialGradient id="SVGID_1_" cx="101.7595" cy="-7.1891" r="200.1933" gradientUnits="userSpaceOnUse">
					<stop  offset="0" style="stop-color:#FFF7C2"/>
					<stop  offset="0.3321" style="stop-color:#FFEB8F"/>
					<stop  offset="1" style="stop-color:#FED01F"/>
				</radialGradient>
				<circle fill="url(#SVGID_1_)" cx="98.039" cy="100" r="90.226"/>
				<g>
					<defs>
						<circle id="SVGID_2_" cx="98.039" cy="100" r="90.226"/>
					</defs>
					<clipPath id="SVGID_3_">
						<use xlink:href="#SVGID_2_"  overflow="visible"/>
					</clipPath>
				</g>
			</g>
		</g>
	</g>
	<g>
		<path fill="#6D2F16" d="M119.7286,72.4889c-0.1943,0.0692-0.3965,0.1196-0.6069,0.1436
			c-1.4798,0.1785-2.8235-0.8688-3.0072-2.3472c-0.7053-5.6926,1.0699-17.5951,12.8541-21.8984
			c11.8719-4.3379,20.311,3.8174,23.1108,8.7369c0.7399,1.2975,0.2872,2.95-1.0113,3.6872
			c-1.2803,0.7399-2.9489,0.2875-3.6861-1.0138c-0.2395-0.4071-6.0491-10.169-16.5584-6.33
			c-10.6505,3.8896-9.3999,15.6618-9.3386,16.1622C121.6313,70.8987,120.8781,72.0684,119.7286,72.4889z"/>
		
			<radialGradient id="SVGID_4_" cx="-46.9433" cy="-302.5791" r="32.1677" gradientTransform="matrix(0.9821 -0.0884 0.0884 0.9821 125.2647 415.2608)" gradientUnits="userSpaceOnUse">
			<stop  offset="0" style="stop-color:#F15860;stop-opacity:0.5"/>
			<stop  offset="0.1648" style="stop-color:#F26262;stop-opacity:0.4246"/>
			<stop  offset="0.4393" style="stop-color:#F57B68;stop-opacity:0.2991"/>
			<stop  offset="0.6559" style="stop-color:#F7946D;stop-opacity:0.2"/>
			<stop  offset="0.7133" style="stop-color:#F89E67;stop-opacity:0.165"/>
			<stop  offset="0.8113" style="stop-color:#FAB955;stop-opacity:0.1053"/>
			<stop  offset="0.9371" style="stop-color:#FEE53A;stop-opacity:0.0285"/>
			<stop  offset="0.9839" style="stop-color:#FFF72E;stop-opacity:0"/>
		</radialGradient>
		<path fill="url(#SVGID_4_)" d="M84.006,119.4035c1.5727,17.4501-11.2999,32.8658-28.7527,34.4361
			c-17.4422,1.57-32.859-11.2999-34.432-28.75c-1.5675-17.449,11.3078-32.8645,28.7476-34.4333
			C67.0268,89.086,82.4384,101.9561,84.006,119.4035z"/>
		
			<radialGradient id="SVGID_5_" cx="117.865" cy="102.3993" r="30.536" gradientTransform="matrix(0.9861 0 0 0.9861 41.7287 -5.1415)" gradientUnits="userSpaceOnUse">
			<stop  offset="0" style="stop-color:#F15860;stop-opacity:0.5"/>
			<stop  offset="0.1648" style="stop-color:#F26262;stop-opacity:0.4246"/>
			<stop  offset="0.4393" style="stop-color:#F57B68;stop-opacity:0.2991"/>
			<stop  offset="0.6559" style="stop-color:#F7946D;stop-opacity:0.2"/>
			<stop  offset="0.7133" style="stop-color:#F89E67;stop-opacity:0.165"/>
			<stop  offset="0.8113" style="stop-color:#FAB955;stop-opacity:0.1053"/>
			<stop  offset="0.9371" style="stop-color:#FEE53A;stop-opacity:0.0285"/>
			<stop  offset="0.9839" style="stop-color:#FFF72E;stop-opacity:0"/>
		</radialGradient>
		<path fill="url(#SVGID_5_)" d="M188.068,95.8338c0,16.6317-13.482,30.1112-30.1126,30.1112
			c-16.6252,0-30.1126-13.4795-30.1126-30.1112c0-16.6304,13.4874-30.1099,30.1126-30.1099
			C174.586,65.7239,188.068,79.2034,188.068,95.8338z"/>
		<g>
			<path fill="#FFFFFF" d="M92.0564,81.4454c1.195,13.2015-7.3372,24.7647-19.0416,25.8185
				c-11.6937,1.0514-22.1526-8.8047-23.3397-22.0049c-1.1868-13.2119,7.34-24.7726,19.0389-25.8251
				C80.4185,58.3812,90.872,68.2349,92.0564,81.4454z"/>
			<path fill="#AA5B26" d="M73.5577,113.2479c-14.6053,1.3149-27.7041-11.0309-29.189-27.519
				c-1.477-16.4816,9.2026-30.9656,23.8079-32.2788c14.6053-1.3135,27.6962,11.0296,29.1838,27.5125
				C98.8399,97.4506,88.1629,111.9346,73.5577,113.2479z"/>
			<path fill="#FFFFFF" d="M49.6751,85.2525c-1.1868-13.2054,7.3345-24.7661,19.0389-25.8185
				c11.6992-1.0527,22.1581,8.8009,23.3424,22.0063c1.195,13.2067-7.3427,24.7713-19.0416,25.8237
				C61.3157,108.3153,50.8622,98.4592,49.6751,85.2525z"/>
		</g>
		<g>
			<path fill="#6D2F16" d="M95.9444,81.6983c0.623,6.9075-4.4682,13.0124-11.3822,13.6351s-13.0244-4.4764-13.6419-11.3836
				c-0.62-6.9129,4.4791-13.0179,11.3904-13.6406C89.2274,69.6879,95.3217,74.7856,95.9444,81.6983z"/>
		</g>
	</g>
	<g>
		<path fill="#DC0303" d="M152.6195,121.5752c-0.3458-0.1638-0.6306-0.4431-0.8091-0.8116l1.6234-0.9143l-1.6498,0.8451
			c-1.9215-4.0185-11.5261-24.4881-12.3965-33.2198c-1.1203-11.1495,3.3266-17.5087,7.2495-20.8833
			c4.8914-4.182,10.9538-5.18,16.2314-2.6786c0.3273,0.1545,0.6412,0.3221,0.9606,0.5031
			c4.8756,2.7478,7.9226,7.3359,9.2719,13.9785c5.9935-3.159,11.4757-3.7046,16.6971-1.6754
			c0.3434,0.1333,0.6707,0.2755,0.9901,0.4273c5.28,2.5069,8.3483,7.8294,8.2074,14.2393
			c-0.1224,5.1854-2.2248,12.6677-11.5874,18.8552c-6.9884,4.62-27.3686,9.8869-33.4526,11.3918l-0.1916,0.0466
			C153.3645,121.7815,152.9656,121.739,152.6195,121.5752z"/>
		
			<radialGradient id="SVGID_6_" cx="265.4281" cy="527.1377" r="28.0816" gradientTransform="matrix(0.9956 0.0941 -0.0941 0.9956 -46.1256 -456.4072)" gradientUnits="userSpaceOnUse">
			<stop  offset="0" style="stop-color:#FF6B7C;stop-opacity:0.5"/>
			<stop  offset="0.2193" style="stop-color:#FD6174;stop-opacity:0.5"/>
			<stop  offset="0.592" style="stop-color:#F6465E;stop-opacity:0.5"/>
			<stop  offset="0.9516" style="stop-color:#EE2644;stop-opacity:0.5"/>
		</radialGradient>
		<path fill="url(#SVGID_6_)" d="M197.191,91.4454c0.1278-5.7166-2.648-10.8328-8.0957-12.9566
			c-5.6419-2.1891-11.3691-0.9277-17.3678,2.7876c-0.9102-6.9753-3.558-12.2194-8.8249-15.1934
			c-5.083-2.8835-10.8154-1.7844-15.1639,1.94c-4.3911,3.7697-7.4809,9.9774-6.5549,19.1547
			c0.8917,9.0285,11.8986,31.9316,12.2499,32.6715c0.7985-0.2009,25.5114-6.1902,33.0748-11.1868
			C194.1944,103.5781,197.058,97.2375,197.191,91.4454z"/>
	</g>
	<path fill="#A04E17" d="M135.2997,122.1674c2.3393-2.0305,3.827-5.0165,3.827-8.3472c0-6.1036-4.9658-11.0669-11.071-11.0669
		c-1.2879,0-2.3311,1.0418-2.3311,2.3287c0,1.2866,1.0432,2.3297,2.3311,2.3297c3.5343,0,6.4112,2.8742,6.4112,6.4085
		c0,3.5343-2.877,6.4071-6.4112,6.4071c-1.2879,0-2.3311,1.0446-2.3311,2.33c0,1.2866,1.0432,2.3298,2.3311,2.3298
		c5.4983,0,9.9692,4.475,9.9692,9.976c0,5.4983-4.4709,9.972-9.9692,9.972c-1.2879,0-2.3311,1.0432-2.3311,2.3297
		c0,1.2882,1.0432,2.33,2.3311,2.33c8.0638,0,14.632-6.5641,14.632-14.6317C142.6876,129.4313,139.7068,124.6917,135.2997,122.1674z
		"/>
	<g>
		<path fill="#823308" d="M34.7167,52.1475c-0.1022,0-0.2044-0.0069-0.3094-0.018c-1.5496-0.1685-2.6711-1.5579-2.5054-3.1076
			c0.0276-0.2638,3.1186-26.3756,30.0121-30.0895c1.5358-0.2279,2.975,0.8687,3.1877,2.4156
			c0.2155,1.5469-0.8674,2.975-2.4142,3.189c-22.4463,3.0993-25.0621,24.1948-25.1616,25.0911
			C37.3629,51.0744,36.1392,52.1475,34.7167,52.1475z"/>
	</g>
	<g>
		<path fill="#823308" d="M151.8925,40.2062c-1.0883,0-2.1242-0.6298-2.591-1.6878c-0.3287-0.7251-8.3062-17.8664-29.4542-10.8419
			c-1.4833,0.4972-3.0855-0.308-3.5771-1.7913c-0.4917-1.482,0.3094-3.0841,1.7927-3.5758
			c26.0925-8.6832,36.3129,13.6968,36.4151,13.9246c0.6298,1.4295-0.0166,3.0993-1.4474,3.7305
			C152.6604,40.1275,152.2737,40.2062,151.8925,40.2062z"/>
	</g>
	<g>
		<g>
			<path fill="#FF6969" d="M34.7139,131.6956c-0.4723,0-0.9475-0.1561-1.3425-0.4779c-0.906-0.7417-1.0414-2.0772-0.3011-2.9846
				l12.5766-15.4052c0.743-0.9102,2.0772-1.04,2.986-0.3025c0.906,0.7417,1.0414,2.0772,0.3011,2.9846l-12.5766,15.4052
				C35.9376,131.429,35.3271,131.6956,34.7139,131.6956z"/>
		</g>
		<g>
			<path fill="#FF6969" d="M47.2602,132.0712c-0.4723,0-0.9475-0.1561-1.3425-0.4779c-0.906-0.7417-1.0414-2.0786-0.3011-2.986
				l12.5794-15.4038c0.7431-0.906,2.0772-1.0414,2.986-0.3011c0.906,0.7417,1.0414,2.0786,0.3011,2.986l-12.5794,15.4038
				C48.4839,131.8047,47.8734,132.0712,47.2602,132.0712z"/>
		</g>
	</g>
</g>
</svg>
