<?xml version="1.0" encoding="utf-8"?>
<!-- Generator: Adobe Illustrator 17.0.0, SVG Export Plug-In . SVG Version: 6.00 Build 0)  -->
<!DOCTYPE svg PUBLIC "-//W3C//DTD SVG 1.1//EN" "http://www.w3.org/Graphics/SVG/1.1/DTD/svg11.dtd">
<svg version="1.1" id="Layer_1" xmlns="http://www.w3.org/2000/svg" xmlns:xlink="http://www.w3.org/1999/xlink" x="0px" y="0px"
	  viewBox="0 0 200 200" enable-background="new 0 0 200 200" xml:space="preserve">
<g>
	<g>
		<g>
			<g>
				<path fill="#E4A024" d="M99.9972,198.9987C45.408,198.9987,1,154.588,1,99.9999C1,45.412,45.408,1.0013,99.9972,1.0013
					C154.5867,1.0013,199,45.412,199,99.9999C199,154.588,154.5867,198.9987,99.9972,198.9987z"/>
				<path fill="#E4A024" d="M99.9972,197.6086c-53.8236,0-97.6071-43.7877-97.6071-97.6088S46.1737,2.3914,99.9972,2.3914
					c53.8238,0,97.6127,43.7874,97.6127,97.6085S153.8211,197.6086,99.9972,197.6086z"/>
				<radialGradient id="SVGID_1_" cx="103.7957" cy="-9.3554" r="204.2393" gradientUnits="userSpaceOnUse">
					<stop  offset="0" style="stop-color:#FFF7C2"/>
					<stop  offset="0.3321" style="stop-color:#FFEB8F"/>
					<stop  offset="1" style="stop-color:#FED01F"/>
				</radialGradient>
				<path fill="url(#SVGID_1_)" d="M192.0494,99.9999c0,50.8373-41.2177,92.0483-92.0522,92.0483
					c-50.837,0-92.0466-41.211-92.0466-92.0483c0-50.837,41.2096-92.048,92.0466-92.048
					C150.8317,7.9519,192.0494,49.1628,192.0494,99.9999z"/>
				<g>
					<defs>
						<path id="SVGID_2_" d="M192.0494,99.9999c0,50.8373-41.2177,92.0483-92.0522,92.0483
							c-50.837,0-92.0466-41.211-92.0466-92.0483c0-50.837,41.2096-92.048,92.0466-92.048
							C150.8317,7.9519,192.0494,49.1628,192.0494,99.9999z"/>
					</defs>
					<clipPath id="SVGID_3_">
						<use xlink:href="#SVGID_2_"  overflow="visible"/>
					</clipPath>
				</g>
			</g>
		</g>
	</g>
	<path fill="#FFFFFF" d="M155.5587,103.8419c1.2925,15.142-9.0466,30.9967-23.0944,32.3298
		c-14.0424,1.3359-24.0232-12.3496-25.3099-27.4944c-1.287-15.1459,3.9638-25.5121,18.0199-25.0016
		C139.2898,84.1872,154.2717,88.6929,155.5587,103.8419z"/>
	<path fill="#AA5B26" d="M130.189,141.2664c-15.104,0-28.0007-14.303-28.0007-32.1735c0-23.7816,15.142-35.4225,15.142-35.4225
		c16.171,16.9856,38.3804,14.6399,39.2873,14.6399c1.9601,0,3.8064,10.9647,3.9096,15.1078
		c0.5377,21.9175-10.8549,36.1298-27.5934,37.7179C132.0137,141.2231,131.0959,141.2664,130.189,141.2664z"/>
	<path fill="#FFFFFF" d="M107.1569,108.672c-1.2895-15.1406,11.6451-33.9142,14.8434-31.6878
		c15.1393,10.5413,29.6268,9.5232,30.8432,13.7383c7.7002,26.7301-6.2664,45.4492-20.3792,45.4492
		C115.7504,136.1717,108.4411,123.8221,107.1569,108.672z"/>
	<g>
		<defs>
			<path id="SVGID_4_" d="M107.1569,108.672c-1.2895-15.1406,6.5733-28.5056,20.6158-29.8415
				c14.0641-1.3345,26.499,9.8624,27.786,25.0086c1.2925,15.1448-9.0466,30.9994-23.0944,32.3326
				C118.4219,137.5076,108.4411,123.8221,107.1569,108.672z"/>
		</defs>
		<clipPath id="SVGID_5_">
			<use xlink:href="#SVGID_4_"  overflow="visible"/>
		</clipPath>
	</g>
	<g>
		<defs>
			<path id="SVGID_6_" d="M107.1569,108.672c-1.0779-12.6279,3.4564-24.023,13.9718-28.2286
				c2.0907-0.8377,4.3172-1.3915,6.644-1.6128c7.0321-0.6667,13.6568,1.7988,18.6852,6.3234
				c5.0284,4.5273,8.4547,11.1129,9.1008,18.6852c1.2925,15.1448-9.0466,30.9994-23.0944,32.3326
				C118.4219,137.5076,108.4411,123.8221,107.1569,108.672z"/>
		</defs>
		<clipPath id="SVGID_7_">
			<use xlink:href="#SVGID_6_"  overflow="visible"/>
		</clipPath>
	</g>
	<g>
		<path fill="#823308" d="M155.787,92.2982c-33.3324,0-47.8979-25.6671-48.5111-26.7817c-0.7541-1.3659-0.2597-3.0813,1.1049-3.8382
			c1.3673-0.7569,3.0855-0.2652,3.8423,1.098c0.5552,0.993,13.6567,23.8647,43.5804,23.8647c0.6132,0,1.2265-0.0097,1.8507-0.029
			c1.5717-0.0815,2.8645,1.1781,2.917,2.7388c0.047,1.5621-1.1795,2.8672-2.7402,2.9156
			C157.1432,92.2872,156.4582,92.2982,155.787,92.2982z"/>
	</g>
	<path fill="none" d="M107.1569,108.672c-1.2895-15.1406,11.3681-33.4524,14.8434-31.6878
		c13.5373,6.8856,29.6268,9.5232,30.8432,13.7383c7.7002,26.7301-6.2664,45.4492-20.3792,45.4492
		C115.7504,136.1717,108.4411,123.8221,107.1569,108.672z"/>
	<path fill="#FFFFFF" d="M30.0052,102.2507c-1.2517,14.6466,8.7508,29.9841,22.3398,31.2736
		c13.5834,1.2925,23.2384-11.9461,24.482-26.5969c1.2461-14.6519-3.8312-24.6785-17.431-24.1859
		C45.7419,83.2369,31.2488,87.5961,30.0052,102.2507z"/>
	<path fill="#AA5B26" d="M54.5441,138.4537c14.6127,0,27.0885-13.8362,27.0885-31.1243c0-23.0048-14.648-34.2657-14.648-34.2657
		C51.3377,89.4953,29.8586,87.2255,28.979,87.2255c-1.8953,0-3.6844,10.6066-3.7822,14.6155
		c-0.5185,21.2019,10.5021,34.9499,26.692,36.4865C52.7767,138.4117,53.6698,138.4537,54.5441,138.4537z"/>
	<path fill="#FFFFFF" d="M76.8242,106.9221c1.2489-14.6466-11.2622-32.8063-14.3575-30.6533
		C47.819,86.4668,33.8063,85.4812,32.6308,89.5592c-7.4474,25.8571,6.0601,43.9651,19.7141,43.9651
		C68.5104,133.5243,75.5834,121.5782,76.8242,106.9221z"/>
	<g>
		<defs>
			<path id="SVGID_8_" d="M76.8242,106.9221c1.2489-14.6466-6.3587-27.5744-19.9396-28.8667
				c-13.6079-1.2911-25.6358,9.5407-26.8794,24.1926c-1.2517,14.6494,8.7508,29.9869,22.3398,31.2763
				C65.9284,134.8168,75.5834,121.5782,76.8242,106.9221z"/>
		</defs>
		<clipPath id="SVGID_9_">
			<use xlink:href="#SVGID_8_"  overflow="visible"/>
		</clipPath>
	</g>
	<g>
		<defs>
			<path id="SVGID_10_" d="M76.8242,106.9221c1.0426-12.2153-3.3424-23.2384-13.5159-27.307
				c-2.0198-0.8104-4.1756-1.3454-6.4238-1.5597c-6.8041-0.645-13.2117,1.7404-18.0771,6.1171
				c-4.8654,4.3794-8.1803,10.7504-8.8022,18.0755c-1.2517,14.6494,8.7508,29.9869,22.3398,31.2763
				C65.9284,134.8168,75.5834,121.5782,76.8242,106.9221z"/>
		</defs>
		<clipPath id="SVGID_11_">
			<use xlink:href="#SVGID_10_"  overflow="visible"/>
		</clipPath>
	</g>
	<g>
		<path fill="#823308" d="M29.7857,91.1754c-0.6547,0-1.3148-0.0097-1.9833-0.0304c-1.5607-0.0483-2.7871-1.3535-2.7402-2.9156
			c0.0497-1.5607,1.3038-2.8341,2.917-2.7388C58.1709,86.438,71.3,63.4573,71.8469,62.4794
			c0.7541-1.3618,2.4805-1.8535,3.8423-1.098c1.3646,0.7569,1.859,2.4722,1.1049,3.8382
			C76.1975,66.2997,62.0795,91.1754,29.7857,91.1754z"/>
	</g>
	<path fill="none" d="M76.8242,106.9221c1.2489-14.6466-10.9961-32.3598-14.3575-30.6533
		c-13.0947,6.6615-28.6604,9.2123-29.8359,13.2904c-7.4474,25.8571,6.0601,43.9651,19.7141,43.9651
		C68.5104,133.5243,75.5834,121.5782,76.8242,106.9221z"/>
	<g>
		<path fill="#A04E17" d="M105.2374,158.5262c0,0-11.729-11.121-15.6389-11.121c-3.9096,0-15.6416,11.121-15.6416,11.121
			c-1.1566,0-2.1964-0.7209-2.5981-1.8083c-0.4101-1.0874-0.0979-2.3132,0.779-3.0733l15.6389-13.5537
			c1.0454-0.9041,2.5956-0.9041,3.641,0l15.6416,13.5537c0.8769,0.7601,1.1891,1.9859,0.7818,3.0733
			C107.4366,157.8053,106.3968,158.5262,105.2374,158.5262z"/>
	</g>
	<path fill="#6D2F16" d="M75.6064,114.3141c-2.649-5.8165-8.4995-9.8681-15.3058-9.8681c-9.2951,0-16.8236,7.5327-16.8236,16.8252
		c0,4.5237,1.7941,8.6223,4.6973,11.6463c1.3756,0.3701,2.7706,0.6068,4.171,0.6068
		C65.6801,133.5243,72.8165,125.3875,75.6064,114.3141z"/>
	<path fill="#6D2F16" d="M125.3025,104.8396c-7.8601,0-14.4964,5.2166-16.651,12.3741
		c3.0413,10.9849,10.3889,18.9578,23.8136,18.9578c1.3148,0,2.6214-0.2142,3.9169-0.5307
		c3.8561-3.1906,6.3132-8.0118,6.3132-13.4072C142.6952,112.6277,134.9083,104.8396,125.3025,104.8396z"/>
</g>
</svg>
