<?xml version="1.0" encoding="utf-8"?>
<!-- Generator: Adobe Illustrator 17.0.0, SVG Export Plug-In . SVG Version: 6.00 Build 0)  -->
<!DOCTYPE svg PUBLIC "-//W3C//DTD SVG 1.1//EN" "http://www.w3.org/Graphics/SVG/1.1/DTD/svg11.dtd">
<svg version="1.1" id="Layer_1" xmlns="http://www.w3.org/2000/svg" xmlns:xlink="http://www.w3.org/1999/xlink" x="0px" y="0px" viewBox="0 0 200 200" enable-background="new 0 0 200 200" xml:space="preserve">
<g>
	<g>
		<g>
			<g>
				<path fill="#E4A024" d="M99.9972,198.9986C45.4108,198.9986,1,154.5881,1,100S45.4108,1.0014,99.9972,1.0014
					C154.5867,1.0014,199,45.4119,199,100S154.5867,198.9986,99.9972,198.9986z"/>
				<path fill="#E4A024" d="M99.9972,197.6085c-53.8236,0-97.6071-43.7874-97.6071-97.6085S46.1737,2.3915,99.9972,2.3915
					c53.8238,0,97.6127,43.7874,97.6127,97.6085S153.8211,197.6085,99.9972,197.6085z"/>
				<radialGradient id="SVGID_1_" cx="103.7957" cy="-9.3552" r="204.239" gradientUnits="userSpaceOnUse">
					<stop  offset="0" style="stop-color:#FFF7C2"/>
					<stop  offset="0.3321" style="stop-color:#FFEB8F"/>
					<stop  offset="1" style="stop-color:#FED01F"/>
				</radialGradient>
				<path fill="url(#SVGID_1_)" d="M192.0494,100c0,50.837-41.2177,92.048-92.0522,92.048c-50.8342,0-92.0466-41.211-92.0466-92.048
					c0-50.8373,41.2124-92.048,92.0466-92.048C150.8317,7.952,192.0494,49.1627,192.0494,100z"/>
				<g>
					<defs>
						<path id="SVGID_2_" d="M192.0494,100c0,50.837-41.2177,92.048-92.0522,92.048c-50.8342,0-92.0466-41.211-92.0466-92.048
							c0-50.8373,41.2124-92.048,92.0466-92.048C150.8317,7.952,192.0494,49.1627,192.0494,100z"/>
					</defs>
					<clipPath id="SVGID_3_">
						<use xlink:href="#SVGID_2_"  overflow="visible"/>
					</clipPath>
				</g>
			</g>
		</g>
	</g>
	<g>
		<g>
			<radialGradient id="SVGID_4_" cx="38.6772" cy="106.0729" r="30.7262" gradientUnits="userSpaceOnUse">
				<stop  offset="0" style="stop-color:#F15860;stop-opacity:0.5"/>
				<stop  offset="0.1648" style="stop-color:#F26262;stop-opacity:0.4246"/>
				<stop  offset="0.4393" style="stop-color:#F57B68;stop-opacity:0.2991"/>
				<stop  offset="0.6559" style="stop-color:#F7946D;stop-opacity:0.2"/>
				<stop  offset="0.7133" style="stop-color:#F89E67;stop-opacity:0.165"/>
				<stop  offset="0.8113" style="stop-color:#FAB955;stop-opacity:0.1053"/>
				<stop  offset="0.9371" style="stop-color:#FEE53A;stop-opacity:0.0285"/>
				<stop  offset="0.9839" style="stop-color:#FFF72E;stop-opacity:0"/>
			</radialGradient>
			<path fill="url(#SVGID_4_)" d="M69.4037,106.0709c0,16.972-13.7544,30.7278-30.7292,30.7278
				c-16.9611,0-30.7239-13.7558-30.7239-30.7278c0-16.9692,13.7628-30.7239,30.7239-30.7239
				C55.6493,75.347,69.4037,89.1017,69.4037,106.0709z"/>
			<radialGradient id="SVGID_5_" cx="161.3228" cy="106.0729" r="30.7262" gradientUnits="userSpaceOnUse">
				<stop  offset="0" style="stop-color:#F15860;stop-opacity:0.5"/>
				<stop  offset="0.1648" style="stop-color:#F26262;stop-opacity:0.4246"/>
				<stop  offset="0.4393" style="stop-color:#F57B68;stop-opacity:0.2991"/>
				<stop  offset="0.6559" style="stop-color:#F7946D;stop-opacity:0.2"/>
				<stop  offset="0.7133" style="stop-color:#F89E67;stop-opacity:0.165"/>
				<stop  offset="0.8113" style="stop-color:#FAB955;stop-opacity:0.1053"/>
				<stop  offset="0.9371" style="stop-color:#FEE53A;stop-opacity:0.0285"/>
				<stop  offset="0.9839" style="stop-color:#FFF72E;stop-opacity:0"/>
			</radialGradient>
			<circle fill="url(#SVGID_5_)" cx="161.3228" cy="106.0709" r="30.7265"/>
		</g>
		<g>
			<g>
				<path fill="#FF6969" d="M17.9036,116.2847c-0.4723,0-0.9474-0.1561-1.3424-0.4779c-0.906-0.7417-1.0414-2.0772-0.3011-2.9846
					l12.8306-15.7158c0.743-0.9102,2.0772-1.0414,2.986-0.3025c0.906,0.7417,1.0414,2.0772,0.3011,2.9846l-12.8306,15.7158
					C19.1273,116.0182,18.5168,116.2847,17.9036,116.2847z"/>
			</g>
			<g>
				<path fill="#FF6969" d="M30.7066,116.6687c-0.4723,0-0.9474-0.1561-1.3424-0.4779c-0.906-0.7417-1.0414-2.0772-0.3011-2.9846
					l12.8306-15.7158c0.743-0.9102,2.0772-1.0414,2.986-0.3025c0.906,0.7417,1.0414,2.0772,0.3011,2.9846l-12.8306,15.7158
					C31.9302,116.4021,31.3198,116.6687,30.7066,116.6687z"/>
			</g>
		</g>
		<g>
			<g>
				<path fill="#FF6969" d="M154.0681,116.2847c-0.4723,0-0.9474-0.1561-1.3424-0.4779c-0.906-0.7417-1.0414-2.0772-0.3011-2.9846
					l12.8306-15.7158c0.743-0.9102,2.0772-1.0414,2.986-0.3025c0.906,0.7417,1.0414,2.0772,0.3011,2.9846l-12.8306,15.7158
					C155.2918,116.0182,154.6813,116.2847,154.0681,116.2847z"/>
			</g>
			<g>
				<path fill="#FF6969" d="M166.8711,116.6687c-0.4724,0-0.9474-0.1561-1.3425-0.4779c-0.906-0.7417-1.0414-2.0772-0.3011-2.9846
					l12.8306-15.7158c0.743-0.9102,2.0772-1.0414,2.986-0.3025c0.906,0.7417,1.0414,2.0772,0.3011,2.9846l-12.8306,15.7158
					C168.0947,116.4021,167.4843,116.6687,166.8711,116.6687z"/>
			</g>
		</g>
	</g>
	<circle fill="#6D2F16" cx="61.0495" cy="87.6435" r="9.7744"/>
	<circle fill="#6D2F16" cx="138.9778" cy="87.6435" r="9.7744"/>
	<g>
		<path fill="#823308" d="M72.0821,40.1381c-0.0856,0-0.1713-0.0041-0.2597-0.011c-1.5524-0.1423-2.6987-1.5151-2.5606-3.0688
			c0.1547-1.8217-0.0221-7.1652-2.6628-10.0435c-1.3397-1.4585-3.1849-2.167-5.6405-2.167c-9.5739,0-9.6844,11.9536-9.6844,12.4618
			c0,1.562-1.2651,2.8285-2.8285,2.8285s-2.8285-1.2665-2.8285-2.8285c0-6.2675,3.207-18.1189,15.3415-18.1189
			c4.0854,0,7.3918,1.3535,9.8308,4.0232c4.8643,5.3284,4.1406,13.9852,4.1074,14.3512
			C74.7615,39.0346,73.5295,40.1381,72.0821,40.1381z"/>
	</g>
	<g>
		<path fill="#823308" d="M151.5931,38.3496c-0.0856,0-0.1713-0.0041-0.2597-0.0111c-1.5524-0.1423-2.6987-1.5151-2.5606-3.0688
			c0.1547-1.8217-0.0221-7.1666-2.6628-10.0449c-1.3397-1.4585-3.1849-2.167-5.6405-2.167c-9.5076,0-9.6816,11.9619-9.6844,12.4701
			c-0.0083,1.5565-1.2734,2.8175-2.8285,2.8175h-0.0083c-1.5579-0.0041-2.8202-1.2651-2.8202-2.8244
			c0-6.2675,3.207-18.1203,15.3415-18.1203c4.0854,0,7.3918,1.3535,9.828,4.0232c4.8671,5.3297,4.1434,13.9866,4.1102,14.3526
			C154.2725,37.2461,153.0406,38.3496,151.5931,38.3496z"/>
	</g>
	<g>
		<linearGradient id="SVGID_6_" gradientUnits="userSpaceOnUse" x1="108.1955" y1="178.5441" x2="115.6249" y2="81.6653">
			<stop  offset="0" style="stop-color:#FFB18E"/>
			<stop  offset="1" style="stop-color:#FF6659"/>
		</linearGradient>
		<path fill="url(#SVGID_6_)" d="M92.8539,143.6381c0,0-0.2252-8.0135,6.8202-24.8565c6.9209-16.5405,27.9492-17.3412,30.732,0
			c1.8111,11.3028-9.8257,24.8565-9.8257,24.8565"/>
		<g>
			<path fill="#FF6969" d="M120.5815,145.7592c-0.4889,0-0.9806-0.1685-1.3811-0.511c-0.8894-0.7624-0.9916-2.1021-0.2293-2.9915
				c0.1105-0.1284,10.9716-12.9521,9.3419-23.1393c-1.0027-6.2454-4.6627-10.1954-10.0435-10.8363
				c-5.4361-0.6519-12.9936,2.6158-16.6397,11.3197c-6.7205,16.0679-6.657,23.9099-6.6542,23.9873
				c0.0221,1.167-0.9033,2.138-2.0717,2.1656c-1.2706-0.0014-2.138-0.8894-2.1711-2.0565
				c-0.0083-0.3453-0.1574-8.6665,6.9857-25.7344c3.8506-9.1983,12.5074-14.8912,21.0538-13.8954
				c7.2896,0.8687,12.4218,6.244,13.7283,14.3774c1.9446,12.1359-9.8087,25.9913-10.3087,26.5755
				C121.772,145.5078,121.1781,145.7592,120.5815,145.7592z"/>
		</g>
	</g>
	<g>
		<path fill="#EA5757" d="M107.5277,142.0046c-0.2471,0.046-0.5016,0.0673-0.756,0.0592c-1.1224-0.0372-1.7928-0.635-1.4989-1.3358
			l6.8645-16.3914c0.2965-0.7013,1.4415-1.237,2.5607-1.2017c1.1224,0.0371,1.7928,0.635,1.4989,1.3358l-6.8645,16.3914
			C109.1045,141.404,108.3668,141.8484,107.5277,142.0046z"/>
	</g>
	<g>
		<path fill="#A04E17" d="M113.3941,146.853c-1.1325,0-1.8535-0.0428-1.9805-0.0511l-24.7027,0.0055
			c-24.2718,0-25.4402-16.9146-25.4513-17.0858c-0.0801-1.5593,1.1187-2.8907,2.6766-2.9722
			c1.6049-0.0787,2.8783,1.1035,2.9722,2.6531c0.0414,0.5483,1.1408,11.7478,19.8025,11.7478h24.8878
			c0.3066,0.0138,12.8555,0.7375,18.6727-4.7276c1.8949-1.7789,2.8147-4.0191,2.8147-6.849c0-1.562,1.2651-2.8285,2.8285-2.8285
			s2.8285,1.2665,2.8285,2.8285c0,4.421-1.5524,8.1168-4.6129,10.984C128.0892,146.2191,117.7281,146.853,113.3941,146.853z"/>
	</g>
</g>
</svg>
