<?xml version="1.0" encoding="utf-8"?>
<!-- Generator: Adobe Illustrator 17.0.0, SVG Export Plug-In . SVG Version: 6.00 Build 0)  -->
<!DOCTYPE svg PUBLIC "-//W3C//DTD SVG 1.1//EN" "http://www.w3.org/Graphics/SVG/1.1/DTD/svg11.dtd">
<svg version="1.1" id="Layer_1" xmlns="http://www.w3.org/2000/svg" xmlns:xlink="http://www.w3.org/1999/xlink" x="0px" y="0px"
	  viewBox="0 0 200 200" enable-background="new 0 0 200 200" xml:space="preserve">
<g>
	<path fill="#E4A024" d="M64.9446,199c-4.9889,0-9.6212-1.9874-13.0438-5.5963c-3.729-3.9456-5.8127-9.4281-6.3541-16.7474
		C19.3723,158.6738,3.7669,129.0571,3.7669,97.2958C3.7669,44.1982,46.9648,1,100.0611,1c53.099,0,96.2996,43.1982,96.2996,96.2958
		c0,53.0974-43.2006,96.2955-96.2996,96.2955c-7.1676,0-14.343-0.8083-21.3547-2.402c-0.219,0.3394-0.4489,0.6642-0.6812,0.9784
		C74.79,196.5096,70.023,199,64.9446,199z"/>
	<path fill="#E4A024" d="M64.9446,197.6478c-4.6139,0-8.8975-1.8381-12.0613-5.175c-3.6022-3.8082-5.5882-9.2448-6.032-16.5627
		C20.6636,158.1787,5.1191,129.0043,5.1191,97.2958c0-52.3515,42.5905-94.9436,94.942-94.9436
		c52.3542,0,94.9474,42.5921,94.9474,94.9436s-42.5932,94.9434-94.9474,94.9434c-7.4026,0-14.7786-0.8689-21.9938-2.587
		c-0.354,0.6087-0.7315,1.1767-1.1277,1.7089C73.9632,195.3567,69.5898,197.6478,64.9446,197.6478z"/>
	
		<radialGradient id="SVGID_1_" cx="-77.644" cy="-70.1273" r="293.5686" gradientTransform="matrix(0.9306 0 0 0.9306 163.7114 -2.9953)" gradientUnits="userSpaceOnUse">
		<stop  offset="0" style="stop-color:#FFF7C2"/>
		<stop  offset="0.3321" style="stop-color:#FFEB8F"/>
		<stop  offset="1" style="stop-color:#FED01F"/>
	</radialGradient>
	<path fill="url(#SVGID_1_)" d="M100.0611,7.7608c-49.4465,0-89.5334,40.0858-89.5334,89.535
		c0,31.8259,16.6168,59.7527,41.6372,75.6315c0.0422,7.3642,1.5634,12.5708,4.6479,15.8257
		c2.1605,2.2806,4.973,3.4861,8.1317,3.4861c2.9656,0,5.6832-1.4592,7.6587-4.1095c0.9876-1.3257,1.7773-3.0026,2.4296-4.871
		c7.9467,2.3095,16.3344,3.5719,25.0283,3.5719c49.4492,0,89.5388-40.0857,89.5388-89.5347
		C189.5999,47.8466,149.5103,7.7608,100.0611,7.7608z"/>
	<g>
		<g>
			<g>
				<g>
					<defs>
						<path id="SVGID_2_" d="M189.5999,97.2958c0,49.449-40.0895,89.5347-89.5388,89.5347
							c-49.4465,0-89.5334-40.0857-89.5334-89.5347c0-49.4492,40.0868-89.535,89.5334-89.535
							C149.5103,7.7608,189.5999,47.8466,189.5999,97.2958z"/>
					</defs>
					<clipPath id="SVGID_3_">
						<use xlink:href="#SVGID_2_"  overflow="visible"/>
					</clipPath>
				</g>
			</g>
		</g>
	</g>
	<path fill="#FFFFFF" d="M48.3462,80.1493c0.6336,15.4377-7.9494,28.6743-19.168,29.5535
		C17.9647,110.5835,8.3465,98.7813,7.7177,83.3396c-0.6231-15.4428,7.9705-28.6832,19.1891-29.5654
		C38.1309,52.8934,47.7229,64.6997,48.3462,80.1493z"/>
	<path fill="#AA5B26" d="M52.4002,79.9816C51.711,62.9857,41.0334,49.6715,28.0853,49.6715c-0.4972,0-0.9958,0.0197-1.4958,0.058
		C13.2325,50.7807,2.9541,65.9304,3.675,83.498c0.6837,16.9946,11.3654,30.3075,24.3246,30.3075c0.4972,0,0.993-0.0199,1.4958-0.058
		C42.8455,112.7001,53.1211,97.5519,52.4002,79.9816z M29.1777,109.7027C17.9643,110.5835,8.346,98.7813,7.7287,83.3355
		c-0.6339-15.4389,7.9595-28.6792,19.1785-29.5614c11.2231-0.8808,20.8151,10.9255,21.4394,26.3713
		C48.9805,95.5869,40.3967,108.8236,29.1777,109.7027z"/>
	<g>
		<defs>
			<path id="SVGID_4_" d="M7.7282,83.3355c-0.6336-15.4388,7.9599-28.6792,19.1786-29.5613
				c11.2241-0.8808,20.816,10.9255,21.4394,26.3713c0.6336,15.4415-7.9494,28.6781-19.168,29.5573
				C17.9647,110.5835,8.3465,98.7813,7.7282,83.3355z"/>
		</defs>
		<clipPath id="SVGID_5_">
			<use xlink:href="#SVGID_4_"  overflow="visible"/>
		</clipPath>
	</g>
	<g>
		<defs>
			<path id="SVGID_6_" d="M7.7282,83.3355c-0.6336-15.4388,7.9599-28.6792,19.1786-29.5613
				c11.2241-0.8808,20.816,10.9255,21.4394,26.3713c0.6336,15.4415-7.9494,28.6781-19.168,29.5573
				C17.9647,110.5835,8.3465,98.7813,7.7282,83.3355z"/>
		</defs>
		<clipPath id="SVGID_7_">
			<use xlink:href="#SVGID_6_"  overflow="visible"/>
		</clipPath>
	</g>
	<g>
		<path fill="#FFFFFF" d="M138.7168,79.3096c1.7245,20.1529-12.0348,37.9358-30.7382,39.7107
			c-18.6926,1.7786-35.2856-13.1217-37.0023-33.2746c-1.714-20.1583,12.0665-37.948,30.7645-39.7266
			C120.4493,44.2404,137.0028,59.1458,138.7168,79.3096z"/>
		<path fill="#AA5B26" d="M104.9522,123.2206c-19.5483,0-36.2443-16.3158-38.0137-37.1437
			c-1.9041-22.3264,13.5346-42.1099,34.4194-44.0957c1.1437-0.1098,2.2819-0.1625,3.4093-0.1625
			c19.8574,0,36.1918,15.9672,37.9875,37.1424c1.9122,22.3332-13.5162,42.1164-34.3904,44.0971
			C107.2181,123.1676,106.0799,123.2206,104.9522,123.2206z"/>
		<path fill="#FFFFFF" d="M70.9844,85.7351c-1.7221-20.1478,12.0583-37.9374,30.7564-39.7161
			c18.7086-1.7786,35.262,13.1268,36.976,33.2852c1.7245,20.1584-12.0348,37.9412-30.7382,39.7161
			C89.286,120.7989,72.693,105.8986,70.9844,85.7351z"/>
		<g>
			<defs>
				<path id="SVGID_8_" d="M70.9844,85.7351c-1.7221-20.1478,12.0583-37.9374,30.7564-39.7161
					c18.7086-1.7786,35.262,13.1268,36.976,33.2852c1.7245,20.1584-12.0348,37.9412-30.7382,39.7161
					C89.286,120.7989,72.693,105.8986,70.9844,85.7351z"/>
			</defs>
			<clipPath id="SVGID_9_">
				<use xlink:href="#SVGID_8_"  overflow="visible"/>
			</clipPath>
		</g>
		<path fill="#6D2F16" d="M131.0711,84.9797c1.1304,6.9904-3.4596,13.5506-10.2681,14.6504
			c-6.8082,1.1001-13.2391-3.6828-14.3668-10.6772c-1.125-6.9945,3.4597-13.556,10.2759-14.6548
			C123.5207,73.1983,129.9407,77.9826,131.0711,84.9797z"/>
		<path fill="none" d="M70.9844,85.7351c-1.7221-20.1478,12.0583-37.9374,30.7564-39.7161
			c18.7086-1.7786,35.262,13.1268,36.976,33.2852c1.7245,20.1584-12.0348,37.9412-30.7382,39.7161
			C89.286,120.7989,72.693,105.8986,70.9844,85.7351z"/>
	</g>
	<circle fill="#6D2F16" cx="35.6802" cy="79.6939" r="7.5478"/>
	<g>
		<path fill="#823308" d="M45.0139,24.6479c-0.0856,0-0.1713-0.0041-0.2597-0.011c-1.5524-0.1423-2.6987-1.5137-2.5606-3.0661l0,0
			c0.1492-1.7596-0.0193-6.9361-2.5717-9.7149c-1.2872-1.4019-3.0634-2.0828-5.4279-2.0828c-9.0133,0-9.3365,10.8198-9.342,12.0546
			c-0.0083,1.5552-1.2734,2.8161-2.8286,2.8161h-0.0083c-1.5579-0.0041-2.8203-1.2651-2.8203-2.8244
			c0-6.1226,3.1352-17.7034,14.9992-17.7034c3.9943,0,7.2316,1.3245,9.6182,3.9376c4.7566,5.2097,4.0495,13.6636,4.0163,14.0213
			C47.696,23.5443,46.4613,24.6479,45.0139,24.6479z"/>
	</g>
	<g>
		<path fill="#823308" d="M111.535,22.9062c-0.0856,0-0.1713-0.0041-0.2597-0.011c-1.5524-0.1423-2.6987-1.5137-2.5606-3.0661
			c0.1492-1.7596-0.0193-6.9347-2.5689-9.7135c-1.2872-1.4019-3.0634-2.0828-5.4306-2.0828c-9.2343,0-9.3393,11.5532-9.3393,12.0449
			c0,1.5621-1.2651,2.8286-2.8286,2.8286s-2.8286-1.2665-2.8286-2.8286c0-6.1226,3.1352-17.7021,14.9964-17.7021
			c3.997,0,7.2316,1.3259,9.6182,3.939c4.7566,5.2083,4.0495,13.6622,4.0163,14.0199
			C114.2144,21.8027,112.9824,22.9062,111.535,22.9062z"/>
	</g>
	
		<radialGradient id="SVGID_10_" cx="-74.2455" cy="304.7517" r="189.5571" gradientTransform="matrix(0.9306 0 0 0.9306 163.7114 -2.9953)" gradientUnits="userSpaceOnUse">
		<stop  offset="0.0054" style="stop-color:#A34E1F"/>
		<stop  offset="0.3187" style="stop-color:#9E491D"/>
		<stop  offset="0.6963" style="stop-color:#8F3A15"/>
		<stop  offset="1" style="stop-color:#7E290D"/>
	</radialGradient>
	<path fill="url(#SVGID_10_)" d="M69.5425,153.6246l0.0024-0.0027c0,0-6.9217-9.0795-12.4494-9.9246
		c-5.5274-0.8451-7.7246,4.2255-5.6964,7.944s5.6964,4.2255,5.6964,8.6201v19.6962c0,3.795,3.0716,6.873,6.8744,6.873
		c3.795,0,6.8717-3.0781,6.8717-6.873v-22.3386C70.8416,156.1242,70.3505,154.752,69.5425,153.6246z"/>
</g>
</svg>
