<?xml version="1.0" encoding="utf-8"?>
<!-- Generator: Adobe Illustrator 17.0.0, SVG Export Plug-In . SVG Version: 6.00 Build 0)  -->
<!DOCTYPE svg PUBLIC "-//W3C//DTD SVG 1.1//EN" "http://www.w3.org/Graphics/SVG/1.1/DTD/svg11.dtd">
<svg version="1.1" id="Layer_1" xmlns="http://www.w3.org/2000/svg" xmlns:xlink="http://www.w3.org/1999/xlink" x="0px" y="0px"
	viewBox="0 0 200 200" enable-background="new 0 0 200 200" xml:space="preserve">
<g>
	<g>
		<g>
			<g>
				<path fill="#E4A024" d="M100.2958,199C46.0958,199,2,154.9042,2,100.7028S46.0958,2.4056,100.2958,2.4056
					c54.2027,0,98.3013,44.0958,98.3013,98.2972S154.4985,199,100.2958,199z"/>
				<path fill="#E4A024" d="M100.2958,197.6197c-53.4397,0-96.9155-43.4772-96.9155-96.9169S46.8561,3.7859,100.2958,3.7859
					c53.4425,0,96.921,43.4772,96.921,96.9169S153.7383,197.6197,100.2958,197.6197z"/>
				<radialGradient id="SVGID_1_" cx="104.0674" cy="-7.8776" r="202.7919" gradientUnits="userSpaceOnUse">
					<stop  offset="0" style="stop-color:#FFF7C2"/>
					<stop  offset="0.3321" style="stop-color:#FFEB8F"/>
					<stop  offset="1" style="stop-color:#FED01F"/>
				</radialGradient>
				<path fill="url(#SVGID_1_)" d="M191.6958,100.7028c0,50.4768-40.9229,91.3958-91.4,91.3958
					c-50.4743,0-91.3944-40.919-91.3944-91.3958c0-50.4771,40.9201-91.3958,91.3944-91.3958
					C150.7729,9.307,191.6958,50.2257,191.6958,100.7028z"/>
				<g>
					<defs>
						<path id="SVGID_2_" d="M191.6958,100.7028c0,50.4768-40.9229,91.3958-91.4,91.3958c-50.4743,0-91.3944-40.919-91.3944-91.3958
							c0-50.4771,40.9201-91.3958,91.3944-91.3958C150.7729,9.307,191.6958,50.2257,191.6958,100.7028z"/>
					</defs>
					<clipPath id="SVGID_3_">
						<use xlink:href="#SVGID_2_"  overflow="visible"/>
					</clipPath>
				</g>
			</g>
		</g>
	</g>
	<path fill="#A04E17" d="M112.4325,170.726c0,6.8608-4.2487,12.4225-9.4838,12.4225c-5.2409,0-9.4869-5.5617-9.4869-12.4225
		c0-6.8611,4.246-12.4224,9.4869-12.4224C108.1838,158.3035,112.4325,163.8649,112.4325,170.726z"/>
	<g>
		<g>
			<g>
				<path fill="#823308" d="M136.4008,110.2228c-13.0553,0-23.6778-10.6225-23.6778-23.6791c0-2.3272,1.887-4.2128,4.2128-4.2128
					s4.2128,1.8856,4.2128,4.2128c0,8.4105,6.843,15.2536,15.2522,15.2536c8.4119,0,15.2549-6.8431,15.2549-15.2536
					c0-2.3272,1.887-4.2128,4.2128-4.2128c2.3258,0,4.2128,1.8856,4.2128,4.2128
					C160.0813,99.6003,149.4588,110.2228,136.4008,110.2228z"/>
			</g>
		</g>
		<g>
			<g>
				<path fill="#823308" d="M64.1936,110.2228c-13.0553,0-23.6778-10.6225-23.6778-23.6791c0-2.3272,1.887-4.2128,4.2128-4.2128
					c2.3258,0,4.2128,1.8856,4.2128,4.2128c0,8.4105,6.843,15.2536,15.2522,15.2536s15.2494-6.8431,15.2494-15.2536
					c0-2.3272,1.887-4.2128,4.2128-4.2128s4.2128,1.8856,4.2128,4.2128C87.8686,99.6003,77.2489,110.2228,64.1936,110.2228z"/>
			</g>
		</g>
	</g>
	<g>
		<path fill="#ADF5F7" d="M180.8906,2.4043c2.739,0,4.6449,1.2098,5.7079,3.6298c0.3544,0.8045,0.5332,1.6119,0.5332,2.4164
			c0,1.4844-0.629,2.8541-1.8865,4.1117l-18.9625,18.9592l-9.577,9.577h24.6191c1.6472,0,3.0169,0.5492,4.112,1.6472
			c1.1301,1.1588,1.695,2.5475,1.695,4.1597c0,1.5802-0.5649,2.9496-1.695,4.1084c-1.0951,1.1301-2.4648,1.6953-4.112,1.6953
			h-38.0172c-2.0303,0-3.6266-0.645-4.7887-1.9346c-1.0631-1.0984-1.5962-2.4837-1.5962-4.1597c0-0.2903,0.016-0.5649,0.0513-0.8234
			c0.1275-1.0631,0.8522-2.2412,2.1738-3.5308l18.9144-18.9592l9.2867-9.2864h-24.6704c-1.5802,0-2.9339-0.5492-4.0607-1.6443
			c-1.1621-1.1301-1.743-2.5155-1.743-4.1627c0-1.5769,0.5809-2.9339,1.743-4.0607c1.1268-1.1621,2.4805-1.743,4.0607-1.743
			H180.8906z"/>
		<path fill="#20C9E5" d="M181.3236,54.1139h-38.0166c-2.4328,0-4.3966-0.8064-5.831-2.3985
			c-1.2891-1.3316-1.9583-3.0595-1.9583-5.1001c0-0.3579,0.0219-0.6966,0.0658-1.0162c0.1618-1.3782,1.0093-2.8072,2.5864-4.3431
			l25.7897-25.8363h-21.2807c-1.9501,0-3.6451-0.687-5.0411-2.0406c-1.4372-1.4015-2.1667-3.1418-2.1667-5.1714
			c0-1.9651,0.7296-3.6697,2.1667-5.0671C139.0064,1.7296,140.7123,1,142.6789,1h38.2114c3.294,0,5.7103,1.5455,6.9939,4.4706
			c0.4333,0.9846,0.6528,1.9885,0.6528,2.9799c0,1.8609-0.7734,3.5779-2.2984,5.1042L160.095,39.6941h21.2285
			c2.0241,0,3.7411,0.6925,5.1069,2.0584c1.4015,1.4372,2.1064,3.1665,2.1064,5.1535c0,1.9514-0.7049,3.6629-2.0927,5.0877
			C185.0784,53.3994,183.3559,54.1139,181.3236,54.1139z M142.6789,3.8085c-1.1958,0-2.1942,0.4306-3.0554,1.3165
			c-0.9133,0.89-1.3439,1.8884-1.3439,3.0828c0,1.2616,0.4306,2.2943,1.3165,3.1569c0.864,0.8379,1.8733,1.2466,3.0828,1.2466
			h28.0606l-30.5976,30.6415c-1.3604,1.3275-1.7142,2.2024-1.7745,2.7043c-0.0302,0.2249-0.0412,0.4347-0.0412,0.6582
			c0,1.3055,0.3922,2.3464,1.2013,3.1829c0.927,1.0258,2.153,1.5071,3.7794,1.5071h38.0166c1.2617,0,2.2764-0.4155,3.1075-1.2699
			c0.8722-0.8969,1.2973-1.9199,1.2973-3.1294c0-1.2452-0.4251-2.286-1.2973-3.1802c-0.8173-0.8187-1.8376-1.2232-3.1075-1.2232
			h-28.0085l30.9377-30.9336c0.9929-0.9942,1.4756-2.0145,1.4756-3.1185c0-0.6007-0.1399-1.2232-0.4169-1.8513
			c-0.8338-1.9048-2.2381-2.7907-4.4212-2.7907H142.6789z"/>
	</g>
	<g>
		<path fill="#ADF5F7" d="M127.2158,30.9054c1.6822,0,2.8527,0.743,3.5056,2.2293c0.2176,0.4941,0.3275,0.99,0.3275,1.4841
			c0,0.9117-0.3863,1.7529-1.1586,2.5252l-11.6461,11.6441l-5.8819,5.8819h15.1202c1.0117,0,1.8529,0.3373,2.5255,1.0117
			c0.694,0.7117,1.041,1.5646,1.041,2.5548c0,0.9705-0.3469,1.8115-1.041,2.5232c-0.6726,0.6941-1.5138,1.0412-2.5255,1.0412
			h-23.3488c-1.247,0-2.2273-0.3961-2.941-1.1881c-0.6529-0.6746-0.9803-1.5254-0.9803-2.5548c0-0.1783,0.0098-0.3469,0.0315-0.5057
			c0.0783-0.6529,0.5234-1.3765,1.3351-2.1685l11.6166-11.6441l5.7036-5.7034h-15.1517c-0.9705,0-1.8019-0.3373-2.4939-1.0099
			c-0.7137-0.6941-1.0705-1.5449-1.0705-2.5566c0-0.9685,0.3568-1.8019,1.0705-2.4939c0.692-0.7137,1.5234-1.0705,2.4939-1.0705
			H127.2158z"/>
		<path fill="#20C9E5" d="M127.4815,62.8535h-23.3486c-1.5524,0-2.8058-0.517-3.7219-1.5359
			c-0.8228-0.8475-1.2507-1.9528-1.2507-3.2597c0-0.229,0.011-0.4457,0.0411-0.65c0.107-0.89,0.6445-1.8047,1.6429-2.7784
			l15.5127-15.5402h-12.611c-1.2479,0-2.334-0.4402-3.2282-1.3069c-0.9215-0.8969-1.3878-2.0118-1.3878-3.3132
			c0-1.2616,0.4663-2.356,1.3906-3.2487c0.8694-0.8996,1.961-1.3686,3.2254-1.3686h23.4693c2.1037,0,3.6478,0.9887,4.4706,2.8593
			c0.2743,0.6226,0.4169,1.2658,0.4169,1.9076c0,1.1972-0.4937,2.297-1.4701,3.2707l-15.7294,15.728h12.578
			c1.2973,0,2.3971,0.4443,3.272,1.3206c0.8969,0.9216,1.3494,2.0282,1.3494,3.2981c0,1.2493-0.4525,2.345-1.3412,3.2583
			C129.8896,62.3955,128.7843,62.8535,127.4815,62.8535z M103.7462,31.9583c-0.6802,0-1.2479,0.2455-1.7361,0.7501
			c-0.5293,0.5129-0.7734,1.0806-0.7734,1.7608c0,0.7309,0.2386,1.3042,0.7515,1.8033c0.4909,0.4772,1.0669,0.7104,1.7581,0.7104
			h17.6959L102.3254,56.127c-0.8393,0.8187-1.0093,1.3234-1.0367,1.5524c-0.0165,0.1303-0.0219,0.251-0.0219,0.3785
			c0,0.7515,0.2222,1.348,0.6829,1.8225c0.5348,0.5924,1.2397,0.8667,2.1832,0.8667h23.3486c0.7323,0,1.2946-0.229,1.769-0.72
			c0.5019-0.5156,0.746-1.1012,0.746-1.791c0-0.7117-0.2441-1.3069-0.7433-1.8198c-0.4635-0.4635-1.045-0.6925-1.7718-0.6925
			h-17.663l19.3251-19.3251c0.576-0.5719,0.853-1.1547,0.853-1.78c0-0.3442-0.0795-0.7008-0.2386-1.0559
			c-0.4882-1.1108-1.2699-1.6045-2.5425-1.6045H103.7462z"/>
	</g>
</g>
</svg>
