<?xml version="1.0" encoding="utf-8"?>
<!-- Generator: Adobe Illustrator 17.0.0, SVG Export Plug-In . SVG Version: 6.00 Build 0)  -->
<!DOCTYPE svg PUBLIC "-//W3C//DTD SVG 1.1//EN" "http://www.w3.org/Graphics/SVG/1.1/DTD/svg11.dtd">
<svg version="1.1" id="Layer_1" xmlns="http://www.w3.org/2000/svg" xmlns:xlink="http://www.w3.org/1999/xlink" x="0px" y="0px" viewBox="0 0 200 200" enable-background="new 0 0 200 200" xml:space="preserve">
<g>
	<path fill="#E5A126" d="M100.3273,199c-9.5126,0-18.0329-5.8571-21.4372-14.6491c-42.0673-9.1393-71.383-45.8695-71.383-89.573
		c0-51.0001,41.4915-92.4918,92.4903-92.4918c51.0014,0,92.4955,41.4917,92.4955,92.4918c0,45.55-29.9069,83.5751-71.2131,90.7032
		C117.5685,193.5969,109.2409,199,100.3273,199z"/>
	<path fill="#E5A126" d="M100.3273,197.7012c-9.3627,0-17.4622-5.9015-20.4657-14.4715
		c-41.3748-8.6562-71.0557-45.323-71.0557-88.4519c0-50.2835,40.9081-91.1931,91.1915-91.1931
		c50.2861,0,91.1967,40.9096,91.1967,91.1931c0,44.9513-30.2469,82.9006-70.8227,89.5387
		C117.0487,192.2525,109.137,197.7012,100.3273,197.7012z"/>
	
		<radialGradient id="SVGID_1_" cx="137.0504" cy="-10.1084" r="245.6877" gradientTransform="matrix(0.9863 0 0 0.9863 53.7127 -1.7975)" gradientUnits="userSpaceOnUse">
		<stop  offset="0" style="stop-color:#FFF7C2"/>
		<stop  offset="0.1697" style="stop-color:#FFF0AE"/>
		<stop  offset="0.5243" style="stop-color:#FFE37F"/>
		<stop  offset="1" style="stop-color:#FDD022"/>
	</radialGradient>
	<path fill="url(#SVGID_1_)" d="M99.9974,8.7798c-47.4932,0-85.9965,38.5022-85.9965,85.9981
		c0,41.1262,28.646,76.9027,70.0512,83.9596c1.3141,7.8115,8.092,13.7688,16.2752,13.7688c7.8889,0,14.4738-5.5298,16.1175-12.9215
		l0.406-0.0078c39.622-4.9742,69.1483-42.1624,69.1483-84.7991C185.9991,47.282,147.4932,8.7798,99.9974,8.7798z"/>
	<g>
		<g>
			<g>
				<g>
					<defs>
						<path id="SVGID_2_" d="M186.1615,96.8883c0,47.4956-35.9084,85.9978-83.4042,85.9978
							c-47.4932,0-88.594-38.5022-88.594-85.9978c0-47.4958,38.5033-85.9981,85.9965-85.9981
							C147.6556,10.8902,186.1615,49.3925,186.1615,96.8883z"/>
					</defs>
					<clipPath id="SVGID_3_">
						<use xlink:href="#SVGID_2_"  overflow="visible"/>
					</clipPath>
				</g>
			</g>
		</g>
	</g>
	<g>
		<path fill="#82361A" d="M83.8204,79.1955c-2.5055,0-4.0306-1.0499-4.3519-1.2936c-0.0763-0.0599-0.1525-0.1226-0.2233-0.1893
			L46.6246,46.9303c-1.1193-1.058-1.1711-2.8228-0.1144-3.9434c1.0594-1.122,2.8214-1.1697,3.9434-0.1144l32.4299,30.6039
			c0.354,0.128,3.5077,1.1248,9.3112-5.3569c1.0294-1.1479,2.7996-1.2432,3.938-0.2179c1.1465,1.0281,1.2446,2.7901,0.2179,3.938
			C91.0618,77.7467,86.7643,79.1955,83.8204,79.1955z"/>
	</g>
	<g>
		<path fill="#82361A" d="M114.8205,86.7311c-2.9412,0.0014-7.2387-1.4488-12.5275-7.3545
			c-1.0267-1.1465-0.9287-2.9099,0.2179-3.938c1.1438-1.0253,2.9086-0.9314,3.938,0.2179c6.261,6.9936,9.4283,5.2738,9.4637,5.2588
			c0.2288-0.1729,0.3568-0.2233,0.6264-0.32l36.3951-13.0858c1.4461-0.5243,3.0447,0.2315,3.5676,1.6803
			c0.5202,1.4488-0.2315,3.0474-1.683,3.5676l-36.1037,12.9823C118.0341,86.1374,116.7051,86.7311,114.8205,86.7311z"/>
	</g>
	<ellipse fill="#A05024" cx="100.2016" cy="178.4356" rx="5.1506" ry="6.7538"/>
	<g>
		<path fill="#37C3E0" d="M158.6492,62.7733c-12.3509-0.3083-22.1297-11.3186-21.8024-24.5456
			c0.307-12.2189,18.2968-31.8259,20.3462-34.0213L160.1864,1l2.8334,3.3523c1.9354,2.2944,18.9155,22.7713,18.6163,34.9938
			c-0.3172,12.9202-10.39,23.4334-22.4567,23.4334L158.6492,62.7733z"/>
		<path fill="#B5E2EA" d="M177.7398,39.2498c-0.2714,11.0991-8.7868,19.8834-18.9942,19.6285
			c-10.2227-0.2551-18.2789-9.4567-18.0025-20.553c0.2766-11.0929,19.2987-31.4594,19.2987-31.4594
			S178.0139,28.1532,177.7398,39.2498z"/>
	</g>
	<g>
		<g>
			<path fill="#82361A" d="M77.9243,94.0474h-42.294c-2.3094,0-4.1831-1.8723-4.1831-4.1831c0-2.3108,1.8737-4.1831,4.1831-4.1831
				h42.294c2.3094,0,4.1831,1.8723,4.1831,4.1831C82.1074,92.1751,80.2337,94.0474,77.9243,94.0474z"/>
		</g>
		<g>
			<path fill="#82361A" d="M168.4954,94.0474h-42.294c-2.3094,0-4.1831-1.8723-4.1831-4.1831c0-2.3108,1.8737-4.1831,4.1831-4.1831
				h42.294c2.3094,0,4.1831,1.8723,4.1831,4.1831C172.6785,92.1751,170.8049,94.0474,168.4954,94.0474z"/>
		</g>
	</g>
</g>
</svg>
