<?xml version="1.0" encoding="utf-8"?>
<!-- Generator: Adobe Illustrator 17.0.0, SVG Export Plug-In . SVG Version: 6.00 Build 0)  -->
<!DOCTYPE svg PUBLIC "-//W3C//DTD SVG 1.1//EN" "http://www.w3.org/Graphics/SVG/1.1/DTD/svg11.dtd">
<svg version="1.1" id="Layer_1" xmlns="http://www.w3.org/2000/svg" xmlns:xlink="http://www.w3.org/1999/xlink" x="0px" y="0px" viewBox="0 0 200 200" enable-background="new 0 0 200 200" xml:space="preserve">
<g>
	<g>
		<g>
			<g>
				<path fill="#E5A126" d="M99.9975,198.5055c-54.4512,0-98.7516-44.3002-98.7516-98.7528C1.2459,45.3005,45.5463,1,99.9975,1
					s98.7566,44.3005,98.7566,98.7528C198.7542,154.2053,154.4487,198.5055,99.9975,198.5055z"/>
				<path fill="#E5A126" d="M99.9975,197.1189c-53.6874,0-97.365-43.6787-97.365-97.3661S46.3101,2.3867,99.9975,2.3867
					c53.6899,0,97.37,43.6787,97.37,97.3661S153.6874,197.1189,99.9975,197.1189z"/>
				
					<radialGradient id="SVGID_1_" cx="26.2322" cy="-6.8576" r="207.7893" gradientTransform="matrix(0.9805 0 0 0.9805 78.0663 -2.6072)" gradientUnits="userSpaceOnUse">
					<stop  offset="0" style="stop-color:#FFF7C2"/>
					<stop  offset="0.3276" style="stop-color:#FFE996"/>
					<stop  offset="1" style="stop-color:#FDD022"/>
				</radialGradient>
				<path fill="url(#SVGID_1_)" d="M191.8208,99.7528c0,50.7111-41.1125,91.8194-91.8233,91.8194
					c-50.7083,0-91.8183-41.1084-91.8183-91.8194c0-50.7108,41.11-91.8194,91.8183-91.8194
					C150.7083,7.9333,191.8208,49.042,191.8208,99.7528z"/>
				<g>
					<defs>
						<path id="SVGID_2_" d="M191.8208,99.7528c0,50.7111-41.1125,91.8194-91.8233,91.8194
							c-50.7083,0-91.8183-41.1084-91.8183-91.8194c0-50.7108,41.11-91.8194,91.8183-91.8194
							C150.7083,7.9333,191.8208,49.042,191.8208,99.7528z"/>
					</defs>
					<clipPath id="SVGID_3_">
						<use xlink:href="#SVGID_2_"  overflow="visible"/>
					</clipPath>
				</g>
			</g>
		</g>
	</g>
	<g>
		<g>
			<path fill="#82361A" d="M34.8656,108.3193c-1.3756,0-2.5827-1.0041-2.7927-2.4046c-0.2348-1.5441,0.8259-2.986,2.3728-3.2208
				C62.0161,98.516,66.8058,73.487,66.9964,72.4235c0.2735-1.5344,1.7347-2.5744,3.2761-2.2885
				c1.5358,0.2707,2.5634,1.7319,2.2955,3.2678c-0.0525,0.3011-5.6102,30.0853-37.2769,34.8848
				C35.1474,108.3096,35.0065,108.3193,34.8656,108.3193z"/>
		</g>
		<g>
			<path fill="#82361A" d="M144.6938,108.3193c-0.1409,0-0.2818-0.0097-0.4254-0.0318
				c-31.6695-4.7995-37.2272-34.5837-37.2797-34.8848c-0.2679-1.5386,0.7624-3.004,2.301-3.2733
				c1.522-0.2597,3.0026,0.761,3.2733,2.2982c0.2016,1.1243,5.0135,26.0938,32.5507,30.2663
				c1.5469,0.2348,2.6076,1.6767,2.3728,3.2208C147.2765,107.3152,146.0694,108.3193,144.6938,108.3193z"/>
		</g>
		<circle fill="#6D3118" cx="50.8438" cy="117.2134" r="9.7501"/>
		<circle fill="#6D3118" cx="128.5786" cy="117.2134" r="9.7501"/>
	</g>
	<g>
		<path fill="#AA5C26" d="M129.028,199c-10.4053,0-22.8096-5.2555-22.8096-30.2849c0-2.4982,0.1301-4.8708,0.3847-7.097H94.4209
			c-6.3917,0-11.5917-5.2014-11.5917-11.5945c0-6.3917,5.2-11.5931,11.5917-11.5931h31.3246c0.4171,0,0.8181,0.038,1.2244,0.0907
			c0.6662-0.0541,1.3459-0.0907,2.0581-0.0907c16.6996,0,30.2849,13.5866,30.2849,30.2846
			C159.3128,185.4134,145.7276,199,129.028,199z"/>
		
			<radialGradient id="SVGID_4_" cx="67.0081" cy="74.2164" r="139.5126" gradientTransform="matrix(0.9805 0 0 0.9805 78.0663 -2.6072)" gradientUnits="userSpaceOnUse">
			<stop  offset="0.1174" style="stop-color:#FCEA65"/>
			<stop  offset="1" style="stop-color:#F5B32D"/>
		</radialGradient>
		<path fill="url(#SVGID_4_)" d="M129.028,142.2955c-0.7527,0-1.4652,0.0499-2.1665,0.1137
			c-0.3683-0.0555-0.7313-0.1137-1.116-0.1137H94.4209c-4.2682,0-7.7296,3.4611-7.7296,7.7282c0,4.2684,3.4614,7.7296,7.7296,7.7296
			h16.7321c-0.7419,3.3421-1.0697,7.0457-1.0697,10.9619c0,14.5914,4.3522,26.4199,18.9447,26.4199
			c14.5952,0,26.4227-11.8286,26.4227-26.4199C155.4507,154.1241,143.6232,142.2955,129.028,142.2955z"/>
	</g>
	<g>
		<path fill="#AA5C26" d="M38.8648,199c10.4081,0,22.8068-5.2555,22.8068-30.2849c0-2.4982-0.1273-4.8708-0.3844-7.097h12.1847
			c6.3945,0,11.5917-5.2014,11.5917-11.5945c0-6.3917-5.1972-11.5931-11.5917-11.5931H42.1501c-0.4171,0-0.8234,0.038-1.2269,0.0907
			c-0.6689-0.0541-1.3462-0.0907-2.0584-0.0907c-16.6969,0-30.2846,13.5866-30.2846,30.2846
			C8.5802,185.4134,22.1679,199,38.8648,199z"/>
		
			<radialGradient id="SVGID_5_" cx="8064.394" cy="74.2164" r="139.5125" gradientTransform="matrix(-0.9805 0 0 0.9805 7931.0513 -2.6072)" gradientUnits="userSpaceOnUse">
			<stop  offset="0.1174" style="stop-color:#FCEA65"/>
			<stop  offset="1" style="stop-color:#F5B32D"/>
		</radialGradient>
		<path fill="url(#SVGID_5_)" d="M38.8648,142.2955c0.7557,0,1.4652,0.0499,2.1665,0.1137
			c0.3686-0.0555,0.7286-0.1137,1.1188-0.1137h31.3218c4.2712,0,7.7296,3.4611,7.7296,7.7282c0,4.2684-3.4584,7.7296-7.7296,7.7296
			H56.7398c0.7394,3.3421,1.07,7.0457,1.07,10.9619c0,14.5914-4.3525,26.4199-18.945,26.4199s-26.4199-11.8286-26.4199-26.4199
			C12.4449,154.1241,24.2723,142.2955,38.8648,142.2955z"/>
	</g>
</g>
</svg>
