<?xml version="1.0" encoding="utf-8"?>
<!-- Generator: Adobe Illustrator 17.0.0, SVG Export Plug-In . SVG Version: 6.00 Build 0)  -->
<!DOCTYPE svg PUBLIC "-//W3C//DTD SVG 1.1//EN" "http://www.w3.org/Graphics/SVG/1.1/DTD/svg11.dtd">
<svg version="1.1" id="Layer_1" xmlns="http://www.w3.org/2000/svg" xmlns:xlink="http://www.w3.org/1999/xlink" x="0px" y="0px"
	viewBox="0 0 200 200" enable-background="new 0 0 200 200" xml:space="preserve">
<g>
	<g>
		<g>
			<g>
				<g>
					<path fill="#E4A125" d="M100.2149,198.6658c-54.464,0-98.7747-44.3103-98.7747-98.778s44.3107-98.778,98.7747-98.778
						C154.6863,1.1098,199,45.4201,199,99.8878S154.6863,198.6658,100.2149,198.6658z"/>
					<path fill="#E4A125" d="M100.2149,197.2776c-53.6999,0-97.3895-43.6866-97.3895-97.3898
						c0-53.6999,43.6896-97.3898,97.3895-97.3898c53.7102,0,97.4002,43.69,97.4002,97.3898
						C197.6152,153.591,153.9252,197.2776,100.2149,197.2776z"/>
					<radialGradient id="SVGID_1_" cx="104.0075" cy="-9.2244" r="203.7852" gradientUnits="userSpaceOnUse">
						<stop  offset="0" style="stop-color:#FFF8C1"/>
						<stop  offset="0.3359" style="stop-color:#FEEB8E"/>
						<stop  offset="1" style="stop-color:#FCCF20"/>
					</radialGradient>
					<path fill="url(#SVGID_1_)" d="M192.0651,99.8878c0,50.7278-41.1224,91.8435-91.8502,91.8435
						c-50.7174,0-91.8398-41.1157-91.8398-91.8435c0-50.7244,41.1224-91.8435,91.8398-91.8435
						C150.9427,8.0443,192.0651,49.1634,192.0651,99.8878z"/>
					<g>
						<defs>
							<path id="SVGID_2_" d="M192.0651,99.8878c0,50.7278-41.1224,91.8435-91.8502,91.8435
								c-50.7174,0-91.8398-41.1157-91.8398-91.8435c0-50.7244,41.1224-91.8435,91.8398-91.8435
								C150.9427,8.0443,192.0651,49.1634,192.0651,99.8878z"/>
						</defs>
						<clipPath id="SVGID_3_">
							<use xlink:href="#SVGID_2_"  overflow="visible"/>
						</clipPath>
					</g>
				</g>
			</g>
		</g>
		<g>
			<circle fill="#6D3017" cx="61.4081" cy="86.5573" r="9.3114"/>
			<circle fill="#6D3017" cx="135.6449" cy="86.5573" r="9.3115"/>
			<g>
				<path fill="#82351B" d="M71.9174,41.2566c-0.0818,0-0.1602-0.0067-0.2454-0.0131c-1.4532-0.1344-2.5267-1.4173-2.399-2.8705
					c0.0063-0.0654,0.5007-6.2874-2.5465-9.606c-1.2863-1.4009-3.0569-2.0783-5.407-2.0783c-9.164,0-9.2722,11.4323-9.2722,11.9165
					c0,1.4633-1.1847,2.6514-2.6477,2.6514s-2.6477-1.1881-2.6477-2.6514c0-5.9532,3.0438-17.2156,14.5676-17.2156
					c3.8753,0,7.014,1.2829,9.3279,3.8197c4.6281,5.0597,3.9343,13.2913,3.9048,13.6382
					C74.4246,40.2223,73.2723,41.2566,71.9174,41.2566z"/>
			</g>
			<g>
				<path fill="#82351B" d="M147.6596,39.5513c-0.0784,0-0.1569-0.0067-0.2386-0.0131c-1.4566-0.131-2.53-1.4173-2.3993-2.8705
					c0.0033-0.0654,0.4977-6.2874-2.5495-9.6027c-1.2829-1.4009-3.0505-2.0816-5.4036-2.0816
					c-9.1677,0-9.2756,11.4323-9.2756,11.9199c0,1.4599-1.1814,2.648-2.6477,2.648c-1.4629,0-2.648-1.1881-2.648-2.648
					c0-5.9566,3.0439-17.2189,14.5713-17.2189c3.875,0,7.014,1.2863,9.3279,3.8197c4.6214,5.0601,3.9306,13.2913,3.9015,13.6382
					C150.1732,38.5171,149.0179,39.5513,147.6596,39.5513z"/>
			</g>
		</g>
		<g>
			<path fill="#9F5024" d="M138.3582,115.2544c0.4746,0,0.9522,0.1193,1.3875,0.3646c1.3584,0.7708,1.8363,2.4925,1.0671,3.8475
				c-0.4648,0.8298-11.7989,20.2611-42.0179,20.2611c-30.219,0-41.5564-19.4313-42.0179-20.2611
				c-0.7725-1.355-0.2946-3.0767,1.0634-3.8475c1.3486-0.7641,3.0733-0.2912,3.8425,1.0621
				c0.432,0.7514,10.3588,17.4006,37.112,17.4006c26.9624,0,37.0071-17.2172,37.1053-17.3939
				C136.4204,115.7729,137.3762,115.2544,138.3582,115.2544z"/>
		</g>
	</g>
	<g>
		<path fill="#AA5C26" d="M37.6279,195.5001c6.1496,1.318,12.6648,1.1803,18.8409-0.3992
			c21.2842-5.4357,34.383-26.4248,29.3603-46.8966c-0.3531-3.964-0.4693-11.1134,0.7088-14.4763
			c2.0314-5.7673,1.9044-11.1556-0.3472-15.1607c-1.576-2.8162-4.0822-4.7168-7.0489-5.3512
			c-3.2244-0.6907-6.6051,0.1862-9.5174,2.4604c-2.2276,1.7403-3.9347,3.7142-5.2348,5.7858
			c-0.9835-2.679-2.1503-5.5207-3.5431-8.4452c-4.1083-8.6556-12.3153-15.0576-21.9601-17.1249
			c-11.0958-2.3761-25.8128,1.0171-33.8398,17.6774c-7.2015,14.9531-3.3879,29.3383,0.6513,44.5625
			c0.5063,1.92,1.0276,3.8697,1.5367,5.8531c0.0926,0.3677,0.2084,0.7201,0.348,1.0677c0.1487,0.8776,0.3169,1.751,0.5405,2.619
			C11.7138,181.7063,23.0117,192.3696,37.6279,195.5001z"/>
		
			<radialGradient id="SVGID_4_" cx="8291.04" cy="1536.2024" r="128.8527" gradientTransform="matrix(-0.9614 -0.206 -0.206 0.9614 8323.6855 310.7876)" gradientUnits="userSpaceOnUse">
			<stop  offset="0.1174" style="stop-color:#FBE965"/>
			<stop  offset="1" style="stop-color:#F4B22C"/>
		</radialGradient>
		<path fill="url(#SVGID_4_)" d="M72.4122,119.2465c-9.6991,7.5839-7.2688,21.1053-7.5502,23.1352
			c0,0-1.0052-12.4475-8.1118-27.4253c-8.358-17.6175-36.2451-23.0182-47.6092,0.5779
			c-7.3226,15.1917-1.9232,29.9741,2.4871,47.3363c0.0757,0.3172,0.2042,0.6005,0.3437,0.9017
			c0.1533,0.9257,0.3104,1.851,0.5516,2.7786c4.6472,18.1929,23.8164,29.0096,42.8281,24.151
			c19.0024-4.8572,30.6386-23.5447,25.9969-41.7285c0,0-1.0958-11.0304,0.9112-16.7445
			C86.4222,120.3459,78.7257,114.3205,72.4122,119.2465z"/>
		<g>
			<path fill="#AA5C26" d="M43.9303,177.384c-0.6696-0.1432-1.2143-0.688-1.3145-1.4119
				c-3.7247-26.3447,16.3252-37.9173,16.5382-38.0345c0.8024-0.4565,1.8282-0.1635,2.2836,0.643
				c0.4576,0.8114,0.1668,1.8321-0.6432,2.2839c-0.7427,0.4278-18.2439,10.6212-14.8463,34.6407
				c0.1271,0.9114-0.5121,1.7715-1.4286,1.8945C44.3162,177.4322,44.1192,177.4244,43.9303,177.384z"/>
		</g>
	</g>
</g>
</svg>
