<?xml version="1.0" encoding="utf-8"?>
<!-- Generator: Adobe Illustrator 17.0.0, SVG Export Plug-In . SVG Version: 6.00 Build 0)  -->
<!DOCTYPE svg PUBLIC "-//W3C//DTD SVG 1.1//EN" "http://www.w3.org/Graphics/SVG/1.1/DTD/svg11.dtd">
<svg version="1.1" id="Layer_1" xmlns="http://www.w3.org/2000/svg" xmlns:xlink="http://www.w3.org/1999/xlink" x="0px" y="0px"
	  viewBox="0 0 200 200" enable-background="new 0 0 200 200" xml:space="preserve">
<g>
	<g>
		<g>
			<g>
				<path fill="#E4A024" d="M99.9972,198.9986C45.4105,198.9986,1,154.5881,1,100S45.4105,1.0014,99.9972,1.0014
					C154.5867,1.0014,199,45.4119,199,100S154.5867,198.9986,99.9972,198.9986z"/>
				<path fill="#E4A024" d="M99.9972,197.6085c-53.8238,0-97.6071-43.7874-97.6071-97.6085S46.1734,2.3915,99.9972,2.3915
					S197.6099,46.1789,197.6099,100S153.8211,197.6085,99.9972,197.6085z"/>
				
					<radialGradient id="SVGID_1_" cx="33.4928" cy="-7.1933" r="207.7863" gradientTransform="matrix(0.9829 0 0 0.9829 70.8747 -2.2847)" gradientUnits="userSpaceOnUse">
					<stop  offset="0" style="stop-color:#FFF7C2"/>
					<stop  offset="0.3321" style="stop-color:#FFEB8F"/>
					<stop  offset="1" style="stop-color:#FED01F"/>
				</radialGradient>
				<path fill="url(#SVGID_1_)" d="M192.0494,100c0,50.8373-41.2177,92.048-92.0522,92.048S7.9506,150.8373,7.9506,100
					c0-50.837,41.2121-92.048,92.0466-92.048S192.0494,49.163,192.0494,100z"/>
				<g>
					<defs>
						<path id="SVGID_2_" d="M192.0494,100c0,50.8373-41.2177,92.048-92.0522,92.048S7.9506,150.8373,7.9506,100
							c0-50.837,41.2121-92.048,92.0466-92.048S192.0494,49.163,192.0494,100z"/>
					</defs>
					<clipPath id="SVGID_3_">
						<use xlink:href="#SVGID_2_"  overflow="visible"/>
					</clipPath>
				</g>
			</g>
		</g>
	</g>
	<g>
		<path fill="#FFFFFF" d="M81.6568,74.2964c2.4544,14.7456-6.6437,28.6535-20.3222,31.0536
			c-13.6624,2.4057-26.7598-7.602-29.2034-22.3518c-2.4438-14.7497,6.6681-28.6618,20.3414-31.0648
			C66.1539,49.528,79.2188,59.5427,81.6568,74.2964z"/>
		<path fill="#AA5B26" d="M57.2674,110.1979c-14.5963,0-27.0287-11.1332-29.5618-26.4749
			c-2.8456-17.1402,7.917-33.3874,23.9904-36.2138c1.6017-0.2808,3.2362-0.4248,4.8518-0.4248
			c14.5799,0,27.0042,11.1346,29.5429,26.4735c2.8506,17.1483-7.9065,33.3941-23.9743,36.2163
			C60.5144,110.0553,58.8855,110.1979,57.2674,110.1979z"/>
		<path fill="#FFFFFF" d="M32.1365,82.9913c-2.4491-14.7428,6.6628-28.6549,20.3361-31.0578
			c13.6813-2.4055,26.7462,7.6092,29.187,22.3573c2.4516,14.7511-6.6464,28.659-20.325,31.0592
			C47.6722,107.7558,34.5748,97.748,32.1365,82.9913z"/>
		<g>
			<defs>
				<path id="SVGID_4_" d="M32.1365,82.9913c-2.4491-14.7428,6.6628-28.6549,20.3361-31.0578
					c13.6813-2.4055,26.7462,7.6092,29.187,22.3573c2.4516,14.7511-6.6464,28.659-20.325,31.0592
					C47.6722,107.7558,34.5748,97.748,32.1365,82.9913z"/>
			</defs>
			<clipPath id="SVGID_5_">
				<use xlink:href="#SVGID_4_"  overflow="visible"/>
			</clipPath>
		</g>
		<path fill="#6D2F16" d="M76.9952,73.0202c1.2353,5.0514-1.7432,10.1165-6.6656,11.3248
			c-4.9169,1.1958-9.8966-1.9306-11.1346-6.9859c-2.3132-9.5504,9.1389-11.9153,6.6737-11.3153
			C70.7883,64.8369,75.768,67.9688,76.9952,73.0202z"/>
		<path fill="none" d="M32.1365,82.9913c-2.4491-14.7428,6.6628-28.6549,20.3361-31.0578
			c13.6813-2.4055,26.7462,7.6092,29.187,22.3573c2.4516,14.7511-6.6464,28.659-20.325,31.0592
			C47.6722,107.7558,34.5748,97.748,32.1365,82.9913z"/>
	</g>
	<g>
		<g>
			<path fill="#FFFFFF" d="M168.4335,71.8081c3.0355,18.2793-8.2429,35.5173-25.196,38.4902
				c-16.942,2.9813-33.1727-9.4239-36.2027-27.7032c-3.0246-18.2848,8.2673-35.5309,25.2121-38.5108
				C149.2053,41.1058,165.4035,53.5152,168.4335,71.8081z"/>
			<path fill="#AA5B26" d="M138.193,115.2316c-17.5611,0-32.5266-13.4219-35.5785-31.9144
				c-3.4319-20.6686,9.5082-40.2537,28.8559-43.6557c1.9223-0.3381,3.8826-0.5091,5.8213-0.5091
				c17.5475,0,32.5077,13.4219,35.5729,31.913c3.4319,20.6819-9.5082,40.2646-28.8506,43.657
				C142.0918,115.0592,140.1342,115.2316,138.193,115.2316z"/>
			<path fill="#FFFFFF" d="M107.0457,82.5854c-3.0355-18.2751,8.2565-35.5212,25.2012-38.5011
				c16.9584-2.9785,33.1566,9.4309,36.1865,27.7168c3.0355,18.2862-8.2429,35.5243-25.196,38.4972
				C126.2955,113.2795,110.0648,100.8744,107.0457,82.5854z"/>
			<g>
				<defs>
					<path id="SVGID_6_" d="M107.0457,82.5854c-3.0355-18.2751,8.2565-35.5212,25.2012-38.5011
						c16.9584-2.9785,33.1566,9.4309,36.1865,27.7168c3.0355,18.2862-8.2429,35.5243-25.196,38.4972
						C126.2955,113.2795,110.0648,100.8744,107.0457,82.5854z"/>
				</defs>
				<clipPath id="SVGID_7_">
					<use xlink:href="#SVGID_6_"  overflow="visible"/>
				</clipPath>
			</g>
			<path fill="#6D2F16" d="M136.325,71.383c1.5911,6.5339-2.2534,13.0936-8.6229,14.6466c-6.3698,1.5558-12.81-2.4897-14.4172-9.033
				c-1.5856-6.5352,2.2698-13.0936,8.6393-14.6438C128.2803,60.7969,134.7286,64.8505,136.325,71.383z"/>
			<path fill="none" d="M107.0457,82.5854c-3.0355-18.2751,8.2565-35.5212,25.2012-38.5011
				c16.9584-2.9785,33.1566,9.4309,36.1865,27.7168c3.0355,18.2862-8.2429,35.5243-25.196,38.4972
				C126.2955,113.2795,110.0648,100.8744,107.0457,82.5854z"/>
		</g>
	</g>
	<g>
		<path fill="#919191" d="M111.7265,179.6225c-3.155,0-6.1986-0.9517-8.805-2.7491l-35.6166-24.5862
			c-3.4128-2.3554-5.7017-5.8972-6.4482-9.9752c-0.7468-4.0781,0.1385-8.2009,2.495-11.6125
			c2.897-4.1976,7.6757-6.7035,12.7827-6.7035c3.1575,0,6.1986,0.9503,8.805,2.7488l35.6163,24.5879
			c3.4102,2.354,5.6964,5.8972,6.4457,9.9738c0.744,4.0781-0.1357,8.2023-2.4925,11.6122
			C121.6092,177.1164,116.8308,179.6225,111.7265,179.6225z"/>
		<path fill="#FFFFFF" d="M121.8864,171.1094c-3.869,5.6066-11.55,7.0115-17.1541,3.1425L69.116,149.6671
			c-5.6066-3.8704-7.0104-11.5527-3.1442-17.158l0,0c3.8718-5.6052,11.5527-7.0132,17.1594-3.1428l35.6163,24.5865
			C124.3516,157.8218,125.7553,165.5053,121.8864,171.1094L121.8864,171.1094z"/>
		<path fill="#919191" d="M76.1263,179.6225c-5.1017,0-9.8801-2.5061-12.7772-6.7037c-2.3568-3.41-3.2418-7.5342-2.498-11.6122
			c0.7496-4.0767,3.0382-7.6198,6.4485-9.9738l35.6163-24.5879c2.6037-1.7985,5.65-2.7488,8.805-2.7488
			c5.1042,0,9.8829,2.5058,12.7827,6.7035c2.3565,3.4116,3.2362,7.5345,2.495,11.6125c-0.7493,4.078-3.0382,7.6198-6.4482,9.9752
			l-35.6166,24.5862c-2.6065,1.7974-5.65,2.7491-8.8022,2.7491H76.1263z"/>
		<path fill="#FFFFFF" d="M65.969,171.1094c3.8693,5.6066,11.5475,7.0115,17.1513,3.1425l35.6191-24.5849
			c5.6066-3.8704,7.0076-11.5527,3.1414-17.158l0,0c-3.8718-5.6052-11.55-7.0132-17.1566-3.1428l-35.6163,24.5865
			C63.5065,157.8218,62.1,165.5053,65.969,171.1094L65.969,171.1094z"/>
	</g>
</g>
</svg>
