<?xml version="1.0" encoding="utf-8"?>
<!-- Generator: Adobe Illustrator 17.0.0, SVG Export Plug-In . SVG Version: 6.00 Build 0)  -->
<!DOCTYPE svg PUBLIC "-//W3C//DTD SVG 1.1//EN" "http://www.w3.org/Graphics/SVG/1.1/DTD/svg11.dtd">
<svg version="1.1" id="Layer_1" xmlns="http://www.w3.org/2000/svg" xmlns:xlink="http://www.w3.org/1999/xlink" x="0px" y="0px"
	  viewBox="0 0 200 200" enable-background="new 0 0 200 200" xml:space="preserve">
<g>
	<g>
		<g>
			<g>
				<path fill="#E4A024" d="M99.9972,198.9987C45.4105,198.9987,1,154.588,1,100.0001C1,45.412,45.4105,1.0013,99.9972,1.0013
					C154.5867,1.0013,199,45.412,199,100.0001C199,154.588,154.5867,198.9987,99.9972,198.9987z"/>
				<path fill="#E4A024" d="M99.9972,197.6086c-53.8236,0-97.6071-43.7874-97.6071-97.6085S46.1737,2.3914,99.9972,2.3914
					c53.8238,0,97.6127,43.7877,97.6127,97.6088S153.8211,197.6086,99.9972,197.6086z"/>
				
					<radialGradient id="SVGID_1_" cx="31.2599" cy="-7.0962" r="207.7869" gradientTransform="matrix(0.9829 0 0 0.9829 73.0695 -2.3804)" gradientUnits="userSpaceOnUse">
					<stop  offset="0" style="stop-color:#FFF7C2"/>
					<stop  offset="0.3321" style="stop-color:#FFEB8F"/>
					<stop  offset="1" style="stop-color:#FED01F"/>
				</radialGradient>
				<path fill="url(#SVGID_1_)" d="M192.0494,100.0001c0,50.837-41.2177,92.048-92.0522,92.048s-92.0466-41.211-92.0466-92.048
					c0-50.8373,41.2121-92.0483,92.0466-92.0483S192.0494,49.1628,192.0494,100.0001z"/>
				<g>
					<defs>
						<path id="SVGID_2_" d="M192.0494,100.0001c0,50.837-41.2177,92.048-92.0522,92.048s-92.0466-41.211-92.0466-92.048
							c0-50.8373,41.2121-92.0483,92.0466-92.0483S192.0494,49.1628,192.0494,100.0001z"/>
					</defs>
					<clipPath id="SVGID_3_">
						<use xlink:href="#SVGID_2_"  overflow="visible"/>
					</clipPath>
				</g>
			</g>
		</g>
	</g>
	<path fill="#E4A024" d="M5.9088,79.9084c0,0,6.7226-20.4784,39.0646-25.1334c32.342-4.6566,44.4839,12.9048,44.4839,12.9048"/>
	<path fill="#E4A024" d="M91.8141,81.4303c0,0,3.7603,52.439-34.0608,57.6492c-45.6975,6.295-50.1775-45.3866-50.1775-45.3866"/>
	<g>
		<path fill="#FFFFFF" d="M8.3768,81.6678c3.6952,25.2149,23.8411,37.9798,45.7086,34.7789
			c21.878-3.1998,37.1883-21.1493,33.5039-46.3694L8.3768,81.6678z"/>
		<path fill="#AA5B26" d="M54.2508,120.3006c-25.4484,3.5201-45.874-12.1363-49.6668-38.0763
			c-0.1521-1.0073,0.114-2.0324,0.7195-2.8495c0.6053-0.8146,1.5122-1.3562,2.5195-1.5041c0,0,79.2289-11.5947,79.2369-11.5961
			c0.9964-0.1357,2.0093,0.1234,2.8211,0.7248c0.8143,0.6083,1.3548,1.5163,1.5041,2.525
			c3.8228,26.1382-11.2895,46.9967-36.7406,50.7205L54.2508,120.3006z"/>
		<path fill="#FFFFFF" d="M8.3768,81.6678c3.6952,25.2149,23.8411,37.9798,45.7086,34.7789
			c21.878-3.1998,37.1883-21.1493,33.5039-46.3694L8.3768,81.6678z"/>
		<path fill="none" d="M8.3768,81.6678c3.6952,25.2149,23.8411,37.9798,45.7086,34.7789
			c21.878-3.1998,37.1883-21.1493,33.5039-46.3694L8.3768,81.6678z"/>
		<path fill="#6D2F16" d="M42.562,82.519c0.9074,6.5935,6.994,11.1997,13.593,10.2861c6.5907-0.9124,11.1981-6.9968,10.2866-13.5918
			c-0.2997-2.1609-1.1961-4.0745-2.4432-5.6842l-20.6961,3.0283C42.5896,78.4012,42.2719,80.4231,42.562,82.519z"/>
	</g>
	<path fill="#E4A024" d="M110.5861,67.6701c0,0,12.3212-17.6846,44.636-12.8572c32.3176,4.8276,38.9045,25.1376,38.9045,25.1376"/>
	<g>
		<path fill="#E4A024" d="M108.1859,81.2143c0,0-4.1403,53.4221,33.7866,57.8271c48.3256,5.6122,50.3839-45.122,50.3839-45.122"/>
		<g>
			<path fill="#FFFFFF" d="M191.6151,81.8932c-3.8228,25.1932-24.0394,37.8508-45.8876,34.5356
				c-21.8591-3.3163-37.0745-21.3459-33.257-46.5474L191.6151,81.8932z"/>
			<path fill="#AA5B26" d="M145.5401,120.2803c25.432,3.6557,45.9363-11.8947,49.8706-37.8116
				c0.1574-1.0073-0.1004-2.0338-0.7087-2.8536c-0.6028-0.8185-1.5013-1.3657-2.5086-1.5177c0,0-79.1638-12.0129-79.1746-12.0143
				c-0.9937-0.1423-2.009,0.1115-2.8236,0.7087c-0.8199,0.6055-1.3657,1.5097-1.515,2.517
				c-3.9613,26.119,11.0395,47.0564,36.469,50.916L145.5401,120.2803z"/>
			<path fill="#FFFFFF" d="M191.6151,81.8932c-3.8228,25.1932-24.0394,37.8508-45.8876,34.5356
				c-21.8591-3.3163-37.0745-21.3459-33.257-46.5474L191.6151,81.8932z"/>
			<path fill="none" d="M191.6151,81.8932c-3.8228,25.1932-24.0394,37.8508-45.8876,34.5356
				c-21.8591-3.3163-37.0745-21.3459-33.257-46.5474L191.6151,81.8932z"/>
			<path fill="#6D2F16" d="M133.5723,79.129c-0.9502,6.5895,3.6268,12.6999,10.2134,13.646
				c6.5893,0.949,12.7022-3.6246,13.6469-10.2141c0.3011-2.0934-0.0069-4.1163-0.7085-5.9632l-20.6837-3.1391
				C134.7863,75.0618,133.8803,76.9705,133.5723,79.129z"/>
		</g>
	</g>
	<g>
		<path fill="#A04E17" d="M116.6678,183.0082c0,0-11.729-11.121-15.6389-11.121c-3.9096,0-15.6416,11.121-15.6416,11.121
			c-1.1566,0-2.1964-0.7209-2.6009-1.8083c-0.4073-1.0873-0.0951-2.3132,0.7818-3.0735l15.6389-13.5537
			c1.0481-0.9041,2.5956-0.9041,3.6438,0l15.6389,13.5537c0.8769,0.7604,1.1891,1.9862,0.7818,3.0735
			C118.867,182.2873,117.8272,183.0082,116.6678,183.0082z"/>
	</g>
</g>
</svg>
