<?xml version="1.0" encoding="utf-8"?>
<!-- Generator: Adobe Illustrator 17.0.0, SVG Export Plug-In . SVG Version: 6.00 Build 0)  -->
<!DOCTYPE svg PUBLIC "-//W3C//DTD SVG 1.1//EN" "http://www.w3.org/Graphics/SVG/1.1/DTD/svg11.dtd">
<svg version="1.1" id="Layer_1" xmlns="http://www.w3.org/2000/svg" xmlns:xlink="http://www.w3.org/1999/xlink" x="0px" y="0px"
	  viewBox="0 0 200 200" enable-background="new 0 0 200 200" xml:space="preserve">
<g>
	<g>
		<g>
			<g>
				<path fill="#E4A024" d="M99.9972,199c-54.4701,0-98.7862-44.3161-98.7862-98.7875c0-54.4717,44.3161-98.7878,98.7862-98.7878
					c54.4731,0,98.7917,44.3161,98.7917,98.7878C198.7889,154.6839,154.4704,199,99.9972,199z"/>
				<path fill="#E4A024" d="M99.9972,197.6128c-53.7088,0-97.399-43.6941-97.399-97.4004S46.2884,2.8118,99.9972,2.8118
					c53.7091,0,97.4046,43.6944,97.4046,97.4007S153.7063,197.6128,99.9972,197.6128z"/>
				<radialGradient id="SVGID_1_" cx="103.7877" cy="-8.9099" r="203.8038" gradientUnits="userSpaceOnUse">
					<stop  offset="0" style="stop-color:#FFF7C2"/>
					<stop  offset="0.3321" style="stop-color:#FFEB8F"/>
					<stop  offset="1" style="stop-color:#FED01F"/>
				</radialGradient>
				<path fill="url(#SVGID_1_)" d="M191.8531,100.2125c0,50.7286-41.1298,91.8518-91.8559,91.8518
					c-50.7259,0-91.8504-41.1231-91.8504-91.8518c0-50.7289,41.1245-91.852,91.8504-91.852
					C150.7234,8.3604,191.8531,49.4835,191.8531,100.2125z"/>
				<g>
					<defs>
						<path id="SVGID_2_" d="M191.8531,100.2125c0,50.7286-41.1298,91.8518-91.8559,91.8518
							c-50.7259,0-91.8504-41.1231-91.8504-91.8518c0-50.7289,41.1245-91.852,91.8504-91.852
							C150.7234,8.3604,191.8531,49.4835,191.8531,100.2125z"/>
					</defs>
					<clipPath id="SVGID_3_">
						<use xlink:href="#SVGID_2_"  overflow="visible"/>
					</clipPath>
				</g>
			</g>
		</g>
	</g>
	<g>
		<path fill="#FFFFFF" d="M7.7271,64.6516c0,16.1473,13.5572,30.9847,30.0297,30.9347
			c16.4778-0.0461,29.6449-12.4819,29.6449-31.1081L7.7271,64.6516z"/>
		<path fill="#AA5B26" d="M37.67,99.3574C19.5124,99.3563,4.1671,83.4622,4.1671,64.6516c0-2.0769,1.5875-3.7647,3.5489-3.77
			l59.6858-0.1748c0.943,0,1.8452,0.3942,2.5116,1.1014c0.6719,0.7072,1.0484,1.6676,1.0484,2.67
			c0,18.5288-15.5134,34.8293-33.1969,34.8792H37.67z"/>
		<path fill="#FFFFFF" d="M7.7271,64.6516c0,16.7771,13.5572,30.9847,30.0297,30.9347
			c16.4778-0.0461,29.6449-15.5542,29.6449-31.1081L7.7271,64.6516z"/>
		<path fill="none" d="M7.7271,64.6516c0,15.3805,13.5572,30.9847,30.0297,30.9347c16.4778-0.0461,29.6449-14.9214,29.6449-31.1081
			L7.7271,64.6516z"/>
		<path fill="#6D2F16" d="M62.1355,69.1894c0.0056-1.6845-0.4125-3.2637-1.107-4.6928l-20.2421,0.0589
			c-0.6459,1.3696-1.0306,2.8808-1.0362,4.4877c-0.0319,6.0255,4.9643,10.9413,11.1385,10.9835
			C57.074,80.0687,62.105,75.2164,62.1355,69.1894z"/>
	</g>
	<path fill="#FFFFFF" d="M85.8224,64.6516c0,16.1473,14.3593,30.9847,31.8178,30.9347
		c17.4615-0.0461,31.4169-12.4819,31.4169-31.1081L85.8224,64.6516z"/>
	<path fill="#AA5B26" d="M117.5509,99.3574C98.3093,99.3563,82.051,83.4622,82.051,64.6516c0-2.0769,1.6824-3.7647,3.7606-3.77
		l63.2455-0.1748c0.9943,0,1.9534,0.3942,2.6606,1.1014c0.7099,0.7072,1.1081,1.6676,1.1081,2.67
		c0,18.5288-16.4425,34.8293-35.1775,34.8792H117.5509z"/>
	<path fill="#FFFFFF" d="M85.8224,64.6516c0,16.7771,14.3593,30.9847,31.8178,30.9347
		c17.4615-0.0461,31.4169-15.5542,31.4169-31.1081L85.8224,64.6516z"/>
	<path fill="none" d="M85.8224,64.6516c0,15.3805,14.3593,30.9847,31.8178,30.9347c17.4615-0.0461,31.4169-14.9214,31.4169-31.1081
		L85.8224,64.6516z"/>
	<g>
		<path fill="#20C9E5" d="M170.1686,66.4209c-13.0504-0.326-23.3855-11.9802-23.0399-25.9788
			c0.326-13.0056,19.6238-34.0331,21.8223-36.3884L171.804,1l2.6937,3.1925c2.08,2.4617,20.293,24.4243,19.9716,37.4311
			c-0.3335,13.676-10.9801,24.8045-23.738,24.8045L170.1686,66.4209z"/>
		<path fill="#ADF5F7" d="M190.7587,41.5318c-0.2899,11.9765-9.4772,21.455-20.4959,21.1796
			c-11.0308-0.2753-19.7206-10.2045-19.4234-22.1776c0.2996-11.9703,20.8246-33.9473,20.8246-33.9473
			S191.0558,29.5575,190.7587,41.5318z"/>
	</g>
	<g>
		<path fill="#AA5B26" d="M166.4726,186.0021c5.5866-1.4332,10.8806-4.2103,15.3156-8.0316
			c15.2507-13.1619,17.4288-35.7518,4.9363-50.512c-1.9101-3.1092-4.9227-8.9314-5.3292-12.1784
			c-0.6991-5.5717-3.0018-9.9418-6.4805-12.3083c-2.4494-1.6663-5.2831-2.2028-7.9789-1.5131
			c-2.9316,0.7505-5.3508,2.8487-6.8112,5.9129c-1.1189,2.3368-1.7151,4.6559-1.937,6.8925
			c-1.8993-1.7989-4.018-3.6521-6.3562-5.4904c-6.9139-5.4307-16.2719-7.33-25.0393-5.0853
			c-10.081,2.5832-20.7774,11.3858-20.5607,28.346c0.1978,15.2249,9.2143,25.4754,18.751,36.3302
			c1.2057,1.368,2.4248,2.7579,3.6521,4.179c0.225,0.2641,0.4661,0.5066,0.7235,0.7344c0.4794,0.6542,0.978,1.3045,1.5145,1.9304
			C139.5584,185.2652,153.1969,189.4023,166.4726,186.0021z"/>
		
			<radialGradient id="SVGID_4_" cx="8502.002" cy="-937.0491" r="118.1931" gradientTransform="matrix(-0.9525 0.244 0.244 0.9525 8444.6416 -1090.6263)" gradientUnits="userSpaceOnUse">
			<stop  offset="0.1174" style="stop-color:#FEEB65"/>
			<stop  offset="1" style="stop-color:#F6B330"/>
		</radialGradient>
		<path fill="url(#SVGID_4_)" d="M163.877,109.1652c-4.8712,10.1964,2.6525,20.3061,3.2459,22.0808
			c0,0-5.9062-9.8064-17.8652-19.2021c-14.0638-11.0484-39.1708-4.0938-38.8621,19.939
			c0.2006,15.466,10.672,25.3955,21.3925,37.8461c0.1925,0.2275,0.4173,0.4159,0.645,0.6029
			c0.5091,0.6991,1.0184,1.3952,1.593,2.0577c11.2543,13.0385,31.4169,14.0869,45.0446,2.3288
			c13.6169-11.7517,15.5378-31.8575,4.286-44.8984c0,0-5.4021-8.609-6.0905-14.1224
			C175.8251,104.3387,167.0416,102.5423,163.877,109.1652z"/>
	</g>
	<g>
		<path fill="#823308" d="M138.5896,36.4971c-1.2362,0-2.3752-0.8153-2.7336-2.0669c-0.1694-0.5862-4.4198-14.5596-19.0656-14.5596
			c-16.3431,0-19.6934,13.8262-19.8296,14.4152c-0.3473,1.5321-1.8724,2.4933-3.4059,2.1377
			c-1.5335-0.35-2.4891-1.8752-2.1391-3.4073c1.489-6.5145,8.7119-18.835,25.3745-18.835c15.1958,0,22.6937,12.2261,24.5383,18.6906
			c0.4306,1.5099-0.4445,3.0836-1.9557,3.5156C139.1119,36.461,138.848,36.4971,138.5896,36.4971z"/>
	</g>
	<g>
		<path fill="#823308" d="M56.3211,35.4762c-1.2557,0-2.4058-0.8404-2.7447-2.1127c-0.1472-0.5375-3.8031-13.3693-16.2654-13.3693
			c-13.8124,0-16.8043,12.7025-16.9265,13.2443c-0.3389,1.5307-1.8807,2.5016-3.3836,2.1655
			c-1.5307-0.3361-2.5058-1.8391-2.1752-3.3711c1.3168-6.1311,7.709-17.728,22.4854-17.728
			c13.4984,0,20.1351,11.5066,21.7603,17.5919c0.4056,1.5168-0.4945,3.0767-2.0141,3.4823
			C56.8128,35.4442,56.5656,35.4748,56.3211,35.4762z"/>
	</g>
	<g>
		<path fill="#A04E17" d="M111.3566,170.912H69.025c-1.5724,0-2.8447-1.2737-2.8447-2.8447c0-1.571,1.2723-2.8447,2.8447-2.8447
			h42.3316c1.5724,0,2.8447,1.2737,2.8447,2.8447C114.2013,169.6383,112.929,170.912,111.3566,170.912z"/>
	</g>
	<path fill="#6D2F16" d="M143.4679,69.1908c0.0097-1.6854-0.3973-3.265-1.0737-4.6945l-19.7379,0.0542
		c-0.6362,1.3739-1.0154,2.8904-1.0223,4.5035c-0.0278,6.0242,4.8352,10.9402,10.8718,10.9781
		C138.5341,80.0715,143.4429,75.2178,143.4679,69.1908z"/>
</g>
</svg>
