<?xml version="1.0" encoding="utf-8"?>
<!-- Generator: Adobe Illustrator 17.0.0, SVG Export Plug-In . SVG Version: 6.00 Build 0)  -->
<!DOCTYPE svg PUBLIC "-//W3C//DTD SVG 1.1//EN" "http://www.w3.org/Graphics/SVG/1.1/DTD/svg11.dtd">
<svg version="1.1" id="Layer_1" xmlns="http://www.w3.org/2000/svg" xmlns:xlink="http://www.w3.org/1999/xlink" x="0px" y="0px"
	  viewBox="0 0 200 200" enable-background="new 0 0 200 200" xml:space="preserve">
<g>
	<g>
		<g>
			<g>
				<path fill="#E4A024" d="M96.3719,194.8989c-12.0946,0-23.9589-2.2893-35.2683-6.8026
					c-23.6447-9.4361-42.2133-27.5495-52.2845-51.0031C-1.2545,113.641-1.6054,87.7029,7.8297,64.0595
					C22.3956,27.5661,57.2423,3.9841,96.5995,3.9841c12.0922,0,23.9565,2.2893,35.2657,6.8026
					c23.6447,9.4361,42.2162,27.5495,52.2898,51.0044c10.0736,23.4536,10.4242,49.3904,0.9894,73.0351
					C170.5812,171.3183,135.7345,194.8989,96.3719,194.8989z"/>
				<path fill="#E4A024" d="M61.6011,186.8514c-48.2007-19.236-71.7618-74.0967-52.5255-122.2946
					c19.239-48.1966,74.0967-71.7615,122.2922-52.5252c48.2057,19.236,71.7666,74.0993,52.5306,122.2973
					C164.6648,182.5255,109.7991,206.0877,61.6011,186.8514z"/>
				
					<radialGradient id="SVGID_1_" cx="465.8885" cy="1613.6122" r="199.8069" gradientTransform="matrix(0.9154 0.3653 -0.3653 0.9154 302.0315 -1644.4019)" gradientUnits="userSpaceOnUse">
					<stop  offset="0" style="stop-color:#FFF7C2"/>
					<stop  offset="0.3321" style="stop-color:#FFEB8F"/>
					<stop  offset="1" style="stop-color:#FED01F"/>
				</radialGradient>
				<path fill="url(#SVGID_1_)" d="M178.9217,132.3417c-18.1707,45.5266-69.8113,67.6989-115.3336,49.5306
					c-45.5226-18.168-67.6986-69.8022-49.5306-115.3285c18.1707-45.525,69.8008-67.7013,115.3259-49.533
					C174.906,35.1788,197.09,86.8153,178.9217,132.3417z"/>
				<g>
					<defs>
						<path id="SVGID_2_" d="M178.9217,132.3417c-18.1707,45.5266-69.8113,67.6989-115.3336,49.5306
							c-45.5226-18.168-67.6986-69.8022-49.5306-115.3285c18.1707-45.525,69.8008-67.7013,115.3259-49.533
							C174.906,35.1788,197.09,86.8153,178.9217,132.3417z"/>
					</defs>
					<clipPath id="SVGID_3_">
						<use xlink:href="#SVGID_2_"  overflow="visible"/>
					</clipPath>
				</g>
			</g>
		</g>
	</g>
	
		<radialGradient id="SVGID_4_" cx="34.3492" cy="84.1705" r="144.8201" gradientTransform="matrix(0.9855 0 0 0.9855 63.347 -1.9191)" gradientUnits="userSpaceOnUse">
		<stop  offset="0" style="stop-color:#43B649;stop-opacity:0.8"/>
		<stop  offset="0.062" style="stop-color:#4DB949;stop-opacity:0.7146"/>
		<stop  offset="0.1656" style="stop-color:#66C14A;stop-opacity:0.5718"/>
		<stop  offset="0.2982" style="stop-color:#90CD4B;stop-opacity:0.3891"/>
		<stop  offset="0.4529" style="stop-color:#CADE4C;stop-opacity:0.176"/>
		<stop  offset="0.5806" style="stop-color:#FFEE4D;stop-opacity:0"/>
	</radialGradient>
	<ellipse fill="url(#SVGID_4_)" cx="96.6035" cy="94.5787" rx="75.5536" ry="50.2112"/>
	<g>
		<path fill="#FFFFFF" d="M88.2013,61.6653c0.6415,21.2155-15.5423,39.0302-36.153,39.7813
			c-20.6212,0.7581-37.8887-15.8329-38.5195-37.047c-0.631-21.2152,15.5736-39.0353,36.2002-39.7904
			C70.3499,23.8538,87.5757,40.4461,88.2013,61.6653z"/>
		<path fill="#AA5B26" d="M48.4618,105.6669C27.0215,104.5097,9.7303,86.432,9.081,64.5109
			C8.3741,41.0088,26.5266,21.2007,49.5483,20.3563c1.2669-0.0469,2.5183-0.0351,3.7565,0.0327
			c21.768,1.1717,38.6951,18.8658,39.3497,41.1547c0.712,23.5059-17.4274,43.3169-40.4464,44.1533
			C50.941,105.7455,49.695,105.735,48.4618,105.6669z"/>
		<path fill="#FFFFFF" d="M13.534,64.3919C12.8978,43.1845,29.1025,25.3644,49.729,24.6092
			c20.6209-0.7554,37.8466,15.8369,38.4804,37.051c0.6335,21.2206-15.5503,39.0353-36.161,39.7864
			C31.4272,102.2048,14.1596,85.6138,13.534,64.3919z"/>
		<g>
			<defs>
				<path id="SVGID_5_" d="M13.534,64.3919C12.8978,43.1845,29.1025,25.3644,49.729,24.6092
					c20.6209-0.7554,37.8466,15.8369,38.4804,37.051c0.6335,21.2206-15.5503,39.0353-36.161,39.7864
					C31.4272,102.2048,14.1596,85.6138,13.534,64.3919z"/>
			</defs>
			<clipPath id="SVGID_6_">
				<use xlink:href="#SVGID_5_"  overflow="visible"/>
			</clipPath>
		</g>
		<path fill="#6D2F16" d="M59.1193,61.6077c0.4292,3.9857-2.5027,7.5449-6.5656,7.9494c-4.0578,0.4043-7.7071-2.5027-8.1365-6.4911
			c-0.4319-3.9846,2.4976-7.5462,6.5632-7.9467C55.0406,54.7124,58.6794,57.622,59.1193,61.6077z"/>
		<path fill="none" d="M13.534,64.3919C12.8978,43.1845,29.1025,25.3644,49.729,24.6092
			c20.6209-0.7554,37.8466,15.8369,38.4804,37.051c0.6335,21.2206-15.5503,39.0353-36.161,39.7864
			C31.4272,102.2048,14.1596,85.6138,13.534,64.3919z"/>
	</g>
	<g>
		<g>
			<path fill="#FFFFFF" d="M106.5841,61.6653c-0.6412,21.2155,15.5399,39.0302,36.1532,39.7813
				c20.6212,0.7581,37.8887-15.8329,38.5195-37.047c0.631-21.2152-15.5739-39.0353-36.2001-39.7904
				C124.4355,23.8538,107.2098,40.4461,106.5841,61.6653z"/>
			<path fill="#AA5B26" d="M146.3239,105.6669c21.4404-1.1573,38.7316-19.235,39.3808-41.156
				c0.7069-23.5021-17.4456-43.3102-40.4673-44.1546c-1.2672-0.0469-2.5185-0.0351-3.7568,0.0327
				c-21.7728,1.1717-38.6948,18.8658-39.3495,41.1547c-0.712,23.5059,17.4274,43.3169,40.4464,44.1533
				C143.8447,105.7455,145.0907,105.735,146.3239,105.6669z"/>
			<path fill="#FFFFFF" d="M181.2518,64.3919c0.6361-21.2074-15.5688-39.0275-36.1951-39.7827
				c-20.6212-0.7554-37.8469,15.8369-38.4777,37.051c-0.6361,21.2206,15.5449,39.0353,36.1583,39.7864
				C163.3585,102.2048,180.6261,85.6138,181.2518,64.3919z"/>
			<g>
				<defs>
					<path id="SVGID_7_" d="M181.2518,64.3919c0.6361-21.2074-15.5688-39.0275-36.1951-39.7827
						c-20.6212-0.7554-37.8469,15.8369-38.4777,37.051c-0.6361,21.2206,15.5449,39.0353,36.1583,39.7864
						C163.3585,102.2048,180.6261,85.6138,181.2518,64.3919z"/>
				</defs>
				<clipPath id="SVGID_8_">
					<use xlink:href="#SVGID_7_"  overflow="visible"/>
				</clipPath>
			</g>
			<path fill="#6D2F16" d="M138.3471,61.6077c-0.4294,3.9857,2.5,7.5449,6.5656,7.9494c4.0578,0.4043,7.7071-2.5027,8.1365-6.4911
				c0.4292-3.9846-2.4976-7.5462-6.5632-7.9467C142.4258,54.7124,138.7868,57.622,138.3471,61.6077z"/>
			<path fill="none" d="M181.2518,64.3919c0.6361-21.2074-15.5688-39.0275-36.1951-39.7827
				c-20.6212-0.7554-37.8469,15.8369-38.4777,37.051c-0.6361,21.2206,15.5449,39.0353,36.1583,39.7864
				C163.3585,102.2048,180.6261,85.6138,181.2518,64.3919z"/>
		</g>
	</g>
	<g>
		
			<radialGradient id="SVGID_9_" cx="33.2194" cy="153.1133" r="44.2724" gradientTransform="matrix(0.9855 0 0 0.9855 63.347 -1.9191)" gradientUnits="userSpaceOnUse">
			<stop  offset="0.0054" style="stop-color:#A34E1F"/>
			<stop  offset="0.3187" style="stop-color:#9E491D"/>
			<stop  offset="0.6963" style="stop-color:#8F3A15"/>
			<stop  offset="1" style="stop-color:#7E290D"/>
		</radialGradient>
		<path fill="url(#SVGID_9_)" d="M77.4994,105.9704c0,0-15.0632,53.6538-21.2415,82.3171
			c-0.8037,3.7278,2.4582,12.3511,16.3095,3.6388c16.0084-10.0685,36.8861-4.3521,48.2792,1.6795s16.058-0.5916,15.0474-5.3183
			c-0.7616-3.5616-22.6419-82.3171-22.6419-82.3171l-8.2437,8.7767l-9.4061-12.8002l-9.6471,13.024L77.4994,105.9704z"/>
		<path fill="#FFFFFF" d="M79.2692,113.2914l7.0369,7.2607l9.2699-12.2857l8.7282,11.3971l7.5787-7.0409l3.7986,13.8499
			c0,0-20.4405,7.8183-40.881-0.4477L79.2692,113.2914z"/>
		<linearGradient id="SVGID_10_" gradientUnits="userSpaceOnUse" x1="95.3227" y1="138.1954" x2="94.8751" y2="214.5981">
			<stop  offset="0" style="stop-color:#FFB18E"/>
			<stop  offset="1" style="stop-color:#FF6659"/>
		</linearGradient>
		<path fill="url(#SVGID_10_)" d="M65.6404,189.6919c0,0,10.5004-7.1481,29.6005-7.1481s29.1528,8.4885,29.1528,8.4885
			s-5.4582-22.1159-28.3073-22.1159C73.2376,168.9163,65.6404,189.6919,65.6404,189.6919z"/>
	</g>
	<g>
		<path fill="#20C9E5" d="M180.8665,141.8764c-9.7415-0.2725-17.4543-10.0044-17.1962-21.6955
			c0.2422-10.8001,14.4312-28.1304,16.0477-30.0709l2.3609-2.8341l2.2348,2.9631c1.5265,2.028,14.9192,20.1272,14.6832,30.9305
			c-0.2502,11.42-8.1949,20.7124-17.7122,20.7124L180.8665,141.8764z"/>
		<path fill="#ADF5F7" d="M195.9238,121.0844c-0.2141,9.8104-6.9304,17.5746-14.9813,17.3494
			c-8.063-0.2254-14.4171-8.3587-14.1991-18.1665c0.2182-9.8048,15.2214-27.8065,15.2214-27.8065S196.14,111.2763,195.9238,121.0844
			z"/>
	</g>
</g>
</svg>
