<?xml version="1.0" encoding="utf-8"?>
<!-- Generator: Adobe Illustrator 17.0.0, SVG Export Plug-In . SVG Version: 6.00 Build 0)  -->
<!DOCTYPE svg PUBLIC "-//W3C//DTD SVG 1.1//EN" "http://www.w3.org/Graphics/SVG/1.1/DTD/svg11.dtd">
<svg version="1.1" id="Layer_1" xmlns="http://www.w3.org/2000/svg" xmlns:xlink="http://www.w3.org/1999/xlink" x="0px" y="0px" viewBox="0 0 200 200" enable-background="new 0 0 200 200" xml:space="preserve">
<g>
	<g>
		<g>
			<g>
				<path fill="#E5A126" d="M100.9783,196.1501c-53.602,0-97.2119-43.6096-97.2119-97.2132S47.3763,1.7236,100.9783,1.7236
					c53.605,0,97.2173,43.6096,97.2173,97.2132S154.5834,196.1501,100.9783,196.1501z"/>
				<path fill="#E5A126" d="M100.9783,194.7851c-52.8529,0-95.8468-42.9978-95.8468-95.8482S48.1254,3.0887,100.9783,3.0887
					c52.8532,0,95.8523,42.9978,95.8523,95.8482S153.8315,194.7851,100.9783,194.7851z"/>
				<radialGradient id="SVGID_1_" cx="104.7084" cy="-8.4462" r="200.5557" gradientUnits="userSpaceOnUse">
					<stop  offset="0" style="stop-color:#FFF7C2"/>
					<stop  offset="0.3276" style="stop-color:#FFE996"/>
					<stop  offset="1" style="stop-color:#FDD022"/>
				</radialGradient>
				<path fill="url(#SVGID_1_)" d="M191.3704,98.9369c0,49.9205-40.4743,90.388-90.3921,90.388
					c-49.9175,0-90.3866-40.4675-90.3866-90.388c0-49.9202,40.4691-90.388,90.3866-90.388
					C150.8961,8.5489,191.3704,49.0167,191.3704,98.9369z"/>
				<g>
					<defs>
						<path id="SVGID_2_" d="M191.3704,98.9369c0,49.9205-40.4743,90.388-90.3921,90.388c-49.9175,0-90.3866-40.4675-90.3866-90.388
							c0-49.9202,40.4691-90.388,90.3866-90.388C150.8961,8.5489,191.3704,49.0167,191.3704,98.9369z"/>
					</defs>
					<clipPath id="SVGID_3_">
						<use xlink:href="#SVGID_2_"  overflow="visible"/>
					</clipPath>
				</g>
			</g>
		</g>
	</g>
	<g>
		<g>
			<path fill="#6D3118" d="M177.0267,88.7512c0,19.5413-15.418,35.3819-34.4302,35.3819c-19.0201,0-34.4356-15.8406-34.4356-35.3819
				s15.4155-35.3835,34.4356-35.3835C161.6087,53.3676,177.0267,69.2099,177.0267,88.7512z"/>
			<path fill="#FFFFFF" d="M169.1245,87.4754c-4.3084,9.5499-15.4794,13.8263-24.9469,9.5526
				c-9.4702-4.2737-13.6532-15.4794-9.3421-25.032c4.3111-9.5515,15.4849-13.828,24.9523-9.5554
				C169.2577,66.7157,173.4328,77.9227,169.1245,87.4754z"/>
			<path fill="#FFFFFF" d="M166.2395,104.7545c1.4986,3.3659-0.6956,7.6143-4.9003,9.4874
				c-4.2016,1.8715-8.8221,0.6585-10.3231-2.7074c-1.4986-3.3673,0.6877-7.6145,4.8923-9.486
				C160.1129,100.1753,164.7413,101.3872,166.2395,104.7545z"/>
			<path fill="#FFFFFF" d="M139.1252,111.7116c-3.7539,4.7725-11.4536,4.9803-17.1912,0.4679
				c-5.7428-4.515-7.3557-12.0455-3.6046-16.8191c3.7539-4.7752,11.4509-4.983,17.1939-0.4693
				C141.2635,99.4048,142.8791,106.9366,139.1252,111.7116z"/>
		</g>
		<g>
			<path fill="#82361A" d="M159.3223,60.7684c-0.1289,0-0.2578-0.0082-0.3894-0.0274c-35.3208-4.9166-33.182-25.8908-33.075-26.7806
				c0.1892-1.5383,1.5849-2.642,3.1287-2.4487c1.5301,0.1865,2.6242,1.5726,2.4487,3.1027
				c-0.0713,0.7267-1.2641,16.4539,28.2709,20.5656c1.5356,0.2139,2.6077,1.6315,2.3938,3.1671
				C161.9053,59.7524,160.7015,60.7684,159.3223,60.7684z"/>
		</g>
		<path fill="none" stroke="#C97D2E" stroke-width="2" stroke-linecap="round" stroke-linejoin="round" stroke-miterlimit="10" d="
			M111.6828,30.2284c0,0-2.0902,8.1079,3.1009,15.8996"/>
	</g>
	<g>
		<g>
			<ellipse fill="#6D3118" cx="59.8922" cy="88.7512" rx="34.4342" ry="35.3819"/>
			<path fill="#FFFFFF" d="M86.4214,87.4754c-4.3056,9.5499-15.4794,13.8263-24.9441,9.5526
				c-9.4702-4.2737-13.6532-15.4794-9.3421-25.032c4.3084-9.5515,15.4849-13.828,24.9496-9.5554
				C86.5546,66.7157,90.7298,77.9227,86.4214,87.4754z"/>
			<path fill="#FFFFFF" d="M83.5368,104.7545c1.501,3.3659-0.6932,7.6143-4.9003,9.4874
				c-4.2019,1.8715-8.8251,0.6585-10.3206-2.7074c-1.5037-3.3673,0.6877-7.6145,4.8923-9.486
				C77.4126,100.1753,82.0382,101.3872,83.5368,104.7545z"/>
			<path fill="#FFFFFF" d="M56.425,111.7116c-3.7539,4.7725-11.4509,4.9803-17.1912,0.4679
				c-5.7455-4.515-7.3557-12.0455-3.6046-16.8191c3.7539-4.7752,11.4511-4.983,17.1939-0.4693
				C58.5604,99.4048,60.1788,106.9366,56.425,111.7116z"/>
		</g>
		<g>
			<path fill="#82361A" d="M42.9344,60.7684c-1.3793,0-2.583-1.0159-2.7777-2.4213c-0.2139-1.5356,0.8583-2.9532,2.3938-3.1671
				c29.9107-4.1652,28.2901-20.3792,28.2682-20.5423c-0.1865-1.5383,0.9104-2.9381,2.4487-3.126
				c1.574-0.1892,2.9395,0.9104,3.1287,2.4487c0.1069,0.8898,2.2458,21.864-33.0723,26.7806
				C43.1922,60.7601,43.0633,60.7684,42.9344,60.7684z"/>
		</g>
		<path fill="none" stroke="#C97D2E" stroke-width="2" stroke-linecap="round" stroke-linejoin="round" stroke-miterlimit="10" d="
			M90.1939,30.2284c0,0,2.0932,8.1079-3.1006,15.8996"/>
	</g>
	<g>
		<path fill="#AA5C26" d="M167.4465,198.2764c-15.5703,0-24.5043-11.5003-24.5043-31.5534c0-20.0518,8.934-31.5521,24.5043-31.5521
			c17.399,0,31.5535,14.1531,31.5535,31.5521C199,184.1208,184.8455,198.2764,167.4465,198.2764z"/>
		<radialGradient id="SVGID_4_" cx="182.8165" cy="113.8099" r="123.9838" gradientUnits="userSpaceOnUse">
			<stop  offset="0.1174" style="stop-color:#FCEA65"/>
			<stop  offset="1" style="stop-color:#F5B32D"/>
		</radialGradient>
		<path fill="url(#SVGID_4_)" d="M195.1768,166.7229c0,15.3156-12.4162,27.7305-27.7302,27.7305
			c-15.3142,0-20.6811-12.4149-20.6811-27.7305c0-15.3153,5.3668-27.7302,20.6811-27.7302
			C182.7605,138.9927,195.1768,151.4076,195.1768,166.7229z"/>
		<path fill="#AA5C26" d="M156.9313,145.9485c0-5.3974-4.5617-9.7899-10.1658-9.7899c-5.5989,0-10.1554,4.3925-10.1554,9.7899
			v14.0933c0,5.3961,4.5565,9.7872,10.1554,9.7872c5.6041,0,10.1658-4.3911,10.1658-9.7872V145.9485z"/>
		<path fill="#EBAD20" d="M139.7161,160.0418c0,3.6884,3.1595,6.6811,7.0494,6.6811l0,0c3.9005,0,7.0571-2.9928,7.0571-6.6811
			v-14.0933c0-3.6938-3.1566-6.6852-7.0571-6.6852l0,0c-3.8898,0-7.0494,2.9914-7.0494,6.6852V160.0418z"/>
		<radialGradient id="SVGID_5_" cx="131.1148" cy="100.5641" r="106.8638" gradientUnits="userSpaceOnUse">
			<stop  offset="0.1174" style="stop-color:#FCEA65"/>
			<stop  offset="1" style="stop-color:#F5B32D"/>
		</radialGradient>
		<path fill="url(#SVGID_5_)" d="M139.7161,160.0418c0,3.6884,3.1595,6.6811,7.0494,6.6811l0,0
			c3.9005,0,7.0571-2.9928,7.0571-6.6811v-14.0933c0-3.6938-3.1566-6.6852-7.0571-6.6852l0,0c-3.8898,0-7.0494,2.9914-7.0494,6.6852
			V160.0418z"/>
	</g>
	<g>
		<path fill="#AA5C26" d="M32.5534,198.2764c15.5703,0,24.4991-11.5003,24.4991-31.5534c0-20.0518-8.9288-31.5521-24.4991-31.5521
			C15.1545,135.1708,1,149.324,1,166.7229C1,184.1208,15.1545,198.2764,32.5534,198.2764z"/>
		
			<radialGradient id="SVGID_6_" cx="7876.2749" cy="113.8099" r="123.9835" gradientTransform="matrix(-1 0 0 1 7893.457 0)" gradientUnits="userSpaceOnUse">
			<stop  offset="0.1174" style="stop-color:#FCEA65"/>
			<stop  offset="1" style="stop-color:#F5B32D"/>
		</radialGradient>
		<path fill="url(#SVGID_6_)" d="M4.8232,166.7229c0,15.3156,12.4162,27.7305,27.7302,27.7305
			c15.3142,0,20.6759-12.4149,20.6759-27.7305c0-15.3153-5.3616-27.7302-20.6759-27.7302
			C17.2395,138.9927,4.8232,151.4076,4.8232,166.7229z"/>
		<path fill="#AA5C26" d="M43.0687,145.9485c0-5.3974,4.559-9.7899,10.1631-9.7899c5.5989,0,10.1554,4.3925,10.1554,9.7899v14.0933
			c0,5.3961-4.5565,9.7872-10.1554,9.7872c-5.6041,0-10.1631-4.3911-10.1631-9.7872V145.9485z"/>
		<path fill="#EBAD20" d="M60.2812,160.0418c0,3.6884-3.1568,6.6811-7.0494,6.6811l0,0c-3.9005,0-7.057-2.9928-7.057-6.6811
			v-14.0933c0-3.6938,3.1565-6.6852,7.057-6.6852l0,0c3.8926,0,7.0494,2.9914,7.0494,6.6852V160.0418z"/>
		
			<radialGradient id="SVGID_7_" cx="7824.5747" cy="100.5641" r="106.8638" gradientTransform="matrix(-1 0 0 1 7893.457 0)" gradientUnits="userSpaceOnUse">
			<stop  offset="0.1174" style="stop-color:#FCEA65"/>
			<stop  offset="1" style="stop-color:#F5B32D"/>
		</radialGradient>
		<path fill="url(#SVGID_7_)" d="M60.2812,160.0418c0,3.6884-3.1568,6.6811-7.0494,6.6811l0,0c-3.9005,0-7.057-2.9928-7.057-6.6811
			v-14.0933c0-3.6938,3.1565-6.6852,7.057-6.6852l0,0c3.8926,0,7.0494,2.9914,7.0494,6.6852V160.0418z"/>
	</g>
	<ellipse fill="#A05024" cx="99.512" cy="170.7594" rx="7.1878" ry="9.7675"/>
</g>
</svg>
