<?xml version="1.0" encoding="utf-8"?>
<!-- Generator: Adobe Illustrator 17.0.0, SVG Export Plug-In . SVG Version: 6.00 Build 0)  -->
<!DOCTYPE svg PUBLIC "-//W3C//DTD SVG 1.1//EN" "http://www.w3.org/Graphics/SVG/1.1/DTD/svg11.dtd">
<svg version="1.1" id="Layer_1" xmlns="http://www.w3.org/2000/svg" xmlns:xlink="http://www.w3.org/1999/xlink" x="0px" y="0px" viewBox="0 0 200 200" enable-background="new 0 0 200 200" xml:space="preserve">
<g>
	<g>
		<g>
			<g>
				<path fill="#E5A126" d="M99.9972,198.9986C45.4105,198.9986,1,154.5881,1,100S45.4105,1.0014,99.9972,1.0014
					C154.5865,1.0014,199,45.4119,199,100S154.5865,198.9986,99.9972,198.9986z"/>
				<path fill="#E5A126" d="M99.9972,197.6085c-53.8238,0-97.6071-43.7874-97.6071-97.6085S46.1734,2.3915,99.9972,2.3915
					S197.6099,46.1789,197.6099,100S153.8211,197.6085,99.9972,197.6085z"/>
				<radialGradient id="SVGID_1_" cx="103.7957" cy="-9.3552" r="204.239" gradientUnits="userSpaceOnUse">
					<stop  offset="0" style="stop-color:#FFF7C2"/>
					<stop  offset="0.3276" style="stop-color:#FFE996"/>
					<stop  offset="1" style="stop-color:#FDD022"/>
				</radialGradient>
				<path fill="url(#SVGID_1_)" d="M192.0494,100c0,50.8373-41.2177,92.048-92.0522,92.048S7.9506,150.8373,7.9506,100
					c0-50.837,41.2121-92.048,92.0466-92.048S192.0494,49.163,192.0494,100z"/>
				<g>
					<defs>
						<path id="SVGID_2_" d="M192.0494,100c0,50.8373-41.2177,92.048-92.0522,92.048S7.9506,150.8373,7.9506,100
							c0-50.837,41.2121-92.048,92.0466-92.048S192.0494,49.163,192.0494,100z"/>
					</defs>
					<clipPath id="SVGID_3_">
						<use xlink:href="#SVGID_2_"  overflow="visible"/>
					</clipPath>
				</g>
			</g>
		</g>
	</g>
	<g>
		<path fill="#6D3118" d="M121.7668,77.7758c0,5.4409,3.8579,9.8557,8.6229,9.8557c4.7595,0,8.6204-4.4147,8.6204-9.8557
			c0-5.4412-3.8609-9.8532-8.6204-9.8532C125.6247,67.9227,121.7668,72.3346,121.7668,77.7758z"/>
		<g>
			<path fill="#82361A" d="M166.6943,73.5751h-43.6986c-2.3424,0-4.2428-1.899-4.2428-4.2428s1.9004-4.2428,4.2428-4.2428h43.6986
				c2.3424,0,4.2428,1.899,4.2428,4.2428S169.0366,73.5751,166.6943,73.5751z"/>
		</g>
	</g>
	<g>
		<path fill="#6D3118" d="M33.3148,77.7758c0,5.4409,3.8581,9.8557,8.6176,9.8557c4.7623,0,8.6257-4.4147,8.6257-9.8557
			c0-5.4412-3.8634-9.8532-8.6257-9.8532C37.1729,67.9227,33.3148,72.3346,33.3148,77.7758z"/>
		<g>
			<path fill="#82361A" d="M78.2419,73.5751H34.546c-2.3424,0-4.2428-1.899-4.2428-4.2428s1.9004-4.2428,4.2428-4.2428h43.6958
				c2.3424,0,4.2428,1.899,4.2428,4.2428S80.5843,73.5751,78.2419,73.5751z"/>
		</g>
	</g>
	<circle fill="#A05024" cx="81.4491" cy="121.4165" r="7.4705"/>
	<circle fill="#A05024" cx="117.2881" cy="113.8267" r="7.4705"/>
	<g>
		<path fill="#AA5C26" d="M173.2338,165.8531c-13.7358,9.0152-31.9077,5.0784-41.367-8.9627
			c-0.3965-0.5836-0.7412-1.166-1.0698-1.7457c-0.2716-0.3069-0.5269-0.6231-0.7657-0.9789l-17.5531-26.0442
			c-1.7674-2.6159-2.5548-5.4154-2.2806-8.0855c0.3094-3.0071,1.974-5.6692,4.6836-7.4964l0.0028-0.0014
			c5.3105-3.4861,11.1616-1.9645,15.0386,3.7889l6.6384,9.8515c1.6537-1.3954,3.4781-2.768,5.4601-4.1011l0.7712-0.5157
			c20.5449-13.4831,31.7826-6.0329,37.5928,2.5901c4.6021,6.8272,6.53,14.7336,5.4304,22.2678
			c-1.1457,7.8372-5.4982,14.6641-12.2614,19.2229L173.2338,165.8531z"/>
		
			<radialGradient id="SVGID_4_" cx="1964.4277" cy="-3517.4719" r="129.9874" gradientTransform="matrix(0.5589 0.8292 0.8292 -0.5589 1905.5208 -3389.7349)" gradientUnits="userSpaceOnUse">
			<stop  offset="0.1174" style="stop-color:#FCEA65"/>
			<stop  offset="1" style="stop-color:#F5B32D"/>
		</radialGradient>
		<path fill="url(#SVGID_4_)" d="M135.3258,154.5595c-0.4234-0.6269-0.7793-1.2461-1.1185-1.8639
			c-0.2552-0.2741-0.5052-0.5416-0.7223-0.8674l-17.5475-26.0361c-2.3974-3.5501-2.2726-7.4041,1.2761-9.7934
			c3.5484-2.3918,6.8555-0.8947,9.2502,2.6582l9.3725,13.9093c2.3649-2.4869,5.2591-4.8382,8.5145-7.0293
			c12.131-8.1764,24.403-11.1874,32.5755,0.9447c8.1778,12.1324,6.4265,27.5269-5.7045,35.7019
			C159.091,170.3588,143.5008,166.6933,135.3258,154.5595z"/>
	</g>
	<path fill="none" stroke="#C97D2E" stroke-width="2" stroke-linecap="round" stroke-linejoin="round" stroke-miterlimit="10" d="
		M135.5293,107.3757c0,0-6.4591-15.5563-21.9675-12.9415"/>
	
		<radialGradient id="SVGID_5_" cx="132.8021" cy="-129.4615" r="160.1274" gradientTransform="matrix(1 0 0 -1 0 -62.5596)" gradientUnits="userSpaceOnUse">
		<stop  offset="0.0054" style="stop-color:#A44F24"/>
		<stop  offset="0.2689" style="stop-color:#A04C23"/>
		<stop  offset="0.5871" style="stop-color:#954120"/>
		<stop  offset="0.9322" style="stop-color:#822F1A"/>
		<stop  offset="1" style="stop-color:#7E2B18"/>
	</radialGradient>
	<path fill="url(#SVGID_5_)" d="M107.0184,179.826l0.0053,0.0028c0,0-7.1163,9.3344-12.7989,10.2032
		c-5.6825,0.8688-7.9415-4.3441-5.8563-8.167s5.8563-4.3441,5.8563-8.862v-14.6886c0-3.9015,3.155-7.0674,7.0674-7.0674
		c3.9015,0,7.0646,3.1659,7.0646,7.0674v17.4038C108.3569,177.2549,107.852,178.6667,107.0184,179.826z"/>
	<g>
		<path fill="#82361A" d="M63.4943,58.4657c-7.6845,0-14.8415-0.4986-18.6368-0.8176c-1.5551-0.1312-2.7125-1.4999-2.5799-3.0564
			c0.1326-1.5551,1.5386-2.7125,3.055-2.5813c18.6672,1.5717,40.279,0.6712,42.6932-3.1669
			c4.1793-6.6487,2.0965-14.1717,2.0744-14.2462c-0.4281-1.4971,0.4309-3.0647,1.928-3.4998
			c1.4778-0.4378,3.0606,0.4157,3.4998,1.9087c0.1188,0.4033,2.8562,9.9896-2.7125,18.8481
			C89.4621,57.1881,75.8028,58.4657,63.4943,58.4657z"/>
	</g>
	<g>
		<path fill="#82361A" d="M138.5388,58.4657c-12.3113,0-25.9678-1.2775-29.3212-6.6114
			c-5.5687-8.8585-2.8313-18.4448-2.7125-18.8481c0.442-1.4971,2.0137-2.3465,3.5136-1.9115
			c1.4971,0.442,2.3534,2.0151,1.9115,3.5136c-0.0193,0.0635-2.1021,7.5865,2.0772,14.2352
			c2.4197,3.8423,24.0259,4.7428,42.6932,3.1669c1.5579-0.1326,2.9252,1.0234,3.055,2.5813
			c0.1326,1.5565-1.0248,2.9252-2.5799,3.0564C153.3803,57.9671,146.2206,58.4657,138.5388,58.4657z"/>
	</g>
</g>
</svg>
