<?xml version="1.0" encoding="utf-8"?>
<!-- Generator: Adobe Illustrator 17.0.0, SVG Export Plug-In . SVG Version: 6.00 Build 0)  -->
<!DOCTYPE svg PUBLIC "-//W3C//DTD SVG 1.1//EN" "http://www.w3.org/Graphics/SVG/1.1/DTD/svg11.dtd">
<svg version="1.1" id="Layer_1" xmlns="http://www.w3.org/2000/svg" xmlns:xlink="http://www.w3.org/1999/xlink" x="0px" y="0px" viewBox="0 0 200 200" enable-background="new 0 0 200 200" xml:space="preserve">
<g>
	<g>
		<g>
			<g>
				<path fill="#E5A126" d="M99.9973,194.2188c-53.2693,0-96.608-43.3387-96.608-96.6094S46.7279,1,99.9973,1
					c53.2721,0,96.6135,43.3387,96.6135,96.6094S153.2693,194.2188,99.9973,194.2188z"/>
				<path fill="#E5A126" d="M99.9973,192.8622c-52.5249,0-95.2515-42.7307-95.2515-95.2528S47.4724,2.3566,99.9973,2.3566
					s95.2569,42.7307,95.2569,95.2528S152.5221,192.8622,99.9973,192.8622z"/>
				<radialGradient id="SVGID_1_" cx="103.7041" cy="-9.1067" r="199.3099" gradientUnits="userSpaceOnUse">
					<stop  offset="0" style="stop-color:#FFF7C2"/>
					<stop  offset="0.3276" style="stop-color:#FFE996"/>
					<stop  offset="1" style="stop-color:#FDD022"/>
				</radialGradient>
				<path fill="url(#SVGID_1_)" d="M189.8279,97.6094c0,49.6104-40.2229,89.8265-89.8306,89.8265s-89.8252-40.2161-89.8252-89.8265
					c0-49.6101,40.2175-89.8265,89.8252-89.8265S189.8279,47.9993,189.8279,97.6094z"/>
				<g>
					<defs>
						<path id="SVGID_2_" d="M189.8279,97.6094c0,49.6104-40.2229,89.8265-89.8306,89.8265s-89.8252-40.2161-89.8252-89.8265
							c0-49.6101,40.2175-89.8265,89.8252-89.8265S189.8279,47.9993,189.8279,97.6094z"/>
					</defs>
					<clipPath id="SVGID_3_">
						<use xlink:href="#SVGID_2_"  overflow="visible"/>
					</clipPath>
				</g>
			</g>
		</g>
		
			<radialGradient id="SVGID_4_" cx="101.0261" cy="114.691" r="144.4551" gradientTransform="matrix(1 0 0 0.8449 0 -11.6408)" gradientUnits="userSpaceOnUse">
			<stop  offset="0" style="stop-color:#45B649;stop-opacity:0.8"/>
			<stop  offset="0.0553" style="stop-color:#54B949;stop-opacity:0.7115"/>
			<stop  offset="0.1478" style="stop-color:#75C048;stop-opacity:0.5636"/>
			<stop  offset="0.2661" style="stop-color:#A0CC4A;stop-opacity:0.3743"/>
			<stop  offset="0.4041" style="stop-color:#D6DE4B;stop-opacity:0.1535"/>
			<stop  offset="0.5" style="stop-color:#FEEE4E;stop-opacity:0"/>
		</radialGradient>
		<path fill="url(#SVGID_4_)" d="M176.89,96.8437c0,23.7134-34.2402,42.9374-76.4686,42.9374
			c-42.2339,0-76.4662-19.224-76.4662-42.9374c0-23.7148,34.2323-42.9401,76.4662-42.9401
			C142.6498,53.9036,176.89,73.129,176.89,96.8437z"/>
	</g>
	<g>
		<g>
			<path fill="#72A344" d="M92.2819,65.3086c0,0,3.5184,44.0623-32.1736,49.201C24.4161,119.6499,12.713,76.8899,12.713,76.8899"/>
			<g>
				<path fill="#FFFFFF" d="M13.4735,65.5327c3.4867,23.8168,22.5158,35.8735,43.1691,32.8505
					c20.6639-3.0205,35.1306-19.9763,31.6491-43.7972L13.4735,65.5327z"/>
				<path fill="#AA5C26" d="M50.4268,102.9111c-21.2892-0.0014-37.7588-14.7845-40.9807-36.7889l-0.5882-4.0274l82.8727-12.1245
					l0.5882,4.0274c3.6459,24.9509-10.781,44.8597-35.088,48.4128C54.9629,102.7416,52.6708,102.9111,50.4268,102.9111
					L50.4268,102.9111z"/>
				<path fill="#FFFFFF" d="M13.4735,65.5327c3.4867,23.8168,22.5158,35.8735,43.1691,32.8505
					c20.6639-3.0205,35.1306-19.9763,31.6491-43.7972L13.4735,65.5327z"/>
				<g>
					<defs>
						<path id="SVGID_5_" d="M13.4735,65.5327c3.4867,23.8168,22.5158,35.8735,43.1691,32.8505
							c20.6639-3.0205,35.1306-19.9763,31.6491-43.7972L13.4735,65.5327z"/>
					</defs>
					<clipPath id="SVGID_6_">
						<use xlink:href="#SVGID_5_"  overflow="visible"/>
					</clipPath>
				</g>
			</g>
		</g>
	</g>
	<g>
		<g>
			<path fill="#72A344" d="M106.6901,65.3086c0,0-3.5187,44.0623,32.1736,49.201c35.6922,5.1403,47.3954-37.6197,47.3954-37.6197"/>
			<g>
				<path fill="#FFFFFF" d="M185.4985,65.5327c-3.4869,23.8168-22.5158,35.8735-43.1718,32.8505
					c-20.6614-3.0205-35.1279-19.9763-31.6464-43.7972L185.4985,65.5327z"/>
				<path fill="#AA5C26" d="M148.5452,102.9111c21.289-0.0014,37.7588-14.7845,40.9807-36.7889l0.5882-4.0274l-82.873-12.1245
					l-0.5882,4.0274c-3.6457,24.9509,10.7812,44.8597,35.0856,48.4128C144.0064,102.7416,146.3009,102.9111,148.5452,102.9111
					L148.5452,102.9111z"/>
				<path fill="#FFFFFF" d="M185.4985,65.5327c-3.4869,23.8168-22.5158,35.8735-43.1718,32.8505
					c-20.6614-3.0205-35.1279-19.9763-31.6464-43.7972L185.4985,65.5327z"/>
				<g>
					<defs>
						<path id="SVGID_7_" d="M185.4985,65.5327c-3.4869,23.8168-22.5158,35.8735-43.1718,32.8505
							c-20.6614-3.0205-35.1279-19.9763-31.6464-43.7972L185.4985,65.5327z"/>
					</defs>
					<clipPath id="SVGID_8_">
						<use xlink:href="#SVGID_7_"  overflow="visible"/>
					</clipPath>
				</g>
			</g>
		</g>
	</g>
	<g>
		<path fill="#82361A" d="M50.8989,47.529c-1.5262,0-2.7887-1.214-2.8387-2.7527c-0.0472-1.5678,1.1849-2.8803,2.7527-2.9289
			c19.5183-0.6105,26.9771-5.7953,29.7964-10.038c3.2105-4.831,1.3874-9.9534,1.368-10.0034
			c-0.5633-1.4651,0.1693-3.1092,1.6344-3.6711c1.4651-0.5633,3.1078,0.1707,3.6711,1.6344
			c0.1221,0.3177,2.9275,7.8612-1.9396,15.1854c-5.1807,7.7918-16.7379,12.0221-34.3527,12.5729
			C50.96,47.529,50.9295,47.529,50.8989,47.529z"/>
	</g>
	<g>
		<path fill="#82361A" d="M146.7924,47.529c-0.0305,0-0.061,0-0.0916-0.0014c-17.6203-0.5508-29.1776-4.7811-34.3583-12.5743
			c-4.8699-7.3242-2.0645-14.8663-1.9424-15.1826c0.5605-1.4651,2.2005-2.1977,3.6711-1.6358
			c1.4596,0.5591,2.1921,2.1935,1.6399,3.6545c-0.0916,0.2511-1.8481,5.2611,1.4124,10.0922
			c2.8442,4.2108,10.3141,9.3582,29.7548,9.9659c1.5678,0.0486,2.7998,1.3611,2.7499,2.9289
			C149.5812,46.315,148.3186,47.529,146.7924,47.529z"/>
	</g>
	<g>
		<path fill="#A05024" d="M146.1075,120.2392H57.7818c-4.9306,0-4.9306,11.3377-0.1245,11.3377h88.5801
			C151.0437,131.5769,151.0437,120.2392,146.1075,120.2392L146.1075,120.2392z"/>
	</g>
	<path fill="#37C3E0" d="M68.436,199c-5.5276,0-10.5698-3.1391-13.1322-7.9175H40.1175c-8.2459,0-14.9524-6.7078-14.9524-14.9524
		c0-8.2435,6.7065-14.9513,14.9524-14.9513h17.1128c3.9463,0,4.8085-4.2411,4.9486-5.1759v-27.9666
		c0-2.203,1.7864-3.988,3.988-3.988h71.9606c2.2016,0,3.988,1.785,3.988,3.988v28.2223c-0.0338,0.8569,0.1194,2.9248,1.1501,4.005
		c0.2183,0.2257,0.8776,0.9151,2.8301,0.9151h18.255c8.2459,0,14.9524,6.7078,14.9524,14.9513
		c0,8.2445-6.7065,14.9524-14.9524,14.9524h-13.6544c-2.5624,4.7784-7.6019,7.9175-13.1376,7.9175H68.436z"/>
	<path fill="#B5E2EA" d="M164.3507,165.1668h-18.255c-8.5394,0-7.9683-8.9081-7.9683-8.9081v-28.2223H66.1668v28.2223
		c0,0-0.9659,8.9081-8.9366,8.9081H40.1175c-6.0546,0-10.9644,4.9084-10.9644,10.9633c0,6.0559,4.9098,10.9644,10.9644,10.9644
		h17.8397c1.3293,4.5617,5.4888,7.9175,10.4789,7.9175h69.1227c4.993,0,9.1575-3.3558,10.4816-7.9175h16.3104
		c6.0573,0,10.9644-4.9084,10.9644-10.9644C175.315,170.0753,170.4079,165.1668,164.3507,165.1668z"/>
	<g>
		<path fill="#37C3E0" d="M89.0366,170.0264c-1.5706,0-2.8415-1.2723-2.8415-2.8414v-30.5734c0-1.5692,1.2709-2.8415,2.8415-2.8415
			c1.5706,0,2.8415,1.2723,2.8415,2.8415v30.5734C91.878,168.7541,90.6071,170.0264,89.0366,170.0264z"/>
	</g>
	<g>
		<path fill="#37C3E0" d="M116.183,153.8268c-1.5706,0-2.8415-1.2723-2.8415-2.8415v-14.0657c0-1.5692,1.2709-2.8415,2.8415-2.8415
			c1.5706,0,2.8414,1.2723,2.8414,2.8415v14.0657C119.0244,152.5545,117.7536,153.8268,116.183,153.8268z"/>
	</g>
	<g>
		<path fill="#37C3E0" d="M116.183,170.0264c-1.5706,0-2.8415-1.2723-2.8415-2.8414v-6.1019c0-1.5692,1.2709-2.8414,2.8415-2.8414
			c1.5706,0,2.8414,1.2723,2.8414,2.8414v6.1019C119.0244,168.7541,117.7536,170.0264,116.183,170.0264z"/>
	</g>
</g>
</svg>
