<?xml version="1.0" encoding="utf-8"?>
<!-- Generator: Adobe Illustrator 17.0.0, SVG Export Plug-In . SVG Version: 6.00 Build 0)  -->
<!DOCTYPE svg PUBLIC "-//W3C//DTD SVG 1.1//EN" "http://www.w3.org/Graphics/SVG/1.1/DTD/svg11.dtd">
<svg version="1.1" id="Layer_1" xmlns="http://www.w3.org/2000/svg" xmlns:xlink="http://www.w3.org/1999/xlink" x="0px" y="0px"
	  viewBox="0 0 200 200" enable-background="new 0 0 200 200" xml:space="preserve">
<g>
	<g>
		<g>
			<path fill="#E4A024" d="M100.0924,198.9982c-3.709,0-7.4723-0.2145-11.1974-0.6376c-0.2278,0.16-0.5045,0.2509-0.7949,0.2509
				c-0.0789,0-0.1628-0.0067-0.2442-0.0217l-5.1335-0.9116c-0.5915-0.1045-14.5561-2.6333-29.9048-9.5015
				c-2.4552,0.7418-5.0004,1.1177-7.5778,1.1177c-14.5344,0-26.3586-11.8253-26.3586-26.36c0-1.799,0.19-3.6085,0.5643-5.3871
				C3.5271,135.2478-2.4799,107.1419,2.96,80.3288c9.3282-45.9654,50.0909-79.327,96.9206-79.327
				c6.6093,0,13.2647,0.6715,19.779,1.9957c25.8758,5.2488,48.1808,20.2933,62.8022,42.3611
				c14.6242,22.0689,19.7874,48.4711,14.5375,74.3466C187.674,165.6503,146.9165,198.9982,100.0924,198.9982z"/>
			<path fill="#E4A024" d="M100.0868,197.6091c-3.9585,0-7.9443-0.2456-11.9053-0.7312l-0.0814,0.3445l-5.1335-0.9116
				c-0.6185-0.11-14.7-2.6658-30.0593-9.6168c-2.4771,0.8043-5.0465,1.2113-7.6676,1.2113
				c-13.7693,0-24.9695-11.2013-24.9695-24.9709c0-1.9154,0.2253-3.8202,0.6673-5.6922
				c-15.9861-22.095-22.042-49.8984-16.6154-76.6368C13.5198,35.2844,53.7077,2.3909,99.8807,2.3909
				c6.509,0,13.0722,0.6607,19.5023,1.9673c52.75,10.702,86.9579,62.3232,76.2542,115.0702
				c-9.1951,45.3008-49.3772,78.1807-95.5448,78.1807H100.0868z"/>
			
				<radialGradient id="SVGID_1_" cx="78.2144" cy="-31.7137" r="288.5091" gradientTransform="matrix(0.9822 0 0 0.9822 69.5946 -1.0072)" gradientUnits="userSpaceOnUse">
				<stop  offset="0" style="stop-color:#FFF7C2"/>
				<stop  offset="0.0325" style="stop-color:#FFF6BC"/>
				<stop  offset="0.5045" style="stop-color:#FEE168"/>
				<stop  offset="0.8378" style="stop-color:#FED533"/>
				<stop  offset="1" style="stop-color:#FED01F"/>
			</radialGradient>
			<path fill="url(#SVGID_1_)" d="M118.2814,9.8034C68.4619-0.306,19.8796,31.8862,9.7674,81.7099
				c-5.4724,26.9732,1.4733,53.5705,16.8843,73.9099l0.4531,0.4354c-0.8113,2.1407-1.278,4.4539-1.278,6.8793
				c0,10.7226,8.6903,19.4142,19.4129,19.4142c2.808,0,5.4699-0.609,7.8818-1.6823c15.6933,7.4831,30.8192,10.1733,30.8192,10.1733
				c0.0164-0.0667,0.0136-0.1411,0.0189-0.2103c49.0165,8.6861,96.2749-23.2494,106.2324-72.3051
				C200.3011,68.4993,168.1092,19.9142,118.2814,9.8034z"/>
			<g>
				<defs>
					<path id="SVGID_2_" d="M181.195,143.3913c-23.9521,44.841-79.7163,61.7753-124.5625,37.8233
						c-44.8435-23.9521-61.7792-79.7163-37.8272-124.557c23.9521-44.8438,79.716-61.7806,124.5598-37.83
						C188.2113,42.7797,205.147,98.5464,181.195,143.3913z"/>
				</defs>
				<clipPath id="SVGID_3_">
					<use xlink:href="#SVGID_2_"  overflow="visible"/>
				</clipPath>
				
					<radialGradient id="SVGID_4_" cx="-29.6058" cy="607.7161" r="83.6319" gradientTransform="matrix(1.1337 0.0594 -0.0343 0.6547 122.0278 -296.1106)" gradientUnits="userSpaceOnUse">
					<stop  offset="0" style="stop-color:#DB4000"/>
					<stop  offset="0.2501" style="stop-color:#E7560F;stop-opacity:0.7309"/>
					<stop  offset="0.6507" style="stop-color:#FF812D;stop-opacity:0.3"/>
					<stop  offset="0.9409" style="stop-color:#FF973A;stop-opacity:0"/>
				</radialGradient>
				<path opacity="0.7" clip-path="url(#SVGID_3_)" fill="url(#SVGID_4_)" d="M151.4096,104.3881
					c-1.655,31.5774-40.5107,55.1969-86.7843,52.7728c-46.2816-2.4243-82.4537-29.9807-80.7987-61.5584
					c1.6498-31.5638,40.508-55.1902,86.7895-52.7634C116.8869,45.2649,153.0647,72.8254,151.4096,104.3881z"/>
			</g>
		</g>
	</g>
	<g>
		<path fill="#823308" d="M17.9425,38.1434c-0.511,0-1.0303-0.1381-1.4944-0.4295c-1.3259-0.8273-1.7292-2.573-0.9032-3.8975
			c5.5521-8.8888,11.6538-13.394,18.1396-13.394c0.0497,0,0.1022,0,0.1519,0c9.7921,0.1063,16.148,10.6056,16.4132,11.0517
			c0.7983,1.3424,0.3563,3.0785-0.9861,3.8768c-1.3424,0.7983-3.0716,0.3563-3.8726-0.9792l0,0
			c-0.0497-0.0829-5.0245-8.2356-11.6345-8.2922c-4.4417-0.0124-8.9413,3.5743-13.4106,10.734
			C19.807,37.6724,18.8844,38.1434,17.9425,38.1434z"/>
	</g>
	<g>
		<path fill="#823308" d="M117.6313,50.8552c-9.8114,0-25.9788-1.3687-35.1963-9.5228
			c-9.2396-8.1762-10.8224-17.8758-10.8859-18.2846c-0.2375-1.5441,0.8204-2.9874,2.3645-3.2249
			c1.5717-0.2306,2.9832,0.819,3.2263,2.3548c0.0249,0.1561,1.4364,8.1886,9.0435,14.9174
			c11.7201,10.3694,38.8673,7.8116,39.1352,7.7853c1.6021-0.1519,2.9418,0.9806,3.0965,2.5343s-0.9806,2.939-2.533,3.0951
			C125.4926,50.5486,122.2719,50.8552,117.6313,50.8552z"/>
	</g>
	<g>
		<path fill="#FFFFFF" d="M53.648,83.4271c0.6999,15.012-8.837,27.8822-21.3149,28.7368
			c-12.4643,0.8602-23.1544-10.6167-23.8543-25.6343C7.7787,71.5121,17.34,58.6355,29.8071,57.7809
			C42.2878,56.9235,52.9534,68.4057,53.648,83.4271z"/>
		<path fill="#AA5B26" d="M31.0198,116.1536c-14.4016,0-26.2744-12.9447-27.0396-29.4692
			C3.1773,69.5995,14.605,54.8695,29.457,53.8479c0.5537-0.0378,1.1099-0.057,1.6606-0.057
			c14.3988,0,26.2636,12.9461,27.0343,29.4734c0.7977,17.0849-10.6195,31.8177-25.4659,32.8337
			C32.1322,116.1375,31.5788,116.1536,31.0198,116.1536z"/>
		<path fill="#FFFFFF" d="M8.495,86.5244C7.7787,71.5121,17.34,58.6355,29.8071,57.7809
			c12.4807-0.8574,23.1463,10.6248,23.8409,25.6435c0.6999,15.0148-8.837,27.885-21.3149,28.7396
			C19.8688,113.0241,9.1787,101.5472,8.495,86.5244z"/>
		<g>
			<defs>
				<path id="SVGID_5_" d="M8.495,86.5244C7.7787,71.5121,17.34,58.6355,29.8071,57.7809
					c12.4807-0.8574,23.1463,10.6248,23.8409,25.6435c0.6999,15.0148-8.837,27.885-21.3149,28.7396
					C19.8688,113.0241,9.1787,101.5472,8.495,86.5244z"/>
			</defs>
			<clipPath id="SVGID_6_">
				<use xlink:href="#SVGID_5_"  overflow="visible"/>
			</clipPath>
		</g>
		<g>
			<defs>
				<path id="SVGID_7_" d="M8.495,86.5244C7.7787,71.5121,17.34,58.6355,29.8071,57.7809
					c12.4807-0.8574,23.1463,10.6248,23.8409,25.6435c0.6999,15.0148-8.837,27.885-21.3149,28.7396
					C19.8688,113.0241,9.1787,101.5472,8.495,86.5244z"/>
			</defs>
			<clipPath id="SVGID_8_">
				<use xlink:href="#SVGID_7_"  overflow="visible"/>
			</clipPath>
		</g>
	</g>
	<g>
		<path fill="#FFFFFF" d="M139.6452,86.778c1.617,18.9164-11.3005,35.6065-28.8547,37.2751
			c-17.5464,1.6687-33.1199-12.3179-34.7316-31.2343c-1.6061-18.9219,11.3302-35.6201,28.8763-37.2901
			C122.4977,53.8587,138.0335,67.8522,139.6452,86.778z"/>
		<path fill="#AA5B26" d="M107.955,127.9939c-18.3546,0-34.0259-15.3146-35.6893-34.863
			c-1.7798-20.9593,12.7088-39.5283,32.3089-41.3937c1.0744-0.1017,2.1379-0.1492,3.2042-0.1492
			c18.6313,0,33.9664,14.9862,35.6568,34.863c1.7934,20.9634-12.6896,39.5325-32.2789,41.3912
			C110.0823,127.9478,109.0024,127.9939,107.955,127.9939z"/>
		<path fill="#FFFFFF" d="M76.0642,92.8081c-1.6114-18.9111,11.3249-35.6093,28.871-37.2793
			c17.5625-1.67,33.0982,12.3235,34.7099,31.2451c1.617,18.9205-11.3005,35.6106-28.8547,37.2793
			C93.2441,125.7218,77.6706,111.7353,76.0642,92.8081z"/>
		<g>
			<defs>
				<path id="SVGID_9_" d="M76.0642,92.8081c-1.6114-18.9111,11.3249-35.6093,28.871-37.2793
					c17.5625-1.67,33.0982,12.3235,34.7099,31.2451c1.617,18.9205-11.3005,35.6106-28.8547,37.2793
					C93.2441,125.7218,77.6706,111.7353,76.0642,92.8081z"/>
			</defs>
			<clipPath id="SVGID_10_">
				<use xlink:href="#SVGID_9_"  overflow="visible"/>
			</clipPath>
		</g>
		<path fill="#6D2F16" d="M139.6449,86.7738c-0.2086-2.457-0.6629-4.8253-1.3162-7.0925
			c-3.4086-5.4588-9.7286-8.6439-16.3386-7.5777c-8.8916,1.4327-14.8622,9.986-13.3885,19.1063
			c1.464,9.1162,9.8487,15.3499,18.7224,13.9146c5.367-0.8656,9.6595-4.3393,11.9024-8.9569
			C139.7443,93.1397,139.9198,89.994,139.6449,86.7738z"/>
		<path fill="none" d="M76.0642,92.8081c-1.6114-18.9111,11.3249-35.6093,28.871-37.2793
			c17.5625-1.67,33.0982,12.3235,34.7099,31.2451c1.617,18.9205-11.3005,35.6106-28.8547,37.2793
			C93.2441,125.7218,77.6706,111.7353,76.0642,92.8081z"/>
	</g>
	<path fill="#6D2F16" d="M53.9953,87.4929c0,6.5468-5.1118,11.8539-11.4091,11.8539c-6.3054,0-11.4144-5.3071-11.4144-11.8539
		c0-6.5415,5.109-11.8498,11.4144-11.8498C48.8835,75.6432,53.9953,80.9514,53.9953,87.4929z"/>
	<path fill="#A04E17" d="M47.6082,162.8572c-0.2223,4.5811-3.2556,8.1599-6.7963,7.9943c-3.5354-0.1681-6.2242-4.0183-6.0098-8.6008
		c0.217-4.5825,3.2556-8.1613,6.7966-7.9943C45.1339,154.4217,47.8172,158.2733,47.6082,162.8572z"/>
	<g>
		<path fill="#20C9E5" d="M173.2263,109.0939c-13.2106-0.3295-23.6698-12.1062-23.3197-26.2542
			c0.3281-13.0694,19.5701-34.0409,21.7597-36.3894l3.207-3.4293l3.0278,3.5854c2.0701,2.4541,20.2325,24.3563,19.9121,37.4299
			c-0.339,13.8196-11.1132,25.0642-24.0199,25.0642L173.2263,109.0939z"/>
		<path fill="#ADF5F7" d="M193.6457,83.9333c-0.2903,11.8714-9.3985,21.2671-20.3191,20.9945
			c-10.9312-0.2728-19.5484-10.1147-19.2525-21.9836c0.2956-11.8648,20.6417-33.6489,20.6417-33.6489
			S193.9388,72.0644,193.6457,83.9333z"/>
	</g>
</g>
</svg>
