<?xml version="1.0" encoding="utf-8"?>
<!-- Generator: Adobe Illustrator 17.0.0, SVG Export Plug-In . SVG Version: 6.00 Build 0)  -->
<!DOCTYPE svg PUBLIC "-//W3C//DTD SVG 1.1//EN" "http://www.w3.org/Graphics/SVG/1.1/DTD/svg11.dtd">
<svg version="1.1" id="Layer_1" xmlns="http://www.w3.org/2000/svg" xmlns:xlink="http://www.w3.org/1999/xlink" x="0px" y="0px" viewBox="0 0 200 200" enable-background="new 0 0 200 200" xml:space="preserve">
<g>
	<g>
		<g>
			<g>
				<path fill="#E5A126" d="M99.9976,199c-52.7594,0-95.6835-42.9238-95.6835-95.6846S47.2382,7.6308,99.9976,7.6308
					c52.7618,0,95.6884,42.9238,95.6884,95.6846S152.7594,199,99.9976,199z"/>
				<path fill="#E5A126" d="M99.9976,197.6564c-52.0194,0-94.3399-42.3216-94.3399-94.341s42.3206-94.341,94.3399-94.341
					c52.0218,0,94.3448,42.3216,94.3448,94.341S152.0194,197.6564,99.9976,197.6564z"/>
				
					<radialGradient id="SVGID_1_" cx="35.9711" cy="-1.4522" r="200.8335" gradientTransform="matrix(0.9829 0 0 0.9829 68.3121 -0.9518)" gradientUnits="userSpaceOnUse">
					<stop  offset="0" style="stop-color:#FFF7C2"/>
					<stop  offset="0.3276" style="stop-color:#FFE996"/>
					<stop  offset="1" style="stop-color:#FDD022"/>
				</radialGradient>
				<path fill="url(#SVGID_1_)" d="M188.968,103.3154c0,49.1355-39.8403,88.9667-88.9704,88.9667
					c-49.1328,0-88.9656-39.8312-88.9656-88.9667c0-49.1352,39.8328-88.9667,88.9656-88.9667
					C149.1277,14.3487,188.968,54.1802,188.968,103.3154z"/>
				<g>
					<defs>
						<path id="SVGID_2_" d="M188.968,103.3154c0,49.1355-39.8403,88.9667-88.9704,88.9667
							c-49.1328,0-88.9656-39.8312-88.9656-88.9667c0-49.1352,39.8328-88.9667,88.9656-88.9667
							C149.1277,14.3487,188.968,54.1802,188.968,103.3154z"/>
					</defs>
					<clipPath id="SVGID_3_">
						<use xlink:href="#SVGID_2_"  overflow="visible"/>
					</clipPath>
				</g>
			</g>
		</g>
	</g>
	<g>
		<g>
			
				<radialGradient id="SVGID_4_" cx="-28.7904" cy="101.3562" r="30.214" gradientTransform="matrix(0.9829 0 0 0.9829 68.3121 -0.9518)" gradientUnits="userSpaceOnUse">
				<stop  offset="0" style="stop-color:#F15A60;stop-opacity:0.5"/>
				<stop  offset="0.1384" style="stop-color:#F16262;stop-opacity:0.4367"/>
				<stop  offset="0.3698" style="stop-color:#F37767;stop-opacity:0.3309"/>
				<stop  offset="0.6559" style="stop-color:#F7956E;stop-opacity:0.2"/>
				<stop  offset="0.7027" style="stop-color:#F69B6C;stop-opacity:0.1714"/>
				<stop  offset="0.7826" style="stop-color:#F6AE68;stop-opacity:0.1227"/>
				<stop  offset="0.8851" style="stop-color:#F8CC5A;stop-opacity:0.0602"/>
				<stop  offset="0.9839" style="stop-color:#FAEE3C;stop-opacity:0"/>
			</radialGradient>
			<path fill="url(#SVGID_4_)" d="M69.7118,98.6706c0,16.4038-13.2943,29.6994-29.7008,29.6994
				c-16.3934,0-29.6954-13.2956-29.6954-29.6994c0-16.4012,13.302-29.6954,29.6954-29.6954
				C56.4175,68.9752,69.7118,82.2695,69.7118,98.6706z"/>
			
				<radialGradient id="SVGID_5_" cx="91.8102" cy="101.3562" r="30.2139" gradientTransform="matrix(0.9829 0 0 0.9829 68.3121 -0.9518)" gradientUnits="userSpaceOnUse">
				<stop  offset="0" style="stop-color:#F15A60;stop-opacity:0.5"/>
				<stop  offset="0.1384" style="stop-color:#F16262;stop-opacity:0.4367"/>
				<stop  offset="0.3698" style="stop-color:#F37767;stop-opacity:0.3309"/>
				<stop  offset="0.6559" style="stop-color:#F7956E;stop-opacity:0.2"/>
				<stop  offset="0.7027" style="stop-color:#F69B6C;stop-opacity:0.1714"/>
				<stop  offset="0.7826" style="stop-color:#F6AE68;stop-opacity:0.1227"/>
				<stop  offset="0.8851" style="stop-color:#F8CC5A;stop-opacity:0.0602"/>
				<stop  offset="0.9839" style="stop-color:#FAEE3C;stop-opacity:0"/>
			</radialGradient>
			<circle fill="url(#SVGID_5_)" cx="158.5536" cy="98.6706" r="29.698"/>
		</g>
		<g>
			<g>
				<path fill="#F26A6B" d="M19.9368,108.6032c-0.47,0-0.9427-0.1553-1.3357-0.4755c-0.9014-0.7379-1.0361-2.0667-0.2996-2.9695
					L30.7019,89.967c0.7393-0.9042,2.0695-1.0361,2.9709-0.3009c0.9014,0.7379,1.0361,2.0667,0.2996,2.9695l-12.4003,15.1912
					C21.1543,108.338,20.547,108.6032,19.9368,108.6032z"/>
			</g>
			<g>
				<path fill="#F26A6B" d="M32.3097,108.9742c-0.47,0-0.9427-0.1553-1.3357-0.4755c-0.9014-0.7379-1.0361-2.0667-0.2996-2.9695
					l12.4003-15.1898c0.7393-0.9042,2.0667-1.0361,2.9709-0.3009c0.9014,0.7379,1.0361,2.0667,0.2996,2.9695l-12.4003,15.1898
					C33.5271,108.709,32.9198,108.9742,32.3097,108.9742z"/>
			</g>
		</g>
		<g>
			<g>
				<path fill="#F26A6B" d="M151.5389,108.6032c-0.47,0-0.9427-0.1553-1.3357-0.4755c-0.9014-0.7379-1.0361-2.0667-0.2996-2.9695
					l12.4031-15.1912c0.7393-0.9042,2.0667-1.0361,2.9709-0.3009c0.9014,0.7379,1.0361,2.0667,0.2996,2.9695l-12.403,15.1912
					C152.7564,108.338,152.149,108.6032,151.5389,108.6032z"/>
			</g>
			<g>
				<path fill="#F26A6B" d="M163.9144,108.9742c-0.47,0-0.9427-0.1553-1.3357-0.4755c-0.9014-0.7379-1.0361-2.0667-0.2996-2.9695
					l12.4003-15.1898c0.742-0.9042,2.0667-1.0361,2.9709-0.3009c0.9014,0.7379,1.0361,2.0667,0.2996,2.9695l-12.4003,15.1898
					C165.1319,108.709,164.5246,108.9742,163.9144,108.9742z"/>
			</g>
		</g>
	</g>
	<g>
		<path fill="#A05024" d="M99.2856,137.1978c-28.8324,0-39.6579-18.5565-40.1031-19.3466
			c-0.7668-1.3522-0.2886-3.0698,1.0636-3.8352c1.3494-0.7599,3.0644-0.2899,3.8311,1.0567
			c0.4067,0.7049,9.8224,16.4966,35.2084,16.4966c25.5866,0,35.1067-16.3235,35.1974-16.4884
			c0.7668-1.3535,2.4872-1.829,3.8366-1.065c1.3522,0.764,1.8304,2.4817,1.0663,3.8352
			C138.938,118.6399,128.1207,137.1978,99.2856,137.1978z"/>
	</g>
	<g>
		<path fill="#37C3E0" d="M100.8241,40.7033c-34.321-0.6877-60.0261-9.7309-59.7996-21.0358
			C41.2484,8.3616,67.2999,0.3532,101.6209,1.0412c34.3152,0.6866,60.0287,9.7299,59.8051,21.0346
			C161.1966,33.3806,135.1422,41.3901,100.8241,40.7033z M69.2707,20.2309c4.7855,1.8343,15.0996,4.5916,31.8654,4.9265
			c16.7656,0.3351,27.1783-2.0063,32.0323-3.6461c-4.78-1.8343-15.0937-4.5926-31.8596-4.9275
			C84.5401,16.2487,74.1302,18.5912,69.2707,20.2309z"/>
		<path fill="#D3EDF3" d="M101.5598,3.9363C70.5012,3.315,45.178,10.3921,44.9939,19.7462
			c-0.19,9.353,24.83,17.4395,55.8884,18.0608c31.0528,0.6221,56.3818-6.4568,56.5659-15.8109
			C157.6353,12.644,132.6097,4.5576,101.5598,3.9363z M101.0777,28.0528c-24.6614-0.4932-37.4641-6.1375-38.3492-7.9518
			c0.9554-1.7794,13.9742-6.9067,38.6359-6.4137c24.6614,0.4943,37.4638,6.1386,38.3548,7.955
			C138.758,23.4207,125.7336,28.5469,101.0777,28.0528z"/>
	</g>
	<path fill="#6D3118" d="M71.7874,78.4225c0,5.2169-4.2301,9.447-9.4497,9.447c-5.2142,0-9.4443-4.2301-9.4443-9.447
		c0-5.2182,4.2301-9.4473,9.4443-9.4473C67.5572,68.9752,71.7874,73.2043,71.7874,78.4225z"/>
	<circle fill="#6D3118" cx="137.6599" cy="78.4225" r="9.447"/>
</g>
</svg>
