<?xml version="1.0" encoding="utf-8"?>
<!-- Generator: Adobe Illustrator 17.0.0, SVG Export Plug-In . SVG Version: 6.00 Build 0)  -->
<!DOCTYPE svg PUBLIC "-//W3C//DTD SVG 1.1//EN" "http://www.w3.org/Graphics/SVG/1.1/DTD/svg11.dtd">
<svg version="1.1" id="Layer_1" xmlns="http://www.w3.org/2000/svg" xmlns:xlink="http://www.w3.org/1999/xlink" x="0px" y="0px" viewBox="0 0 200 200" enable-background="new 0 0 200 200" xml:space="preserve">
<g>
	<g>
		<g>
			<g>
				<path fill="#E5A126" d="M101.6077,197.3882c-53.6988,0-97.3869-43.6881-97.3869-97.3882S47.9089,2.6118,101.6077,2.6118
					C155.3092,2.6118,199,46.2998,199,100S155.3092,197.3882,101.6077,197.3882z"/>
				<path fill="#E5A126" d="M101.6077,196.0207c-52.9483,0-96.0194-43.0752-96.0194-96.0207S48.6594,3.9793,101.6077,3.9793
					S197.6325,47.0544,197.6325,100S154.556,196.0207,101.6077,196.0207z"/>
				
					<radialGradient id="SVGID_1_" cx="-30.4363" cy="-5.9301" r="207.7893" gradientTransform="matrix(0.9669 0 0 0.9669 134.774 -1.8424)" gradientUnits="userSpaceOnUse">
					<stop  offset="0" style="stop-color:#FFF7C2"/>
					<stop  offset="0.3276" style="stop-color:#FFE996"/>
					<stop  offset="1" style="stop-color:#FDD022"/>
				</radialGradient>
				<path fill="url(#SVGID_1_)" d="M192.1625,100c0,50.0103-40.5472,90.5507-90.5548,90.5507S11.0583,150.0103,11.0583,100
					c0-50.0101,40.5417-90.5507,90.5493-90.5507S192.1625,49.9899,192.1625,100z"/>
				<g>
					<defs>
						<path id="SVGID_2_" d="M192.1625,100c0,50.0103-40.5472,90.5507-90.5548,90.5507S11.0583,150.0103,11.0583,100
							c0-50.0101,40.5417-90.5507,90.5493-90.5507S192.1625,49.9899,192.1625,100z"/>
					</defs>
					<clipPath id="SVGID_3_">
						<use xlink:href="#SVGID_2_"  overflow="visible"/>
					</clipPath>
				</g>
			</g>
		</g>
	</g>
	<g>
		<path fill="#82361A" d="M35.8348,78.6908c-1.8773,0-3.5947-1.2598-4.0937-3.1619c-0.5927-2.2619,0.7608-4.5761,3.0213-5.1702
			l45.0222-11.8069c2.266-0.5913,4.5761,0.7595,5.1715,3.0227c0.5927,2.2619-0.7608,4.5761-3.0213,5.1702L36.9127,78.5516
			C36.5516,78.6453,36.1904,78.6908,35.8348,78.6908z"/>
	</g>
	<g>
		<path fill="#82361A" d="M167.3839,78.6908c-0.3556,0-0.7167-0.0455-1.0779-0.1392l-45.025-11.8069
			c-2.2605-0.5941-3.614-2.9083-3.0213-5.1702c0.5927-2.2632,2.9111-3.614,5.1715-3.0227l45.025,11.8069
			c2.2605,0.5941,3.614,2.9083,3.0213,5.1702C170.9787,77.431,169.2612,78.6908,167.3839,78.6908z"/>
	</g>
	<path fill="#A05024" d="M103.7872,155.1103c0.5875,4.4138,4.4444,7.5495,8.6243,6.9978l0,0
		c4.1799-0.5503,7.0965-4.5765,6.5197-8.993l-3.0556-23.2023c-0.5823-4.4149-4.4444-7.5492-8.6216-6.9978l0,0
		c-4.1827,0.5503-7.0993,4.5754-6.5225,8.993L103.7872,155.1103z"/>
	<g>
		<path fill="#AA5C26" d="M37.7007,190.7938c4.6047,0,9.2441-1.0978,13.4267-3.1743c14.3854-7.1515,20.5392-24.1732,13.8113-38.0501
			c-0.8629-2.7804-2.0379-7.8763-1.7121-10.4631c0.5637-4.443-0.3498-8.2759-2.5695-10.7946
			c-1.5622-1.7709-3.6458-2.7471-5.8652-2.7471c-2.4145,0-4.6955,1.1432-6.4341,3.2197c-1.3276,1.5852-2.2435,3.2599-2.8554,4.9427
			c-1.1137-1.7655-2.3849-3.6179-3.8301-5.5023c-4.2628-5.5608-11.1189-8.882-18.3383-8.882
			c-8.3013,0-18.3066,4.6848-21.4929,17.8337c-2.8606,11.8027,2.0753,21.5049,7.2968,31.7784
			c0.6597,1.297,1.3276,2.6109,1.9925,3.9529c0.1231,0.2486,0.2593,0.4836,0.4141,0.7106c0.2431,0.6009,0.4942,1.2007,0.7907,1.7909
			C17.0546,184.899,26.774,190.7938,37.7007,190.7938z"/>
		
			<radialGradient id="SVGID_4_" cx="8562.1982" cy="120.5053" r="97.499" gradientTransform="matrix(-0.9507 0 0 0.9507 8158.7886 -6.5446)" gradientUnits="userSpaceOnUse">
			<stop  offset="0.1174" style="stop-color:#FCEA65"/>
			<stop  offset="1" style="stop-color:#F5B32D"/>
		</radialGradient>
		<path fill="url(#SVGID_4_)" d="M50.9029,130.9134c-5.7796,6.9122-1.9684,16.2137-1.8587,17.7054
			c0,0-2.6256-8.7474-10.0055-18.3733c-8.6777-11.3219-29.4548-10.916-33.9738,7.7122c-2.9035,11.9911,3.221,21.736,9.0384,33.4761
			c0.1067,0.2136,0.2404,0.4045,0.3818,0.5943c0.2538,0.6397,0.5101,1.2792,0.8227,1.9044
			c6.1136,12.3021,21.4849,17.1018,34.3401,10.7142c12.8497-6.386,18.3118-21.5394,12.2006-33.8417
			c0,0-2.4705-7.7215-1.9123-12.1167C61.0897,129.5497,54.6611,126.4236,50.9029,130.9134z"/>
	</g>
	<g>
		<path fill="#AA5C26" d="M57.933,188.6772c5.1172,0,10.2801-1.2206,14.9277-3.5298c15.9988-7.9526,22.8415-26.88,15.3604-42.3113
			c-0.9616-3.0928-2.2676-8.7592-1.9044-11.6345c0.6277-4.9411-0.39-9.2039-2.8605-12.0043
			c-1.7335-1.9687-4.0492-3.0542-6.5197-3.0542c-2.6817,0-5.2217,1.2712-7.1502,3.579c-1.4769,1.7641-2.4973,3.6269-3.1811,5.4966
			c-1.2365-1.9629-2.6494-4.0224-4.2573-6.1177c-4.7409-6.1844-12.3636-9.877-20.3871-9.877
			c-9.2334,0-20.3603,5.2097-23.9046,19.8302c-3.1811,13.1248,2.3075,23.9153,8.1143,35.3389
			c0.7316,1.4408,1.4742,2.9032,2.2167,4.3949c0.1362,0.2765,0.2913,0.5369,0.4595,0.7893c0.2697,0.669,0.5503,1.3366,0.876,1.9925
			C34.9709,182.1227,45.7802,188.6772,57.933,188.6772z"/>
		
			<radialGradient id="SVGID_5_" cx="8543.1377" cy="108.528" r="108.4176" gradientTransform="matrix(-0.9507 0 0 0.9507 8158.7886 -6.5446)" gradientUnits="userSpaceOnUse">
			<stop  offset="0.1174" style="stop-color:#FCEA65"/>
			<stop  offset="1" style="stop-color:#F5B32D"/>
		</radialGradient>
		<path fill="url(#SVGID_5_)" d="M72.6148,122.0913c-6.4289,7.6868-2.1927,18.0301-2.0699,19.6872c0,0-2.9166-9.726-11.1271-20.4311
			c-9.6527-12.5893-32.7559-12.1366-37.7774,8.5762c-3.2317,13.3346,3.5845,24.1704,10.0506,37.226
			c0.1203,0.2377,0.2699,0.4485,0.4247,0.6597c0.2803,0.7116,0.5689,1.4222,0.9135,2.1194
			c6.8001,13.6778,23.8939,19.0155,38.1888,11.9137c14.2839-7.102,20.363-23.953,13.563-37.6319c0,0-2.7432-8.5871-2.1235-13.4735
			C83.9422,120.5728,76.7923,117.098,72.6148,122.0913z"/>
	</g>
	<g>
		<path fill="#82361A" d="M74.6021,36.0655c-0.0855,0-0.1709-0.0041-0.2591-0.011c-1.552-0.142-2.696-1.5134-2.5554-3.0654
			c0.1516-1.7877-0.0221-7.0282-2.6106-9.8455c-1.3094-1.4266-3.1151-2.1199-5.5189-2.1199c-9.3755,0-9.483,11.7201-9.483,12.219
			c0,1.5589-1.2626,2.8228-2.8228,2.8228s-2.8228-1.2639-2.8228-2.8228c0-6.1791,3.1619-17.8647,15.1287-17.8647
			c4.0303,0,7.2942,1.3356,9.7008,3.971c4.7994,5.2556,4.0854,13.7889,4.0523,14.1487
			C77.2761,34.9642,76.0466,36.0655,74.6021,36.0655z"/>
	</g>
	<g>
		<path fill="#82361A" d="M152.8204,34.3054c-0.0855,0-0.1709-0.0041-0.2591-0.011c-1.552-0.142-2.696-1.5134-2.5555-3.0654
			c0.1516-1.7877-0.022-7.0282-2.6106-9.8455c-1.3094-1.4266-3.1151-2.1199-5.5189-2.1199c-9.3755,0-9.483,11.7201-9.483,12.219
			c0,1.5589-1.2626,2.8228-2.8228,2.8228s-2.8228-1.2639-2.8228-2.8228c0-6.1791,3.1619-17.8647,15.1287-17.8647
			c4.0303,0,7.2942,1.3356,9.7008,3.971c4.7994,5.2556,4.0854,13.7889,4.0523,14.1487
			C155.4943,33.2041,154.2649,34.3054,152.8204,34.3054z"/>
	</g>
</g>
</svg>
