<?xml version="1.0" encoding="utf-8"?>
<!-- Generator: Adobe Illustrator 17.0.0, SVG Export Plug-In . SVG Version: 6.00 Build 0)  -->
<!DOCTYPE svg PUBLIC "-//W3C//DTD SVG 1.1//EN" "http://www.w3.org/Graphics/SVG/1.1/DTD/svg11.dtd">
<svg version="1.1" id="Layer_1" xmlns="http://www.w3.org/2000/svg" xmlns:xlink="http://www.w3.org/1999/xlink" x="0px" y="0px" viewBox="0 0 200 200" enable-background="new 0 0 200 200" xml:space="preserve">
<g>
	<g>
		<g>
			<g>
				<path fill="#E5A126" d="M99.9972,198.9986C45.4105,198.9986,1,154.5881,1,100S45.4105,1.0014,99.9972,1.0014
					C154.5867,1.0014,199,45.4119,199,100S154.5867,198.9986,99.9972,198.9986z"/>
				<path fill="#E5A126" d="M99.9972,197.6085c-53.8236,0-97.6071-43.7874-97.6071-97.6085S46.1737,2.3915,99.9972,2.3915
					c53.8238,0,97.6127,43.7874,97.6127,97.6085S153.8211,197.6085,99.9972,197.6085z"/>
				<radialGradient id="SVGID_1_" cx="103.7957" cy="-9.3552" r="204.239" gradientUnits="userSpaceOnUse">
					<stop  offset="0" style="stop-color:#FFF7C2"/>
					<stop  offset="0.3276" style="stop-color:#FFE996"/>
					<stop  offset="1" style="stop-color:#FDD022"/>
				</radialGradient>
				<path fill="url(#SVGID_1_)" d="M192.0494,100c0,50.8373-41.2177,92.048-92.0522,92.048
					c-50.8342,0-92.0466-41.2107-92.0466-92.048c0-50.837,41.2124-92.048,92.0466-92.048
					C150.8317,7.952,192.0494,49.163,192.0494,100z"/>
				<g>
					<defs>
						<path id="SVGID_2_" d="M192.0494,100c0,50.8373-41.2177,92.048-92.0522,92.048c-50.8342,0-92.0466-41.2107-92.0466-92.048
							c0-50.837,41.2124-92.048,92.0466-92.048C150.8317,7.952,192.0494,49.163,192.0494,100z"/>
					</defs>
					<clipPath id="SVGID_3_">
						<use xlink:href="#SVGID_2_"  overflow="visible"/>
					</clipPath>
				</g>
			</g>
		</g>
	</g>
	<g>
		<path fill="#6D3118" d="M63.7726,77.7052c0,5.4409-3.8581,12.6359-8.6229,12.6359c-4.7595,0-8.6204-7.195-8.6204-12.6359
			c0-5.4412,3.8609-9.8532,8.6204-9.8532C59.9145,67.8521,63.7726,72.264,63.7726,77.7052z"/>
		<g>
			<path fill="#82361A" d="M76.4409,73.5041H32.7451c-2.3424,0-4.2428-1.899-4.2428-4.2428s1.9004-4.2428,4.2428-4.2428h43.6958
				c2.3424,0,4.2428,1.899,4.2428,4.2428S78.7833,73.5041,76.4409,73.5041z"/>
		</g>
	</g>
	<g>
		<path fill="#6D3118" d="M152.2246,77.7052c0,5.4409-3.8581,12.6359-8.6176,12.6359c-4.7623,0-8.626-7.195-8.626-12.6359
			c0-5.4412,3.8637-9.8532,8.626-9.8532C148.3665,67.8521,152.2246,72.264,152.2246,77.7052z"/>
		<g>
			<path fill="#82361A" d="M164.8933,73.5041h-43.6931c-2.3424,0-4.2428-1.899-4.2428-4.2428s1.9004-4.2428,4.2428-4.2428h43.6931
				c2.3424,0,4.2428,1.899,4.2428,4.2428S167.2357,73.5041,164.8933,73.5041z"/>
		</g>
	</g>
	<g>
		<path fill="#AA5C26" d="M11.5671,152.461c0,10.434,5.2699,22.8636,30.36,22.8636c2.5061,0,4.8843-0.1276,7.1163-0.3856v12.2153
			c0,6.4101,5.213,11.6206,11.6206,11.6206s11.6231-5.2104,11.6231-11.6206v-31.4001c0-0.4181-0.0378-0.8252-0.0895-1.2297
			c0.0542-0.6709,0.0895-1.3495,0.0895-2.0635c0-16.7384-13.6215-30.3602-30.36-30.3602S11.5671,135.7225,11.5671,152.461z"/>
		
			<radialGradient id="SVGID_4_" cx="3632.2236" cy="4195.2539" r="137.1296" gradientTransform="matrix(0 -1 -1 0 4335.9824 3769.9121)" gradientUnits="userSpaceOnUse">
			<stop  offset="0.1174" style="stop-color:#FCEA65"/>
			<stop  offset="1" style="stop-color:#F5B32D"/>
		</radialGradient>
		<path fill="url(#SVGID_4_)" d="M68.4128,152.461c0,0.7573-0.0489,1.4688-0.114,2.1719c0.0542,0.3692,0.114,0.7304,0.114,1.1213
			v31.4001c0,4.2816-3.4725,7.7488-7.7488,7.7488c-4.2791,0-7.7488-3.4672-7.7488-7.7488v-16.7738
			c-3.3532,0.7412-7.0621,1.0723-10.9881,1.0723c-14.626,0-26.4857-4.363-26.4857-18.9919
			c0-14.6291,11.8597-26.4857,26.4857-26.4857C56.5534,125.9753,68.4128,137.8319,68.4128,152.461z"/>
	</g>
	<g>
		<path fill="#AA5C26" d="M187.3035,152.461c0,10.434-5.2699,22.8636-30.36,22.8636c-2.5061,0-4.8846-0.1276-7.1163-0.3856v12.2153
			c0,6.4101-5.213,11.6206-11.6206,11.6206s-11.6234-5.2104-11.6234-11.6206v-31.4001c0-0.4181,0.0381-0.8252,0.087-1.2297
			c-0.0517-0.6709-0.087-1.3495-0.087-2.0635c0-16.7384,13.619-30.3602,30.3603-30.3602
			C173.682,122.1007,187.3035,135.7225,187.3035,152.461z"/>
		
			<radialGradient id="SVGID_5_" cx="3632.2236" cy="-4027.1658" r="137.1288" gradientTransform="matrix(0 -1 1 0 4085.3086 3769.9121)" gradientUnits="userSpaceOnUse">
			<stop  offset="0.1174" style="stop-color:#FCEA65"/>
			<stop  offset="1" style="stop-color:#F5B32D"/>
		</radialGradient>
		<path fill="url(#SVGID_5_)" d="M130.4578,152.461c0,0.7573,0.0489,1.4688,0.114,2.1719c-0.0542,0.3692-0.114,0.7304-0.114,1.1213
			v31.4001c0,4.2816,3.4697,7.7488,7.7488,7.7488s7.7488-3.4672,7.7488-7.7488v-16.7738c3.3505,0.7412,7.0618,1.0723,10.9881,1.0723
			c14.626,0,26.4854-4.363,26.4854-18.9919c0-14.6291-11.8594-26.4857-26.4854-26.4857
			C142.3172,125.9753,130.4578,137.8319,130.4578,152.461z"/>
	</g>
	<g>
		<path fill="#82361A" d="M114.7117,141.404H84.2746c-2.3424,0-4.2428-1.899-4.2428-4.2428c0-2.3438,1.9004-4.2428,4.2428-4.2428
			h30.4371c2.3424,0,4.2428,1.899,4.2428,4.2428C118.9545,139.505,117.0541,141.404,114.7117,141.404z"/>
	</g>
</g>
</svg>
