<?xml version="1.0" encoding="utf-8"?>
<!-- Generator: Adobe Illustrator 17.0.0, SVG Export Plug-In . SVG Version: 6.00 Build 0)  -->
<!DOCTYPE svg PUBLIC "-//W3C//DTD SVG 1.1//EN" "http://www.w3.org/Graphics/SVG/1.1/DTD/svg11.dtd">
<svg version="1.1" id="Layer_1" xmlns="http://www.w3.org/2000/svg" xmlns:xlink="http://www.w3.org/1999/xlink" x="0px" y="0px" viewBox="0 0 200 200" enable-background="new 0 0 200 200" xml:space="preserve">
<g>
	<g>
		<g>
			<g>
				<path fill="#E5A126" d="M99.9975,198.9986C45.4108,198.9986,1,154.5881,1,100S45.4108,1.0014,99.9975,1.0014
					C154.5867,1.0014,199,45.4119,199,100S154.5867,198.9986,99.9975,198.9986z"/>
				<path fill="#E5A126" d="M99.9975,197.6085c-53.8238,0-97.6074-43.7874-97.6074-97.6085S46.1737,2.3915,99.9975,2.3915
					c53.8236,0,97.6124,43.7874,97.6124,97.6085S153.8211,197.6085,99.9975,197.6085z"/>
				<radialGradient id="SVGID_1_" cx="103.7957" cy="-9.3552" r="204.239" gradientUnits="userSpaceOnUse">
					<stop  offset="0" style="stop-color:#FFF7C2"/>
					<stop  offset="0.3276" style="stop-color:#FFE996"/>
					<stop  offset="1" style="stop-color:#FDD022"/>
				</radialGradient>
				<path fill="url(#SVGID_1_)" d="M192.0494,100c0,50.8373-41.2177,92.048-92.0519,92.048
					c-50.8345,0-92.0469-41.2107-92.0469-92.048c0-50.837,41.2124-92.048,92.0469-92.048
					C150.8317,7.952,192.0494,49.163,192.0494,100z"/>
				<g>
					<defs>
						<path id="SVGID_2_" d="M192.0494,100c0,50.8373-41.2177,92.048-92.0519,92.048c-50.8345,0-92.0469-41.2107-92.0469-92.048
							c0-50.837,41.2124-92.048,92.0469-92.048C150.8317,7.952,192.0494,49.163,192.0494,100z"/>
					</defs>
					<clipPath id="SVGID_3_">
						<use xlink:href="#SVGID_2_"  overflow="visible"/>
					</clipPath>
				</g>
			</g>
		</g>
	</g>
	<g>
		<g>
			<path fill="#AA5C26" d="M114.6861,82.1158c0,4.5504,1.1293,9.2151,3.4208,13.6026c5.4573,10.4203,16.0353,16.3801,26.95,15.1773
				c12.5492-1.374,22.2636-7.3418,27.3462-16.7874c5.2566-9.7662,4.9524-22.3098-0.8143-33.5611
				c-4.5287-8.8403-15.2913-16.0759-26.7762-18.0065c-10.7192-1.7946-20.8085,1.2328-28.4052,8.5253
				c-1.0534,1.0156-1.0915,2.6935-0.0759,3.7497c1.0154,1.0615,2.6988,1.094,3.7522,0.0787
				c8.1453-7.8194,17.4633-8.1886,23.8492-7.1191c9.7634,1.6401,19.1901,7.8848,22.937,15.1882
				c4.9633,9.6983,5.2889,20.4067,0.8633,28.6334c-4.2354,7.8628-12.4947,12.845-23.2573,14.0288
				c-10.5888,1.1646-18.1366-5.6286-21.6664-12.3726c-3.4914-6.6765-4.7948-16.6056,2.0418-24.4656
				c4.8273-5.5524,13.5809-7.8169,20.8137-5.3678c3.4753,1.173,9.3997,4.5207,9.9861,13.7275
				c0.5811,8.8784-4.8816,12.6251-10.1543,13.2712c-4.8112,0.5919-10.4095-1.4416-11.3056-6.3695
				c-0.5269-2.9159-0.2063-4.9686,0.9611-6.1307c1.781-1.781,5.479-1.5747,6.7552-1.3384c1.439,0.258,2.8183-0.6923,3.0844-2.1313
				c0.2605-1.4282-0.6734-2.8156-2.1124-3.0897c-0.744-0.1385-7.3904-1.2517-11.4577,2.7883
				c-2.4869,2.4652-3.3179,6.1171-2.4491,10.8521c1.4772,8.1264,9.9483,11.5716,17.1649,10.6867
				c7.9062-0.9639,15.5466-7.1408,14.8078-18.8809c-0.5699-8.9813-5.5224-15.6875-13.5806-18.4163
				c-9.1826-3.1033-20.3361-0.1927-26.521,6.9181C116.7713,69.9931,114.6861,75.9417,114.6861,82.1158z"/>
		</g>
	</g>
	<g>
		<g>
			<path fill="#AA5C26" d="M29.4271,82.1158c0,4.5504,1.1293,9.2151,3.4208,13.6026c5.4573,10.4203,16.0353,16.3801,26.95,15.1773
				c12.5492-1.374,22.2636-7.3418,27.3462-16.7874c5.2563-9.7662,4.9524-22.3098-0.8146-33.5611
				c-4.5287-8.8403-15.2913-16.0759-26.776-18.0065c-10.7192-1.7946-20.8084,1.2328-28.4052,8.5253
				c-1.0534,1.0156-1.0915,2.6935-0.0762,3.7497c1.0156,1.0615,2.6991,1.094,3.7525,0.0787
				c8.145-7.8194,17.4633-8.1886,23.8492-7.1191c9.7634,1.6401,19.1901,7.8848,22.937,15.1882
				c4.963,9.6983,5.2889,20.4067,0.8633,28.6334c-4.2354,7.8628-12.4947,12.845-23.2573,14.0288
				c-10.5888,1.1646-18.1366-5.6286-21.6664-12.3726c-3.4914-6.6765-4.7948-16.6056,2.0418-24.4656
				c4.8273-5.5524,13.5809-7.8169,20.8137-5.3678c3.4753,1.173,9.3997,4.5207,9.9861,13.7275
				c0.5811,8.8784-4.8816,12.6251-10.1543,13.2712c-4.8112,0.5919-10.4098-1.4416-11.3056-6.3695
				c-0.5269-2.9159-0.2063-4.9686,0.9611-6.1307c1.781-1.781,5.479-1.5747,6.7552-1.3384c1.4388,0.258,2.8181-0.6923,3.0841-2.1313
				c0.2608-1.4282-0.6731-2.8156-2.1122-3.0897c-0.744-0.1385-7.3904-1.2517-11.4577,2.7883
				c-2.4869,2.4652-3.3179,6.1171-2.4491,10.8521c1.4771,8.1264,9.948,11.5716,17.1649,10.6867
				c7.9062-0.9639,15.5463-7.1408,14.8079-18.8809c-0.5702-8.9813-5.5224-15.6875-13.5807-18.4163
				c-9.1826-3.1033-20.3361-0.1927-26.521,6.9181C31.5123,69.9931,29.4271,75.9417,29.4271,82.1158z"/>
		</g>
	</g>
	<ellipse fill="#A05024" cx="99.1748" cy="169.0309" rx="7.3198" ry="9.9469"/>
	<g>
		<g>
			<radialGradient id="SVGID_4_" cx="36.2119" cy="114.8345" r="30.7262" gradientUnits="userSpaceOnUse">
				<stop  offset="0" style="stop-color:#F15A60;stop-opacity:0.5"/>
				<stop  offset="0.1384" style="stop-color:#F16262;stop-opacity:0.4367"/>
				<stop  offset="0.3698" style="stop-color:#F37767;stop-opacity:0.3309"/>
				<stop  offset="0.6559" style="stop-color:#F7956E;stop-opacity:0.2"/>
				<stop  offset="0.7027" style="stop-color:#F69B6C;stop-opacity:0.1714"/>
				<stop  offset="0.7826" style="stop-color:#F6AE68;stop-opacity:0.1227"/>
				<stop  offset="0.8851" style="stop-color:#F8CC5A;stop-opacity:0.0602"/>
				<stop  offset="0.9839" style="stop-color:#FAEE3C;stop-opacity:0"/>
			</radialGradient>
			<path fill="url(#SVGID_4_)" d="M66.9385,114.8326c0,16.972-13.7544,30.7278-30.7292,30.7278
				c-16.9612,0-30.7239-13.7558-30.7239-30.7278c0-16.9692,13.7628-30.7239,30.7239-30.7239
				C53.184,84.1087,66.9385,97.8634,66.9385,114.8326z"/>
			<radialGradient id="SVGID_5_" cx="158.8576" cy="114.8345" r="30.7262" gradientUnits="userSpaceOnUse">
				<stop  offset="0" style="stop-color:#F15A60;stop-opacity:0.5"/>
				<stop  offset="0.1384" style="stop-color:#F16262;stop-opacity:0.4367"/>
				<stop  offset="0.3698" style="stop-color:#F37767;stop-opacity:0.3309"/>
				<stop  offset="0.6559" style="stop-color:#F7956E;stop-opacity:0.2"/>
				<stop  offset="0.7027" style="stop-color:#F69B6C;stop-opacity:0.1714"/>
				<stop  offset="0.7826" style="stop-color:#F6AE68;stop-opacity:0.1227"/>
				<stop  offset="0.8851" style="stop-color:#F8CC5A;stop-opacity:0.0602"/>
				<stop  offset="0.9839" style="stop-color:#FAEE3C;stop-opacity:0"/>
			</radialGradient>
			<circle fill="url(#SVGID_5_)" cx="158.8576" cy="114.8326" r="30.7265"/>
		</g>
		<g>
			<g>
				<path fill="#F26A6B" d="M15.4385,125.0456c-0.4723,0-0.9475-0.1561-1.3425-0.4779c-0.906-0.7417-1.0414-2.0772-0.3011-2.9846
					l12.8308-15.716c0.7431-0.9088,2.0772-1.0414,2.986-0.3025c0.906,0.7417,1.0414,2.0772,0.3011,2.9846l-12.8308,15.716
					C16.6622,124.7791,16.0518,125.0456,15.4385,125.0456z"/>
			</g>
			<g>
				<path fill="#F26A6B" d="M28.2417,125.431c-0.4723,0-0.9475-0.1561-1.3425-0.4779c-0.906-0.7417-1.0414-2.0772-0.3011-2.9846
					l12.8308-15.7174c0.7431-0.9088,2.0772-1.0414,2.986-0.3025c0.906,0.7417,1.0414,2.0772,0.3011,2.9846l-12.8308,15.7174
					C29.4654,125.1644,28.8549,125.431,28.2417,125.431z"/>
			</g>
		</g>
		<g>
			<g>
				<path fill="#F26A6B" d="M151.5994,125.0456c-0.4724,0-0.9475-0.1561-1.3425-0.4779c-0.906-0.7417-1.0414-2.0772-0.3011-2.9846
					l12.8308-15.716c0.743-0.9088,2.08-1.0414,2.986-0.3025c0.906,0.7417,1.0414,2.0772,0.3011,2.9846l-12.8308,15.716
					C152.8231,124.7791,152.2127,125.0456,151.5994,125.0456z"/>
			</g>
			<g>
				<path fill="#F26A6B" d="M164.4053,125.431c-0.4723,0-0.9474-0.1561-1.3425-0.4779c-0.906-0.7417-1.0414-2.0772-0.3011-2.9846
					l12.8308-15.7174c0.7431-0.9088,2.0772-1.0414,2.986-0.3025c0.906,0.7417,1.0414,2.0772,0.3011,2.9846l-12.8308,15.7174
					C165.629,125.1644,165.0186,125.431,164.4053,125.431z"/>
			</g>
		</g>
	</g>
</g>
</svg>
