<?xml version="1.0" encoding="utf-8"?>
<!-- Generator: Adobe Illustrator 17.0.0, SVG Export Plug-In . SVG Version: 6.00 Build 0)  -->
<!DOCTYPE svg PUBLIC "-//W3C//DTD SVG 1.1//EN" "http://www.w3.org/Graphics/SVG/1.1/DTD/svg11.dtd">
<svg version="1.1" id="Layer_1" xmlns="http://www.w3.org/2000/svg" xmlns:xlink="http://www.w3.org/1999/xlink" x="0px" y="0px"
	  viewBox="0 0 200 200" enable-background="new 0 0 200 200" xml:space="preserve">
<g>
	<g>
		<g>
			<g>
				<path fill="#E4A024" d="M99.9972,198.9986C45.4105,198.9986,1,154.5881,1,100S45.4105,1.0014,99.9972,1.0014
					C154.5867,1.0014,199,45.4119,199,100S154.5867,198.9986,99.9972,198.9986z"/>
				<path fill="#E4A024" d="M99.9972,197.6085c-53.8238,0-97.6071-43.7874-97.6071-97.6085S46.1734,2.3915,99.9972,2.3915
					S197.6099,46.1789,197.6099,100S153.8211,197.6085,99.9972,197.6085z"/>
				
					<radialGradient id="SVGID_1_" cx="30.7625" cy="-8.5495" r="207.7893" gradientTransform="matrix(0.9829 0 0 0.9829 73.5588 -0.9518)" gradientUnits="userSpaceOnUse">
					<stop  offset="0" style="stop-color:#FFF7C2"/>
					<stop  offset="0.3321" style="stop-color:#FFEB8F"/>
					<stop  offset="1" style="stop-color:#FED01F"/>
				</radialGradient>
				<path fill="url(#SVGID_1_)" d="M192.0494,100c0,50.8373-41.2177,92.048-92.0522,92.048S7.9506,150.8373,7.9506,100
					c0-50.837,41.2121-92.048,92.0466-92.048S192.0494,49.163,192.0494,100z"/>
				<g>
					<defs>
						<path id="SVGID_2_" d="M192.0494,100c0,50.8373-41.2177,92.048-92.0522,92.048S7.9506,150.8373,7.9506,100
							c0-50.837,41.2121-92.048,92.0466-92.048S192.0494,49.163,192.0494,100z"/>
					</defs>
					<clipPath id="SVGID_3_">
						<use xlink:href="#SVGID_2_"  overflow="visible"/>
					</clipPath>
				</g>
			</g>
		</g>
	</g>
	<g>
		<g>
			<path fill="#823308" d="M107.2656,134.8631c5.8699,3.4536,12.2367,5.422,18.9268,5.8591
				c26.2249,1.7079,49.1402-21.2116,51.0922-51.0964c0.0706-1.1038-0.3014-2.1911-1.0262-3.0205
				c-0.2986-0.3395-0.6409-0.6219-1.0209-0.8446c-0.5594-0.3284-1.1891-0.5266-1.8436-0.5675l-86.7931-5.6542
				c-2.3023-0.1507-4.2844,1.5939-4.4364,3.8896c-1.401,21.4546,8.4547,41.6439,25.0984,51.4331L107.2656,134.8631z"/>
			<path fill="#FFFFFF" d="M173.1198,89.3556c-1.7974,27.6314-22.6873,48.7682-46.6561,47.2044
				c-23.9632-1.5583-41.9372-25.2257-40.1342-52.8599L173.1198,89.3556z"/>
		</g>
		<g>
			<path fill="#823308" d="M44.5798,110.8685c-6.652,0-13.1628-1.9209-18.8264-5.5563
				C7.5622,93.6441,3.9404,68.2824,16.7392,42.2026c0.5241-1.0668,1.4796-1.8597,2.6229-2.1786
				c0.372-0.1034,0.7465-0.1535,1.1213-0.1535c0.7901,0,1.572,0.2252,2.2509,0.6598L81.4424,78.187
				c1.7838,1.1443,2.4272,3.4442,1.4933,5.3475c-8.3924,17.1143-22.7335,27.334-38.3532,27.334H44.5798z"/>
			<path fill="#FFFFFF" d="M20.4834,44.0409c-12.0604,24.5715-8.691,47.3617,7.5208,57.762
				c16.2088,10.4001,39.135,4.4717,51.1873-20.1053L20.4834,44.0409z"/>
		</g>
		<path fill="#6D2F16" d="M49.9609,84.6002c-0.5727,5.2902,3.3179,10.0158,8.7127,10.5535c5.3867,0.536,10.236-3.3235,10.806-8.6179
			c0.5702-5.2903-3.3177-10.0186-8.7152-10.5507C55.3721,75.4449,50.5448,79.3083,49.9609,84.6002z"/>
		<path fill="#6D2F16" d="M133.9793,104.4298c-0.6083,5.6325,3.5348,10.6619,9.2774,11.235
			c5.7368,0.5702,10.8955-3.5379,11.5038-9.1742c0.608-5.6311-3.5298-10.6661-9.2777-11.2322
			C139.7433,94.6839,134.6037,98.7959,133.9793,104.4298z"/>
	</g>
	<path fill="#A04E17" d="M77.1906,167.3342c-2.0365,3.2362-6.8611,3.8634-10.7762,1.4037
		c-3.9179-2.4655-5.4437-7.0824-3.4128-10.3255c2.0362-3.2365,6.8636-3.8637,10.7815-1.4024
		C77.7011,159.4738,79.2269,164.0949,77.1906,167.3342z"/>
	<g>
		<path fill="#823308" d="M76.2058,68.9907c-5.9085,0-8.0465-3.4294-8.3531-3.9846c-0.0497-0.0884-0.0939-0.1809-0.1326-0.2748
			L52.8286,29.2374c-0.6049-1.4405,0.0718-3.0979,1.5137-3.7028c1.4419-0.598,3.0993,0.0746,3.7015,1.5151L72.833,62.2964
			c0.3011,0.3025,3.0054,2.7333,11.6264-1.1823c1.4391-0.6478,3.102-0.0138,3.7456,1.4032
			c0.6464,1.4226,0.0193,3.0993-1.4032,3.7456C82.3657,68.2795,78.8962,68.9907,76.2058,68.9907z"/>
	</g>
	<g>
		<path fill="#823308" d="M102.4529,79.3783c-2.6822,0-8.5382-1.4709-12.3916-13.2437c-0.4862-1.4847,0.3232-3.0813,1.8065-3.5675
			c1.4972-0.4931,3.0855,0.3232,3.5689,1.8079c2.8728,8.7758,6.3836,9.3172,7.0631,9.3365l35.8847-12.944
			c1.4668-0.5331,3.0882,0.232,3.6186,1.7002c0.5304,1.4695-0.232,3.091-1.7016,3.62l-36.2024,13.06
			c-0.0939,0.0359-0.1934,0.0649-0.2928,0.0884C103.6241,79.2816,103.1435,79.3783,102.4529,79.3783z"/>
	</g>
</g>
</svg>
