<?xml version="1.0" encoding="utf-8"?>
<!-- Generator: Adobe Illustrator 17.0.0, SVG Export Plug-In . SVG Version: 6.00 Build 0)  -->
<!DOCTYPE svg PUBLIC "-//W3C//DTD SVG 1.1//EN" "http://www.w3.org/Graphics/SVG/1.1/DTD/svg11.dtd">
<svg version="1.1" id="Layer_1" xmlns="http://www.w3.org/2000/svg" xmlns:xlink="http://www.w3.org/1999/xlink" x="0px" y="0px"
	viewBox="0 0 200 200" enable-background="new 0 0 200 200" xml:space="preserve">
<path fill="#903F40" d="M191.4452,109.4677c3.1218,3.2879,5.0898,8.0334,5.0898,13.2999c0,7.6719-4.1783,14.2387-10.0317,16.7995
	c2.288,3.1265,3.6644,7.169,3.6644,11.5789c0,8.5882-5.221,15.7831-12.1733,17.5466c1.9696,3.0107,3.1371,6.765,3.1371,10.8306
	c0,9.8959-6.9389,17.949-15.469,17.949l-47.9769-0.0016l-6.4235,0.0122c-14.155,0-39.0916-0.0228-52.5557-15.4309v3.3354
	c0,2.8718-2.3233,5.1978-5.1966,5.1978H1.3V87.8618h52.2098c2.8733,0,5.1966,2.3261,5.1966,5.1982v0.4892
	c0.9387-1.1448,1.928-2.2468,2.9829-3.262c20.4308-15.7784,27.2933-39.9176,27.5723-43.5564
	c0.2042-2.637,0.1264-0.9434,0.044-5.1429C89.001,26.1645,88.7172,5.9336,97.7094,2.9337c1.442-0.4802,3.0747-0.7241,4.8445-0.7241
	c11.6198,0,28.1589,15.7906,28.9821,34.805c0.6097,14.0042-5.5075,22.8378-9.5578,28.6834
	c-1.0777,1.5519-2.5593,3.6781-2.7041,4.2619c0,2.6052,0.4421,4.6556,1.157,5.5762h63.3957c8.5301,0,15.4734,8.1445,15.4734,18.1488
	C199.3,100.4422,196.1279,106.3474,191.4452,109.4677z"/>
<g>
	<rect x="19.883" y="93.06" fill="#FFFFFF" width="29.4136" height="92.3272"/>
	<g>
		
			<radialGradient id="SVGID_1_" cx="-1061.8037" cy="145.1548" r="393.085" gradientTransform="matrix(0.7351 0 0 0.7351 985.3108 -80.4355)" gradientUnits="userSpaceOnUse">
			<stop  offset="0.1658" style="stop-color:#FBEC7B"/>
			<stop  offset="0.298" style="stop-color:#F9DF6C"/>
			<stop  offset="0.556" style="stop-color:#F6CA54"/>
			<stop  offset="0.7963" style="stop-color:#F4BD46"/>
			<stop  offset="1" style="stop-color:#F3B941"/>
		</radialGradient>
		<path fill="url(#SVGID_1_)" d="M165.2099,106.6234h19.4777c5.6814,0,10.2786-5.7894,10.2786-12.9384
			c0-7.1431-4.5972-12.9494-10.2786-12.9494h-19.4777h-15.8121h-24.0525h-5.6277c-3.7315-1.663-4.7786-6.2162-4.7786-10.7756
			c0-5.7208,13.0908-13.905,12.2707-32.7165c-0.8139-18.8119-19.6288-31.8297-26.9914-29.377
			c-7.3656,2.4572-4.0896,28.6284-4.9069,39.2639c-0.6522,8.4567-9.8731,32.5916-29.0124,46.7647
			c-1.1722,1.1189-2.2652,2.3308-3.2835,3.6404c-0.0958,0.1127-0.1692,0.1904-0.1692,0.1904l0.0381-0.0075
			c-4.5501,5.9936-7.3578,14.0816-7.3578,25.0461v30.8724c0,40.512,38.942,38.6327,63.0267,38.6327h17.0037l0.0412,0.0075h30.9289
			c5.6689,0,10.274-5.7176,10.274-12.7539c0-7.0516-4.605-12.7602-10.274-12.7602h-17.1292v-2.8599H175.56
			c5.663,0,10.2724-5.7086,10.2724-12.757c0-7.0394-4.6094-12.7464-10.2724-12.7464h-26.1622v-3.0532
			c0.5229,0.099,1.0642,0.1708,1.6174,0.1708h30.9121c5.6705,0,10.2739-5.7133,10.2739-12.7496
			c0-7.0563-4.6035-12.7602-10.2739-12.7602h-30.9121c-0.5532,0-1.0945,0.0684-1.6174,0.1736v-3.5576H165.2099z"/>
	</g>
	<g>
		<defs>
			<path id="SVGID_2_" d="M181.9273,110.0074h-30.9121c-0.5532,0-1.0945,0.0684-1.6174,0.1736v-3.5576h15.8121h19.4777
				c5.6814,0,10.2786-5.7894,10.2786-12.9384c0-7.1431-4.5972-12.9494-10.2786-12.9494h-19.4777h-15.8121h-24.0525h-5.6277
				c-3.7315-1.663-4.7786-6.2162-4.7786-10.7756c0-5.7208,13.0908-13.905,12.2707-32.7165
				c-0.8139-18.8119-19.6288-31.8297-26.9914-29.377c-7.3656,2.4572-4.0896,28.6284-4.9069,39.2639
				c-0.6522,8.4567-9.8731,36.0031-29.0124,46.7647c-1.1722,1.1189-2.2652,2.3308-3.2835,3.6404
				c-0.0958,0.1127-0.1692,0.1904-0.1692,0.1904l0.0381-0.0075c-4.5501,5.9936-7.3578,14.0816-7.3578,25.0461v30.8724
				c0,40.512,38.942,38.6327,63.0267,38.6327h17.0037l0.0412,0.0075h30.9289c5.6689,0,10.274-5.7176,10.274-12.7539
				c0-7.0516-4.605-12.7602-10.274-12.7602h-17.1292v-2.8599H175.56c5.663,0,10.2724-5.7086,10.2724-12.757
				c0-7.0394-4.6094-12.7464-10.2724-12.7464h-26.1622v-3.0532c0.5229,0.099,1.0642,0.1708,1.6174,0.1708h30.9121
				c5.6705,0,10.2739-5.7133,10.2739-12.7496C192.2013,115.7113,187.5978,110.0074,181.9273,110.0074z"/>
		</defs>
		<clipPath id="SVGID_3_">
			<use xlink:href="#SVGID_2_"  overflow="visible"/>
		</clipPath>
	</g>
	<g>
		<defs>
			<path id="SVGID_4_" d="M165.2099,106.6234h19.4777c5.6814,0,10.2786-5.7894,10.2786-12.9384
				c0-7.1431-4.5972-12.9494-10.2786-12.9494h-19.4777h-15.8121h-24.0525h-5.6277c-3.7315-1.663-4.7786-6.2162-4.7786-10.7756
				c0-5.7208,13.0908-13.905,12.2707-32.7165c-0.8139-18.8119-19.6288-31.8297-26.9914-29.377
				c-7.3656,2.4572-4.0896,28.6284-4.9069,39.2639c-0.6522,8.4567-9.8731,32.5916-29.0124,46.7647
				c-1.1722,1.1189-2.2652,2.3308-3.2835,3.6404c-0.0958,0.1127-0.1692,0.1904-0.1692,0.1904l0.0381-0.0075
				c-4.5501,5.9936-7.3578,14.0816-7.3578,25.0461v30.8724c0,40.512,38.942,38.6327,63.0267,38.6327h17.0037l0.0412,0.0075h30.9289
				c5.6689,0,10.274-5.7176,10.274-12.7539c0-7.0516-4.605-12.7602-10.274-12.7602h-17.1292v-2.8599H175.56
				c5.663,0,10.2724-5.7086,10.2724-12.757c0-7.0394-4.6094-12.7464-10.2724-12.7464h-26.1622v-3.0532
				c0.5229,0.099,1.0642,0.1708,1.6174,0.1708h30.9121c5.6705,0,10.2739-5.7133,10.2739-12.7496
				c0-7.0563-4.6035-12.7602-10.2739-12.7602h-30.9121c-0.5532,0-1.0945,0.0684-1.6174,0.1736v-3.5576H165.2099z"/>
		</defs>
		<clipPath id="SVGID_5_">
			<use xlink:href="#SVGID_4_"  overflow="visible"/>
		</clipPath>
	</g>
</g>
<radialGradient id="SVGID_6_" cx="-30.3184" cy="127.8227" r="198.75" gradientUnits="userSpaceOnUse">
	<stop  offset="0.0054" style="stop-color:#711A12;stop-opacity:0.5"/>
	<stop  offset="0.6057" style="stop-color:#831F19;stop-opacity:0.1982"/>
	<stop  offset="1" style="stop-color:#92231E;stop-opacity:0"/>
</radialGradient>
<path fill="url(#SVGID_6_)" d="M72.9282,88.243c0,0-8.8257,13.8563-8.8257,35.3326s6.7132,43.0151,22.1013,52.591
	c22.0951,13.7507,83.9511,15.0847,89.4386,9.2206c0,0-2.253,6.948-10.5774,6.948c-8.3275,0-67.031,0-67.031,0
	s-24.3846-1.7638-33.9315-13.0302c-9.5453-11.2707-8.576-28.5963-8.576-28.5963v-32.1742
	C55.5265,118.5344,55.589,99.677,72.9282,88.243z"/>
<radialGradient id="SVGID_7_" cx="-1228.0256" cy="-128.4483" r="81.1385" gradientTransform="matrix(0.7351 0 0 0.7351 985.3108 154.6712)" gradientUnits="userSpaceOnUse">
	<stop  offset="0.0054" style="stop-color:#711A12;stop-opacity:0.5"/>
	<stop  offset="0.6057" style="stop-color:#831F19;stop-opacity:0.1982"/>
	<stop  offset="1" style="stop-color:#92231E;stop-opacity:0"/>
</radialGradient>
<path fill="url(#SVGID_7_)" d="M142.7184,80.7356c0,0-21.2097,5.265-28.758,3.041c-7.5439-2.224-9.2575-14.1182-0.0031-21.2172
	c5.5621-4.2666,12.6887-17.0814,12.6887-17.0814s-2.5839,9.629-8.0715,17.2416c-7.306,10.1385-1.8275,16.6397-0.1371,17.5132
	C119.6599,80.862,142.7184,80.7356,142.7184,80.7356z"/>
</svg>
