<?xml version="1.0" encoding="utf-8"?>
<!-- Generator: Adobe Illustrator 17.0.0, SVG Export Plug-In . SVG Version: 6.00 Build 0)  -->
<!DOCTYPE svg PUBLIC "-//W3C//DTD SVG 1.1//EN" "http://www.w3.org/Graphics/SVG/1.1/DTD/svg11.dtd">
<svg version="1.1" id="Layer_1" xmlns="http://www.w3.org/2000/svg" xmlns:xlink="http://www.w3.org/1999/xlink" x="0px" y="0px" viewBox="0 0 200 200" enable-background="new 0 0 200 200" xml:space="preserve">
<g>
	<g>
		<path fill="#E5A126" d="M96.6831,195.7717c-44.4734,0-82.7378-30.2731-93.0491-73.6192
			C-2.2824,97.272,1.8434,71.5754,15.2514,49.7943c13.4131-21.7784,34.499-37.0308,59.3794-42.946
			c7.0487-1.6787,14.2689-2.558,21.4623-2.6173l0.8005-0.0027c44.4837,0,82.7508,30.2717,93.0515,73.6141
			c1.7513,7.3488,2.6227,14.9389,2.5938,22.567c3.9574,3.7667,6.301,9.1119,6.4536,14.7626
			c0.2343,8.9987-5.1529,17.131-13.1734,20.0155c-11.4935,29.0829-36.4503,50.727-66.8811,57.9642
			c-7.0409,1.676-14.2583,2.5566-21.4572,2.6173L96.6831,195.7717z"/>
		<path fill="#E5A126" d="M97.4704,194.4208c-44.2286,0.3581-82.2743-29.4895-92.5252-72.5806
			c-5.8348-24.534-1.7642-49.8685,11.4542-71.3389c13.2235-21.4718,34.0093-36.508,58.542-42.3417
			c6.9594-1.6561,14.0793-2.5224,21.1622-2.5804c44.2364-0.3594,82.2903,29.4855,92.5303,72.5752
			c1.7774,7.4583,2.6305,15.1271,2.5515,22.841c3.9444,3.527,6.3088,8.6406,6.459,14.2136
			c0.2292,8.7668-5.2004,16.4488-12.8522,18.9044c-11.2538,29.0301-35.784,50.5019-66.165,57.7272
			C111.6759,193.4952,104.5534,194.3615,97.4704,194.4208L97.4704,194.4208z"/>
		
			<radialGradient id="SVGID_1_" cx="-87.1137" cy="-110.6957" r="375.1711" gradientTransform="matrix(0.9532 -0.0077 0.0077 0.9532 205.7147 31.5175)" gradientUnits="userSpaceOnUse">
			<stop  offset="0" style="stop-color:#FFF7C2"/>
			<stop  offset="0.2752" style="stop-color:#FFE996"/>
			<stop  offset="0.84" style="stop-color:#FDD022"/>
		</radialGradient>
		<path fill="url(#SVGID_1_)" d="M185.7244,103.6178c0.3214-7.9584-0.4055-16.087-2.3328-24.2166
			c-11.3752-47.8266-59.3716-77.37-107.1993-65.9965C28.3643,24.7785-1.1845,72.7655,10.1907,120.5921
			c11.3749,47.8279,59.366,77.3768,107.1888,66.0029c30.5702-7.2725,53.6681-29.5224,63.3816-57.1172
			c6.5906-0.673,11.6831-6.7818,11.4936-14.1241C192.1176,110.2849,189.4925,105.9547,185.7244,103.6178z"/>
		<g>
			<defs>
				<path id="SVGID_2_" d="M183.3915,79.4011c11.3698,47.8304-18.1817,95.8203-66.0121,107.1939
					c-47.8228,11.3738-95.8138-18.175-107.1888-66.0029C-1.1845,72.7655,28.3643,24.7785,76.1923,13.4047
					C124.0199,2.0311,172.0164,31.5746,183.3915,79.4011z"/>
			</defs>
			<clipPath id="SVGID_3_">
				<use xlink:href="#SVGID_2_"  overflow="visible"/>
			</clipPath>
		</g>
		<g>
			
				<radialGradient id="SVGID_4_" cx="-227.0135" cy="-389.7535" r="18.6417" gradientTransform="matrix(0.953 -0.025 0.025 0.953 406.0804 468.2155)" gradientUnits="userSpaceOnUse">
				<stop  offset="0.0054" style="stop-color:#8D2F1D"/>
				<stop  offset="0.2931" style="stop-color:#892E1C"/>
				<stop  offset="0.6404" style="stop-color:#7D2B19"/>
				<stop  offset="1" style="stop-color:#6C2615"/>
			</radialGradient>
			<path fill="url(#SVGID_4_)" d="M185.5586,115.3537c0.0868,3.2965-2.1724,6.0284-5.0478,6.1061
				c-2.8753,0.0763-5.2794-2.5397-5.3611-5.8324c-0.0868-3.3046,2.1724-6.0403,5.0451-6.1139
				C183.0755,109.4356,185.4742,112.0529,185.5586,115.3537z"/>
		</g>
	</g>
	<g>
		<path fill="#82361A" d="M111.6624,94.6867c-1.8314,0-3.5219-1.1974-4.0661-3.044c-0.6629-2.2485,0.6215-4.6075,2.87-5.2704
			l45.3897-13.3805c2.2402-0.6547,4.6047,0.6229,5.2677,2.87c0.6629,2.2485-0.6215,4.6075-2.87,5.2704L112.864,94.5127
			C112.4634,94.6301,112.0601,94.6867,111.6624,94.6867z"/>
	</g>
	<g>
		<g>
			
				<radialGradient id="SVGID_5_" cx="-73.5759" cy="124.3234" r="31.2603" gradientTransform="matrix(0.9532 0 0 0.9532 204.917 -2.6015)" gradientUnits="userSpaceOnUse">
				<stop  offset="0" style="stop-color:#F15A60;stop-opacity:0.5"/>
				<stop  offset="0.1384" style="stop-color:#F16262;stop-opacity:0.4367"/>
				<stop  offset="0.3698" style="stop-color:#F37767;stop-opacity:0.3309"/>
				<stop  offset="0.6559" style="stop-color:#F7956E;stop-opacity:0.2"/>
				<stop  offset="0.7027" style="stop-color:#F69B6C;stop-opacity:0.1714"/>
				<stop  offset="0.7826" style="stop-color:#F6AE68;stop-opacity:0.1227"/>
				<stop  offset="0.8851" style="stop-color:#F8CC5A;stop-opacity:0.0602"/>
				<stop  offset="0.9839" style="stop-color:#FAEE3C;stop-opacity:0"/>
			</radialGradient>
			<circle fill="url(#SVGID_5_)" cx="134.7816" cy="115.9065" r="29.7989"/>
		</g>
		<g>
			<g>
				<path fill="#F26A6B" d="M127.7443,125.8756c-0.4723,0-0.9475-0.1561-1.3425-0.4779c-0.906-0.7417-1.0414-2.0772-0.3011-2.9846
					l12.4441-15.2409c0.7431-0.9088,2.08-1.0414,2.986-0.3025c0.906,0.7417,1.0414,2.0772,0.3011,2.9846l-12.444,15.2409
					C128.968,125.609,128.3576,125.8756,127.7443,125.8756z"/>
			</g>
			<g>
				<path fill="#F26A6B" d="M140.1608,126.2485c-0.4724,0-0.9475-0.1561-1.3425-0.4779c-0.906-0.7417-1.0414-2.0772-0.3011-2.9846
					l12.4441-15.2422c0.7431-0.9088,2.08-1.0414,2.986-0.3025c0.906,0.7417,1.0414,2.0772,0.3011,2.9846l-12.4441,15.2422
					C141.3845,125.9819,140.774,126.2485,140.1608,126.2485z"/>
			</g>
		</g>
	</g>
	<g>
		<path fill="#82361A" d="M156.3864,68.2614c-0.9668,0-1.6353-0.1837-1.8562-0.2541c-0.0967-0.0304-0.1906-0.0677-0.2845-0.1091
			L120.1315,52.736c-1.4281-0.6339-2.0689-2.3051-1.4364-3.7332c0.6381-1.4253,2.312-2.0731,3.7346-1.435l33.8655,15.0516
			c0.4392-0.0635,3.881-0.1188,7.32-8.5175c0.5939-1.4474,2.2595-2.1311,3.6904-1.5455c1.4447,0.5911,2.138,2.243,1.5469,3.689
			C164.571,66.7021,159.2039,68.2614,156.3864,68.2614z"/>
	</g>
</g>
</svg>
