<?xml version="1.0" encoding="utf-8"?>
<!-- Generator: Adobe Illustrator 17.0.0, SVG Export Plug-In . SVG Version: 6.00 Build 0)  -->
<!DOCTYPE svg PUBLIC "-//W3C//DTD SVG 1.1//EN" "http://www.w3.org/Graphics/SVG/1.1/DTD/svg11.dtd">
<svg version="1.1" id="Layer_1" xmlns="http://www.w3.org/2000/svg" xmlns:xlink="http://www.w3.org/1999/xlink" x="0px" y="0px"
	 viewBox="0 0 200 200" enable-background="new 0 0 200 200" xml:space="preserve">
<g>
	<g>
		<g>
			<g>
				<path fill="#E4A024" d="M99.9975,198.9986C45.4108,198.9986,1,154.5881,1,100S45.4108,1.0014,99.9975,1.0014
					C154.5867,1.0014,199,45.4119,199,100S154.5867,198.9986,99.9975,198.9986z"/>
				<path fill="#E4A024" d="M99.9975,197.6085c-53.8238,0-97.6074-43.7874-97.6074-97.6085S46.1737,2.3915,99.9975,2.3915
					c53.8236,0,97.6124,43.7874,97.6124,97.6085S153.8211,197.6085,99.9975,197.6085z"/>
				
					<radialGradient id="SVGID_1_" cx="41.4411" cy="-9.8829" r="207.7893" gradientTransform="matrix(0.9829 0 0 0.9829 63.0627 0.3588)" gradientUnits="userSpaceOnUse">
					<stop  offset="0" style="stop-color:#FFF7C2"/>
					<stop  offset="0.3321" style="stop-color:#FFEB8F"/>
					<stop  offset="1" style="stop-color:#FED01F"/>
				</radialGradient>
				<path fill="url(#SVGID_1_)" d="M192.0494,100c0,50.8373-41.2177,92.048-92.0519,92.048
					c-50.8345,0-92.0469-41.2107-92.0469-92.048S49.163,7.952,99.9975,7.952C150.8317,7.952,192.0494,49.1627,192.0494,100z"/>
				<g>
					<defs>
						<path id="SVGID_2_" d="M192.0494,100c0,50.8373-41.2177,92.048-92.0519,92.048c-50.8345,0-92.0469-41.2107-92.0469-92.048
							S49.163,7.952,99.9975,7.952C150.8317,7.952,192.0494,49.1627,192.0494,100z"/>
					</defs>
					<clipPath id="SVGID_3_">
						<use xlink:href="#SVGID_2_"  overflow="visible"/>
					</clipPath>
				</g>
			</g>
		</g>
	</g>
	<g>
		<path fill="#F42130" d="M105.8702,83.9349c-13.4505-2.6145-15.9213,13.073-15.9213,13.073S87.8745,81.2578,74.3534,83.544
			c-14.4253,2.4447-8.0149,17.5503-34.2968,30.0856c0,0,12.3779,10.5129,20.8057,21.186
			c12.2531,15.4962,44.6007,15.8966,57.2366,0.7112c8.6991-10.4679,23.0293-17.9737,23.0293-17.9737
			C115.1612,104.3808,120.2819,86.7355,105.8702,83.9349z"/>
		<path fill="#AB1405" d="M72.0836,115.7623c0,0,7.8792-0.0448,12.6387-4.8207c3.0029-3.0191,7.2981-3.8376,10.2983,0.3286
			c3.47,4.8207,12.0359,4.9252,12.0359,4.9252s-7.9415-0.9667-12.351,3.2365c-3.8498,3.6721-7.7052,2.4285-10.3661-0.136
			C79.732,114.8665,72.0836,115.7623,72.0836,115.7623z"/>
		<path opacity="0.5" fill="#F9D7FF" d="M81.1955,138.8597c-1.2544,2.1964-5.9734,1.865-10.5591-0.7373
			c-4.5802-2.5942-7.2845-6.4807-6.0518-8.6691c1.2489-2.1911,5.9675-1.8653,10.556,0.7357
			C79.7212,132.7846,82.428,136.6672,81.1955,138.8597z"/>
		<path opacity="0.5" fill="#F9D7FF" d="M114.9113,93.7878c-0.8741,1.1457-3.5134,0.5769-5.8972-1.2447
			c-2.3838-1.83-3.6057-4.2315-2.7258-5.3706c0.8741-1.1416,3.5103-0.5811,5.8969,1.2489
			C114.5585,90.2447,115.7882,92.649,114.9113,93.7878z"/>
	</g>
	<g>
		<g>
			<g>
				<path fill="#823308" d="M74.9021,72.304c-2.3424,0-4.2429-1.8991-4.2429-4.2429c0-8.4705-6.8919-15.361-15.361-15.361
					s-15.361,6.8905-15.361,15.361c0,2.3438-1.9004,4.2429-4.2429,4.2429s-4.2429-1.8991-4.2429-4.2429
					c0-13.1498,10.6983-23.8467,23.8467-23.8467s23.8467,10.6969,23.8467,23.8467C79.1449,70.405,77.2445,72.304,74.9021,72.304z"/>
			</g>
		</g>
		<g>
			<g>
				<path fill="#823308" d="M147.6245,72.304c-2.3424,0-4.2429-1.8991-4.2429-4.2429c0-8.4705-6.8891-15.361-15.3583-15.361
					c-8.4719,0-15.3638,6.8905-15.3638,15.361c0,2.3438-1.9005,4.2429-4.2429,4.2429c-2.3424,0-4.2429-1.8991-4.2429-4.2429
					c0-13.1498,10.6983-23.8467,23.8495-23.8467c13.1484,0,23.844,10.6969,23.844,23.8467
					C151.8674,70.405,149.9669,72.304,147.6245,72.304z"/>
			</g>
		</g>
	</g>
	<g>
		<g>
			
				<radialGradient id="SVGID_4_" cx="-29.8421" cy="86.0308" r="31.2604" gradientTransform="matrix(0.9829 0 0 0.9829 63.0627 0.3588)" gradientUnits="userSpaceOnUse">
				<stop  offset="0" style="stop-color:#F15860;stop-opacity:0.5"/>
				<stop  offset="0.1648" style="stop-color:#F26262;stop-opacity:0.4246"/>
				<stop  offset="0.4393" style="stop-color:#F57B68;stop-opacity:0.2991"/>
				<stop  offset="0.6559" style="stop-color:#F7946D;stop-opacity:0.2"/>
				<stop  offset="0.7133" style="stop-color:#F89E67;stop-opacity:0.165"/>
				<stop  offset="0.8113" style="stop-color:#FAB955;stop-opacity:0.1053"/>
				<stop  offset="0.9371" style="stop-color:#FEE53A;stop-opacity:0.0285"/>
				<stop  offset="0.9839" style="stop-color:#FFF72E;stop-opacity:0"/>
			</radialGradient>
			<path fill="url(#SVGID_4_)" d="M64.4571,84.9177c0,16.972-13.7547,30.7278-30.7295,30.7278
				c-16.9612,0-30.7239-13.7558-30.7239-30.7278c0-16.9692,13.7628-30.7239,30.7239-30.7239
				C50.7024,54.1938,64.4571,67.9485,64.4571,84.9177z"/>
			
				<radialGradient id="SVGID_5_" cx="94.9353" cy="86.0308" r="31.2603" gradientTransform="matrix(0.9829 0 0 0.9829 63.0627 0.3588)" gradientUnits="userSpaceOnUse">
				<stop  offset="0" style="stop-color:#F15860;stop-opacity:0.5"/>
				<stop  offset="0.1648" style="stop-color:#F26262;stop-opacity:0.4246"/>
				<stop  offset="0.4393" style="stop-color:#F57B68;stop-opacity:0.2991"/>
				<stop  offset="0.6559" style="stop-color:#F7946D;stop-opacity:0.2"/>
				<stop  offset="0.7133" style="stop-color:#F89E67;stop-opacity:0.165"/>
				<stop  offset="0.8113" style="stop-color:#FAB955;stop-opacity:0.1053"/>
				<stop  offset="0.9371" style="stop-color:#FEE53A;stop-opacity:0.0285"/>
				<stop  offset="0.9839" style="stop-color:#FFF72E;stop-opacity:0"/>
			</radialGradient>
			<circle fill="url(#SVGID_5_)" cx="156.376" cy="84.9177" r="30.7265"/>
		</g>
		<g>
			<g>
				<path fill="#FF6969" d="M15.7368,95.1315c-0.4723,0-0.9475-0.1561-1.3425-0.4779c-0.906-0.7417-1.0414-2.0772-0.3011-2.986
					l12.8335-15.716c0.7431-0.9074,2.0772-1.04,2.986-0.3011c0.906,0.7417,1.0414,2.0772,0.3011,2.986l-12.8335,15.716
					C16.9605,94.8649,16.3501,95.1315,15.7368,95.1315z"/>
			</g>
			<g>
				<path fill="#FF6969" d="M28.54,95.5154c-0.4723,0-0.9475-0.1561-1.3425-0.4779c-0.906-0.7417-1.0414-2.0772-0.3011-2.9846
					l12.8308-15.716c0.7431-0.9088,2.0772-1.0414,2.986-0.3025c0.906,0.7417,1.0414,2.0772,0.3011,2.9846l-12.8308,15.716
					C29.7637,95.2489,29.1532,95.5154,28.54,95.5154z"/>
			</g>
		</g>
		<g>
			<g>
				<path fill="#FF6969" d="M149.1217,95.1315c-0.4723,0-0.9474-0.1561-1.3425-0.4779c-0.906-0.7417-1.0414-2.0772-0.3011-2.9846
					l12.8308-15.716c0.7431-0.9088,2.0772-1.0414,2.986-0.3025c0.906,0.7417,1.0414,2.0772,0.3011,2.9846l-12.8308,15.716
					C150.3454,94.8649,149.7349,95.1315,149.1217,95.1315z"/>
			</g>
			<g>
				<path fill="#FF6969" d="M161.9193,95.5154c-0.4724,0-0.9475-0.1561-1.3425-0.4779c-0.906-0.7417-1.0414-2.0772-0.3011-2.986
					l12.8335-15.716c0.743-0.906,2.08-1.04,2.986-0.3011c0.906,0.7417,1.0414,2.0772,0.3011,2.986l-12.8335,15.716
					C163.143,95.2489,162.5325,95.5154,161.9193,95.5154z"/>
			</g>
		</g>
	</g>
</g>
</svg>
