<?xml version="1.0" encoding="utf-8"?>
<!-- Generator: Adobe Illustrator 17.0.0, SVG Export Plug-In . SVG Version: 6.00 Build 0)  -->
<!DOCTYPE svg PUBLIC "-//W3C//DTD SVG 1.1//EN" "http://www.w3.org/Graphics/SVG/1.1/DTD/svg11.dtd">
<svg version="1.1" id="Layer_1" xmlns="http://www.w3.org/2000/svg" xmlns:xlink="http://www.w3.org/1999/xlink" x="0px" y="0px"
	 viewBox="0 0 200 200" enable-background="new 0 0 200 200" xml:space="preserve">
<g>
	<g>
		<g>
			<g>
				<path fill="#E4A024" d="M99.9972,198.9986C45.4105,198.9986,1,154.5881,1,100S45.4105,1.0014,99.9972,1.0014
					C154.5867,1.0014,199,45.4119,199,100S154.5867,198.9986,99.9972,198.9986z"/>
				<path fill="#E4A024" d="M99.9972,197.6085c-53.8238,0-97.6071-43.7874-97.6071-97.6085S46.1734,2.3915,99.9972,2.3915
					S197.6099,46.1789,197.6099,100S153.8211,197.6085,99.9972,197.6085z"/>
				<radialGradient id="SVGID_1_" cx="103.7957" cy="-9.3552" r="204.239" gradientUnits="userSpaceOnUse">
					<stop  offset="0" style="stop-color:#FFF7C2"/>
					<stop  offset="0.3321" style="stop-color:#FFEB8F"/>
					<stop  offset="1" style="stop-color:#FED01F"/>
				</radialGradient>
				<path fill="url(#SVGID_1_)" d="M192.0494,100c0,50.8373-41.2177,92.048-92.0522,92.048S7.9506,150.8373,7.9506,100
					S49.1627,7.952,99.9972,7.952S192.0494,49.1627,192.0494,100z"/>
				<g>
					<defs>
						<path id="SVGID_2_" d="M192.0494,100c0,50.8373-41.2177,92.048-92.0522,92.048S7.9506,150.8373,7.9506,100
							S49.1627,7.952,99.9972,7.952S192.0494,49.1627,192.0494,100z"/>
					</defs>
					<clipPath id="SVGID_3_">
						<use xlink:href="#SVGID_2_"  overflow="visible"/>
					</clipPath>
				</g>
			</g>
		</g>
	</g>
	<ellipse fill="#A04E17" cx="101.3793" cy="141.4715" rx="11.1182" ry="10.8888"/>
	<g>
		<path fill="#AA5B26" d="M126.0131,196.7614c-12.9996,0-28.4947-5.0906-28.4947-29.3405V124.11
			c0-6.6831,5.4384-12.1216,12.123-12.1216c6.6818,0,12.1199,5.4384,12.1199,12.1216v12.3143
			c2.2348-0.2486,4.6102-0.3734,7.1027-0.3734c17.5611,0,29.361,11.3598,29.361,28.2667
			C158.225,181.6004,143.1724,196.7614,126.0131,196.7614z"/>
		
			<radialGradient id="SVGID_4_" cx="4255.4482" cy="-3787.4565" r="135.7135" gradientTransform="matrix(0 1 1 0 3817.6563 -4075.8457)" gradientUnits="userSpaceOnUse">
			<stop  offset="0.1174" style="stop-color:#FEEB65"/>
			<stop  offset="1" style="stop-color:#F6B330"/>
		</radialGradient>
		<path fill="url(#SVGID_4_)" d="M101.6887,167.4209c0-0.7765,0-43.3109,0-43.3109c0-4.3931,3.5595-7.9512,7.9526-7.9512
			c4.3875,0,7.9495,3.5582,7.9495,7.9512v17.2122c3.4375-0.7601,7.2439-1.101,11.273-1.101
			c15.0091,0,25.1907,9.0847,25.1907,24.0964c0,15.0103-13.0352,28.2734-28.0415,28.2734
			C107.7243,192.591,101.6887,182.4325,101.6887,167.4209z"/>
	</g>
	<g>
		<path fill="#AA5B26" d="M154.5325,163.0604c-4.6972-0.3122-8.6179-3.7589-9.5301-8.3869l-2.3593-11.9462
			c-0.5402-2.7341,0.0189-5.5129,1.5667-7.825c1.5531-2.3145,3.9151-3.8865,6.6465-4.4256c0.8933-0.1752,1.8055-0.236,2.7124-0.1752
			c4.6997,0.3108,8.6204,3.7606,9.5326,8.3855l2.3565,11.9506c0.5433,2.7299-0.0108,5.5102-1.5639,7.8247
			c-1.553,2.3121-3.9096,3.8826-6.6465,4.4231C156.3569,163.0604,155.4391,163.1215,154.5325,163.0604z"/>
		
			<radialGradient id="SVGID_5_" cx="173.9676" cy="308.7655" r="96.9418" gradientTransform="matrix(0.9978 0.0662 -0.0662 0.9978 10.4436 -251.1203)" gradientUnits="userSpaceOnUse">
			<stop  offset="0.1174" style="stop-color:#FEEB65"/>
			<stop  offset="1" style="stop-color:#F6B330"/>
		</radialGradient>
		<path fill="url(#SVGID_5_)" d="M162.732,151.1751c0.8199,4.1434-1.8789,8.1645-6.022,8.983l0,0
			c-4.1406,0.8171-8.1617-1.8789-8.9763-6.0206l-2.3621-11.9506c-0.8199-4.1403,1.8761-8.1642,6.022-8.9827l0,0
			c4.1378-0.8174,8.1617,1.88,8.9763,6.0206L162.732,151.1751z"/>
	</g>
	<g>
		<path fill="#823308" d="M83.2498,73.343c-0.8812,0-1.7457-0.1947-2.5578-0.6588c-3.9721-2.2664-24.5839-24.3864-28.6748-28.7977
			c-1.0607-1.1463-0.9944-2.9349,0.1519-3.9983c1.1436-1.0607,2.9307-0.9958,3.997,0.1505
			c11.7257,12.6455,25.1557,26.4761,27.3323,27.7329c0.5773-0.0414,3.0523-1.5579,4.8394-3.2097
			c1.1519-1.0621,2.939-0.9847,3.997,0.1547c1.0607,1.1463,0.9944,2.9321-0.1492,3.9942
			C90.4979,70.2769,86.7468,73.343,83.2498,73.343z"/>
	</g>
	<g>
		<path fill="#823308" d="M116.7972,73.343c-3.497,0-7.2481-3.0661-8.9358-4.6323c-1.1463-1.0607-1.2126-2.8479-0.1519-3.9928
			c1.0607-1.1408,2.8506-1.2181,3.997-0.1561c1.7899,1.6532,4.1461,3.2014,5.0963,3.1199
			c1.9198-1.167,15.3498-14.9976,27.0782-27.6431c1.0607-1.1463,2.8479-1.2112,3.9969-0.1505
			c1.1463,1.0635,1.2126,2.852,0.1519,3.9983c-4.0936,4.4113-24.7055,26.5313-28.6748,28.7991
			C118.5429,73.1483,117.6783,73.343,116.7972,73.343z"/>
	</g>
	<g>
		<g>
			<path fill="#823308" d="M73.0682,87.5603H27.7978c-2.3424,0-4.2428-1.899-4.2428-4.2428c0-2.3438,1.9004-4.2428,4.2428-4.2428
				h45.2703c2.3424,0,4.2428,1.899,4.2428,4.2428C77.311,85.6612,75.4105,87.5603,73.0682,87.5603z"/>
		</g>
		<g>
			<path fill="#823308" d="M170.0144,87.5603h-45.2731c-2.3424,0-4.2428-1.899-4.2428-4.2428c0-2.3438,1.9004-4.2428,4.2428-4.2428
				h45.2731c2.3424,0,4.2428,1.899,4.2428,4.2428C174.2572,85.6612,172.3568,87.5603,170.0144,87.5603z"/>
		</g>
	</g>
</g>
</svg>
