<?xml version="1.0" encoding="utf-8"?>
<!-- Generator: Adobe Illustrator 17.0.0, SVG Export Plug-In . SVG Version: 6.00 Build 0)  -->
<!DOCTYPE svg PUBLIC "-//W3C//DTD SVG 1.1//EN" "http://www.w3.org/Graphics/SVG/1.1/DTD/svg11.dtd">
<svg version="1.1" id="Layer_1" xmlns="http://www.w3.org/2000/svg" xmlns:xlink="http://www.w3.org/1999/xlink" x="0px" y="0px"
	viewBox="0 0 200 200" enable-background="new 0 0 200 200" xml:space="preserve">
<g>
	<g>
		<g>
			<g>
				<path fill="#E4A024" d="M99.9972,198.9986C45.4105,198.9986,1,154.5881,1,100S45.4105,1.0014,99.9972,1.0014
					C154.5865,1.0014,199,45.4119,199,100S154.5865,198.9986,99.9972,198.9986z"/>
				<path fill="#E4A024" d="M99.9972,197.6085c-53.8238,0-97.6071-43.7874-97.6071-97.6085S46.1734,2.3915,99.9972,2.3915
					S197.6099,46.1789,197.6099,100S153.8211,197.6085,99.9972,197.6085z"/>
				<radialGradient id="SVGID_1_" cx="103.7957" cy="-9.3552" r="204.239" gradientUnits="userSpaceOnUse">
					<stop  offset="0" style="stop-color:#FFF7C2"/>
					<stop  offset="0.3321" style="stop-color:#FFEB8F"/>
					<stop  offset="1" style="stop-color:#FED01F"/>
				</radialGradient>
				<path fill="url(#SVGID_1_)" d="M192.0494,100c0,50.8373-41.2177,92.048-92.0522,92.048S7.9506,150.8373,7.9506,100
					S49.1627,7.952,99.9972,7.952S192.0494,49.1627,192.0494,100z"/>
				<g>
					<defs>
						<path id="SVGID_2_" d="M192.0494,100c0,50.8373-41.2177,92.048-92.0522,92.048S7.9506,150.8373,7.9506,100
							S49.1627,7.952,99.9972,7.952S192.0494,49.1627,192.0494,100z"/>
					</defs>
					<clipPath id="SVGID_3_">
						<use xlink:href="#SVGID_2_"  overflow="visible"/>
					</clipPath>
				</g>
			</g>
		</g>
	</g>
	<g>
		<g>
			
				<radialGradient id="SVGID_4_" cx="347.2897" cy="313.8342" r="50.8828" gradientTransform="matrix(1.1376 0.0412 -0.0304 0.9996 -285.9546 -195.4556)" gradientUnits="userSpaceOnUse">
				<stop  offset="0.0054" style="stop-color:#A34E1F"/>
				<stop  offset="0.3187" style="stop-color:#9E491D"/>
				<stop  offset="0.6963" style="stop-color:#8F3A15"/>
				<stop  offset="1" style="stop-color:#7E290D"/>
			</radialGradient>
			<path fill="url(#SVGID_4_)" d="M141.1306,132.4738c-0.8552,28.2626-20.9766,50.4909-44.9265,49.6304
				c-23.9523-0.8688-42.6809-24.5023-41.8176-52.7773c0.858-28.2829,20.9605-50.5167,44.9184-49.6479
				C123.2573,80.5369,141.975,104.1812,141.1306,132.4738z"/>
			<path fill="#FFFFFF" d="M121.2697,98.2788c-0.293,9.4728-43.8756,7.8995-43.5878-1.5708
				c0.2769-9.4606,12.1338-12.9048,22.193-12.5422C109.9207,84.5335,121.5469,88.8206,121.2697,98.2788z"/>
		</g>
		
			<linearGradient id="SVGID_5_" gradientUnits="userSpaceOnUse" x1="77.3174" y1="372.4423" x2="136.5015" y2="372.4423" gradientTransform="matrix(0.9984 0.0559 -0.0559 0.9984 10.618 -216.3408)">
			<stop  offset="0" style="stop-color:#FFB18E"/>
			<stop  offset="1" style="stop-color:#FF6659"/>
		</linearGradient>
		<path fill="url(#SVGID_5_)" d="M67.1095,157.7334c0,0,8.5851,17.4866,29.0947,18.8495
			c19.5596,1.2992,30.0099-15.814,30.0099-15.814s-8.3599-13.0188-27.0178-14.2568
			C76.7018,145.0255,67.1095,157.7334,67.1095,157.7334z"/>
		
			<linearGradient id="SVGID_6_" gradientUnits="userSpaceOnUse" x1="119.5349" y1="297.052" x2="83.2851" y2="507.0953" gradientTransform="matrix(0.9984 0.0559 -0.0559 0.9984 10.618 -216.3408)">
			<stop  offset="0" style="stop-color:#FFB18E"/>
			<stop  offset="1" style="stop-color:#FF6659"/>
		</linearGradient>
		<path fill="url(#SVGID_6_)" d="M67.1095,157.7334c0,0,8.5851,17.4866,29.0947,18.8495
			c19.5596,1.2992,30.0099-15.814,30.0099-15.814s-8.3599-13.0188-27.0178-14.2568
			C76.7018,145.0255,67.1095,157.7334,67.1095,157.7334z"/>
	</g>
	<g>
		<path fill="#AA5B26" d="M54.0445,194.7576c-5.2021,0-10.4479-1.2408-15.1721-3.5879
			c-16.2633-8.0827-23.2192-27.3231-15.6116-43.0109c0.972-3.1428,2.3023-8.9029,1.9331-11.8269
			c-0.6381-5.0217,0.3965-9.355,2.9051-12.2017c1.7649-2.0023,4.1189-3.1047,6.6303-3.1047c2.726,0,5.308,1.2923,7.2709,3.6382
			c1.4988,1.7933,2.5359,3.6858,3.2309,5.5877c1.2572-1.9957,2.6935-4.0889,4.328-6.2191
			c4.8193-6.2867,12.5681-10.0403,20.727-10.0403c9.3833,0,20.6942,5.2958,24.2943,20.1582
			c3.2365,13.3404-2.3404,24.3096-8.2456,35.9232c-0.744,1.4649-1.4986,2.9498-2.2509,4.4676
			c-0.141,0.2811-0.2986,0.5458-0.4696,0.8024c-0.2741,0.68-0.5594,1.3576-0.8933,2.024
			C77.3886,188.0962,66.4008,194.7576,54.0445,194.7576z"/>
		
			<radialGradient id="SVGID_7_" cx="864.6507" cy="107.8651" r="106.5656" gradientTransform="matrix(0.9832 0 0 0.9832 -774.7901 -4.863)" gradientUnits="userSpaceOnUse">
			<stop  offset="0.1174" style="stop-color:#FEEB65"/>
			<stop  offset="1" style="stop-color:#F6B330"/>
		</radialGradient>
		<path fill="url(#SVGID_7_)" d="M39.1224,127.0707c6.5325,7.8142,2.2264,18.3282,2.1013,20.0141c0,0,2.9704-9.8882,11.3111-20.7704
			c9.8123-12.7961,33.2979-12.3373,38.4021,8.7197c3.2851,13.5537-3.6382,24.5687-10.2141,37.8413
			c-0.1196,0.2416-0.2769,0.4562-0.4346,0.6706c-0.2822,0.7237-0.5755,1.4457-0.9286,2.1544
			c-6.9125,13.904-24.2863,19.3302-38.8175,12.1093c-14.5229-7.2181-20.6997-24.3488-13.7897-38.2528
			c0,0,2.7911-8.7289,2.1611-13.6977C27.6078,125.5285,34.8759,121.9948,39.1224,127.0707z"/>
	</g>
	<g>
		<path fill="#823308" d="M77.8165,63.102c-0.2541,0-0.5082-0.0235-0.7679-0.0704L32.513,54.9065
			c-2.3037-0.4199-3.8312-2.6297-3.4114-4.9347c0.4199-2.3078,2.6076-3.8326,4.9361-3.4127l44.5356,8.1251
			c2.3037,0.4199,3.8312,2.6297,3.4114,4.9347C81.6118,61.667,79.8246,63.102,77.8165,63.102z"/>
	</g>
	<g>
		<path fill="#823308" d="M162.2471,78.5126c-0.2541,0-0.511-0.0235-0.7679-0.0704l-44.5328-8.1279
			c-2.3037-0.4212-3.8312-2.631-3.4114-4.9361c0.4171-2.3065,2.6407-3.834,4.9361-3.4114l44.5328,8.1279
			c2.3037,0.4212,3.8312,2.631,3.4114,4.9361C166.0424,77.0776,164.2552,78.5126,162.2471,78.5126z"/>
	</g>
</g>
</svg>
