<?xml version="1.0" encoding="utf-8"?>
<!-- Generator: Adobe Illustrator 17.0.0, SVG Export Plug-In . SVG Version: 6.00 Build 0)  -->
<!DOCTYPE svg PUBLIC "-//W3C//DTD SVG 1.1//EN" "http://www.w3.org/Graphics/SVG/1.1/DTD/svg11.dtd">
<svg version="1.1" id="Layer_1" xmlns="http://www.w3.org/2000/svg" xmlns:xlink="http://www.w3.org/1999/xlink" x="0px" y="0px"
	  viewBox="0 0 200 200" enable-background="new 0 0 200 200" xml:space="preserve">
<g>
	<g>
		<g>
			<g>
				<path fill="#E4A024" d="M99.9972,198.9986C45.4108,198.9986,1,154.5881,1,100S45.4108,1.0014,99.9972,1.0014
					C154.5867,1.0014,199,45.4119,199,100S154.5867,198.9986,99.9972,198.9986z"/>
				<path fill="#E4A024" d="M99.9972,197.6085c-53.8236,0-97.6071-43.7874-97.6071-97.6085S46.1737,2.3915,99.9972,2.3915
					c53.8238,0,97.6127,43.7874,97.6127,97.6085S153.8211,197.6085,99.9972,197.6085z"/>
				
					<radialGradient id="SVGID_1_" cx="37.504" cy="-9.8825" r="207.7863" gradientTransform="matrix(0.9829 0 0 0.9829 66.932 0.3585)" gradientUnits="userSpaceOnUse">
					<stop  offset="0" style="stop-color:#FFF7C2"/>
					<stop  offset="0.3321" style="stop-color:#FFEB8F"/>
					<stop  offset="1" style="stop-color:#FED01F"/>
				</radialGradient>
				<path fill="url(#SVGID_1_)" d="M192.0494,100c0,50.8373-41.2177,92.048-92.0522,92.048
					c-50.8342,0-92.0466-41.2107-92.0466-92.048S49.163,7.952,99.9972,7.952C150.8317,7.952,192.0494,49.1627,192.0494,100z"/>
				<g>
					<defs>
						<path id="SVGID_2_" d="M192.0494,100c0,50.8373-41.2177,92.048-92.0522,92.048c-50.8342,0-92.0466-41.2107-92.0466-92.048
							S49.163,7.952,99.9972,7.952C150.8317,7.952,192.0494,49.1627,192.0494,100z"/>
					</defs>
					<clipPath id="SVGID_3_">
						<use xlink:href="#SVGID_2_"  overflow="visible"/>
					</clipPath>
				</g>
			</g>
		</g>
	</g>
	<g>
		
			<radialGradient id="SVGID_4_" cx="15.2847" cy="157.5395" r="77.0092" gradientTransform="matrix(0.9753 0 0 0.9691 85.0934 2.5671)" gradientUnits="userSpaceOnUse">
			<stop  offset="0.0054" style="stop-color:#A34E1F"/>
			<stop  offset="0.3187" style="stop-color:#9E491D"/>
			<stop  offset="0.6963" style="stop-color:#8F3A15"/>
			<stop  offset="1" style="stop-color:#7E290D"/>
		</radialGradient>
		<rect x="1" y="117.0039" fill="url(#SVGID_4_)" width="198" height="76.4595"/>
		<g>
			<path fill="#FFFFFF" d="M95.0065,152.4826c2.5438-1.1703,4.975-2.3363,7.2912-3.5052c2.3107-1.1689,4.1545-2.0277,5.5233-2.5708
				c1.3715-0.5488,2.4649-0.8197,3.297-0.8197c1.3715,0,2.5521,0.4636,3.5584,1.3768c0.995,0.9135,1.4952,2.0529,1.4952,3.4171
				c0,0.7765-0.2472,1.5864-0.7308,2.423c-0.4945,0.8408-1.0117,1.3728-1.5626,1.6033c-5.0594,1.99-10.6193,3.4311-16.699,4.3263
				c1.0934,1.0124,2.4425,2.3572,4.056,4.0328c1.6133,1.6756,2.4537,2.5668,2.5297,2.6869c0.5903,0.8168,1.4109,1.8278,2.4678,3.033
				c1.0598,1.2121,1.7934,2.1547,2.2093,2.8334c0.4104,0.6872,0.6099,1.5138,0.6099,2.4845c0,1.2498-0.4694,2.3392-1.408,3.2718
				c-0.9418,0.9358-2.1587,1.4048-3.6401,1.4048c-1.4924,0-3.1733-1.1506-5.034-3.4491c-1.8637-2.2957-4.2612-6.4223-7.1985-12.3825
				c-2.9821,5.375-4.9779,8.9205-5.9954,10.6342c-1.0232,1.7091-1.9958,3.0078-2.9456,3.8807
				c-0.9389,0.8754-2.0153,1.3167-3.2297,1.3167c-1.4532,0-2.6618-0.4971-3.6119-1.4912c-0.9668-0.9958-1.4503-2.0543-1.4503-3.1854
				c0-1.0516,0.1995-1.8504,0.5958-2.3909c3.5978-4.8737,7.3643-9.0978,11.2827-12.6797c-3.2858-0.5071-6.2288-1.0714-8.8146-1.6968
				c-2.5916-0.62-5.3294-1.5389-8.2246-2.7399c-0.4833-0.2402-0.9415-0.7708-1.3827-1.6073
				c-0.4582-0.838-0.6859-1.6087-0.6859-2.3086c0-1.3642,0.4948-2.5036,1.5065-3.4171c0.9895-0.9132,2.1362-1.3768,3.432-1.3768
				c0.9418,0,2.1167,0.2863,3.5276,0.8463c1.4167,0.5683,3.2043,1.3908,5.3855,2.4564c2.1699,1.0725,4.6489,2.2677,7.4374,3.593
				c-0.5143-2.4536-0.9334-5.2661-1.2705-8.4403c-0.3319-3.174-0.4948-5.3456-0.4948-6.513c0-1.4426,0.4553-2.6769,1.383-3.7174
				c0.919-1.025,2.108-1.5432,3.5555-1.5432c1.4083,0,2.5775,0.5182,3.4994,1.5432c0.9136,1.0405,1.3801,2.4104,1.3801,4.1209
				c0,0.4719-0.0702,1.3937-0.2052,2.7762c-0.1405,1.3868-0.3373,3.061-0.5846,5.0232
				C95.5997,147.7053,95.3214,149.9521,95.0065,152.4826z"/>
		</g>
		<g>
			<path fill="#FFFFFF" d="M12.0406,175.6515c-1.5712,2.5093-4.6069,3.4563-6.788,2.1155l0,0
				c-2.1811-1.349-2.6673-4.4741-1.096-6.9878l21.9633-35.0975c1.5686-2.5122,4.6181-3.4606,6.7909-2.1158l0,0
				c2.1699,1.3408,2.6647,4.4773,1.0906,6.9895L12.0406,175.6515z"/>
			<path fill="#FFFFFF" d="M15.945,149.8712c-2.9796-0.0083-5.3912-2.068-5.3884-4.618l0,0c0-2.5485,2.4146-4.6071,5.3938-4.6057
				l41.5886,0.0349c2.9793,0.0086,5.3967,2.0795,5.3967,4.6211l0,0c0,2.5442-2.4229,4.6097-5.4025,4.6054L15.945,149.8712z"/>
			<path fill="#FFFFFF" d="M7.6643,165.9347c-2.9793-0.0083-5.3967-2.0738-5.3909-4.618l0,0c0-2.5474,2.4171-4.6125,5.3996-4.6097
				l41.5912,0.0432c2.9738,0.0043,5.3909,2.0695,5.3852,4.6169l0,0c0,2.5428-2.4229,4.6054-5.3967,4.6011L7.6643,165.9347z"/>
			<path fill="#FFFFFF" d="M34.8447,175.6515c-1.5712,2.5093-4.6098,3.4563-6.7852,2.1155l0,0
				c-2.1757-1.349-2.6704-4.4741-1.1018-6.9878l21.9633-35.0975c1.5712-2.5122,4.6153-3.4606,6.7909-2.1158l0,0
				c2.1699,1.3408,2.6618,4.4773,1.096,6.9895L34.8447,175.6515z"/>
		</g>
		<g>
			<g>
				<path fill="#FFFFFF" d="M170.3019,154.1654c0,12.2358-9.984,22.1536-22.298,22.1536c-12.3197,0-22.298-9.9178-22.298-22.1536
					c0-12.2386,9.9783-22.1536,22.298-22.1536C160.3179,132.0118,170.3019,141.9268,170.3019,154.1654z"/>
			</g>
			<path fill="#FFFFFF" d="M159.6826,173.8108c0,3.5512-2.8949,6.4335-6.4703,6.4335h-9.0564c-3.5837,0-6.4818-2.8823-6.4818-6.4335
				l0,0c0-3.5498,2.8981-6.4306,6.4818-6.4306h9.0564C156.7877,167.3802,159.6826,170.261,159.6826,173.8108L159.6826,173.8108z"/>
		</g>
		<path fill="#FFFFFF" d="M193.1367,162.2648c0,2.3658-1.9281,4.2817-4.3061,4.2817l0,0c-2.3835,0-4.3061-1.9159-4.3061-4.2817
			l-1.7258-24.459c0-5.2132,3.6485-7.1373,6.0319-7.1373l0,0c2.378,0,6.0262,1.4969,6.0262,7.1373L193.1367,162.2648z"/>
		<path fill="#FFFFFF" d="M193.5414,173.8108c0,2.5348-2.0686,4.5888-4.6181,4.5888c-2.5467,0-4.6124-2.054-4.6124-4.5888
			c0-2.5331,2.0657-4.5874,4.6124-4.5874C191.4728,169.2234,193.5414,171.2777,193.5414,173.8108z"/>
	</g>
	<g>
		<path fill="#FFFFFF" d="M82.42,77.0955c2.4544,14.1239-6.6439,27.4454-20.3225,29.7439
			c-13.6624,2.3051-26.7598-7.2806-29.2034-21.4084c-2.4436-14.1281,6.6656-27.4524,20.3414-29.7547
			C66.9168,53.3725,79.9817,62.9649,82.42,77.0955z"/>
		<path fill="#AA5B26" d="M58.0303,111.4835c-14.5963,0-27.0287-10.6636-29.5618-25.3575
			c-2.8453-16.4182,7.9173-31.9797,23.9904-34.6866c1.602-0.2702,3.2365-0.4073,4.8518-0.4073
			c14.5801,0,27.0042,10.6647,29.5429,25.3561c2.8509,16.4262-7.9062,31.9864-23.974,34.6894
			C61.2776,111.3465,59.6484,111.4835,58.0303,111.4835z"/>
		<path fill="#FFFFFF" d="M32.8997,85.424c-2.4491-14.1211,6.6601-27.4454,20.3358-29.7478
			c13.6813-2.3037,26.7462,7.2887,29.1845,21.4154c2.4544,14.1278-6.6439,27.4493-20.3225,29.7478
			C48.4351,109.1445,35.3377,99.5588,32.8997,85.424z"/>
		<g>
			<defs>
				<path id="SVGID_5_" d="M32.8997,85.424c-2.4491-14.1211,6.6601-27.4454,20.3358-29.7478
					c13.6813-2.3037,26.7462,7.2887,29.1845,21.4154c2.4544,14.1278-6.6439,27.4493-20.3225,29.7478
					C48.4351,109.1445,35.3377,99.5588,32.8997,85.424z"/>
			</defs>
			<clipPath id="SVGID_6_">
				<use xlink:href="#SVGID_5_"  overflow="visible"/>
			</clipPath>
		</g>
		<path fill="#6D2F16" d="M66.6371,78.6541c1.2355,4.8382-1.7429,9.69-6.6654,10.8466c-4.9171,1.1457-9.8966-1.8489-11.1346-6.6912
			c-2.3134-9.147,9.1389-11.4129,6.6737-10.8374C60.4305,70.8155,65.4071,73.8157,66.6371,78.6541z"/>
		<path fill="none" d="M32.8997,85.424c-2.4491-14.1211,6.6601-27.4454,20.3358-29.7478
			c13.6813-2.3037,26.7462,7.2887,29.1845,21.4154c2.4544,14.1278-6.6439,27.4493-20.3225,29.7478
			C48.4351,109.1445,35.3377,99.5588,32.8997,85.424z"/>
	</g>
	<g>
		<path fill="#FFFFFF" d="M169.0092,77.0955c2.4544,14.1239-6.6437,27.4454-20.325,29.7439
			c-13.6596,2.3051-26.7573-7.2806-29.2009-21.4084c-2.4436-14.1281,6.6684-27.4524,20.3389-29.7547
			C153.5061,53.3725,166.5712,62.9649,169.0092,77.0955z"/>
		<path fill="#AA5B26" d="M144.6196,111.4835c-14.5963,0-27.0284-10.6636-29.5618-25.3575
			c-2.8453-16.4182,7.9173-31.9797,23.9879-34.6866c1.6045-0.2702,3.2362-0.4073,4.8546-0.4073
			c14.5799,0,27.0039,10.6647,29.5426,25.3561c2.8509,16.4262-7.9062,31.9864-23.9768,34.6894
			C147.8669,111.3465,146.2379,111.4835,144.6196,111.4835z"/>
		<path fill="#FFFFFF" d="M119.4862,85.424c-2.4463-14.1211,6.6656-27.4454,20.3361-29.7478
			c13.6838-2.3037,26.749,7.2887,29.1898,21.4154c2.4516,14.1278-6.6465,27.4493-20.3277,29.7478
			C135.0247,109.1445,121.9269,99.5588,119.4862,85.424z"/>
		<g>
			<defs>
				<path id="SVGID_7_" d="M119.4862,85.424c-2.4463-14.1211,6.6656-27.4454,20.3361-29.7478
					c13.6838-2.3037,26.749,7.2887,29.1898,21.4154c2.4516,14.1278-6.6465,27.4493-20.3277,29.7478
					C135.0247,109.1445,121.9269,99.5588,119.4862,85.424z"/>
			</defs>
			<clipPath id="SVGID_8_">
				<use xlink:href="#SVGID_7_"  overflow="visible"/>
			</clipPath>
		</g>
		<path fill="#6D2F16" d="M156.0041,78.6541c1.238,4.8382-1.7404,9.69-6.6629,10.8466c-4.9171,1.1457-9.8965-1.8489-11.1346-6.6912
			c-2.3132-9.147,9.1389-11.4129,6.6709-10.8374C149.8,70.8155,154.7794,73.8157,156.0041,78.6541z"/>
		<path fill="none" d="M119.4862,85.424c-2.4463-14.1211,6.6656-27.4454,20.3361-29.7478
			c13.6838-2.3037,26.749,7.2887,29.1898,21.4154c2.4516,14.1278-6.6465,27.4493-20.3277,29.7478
			C135.0247,109.1445,121.9269,99.5588,119.4862,85.424z"/>
	</g>
	<g>
		<path fill="#823308" d="M90.3079,65.7911c-0.3315,0-0.5828-0.0497-0.7651-0.0856c-0.8287-0.1644-3.0329-0.6008-39.0359-30.2161
			c-1.2043-0.993-1.3784-2.776-0.3867-3.9818c0.9944-1.2057,2.7733-1.3811,3.9831-0.3881
			C69.2182,43.555,86.3468,57.264,90.4184,59.9047c1.301-0.8894,3.9086-3.6158,5.972-6.2951
			c0.9474-1.2375,2.7208-1.4681,3.9666-0.5165c1.2375,0.953,1.4667,2.7291,0.5138,3.9666
			C94.9208,64.7884,91.7967,65.7911,90.3079,65.7911z"/>
	</g>
	<g>
		<path fill="#823308" d="M111.6683,65.7911c-1.4888,0-4.6129-1.0013-10.5628-8.7314c-0.953-1.2375-0.7237-3.0122,0.5138-3.9652
			c1.2375-0.9544,3.0164-0.7223,3.9666,0.5138c2.1048,2.7305,4.6709,5.4168,5.9692,6.2965
			c4.0688-2.6366,21.2002-16.3483,36.3179-28.7853c1.2099-0.993,2.9887-0.8176,3.9832,0.3881
			c0.9916,1.2057,0.8176,2.9887-0.3867,3.9818c-36.003,29.6153-38.2073,30.0518-39.0359,30.2161
			C112.2511,65.7413,111.9997,65.7911,111.6683,65.7911z"/>
	</g>
</g>
</svg>
