<?xml version="1.0" encoding="utf-8"?>
<!-- Generator: Adobe Illustrator 17.0.0, SVG Export Plug-In . SVG Version: 6.00 Build 0)  -->
<!DOCTYPE svg PUBLIC "-//W3C//DTD SVG 1.1//EN" "http://www.w3.org/Graphics/SVG/1.1/DTD/svg11.dtd">
<svg version="1.1" id="Layer_1" xmlns="http://www.w3.org/2000/svg" xmlns:xlink="http://www.w3.org/1999/xlink" x="0px" y="0px"
	  viewBox="0 0 200 200" enable-background="new 0 0 200 200" xml:space="preserve">
<g>
	<g>
		<g>
			<g>
				<path fill="#E4A024" d="M99.9944,198.9986C45.4077,198.9986,1,154.5881,1,100S45.4077,1.0014,99.9944,1.0014
					C154.5867,1.0014,199,45.4119,199,100S154.5867,198.9986,99.9944,198.9986z"/>
				<path fill="#E4A024" d="M99.9944,197.6085c-53.8211,0-97.6043-43.7874-97.6043-97.6085S46.1734,2.3915,99.9944,2.3915
					c53.8266,0,97.6154,43.7874,97.6154,97.6085S153.8211,197.6085,99.9944,197.6085z"/>
				<radialGradient id="SVGID_1_" cx="103.7957" cy="-9.3552" r="204.239" gradientUnits="userSpaceOnUse">
					<stop  offset="0" style="stop-color:#FFF7C2"/>
					<stop  offset="0.3321" style="stop-color:#FFEB8F"/>
					<stop  offset="1" style="stop-color:#FED01F"/>
				</radialGradient>
				<path fill="url(#SVGID_1_)" d="M192.0494,100c0,50.8373-41.2177,92.048-92.055,92.048
					c-50.8317,0-92.0438-41.2107-92.0438-92.048S49.1627,7.952,99.9944,7.952C150.8317,7.952,192.0494,49.1627,192.0494,100z"/>
				<g>
					<defs>
						<path id="SVGID_2_" d="M192.0494,100c0,50.8373-41.2177,92.048-92.055,92.048c-50.8317,0-92.0438-41.2107-92.0438-92.048
							S49.1627,7.952,99.9944,7.952C150.8317,7.952,192.0494,49.1627,192.0494,100z"/>
					</defs>
					<clipPath id="SVGID_3_">
						<use xlink:href="#SVGID_2_"  overflow="visible"/>
					</clipPath>
				</g>
			</g>
		</g>
	</g>
	<g>
		<path fill="#AA5B26" d="M179.3971,98.318c4.0672-3.2445,7.3932-7.4827,9.6249-12.2625
			c7.6757-16.4602,1.116-35.8404-14.6124-43.3612c-2.718-1.8516-7.3526-5.5252-8.884-8.0421
			c-2.6335-4.3252-6.1413-7.0646-9.8774-7.7271c-2.6309-0.4643-5.1587,0.1398-7.1216,1.7079
			c-2.1313,1.6982-3.3477,4.3169-3.4183,7.3754c-0.0517,2.339,0.315,4.4623,0.9611,6.3845
			c-2.2317-0.7793-4.6564-1.5191-7.2656-2.1653c-7.6838-1.9086-16.084-0.0122-22.4591,5.0759
			c-7.339,5.8482-12.8803,17.0412-6.4321,30.9071c5.7912,12.4444,16.9909,17.5433,28.8478,22.9423
			c1.4986,0.6828,3.011,1.374,4.5476,2.0907c0.2825,0.1315,0.573,0.2402,0.8663,0.3353c0.6353,0.3598,1.2814,0.7098,1.9601,1.0234
			C156.9894,107.6674,169.7341,106.022,179.3971,98.318z"/>
		
			<radialGradient id="SVGID_4_" cx="7795.4106" cy="-2370.6946" r="106.5671" gradientTransform="matrix(-0.7687 0.613 0.613 0.7687 7549.9814 -2917.7942)" gradientUnits="userSpaceOnUse">
			<stop  offset="0.1174" style="stop-color:#FEEB65"/>
			<stop  offset="1" style="stop-color:#F6B330"/>
		</radialGradient>
		<path fill="url(#SVGID_4_)" d="M148.8605,36.095c-0.2363,10.1857,9.6875,15.7192,10.8385,16.9598c0,0-8.49-5.878-21.7965-9.1876
			c-15.6497-3.8868-33.7241,11.1182-24.5879,30.7617c5.8838,12.6443,18.1639,16.9395,31.5819,23.2181
			c0.2444,0.1126,0.4996,0.1846,0.7548,0.2511c0.6734,0.3898,1.3548,0.7737,2.0716,1.1051
			c14.0722,6.5608,31.0417-0.0273,37.9-14.7347c6.8527-14.6969,1.0017-31.943-13.0705-38.5053c0,0-7.624-5.084-10.2305-9.3602
			C156.8999,27.7095,149.0154,29.48,148.8605,36.095z"/>
	</g>
	<g>
		<path fill="#AA5B26" d="M18.781,188.2524c3.8935,3.4481,8.6449,5.9975,13.7383,7.3713
			c17.5339,4.7311,35.497-5.0609,40.2048-21.8508c1.3523-2.9963,4.1759-8.1914,6.3915-10.1354
			c3.8064-3.3382,5.9052-7.267,5.9133-11.0615c0.0056-2.6688-1.0262-5.0539-2.9051-6.721
			c-2.0418-1.8055-4.8329-2.5495-7.8547-2.0949c-2.3132,0.3489-4.3441,1.0779-6.1279,2.0418
			c0.3856-2.3282,0.6978-4.8476,0.8852-7.5261c0.5619-7.9009-2.7533-15.8493-8.862-21.2577
			c-7.0212-6.2202-19.0002-9.7525-31.5521-1.0153c-11.2647,7.8425-14.3627,19.7522-17.6398,32.3609
			c-0.4126,1.5911-0.8363,3.2026-1.2789,4.8371c-0.0787,0.3053-0.1385,0.6067-0.1818,0.9136
			c-0.2444,0.6909-0.4779,1.3873-0.6706,2.1069C5.7214,167.7887,9.5281,180.0596,18.781,188.2524z"/>
		
			<radialGradient id="SVGID_5_" cx="7292.7988" cy="2712.9438" r="106.5662" gradientTransform="matrix(-0.7361 -0.6518 -0.6518 0.7361 7201.3994 2860.5342)" gradientUnits="userSpaceOnUse">
			<stop  offset="0.1174" style="stop-color:#FEEB65"/>
			<stop  offset="1" style="stop-color:#F6B330"/>
		</radialGradient>
		<path fill="url(#SVGID_5_)" d="M74.8257,147.4704c-10.0731,1.5177-13.817,12.245-14.8407,13.5904c0,0,4.3305-9.3725,5.3-23.0496
			c1.1402-16.0856-16.7496-31.3116-34.5278-18.9309c-11.4468,7.9701-13.5673,20.8071-17.4391,35.1033
			c-0.0759,0.2591-0.1004,0.5238-0.1193,0.7888c-0.2716,0.729-0.5296,1.4646-0.7384,2.2289
			c-4.0402,14.9927,5.3703,30.5718,21.0364,34.7992c15.6578,4.226,31.6414-4.5057,35.6814-19.4942c0,0,3.698-8.3869,7.4638-11.6884
			C84.4696,153.9501,81.369,146.4862,74.8257,147.4704z"/>
		<path fill="none" stroke="#AA5B26" stroke-linecap="round" stroke-linejoin="round" stroke-miterlimit="10" d="M57.6744,156.9299
			c0,0-18.2968-0.0531-26.0701,19.7928"/>
	</g>
	<g>
		<path fill="#A04E17" d="M119.3149,168.0426c0,0-11.729-5.5605-15.6389-5.5605c-3.9096,0-15.6414,5.5605-15.6414,5.5605
			c-1.1566,0-2.1967-0.7206-2.6012-1.8083c-0.4098-1.0874-0.0951-2.3132,0.7821-3.0733l15.6361-13.5537
			c1.0507-0.9041,2.5956-0.9041,3.6463,0l15.6389,13.5537c0.8769,0.7601,1.1894,1.9859,0.7793,3.0733
			C121.5144,167.3219,120.4743,168.0426,119.3149,168.0426z"/>
	</g>
	<g>
		<path fill="#FFFFFF" d="M83.9157,76.9137c2.4572,14.7456-6.6409,28.6535-20.3197,31.0536
			c-13.6621,2.4057-26.7598-7.6023-29.2034-22.3518c-2.4436-14.7497,6.6684-28.6618,20.3414-31.0648
			C68.4153,52.1453,81.4802,62.1598,83.9157,76.9137z"/>
		<path fill="#AA5B26" d="M59.5288,112.8153c-14.5963,0-27.0284-11.1332-29.5618-26.4749
			c-2.8453-17.1402,7.9173-33.3874,23.9904-36.2138c1.602-0.2811,3.2365-0.4248,4.8493-0.4248
			c14.5826,0,27.0067,11.1346,29.5454,26.4735c2.8509,17.1483-7.9062,33.3941-23.974,36.2163
			C62.7762,112.6726,61.1472,112.8153,59.5288,112.8153z"/>
		<path fill="#FFFFFF" d="M34.3982,85.6086c-2.4491-14.7428,6.6629-28.6549,20.3358-31.0578
			c13.6813-2.4055,26.7462,7.609,29.1873,22.3573c2.4516,14.7511-6.6465,28.659-20.3252,31.0592
			C49.9339,110.3731,36.8362,100.365,34.3982,85.6086z"/>
		<g>
			<defs>
				<path id="SVGID_6_" d="M34.3982,85.6086c-2.4491-14.7428,6.6629-28.6549,20.3358-31.0578
					c13.6813-2.4055,26.7462,7.609,29.1873,22.3573c2.4516,14.7511-6.6465,28.659-20.3252,31.0592
					C49.9339,110.3731,36.8362,100.365,34.3982,85.6086z"/>
			</defs>
			<clipPath id="SVGID_7_">
				<use xlink:href="#SVGID_6_"  overflow="visible"/>
			</clipPath>
		</g>
		<path fill="#6D2F16" d="M70.9159,75.6376c1.2355,5.0514-1.7429,10.1165-6.6654,11.3245
			c-4.9171,1.1961-9.8966-1.9303-11.1346-6.9856c-2.3132-9.5504,9.1389-11.9153,6.6737-11.3153
			C64.7093,67.4542,69.6887,70.5861,70.9159,75.6376z"/>
		<path fill="none" d="M34.3982,85.6086c-2.4491-14.7428,6.6629-28.6549,20.3358-31.0578
			c13.6813-2.4055,26.7462,7.609,29.1873,22.3573c2.4516,14.7511-6.6465,28.659-20.3252,31.0592
			C49.9339,110.3731,36.8362,100.365,34.3982,85.6086z"/>
	</g>
</g>
</svg>
