<?xml version="1.0" encoding="utf-8"?>
<!-- Generator: Adobe Illustrator 17.0.0, SVG Export Plug-In . SVG Version: 6.00 Build 0)  -->
<!DOCTYPE svg PUBLIC "-//W3C//DTD SVG 1.1//EN" "http://www.w3.org/Graphics/SVG/1.1/DTD/svg11.dtd">
<svg version="1.1" id="Layer_1" xmlns="http://www.w3.org/2000/svg" xmlns:xlink="http://www.w3.org/1999/xlink" x="0px" y="0px"
	  viewBox="0 0 200 200" enable-background="new 0 0 200 200" xml:space="preserve">
<g>
	<g>
		<g>
			<g>
				<path fill="#2D2D2D" d="M102.7245,199c-52.7782,0-95.7111-42.9368-95.7111-95.7122S49.9464,7.5756,102.7245,7.5756
					c52.7779,0,95.716,42.9368,95.716,95.7122S155.5024,199,102.7245,199z"/>
				<radialGradient id="SVGID_1_" cx="106.449" cy="-3.9429" r="200.2712" gradientUnits="userSpaceOnUse">
					<stop  offset="0" style="stop-color:#696768"/>
					<stop  offset="0.3184" style="stop-color:#636162"/>
					<stop  offset="0.7583" style="stop-color:#515050"/>
					<stop  offset="1" style="stop-color:#444444"/>
				</radialGradient>
				<path fill="url(#SVGID_1_)" d="M192.9881,103.2878c0,49.8497-40.4169,90.2598-90.2636,90.2598
					c-49.8469,0-90.2587-40.4101-90.2587-90.2598s40.4117-90.2597,90.2587-90.2597
					C152.5712,13.0281,192.9881,53.4381,192.9881,103.2878z"/>
				<g>
					<defs>
						<path id="SVGID_2_" d="M192.9881,103.2878c0,49.8497-40.4169,90.2598-90.2636,90.2598
							c-49.8469,0-90.2587-40.4101-90.2587-90.2598s40.4117-90.2597,90.2587-90.2597
							C152.5712,13.0281,192.9881,53.4381,192.9881,103.2878z"/>
					</defs>
					<clipPath id="SVGID_3_">
						<use xlink:href="#SVGID_2_"  overflow="visible"/>
					</clipPath>
				</g>
			</g>
		</g>
	</g>
	<g>
		<path fill="#FFFFFF" d="M90.9622,80.0137c0.6524,21.5757-15.8061,39.6928-36.7668,40.4567
			c-20.974,0.7707-38.532-16.1017-39.1737-37.6759c-0.6415-21.5757,15.8356-39.698,36.8147-40.4663
			C72.8077,41.5602,90.3259,58.4342,90.9622,80.0137z"/>
		<path fill="#2D2D2D" d="M50.548,124.7623c-21.8047-1.1769-39.3894-19.5615-40.0494-41.8547
			C9.7797,59.0065,28.2404,38.8621,51.653,38.0033c1.2884-0.048,2.5583-0.036,3.8203,0.0333
			c22.1373,1.1914,39.352,19.1861,40.0175,41.8534c0.7244,23.9049-17.7229,44.0523-41.1355,44.9029
			C53.0692,124.8422,51.8021,124.8313,50.548,124.7623z"/>
		<path fill="#FFFFFF" d="M15.0272,82.7865c-0.6469-21.5677,15.8301-39.6901,36.8093-40.4583
			c20.9712-0.768,38.4895,16.106,39.1337,37.68c0.6445,21.5811-15.814,39.6983-36.7747,40.4622
			C33.2215,121.2411,15.6635,104.3687,15.0272,82.7865z"/>
		<g>
			<defs>
				<path id="SVGID_4_" d="M15.0272,82.7865c-0.6469-21.5677,15.8301-39.6901,36.8093-40.4583
					c20.9712-0.768,38.4895,16.106,39.1337,37.68c0.6445,21.5811-15.814,39.6983-36.7747,40.4622
					C33.2215,121.2411,15.6635,104.3687,15.0272,82.7865z"/>
			</defs>
			<clipPath id="SVGID_5_">
				<use xlink:href="#SVGID_4_"  overflow="visible"/>
			</clipPath>
		</g>
		<path fill="#6D2F16" d="M77.4641,79.7141c0.7456,6.9129-4.3396,13.084-11.3839,13.7844
			c-7.0394,0.7028-13.3678-4.3396-14.1104-11.255c-0.7508-6.9088,4.329-13.0843,11.3787-13.7803
			C70.3931,67.7577,76.7027,72.8042,77.4641,79.7141z"/>
		<path fill="none" d="M15.0272,82.7865c-0.6469-21.5677,15.8301-39.6901,36.8093-40.4583
			c20.9712-0.768,38.4895,16.106,39.1337,37.68c0.6445,21.5811-15.814,39.6983-36.7747,40.4622
			C33.2215,121.2411,15.6635,104.3687,15.0272,82.7865z"/>
	</g>
	<g>
		<path fill="#FFFFFF" d="M189.6948,80.0137c0.6524,21.5757-15.8061,39.6928-36.7667,40.4567
			c-20.9713,0.7707-38.532-16.1017-39.1735-37.6759c-0.6418-21.5757,15.838-39.698,36.8147-40.4663
			C171.5406,41.5602,189.0585,58.4342,189.6948,80.0137z"/>
		<path fill="#2D2D2D" d="M149.2806,124.7623c-21.8044-1.1769-39.3891-19.5615-40.0494-41.8547
			c-0.7189-23.9011,17.7418-44.0455,41.1543-44.9043c1.2884-0.048,2.561-0.036,3.8205,0.0333
			c22.1373,1.1914,39.3518,19.1861,40.0175,41.8534c0.7241,23.9049-17.7232,44.0523-41.1331,44.9029
			C151.8018,124.8422,150.5347,124.8313,149.2806,124.7623z"/>
		<path fill="#FFFFFF" d="M113.7598,82.7865c-0.6469-21.5677,15.8328-39.6901,36.8096-40.4583
			c20.9712-0.768,38.4892,16.106,39.1337,37.68c0.6442,21.5811-15.8143,39.6983-36.7749,40.4622
			C131.9568,121.2411,114.3961,104.3687,113.7598,82.7865z"/>
		<g>
			<defs>
				<path id="SVGID_6_" d="M113.7598,82.7865c-0.6469-21.5677,15.8328-39.6901,36.8096-40.4583
					c20.9712-0.768,38.4892,16.106,39.1337,37.68c0.6442,21.5811-15.8143,39.6983-36.7749,40.4622
					C131.9568,121.2411,114.3961,104.3687,113.7598,82.7865z"/>
			</defs>
			<clipPath id="SVGID_7_">
				<use xlink:href="#SVGID_6_"  overflow="visible"/>
			</clipPath>
		</g>
		<path fill="#6D2F16" d="M152.6742,80.1069c0.7508,6.95-4.3609,13.1546-11.448,13.8602
			c-7.0713,0.7053-13.4395-4.3636-14.1851-11.3163c-0.7508-6.9475,4.3557-13.156,11.4428-13.8561
			C145.5658,68.0851,151.9073,73.1594,152.6742,80.1069z"/>
		<path fill="none" d="M113.7535,82.7865c-0.6469-21.5677,15.8328-39.6901,36.8095-40.4583
			c20.9713-0.768,38.4892,16.106,39.1337,37.68c0.6442,21.5811-15.8143,39.6983-36.7749,40.4622
			C131.9505,121.2411,114.3898,104.3687,113.7535,82.7865z"/>
	</g>
	<path fill="#FFFFFF" d="M170.9547,127.4738c3.7458,3.7445,9.8161,3.7445,13.5619,0c3.7434-3.7448,3.7434-9.8161,0-13.5619
		c-3.7458-3.7448-13.4234-7.3521-17.1693-3.6076C163.6012,114.049,167.2116,123.728,170.9547,127.4738z"/>
	<g>
		<path fill="#2D2D2D" d="M31.2046,46.8444c-0.3061,0-0.6176-0.051-0.9237-0.1558c-5.738-1.9853-8.9421-4.7867-10.6902-7.5648
			c-5.4375,1.358-10.8143,1.3221-14.3106-1.2105C2.3959,35.826,1.122,32.3766,1.6928,28.202
			C2.9226,19.2089,13.0117,6.6423,27.7634,1.1773c1.4752-0.5432,3.0855,0.204,3.6287,1.6654
			c0.5432,1.4628-0.204,3.0868-1.6654,3.6287C17.1284,11.1396,8.2718,21.7829,7.2874,28.9671
			c-0.284,2.0694,0.1544,3.5418,1.3042,4.3718c1.8143,1.3166,5.2776,1.3621,9.1185,0.488c-0.0827-0.6811-0.102-1.3125-0.0882-1.8764
			c0.1847-7.6957,6.7831-14.9517,12.59-16.6502c3.4687-1.0119,6.59-0.0276,8.3796,2.6264c1.227,1.8171,3.4108,6.7031-2.8456,12.7568
			c-2.5285,2.4485-6.3502,4.8253-10.5358,6.568c1.4752,1.6461,3.7858,3.0165,6.9182,4.0988
			c1.4724,0.5101,2.2555,2.1176,1.7454,3.5914C33.4684,46.1109,32.3737,46.8444,31.2046,46.8444z M32.8314,20.5462
			c-0.2675,0-0.6066,0.0483-1.034,0.1737c-3.75,1.0974-8.3685,6.3695-8.5285,11.301c3.2261-1.3621,6.3116-3.2288,8.5505-5.3947
			c1.6075-1.5579,3.2785-3.7831,2.0901-5.5409C33.78,20.8909,33.5456,20.5462,32.8314,20.5462z"/>
	</g>
</g>
</svg>
