<?xml version="1.0" encoding="utf-8"?>
<!-- Generator: Adobe Illustrator 17.0.0, SVG Export Plug-In . SVG Version: 6.00 Build 0)  -->
<!DOCTYPE svg PUBLIC "-//W3C//DTD SVG 1.1//EN" "http://www.w3.org/Graphics/SVG/1.1/DTD/svg11.dtd">
<svg version="1.1" id="Layer_1" xmlns="http://www.w3.org/2000/svg" xmlns:xlink="http://www.w3.org/1999/xlink" x="0px" y="0px" viewBox="0 0 200 200" enable-background="new 0 0 200 200" xml:space="preserve">
<g>
	<g>
		<g>
			<path fill="#C12526" d="M43.806,69.7853C23.6578,69.7839,4.454,54.0036,3.6459,53.332L1,51.1326l19.5923-31.6071l3.4308,4.9793
				c9.948,14.4457,29.6562,25.0628,29.8544,25.1685l2.7822,1.4839l-4.8567,17.8343l-2.5431,0.3885
				c-1.7603,0.2691-3.5932,0.4054-5.4513,0.4054H43.806z"/>
			
				<radialGradient id="SVGID_1_" cx="348.653" cy="-1372.9351" r="174.5889" gradientTransform="matrix(0.9437 -0.3308 0.3308 0.9437 215.6024 1389.0398)" gradientUnits="userSpaceOnUse">
				<stop  offset="0.0207" style="stop-color:#F4815F"/>
				<stop  offset="0.3236" style="stop-color:#F36F50"/>
				<stop  offset="0.7543" style="stop-color:#F1553E"/>
				<stop  offset="1" style="stop-color:#F04A38"/>
			</radialGradient>
			<path fill="url(#SVGID_1_)" d="M52.0192,53.162c0,0-20.6115-10.9685-31.2519-26.4144L6.1735,50.292
				c0,0,22.0142,18.3132,42.4918,15.1795L52.0192,53.162z"/>
		</g>
		<path fill="#C12526" d="M46.1225,57.432c-21.86-4.0976-37.0998-29.1684-37.7382-30.2327l-1.7656-2.9495l28.938-23.3489
			l1.5932,5.8361c4.6227,16.9683,19.6954,33.4592,19.8445,33.6239l2.1415,2.3215L48.6474,57.9056L46.1225,57.432z"/>
		<radialGradient id="SVGID_2_" cx="115.2017" cy="-15.1098" r="174.5801" gradientUnits="userSpaceOnUse">
			<stop  offset="0.0207" style="stop-color:#F4815F"/>
			<stop  offset="0.3236" style="stop-color:#F36F50"/>
			<stop  offset="0.7543" style="stop-color:#F1553E"/>
			<stop  offset="1" style="stop-color:#F04A38"/>
		</radialGradient>
		<path fill="url(#SVGID_2_)" d="M54.0887,43.0403c0,0-15.8244-17.1691-20.7533-35.2646L11.7766,25.1673
			c0,0,14.7124,24.5626,35.0743,28.3795L54.0887,43.0403z"/>
	</g>
	<g>
		<g>
			<g>
				<path fill="#E5A126" d="M105.1464,199.0991c-51.7477,0-93.8484-42.1007-93.8484-93.8497s42.1007-93.8497,93.8484-93.8497
					c51.7503,0,93.8536,42.1007,93.8536,93.8497S156.8967,199.0991,105.1464,199.0991z"/>
				<path fill="#E5A126" d="M105.1464,197.7813c-51.0245,0-92.5305-41.5101-92.5305-92.5319s41.5061-92.5319,92.5305-92.5319
					s92.5358,41.51,92.5358,92.5319S156.1708,197.7813,105.1464,197.7813z"/>
				<radialGradient id="SVGID_3_" cx="108.7473" cy="1.5817" r="193.6165" gradientUnits="userSpaceOnUse">
					<stop  offset="0" style="stop-color:#FFF7C2"/>
					<stop  offset="0.3276" style="stop-color:#FFE996"/>
					<stop  offset="1" style="stop-color:#FDD022"/>
				</radialGradient>
				<path fill="url(#SVGID_3_)" d="M192.4109,105.2494c0,48.1932-39.0739,87.2606-87.2645,87.2606s-87.2593-39.0673-87.2593-87.2606
					s39.0687-87.2606,87.2593-87.2606S192.4109,57.0562,192.4109,105.2494z"/>
				<g>
					<defs>
						<path id="SVGID_4_" d="M192.4109,105.2494c0,48.1932-39.0739,87.2606-87.2645,87.2606s-87.2593-39.0673-87.2593-87.2606
							s39.0687-87.2606,87.2593-87.2606S192.4109,57.0562,192.4109,105.2494z"/>
					</defs>
					<clipPath id="SVGID_5_">
						<use xlink:href="#SVGID_4_"  overflow="visible"/>
					</clipPath>
				</g>
			</g>
		</g>
	</g>
	<g>
		<path fill="#AA5C26" d="M132.3059,167.4753c0-15.0313,11.1037-23.6538,30.4617-23.6538c19.3583,0,30.4617,8.6225,30.4617,23.6538
			c0,16.797-13.6645,30.4617-30.4617,30.4617C145.9733,197.937,132.3059,184.2723,132.3059,167.4753z"/>
		
			<radialGradient id="SVGID_6_" cx="4290.6709" cy="3844.3999" r="119.6938" gradientTransform="matrix(0 1 -1 0 4058.25 -4108.3569)" gradientUnits="userSpaceOnUse">
			<stop  offset="0.1174" style="stop-color:#FCEA65"/>
			<stop  offset="1" style="stop-color:#F5B32D"/>
		</radialGradient>
		<path fill="url(#SVGID_6_)" d="M162.7676,194.2461c-14.7867,0-26.7708-11.9864-26.7708-26.7708
			c0-14.7844,11.984-19.9629,26.7708-19.9629c14.787,0,26.771,5.1785,26.771,19.9629
			C189.5386,182.2597,177.5546,194.2461,162.7676,194.2461z"/>
		<path fill="#AA5C26" d="M182.8232,157.3239c5.2096,0,9.4512-4.4039,9.4512-9.8114c0-5.4052-4.2415-9.8064-9.4512-9.8064h-13.6054
			c-5.2096,0-9.4488,4.4013-9.4488,9.8064c0,5.4075,4.2392,9.8114,9.4488,9.8114H182.8232z"/>
		<path fill="#EBAD20" d="M169.2178,140.702c-3.5597,0-6.4502,3.0526-6.4502,6.8105l0,0c0,3.7629,2.8905,6.8102,6.4502,6.8102
			h13.6054c3.5647,0,6.4526-3.0473,6.4526-6.8102l0,0c0-3.7579-2.8879-6.8105-6.4526-6.8105H169.2178z"/>
		
			<radialGradient id="SVGID_7_" cx="4240.7539" cy="3831.616" r="103.1636" gradientTransform="matrix(0 1 -1 0 4058.25 -4108.3569)" gradientUnits="userSpaceOnUse">
			<stop  offset="0.1174" style="stop-color:#FCEA65"/>
			<stop  offset="1" style="stop-color:#F5B32D"/>
		</radialGradient>
		<path fill="url(#SVGID_7_)" d="M169.2178,140.702c-3.5597,0-6.4502,3.0526-6.4502,6.8105l0,0
			c0,3.7629,2.8905,6.8102,6.4502,6.8102h13.6054c3.5647,0,6.4526-3.0473,6.4526-6.8102l0,0c0-3.7579-2.8879-6.8105-6.4526-6.8105
			H169.2178z"/>
	</g>
	<path fill="#C12526" d="M19.3438,62.7523l3.8789-6.2341c0.5303-0.8518,13.1988-20.9539,32.6625-30.5131l0.8495-0.4183h100.0719
		l1.0039,0.65c0.8389,0.5393,20.6423,13.4162,29.1903,30.6212l2.934,5.8944H19.3438z"/>
	<radialGradient id="SVGID_8_" cx="105.0204" cy="-30.1598" r="133.795" gradientUnits="userSpaceOnUse">
		<stop  offset="0.0207" style="stop-color:#F4815F"/>
		<stop  offset="0.3236" style="stop-color:#F36F50"/>
		<stop  offset="0.7543" style="stop-color:#F1553E"/>
		<stop  offset="1" style="stop-color:#F04A38"/>
	</radialGradient>
	<path fill="url(#SVGID_8_)" d="M57.6842,29.6666h97.9204c0,0,19.5973,12.6105,27.7488,29.006h-81.1749H26.6872
		C26.6872,58.6726,39.0418,38.8217,57.6842,29.6666z"/>
	<g>
		<path fill="#A05024" d="M89.8524,168.7576c-0.9296,0-1.8374-0.4634-2.3663-1.3085c-0.8205-1.3058-0.4253-3.0287,0.8805-3.8479
			l25.3473-15.9c0.9896-0.6175,2.2572-0.5602,3.1814,0.1499l10.3619,7.9493c1.224,0.9391,1.4557,2.6907,0.5152,3.9147
			c-0.9323,1.2213-2.6852,1.4571-3.9119,0.5152l-8.8244-6.7689L91.3327,168.331C90.872,168.62,90.3595,168.7576,89.8524,168.7576z"
			/>
	</g>
	<g>
		<g>
			<g>
				<path fill="#AA5C26" d="M61.2568,130.4193c-16.2798,0-29.525-14.9362-29.525-33.2955c0-18.3646,13.2452-33.1938,29.525-33.3058
					c4.687-0.0322,17.9013,12.9645,18.8588,13.8627c0.7309,0.6861,1.4309,1.3115,2.0872,1.8995
					c4.5997,4.1337,8.5788,7.7037,8.5788,17.5436C90.7816,115.4831,77.5364,130.4193,61.2568,130.4193z"/>
				<path fill="#FFFFFF" d="M86.1334,97.1237c0,15.8178-11.1348,28.6471-24.8765,28.6471
					c-13.7291,0-24.8765-12.8293-24.8765-28.6471c0-15.8281,11.1474-28.6576,24.8765-28.6576
					c5.9481,0,11.4023,8.5983,15.6826,12.6058C82.5478,86.3263,86.1334,88.1449,86.1334,97.1237z"/>
				<g>
					<path fill="#6D3118" d="M84.6558,90.3815c0,8.5516-6.7359,15.4844-15.0598,15.4844c-8.3213,0-15.0698-6.9328-15.0698-15.4844
						c0-8.5569,6.7486-15.4897,15.0698-15.4897C77.9199,74.8918,84.6558,81.8246,84.6558,90.3815z"/>
				</g>
			</g>
		</g>
		<g>
			<path fill="#82361A" d="M91.9133,90.535c-0.5997,0-1.2049-0.1936-1.7147-0.5916L45.9513,55.3956
				c-1.2158-0.9487-1.4312-2.7029-0.4825-3.9174c0.946-1.2145,2.6988-1.4326,3.9174-0.4825l44.2473,34.5478
				c1.2158,0.9487,1.4312,2.7029,0.4825,3.9174C93.5653,90.167,92.7448,90.535,91.9133,90.535z"/>
		</g>
	</g>
	<g>
		<g>
			<g>
				<path fill="#AA5C26" d="M148.184,130.4193c16.2825,0,29.5224-14.9362,29.5224-33.2955c0-18.3646-12.926-34.145-29.5224-33.3058
					c-3.7553,0.1903-17.9037,12.9645-18.8612,13.8627c-0.7311,0.6861-1.4259,1.3115-2.0848,1.8995
					c-4.6021,4.1337-8.5788,7.7037-8.5788,17.5436C118.6593,115.4831,131.9068,130.4193,148.184,130.4193z"/>
				<path fill="#FFFFFF" d="M123.3075,97.1237c0,15.8178,11.1372,28.6471,24.8765,28.6471
					c13.7291,0,24.8792-12.8293,24.8792-28.6471c0-15.8281-11.1501-28.6576-24.8792-28.6576
					c-5.9455,0-11.4021,8.5983-15.6826,12.6058C126.893,86.3263,123.3075,88.1449,123.3075,97.1237z"/>
				<g>
					<path fill="#6D3118" d="M124.7877,90.3815c0,8.5516,6.7333,15.4844,15.0572,15.4844s15.0724-6.9328,15.0724-15.4844
						c0-8.5569-6.7486-15.4897-15.0724-15.4897S124.7877,81.8246,124.7877,90.3815z"/>
				</g>
			</g>
		</g>
		<g>
			<path fill="#82361A" d="M117.9339,90.535c-0.826,0-1.6438-0.3653-2.1945-1.0632c-0.9541-1.2118-0.747-2.9674,0.4634-3.9215
				l43.8411-34.5478c1.2131-0.9514,2.966-0.7415,3.9201,0.4648c0.9541,1.2118,0.7469,2.9674-0.4634,3.9215l-43.8411,34.5478
				C119.147,90.3401,118.5391,90.535,117.9339,90.535z"/>
		</g>
	</g>
</g>
</svg>
