<?xml version="1.0" encoding="utf-8"?>
<!-- Generator: Adobe Illustrator 17.0.0, SVG Export Plug-In . SVG Version: 6.00 Build 0)  -->
<!DOCTYPE svg PUBLIC "-//W3C//DTD SVG 1.1//EN" "http://www.w3.org/Graphics/SVG/1.1/DTD/svg11.dtd">
<svg version="1.1" id="Layer_1" xmlns="http://www.w3.org/2000/svg" xmlns:xlink="http://www.w3.org/1999/xlink" x="0px" y="0px" viewBox="0 0 200 200" enable-background="new 0 0 200 200" xml:space="preserve">
<g>
	<g>
		<g>
			<g>
				<path fill="#E4A024" d="M99.3465,198.3479C45.1186,198.3479,1,154.2293,1,100S45.1186,1.6521,99.3465,1.6521
					c54.2307,0,98.352,44.1186,98.352,98.3479S153.5772,198.3479,99.3465,198.3479z"/>
				<path fill="#E4A024" d="M99.3465,196.9669c-53.47,0-96.9655-43.4996-96.9655-96.9669S45.8765,3.0331,99.3465,3.0331
					s96.971,43.4996,96.971,96.9669S152.8165,196.9669,99.3465,196.9669z"/>
				<radialGradient id="SVGID_1_" cx="103.12" cy="-8.6364" r="202.8965" gradientUnits="userSpaceOnUse">
					<stop  offset="0" style="stop-color:#FFF7C2"/>
					<stop  offset="0.3321" style="stop-color:#FFEB8F"/>
					<stop  offset="1" style="stop-color:#FED01F"/>
				</radialGradient>
				<path fill="url(#SVGID_1_)" d="M190.7936,100c0,50.5031-40.9467,91.4429-91.4471,91.4429S7.9049,150.5031,7.9049,100
					S48.8461,8.557,99.3465,8.557S190.7936,49.4969,190.7936,100z"/>
				<g>
					<defs>
						<path id="SVGID_2_" d="M190.7936,100c0,50.5031-40.9467,91.4429-91.4471,91.4429S7.9049,150.5031,7.9049,100
							S48.8461,8.557,99.3465,8.557S190.7936,49.4969,190.7936,100z"/>
					</defs>
					<clipPath id="SVGID_3_">
						<use xlink:href="#SVGID_2_"  overflow="visible"/>
					</clipPath>
				</g>
			</g>
		</g>
	</g>
	<g>
		<path fill="#823308" d="M98.3861,166.437c-0.8287,0-1.6437-0.365-2.1925-1.0482c-0.8562-1.0647-0.8232-2.5918,0.0796-3.6181
			c17.8996-20.346,32.4899-17.4908,32.4954-17.4867c1.1635,0.2236,2.0855,1.1539,2.2694,2.3215
			c0.1866,1.1676-0.354,2.3311-1.3885,2.9046l-29.905,16.5742C99.3164,166.3231,98.8471,166.437,98.3861,166.437z"/>
	</g>
	<g>
		<path fill="#AA5B26" d="M167.4329,176.3115c4.267,2.7998,2.6241,8.255,0.1616,12.0027l0,0
			c-2.457,3.7477-6.3735,7.5065-10.6457,4.7039l-45.2327-33.2905c-4.267-2.8023,7.2502-12.7633,15.1828-8.5947L167.4329,176.3115z"
			/>
		<path fill="#E4A024" d="M160.8784,196.2899c-0.9683,0-1.8395-0.2494-2.5893-0.7419c-1.6453-1.0774-2.4303-3.1274-2.2198-5.7692
			c0.1942-2.3399,1.1653-4.9467,2.7349-7.3394c2.5626-3.904,6.1876-6.4274,9.2299-6.4274c0.9656,0,1.8395,0.2494,2.5893,0.7419
			c1.6428,1.0788,2.4303,3.1274,2.2145,5.7692c-0.1917,2.3413-1.1625,4.9481-2.7324,7.3391
			C167.5433,193.7666,163.9235,196.2899,160.8784,196.2899z"/>
		<path fill="#E4A024" d="M169.8656,177.9082c2.4841,1.6307,2.077,6.6434-0.9142,11.1962c-2.986,4.5517-7.4228,6.9198-9.9044,5.2894
			c-2.4869-1.6307-2.0767-6.6434,0.9117-11.1962C162.9472,178.6459,167.3815,176.2778,169.8656,177.9082z"/>
		<path fill="#F42F25" d="M164.3715,181.7059c0.7551,0.4936,0.6634,1.9662-0.2077,3.2906c-0.8659,1.323-2.1822,1.9947-2.9374,1.5011
			c-0.7526-0.4949-0.6582-1.969,0.2105-3.2906C162.3053,181.8813,163.6189,181.2096,164.3715,181.7059z"/>
		<path fill="#F42F25" d="M163.9561,188.2899c0.7551,0.4936,0.6607,1.9662-0.2105,3.2906c-0.8686,1.323-2.182,1.9947-2.9346,1.5011
			c-0.7551-0.4949-0.6609-1.969,0.2077-3.292C161.8899,188.4653,163.2035,187.795,163.9561,188.2899z"/>
		<path fill="#F42F25" d="M169.5582,181.7032c0.7524,0.4963,0.6607,1.969-0.2105,3.2934c-0.8684,1.323-2.1819,1.9947-2.9346,1.4997
			c-0.7551-0.4936-0.6634-1.969,0.2077-3.292C167.4895,181.8813,168.8056,181.2096,169.5582,181.7032z"/>
	</g>
	<path opacity="0.8" fill="#F7AE6D" d="M172.9186,170.9921c0,0-0.6931-0.6149-1.6463-1.9042
		c-0.9577-1.287-2.1779-3.2485-3.1863-5.8777c-0.4927-1.3125-0.914-2.7928-1.2111-4.416c-0.2855-1.6208-0.4053-3.3867-0.3362-5.24
		c0.0738-0.9209,0.1841-1.8672,0.3315-2.818c0.2235-0.9395,0.4121-1.9111,0.7323-2.8527c0.373-0.9185,0.6653-1.8948,1.1373-2.7857
		l1.3353-2.3991c0.4006-0.7299,0.9487-1.5586,1.2295-2.1987c0.1912-0.6101,0.5158-1.089,0.7207-1.7569
		c0.4329-1.3375,0.7988-2.7027,0.9784-4.1003c0.1933-1.3907,0.2902-2.7952,0.2579-4.1581c0.0092-1.3629-0.083-2.6867-0.2233-3.9186
		c-0.1198-1.2387-0.2742-2.3944-0.4491-3.4258c-0.1841-1.0246-0.3383-1.9431-0.4949-2.6983
		c-0.3293-1.5334-0.5158-2.4106-0.5158-2.4106s0.7299,0.5686,1.775,1.7842c0.5158,0.6125,1.1512,1.3632,1.7453,2.3116
		c0.6262,0.9301,1.2986,2.0214,1.8764,3.2969c1.1856,2.5304,2.2079,5.7789,2.2953,9.5178c0.0531,1.8604-0.1657,3.8311-0.6769,5.7858
		c-0.2395,0.9831-0.6908,2.0629-1.1005,3.0738c-0.4281,0.9393-0.8381,1.5746-1.2618,2.3736l-1.2571,2.1228
		c-0.3452,0.633-0.617,1.3007-0.9393,1.9408c-0.2509,0.6792-0.4972,1.3516-0.7436,2.0169c-0.1865,0.6953-0.3661,1.386-0.5479,2.0629
		c-0.2648,1.3952-0.4812,2.7857-0.5781,4.1465c-0.0875,1.3606-0.1174,2.6822-0.0828,3.9254
		c0.0507,2.4865,0.2947,4.6369,0.4836,6.1658C172.792,170.108,172.9186,170.9921,172.9186,170.9921z"/>
	<path opacity="0.8" fill="#F7AE6D" d="M178.8066,184.9375c0,0-0.4797-0.4255-1.1393-1.3178
		c-0.6627-0.8907-1.5072-2.2481-2.205-4.0676c-0.341-0.9083-0.6326-1.9327-0.8381-3.056c-0.1976-1.1217-0.2805-2.3437-0.2327-3.6262
		c0.0511-0.6373,0.1274-1.2922,0.2294-1.9502c0.1547-0.6502,0.2852-1.3225,0.5068-1.9741c0.2581-0.6357,0.4604-1.3113,0.787-1.9278
		l0.9241-1.6602c0.2772-0.5051,0.6565-1.0786,0.8508-1.5215c0.1323-0.4222,0.357-0.7536,0.4987-1.2158
		c0.2995-0.9256,0.5528-1.8704,0.6771-2.8375c0.1338-0.9624,0.2009-1.9343,0.1785-2.8775c0.0064-0.9432-0.0574-1.8593-0.1545-2.7118
		c-0.0829-0.8572-0.1897-1.657-0.3108-2.3708c-0.1274-0.7091-0.2341-1.3447-0.3425-1.8673c-0.2279-1.0611-0.357-1.6682-0.357-1.6682
		s0.5051,0.3935,1.2284,1.2347c0.357,0.4239,0.7967,0.9433,1.2078,1.5997c0.4333,0.6436,0.8987,1.3989,1.2985,2.2815
		c0.8205,1.7511,1.5279,3.9992,1.5885,6.5866c0.0367,1.2874-0.1147,2.6512-0.4684,4.0039c-0.1658,0.6803-0.478,1.4276-0.7616,2.1272
		c-0.2963,0.65-0.58,1.0897-0.8732,1.6426l-0.8699,1.469c-0.2389,0.4381-0.427,0.9001-0.65,1.3431
		c-0.1736,0.47-0.3441,0.9354-0.5146,1.3958c-0.1291,0.4811-0.2534,0.9592-0.3792,1.4276c-0.1832,0.9655-0.333,1.9278-0.4001,2.8695
		c-0.0605,0.9415-0.0813,1.8562-0.0573,2.7165c0.0351,1.7208,0.2039,3.2089,0.3346,4.2669
		C178.719,184.3257,178.8066,184.9375,178.8066,184.9375z"/>
	<path fill="#2D2D2D" d="M107.2312,89.3256c0,0,7.0248,19.9152,19.9166,21.8675c12.8861,1.9495,57.4034-10.544,64.4311-16.3999
		c7.0274-5.8601,8.1938-23.0421,7.0274-30.462c-1.1715-7.4202-6.6404-13.2761-15.619-14.8387
		c-8.9814-1.5629-44.1278,5.8587-55.4471,10.9352c-11.3302,5.0764-20.3088,14.8387-20.3088,14.8387H94.3451
		c0,0-8.9842-9.7623-20.3063-14.8387C62.7111,55.3512,27.565,47.9296,18.5864,49.4925C9.6049,51.0551,4.136,56.911,2.967,64.3312
		c-1.1689,7.4199,0,24.6019,7.0305,30.462c7.0248,5.8559,51.5447,18.3495,64.4364,16.3999
		c12.8808-1.9523,19.9112-21.8675,19.9112-21.8675H107.2312z"/>
	<radialGradient id="SVGID_4_" cx="124.019" cy="266.9122" r="217.9555" gradientUnits="userSpaceOnUse">
		<stop  offset="0" style="stop-color:#8A8788"/>
		<stop  offset="0.15" style="stop-color:#848182"/>
		<stop  offset="0.3577" style="stop-color:#726F70"/>
		<stop  offset="0.599" style="stop-color:#545353"/>
		<stop  offset="0.8638" style="stop-color:#2C2B2B"/>
		<stop  offset="1" style="stop-color:#141414"/>
	</radialGradient>
	<path fill="url(#SVGID_4_)" d="M107.2312,93.1331c0,0,7.0248,19.9152,19.9166,21.8675
		c12.8861,1.9495,57.4034-10.5443,64.4311-16.3999c7.0274-5.8601,8.1938-23.0421,7.0274-30.4623
		c-1.1715-7.4199-6.6404-13.2758-15.619-14.8384c-8.9814-1.5629-44.1278,5.8584-55.4471,10.9352
		c-11.3302,5.0764-20.3088,14.8384-20.3088,14.8384H94.3451c0,0-8.9842-9.762-20.3063-14.8384
		C62.7111,59.1584,27.565,51.737,18.5864,53.2999C9.6049,54.8625,4.136,60.7185,2.967,68.1384
		c-1.1689,7.4202,0,24.6021,7.0305,30.4623c7.0248,5.8556,51.5447,18.3495,64.4364,16.3999
		c12.8808-1.9523,19.9112-21.8675,19.9112-21.8675H107.2312z"/>
	<g>
		<defs>
			<path id="SVGID_5_" d="M107.2312,93.1331c0,0,7.0248,19.9152,19.9166,21.8675c12.8861,1.9495,57.4034-10.5443,64.4311-16.3999
				c7.0274-5.8601,8.1938-23.0421,7.0274-30.4623c-1.1715-7.4199-6.6404-13.2758-15.619-14.8384
				c-8.9814-1.5629-44.1278,5.8584-55.4471,10.9352c-11.3302,5.0764-20.3088,14.8384-20.3088,14.8384H94.3451
				c0,0-8.9842-9.762-20.3063-14.8384C62.7111,59.1584,27.565,51.737,18.5864,53.2999C9.6049,54.8625,4.136,60.7185,2.967,68.1384
				c-1.1689,7.4202,0,24.6021,7.0305,30.4623c7.0248,5.8556,51.5447,18.3495,64.4364,16.3999
				c12.8808-1.9523,19.9112-21.8675,19.9112-21.8675H107.2312z"/>
		</defs>
		<clipPath id="SVGID_6_">
			<use xlink:href="#SVGID_5_"  overflow="visible"/>
		</clipPath>
		<radialGradient id="SVGID_7_" cx="65.3216" cy="173.9384" r="121.1242" gradientUnits="userSpaceOnUse">
			<stop  offset="0" style="stop-color:#858283"/>
			<stop  offset="0.2209" style="stop-color:#7F7C7D"/>
			<stop  offset="0.5266" style="stop-color:#6D6B6C"/>
			<stop  offset="0.8805" style="stop-color:#504F4F"/>
			<stop  offset="1" style="stop-color:#444444"/>
		</radialGradient>
		<path clip-path="url(#SVGID_6_)" fill="url(#SVGID_7_)" d="M18.3422,49.384c0,0-13.2758,21.183,2.9142,31.5913
			C44.861,96.1501,97.4897,68.8574,97.4897,68.8574"/>
		
			<radialGradient id="SVGID_8_" cx="354.6546" cy="-1301.1293" r="121.1286" gradientTransform="matrix(0.9334 -0.3587 0.3587 0.9334 340.5637 1500.7214)" gradientUnits="userSpaceOnUse">
			<stop  offset="0" style="stop-color:#858283"/>
			<stop  offset="0.2209" style="stop-color:#7F7C7D"/>
			<stop  offset="0.5266" style="stop-color:#6D6B6C"/>
			<stop  offset="0.8805" style="stop-color:#504F4F"/>
			<stop  offset="1" style="stop-color:#444444"/>
		</radialGradient>
		<path clip-path="url(#SVGID_6_)" fill="url(#SVGID_8_)" d="M116.3526,59.6209c0,0-4.794,24.5361,14.0525,28.4436
			c27.4764,5.6969,66.81-38.6586,66.81-38.6586"/>
	</g>
</g>
</svg>
