<?xml version="1.0" encoding="utf-8"?>
<!-- Generator: Adobe Illustrator 17.0.0, SVG Export Plug-In . SVG Version: 6.00 Build 0)  -->
<!DOCTYPE svg PUBLIC "-//W3C//DTD SVG 1.1//EN" "http://www.w3.org/Graphics/SVG/1.1/DTD/svg11.dtd">
<svg version="1.1" id="Layer_1" xmlns="http://www.w3.org/2000/svg" xmlns:xlink="http://www.w3.org/1999/xlink" x="0px" y="0px" viewBox="0 0 200 200" enable-background="new 0 0 200 200" xml:space="preserve">
<g>
	<g>
		<g>
			<g>
				<path fill="#E4A024" d="M99.9972,198.9979C45.4108,198.9979,1,154.5902,1,100.0007C1,45.4126,45.4108,1.0021,99.9972,1.0021
					C154.5867,1.0021,199,45.4126,199,100.0007C199,154.5902,154.5867,198.9979,99.9972,198.9979z"/>
				<path fill="#E4A024" d="M99.9972,197.6078c-53.8236,0-97.6071-43.786-97.6071-97.6071S46.1737,2.3922,99.9972,2.3922
					c53.821,0,97.6127,43.7874,97.6127,97.6085S153.8183,197.6078,99.9972,197.6078z"/>
				<radialGradient id="SVGID_1_" cx="103.7957" cy="-9.3544" r="204.2377" gradientUnits="userSpaceOnUse">
					<stop  offset="0" style="stop-color:#FFF7C2"/>
					<stop  offset="0.3321" style="stop-color:#FFEB8F"/>
					<stop  offset="1" style="stop-color:#FED01F"/>
				</radialGradient>
				<path fill="url(#SVGID_1_)" d="M192.0494,100.0007c0,50.8373-41.2177,92.0466-92.0522,92.0466
					c-50.8342,0-92.0466-41.2093-92.0466-92.0466S49.163,7.9527,99.9972,7.9527C150.8317,7.9527,192.0494,49.1634,192.0494,100.0007
					z"/>
				<g>
					<defs>
						<path id="SVGID_2_" d="M192.0494,100.0007c0,50.8373-41.2177,92.0466-92.0522,92.0466
							c-50.8342,0-92.0466-41.2093-92.0466-92.0466S49.163,7.9527,99.9972,7.9527
							C150.8317,7.9527,192.0494,49.1634,192.0494,100.0007z"/>
					</defs>
					<clipPath id="SVGID_3_">
						<use xlink:href="#SVGID_2_"  overflow="visible"/>
					</clipPath>
				</g>
			</g>
		</g>
	</g>
	
		<radialGradient id="SVGID_4_" cx="-875.6818" cy="119.2923" r="91.0515" gradientTransform="matrix(0.8109 0 0 0.8093 810.4484 3.0072)" gradientUnits="userSpaceOnUse">
		<stop  offset="0" style="stop-color:#8A8788"/>
		<stop  offset="0.15" style="stop-color:#848182"/>
		<stop  offset="0.3577" style="stop-color:#726F70"/>
		<stop  offset="0.599" style="stop-color:#545353"/>
		<stop  offset="0.8638" style="stop-color:#2C2B2B"/>
		<stop  offset="1" style="stop-color:#141414"/>
	</radialGradient>
	<path fill="url(#SVGID_4_)" d="M118.5901,142.1144v0.0025c-3.0761-2.7638-7.3443-4.1323-11.729-3.3285
		c-2.6607,0.4888-5.0039,1.7268-6.8583,3.4428c-1.8544-1.716-4.1893-2.954-6.8611-3.4428
		c-4.3819-0.8038-8.6502,0.5647-11.7237,3.3285v-0.0025c0,0-14.9221,12.8831-28.5926-0.7632c0,0,5.2864,24.5281,34.1478,22.4702
		v-0.0056c3.5568,0.0217,10.4748-2.4436,13.0296-5.3431c2.4625,2.8995,8.9001,5.3647,12.4649,5.3431l-1.2544,0.0056
		c28.0251,2.0579,35.9641-22.4702,35.9641-22.4702C132.171,156.3331,118.5901,142.1144,118.5901,142.1144z"/>
	<g>
		<path fill-rule="evenodd" clip-rule="evenodd" fill="#2D2D2D" d="M59.8413,134.2052c-5.1287,0-10.0812-0.9964-15.134-3.0463
			C11.1815,117.5565-0.1024,72.714,3.0037,51.4321c0.2063-1.4065,1.1566-2.5931,2.4816-3.0994
			c0.4479-0.171,0.9692-0.2675,1.4499-0.2675c2.1313,0,3.5459,1.3765,7.3254,5.357c0.3364,0.3528,0.5972,0.6297,0.7276,0.7587
			c3.5921,3.0533,7.7216,5.7248,11.8269,7.6187c2.4327,1.1185,4.963,1.6643,7.7324,1.6643c3.5676,0,7.2058-0.8755,11.0587-1.8016
			c4.3277-1.0398,8.8022-2.1149,13.7191-2.1149l0.3531,0.0014c12.4702,0.1343,23.5887,4.6644,30.7239,8.4411
			c2.6635,1.4093,5.4682,2.1233,8.3435,2.1233c2.875,0,5.6798-0.714,8.3379-2.1233c7.138-3.7767,18.259-8.3068,30.7239-8.4411
			l0.3584-0.0014c4.9169,0,9.3886,1.0751,13.7138,2.1149c3.8526,0.9261,7.4908,1.8016,11.0612,1.8016
			c2.7666,0,5.2972-0.5458,7.7324-1.6656c4.1081-1.8925,8.2351-4.564,11.9436-7.7232c0.022-0.0297,0.2852-0.3122,0.63-0.6692
			c3.7686-3.968,5.1776-5.3406,7.309-5.3406c0.4779,0,0.9992,0.0965,1.4443,0.2675c1.3306,0.5063,2.2809,1.6929,2.4844,3.098
			c3.2988,22.6017-7.8981,68.6019-41.9508,79.818c-3.9693,1.3087-8.3135,1.9709-12.9073,1.9709l0,0
			c-10.722,0-22.3398-3.668-31.8644-10.0648c-3.1495-2.1122-5.528-3.0572-7.7216-3.0572c-2.3187,0-4.9252,1.0045-8.998,3.4592
			C78.8307,130.9201,69.2057,134.2052,59.8413,134.2052z M114.5365,104.4046c4.9552,2.468,10.8143,3.8011,16.8636,3.8011
			c12.4566,0,25.8746-5.7912,29.3824-18.639c-3.9043-1.5614-8.11-2.3487-12.5408-2.3487
			C135.2771,87.218,121.4846,94.4105,114.5365,104.4046z M39.0329,89.5667c3.5078,12.8478,16.9231,18.639,29.3799,18.639
			c6.0465,0,11.9056-1.3331,16.8633-3.8011C78.3311,94.4105,64.533,87.218,51.5712,87.218
			C47.1401,87.218,42.9372,88.0053,39.0329,89.5667z"/>
		<linearGradient id="SVGID_5_" gradientUnits="userSpaceOnUse" x1="99.0341" y1="21.5137" x2="98.1628" y2="142.743">
			<stop  offset="0" style="stop-color:#FFFFFF"/>
			<stop  offset="0.3264" style="stop-color:#A4A5A5"/>
			<stop  offset="0.6151" style="stop-color:#5B5C5C"/>
			<stop  offset="0.8205" style="stop-color:#2D2F2F"/>
			<stop  offset="0.9235" style="stop-color:#1C1E1E"/>
		</linearGradient>
		<path opacity="0.5" fill-rule="evenodd" clip-rule="evenodd" fill="url(#SVGID_5_)" d="M190.5995,51.9981
			c-0.5864-0.2255-4.9903,4.6808-5.4354,5.0623c-3.8392,3.2729-8.2648,6.1902-12.8506,8.304
			c-12.0006,5.5238-22.3154-2.0215-34.4625-1.8911c-10.0053,0.1087-20.1431,3.3355-28.9265,7.9851
			c-6.5108,3.4481-13.8767,3.4305-20.3631,0c-8.7781-4.6497-18.9215-7.8764-28.9212-7.9851
			c-12.1527-0.1304-22.4619,7.4149-34.4653,1.8911c-4.583-2.1138-9.0085-5.0311-12.8503-8.304
			c-0.4454-0.3815-4.8465-5.2877-5.4357-5.0623c-3.0544,20.9536,8.539,63.0442,39.2898,75.5225
			c14.1701,5.7479,27.1399,2.1397,42.8385-7.3251c8.2376-4.9661,12.9862-5.6339,20.9333-0.2986
			c12.2559,8.2292,28.5384,11.8458,41.3561,7.6237C183.2118,117.0133,193.6566,72.9517,190.5995,51.9981z M34.5531,87.2942
			c20.8816-10.6661,47.3673,1.5205,56.1478,18.5114C71.4836,118.4957,38.1966,111.9741,34.5531,87.2942z M109.112,105.8056
			c8.7831-16.9909,35.266-29.1775,56.1478-18.5114C161.616,111.9741,128.3321,118.4957,109.112,105.8056z"/>
		
			<radialGradient id="SVGID_6_" cx="101.7949" cy="179.9226" r="98.7757" gradientTransform="matrix(1 0 0 0.8574 0 4.4656)" gradientUnits="userSpaceOnUse">
			<stop  offset="0" style="stop-color:#696768"/>
			<stop  offset="0.3184" style="stop-color:#636162"/>
			<stop  offset="0.7583" style="stop-color:#515050"/>
			<stop  offset="1" style="stop-color:#444444"/>
		</radialGradient>
		<path fill-rule="evenodd" clip-rule="evenodd" fill="url(#SVGID_6_)" d="M190.5995,57.9306
			c-0.5864-0.1929-4.9903,4.0127-5.4354,4.34c-3.8392,2.8075-8.2648,5.3066-12.8506,7.1188
			c-12.0006,4.7378-22.3154-1.7321-34.4625-1.6209c-10.0053,0.0923-20.1431,2.8603-28.9265,6.8461
			c-6.5108,2.9568-13.8767,2.9418-20.3631,0c-8.7781-3.9858-18.9215-6.7538-28.9212-6.8461
			c-12.1527-0.1112-22.4619,6.3587-34.4653,1.6209c-4.583-1.8122-9.0085-4.3113-12.8503-7.1188
			c-0.4454-0.3272-4.8465-4.5329-5.4357-4.34c-3.0544,17.9643,8.539,54.0543,39.2898,64.7519
			c14.1701,4.9252,27.1399,1.8355,42.8385-6.2828c8.2376-4.2571,12.9862-4.8273,20.9333-0.2552
			c12.2559,7.054,28.5384,10.1573,41.3561,6.538C183.2118,113.6739,193.6566,75.8949,190.5995,57.9306z M34.5531,88.1902
			c20.8816-9.1417,47.3673,1.3059,56.1478,15.8721C71.4836,114.9445,38.1966,109.3515,34.5531,88.1902z M109.112,104.0624
			c8.7831-14.5663,35.266-25.0138,56.1478-15.8721C161.616,109.3515,128.3321,114.9445,109.112,104.0624z"/>
	</g>
</g>
</svg>
