<?xml version="1.0" encoding="utf-8"?>
<!-- Generator: Adobe Illustrator 17.0.0, SVG Export Plug-In . SVG Version: 6.00 Build 0)  -->
<!DOCTYPE svg PUBLIC "-//W3C//DTD SVG 1.1//EN" "http://www.w3.org/Graphics/SVG/1.1/DTD/svg11.dtd">
<svg version="1.1" id="Layer_1" xmlns="http://www.w3.org/2000/svg" xmlns:xlink="http://www.w3.org/1999/xlink" x="0px" y="0px" viewBox="0 0 200 200" enable-background="new 0 0 200 200" xml:space="preserve">
<g>
	<g>
		<g>
			<g>
				<path fill="#E5A126" d="M99.9947,198.9986C45.408,198.9986,1,154.5881,1,100S45.408,1.0014,99.9947,1.0014
					C154.5867,1.0014,199,45.4119,199,100S154.5867,198.9986,99.9947,198.9986z"/>
				<path fill="#E5A126" d="M99.9947,197.6085c-53.8186,0-97.6046-43.7874-97.6046-97.6085S46.1762,2.3915,99.9947,2.3915
					c53.8263,0,97.6152,43.7874,97.6152,97.6085S153.8211,197.6085,99.9947,197.6085z"/>
				<radialGradient id="SVGID_1_" cx="103.7957" cy="-9.3552" r="204.239" gradientUnits="userSpaceOnUse">
					<stop  offset="0" style="stop-color:#FFF7C2"/>
					<stop  offset="0.3276" style="stop-color:#FFE996"/>
					<stop  offset="1" style="stop-color:#FDD022"/>
				</radialGradient>
				<path fill="url(#SVGID_1_)" d="M192.0494,100c0,50.8373-41.2177,92.048-92.0547,92.048
					c-50.8317,0-92.0441-41.2107-92.0441-92.048c0-50.837,41.2124-92.048,92.0441-92.048
					C150.8317,7.952,192.0494,49.163,192.0494,100z"/>
				<g>
					<defs>
						<path id="SVGID_2_" d="M192.0494,100c0,50.8373-41.2177,92.048-92.0547,92.048c-50.8317,0-92.0441-41.2107-92.0441-92.048
							c0-50.837,41.2124-92.048,92.0441-92.048C150.8317,7.952,192.0494,49.163,192.0494,100z"/>
					</defs>
					<clipPath id="SVGID_3_">
						<use xlink:href="#SVGID_2_"  overflow="visible"/>
					</clipPath>
				</g>
			</g>
		</g>
	</g>
	<g>
		<radialGradient id="SVGID_4_" cx="38.9596" cy="98.5345" r="30.7262" gradientUnits="userSpaceOnUse">
			<stop  offset="0" style="stop-color:#F15A60;stop-opacity:0.5"/>
			<stop  offset="0.1384" style="stop-color:#F16262;stop-opacity:0.4367"/>
			<stop  offset="0.3698" style="stop-color:#F37767;stop-opacity:0.3309"/>
			<stop  offset="0.6559" style="stop-color:#F7956E;stop-opacity:0.2"/>
			<stop  offset="0.7027" style="stop-color:#F69B6C;stop-opacity:0.1714"/>
			<stop  offset="0.7826" style="stop-color:#F6AE68;stop-opacity:0.1227"/>
			<stop  offset="0.8851" style="stop-color:#F8CC5A;stop-opacity:0.0602"/>
			<stop  offset="0.9839" style="stop-color:#FAEE3C;stop-opacity:0"/>
		</radialGradient>
		<path fill="url(#SVGID_4_)" d="M69.6862,98.5326c0,16.972-13.7547,30.7278-30.7292,30.7278
			c-16.9612,0-30.7239-13.7558-30.7239-30.7278c0-16.9692,13.7628-30.7239,30.7239-30.7239
			C55.9315,67.8087,69.6862,81.5634,69.6862,98.5326z"/>
		<radialGradient id="SVGID_5_" cx="161.6053" cy="98.5345" r="30.7262" gradientUnits="userSpaceOnUse">
			<stop  offset="0" style="stop-color:#F15A60;stop-opacity:0.5"/>
			<stop  offset="0.1384" style="stop-color:#F16262;stop-opacity:0.4367"/>
			<stop  offset="0.3698" style="stop-color:#F37767;stop-opacity:0.3309"/>
			<stop  offset="0.6559" style="stop-color:#F7956E;stop-opacity:0.2"/>
			<stop  offset="0.7027" style="stop-color:#F69B6C;stop-opacity:0.1714"/>
			<stop  offset="0.7826" style="stop-color:#F6AE68;stop-opacity:0.1227"/>
			<stop  offset="0.8851" style="stop-color:#F8CC5A;stop-opacity:0.0602"/>
			<stop  offset="0.9839" style="stop-color:#FAEE3C;stop-opacity:0"/>
		</radialGradient>
		<circle fill="url(#SVGID_5_)" cx="161.6053" cy="98.5326" r="30.7265"/>
	</g>
	<g>
		<g>
			<path fill="#F26A6B" d="M20.9658,108.7468c-0.4723,0-0.9475-0.1561-1.3425-0.4779c-0.906-0.7417-1.0414-2.0772-0.3011-2.9846
				l12.8335-15.7174c0.7431-0.9088,2.0772-1.0414,2.986-0.3025c0.906,0.7417,1.0414,2.0772,0.3011,2.9846l-12.8335,15.7174
				C22.1895,108.4802,21.579,108.7468,20.9658,108.7468z"/>
		</g>
		<g>
			<path fill="#F26A6B" d="M33.7689,109.1307c-0.4724,0-0.9475-0.1561-1.3425-0.4779c-0.906-0.7417-1.0414-2.0772-0.3011-2.9846
				l12.8308-15.716c0.7431-0.9088,2.08-1.0428,2.986-0.3025c0.906,0.7417,1.0414,2.0772,0.3011,2.9846l-12.8308,15.716
				C34.9926,108.8642,34.3821,109.1307,33.7689,109.1307z"/>
		</g>
	</g>
	<g>
		<g>
			<path fill="#F26A6B" d="M148.7901,108.7468c-0.4724,0-0.9475-0.1561-1.3425-0.4779c-0.906-0.7417-1.0414-2.0772-0.3011-2.9846
				l12.8308-15.7174c0.743-0.9088,2.0772-1.0414,2.986-0.3025c0.906,0.7417,1.0414,2.0772,0.3011,2.9846l-12.8308,15.7174
				C150.0138,108.4802,149.4034,108.7468,148.7901,108.7468z"/>
		</g>
		<g>
			<path fill="#F26A6B" d="M161.5905,109.1307c-0.4724,0-0.9474-0.1561-1.3425-0.4779c-0.906-0.7417-1.0414-2.0772-0.3011-2.986
				l12.8335-15.716c0.7431-0.9074,2.0772-1.0414,2.986-0.3011c0.906,0.7417,1.0414,2.0772,0.3011,2.986l-12.8335,15.716
				C162.8142,108.8642,162.2038,109.1307,161.5905,109.1307z"/>
		</g>
	</g>
	<g>
		<circle fill="#6D3118" cx="61.6522" cy="79.9628" r="9.7744"/>
		<circle fill="#6D3118" cx="139.5805" cy="79.9628" r="9.7744"/>
		<g>
			<path fill="#82361A" d="M72.6563,38.8363c-0.0856,0-0.1713-0.0041-0.2597-0.011c-1.5524-0.1423-2.6987-1.5151-2.5606-3.0689
				c0.1547-1.8217-0.0221-7.1653-2.6628-10.0436c-1.3397-1.4585-3.1849-2.167-5.6406-2.167c-9.5713,0-9.6818,11.9538-9.6818,12.462
				c0,1.5621-1.2651,2.8286-2.8286,2.8286s-2.8286-1.2665-2.8286-2.8286c0-6.2676,3.207-18.1192,15.3389-18.1192
				c4.0854,0,7.3919,1.3535,9.8309,4.0233c4.8644,5.3284,4.1407,13.9854,4.1075,14.3514
				C75.3357,37.7328,74.1037,38.8363,72.6563,38.8363z"/>
		</g>
		<g>
			<path fill="#82361A" d="M152.1684,37.0477c-0.0856,0-0.1713-0.0041-0.2597-0.011c-1.5524-0.1423-2.6987-1.5151-2.5606-3.0689
				c0.1547-1.8217-0.0221-7.1667-2.6628-10.045c-1.3397-1.4585-3.1849-2.167-5.6406-2.167c-9.5078,0-9.6818,11.962-9.6845,12.4703
				c-0.0083,1.5565-1.2734,2.8175-2.8286,2.8175c-0.0028,0-0.0055,0-0.0083,0c-1.5579-0.0041-2.8203-1.2651-2.8203-2.8244
				c0-6.2676,3.207-18.1205,15.3417-18.1205c4.0854,0,7.3918,1.3535,9.8282,4.0233c4.8671,5.3298,4.1434,13.9868,4.1103,14.3528
				C154.8478,35.9442,153.6158,37.0477,152.1684,37.0477z"/>
		</g>
		<g>
			<path fill="#A05024" d="M80.7939,141.7891c-6.4168,0-12.3391-2.4073-16.2449-6.606c-3.6186-3.8865-5.3119-8.9871-4.8975-14.7519
				c0.384-5.3892,4.102-11.6527,4.2594-11.9165c0.8011-1.3411,2.5358-1.7748,3.8782-0.9737
				c1.3397,0.8011,1.7789,2.5371,0.9779,3.8782c-0.8839,1.4833-3.2346,6.0673-3.4749,9.4166
				c-0.2983,4.1572,0.8756,7.7855,3.3976,10.4925c2.8396,3.0523,7.2537,4.8036,12.1043,4.8036
				c8.5465,0,15.4991-6.9527,15.4991-15.4977c0-1.5621,1.2651-2.8286,2.8286-2.8286c1.5635,0,2.8286,1.2665,2.8286,2.8286
				C101.9502,132.2993,92.459,141.7891,80.7939,141.7891z"/>
		</g>
		<g>
			<path fill="#A05024" d="M117.7615,141.7891c-11.6651,0-21.1535-9.4898-21.1535-21.1549c0-1.5621,1.2651-2.8286,2.8286-2.8286
				s2.8286,1.2665,2.8286,2.8286c0,8.5451,6.9527,15.4977,15.4964,15.4977c8.5465,0,15.4991-6.9527,15.4991-15.4977l0,0
				c0,0-0.1796-5.5549-3.4114-9.8489c-0.9392-1.2486-0.6906-3.0219,0.558-3.9611c1.2568-0.9419,3.0247-0.6864,3.9611,0.558
				c4.3644,5.7953,4.5439,12.8998,4.5495,13.1995C138.9178,132.2993,129.4266,141.7891,117.7615,141.7891z"/>
		</g>
	</g>
</g>
</svg>
