<?xml version="1.0" encoding="utf-8"?>
<!-- Generator: Adobe Illustrator 17.0.0, SVG Export Plug-In . SVG Version: 6.00 Build 0)  -->
<!DOCTYPE svg PUBLIC "-//W3C//DTD SVG 1.1//EN" "http://www.w3.org/Graphics/SVG/1.1/DTD/svg11.dtd">
<svg version="1.1" id="Layer_1" xmlns="http://www.w3.org/2000/svg" xmlns:xlink="http://www.w3.org/1999/xlink" x="0px" y="0px"
	  viewBox="0 0 200 200" enable-background="new 0 0 200 200" xml:space="preserve">
<g>
	<linearGradient id="SVGID_1_" gradientUnits="userSpaceOnUse" x1="1" y1="100" x2="199" y2="100">
		<stop  offset="0.0054" style="stop-color:#6007B8"/>
		<stop  offset="0.384" style="stop-color:#5F06B4"/>
		<stop  offset="0.7517" style="stop-color:#5D05A8"/>
		<stop  offset="1" style="stop-color:#5A039C"/>
	</linearGradient>
	<path fill="url(#SVGID_1_)" d="M101.5016,190.8833c-50.1128,0-90.882-40.7705-90.882-90.8833
		c0-6.3959,0.6751-12.7842,2.0099-19.0346C5.503,74.4429,1,64.0895,1,49.2501c0-27.563,27.839-37.2983,29.1486-37.699
		c0.503-0.1543,1.0137-0.2275,1.5167-0.2275c1.8175,0,3.5493,0.9594,4.4898,2.6001c1.2032,2.0971,0.7963,4.7464-0.9809,6.3845
		c-0.0836,0.0771-9.604,9.1313-6.8688,18.7933c0.4147,1.4714,1.0671,2.9666,1.9493,4.4745
		c17.1878-21.6991,43.325-34.4593,71.2468-34.4593c26.5037,0,51.7789,11.7376,68.9618,31.7189
		c0.5284-1.0593,0.9379-2.1095,1.2312-3.1486c2.7225-9.6128-6.7725-18.7035-6.8688-18.792
		c-1.7771-1.6381-2.1841-4.2874-0.9809-6.3845c0.9405-1.6407,2.6723-2.6001,4.4898-2.6001c0.5032,0,1.0137,0.0735,1.517,0.2275
		C171.161,10.5386,199,20.2739,199,47.8369c0,13.5274-3.3679,23.2982-9.4603,29.5941c1.891,7.3871,2.8491,14.9647,2.8491,22.5689
		C192.3888,150.1128,151.617,190.8833,101.5016,190.8833z"/>
	<radialGradient id="SVGID_2_" cx="111.5779" cy="-58.7718" r="246.2965" gradientUnits="userSpaceOnUse">
		<stop  offset="0.0207" style="stop-color:#FF5CFB"/>
		<stop  offset="0.1661" style="stop-color:#EB53F9"/>
		<stop  offset="0.5449" style="stop-color:#BB3FF4"/>
		<stop  offset="0.8351" style="stop-color:#9E32F1"/>
		<stop  offset="1" style="stop-color:#932DF0"/>
	</radialGradient>
	<path fill="url(#SVGID_2_)" d="M193.8226,47.8369c0-24.0502-25.4879-32.7492-25.4879-32.7492s12.0055,11.0664,8.3426,24.0098
		c-1.1124,3.9286-3.3345,7.4603-5.8828,10.485c-15.5852-21.3818-40.8096-35.2884-69.2929-35.2884
		c-29.6586,0-55.7932,15.0669-71.1811,37.9618c-3.0034-3.2863-5.7259-7.2527-6.9977-11.7451
		c-3.663-12.9434,8.3426-24.0098,8.3426-24.0098S6.1774,25.1999,6.1774,49.2501c0,14.7612,5.6102,24.4991,12.2007,29.8356
		c-1.6788,6.6954-2.5812,13.698-2.5812,20.9143c0,47.3346,38.3703,85.7059,85.7047,85.7059
		c47.3321,0,85.7098-38.3713,85.7098-85.7059c0-8.3892-1.2286-16.4876-3.4735-24.1501
		C189.8987,70.2376,193.8226,61.0535,193.8226,47.8369z"/>
	<g>
		<radialGradient id="SVGID_3_" cx="105.0881" cy="135.8554" r="96.133" gradientUnits="userSpaceOnUse">
			<stop  offset="0" style="stop-color:#A158F1;stop-opacity:0.5"/>
			<stop  offset="0.1258" style="stop-color:#AB5AEF;stop-opacity:0.4425"/>
			<stop  offset="0.3361" style="stop-color:#C461EB;stop-opacity:0.3463"/>
			<stop  offset="0.6035" style="stop-color:#EE6BE4;stop-opacity:0.224"/>
			<stop  offset="0.6559" style="stop-color:#F76DE3;stop-opacity:0.2"/>
			<stop  offset="0.6922" style="stop-color:#F76FD9;stop-opacity:0.1779"/>
			<stop  offset="0.7541" style="stop-color:#F975BE;stop-opacity:0.1401"/>
			<stop  offset="0.8342" style="stop-color:#FB7E92;stop-opacity:0.0913"/>
			<stop  offset="0.9282" style="stop-color:#FD8A55;stop-opacity:0.0339"/>
			<stop  offset="0.9839" style="stop-color:#FF922E;stop-opacity:0"/>
		</radialGradient>
		<path fill="url(#SVGID_3_)" d="M160.288,135.7588c-14.5233,15.5005-37.9833-6.837-58.7484-5.0257
			c-18.3939,1.6052-30.9936,13.4425-43.9497,9.1815c-14.4855-4.7627-15.1021-14.412-15.1021-22.8545
			c0-13.2986,24.1677-34.4834,59.0518-34.4834C136.1962,82.5769,181.4399,113.1837,160.288,135.7588z"/>
		<g>
			<linearGradient id="SVGID_4_" gradientUnits="userSpaceOnUse" x1="24.1951" y1="104.6105" x2="97.5967" y2="104.6105">
				<stop  offset="0.0054" style="stop-color:#6007B8"/>
				<stop  offset="0.384" style="stop-color:#5F06B4"/>
				<stop  offset="0.7517" style="stop-color:#5D05A8"/>
				<stop  offset="1" style="stop-color:#5A039C"/>
			</linearGradient>
			<path fill="url(#SVGID_4_)" d="M59.2384,135.3177c-5.4352,0-10.6152-1.2211-15.3931-3.6291
				C25.148,122.273,18.646,97.3088,29.3546,76.0407c0.4626-0.92,1.2742-1.6192,2.2501-1.9415
				c0.3968-0.1315,0.809-0.196,1.2185-0.196c0.6016,0,1.2006,0.1393,1.7468,0.4147l60.8898,30.6674
				c1.9161,0.9643,2.6847,3.299,1.7215,5.2152c-7.6853,15.258-22.5777,25.1172-37.9406,25.1172H59.2384z"/>
			<path fill="#FFFFFF" d="M32.8232,77.7862c-9.7606,19.3861-4.0448,41.9678,12.769,50.4354
				c16.8112,8.4699,38.3576-0.3805,48.1206-19.768L32.8232,77.7862z"/>
		</g>
		<g>
			<linearGradient id="SVGID_5_" gradientUnits="userSpaceOnUse" x1="105.6115" y1="104.6105" x2="179.0137" y2="104.6105">
				<stop  offset="0.0054" style="stop-color:#6007B8"/>
				<stop  offset="0.384" style="stop-color:#5F06B4"/>
				<stop  offset="0.7517" style="stop-color:#5D05A8"/>
				<stop  offset="1" style="stop-color:#5A039C"/>
			</linearGradient>
			<path fill="url(#SVGID_5_)" d="M143.9697,135.3177c-15.3651,0-30.2579-9.8593-37.9429-25.1172
				c-0.9632-1.9161-0.1947-4.2509,1.7215-5.2152l60.8898-30.6674c0.546-0.2754,1.1452-0.4147,1.7468-0.4147
				c0.4095,0,0.8217,0.0645,1.2185,0.196c0.9759,0.3223,1.7872,1.0215,2.2501,1.9415c10.7086,21.2671,4.209,46.2311-14.4881,55.6492
				C154.5849,134.0966,149.4049,135.3177,143.9697,135.3177z"/>
			<path fill="#FFFFFF" d="M170.3849,77.7862c9.7607,19.3861,4.0448,41.9678-12.7664,50.4354
				c-16.8138,8.4699-38.3602-0.3805-48.1234-19.768L170.3849,77.7862z"/>
		</g>
	</g>
	<circle fill="#2D2D2D" cx="63.3337" cy="101.2589" r="7.809"/>
	<circle fill="#2D2D2D" cx="140.5317" cy="101.2589" r="7.809"/>
	<polygon fill="#FFFFFF" points="75.6248,152.805 82.6174,169.8945 89.6073,153.7152 	"/>
	<polygon fill="#FFFFFF" points="109.2601,152.805 116.2527,169.8945 123.2426,153.7152 	"/>
	<g>
		<linearGradient id="SVGID_6_" gradientUnits="userSpaceOnUse" x1="63.5737" y1="147.8696" x2="135.1914" y2="147.8696">
			<stop  offset="0.0054" style="stop-color:#6007B8"/>
			<stop  offset="0.384" style="stop-color:#5F06B4"/>
			<stop  offset="0.7517" style="stop-color:#5D05A8"/>
			<stop  offset="1" style="stop-color:#5A039C"/>
		</linearGradient>
		<path fill="url(#SVGID_6_)" d="M111.3861,157.425c-1.0552,0-1.7292-0.0401-1.848-0.047l-22.9904,0.0055
			c-8.3062,0-14.56-2.0786-18.5929-6.1765c-4.4169-4.4901-4.3837-9.766-4.381-9.9884c0.0249-1.5469,1.2872-2.783,2.8286-2.783
			c0.0138,0,0.0304,0,0.047,0c1.5524,0.0249,2.7927,1.2983,2.7816,2.8479c0.011,1.098,0.5911,10.4428,17.3167,10.4428h23.1755
			c3.4252,0.2113,12.8087-0.1754,17.2504-4.3492c1.7237-1.6173,2.5606-3.6573,2.5606-6.2345c0-1.5621,1.2651-2.8286,2.8286-2.8286
			c1.5635,0,2.8286,1.2665,2.8286,2.8286c0,4.1724-1.4668,7.6612-4.3561,10.3696
			C125.1588,156.8311,115.4439,157.425,111.3861,157.425z"/>
	</g>
</g>
</svg>
