<?xml version="1.0" encoding="utf-8"?>
<!-- Generator: Adobe Illustrator 17.0.0, SVG Export Plug-In . SVG Version: 6.00 Build 0)  -->
<!DOCTYPE svg PUBLIC "-//W3C//DTD SVG 1.1//EN" "http://www.w3.org/Graphics/SVG/1.1/DTD/svg11.dtd">
<svg version="1.1" id="Layer_1" xmlns="http://www.w3.org/2000/svg" xmlns:xlink="http://www.w3.org/1999/xlink" x="0px" y="0px" viewBox="0 0 200 200" enable-background="new 0 0 200 200" xml:space="preserve">
<g>
	<g>
		<g>
			<g>
				<path fill="#E4A024" d="M99.9974,198.9975C45.4105,198.9975,1,154.5867,1,100.0001C1,45.4133,45.4105,1.0025,99.9974,1.0025
					C154.5867,1.0025,199,45.4133,199,100.0001C199,154.5867,154.5867,198.9975,99.9974,198.9975z"/>
				<path fill="#E4A024" d="M99.9974,197.6074c-53.8239,0-97.6072-43.7861-97.6072-97.6072S46.1735,2.3926,99.9974,2.3926
					c53.8211,0,97.6125,43.7864,97.6125,97.6075S153.8185,197.6074,99.9974,197.6074z"/>
				<radialGradient id="SVGID_1_" cx="103.7957" cy="-9.3539" r="204.2369" gradientUnits="userSpaceOnUse">
					<stop  offset="0" style="stop-color:#FFF7C2"/>
					<stop  offset="0.3321" style="stop-color:#FFEB8F"/>
					<stop  offset="1" style="stop-color:#FED01F"/>
				</radialGradient>
				<path fill="url(#SVGID_1_)" d="M192.0494,100.0001c0,50.8371-41.2174,92.0467-92.052,92.0467S7.9506,150.8372,7.9506,100.0001
					c0-50.8374,41.2122-92.047,92.0467-92.047S192.0494,49.1628,192.0494,100.0001z"/>
				<g>
					<defs>
						<path id="SVGID_2_" d="M192.0494,100.0001c0,50.8371-41.2174,92.0467-92.052,92.0467S7.9506,150.8372,7.9506,100.0001
							c0-50.8374,41.2122-92.047,92.0467-92.047S192.0494,49.1628,192.0494,100.0001z"/>
					</defs>
					<clipPath id="SVGID_3_">
						<use xlink:href="#SVGID_2_"  overflow="visible"/>
					</clipPath>
				</g>
			</g>
		</g>
	</g>
	<g>
		<path fill="#6D2F16" d="M77.3862,82.0167c0,5.4409-3.8581,9.8557-8.6232,9.8557c-4.7595,0-8.6204-4.4148-8.6204-9.8557
			s3.8609-9.8532,8.6204-9.8532C73.528,72.1635,77.3862,76.5757,77.3862,82.0167z"/>
		<g>
			<path fill="#823308" d="M76.1561,77.8162H32.4596c-2.3424,0-4.2429-1.8991-4.2429-4.2429c0-2.3438,1.9004-4.2429,4.2429-4.2429
				h43.6965c2.3424,0,4.2429,1.8991,4.2429,4.2429C80.3989,75.9171,78.4985,77.8162,76.1561,77.8162z"/>
		</g>
	</g>
	<g>
		<path fill="#6D2F16" d="M165.838,82.0167c0,5.4409-3.8581,9.8557-8.6176,9.8557c-4.7623,0-8.6257-4.4148-8.6257-9.8557
			s3.8634-9.8532,8.6257-9.8532C161.9799,72.1635,165.838,76.5757,165.838,82.0167z"/>
		<g>
			<path fill="#823308" d="M164.6069,77.8162h-43.6965c-2.3424,0-4.2429-1.8991-4.2429-4.2429c0-2.3438,1.9005-4.2429,4.2429-4.2429
				h43.6965c2.3424,0,4.2429,1.8991,4.2429,4.2429C168.8498,75.9171,166.9493,77.8162,164.6069,77.8162z"/>
		</g>
	</g>
	<g>
		<path fill="#A04E17" d="M116.7603,164.9203c0,0-11.7265-11.121-15.6364-11.121c-3.9096,0-15.6414,11.121-15.6414,11.121
			c-1.1566,0-2.1967-0.722-2.6012-1.8083c-0.4073-1.086-0.0951-2.3132,0.7821-3.0733l15.6389-13.5537
			c1.0479-0.9041,2.5956-0.9041,3.6435,0l15.6389,13.5537c0.8744,0.7601,1.1894,1.9873,0.7821,3.0733
			C118.9623,164.1983,117.9222,164.9203,116.7603,164.9203z"/>
	</g>
	<g>
		<path fill="#823308" d="M69.6343,38.5766c-0.0856,0-0.1713-0.0041-0.2597-0.0111c-1.5524-0.1423-2.6987-1.5151-2.5606-3.0689
			c0.1547-1.8217-0.0221-7.1667-2.6628-10.045c-1.3397-1.4585-3.1849-2.167-5.6406-2.167c-9.505,0-9.679,11.962-9.6818,12.4703
			c-0.0083,1.5565-1.2734,2.8175-2.8286,2.8175c-0.0028,0-0.0055,0-0.0083,0c-1.5579-0.0041-2.8203-1.2651-2.8203-2.8244
			c0-6.2676,3.207-18.1205,15.3389-18.1205c4.0854,0,7.3919,1.3535,9.8282,4.0233c4.8671,5.3298,4.1434,13.9868,4.1103,14.3528
			C72.3137,37.4731,71.0817,38.5766,69.6343,38.5766z"/>
	</g>
	<g>
		<path fill="#823308" d="M149.1465,36.7867c-0.0856,0-0.1713-0.0041-0.2597-0.0111c-1.5524-0.1423-2.6987-1.5151-2.5606-3.0689
			c0.1547-1.8217-0.0221-7.1667-2.6628-10.045c-1.3397-1.4585-3.1849-2.167-5.6406-2.167c-9.5078,0-9.6818,11.962-9.6845,12.4703
			c-0.0083,1.5565-1.2734,2.8175-2.8286,2.8175c-0.0028,0-0.0055,0-0.0083,0c-1.5579-0.0041-2.8203-1.2651-2.8203-2.8244
			c0-6.2676,3.207-18.1205,15.3417-18.1205c4.0854,0,7.3918,1.3535,9.8282,4.0233c4.8671,5.3298,4.1434,13.9868,4.1103,14.3528
			C151.8259,35.6832,150.5939,36.7867,149.1465,36.7867z"/>
	</g>
</g>
</svg>
