<?xml version="1.0" encoding="utf-8"?>
<!-- Generator: Adobe Illustrator 17.0.0, SVG Export Plug-In . SVG Version: 6.00 Build 0)  -->
<!DOCTYPE svg PUBLIC "-//W3C//DTD SVG 1.1//EN" "http://www.w3.org/Graphics/SVG/1.1/DTD/svg11.dtd">
<svg version="1.1" id="Layer_1" xmlns="http://www.w3.org/2000/svg" xmlns:xlink="http://www.w3.org/1999/xlink" x="0px" y="0px" viewBox="0 0 200 200" enable-background="new 0 0 200 200" xml:space="preserve">
<g>
	<g>
		<g>
			<g>
				<path fill="#E4A024" d="M99.9975,198.9974C45.4108,198.9974,1,154.5866,1,100.0001C1,45.4134,45.4108,1.0026,99.9975,1.0026
					S199,45.4134,199,100.0001C199,154.5866,154.5842,198.9974,99.9975,198.9974z"/>
				<path fill="#E4A024" d="M99.9975,197.6072c-53.8238,0-97.6074-43.786-97.6074-97.6071S46.1737,2.3928,99.9975,2.3928
					c53.8236,0,97.6124,43.7863,97.6124,97.6074S153.8211,197.6072,99.9975,197.6072z"/>
				<radialGradient id="SVGID_1_" cx="103.7957" cy="-9.3538" r="204.2367" gradientUnits="userSpaceOnUse">
					<stop  offset="0" style="stop-color:#FFF7C2"/>
					<stop  offset="0.3321" style="stop-color:#FFEB8F"/>
					<stop  offset="1" style="stop-color:#FED01F"/>
				</radialGradient>
				<path fill="url(#SVGID_1_)" d="M192.0494,100.0001c0,50.837-41.2177,92.0466-92.0519,92.0466
					c-50.8373,0-92.0469-41.2096-92.0469-92.0466c0-50.8373,41.2096-92.0469,92.0469-92.0469
					C150.8317,7.9532,192.0494,49.1628,192.0494,100.0001z"/>
				<g>
					<defs>
						<path id="SVGID_2_" d="M192.0494,100.0001c0,50.837-41.2177,92.0466-92.0519,92.0466
							c-50.8373,0-92.0469-41.2096-92.0469-92.0466c0-50.8373,41.2096-92.0469,92.0469-92.0469
							C150.8317,7.9532,192.0494,49.1628,192.0494,100.0001z"/>
					</defs>
					<clipPath id="SVGID_3_">
						<use xlink:href="#SVGID_2_"  overflow="visible"/>
					</clipPath>
				</g>
			</g>
		</g>
	</g>
	<g>
		<g>
			<g>
				<g>
					<path fill-rule="evenodd" clip-rule="evenodd" fill="#2D2D2D" d="M190.2222,40.6728
						c-0.5538,3.9096-0.5266,8.9474-0.8633,12.3209c-1.8736,2.054-3.6029,2.5998-4.8004,4.879
						c-3.4183,6.5108-2.3107,16.0462-4.8112,23.2562c-4.4147,12.7174-15.4623,19.6841-33.8189,18.6268
						c-19.755-1.1471-29.3827-11.0776-35.1712-27.0381c-1.917-5.2836-3.9015-18.3607-13.4995-14.0956
						c-2.6418,1.1785-4.3469,6.9142-5.6392,10.6255c-4.5315,12.9429-9.3208,22.2-21.4382,27.25
						c-13.4344,5.5944-34.1639,3.6571-42.5263-4.936c-4.0238-4.1459-6.0412-9.6305-7.2956-14.9438
						c-1.7946-7.5698-0.972-20.3592-8.4222-23.5492c-0.3203-3.3124-0.771-9.0344-0.828-12.6117
						c19.5215-3.3191,43.0176-3.0855,63.3617,1.4799c8.1778,1.8422,15.8724,5.6433,23.9307,6.3531
						c8.6749,0.7685,16.0462-3.0558,23.9443-5.1423C143.3707,37.6087,166.4003,36.5077,190.2222,40.6728z"/>
					<path fill-rule="evenodd" clip-rule="evenodd" fill="#2D2D2D" d="M149.4283,97.0025c-1.1296,0-2.3079-0.0378-3.4861-0.1031
						c-9.4703-0.5458-16.8797-3.1306-22.6548-7.8967c-5.1668-4.2696-9.1715-10.464-12.2531-18.9474
						c-0.2825-0.7832-0.573-1.7618-0.8852-2.7991c-1.5447-5.2007-3.676-12.3223-9.3508-12.3307
						c-1.1321,0-2.3538,0.2933-3.6463,0.8649c-2.4925,1.1063-4.105,5.8129-5.3895,9.6005c-0.1437,0.414-0.2903,0.8174-0.4154,1.1975
						c-4.8382,13.8236-9.6602,22.2311-21.2725,27.076C65.19,95.698,59.0351,96.814,52.7359,96.8084
						c-10.5371-0.015-20.067-3.0869-24.8701-8.0096c-3.3613-3.4645-5.6581-8.1656-7.2195-14.8054
						c-0.456-1.9275-0.7465-4.1879-1.0426-6.5758c-0.8633-6.8489-1.8433-14.5991-7.3904-17.1132
						c-0.084-0.8021-0.1654-1.5978-0.2577-2.3918c-0.2416-2.2943-0.4996-4.6672-0.5538-7.21
						c14.3166-2.4205,26.6864-3.5907,37.8127-3.5798c9.2504,0.015,17.7296,0.8674,25.196,2.5442
						c3.242,0.7304,6.4538,1.7824,9.5571,2.8033c4.6783,1.5353,9.5301,3.1194,14.4092,3.5568
						c0.7521,0.0651,1.523,0.1004,2.2915,0.1004v0.0028c5.4273,0.0039,10.4476-1.6604,15.2994-3.2662
						c2.1041-0.6951,4.2791-1.4118,6.4566-1.9862c9.2718-2.4449,19.1928-3.6274,30.3411-3.6124
						c10.9361,0.0175,23.0863,1.2083,37.126,3.6491c-0.3097,2.2806-0.4237,4.0984-0.5405,5.8619
						c-0.0759,1.116-0.1493,2.2684-0.2714,3.5256c-0.6951,0.7521-1.3656,1.2923-2.0065,1.8094
						c-1.0345,0.8349-2.0065,1.6198-2.7638,3.0641c-1.925,3.6721-2.4411,8.3435-2.9379,12.8628
						c-0.3881,3.5701-0.801,7.2653-1.895,10.4312C175.2025,90.7864,165.0913,97.0189,149.4283,97.0025z M150.5523,41.6787
						c-1.1241,0-2.2862,0.0297-3.44,0.0829c-11.7754,0.5566-23.7027,1.6779-28.9156,8.5837
						c-2.8536,3.7847-3.5323,8.9693-2.0771,15.8546c2.6362,12.4691,7.6212,19.8893,16.1738,24.0611
						c5.0581,2.4641,10.6158,3.7658,16.0868,3.7714c10.2819,0.0175,19.4781-4.4217,24.0041-11.5825
						c4.8546-7.6715,8.061-24.6966,2.5631-32.4902C171.2546,44.7156,162.3656,41.6976,150.5523,41.6787z"/>
					
						<radialGradient id="SVGID_4_" cx="66.2347" cy="51.3832" r="31.1307" gradientTransform="matrix(0.9807 0.0012 -0.0012 1 -10.2789 16.2486)" gradientUnits="userSpaceOnUse">
						<stop  offset="0" style="stop-color:#696768"/>
						<stop  offset="0.3184" style="stop-color:#636162"/>
						<stop  offset="0.7583" style="stop-color:#515050"/>
						<stop  offset="1" style="stop-color:#444444"/>
					</radialGradient>
					<path fill-rule="evenodd" clip-rule="evenodd" fill="url(#SVGID_4_)" d="M49.3151,40.0036
						c15.9836-0.7562,34.6254,2.4666,38.1333,13.3201c1.5422,4.7784-0.03,10.3253-0.9314,14.197
						c-2.6037,11.2961-6.6845,18.969-16.0731,23.753c-15.9647,8.1356-35.6082,4.1159-43.2839-8.0827
						c-4.2571-6.7743-8.5306-22.5408-4.1948-32.1087C26.6794,42.8895,36.3152,40.613,49.3151,40.0036z"/>
					
						<radialGradient id="SVGID_5_" cx="160.0452" cy="51.4166" r="31.2137" gradientTransform="matrix(0.9807 0.0012 -0.0012 1 -10.2789 16.2486)" gradientUnits="userSpaceOnUse">
						<stop  offset="0" style="stop-color:#696768"/>
						<stop  offset="0.3184" style="stop-color:#636162"/>
						<stop  offset="0.7583" style="stop-color:#515050"/>
						<stop  offset="1" style="stop-color:#444444"/>
					</radialGradient>
					<path fill-rule="evenodd" clip-rule="evenodd" fill="url(#SVGID_5_)" d="M147.1746,39.9613
						c12.8911-0.6122,25.0711,1.9806,29.8226,8.7319c6.0493,8.5754,2.2398,26.833-2.783,34.7719
						c-7.2331,11.4482-26.0267,16.5811-42.9445,8.3299c-9.8774-4.8193-14.7564-13.6474-17.3276-25.7987
						C109.2232,43.7177,126.2305,40.9497,147.1746,39.9613z"/>
					
						<linearGradient id="SVGID_6_" gradientUnits="userSpaceOnUse" x1="66.9917" y1="26.9981" x2="66.9917" y2="53.0164" gradientTransform="matrix(0.9807 0.0012 -0.0012 1 -10.2789 16.2486)">
						<stop  offset="0" style="stop-color:#FFFFFF"/>
						<stop  offset="0.3264" style="stop-color:#A4A5A5"/>
						<stop  offset="0.6151" style="stop-color:#5B5C5C"/>
						<stop  offset="0.8205" style="stop-color:#2D2F2F"/>
						<stop  offset="0.9235" style="stop-color:#1C1E1E"/>
					</linearGradient>
					<path opacity="0.5" fill-rule="evenodd" clip-rule="evenodd" fill="url(#SVGID_6_)" d="M49.6843,41.9367
						c14.8596-0.7073,32.2063,2.2968,35.467,12.3902c1.4418,4.4434-0.0245,9.6074-0.858,13.2075
						c-2.4272,10.5102-63.1499-6.3898-59.1155-15.2927C28.6342,44.6233,37.5913,42.5069,49.6843,41.9367z"/>
					
						<linearGradient id="SVGID_7_" gradientUnits="userSpaceOnUse" x1="158.7587" y1="26.9367" x2="158.7587" y2="51.7015" gradientTransform="matrix(0.9807 0.0012 -0.0012 1 -10.2789 16.2486)">
						<stop  offset="0" style="stop-color:#FFFFFF"/>
						<stop  offset="0.3264" style="stop-color:#A4A5A5"/>
						<stop  offset="0.6151" style="stop-color:#5B5C5C"/>
						<stop  offset="0.8205" style="stop-color:#2D2F2F"/>
						<stop  offset="0.9235" style="stop-color:#1C1E1E"/>
					</linearGradient>
					<path opacity="0.5" fill-rule="evenodd" clip-rule="evenodd" fill="url(#SVGID_7_)" d="M147.1204,42.056
						c11.93-0.5605,23.2059,1.8355,27.5906,8.0788c5.593,7.9281-55.9307,27.2392-58.3117,16.0028
						C112.0415,45.5341,127.7646,42.9685,147.1204,42.056z"/>
				</g>
			</g>
		</g>
	</g>
	<g>
		<radialGradient id="SVGID_8_" cx="99.9984" cy="145.8062" r="58.8289" gradientUnits="userSpaceOnUse">
			<stop  offset="0.0054" style="stop-color:#A34E1F"/>
			<stop  offset="0.3187" style="stop-color:#9E491D"/>
			<stop  offset="0.6963" style="stop-color:#8F3A15"/>
			<stop  offset="1" style="stop-color:#7E290D"/>
		</radialGradient>
		<path fill="url(#SVGID_8_)" d="M173.2285,111.1725c0.1465-2.7652-0.972-4.8273-3.7414-4.8273H31.3519
			c-2.7747,0-4.1323,0.7451-4.4742,4.2029c-1.7023,17.3765,14.0233,74.719,71.5885,74.719
			C155.9171,185.2671,172.1859,130.3573,173.2285,111.1725z"/>
		<path fill="#FFFFFF" d="M164.6951,111.2865l-129.6914-0.0081c-3.1278,0-4.3931,0.3528-4.1812,4.8329
			c0.1818,3.8445,2.3568,10.8794,5.6283,12.0902c12.6579,4.6864,110.2566,7.0971,124.6739,0.6786
			c6.3831-2.8397,6.9614-8.5932,7.7324-12.3643C169.7316,112.2368,167.8254,111.2865,164.6951,111.2865z"/>
		<linearGradient id="SVGID_9_" gradientUnits="userSpaceOnUse" x1="101.5244" y1="110.3695" x2="95.0378" y2="236.8753">
			<stop  offset="0" style="stop-color:#FFB18E"/>
			<stop  offset="1" style="stop-color:#FF6659"/>
		</linearGradient>
		<path fill="url(#SVGID_9_)" d="M135.2907,170.0139c-5.6447-14.8651-20.8246-22.5733-37.0392-22.5733
			c-16.2116,0-32.7493,11.2839-36.61,22.5733c0,0,14.0016,11.5444,36.4907,11.5444
			C124.9435,181.5583,135.2907,170.0139,135.2907,170.0139z"/>
	</g>
</g>
</svg>
