<?xml version="1.0" encoding="utf-8"?>
<!-- Generator: Adobe Illustrator 17.0.0, SVG Export Plug-In . SVG Version: 6.00 Build 0)  -->
<!DOCTYPE svg PUBLIC "-//W3C//DTD SVG 1.1//EN" "http://www.w3.org/Graphics/SVG/1.1/DTD/svg11.dtd">
<svg version="1.1" id="Layer_1" xmlns="http://www.w3.org/2000/svg" xmlns:xlink="http://www.w3.org/1999/xlink" x="0px" y="0px" viewBox="0 0 200 200" enable-background="new 0 0 200 200" xml:space="preserve">
<g>
	<path fill="#727171" d="M100.4052,198.8755c-25.1206,0-45.5862-9.8436-50.3342-23.5238
		c-29.725-12.8002-46.0377-37.2578-46.0377-69.251c0-50.6026,36.8487-105.2252,96.3719-105.2252
		c60.3217,0,96.369,53.5054,96.369,105.2252c0,31.9848-16.3069,56.4479-46.029,69.251
		C145.9971,189.0319,125.5342,198.8755,100.4052,198.8755z"/>
	<radialGradient id="SVGID_1_" cx="100.4038" cy="99.8741" r="121.9891" gradientUnits="userSpaceOnUse">
		<stop  offset="0.069" style="stop-color:#E2E6EF"/>
		<stop  offset="0.325" style="stop-color:#DFE3EB"/>
		<stop  offset="0.5613" style="stop-color:#D6D9E0"/>
		<stop  offset="0.789" style="stop-color:#C8CACE"/>
		<stop  offset="1" style="stop-color:#B5B5B5"/>
	</radialGradient>
	<path fill="url(#SVGID_1_)" d="M189.8282,106.1007c0-48.3651-33.7225-98.33-89.423-98.33c-54.7665,0-89.4259,49.965-89.4259,98.33
		c0,32.5545,18.1379,53.8044,45.0474,64.2319c1.1481,12.0523,20.5473,21.6449,44.3786,21.6449
		c23.837,0,43.2389-9.5926,44.3843-21.6449C171.6903,159.8994,189.8282,138.6552,189.8282,106.1007z"/>
	<g>
		
			<radialGradient id="SVGID_2_" cx="198.7989" cy="1190.875" r="173.591" gradientTransform="matrix(0.965 0.2604 -0.2623 0.9581 202.2156 -1156.8625)" gradientUnits="userSpaceOnUse">
			<stop  offset="0" style="stop-color:#696768"/>
			<stop  offset="0.3184" style="stop-color:#636162"/>
			<stop  offset="0.7583" style="stop-color:#515050"/>
			<stop  offset="1" style="stop-color:#444444"/>
		</radialGradient>
		<path fill="url(#SVGID_2_)" d="M27.4838,91.2493c-5.1825,18.9451,3.3376,37.7348,19.0352,41.9723
			c15.7002,4.2376,32.6279-7.6882,37.8133-26.6301C89.5152,87.6522,80.9976,68.8625,65.3,64.625
			C49.5998,60.3874,32.6721,72.3074,27.4838,91.2493z"/>
		<path fill="#333333" d="M52.9768,139.8544c-2.6914,0-5.3689-0.3556-7.9615-1.0553c-8.0972-2.1835-15.012-7.6766-19.4697-15.4604
			c-5.5185-9.6377-6.8417-21.8875-3.6338-33.6128c5.1178-18.6854,20.3018-31.7338,36.9276-31.7338
			c2.6917,0,5.3718,0.3556,7.9672,1.0553c8.0944,2.1835,15.0091,7.6766,19.464,15.4604c5.5185,9.6348,6.8417,21.8846,3.6338,33.6099
			c-5.1149,18.6854-20.2989,31.7366-36.9218,31.7366H52.9768z"/>
		
			<radialGradient id="SVGID_3_" cx="198.7989" cy="1190.8754" r="173.5894" gradientTransform="matrix(0.965 0.2604 -0.2623 0.9581 202.2156 -1156.8625)" gradientUnits="userSpaceOnUse">
			<stop  offset="0" style="stop-color:#807D7E"/>
			<stop  offset="0.3364" style="stop-color:#7A7778"/>
			<stop  offset="0.8011" style="stop-color:#686767"/>
			<stop  offset="1" style="stop-color:#5E5E5E"/>
		</radialGradient>
		<path fill="url(#SVGID_3_)" d="M27.4838,91.2493c-5.1825,18.9451,3.3376,37.7348,19.0378,41.9723
			c15.6976,4.2376,32.6253-7.6882,37.8107-26.6301C89.5152,87.6522,80.9976,68.8625,65.3,64.625
			C49.5998,60.3874,32.6721,72.3074,27.4838,91.2493z"/>
		<path fill="#333333" d="M146.9563,139.8544c-16.6287,0-31.8126-13.0513-36.9276-31.7366
			c-3.2108-11.7223-1.8877-23.9722,3.628-33.6099c4.4577-7.7838,11.3725-13.2769,19.4697-15.4604
			c2.5955-0.6997,5.2759-1.0553,7.9672-1.0553c16.6258,0,31.8097,13.0484,36.9247,31.7309
			c3.2134,11.7252,1.8903,23.978-3.628,33.6156c-4.4577,7.7838-11.3725,13.2769-19.4697,15.4604
			C152.3281,139.4988,149.6477,139.8544,146.9563,139.8544z"/>
		
			<radialGradient id="SVGID_4_" cx="8631.1729" cy="-1100.9419" r="173.5907" gradientTransform="matrix(-0.965 0.2604 0.2623 0.9581 8736.1006 -1156.8625)" gradientUnits="userSpaceOnUse">
			<stop  offset="0" style="stop-color:#807D7E"/>
			<stop  offset="0.3364" style="stop-color:#7A7778"/>
			<stop  offset="0.8011" style="stop-color:#686767"/>
			<stop  offset="1" style="stop-color:#5E5E5E"/>
		</radialGradient>
		<path fill="url(#SVGID_4_)" d="M172.4464,91.2493c5.1883,18.9451-3.329,37.7348-19.0323,41.9723
			c-15.7002,4.2376-32.6279-7.6882-37.8133-26.6301c-5.1854-18.9393,3.3319-37.729,19.0323-41.9665
			C150.3332,60.3874,167.2609,72.3074,172.4464,91.2493z"/>
	</g>
	<path fill="#333333" d="M100.4052,148.5468c-6.1813,0-11.2174-4.9965-11.2174-11.1385c0-5.6708,4.4773-14.2389,11.2174-14.2389
		c6.7484,0,11.2231,8.5682,11.2231,14.2389C111.6283,143.5503,106.5952,148.5468,100.4052,148.5468z"/>
	
		<radialGradient id="SVGID_5_" cx="102.4223" cy="119.4883" r="42.5718" gradientTransform="matrix(1 0 0 0.9928 0 0.6622)" gradientUnits="userSpaceOnUse">
		<stop  offset="0" style="stop-color:#807D7E"/>
		<stop  offset="0.3364" style="stop-color:#7A7778"/>
		<stop  offset="0.8011" style="stop-color:#686767"/>
		<stop  offset="1" style="stop-color:#5E5E5E"/>
	</radialGradient>
	<path fill="url(#SVGID_5_)" d="M107.6248,137.4083c0,3.9582-3.2302,7.1632-7.2196,7.1632c-3.9865,0-7.2167-3.205-7.2167-7.1632
		c0-3.9611,3.2302-10.2695,7.2167-10.2695C104.3946,127.1388,107.6248,133.4472,107.6248,137.4083z"/>
	<g>
		<path fill="#727171" d="M83.9091,194.5305c-1.9408,0-3.5124-1.5713-3.5124-3.5095v-21.3993c0-1.9411,1.5716-3.5153,3.5124-3.5153
			c1.9382,0,3.5098,1.5742,3.5098,3.5153v21.3993C87.4189,192.9592,85.8473,194.5305,83.9091,194.5305z"/>
	</g>
	<g>
		<path fill="#727171" d="M117.2792,194.5305c-1.9437,0-3.5124-1.5713-3.5124-3.5095v-21.3993c0-1.9411,1.5687-3.5153,3.5124-3.5153
			c1.9353,0,3.5098,1.5742,3.5098,3.5153v21.3993C120.789,192.9592,119.2145,194.5305,117.2792,194.5305z"/>
	</g>
</g>
</svg>
