<?xml version="1.0" encoding="utf-8"?>
<!-- Generator: Adobe Illustrator 17.0.0, SVG Export Plug-In . SVG Version: 6.00 Build 0)  -->
<!DOCTYPE svg PUBLIC "-//W3C//DTD SVG 1.1//EN" "http://www.w3.org/Graphics/SVG/1.1/DTD/svg11.dtd">
<svg version="1.1" id="Layer_1" xmlns="http://www.w3.org/2000/svg" xmlns:xlink="http://www.w3.org/1999/xlink" x="0px" y="0px" viewBox="0 0 200 200" enable-background="new 0 0 200 200" xml:space="preserve">
<g>
	<g>
		<g>
			<g>
				<g>
					<g>
						<g>
							<g>
								<g>
									<path fill="#FF9700" d="M154.9056,166.8148c-0.8036,0-1.4589-0.6466-1.4642-1.4504
										c-0.0496-6.1712-0.0716-12.3394-0.0908-18.5078c0-0.3881,0.1514-0.7624,0.4265-1.0378
										c0.2697-0.2751,0.6469-0.4293,1.035-0.4293h7.085c7.2942,0,13.2258-5.9373,13.2258-13.2315v-21.9896
										c0-7.2942-5.9317-13.2258-13.2258-13.2258h-6.7189v0.2368c0,0.7926-0.6249,1.4394-1.4175,1.4642c0,0-0.0276,0-0.0443,0
										c-0.7706,0-1.4146-0.6054-1.4561-1.3817c-0.3935-6.95-0.9439-13.7242-1.6266-20.1262
										c-0.0468-0.4129,0.0879-0.823,0.3633-1.1314c0.2779-0.3112,0.677-0.4873,1.0899-0.4873h9.81
										c19.1079,0,34.654,15.5464,34.654,34.6514v21.9896c0,19.1079-15.5461,34.6568-34.654,34.6568H154.9056z"/>
								</g>
							</g>
						</g>
					</g>
				</g>
			</g>
		</g>
		<path fill="#FF9700" d="M93.0624,199c-16.0086,0-30.9766-2.5793-42.1545-7.2612c-13.2754-4.371-22.2706-16.7214-22.2706-30.6905
			V63.4171c0-3.2261,2.6232-5.8463,5.8491-5.8463h117.1495c3.2258,0,5.8491,2.6201,5.8491,5.8463v97.6312
			c0,13.9663-8.9898,26.3141-22.3698,30.7235C124.0556,196.4182,109.082,199,93.0624,199z"/>
		<path fill="#FFFFFF" d="M34.4864,63.4171v97.6312c0,11.7864,7.7702,21.7613,18.5216,25.2296
			c9.9805,4.2197,24.2056,6.8759,40.0544,6.8759c15.8544,0,30.0904-2.6618,40.0656-6.8812
			c10.7458-3.4682,18.5078-13.4434,18.5078-25.2242V63.4171H34.4864z"/>
		<radialGradient id="SVGID_1_" cx="96.1386" cy="43.8608" r="160.5119" gradientUnits="userSpaceOnUse">
			<stop  offset="0.0207" style="stop-color:#FFD600"/>
			<stop  offset="0.4274" style="stop-color:#FFA700"/>
			<stop  offset="0.7443" style="stop-color:#FF8A00"/>
			<stop  offset="0.9245" style="stop-color:#FF7F00"/>
		</radialGradient>
		<path fill="url(#SVGID_1_)" d="M42.7355,72.1617v84.469c0,10.1979,6.6473,18.8297,15.8463,21.8301
			c8.5355,3.6498,20.7015,5.9508,34.2605,5.9508c13.5587,0,25.736-2.3039,34.2687-5.9565
			c9.1905-3.0029,15.8325-11.6294,15.8325-21.8244v-84.469H42.7355z"/>
		<g>
			<defs>
				<path id="SVGID_2_" d="M42.7355,72.1617v84.469c0,10.1979,6.6473,18.8297,15.8463,21.8301
					c8.5355,3.6498,20.7015,5.9508,34.2605,5.9508c13.5587,0,25.736-2.3039,34.2687-5.9565
					c9.1905-3.0029,15.8325-11.6294,15.8325-21.8244v-84.469H42.7355z"/>
			</defs>
			<clipPath id="SVGID_3_">
				<use xlink:href="#SVGID_2_"  overflow="visible"/>
			</clipPath>
			<linearGradient id="SVGID_4_" gradientUnits="userSpaceOnUse" x1="52.683" y1="112.4583" x2="133.2875" y2="112.4583">
				<stop  offset="0.0376" style="stop-color:#F8FF63;stop-opacity:0.5"/>
				<stop  offset="0.3402" style="stop-color:#FAF848;stop-opacity:0.5632"/>
				<stop  offset="0.986" style="stop-color:#FFE505;stop-opacity:0.6982"/>
				<stop  offset="0.9946" style="stop-color:#FFE504;stop-opacity:0.7"/>
			</linearGradient>
			<path clip-path="url(#SVGID_3_)" fill="url(#SVGID_4_)" d="M133.2875,137.586c0,12.0505-18.04,21.8219-40.3021,21.8219
				c-22.2624,0-40.3024-9.7714-40.3024-21.8219c0-4.5224,0-67.6261,0-67.6261c7.2448-5.8051,26.3911-4.2665,40.3024-4.2665
				c13.911,0,33.0604-0.4735,40.3021,5.3288C133.2875,71.0222,133.2875,133.0664,133.2875,137.586z"/>
		</g>
		<path fill="#FFFFFF" d="M151.2009,58.9469c0,10.0936-26.1323,18.2767-58.3587,18.2767c-32.232,0-58.364-8.1831-58.364-18.2767
			c0-10.0905,26.132-18.2739,58.364-18.2739C125.0686,40.673,151.2009,48.8564,151.2009,58.9469z"/>
		<path fill="#FFFFFF" d="M161.8971,81.3635h-15.2104c0.3083,3.2425,0.5835,6.4847,0.8064,9.7328h14.404
			c10.52,0,19.0749,8.5546,19.0749,19.0721v21.9896c0,10.5203-8.5549,19.0777-19.0749,19.0777h-12.9175
			c0.0082,3.2425,0.0248,6.4903,0.0412,9.7328h12.8763c15.8846,0,28.8077-12.9229,28.8077-28.8105v-21.9896
			C190.7048,94.2892,177.7817,81.3635,161.8971,81.3635z"/>
		<g>
			<path fill="#FFFFFF" d="M91.3337,171.0263c0-1.0928,0.8808-1.9846,1.9764-1.9846c1.0984,0,1.9792,0.8918,1.9792,1.9846
				c0,1.1009-0.8808,1.9874-1.9792,1.9874C92.2145,173.0137,91.3337,172.1272,91.3337,171.0263z"/>
			<path fill="#FFFFFF" d="M55.2485,154.8855c0-4.5167,3.6717-8.186,8.2189-8.186c4.5196,0,8.2051,3.6692,8.2051,8.186
				c0,4.5416-3.6856,8.2218-8.2051,8.2218C58.9202,163.1073,55.2485,159.4271,55.2485,154.8855z"/>
			<path fill="#FFFFFF" d="M99.0823,162.4522c0-5.5793,4.5111-10.0961,10.0961-10.0961c5.5875,0,10.0961,4.5168,10.0961,10.0961
				s-4.5086,10.1099-10.0961,10.1099C103.5934,172.5621,99.0823,168.0316,99.0823,162.4522z"/>
			<path fill="#FFFFFF" d="M77.943,160.5556c0-2.0037,1.6156-3.6193,3.625-3.6193c1.9955,0,3.6221,1.6156,3.6221,3.6193
				c0,2.0068-1.6266,3.6224-3.6221,3.6224C79.5586,164.178,77.943,162.5624,77.943,160.5556z"/>
			<path fill="#FFFFFF" d="M88.6172,136.0448c0-2.7966,2.2568-5.0509,5.07-5.0509c2.7856,0,5.0427,2.2543,5.0427,5.0509
				c0,2.8048-2.2571,5.0616-5.0427,5.0616C90.874,141.1064,88.6172,138.8496,88.6172,136.0448z"/>
			<path fill="#FFFFFF" d="M126.9706,146.6666c0-3.0387,2.4634-5.5049,5.5078-5.5049c3.0443,0,5.5106,2.4662,5.5106,5.5049
				c0,3.0497-2.4662,5.5159-5.5106,5.5159C129.434,152.1825,126.9706,149.7162,126.9706,146.6666z"/>
			<path fill="#FFFFFF" d="M113.1365,143.647c0-1.6376,1.3157-2.9561,2.9508-2.9561c1.6322,0,2.9505,1.3185,2.9505,2.9561
				c0,1.6351-1.3182,2.9561-2.9505,2.9561C114.4522,146.6031,113.1365,145.2821,113.1365,143.647z"/>
			<path fill="#FFFFFF" d="M44.6403,146.1161c0-1.3653,1.1122-2.4691,2.4801-2.4691c1.3653,0,2.4719,1.1038,2.4719,2.4691
				c0,1.3735-1.1066,2.4744-2.4719,2.4744C45.7525,148.5905,44.6403,147.4896,44.6403,146.1161z"/>
		</g>
	</g>
	<g>
		<g>
			<linearGradient id="SVGID_5_" gradientUnits="userSpaceOnUse" x1="3.8963" y1="71.9306" x2="166.3783" y2="71.9306">
				<stop  offset="0.0054" style="stop-color:#FF8115"/>
				<stop  offset="0.0643" style="stop-color:#FA7E13"/>
				<stop  offset="0.4338" style="stop-color:#DE6C09"/>
				<stop  offset="0.7581" style="stop-color:#CD6203"/>
				<stop  offset="1" style="stop-color:#C75E01"/>
			</linearGradient>
			<path fill="url(#SVGID_5_)" d="M87.2243,10.1519c-8.2409-0.0028-14.9294,2.8515-21.1006,7.7925
				c-6.0997,4.8843-13.7239,7.6713-21.5908,9.4783c-5.5599,1.2715-12.1661-0.1432-17.5856,1.6556
				C18.8879,31.748,10.2092,39.3023,6.7988,46.4079C3.7243,52.8461,2.271,63.1942,6.6421,69.3226
				c2.8129,3.9347,6.9802,7.5611,11.4065,9.8001c3.5122,1.785,8.852,1.2731,11.4118,4.2101
				c4.9821,5.7155,0.1705,19.6928-1.5993,25.8282c-2.0395,7.0599-2.546,18.8492,4.7262,22.3749
				c12.7633,6.207,28.2572-1.1038,25.9204-19.0831c-1.4149-10.8985-5.0373-28.253,5.7471-35.1988
				c5.205-3.3569,10.4016-3.0968,16.2564-4.3519c10.1457-2.1689,17.7124-10.6426,26.3387-15.0796
				c8.8686-4.5568,24.4561-3.53,31.8464,2.4744c6.2209,5.0509-0.8752,13.6579,4.0215,23.8671
				c4.9271,10.2737,14.0598,12.0437,21.5741,5.3744c6.1932-5.4928-3.57-19.4439-1.5663-26.1695
				c7.1456-24.0102,0.4101-32.0296-7.4317-36.7363c-7.7511-4.6574-18.5986-3.8039-29.0555-3.8039
				C117.4497,22.8287,115.9632,10.1491,87.2243,10.1519"/>
		</g>
	</g>
	<path fill="#FF9700" d="M42.565,126.5045c-3.3967,0-6.8784-0.8287-10.0688-2.3975c-9.0969-4.481-7.8996-18.3179-5.9948-25.0105
		l0.509-1.7368c1.6102-5.4556,4.9657-16.8068,1.6077-20.7142c-0.8478-0.9811-2.7608-1.3774-4.7868-1.7974
		c-1.778-0.3687-3.6168-0.75-5.3012-1.6142c-4.5996-2.3521-8.9597-6.1394-11.9569-10.3881
		c-4.6822-6.6569-3.5894-17.6462-0.0882-25.063c3.6086-7.627,12.6204-15.4841,20.9631-18.2807
		c3.2481-1.0899,6.6859-1.119,10.011-1.1463c2.557-0.0209,9.4602-0.0414,11.5851-0.5369c0,0,5.9263-3.8107,10.6852-7.6671
		C66.6192,4.5672,77.987,1,86.0847,1c18.7116,0,26.2727,5.5819,31.2768,9.2773c2.6864,1.9817,4.1782,3.0153,6.1574,3.0153
		c1.3349,0,2.6782-0.0152,4.0187-0.0304c1.3569-0.0135,2.714-0.0287,4.0627-0.0287c6.961,0,14.9158,0.3208,21.2382,4.1605
		c5.7144,3.468,23.099,14.0198,15.1636,40.9724c-0.5586,1.8992-0.2396,5.4209,0.066,8.8272
		c0.6553,7.2296,1.3958,15.4238-4.6103,18.7502c-2.8076,1.555-5.4939,2.3436-7.9822,2.3436c-7.919,0-11.6074-7.6189-11.6074-12.7689
		l0.0138-3.2244c0.0879-12.725-0.347-17.2541-9.5318-19.7505c-3.9829-1.0818-10.0301-2.3713-16.2124-2.3713
		c-4.8527,0-8.8576,0.805-11.9073,2.3918c-2.8792,1.4972-5.6563,3.5218-8.5932,5.6648c-5.238,3.8163-10.6497,7.7632-17.3491,9.2167
		c-1.6432,0.3563-3.2368,0.593-4.7921,0.823c-3.6416,0.5381-6.7849,1.0031-9.8512,3.0029
		c-7.8889,5.1459-6.0334,18.5574-4.6766,28.3508c0.1485,1.0722,0.2889,2.1043,0.4157,3.0827
		c1.1505,8.9554-1.8416,14.51-4.5528,17.5926C53.3107,124.2998,48.2432,126.5045,42.565,126.5045z M86.1481,6.6371
		c-6.7958,0-12.6506,2.2019-18.4802,6.928c-5.4418,4.4065-12.5818,7.5941-21.8357,9.7452c-2.7306,0.6359-5.574,0.6593-8.3235,0.6827
		c-3.0195,0.0248-5.8685,0.0493-8.2685,0.8546c-6.9309,2.3217-14.6847,9.0611-17.6575,15.3437
		C8.8081,46.0666,7.9,54.9338,11.1808,59.598c2.4527,3.4722,6.1603,6.6955,9.9174,8.6195c1.0074,0.5161,2.4028,0.805,3.8783,1.1105
		c2.725,0.5657,5.8133,1.2058,7.9134,3.6402c5.3618,6.2372,1.7092,18.6017-0.4735,25.9892l-0.4927,1.6861
		c-1.6322,5.7265-2.2433,15.7924,3.0607,18.4047c2.4195,1.1892,5.0399,1.8194,7.5805,1.8194c4.0351,0,7.5969-1.5248,10.0355-4.2941
		c2.7856-3.1681,3.8893-7.7153,3.1903-13.154c-0.1212-0.9608-0.2616-1.9724-0.4073-3.0238
		c-1.5635-11.2881-3.7022-26.7473,7.184-33.8462c4.0985-2.6726,8.1665-3.2755,12.1026-3.8578
		c1.4369-0.2117,2.9068-0.4264,4.4235-0.7554c5.5351-1.2001,10.4594-4.7907,15.2214-8.2632
		c2.9781-2.1717,6.0582-4.4175,9.3117-6.1104c3.8617-2.0094,8.7446-3.0277,14.5111-3.0277c6.8043,0,13.3744,1.3969,17.6904,2.5694
		c13.8394,3.7625,13.7735,13.2354,13.6909,25.2293l-0.0138,3.1847c0,1.9048,1.4149,7.1318,5.9703,7.1318
		c1.522,0,3.2865-0.5505,5.2518-1.639c2.791-1.5457,2.2019-8.0676,1.7283-13.3098c-0.3715-4.1137-0.7238-8.0002,0.1404-10.9287
		c6.0143-20.4278-4.3572-29.507-12.6807-34.5593c-4.5692-2.7746-10.6274-3.3428-18.315-3.3428
		c-1.3267,0-2.6644,0.0138-4.0024,0.0287c-1.3597,0.0152-2.7222,0.0304-4.079,0.0304c-3.9251,0-6.6363-1.9998-9.5045-4.1179
		C109.3407,11.3616,102.9412,6.6371,86.1481,6.6371z"/>
	<g>
		<path fill="#FFFFFF" d="M86.1481,4.3772C78.3971,4.369,66.3877,9.6,60.5801,14.3067c-5.7335,4.645-8.4419,6.4959-8.4419,6.4959
			c-5.2189,1.2168-17.5611-0.1294-22.6587,1.5801c-7.5777,2.5392-15.7414,9.7286-18.9427,16.4889
			c-2.8902,6.1256-4.258,15.9728-0.1514,21.8095c2.6396,3.7419,6.5647,7.1935,10.7266,9.3227
			c3.3084,1.6954,8.3235,1.214,10.7292,4.0049c4.6847,5.4443,0.1598,18.7404-1.5082,24.5799
			c-1.9132,6.7161-2.3783,17.9354,4.4398,21.2962c12.0091,5.9012,26.5698-1.0488,24.3704-18.1654
			c-1.3239-10.3687-4.7259-26.8849,5.4142-33.4964c4.8913-3.1903,9.7824-2.9454,15.2876-4.1399
			c9.5318-2.0657,16.6417-10.1251,24.7532-14.3459c8.343-4.3423,20.9326-2.5846,29.5839-0.2353
			c12.5156,3.4034,11.376,11.6209,11.376,25.2033c0,4.6667,4.3767,13.7515,15.1112,7.806
			c6.8429-3.789,1.2554-19.0076,3.1436-25.4111c6.7271-22.8445-6.2868-32.5705-13.6551-37.0433
			c-7.3026-4.4344-17.4923-3.6224-27.3243-3.6224C114.5706,16.4345,113.1723,4.369,86.1481,4.3772"/>
	</g>
</g>
</svg>
