<?xml version="1.0" encoding="utf-8"?>
<!-- Generator: Adobe Illustrator 17.0.0, SVG Export Plug-In . SVG Version: 6.00 Build 0)  -->
<!DOCTYPE svg PUBLIC "-//W3C//DTD SVG 1.1//EN" "http://www.w3.org/Graphics/SVG/1.1/DTD/svg11.dtd">
<svg version="1.1" id="Layer_1" xmlns="http://www.w3.org/2000/svg" xmlns:xlink="http://www.w3.org/1999/xlink" x="0px" y="0px" viewBox="0 0 200 200" enable-background="new 0 0 200 200" xml:space="preserve">
<g>
	<path fill="#D5B894" d="M108.05,198.5469c-51.0016,0-90.9497-19.6687-90.9497-44.7789c0-8.0258,3.9033-15.5678,11.3913-22.1852
		c-5.7064-2.6031-10.694-5.8714-14.7271-9.6532C5.4171,114.0928,1,104.191,1,93.2944c0-22.3502,16.9491-33.6011,33.4062-34.9796
		c7.5799-16.1682,41.6892-24.602,73.6626-24.602c32.201,0,69.0837,8.4338,74.544,26.9347c1.1867,2.925,1.3004,7.142,1.3004,17.4169
		c0,15.3543-4.4874,30.4086-12.7565,43.1029C188.9546,129.4579,199,141.1144,199,153.7679
		C199,178.8781,159.0517,198.5469,108.05,198.5469z M32.5355,84.4116c-1.3733,0.4703-2.7734,1.1596-3.8656,2.1544
		c-1.0109,0.9165-2.3518,2.6087-2.3518,6.7284c0,3.833,1.5626,7.1636,4.7686,10.1694c1.8734,1.7572,4.3144,3.371,7.1364,4.755
		C35.1146,100.6661,33.1899,92.64,32.5355,84.4116z"/>
	<path fill="#FFFFFF" d="M192.7419,153.4247c0,21.6257-38.2127,39.1536-85.3271,39.1536c-47.1224,0-85.3216-17.5279-85.3216-39.1536
		c0-21.6285,38.1992-39.1614,85.3216-39.1614C154.5291,114.2633,192.7419,131.7961,192.7419,153.4247z"/>
	<path fill="#D5B894" d="M107.4148,184.274c-44.0814,0-77.0173-16.2869-77.0173-30.8493c0-14.5649,32.9359-30.8571,77.0173-30.8571
		c44.0842,0,77.0228,16.2922,77.0228,30.8571C184.4376,167.9871,151.4989,184.274,107.4148,184.274z"/>
	<radialGradient id="SVGID_1_" cx="107.4149" cy="151.2729" r="41.4854" gradientUnits="userSpaceOnUse">
		<stop  offset="0.0054" style="stop-color:#A34E1F"/>
		<stop  offset="0.3187" style="stop-color:#9E491D"/>
		<stop  offset="0.6963" style="stop-color:#8F3A15"/>
		<stop  offset="1" style="stop-color:#7E290D"/>
	</radialGradient>
	<path fill="url(#SVGID_1_)" d="M162.1497,151.2758c0,11.6614-24.5021,21.12-54.735,21.12c-30.2273,0-54.7347-9.4586-54.7347-21.12
		c0-11.6672,24.5073-21.1258,54.7347-21.1258C137.6476,130.15,162.1497,139.6086,162.1497,151.2758z"/>
	<g>
		<path fill="#FFFFFF" d="M150.9583,149.7539c0,8.8042-19.4902,15.9489-43.538,15.9489s-43.538-7.1447-43.538-15.9489
			c0-8.8125,19.4902-15.9517,43.538-15.9517S150.9583,140.9414,150.9583,149.7539z"/>
	</g>
	<g>
		<g>
			<g>
				<path fill="#FFFFFF" d="M178.1499,77.2293c0,39.7806-31.4168,72.0328-70.1812,72.0328
					c-38.7641,0-70.1917-32.2522-70.1917-72.0328c0-39.7834,1.4975,4.5413,70.1917,4.5413
					C176.6604,81.7706,178.1499,37.4459,178.1499,77.2293z"/>
			</g>
			<g>
				<path fill="#FFFFFF" d="M177.5063,64.2483c0,14.2272-31.1519,25.7538-69.5753,25.7538
					c-38.4397,0-69.6027-11.5266-69.6027-25.7538c0-14.2161,31.163-25.7427,69.6027-25.7427
					C146.3545,38.5055,177.5063,50.0322,177.5063,64.2483z"/>
			</g>
		</g>
	</g>
	
		<path opacity="0.5" fill="none" stroke="#FFFFFF" stroke-width="2" stroke-linecap="round" stroke-linejoin="round" stroke-miterlimit="10" d="
		M62.6034,61.6559c0,0-4.9873,1.3409-6.3769,2.7086c-1.7193,1.6869-1.7677,3.7845,0.8814,5.4606
		c16.8195,10.6586,48.5281,10.5858,48.5281,10.5858"/>
	
		<path opacity="0.5" fill="none" stroke="#FFFFFF" stroke-width="2" stroke-linecap="round" stroke-linejoin="round" stroke-miterlimit="10" d="
		M125.4345,56.6008c0,0,31.2275,1.8112,35.0175,9.8561c3.7953,8.0419-14.8597,9.3531-14.8597,9.3531"/>
	<g>
		<path fill="#FFFFFF" d="M59.3299,132.4478c-13.6943,0-31.1411-4.4467-42.3541-14.9624
			c-7.1796-6.7472-10.9805-15.2298-10.9805-24.537c0-22.4368,18.8469-29.0866,29.9843-29.4733
			c8.4881-0.2649,9.6828,4.6415,9.8342,6.7796c0.0216,0.284,0.3947,6.9526-7.3797,7.7717l2.5464-13.9324
			c-2.2815,0.4003-0.5622,3.8225-0.4567,7.7421c0.0999,3.9683-5.4498,5.4822-3.1764,5.6984
			c-1.1488-0.1107-8.4098,0.2596-13.0945,4.5225c-2.8221,2.5627-4.1926,6.1255-4.1926,10.8913
			c0,5.4008,2.2004,10.2018,6.5446,14.2756c7.8365,7.3582,22.488,11.9078,35.5797,11.0724l0.8974,14.0378
			C61.871,132.4098,60.6112,132.4478,59.3299,132.4478z"/>
	</g>
	<linearGradient id="SVGID_2_" gradientUnits="userSpaceOnUse" x1="107.4148" y1="61.1449" x2="125.2884" y2="61.1449">
		<stop  offset="0.1237" style="stop-color:#FFFFFF"/>
		<stop  offset="0.9235" style="stop-color:#FFFFFF;stop-opacity:0.3"/>
	</linearGradient>
	<path fill="url(#SVGID_2_)" d="M107.4148,61.1421c0-4.9333,4.0007-8.934,8.9368-8.934c4.9361,0,8.9368,4.0007,8.9368,8.934
		c0,4.9388-4.0007,8.9396-8.9368,8.9396C111.4155,70.0817,107.4148,66.081,107.4148,61.1421z"/>
	<path fill="#D5B894" d="M168.794,64.7457c0,10.4695-28.373,18.9548-60.0627,18.9548c-31.6845,0-62.7497-8.4853-62.7497-18.9548
		c0-10.467,31.0652-18.9576,62.7497-18.9576C140.421,45.7881,168.794,54.2787,168.794,64.7457z"/>
	<g>
		<defs>
			<path id="SVGID_3_" d="M168.794,64.7457c0,10.4695-28.373,18.9548-60.0627,18.9548c-31.6845,0-62.7497-8.4853-62.7497-18.9548
				c0-10.467,31.0652-18.9576,62.7497-18.9576C140.421,45.7881,168.794,54.2787,168.794,64.7457z"/>
		</defs>
		<clipPath id="SVGID_4_">
			<use xlink:href="#SVGID_3_"  overflow="visible"/>
		</clipPath>
		
			<radialGradient id="SVGID_5_" cx="-82.3767" cy="-19.0748" r="141.8492" gradientTransform="matrix(0.9551 0 0 1.0552 178.6113 21.5985)" gradientUnits="userSpaceOnUse">
			<stop  offset="0.0054" style="stop-color:#A34E1F"/>
			<stop  offset="0.3187" style="stop-color:#9E491D"/>
			<stop  offset="0.6963" style="stop-color:#8F3A15"/>
			<stop  offset="1" style="stop-color:#7E290D"/>
		</radialGradient>
		<path clip-path="url(#SVGID_4_)" fill="url(#SVGID_5_)" d="M168.794,72.7878c0,10.4723-28.373,18.9548-60.0627,18.9548
			c-31.6845,0-62.7497-8.4826-62.7497-18.9548c0-10.467,31.0652-18.9551,62.7497-18.9551
			C140.421,53.8327,168.794,62.3208,168.794,72.7878z"/>
	</g>
	<path opacity="0.8" fill="#F7AE6D" d="M106.8876,61.4692c0,0-0.7855-0.6968-1.8656-2.1579
		c-1.0852-1.4585-2.4681-3.6813-3.6108-6.6607c-0.5584-1.4873-1.0358-3.1649-1.3724-5.0043
		c-0.3235-1.8368-0.4593-3.8378-0.381-5.938c0.0836-1.0436,0.2087-2.116,0.3756-3.1934c0.2533-1.0647,0.467-2.1657,0.8298-3.2327
		c0.4227-1.0409,0.7539-2.1472,1.2888-3.1568l1.5132-2.7187c0.4539-0.8271,1.0751-1.7662,1.3933-2.4916
		c0.2167-0.6914,0.5846-1.234,0.8167-1.9909c0.4905-1.5156,0.9052-3.0628,1.1087-4.6466c0.2191-1.576,0.3289-3.1675,0.2923-4.712
		c0.0104-1.5445-0.094-3.0446-0.253-4.4406c-0.1357-1.4037-0.3107-2.7133-0.5089-3.8822c-0.2087-1.1611-0.3834-2.202-0.5608-3.0577
		c-0.3732-1.7377-0.5846-2.7318-0.5846-2.7318s0.8271,0.6444,2.0115,2.0219c0.5846,0.6941,1.3046,1.5448,1.9778,2.6196
		c0.7096,1.054,1.4715,2.2907,2.1264,3.7361c1.3436,2.8675,2.502,6.5488,2.6011,10.7858c0.0601,2.1082-0.1878,4.3415-0.767,6.5565
		c-0.2714,1.1141-0.7828,2.3377-1.2471,3.4833c-0.4852,1.0644-0.9498,1.7844-1.4299,2.6898l-1.4245,2.4056
		c-0.3911,0.7173-0.6992,1.474-1.0644,2.1993c-0.2843,0.7697-0.5635,1.5317-0.8426,2.2856
		c-0.2113,0.7879-0.4149,1.5707-0.6209,2.3377c-0.3,1.5811-0.5453,3.1568-0.6551,4.6989c-0.0991,1.5418-0.133,3.0396-0.0938,4.4483
		c0.0574,2.8178,0.334,5.2546,0.548,6.9872C106.7441,60.4673,106.8876,61.4692,106.8876,61.4692z"/>
	<path opacity="0.8" fill="#F7AE6D" d="M116.4228,74.4095c0,0-0.5436-0.4822-1.2911-1.4933
		c-0.751-1.0093-1.708-2.5476-2.4988-4.6094c-0.3864-1.0293-0.7168-2.1902-0.9498-3.4631
		c-0.2239-1.2711-0.3178-2.6559-0.2636-4.1093c0.0579-0.7222,0.1444-1.4643,0.2599-2.21c0.1753-0.7368,0.3232-1.4987,0.5743-2.2371
		c0.2925-0.7203,0.5218-1.4859,0.8919-2.1846l1.0472-1.8814c0.3141-0.5724,0.744-1.2223,0.9642-1.7243
		c0.1499-0.4785,0.4045-0.854,0.5652-1.3778c0.3394-1.0489,0.6264-2.1195,0.7673-3.2156c0.1516-1.0906,0.2276-2.192,0.2023-3.2609
		c0.0072-1.0688-0.0651-2.107-0.1751-3.073c-0.0939-0.9714-0.215-1.8777-0.3522-2.6866c-0.1444-0.8035-0.2653-1.5238-0.3881-2.116
		c-0.2583-1.2025-0.4045-1.8905-0.4045-1.8905s0.5724,0.4459,1.392,1.3992c0.4045,0.4803,0.9028,1.069,1.3687,1.8128
		c0.4911,0.7294,1.0184,1.5852,1.4715,2.5855c0.9298,1.9844,1.7315,4.532,1.8001,7.4641c0.0416,1.4589-0.13,3.0044-0.5308,4.5373
		c-0.1878,0.771-0.5417,1.6178-0.8631,2.4106c-0.3358,0.7366-0.6573,1.2349-0.9895,1.8614l-0.9858,1.6647
		c-0.2707,0.4964-0.4838,1.02-0.7366,1.522c-0.1967,0.5327-0.3899,1.06-0.5831,1.5817c-0.1462,0.5452-0.2871,1.087-0.4297,1.6178
		c-0.2076,1.0942-0.3773,2.1846-0.4533,3.2518c-0.0686,1.067-0.0921,2.1035-0.0649,3.0784c0.0397,1.95,0.2311,3.6364,0.3792,4.8354
		C116.3235,73.7162,116.4228,74.4095,116.4228,74.4095z"/>
	<path opacity="0.8" fill="#F7AE6D" d="M93.5396,60.396c0,0-0.5436-0.4822-1.2911-1.4933c-0.751-1.0093-1.708-2.5476-2.4987-4.6094
		c-0.3864-1.0293-0.7168-2.1902-0.9498-3.4631c-0.2239-1.2711-0.3178-2.6559-0.2636-4.1093c0.0579-0.7222,0.1444-1.4643,0.26-2.21
		c0.1753-0.7368,0.3232-1.4987,0.5743-2.2371c0.2925-0.7203,0.5218-1.4859,0.8919-2.1846l1.0472-1.8814
		c0.3141-0.5724,0.744-1.2223,0.9642-1.7243c0.1499-0.4785,0.4045-0.854,0.5652-1.3778c0.3395-1.0489,0.6264-2.1195,0.7673-3.2156
		c0.1516-1.0907,0.2276-2.192,0.2023-3.2609c0.0072-1.0688-0.0651-2.107-0.1751-3.073c-0.0939-0.9714-0.215-1.8777-0.3522-2.6866
		c-0.1444-0.8035-0.2653-1.5238-0.3881-2.116c-0.2583-1.2025-0.4045-1.8905-0.4045-1.8905s0.5724,0.4459,1.392,1.3992
		c0.4045,0.4803,0.9028,1.069,1.3687,1.8128c0.4911,0.7294,1.0184,1.5852,1.4715,2.5855c0.9298,1.9844,1.7315,4.532,1.8001,7.4641
		c0.0416,1.4589-0.13,3.0044-0.5308,4.5373c-0.1879,0.771-0.5417,1.6178-0.8631,2.4106c-0.3358,0.7366-0.6573,1.2349-0.9895,1.8614
		l-0.9858,1.6647c-0.2707,0.4964-0.4838,1.02-0.7366,1.522c-0.1967,0.5327-0.3899,1.06-0.5831,1.5817
		c-0.1462,0.5452-0.2871,1.087-0.4297,1.6178c-0.2076,1.0942-0.3774,2.1846-0.4533,3.2518
		c-0.0686,1.067-0.0921,2.1035-0.0649,3.0784c0.0397,1.95,0.2311,3.6364,0.3792,4.8354
		C93.4403,59.7027,93.5396,60.396,93.5396,60.396z"/>
</g>
</svg>
