<?xml version="1.0" encoding="utf-8"?>
<!-- Generator: Adobe Illustrator 17.0.0, SVG Export Plug-In . SVG Version: 6.00 Build 0)  -->
<!DOCTYPE svg PUBLIC "-//W3C//DTD SVG 1.1//EN" "http://www.w3.org/Graphics/SVG/1.1/DTD/svg11.dtd">
<svg version="1.1" id="Layer_1" xmlns="http://www.w3.org/2000/svg" xmlns:xlink="http://www.w3.org/1999/xlink" x="0px" y="0px" viewBox="0 0 200 200" enable-background="new 0 0 200 200" xml:space="preserve">
<g>
	<path fill="none" stroke="#A3C123" stroke-width="3" stroke-linecap="round" stroke-linejoin="round" stroke-miterlimit="10" d="
		M101.3267,108.7259c0,0-9.0691,72.0837,14.7909,90.2741"/>
	<linearGradient id="SVGID_1_" gradientUnits="userSpaceOnUse" x1="44.1185" y1="61.5046" x2="122.0828" y2="61.5046">
		<stop  offset="0.0054" style="stop-color:#B80728"/>
		<stop  offset="0.384" style="stop-color:#B40626"/>
		<stop  offset="0.7517" style="stop-color:#A80521"/>
		<stop  offset="1" style="stop-color:#9C031B"/>
	</linearGradient>
	<path fill="url(#SVGID_1_)" d="M89.2498,108.6263c-12.1309-0.0029-22.7704-5.4686-30.7783-15.8102
		C45.0815,75.527,40.4451,45.2307,47.1855,19.141l1.2335-4.758l4.815,0.9896c23.7827,4.9,66.0002,43.8436,68.6998,68.2942
		c1.0009,9.0953-3.0655,16.1833-11.4506,19.9561c-7.3813,3.319-14.5215,5.0034-21.2277,5.0034
		C89.2556,108.6263,89.2556,108.6263,89.2498,108.6263z"/>
	<linearGradient id="SVGID_2_" gradientUnits="userSpaceOnUse" x1="77.9197" y1="61.5046" x2="155.8815" y2="61.5046">
		<stop  offset="0.0054" style="stop-color:#B80728"/>
		<stop  offset="0.384" style="stop-color:#B40626"/>
		<stop  offset="0.7517" style="stop-color:#A80521"/>
		<stop  offset="1" style="stop-color:#9C031B"/>
	</linearGradient>
	<path fill="url(#SVGID_2_)" d="M110.744,108.6263c-6.7032,0-13.8493-1.6844-21.2248-5.0034
		c-8.3851-3.7728-12.4515-10.8608-11.4505-19.9561c2.6967-24.4505,44.9171-63.3941,68.6998-68.2942l4.8121-0.9896l1.2306,4.758
		c6.7462,26.0897,2.1069,56.386-11.2801,73.6751C133.5258,103.1592,122.8781,108.6263,110.744,108.6263z"/>
	<path fill="#DD193A" d="M52.1933,20.4355c-11.0054,42.555,9.1819,99.6143,56.1688,78.4758
		C139.0498,85.1018,79.3475,26.0275,52.1933,20.4355z"/>
	<path fill="#DD193A" d="M147.8092,20.4355c11.0051,42.555-9.1819,99.6143-56.1691,78.4758
		C60.9498,85.1018,120.6521,26.0275,147.8092,20.4355z"/>
	<g>
		<g>
			<linearGradient id="SVGID_3_" gradientUnits="userSpaceOnUse" x1="61.7899" y1="55.6462" x2="136.6558" y2="55.6462">
				<stop  offset="0.0054" style="stop-color:#B80728"/>
				<stop  offset="0.384" style="stop-color:#B40626"/>
				<stop  offset="0.7517" style="stop-color:#A80521"/>
				<stop  offset="1" style="stop-color:#9C031B"/>
			</linearGradient>
			<path fill="url(#SVGID_3_)" d="M99.1349,110.2925c-22.9775,0-31.7993-11.2011-35.1566-20.6013
				C54.5581,63.3209,77.391,19.952,97.3825,3.5805L100.5357,1l3.2469,2.4656c18.65,14.1641,39.8127,57.8887,30.679,85.0234
				C131.1099,98.4351,122.2625,110.2925,99.1349,110.2925z"/>
		</g>
	</g>
	<path fill="#F4113D" d="M100.6547,6.8725c-27.8177,22.7806-58.6927,97.5472-1.5198,97.5472S125.1549,25.479,100.6547,6.8725z"/>
	
		<radialGradient id="SVGID_4_" cx="6.2428" cy="-4.3852" r="154.6978" gradientTransform="matrix(0.977 0 0 0.977 93.6523 2.253)" gradientUnits="userSpaceOnUse">
		<stop  offset="0" style="stop-color:#FF9A77;stop-opacity:0.5"/>
		<stop  offset="0.0567" style="stop-color:#FE9073;stop-opacity:0.5"/>
		<stop  offset="0.1536" style="stop-color:#FA7567;stop-opacity:0.5"/>
		<stop  offset="0.2778" style="stop-color:#F34953;stop-opacity:0.5"/>
		<stop  offset="0.3656" style="stop-color:#EE2644;stop-opacity:0.5"/>
		<stop  offset="0.5138" style="stop-color:#E61D33;stop-opacity:0.5606"/>
		<stop  offset="0.8051" style="stop-color:#D30508;stop-opacity:0.6797"/>
		<stop  offset="0.8548" style="stop-color:#CF0000;stop-opacity:0.7"/>
	</radialGradient>
	<path fill="url(#SVGID_4_)" d="M100.6547,6.8725c-27.8177,22.7806-58.6927,97.5472-1.5198,97.5472S125.1549,25.479,100.6547,6.8725
		z"/>
	<g>
		<path fill="#85B531" d="M57.0733,120.2229c-3.5132,19.189,10.5147,61.6162,34.167,41.5453
			C114.8929,141.6945,73.7357,119.3155,57.0733,120.2229z"/>
		<path fill="#3E841E" d="M79.6965,172.3509c-6.1875,0-12.0034-3.0538-16.8213-8.8331
			c-9.9418-11.9297-13.7189-32.3039-11.5156-44.3413l0.8252-4.5031l4.5737-0.2494c0.4367-0.0227,0.8877-0.0369,1.3528-0.0369
			c14.2492,0,39.5943,11.4732,45.4131,27.3217c1.8006,4.9114,3.1732,14.5555-7.8973,23.9499
			C90.3927,170.0993,85.0333,172.3509,79.6965,172.3509L79.6965,172.3509z"/>
		
			<radialGradient id="SVGID_5_" cx="1218.843" cy="-2430.3645" r="81.6393" gradientTransform="matrix(0.745 -0.6321 0.6321 0.745 682.3802 2687.0276)" gradientUnits="userSpaceOnUse">
			<stop  offset="0.0269" style="stop-color:#90FF36;stop-opacity:0.5"/>
			<stop  offset="0.1918" style="stop-color:#85EE32;stop-opacity:0.5339"/>
			<stop  offset="0.5174" style="stop-color:#68C329;stop-opacity:0.6008"/>
			<stop  offset="0.9688" style="stop-color:#3A7D1A;stop-opacity:0.6936"/>
			<stop  offset="1" style="stop-color:#377819;stop-opacity:0.7"/>
		</radialGradient>
		<path fill="url(#SVGID_5_)" d="M57.0733,120.2229c-3.5132,19.189,11.1442,61.0802,34.7965,41.0064
			C115.525,141.1585,73.7357,119.3155,57.0733,120.2229z"/>
		<g>
			<path fill="#C3EA57" d="M57.1495,120.1582c0,0,2.251,2.4982,5.6276,6.2455c3.3929,3.7334,7.8351,8.7806,12.3044,13.8048
				c2.2303,2.5158,4.512,4.9879,6.5727,7.3721c2.0359,2.4052,3.8605,4.7142,5.3886,6.7238
				c3.0673,4.0097,4.9032,6.8602,4.9032,6.8602l-0.1525,0.1294c0,0-2.5137-2.2753-5.9707-5.9543
				c-1.7341-1.8348-3.7154-4.0108-5.7572-6.411c-2.017-2.4213-4.0848-5.0749-6.2041-7.6849
				c-4.2298-5.2274-8.4867-10.4318-11.6182-14.3871c-3.1478-3.9414-5.2463-6.569-5.2463-6.569L57.1495,120.1582z"/>
		</g>
	</g>
	<g>
		<path fill="#85B531" d="M140.9101,123.8924c-22.0286,3.883-62.0311,35.8941-31.0205,53.308
			C140.9052,194.614,148.5343,141.4456,140.9101,123.8924z"/>
		<path fill="#3E841E" d="M122.0982,186.2833c-4.3971,0-9.0806-1.3778-13.9209-4.0957
			c-14.2755-8.0166-14.7847-18.7385-13.8169-24.4174c3.2624-19.174,29.6375-36.1648,45.6482-38.9865l4.0298-0.7091l1.6286,3.751
			c5.4105,12.4545,4.3364,39.0957-5.114,53.4978c-4.7034,7.1708-11.084,10.96-18.4522,10.96H122.0982z"/>
		
			<radialGradient id="SVGID_6_" cx="364.7239" cy="2148.7119" r="93.6172" gradientTransform="matrix(0.8519 0.4783 -0.4783 0.8519 872.1569 -1889.8832)" gradientUnits="userSpaceOnUse">
			<stop  offset="0.0269" style="stop-color:#90FF36;stop-opacity:0.5"/>
			<stop  offset="0.1918" style="stop-color:#85EE32;stop-opacity:0.5339"/>
			<stop  offset="0.5174" style="stop-color:#68C329;stop-opacity:0.6008"/>
			<stop  offset="0.9688" style="stop-color:#3A7D1A;stop-opacity:0.6936"/>
			<stop  offset="1" style="stop-color:#377819;stop-opacity:0.7"/>
		</radialGradient>
		<path fill="url(#SVGID_6_)" d="M140.9101,123.8924c-22.0286,3.883-61.2027,36.3576-30.1923,53.7715
			C141.7333,195.0775,148.5343,141.4456,140.9101,123.8924z"/>
		<g>
			<path fill="#C3EA57" d="M140.9973,123.9414c0,0-1.7998,3.4097-4.4996,8.5242c-2.681,5.125-6.3491,11.9059-9.9862,18.7043
				c-1.8237,3.3963-3.588,6.8259-5.3326,9.9903c-0.9088,1.5617-1.7522,3.0911-2.6151,4.5059
				c-0.8471,1.4237-1.6632,2.7612-2.4309,3.9877c-3.0534,4.916-5.3279,8.0591-5.3279,8.0591l-0.1744-0.0979
				c0,0,1.4995-3.5783,4.1072-8.7445c0.6476-1.294,1.3647-2.6871,2.1392-4.1515c0.7588-1.4733,1.6255-2.9895,2.4858-4.5785
				c1.7935-3.137,3.8033-6.4288,5.7536-9.7539c3.911-6.6445,7.791-13.3065,10.771-18.2636
				c2.9613-4.9676,4.9355-8.2794,4.9355-8.2794L140.9973,123.9414z"/>
		</g>
	</g>
	<g>
		<path fill="#FFFFFF" d="M82.5097,42.4668c-0.4,0-0.8084-0.0847-1.1973-0.2653c-1.4251-0.6625-2.0418-2.3543-1.3779-3.7794
			C86.4072,24.51,94.9911,17.5845,95.355,17.297c1.2279-0.9834,3.0169-0.7723,3.9975,0.457
			c0.9751,1.2279,0.7723,3.0141-0.4528,3.992l0,0c-0.0778,0.0639-7.9367,6.4574-13.8093,19.0764
			C84.6098,41.8585,83.582,42.4668,82.5097,42.4668z"/>
	</g>
</g>
</svg>
