<?xml version="1.0" encoding="utf-8"?>
<!-- Generator: Adobe Illustrator 17.0.0, SVG Export Plug-In . SVG Version: 6.00 Build 0)  -->
<!DOCTYPE svg PUBLIC "-//W3C//DTD SVG 1.1//EN" "http://www.w3.org/Graphics/SVG/1.1/DTD/svg11.dtd">
<svg version="1.1" id="Layer_1" xmlns="http://www.w3.org/2000/svg" xmlns:xlink="http://www.w3.org/1999/xlink" x="0px" y="0px" viewBox="0 0 200 200" enable-background="new 0 0 200 200" xml:space="preserve">
<g>
	<path fill-rule="evenodd" clip-rule="evenodd" fill="#FCE622" d="M49.334,9.7675"/>
	<path fill="none" stroke="#A3C123" stroke-width="3" stroke-linecap="round" stroke-linejoin="round" stroke-miterlimit="10" d="
		M173.8537,113.256c0,0,12.8447-78.7629-15.221-100.4343c-8.2241-6.3518-27.083-8.7625-45.2261,6.176"/>
	<g>
		<path fill="#85B531" d="M181.8204,113.3283c-30.2472,5.3328-85.1789,49.2877-42.5959,73.2005
			C181.8139,210.4384,192.2919,137.4324,181.8204,113.3283z"/>
		<path fill="#3E841E" d="M155.9896,199c-6.0361,0-12.4708-1.8929-19.1161-5.625c-19.6031-11.0083-20.2999-25.7301-18.9721-33.5274
			c4.4794-26.3296,40.6969-49.6584,62.682-53.5351l5.5308-0.973l2.2381,5.1512c7.4298,17.101,5.9545,53.6823-7.022,73.4609
			C174.8707,193.7954,166.1131,199,155.9928,199H155.9896z"/>
		
			<radialGradient id="SVGID_1_" cx="478.3968" cy="2068.4993" r="125.5952" gradientTransform="matrix(0.8719 0.4896 -0.4896 0.8719 796.8148 -1936.6387)" gradientUnits="userSpaceOnUse">
			<stop  offset="0.0269" style="stop-color:#90FF36;stop-opacity:0.5"/>
			<stop  offset="0.1918" style="stop-color:#85EE32;stop-opacity:0.5339"/>
			<stop  offset="0.5174" style="stop-color:#68C329;stop-opacity:0.6008"/>
			<stop  offset="0.9688" style="stop-color:#3A7D1A;stop-opacity:0.6936"/>
			<stop  offset="1" style="stop-color:#377819;stop-opacity:0.7"/>
		</radialGradient>
		<path fill="url(#SVGID_1_)" d="M181.8204,113.3283c-30.2472,5.3328-84.0395,49.9251-41.4596,73.8347
			C182.9502,211.0755,192.2919,137.4324,181.8204,113.3283z"/>
		<g>
			<path fill="#C3EA57" d="M181.9076,113.3773c0,0-2.504,4.6636-6.2601,11.6591c-3.7374,7.0059-8.8139,16.2948-13.8594,25.601
				c-2.5129,4.6587-5.0008,9.3313-7.4012,13.6738c-1.2389,2.1495-2.4014,4.2471-3.5668,6.2007
				c-1.1497,1.9625-2.2519,3.8094-3.2836,5.5062c-1.0213,1.7027-2.004,3.2373-2.8505,4.6113
				c-0.847,1.3738-1.5987,2.5639-2.2369,3.5333c-1.2527,1.9521-2.001,3.0493-2.001,3.0493l-0.1744-0.0979
				c0,0,0.5473-1.2101,1.5619-3.2959c0.4955-1.0495,1.1203-2.3109,1.8524-3.7492c0.7325-1.438,1.5313-3.076,2.4534-4.8343
				c0.9117-1.7642,1.9149-3.6667,2.992-5.67c1.0614-2.0121,2.2472-4.0966,3.4376-6.2733c2.4581-4.3101,5.1526-8.8667,7.8222-13.4374
				c5.3194-9.1525,10.6078-18.3223,14.6441-25.1604c4.0176-6.8486,6.6961-11.4143,6.6961-11.4143L181.9076,113.3773z"/>
		</g>
	</g>
	<g>
		
			<linearGradient id="SVGID_2_" gradientUnits="userSpaceOnUse" x1="7089.5771" y1="-2685.2498" x2="7168.3457" y2="-2685.2498" gradientTransform="matrix(-0.7289 -0.6846 0.6846 -0.7289 7124.8188 2988.2837)">
			<stop  offset="0.0054" style="stop-color:#B80728"/>
			<stop  offset="0.384" style="stop-color:#B40626"/>
			<stop  offset="0.7517" style="stop-color:#A80521"/>
			<stop  offset="1" style="stop-color:#9C031B"/>
		</linearGradient>
		<path fill="url(#SVGID_2_)" d="M118.2595,26.1183c8.9303,8.3938,12.989,19.7834,11.7303,32.9356
			c-2.097,21.9916-19.6374,47.5099-42.6493,62.062l-4.1966,2.6492l-2.863-4.0616C66.159,99.6454,61.9997,41.7661,76.9288,21.895
			c5.5527-7.391,13.4502-9.7969,22.2362-6.777C106.8931,17.7798,113.3188,21.4791,118.2595,26.1183L118.2595,26.1183z"/>
		
			<linearGradient id="SVGID_3_" gradientUnits="userSpaceOnUse" x1="7123.7271" y1="-2685.2488" x2="7202.4966" y2="-2685.2488" gradientTransform="matrix(-0.7289 -0.6846 0.6846 -0.7289 7124.8188 2988.2837)">
			<stop  offset="0.0054" style="stop-color:#B80728"/>
			<stop  offset="0.384" style="stop-color:#B40626"/>
			<stop  offset="0.7517" style="stop-color:#A80521"/>
			<stop  offset="1" style="stop-color:#9C031B"/>
		</linearGradient>
		<path fill="url(#SVGID_3_)" d="M102.4327,11.2505c4.9378,4.6395,9.0309,10.8216,12.17,18.3662
			c3.5656,8.5819,1.6573,16.6147-5.374,22.6193c-18.8965,16.1406-76.9233,15.6147-97.8291,2.7733l-4.2281-2.5991l2.3824-4.3554
			C22.6341,24.1752,47.0082,5.0717,68.8207,1.5999C81.8756-0.4765,93.4963,2.8603,102.4327,11.2505z"/>
		<path fill="#DD193A" d="M84.5502,116.7027c37.5356-23.7321,62.1388-79.714,12.9199-96.6472
			C65.3146,8.9986,68.4222,93.796,84.5502,116.7027z"/>
		<path fill="#DD193A" d="M14.1368,50.5614c21.3323-38.9483,75.6617-67.0075,95.6444-18.939
			C122.8296,63.0217,38.0056,65.2251,14.1368,50.5614z"/>
		<g>
			<g>
				
					<linearGradient id="SVGID_4_" gradientUnits="userSpaceOnUse" x1="7107.4297" y1="-2691.1675" x2="7183.0723" y2="-2691.1675" gradientTransform="matrix(-0.7289 -0.6846 0.6846 -0.7289 7124.8188 2988.2837)">
					<stop  offset="0.0054" style="stop-color:#B80728"/>
					<stop  offset="0.384" style="stop-color:#B40626"/>
					<stop  offset="0.7517" style="stop-color:#A80521"/>
					<stop  offset="1" style="stop-color:#9C031B"/>
				</linearGradient>
				<path fill="url(#SVGID_4_)" d="M112.1353,18.0575c16.9191,15.8928,15.6697,30.244,11.6393,39.4867
					c-11.3002,25.9371-58.1149,42.0826-84.1587,40.3073l-4.1092-0.2825l-0.684-4.0555
					C30.8801,70.1799,45.5389,23.345,71.0338,9.6781C80.3816,4.6715,95.097,2.0599,112.1353,18.0575z"/>
			</g>
		</g>
		<path fill="#F4113D" d="M39.4809,93.165c36.2425,2.4609,110.6924-31.2372,68.5925-70.7821
			C65.9674-17.1664,34.3078,62.5177,39.4809,93.165z"/>
		
			<radialGradient id="SVGID_5_" cx="7145.7852" cy="-2749.4419" r="152.7034" gradientTransform="matrix(-0.7289 -0.6846 0.6846 -0.7289 7124.8188 2988.2837)" gradientUnits="userSpaceOnUse">
			<stop  offset="0" style="stop-color:#FF9A77;stop-opacity:0.5"/>
			<stop  offset="0.0567" style="stop-color:#FE9073;stop-opacity:0.5"/>
			<stop  offset="0.1536" style="stop-color:#FA7567;stop-opacity:0.5"/>
			<stop  offset="0.2778" style="stop-color:#F34953;stop-opacity:0.5"/>
			<stop  offset="0.3656" style="stop-color:#EE2644;stop-opacity:0.5"/>
			<stop  offset="0.5138" style="stop-color:#E61D33;stop-opacity:0.5606"/>
			<stop  offset="0.8051" style="stop-color:#D30508;stop-opacity:0.6797"/>
			<stop  offset="0.8548" style="stop-color:#CF0000;stop-opacity:0.7"/>
		</radialGradient>
		<path fill="url(#SVGID_5_)" d="M39.4809,93.165c36.2425,2.4609,110.6924-31.2372,68.5925-70.7821
			C65.9674-17.1664,34.3078,62.5177,39.4809,93.165z"/>
	</g>
	<path fill="#DD193A" d="M28.6295,162.8359c21.3732-2.034,61.5612-28.8281,33.2134-47.8503
		C33.4949,95.9573,22.6718,145.4649,28.6295,162.8359z"/>
	<g>
		<path fill="#FFFFFF" d="M47.4347,70.5612c-0.0995,0-0.2019-0.0043-0.3043-0.0156c-1.5981-0.1663-2.7611-1.5966-2.5961-3.1961
			c1.9706-18.9748,11.1153-30.5778,11.5049-31.0626c1.0066-1.2511,2.8378-1.4559,4.0918-0.4507
			c1.254,1.0038,1.4587,2.8336,0.455,4.0876l0,0c-0.0825,0.1066-8.4765,10.8409-10.2566,28.0257
			C50.1731,69.448,48.9077,70.5612,47.4347,70.5612z"/>
	</g>
</g>
</svg>
