<?xml version="1.0" encoding="utf-8"?>
<!-- Generator: Adobe Illustrator 17.0.0, SVG Export Plug-In . SVG Version: 6.00 Build 0)  -->
<!DOCTYPE svg PUBLIC "-//W3C//DTD SVG 1.1//EN" "http://www.w3.org/Graphics/SVG/1.1/DTD/svg11.dtd">
<svg version="1.1" id="Layer_1" xmlns="http://www.w3.org/2000/svg" xmlns:xlink="http://www.w3.org/1999/xlink" x="0px" y="0px" viewBox="0 0 200 200" enable-background="new 0 0 200 200" xml:space="preserve">
<g>
	<path fill="#823308" d="M194.5338,182.2572c-1.1075,0-2.1834-0.4571-2.959-1.3033L70.3248,48.5177
		c-1.0524-1.1439-1.6009-2.6405-1.533-4.2048c0.0703-1.5646,0.7443-3.0088,1.9013-4.0641L94.0059,18.9
		c1.084-0.9925,2.4865-1.5384,3.9542-1.5384c1.6403,0,3.2153,0.6922,4.3201,1.8989l95.6673,104.4952
		c0.6841,0.747,1.0578,1.7237,1.0524,2.7344c-0.1147,17.2667-0.2715,34.5331-0.4544,51.7971
		c-0.0182,1.648-1.0396,3.1158-2.5779,3.706C195.5001,182.1711,195.0144,182.2572,194.5338,182.2572z"/>
	<radialGradient id="SVGID_1_" cx="82.1283" cy="5.6951" r="190.2536" gradientUnits="userSpaceOnUse">
		<stop  offset="0.0054" style="stop-color:#A34E1F"/>
		<stop  offset="0.3187" style="stop-color:#9E491D"/>
		<stop  offset="0.6963" style="stop-color:#8F3A15"/>
		<stop  offset="1" style="stop-color:#7E290D"/>
	</radialGradient>
	<path fill="url(#SVGID_1_)" d="M194.9882,126.4642L99.3236,21.9714c-0.6895-0.7521-1.8596-0.7991-2.6092-0.1147L73.3988,43.2105
		c-0.7521,0.6844-0.8045,1.8494-0.1147,2.5988l121.2497,132.4363C194.7168,160.9868,194.8735,143.7255,194.9882,126.4642z"/>
	
		<path opacity="0.3" fill="none" stroke="#F2F2F2" stroke-width="5" stroke-linecap="round" stroke-linejoin="round" stroke-miterlimit="10" d="
		M84.8857,42.1503c34.0525,41.4151,60.1808,67.546,98.1276,108.2483"/>
	<path fill="#A5A5A5" d="M88.6519,184.0906c-32.9974-1.4573-61.2597-31.5502-62.4482-32.8327
		C25.0861,150.033-0.3971,121.6584,1.0602,88.661l0.1907-4.2912l4.2283-0.7419c0.2065-0.0364,29.7979-4.8264,50.6792-13.6516
		c33.4545-14.1405,67.0683-49.7444,67.3973-50.0942l3.9491-4.1634l44.7033,48.8223l-4.4921,3.5704
		c-0.3736,0.2977-36.4373,29.1266-55.8377,62.7247c-10.3609,17.9431-17.7628,49.0547-17.8176,49.2689l-1.0968,4.1762
		L88.6519,184.0906z"/>
	<radialGradient id="SVGID_2_" cx="-15.491" cy="187.5592" r="230.9137" gradientUnits="userSpaceOnUse">
		<stop  offset="0" style="stop-color:#8A8788"/>
		<stop  offset="0.15" style="stop-color:#848182"/>
		<stop  offset="0.3577" style="stop-color:#726F70"/>
		<stop  offset="0.599" style="stop-color:#545353"/>
		<stop  offset="0.8638" style="stop-color:#2C2B2B"/>
		<stop  offset="1" style="stop-color:#141414"/>
	</radialGradient>
	<path fill="url(#SVGID_2_)" d="M8.9191,89.0215c0,0,16.6318,0.5772,49.3679-14.0359C93.7473,59.1557,127.3847,23.69,127.3847,23.69
		l18.4758,20.1786l18.4785,20.1789c0,0-38.2969,30.3855-57.1854,64.3126c-17.4362,31.3259-18.3191,47.9474-18.3191,47.9474
		c-31.1796-1.3766-53.6304-31.1274-53.6304-31.1274S7.5399,120.1931,8.9191,89.0215z"/>
	<path fill="#FFFFFF" d="M6.3516,89.0215c0,0,21.4453-3.7665,29.9913-5.5423c0,0-10.7867,14.3675,16.6344,44.3091
		c27.416,29.9466,44.108,20.9307,44.108,20.9307c-2.5231,8.3604-8.2508,30.1534-8.2508,30.1534
		c-31.1796-1.3766-58.7601-31.1247-58.7601-31.1247S4.9751,120.1931,6.3516,89.0215z"/>
	
		<path opacity="0.3" fill="none" stroke="#F2F2F2" stroke-width="5" stroke-linecap="round" stroke-linejoin="round" stroke-miterlimit="10" d="
		M125.9221,83.4792c-16.3055,14.7906-34.486,39.2057-45.7325,73.3836"/>
	<g>
		<path fill="#FFFFFF" d="M58.2661,87.3537c-1.0238,0-2.0005-0.5903-2.4445-1.5854c-0.6034-1.349,0.0024-2.9304,1.3501-3.5324
			c36.7427-16.4084,52.4109-30.0774,52.5649-30.213c1.1048-0.9783,2.7972-0.8724,3.7742,0.2311
			c0.9794,1.1062,0.8748,2.7972-0.2324,3.7753c-0.6531,0.5785-16.4387,14.3504-53.923,31.0908
			C59,87.2781,58.6293,87.3537,58.2661,87.3537z"/>
	</g>
	<linearGradient id="SVGID_3_" gradientUnits="userSpaceOnUse" x1="2.6665" y1="138.6482" x2="81.1838" y2="138.6482">
		<stop  offset="0.0054" style="stop-color:#EE312C"/>
		<stop  offset="0.316" style="stop-color:#EC2D2A"/>
		<stop  offset="0.6182" style="stop-color:#E62125"/>
		<stop  offset="0.9159" style="stop-color:#DC0E1B"/>
		<stop  offset="1" style="stop-color:#D90718"/>
	</linearGradient>
	<path fill="url(#SVGID_3_)" d="M2.6665,106.0138c6.2029,20.6697,26.4703,22.1583,38.1712,5.8633
		c7.0258-9.7862,24.4752-22.4482,29.2547-15.6026c6.0176,8.6161-10.0135,16.4724-24.4099,21.7745
		c-9.2483,3.4057-23.4276,17.5119-15.6106,24.8408c5.2733,4.944,13.9444-14.2525,18.7058-7.6763
		c2.2904,3.1631-5.3254,7.7231-4.5707,11.1314c1.2979,5.8662,8.6188-4.6908,11.975-1.3501c2.544,2.5309-1.8438,8.2609-1.6349,9.3842
		c1.8387,9.8621,14.754-29.2497,24.5247-23.6629c9.3085,5.3227-15.198,30.2392-14.6625,40.1982
		c0.4285,7.9582,15.0752,12.0533,15.0752,12.0533c-11.1469-0.7103-31.8246-11.9228-39.5632-17.8072
		C32.0726,159.1899,9.3527,138.3608,2.6665,106.0138"/>
</g>
</svg>
