<?xml version="1.0" encoding="utf-8"?>
<!-- Generator: Adobe Illustrator 17.0.0, SVG Export Plug-In . SVG Version: 6.00 Build 0)  -->
<!DOCTYPE svg PUBLIC "-//W3C//DTD SVG 1.1//EN" "http://www.w3.org/Graphics/SVG/1.1/DTD/svg11.dtd">
<svg version="1.1" id="Layer_1" xmlns="http://www.w3.org/2000/svg" xmlns:xlink="http://www.w3.org/1999/xlink" x="0px" y="0px" viewBox="0 0 200 200" enable-background="new 0 0 200 200" xml:space="preserve">
<g>
	<path fill="#333333" d="M100.0095,199c-12.5017,0-24.8648-3.2167-35.7522-9.297c-16.8098-9.3853-28.7478-24.5759-33.622-42.7733
		c-4.7571-17.7865-2.1493-36.3396,7.3482-52.2444c12.7714-21.3998,36.581-34.6944,62.1241-34.6944
		c6.4764,0,12.879,0.8454,19.0857,2.5122l1.5497-7.5417c0.1218-0.5923,0.3702-1.1462,0.719-1.6216
		c0.0812-0.1956,0.179-0.3891,0.2793-0.5708c0.774-1.3946,2.7704-3.7229,7.4796-3.7229c4.5255,0,10.6224,2.1016,16.7264,5.7673
		c9.3398,5.612,17.1991,14.0993,13.6958,20.3943c-0.1027,0.1839-0.2079,0.3607-0.3272,0.5351
		c-0.2866,0.6901-0.738,1.3039-1.3469,1.7695l-5.6836,4.3296c21.4045,22.0493,25.7006,55.9294,9.8675,82.4492
		C149.3717,185.696,125.5575,199,100.0095,199L100.0095,199z"/>
	<g>
		<g>
			
				<radialGradient id="SVGID_1_" cx="-6080.5679" cy="3199.1353" r="26.0606" fx="-6078.0845" fy="3205.0173" gradientTransform="matrix(5.204 2.9042 -3.0026 5.0325 41336.6953 1618.3287)" gradientUnits="userSpaceOnUse">
				<stop  offset="0" style="stop-color:#8A8788"/>
				<stop  offset="0.15" style="stop-color:#848182"/>
				<stop  offset="0.3577" style="stop-color:#726F70"/>
				<stop  offset="0.599" style="stop-color:#545353"/>
				<stop  offset="0.8638" style="stop-color:#2C2B2B"/>
				<stop  offset="1" style="stop-color:#141414"/>
			</radialGradient>
			<path fill="url(#SVGID_1_)" d="M158.4941,162.2136c-18.651,31.2412-59.9579,41.9399-92.2595,23.9049
				c-32.304-18.042-43.3726-57.983-24.7217-89.2196c18.6463-31.2412,59.9533-41.9421,92.2573-23.9049
				C166.0788,91.0268,177.1453,130.9749,158.4941,162.2136z"/>
			
				<radialGradient id="SVGID_2_" cx="100.9341" cy="97.666" r="2.8208" gradientTransform="matrix(28.1143 0 0 28.1143 -2738.8691 -2690.6382)" gradientUnits="userSpaceOnUse">
				<stop  offset="0" style="stop-color:#8A8788"/>
				<stop  offset="0.15" style="stop-color:#848182"/>
				<stop  offset="0.3577" style="stop-color:#726F70"/>
				<stop  offset="0.599" style="stop-color:#545353"/>
				<stop  offset="0.8638" style="stop-color:#2C2B2B"/>
				<stop  offset="1" style="stop-color:#141414"/>
			</radialGradient>
			<path fill="url(#SVGID_2_)" d="M124.7789,55.8739l-5.2919,25.715c0,0,1.982,8.1912,14.6771,8.8191l21.192-16.1578
				L124.7789,55.8739z"/>
			<path fill="#727171" d="M155.9152,73.2401c-1.7052,3.0807-9.9418,1.4663-18.379-3.606
				c-8.4489-5.0723-13.9105-11.6874-12.2007-14.7703c1.7145-3.0783,9.9416-1.4638,18.3883,3.6085
				C152.1658,63.5445,157.6296,70.1596,155.9152,73.2401z"/>
			<path fill="#231F20" d="M150.0261,69.6986c-1.0581,1.8937-6.1135,0.9004-11.2959-2.2185
				c-5.1941-3.1118-8.547-7.1788-7.4962-9.0749c1.053-1.8913,6.104-0.9026,11.2956,2.2234
				C147.7191,63.7403,151.0696,67.8024,150.0261,69.6986z"/>
		</g>
	</g>
	<g>
		<path fill="#FFFFFF" d="M56.8469,94.972c-0.5779,0-1.1557-0.2032-1.6213-0.615c-1.0102-0.8967-1.1034-2.4417-0.2079-3.4532
			c19.9407-22.4937,48.5286-21.0333,49.7488-20.9641c1.3469,0.0812,2.3716,1.2384,2.2926,2.5853
			c-0.0812,1.3479-1.1892,2.3916-2.5863,2.296c-0.2675-0.0034-27.4728-1.3445-45.7965,19.3269
			C58.1939,94.6937,57.5204,94.972,56.8469,94.972z"/>
	</g>
	<g>
		<g>
			<path fill="#2B2B2B" d="M138.7231,65.9635c-1.2276,0-2.2855-0.9192-2.4263-2.1671c-0.7236-6.307-3.2336-11.045-7.4629-14.0814
				c-8.9815-6.4503-22.8541-3.5666-22.9901-3.5392c-1.3112,0.2866-2.6222-0.5563-2.9039-1.8769
				c-0.2842-1.3208,0.5563-2.621,1.8769-2.9039c0.6519-0.1433,16.1437-3.3541,26.8688,4.3462
				c5.3995,3.8772,8.5851,9.7638,9.4686,17.4989c0.1553,1.342-0.8094,2.554-2.1517,2.7081
				C138.9095,65.9588,138.8163,65.9635,138.7231,65.9635z"/>
		</g>
		<polygon fill-rule="evenodd" clip-rule="evenodd" fill="#FF9700" points="78.562,58.0088 51.5812,66.4293 67.9875,45.2611 
			39.6647,33.6023 73.5875,32.5899 67.9112,4.7972 86.6052,26.3091 106.3023,1 100.6734,31.8638 122.0278,31.9785 103.415,44.4827 
			122.0278,64.0531 96.6566,55.9933 89.0912,85.687 		"/>
		<polygon fill-rule="evenodd" clip-rule="evenodd" fill="#FCE622" points="86.727,30.178 103.2431,8.5368 97.6071,34.4526 
			116.8601,33.569 99.4461,44.0097 117.0678,61.3331 94.9707,52.7071 88.6303,77.5961 80.0307,54.9902 58.2799,61.7772 
			71.9158,44.1817 48.9879,35.1211 76.58,35.0233 72.1692,13.4254 		"/>
	</g>
	
		<path opacity="0.4" fill="none" stroke="#F2F2F2" stroke-width="5" stroke-linecap="round" stroke-linejoin="round" stroke-miterlimit="10" d="
		M158.5611,129.1073c0,0,0,34.1642-35.8694,50.1765"/>
</g>
</svg>
