<?xml version="1.0" encoding="utf-8"?>
<!-- Generator: Adobe Illustrator 17.0.0, SVG Export Plug-In . SVG Version: 6.00 Build 0)  -->
<!DOCTYPE svg PUBLIC "-//W3C//DTD SVG 1.1//EN" "http://www.w3.org/Graphics/SVG/1.1/DTD/svg11.dtd">
<svg version="1.1" id="Layer_1" xmlns="http://www.w3.org/2000/svg" xmlns:xlink="http://www.w3.org/1999/xlink" x="0px" y="0px"
	  viewBox="0 0 200 200" enable-background="new 0 0 200 200" xml:space="preserve">
<g>
	<g>
		<g>
			<g>
				<path fill="#E4A024" d="M99.9972,198.9986C45.4105,198.9986,1,154.5881,1,100C1,45.4121,45.4105,1.0014,99.9972,1.0014
					C154.5867,1.0014,199,45.4121,199,100C199,154.5881,154.5867,198.9986,99.9972,198.9986z"/>
				<path fill="#E4A024" d="M99.9972,197.6085c-53.8183,0-97.6071-43.7874-97.6071-97.6085S46.1789,2.3915,99.9972,2.3915
					c53.8238,0,97.6127,43.7874,97.6127,97.6084S153.8211,197.6085,99.9972,197.6085z"/>
				
					<radialGradient id="SVGID_1_" cx="33.4233" cy="-3.185" r="207.7892" gradientTransform="matrix(0.9829 0 0 0.9829 70.9436 -6.2246)" gradientUnits="userSpaceOnUse">
					<stop  offset="0" style="stop-color:#FFF7C2"/>
					<stop  offset="0.3321" style="stop-color:#FFEB8F"/>
					<stop  offset="1" style="stop-color:#FED01F"/>
				</radialGradient>
				<circle fill="url(#SVGID_1_)" cx="100" cy="100" r="92.0494"/>
				<g>
					<defs>
						<circle id="SVGID_2_" cx="100" cy="100" r="92.0494"/>
					</defs>
					<clipPath id="SVGID_3_">
						<use xlink:href="#SVGID_2_"  overflow="visible"/>
					</clipPath>
				</g>
			</g>
		</g>
	</g>
	
		<radialGradient id="SVGID_4_" cx="-34.1021" cy="122.7782" r="31.2514" gradientTransform="matrix(0.9829 0 0 0.9829 70.9436 -6.2246)" gradientUnits="userSpaceOnUse">
		<stop  offset="0" style="stop-color:#F15860;stop-opacity:0.5"/>
		<stop  offset="0.1648" style="stop-color:#F26262;stop-opacity:0.4246"/>
		<stop  offset="0.4393" style="stop-color:#F57B68;stop-opacity:0.2991"/>
		<stop  offset="0.6559" style="stop-color:#F7946D;stop-opacity:0.2"/>
		<stop  offset="0.7133" style="stop-color:#F89E67;stop-opacity:0.165"/>
		<stop  offset="0.8113" style="stop-color:#FAB955;stop-opacity:0.1053"/>
		<stop  offset="0.9371" style="stop-color:#FEE53A;stop-opacity:0.0285"/>
		<stop  offset="0.9839" style="stop-color:#FFF72E;stop-opacity:0"/>
	</radialGradient>
	<path fill="url(#SVGID_4_)" d="M68.1412,114.4553c0,16.9678-13.7575,30.7183-30.7158,30.7183S6.707,131.4231,6.707,114.4553
		c0-16.9667,13.76-30.7172,30.7183-30.7172S68.1412,97.4886,68.1412,114.4553z"/>
	
		<radialGradient id="SVGID_5_" cx="90.6423" cy="122.7782" r="31.2513" gradientTransform="matrix(0.9829 0 0 0.9829 70.9436 -6.2246)" gradientUnits="userSpaceOnUse">
		<stop  offset="0" style="stop-color:#F15860;stop-opacity:0.5"/>
		<stop  offset="0.1648" style="stop-color:#F26262;stop-opacity:0.4246"/>
		<stop  offset="0.4393" style="stop-color:#F57B68;stop-opacity:0.2991"/>
		<stop  offset="0.6559" style="stop-color:#F7946D;stop-opacity:0.2"/>
		<stop  offset="0.7133" style="stop-color:#F89E67;stop-opacity:0.165"/>
		<stop  offset="0.8113" style="stop-color:#FAB955;stop-opacity:0.1053"/>
		<stop  offset="0.9371" style="stop-color:#FEE53A;stop-opacity:0.0285"/>
		<stop  offset="0.9839" style="stop-color:#FFF72E;stop-opacity:0"/>
	</radialGradient>
	<path fill="url(#SVGID_5_)" d="M190.7541,114.4553c0,16.9678-13.7516,30.7183-30.7211,30.7183
		c-16.9556,0-30.7128-13.7505-30.7128-30.7183c0-16.9667,13.7572-30.7172,30.7128-30.7172
		C177.0024,83.738,190.7541,97.4886,190.7541,114.4553z"/>
	<g>
		<path fill="#FFFFFF" d="M158.6701,81.771c0,12.7391-8.9707,23.0727-20.0319,23.0727c-11.0612,0-20.0428-10.3336-20.0428-23.0727
			c0-12.7488,8.9816-23.0824,20.0428-23.0824C149.6993,58.6886,158.6701,69.0222,158.6701,81.771z"/>
		<path fill="#AA5B26" d="M138.6382,109.4403c-13.5862,0-24.6366-12.4146-24.6366-27.6759
			c0-15.2588,11.0504-27.6723,24.6366-27.6723c13.5809,0,24.6257,12.4135,24.6257,27.6723
			C163.2639,97.0257,152.2191,109.4403,138.6382,109.4403z"/>
		<path fill="#FFFFFF" d="M118.5954,81.7644c0-12.7421,8.9763-23.0757,20.0428-23.0757c11.0612,0,20.0319,10.3336,20.0319,23.0757
			c0,12.7458-8.9707,23.0794-20.0319,23.0794C127.5717,104.8437,118.5954,94.5101,118.5954,81.7644z"/>
		<path fill="#6D2F16" d="M158.1375,76.5546c-2.0524-10.2299-9.9967-17.8661-19.4989-17.8661c-0.3481,0-0.6878,0.0397-1.0317,0.0599
			c-5.2442,2.3889-8.9056,7.7763-8.9056,14.0533c0,8.4886,6.6944,15.3714,14.9536,15.3714
			C150.6573,88.173,156.5078,83.226,158.1375,76.5546z"/>
		<path fill="none" d="M118.5954,81.7644c0-12.7421,8.9763-23.0757,20.0428-23.0757c11.0612,0,20.0319,10.3336,20.0319,23.0757
			c0,12.7458-8.9707,23.0794-20.0319,23.0794C127.5717,104.8437,118.5954,94.5101,118.5954,81.7644z"/>
	</g>
	<g>
		<path fill="#FFFFFF" d="M80.7635,81.771c0,12.7391-8.9705,23.0727-20.0344,23.0727c-11.0587,0-20.04-10.3336-20.04-23.0727
			c0-12.7488,8.9813-23.0824,20.04-23.0824C71.793,58.6886,80.7635,69.0222,80.7635,81.771z"/>
		<path fill="#AA5B26" d="M60.7291,109.4403c-13.5837,0-24.6341-12.4146-24.6341-27.6759c0-15.2588,11.0504-27.6723,24.6341-27.6723
			c13.5834,0,24.6285,12.4135,24.6285,27.6723C85.3576,97.0257,74.3125,109.4403,60.7291,109.4403z"/>
		<path fill="#FFFFFF" d="M40.6891,81.7644c0-12.7421,8.9813-23.0757,20.04-23.0757c11.064,0,20.0344,10.3336,20.0344,23.0757
			c0,12.7458-8.9705,23.0794-20.0344,23.0794C49.6704,104.8437,40.6891,94.5101,40.6891,81.7644z"/>
		<path fill="#6D2F16" d="M80.2317,76.5546c-2.0538-10.2299-9.9967-17.8661-19.5031-17.8661c-0.3467,0-0.685,0.0397-1.0289,0.0599
			c-5.2428,2.3887-8.9056,7.7762-8.9056,14.0533c0,8.4886,6.6958,15.3714,14.955,15.3714
			C72.7514,88.173,78.6019,83.226,80.2317,76.5546z"/>
		<path fill="none" d="M40.6891,81.7644c0-12.7421,8.9813-23.0757,20.04-23.0757c11.064,0,20.0344,10.3336,20.0344,23.0757
			c0,12.7458-8.9705,23.0794-20.0344,23.0794C49.6704,104.8437,40.6891,94.5101,40.6891,81.7644z"/>
	</g>
	<g>
		
			<radialGradient id="SVGID_6_" cx="34.7934" cy="205.9855" r="53.8013" gradientTransform="matrix(0.9829 0 0 0.9829 70.9436 -6.2246)" gradientUnits="userSpaceOnUse">
			<stop  offset="0.0054" style="stop-color:#A34E1F"/>
			<stop  offset="0.3187" style="stop-color:#9E491D"/>
			<stop  offset="0.6963" style="stop-color:#8F3A15"/>
			<stop  offset="1" style="stop-color:#7E290D"/>
		</radialGradient>
		<path fill="url(#SVGID_6_)" d="M115.6389,165.8706H84.3611c-1.1594,0-2.1995-0.7209-2.604-1.8083
			c-0.407-1.0873-0.0923-2.3132,0.7821-3.0733l15.6389-13.5537c1.0479-0.9041,2.5956-0.9041,3.6435,0l15.6389,13.5537
			c0.8772,0.7601,1.1894,1.9859,0.7821,3.0733C117.838,165.1497,116.7982,165.8706,115.6389,165.8706z"/>
	</g>
	<g>
		<path fill="#823308" d="M51.9694,48.0637c-1.406,0-2.6242-1.0455-2.8037-2.4764c-0.1961-1.5496,0.9033-2.9639,2.4529-3.1587
			c16.4549-2.0689,23.623-14.4301,23.9186-14.955c0.7707-1.359,2.4916-1.8452,3.8478-1.0787
			c1.359,0.7624,1.848,2.4778,1.0911,3.8396c-0.3508,0.6257-8.7702,15.3707-28.1504,17.807
			C52.2042,48.0568,52.0854,48.0637,51.9694,48.0637z"/>
	</g>
	<g>
		<path fill="#823308" d="M145.3371,48.0637c-0.116,0-0.2348-0.0069-0.3563-0.0221c-19.3774-2.4363-27.8023-17.18-28.1504-17.807
			c-0.7624-1.3646-0.2707-3.0868,1.0939-3.8479c1.3535-0.7596,3.0827-0.2721,3.8451,1.0939
			c0.2928,0.5179,7.4609,12.8791,23.9186,14.9481c1.5496,0.1947,2.649,1.609,2.4529,3.1587
			C147.9613,47.0182,146.7431,48.0637,145.3371,48.0637z"/>
	</g>
	<g>
		<path fill="#20C9E5" d="M172.8782,69.0495c-13.2173-0.3297-23.6838-12.1146-23.3363-26.2711
			c0.3311-13.0813,19.5838-34.0661,21.7776-36.416l3.2065-3.4319l3.0302,3.588c2.0716,2.4558,20.2463,24.3733,19.926,37.456
			c-0.3395,13.8292-11.121,25.082-24.0366,25.082L172.8782,69.0495z"/>
		<path fill="#ADF5F7" d="M193.3119,43.8713c-0.2905,11.8797-9.4025,21.2819-20.3305,21.0092
			c-10.9447-0.2727-19.5623-10.1218-19.269-21.999c0.2986-11.873,20.6564-33.6724,20.6564-33.6724
			S193.6049,31.9941,193.3119,43.8713z"/>
	</g>
	<g>
		<g>
			<path fill="#FF6969" d="M12.4661,124.5042c-0.4723,0-0.9475-0.1561-1.3425-0.4779c-0.906-0.7417-1.0414-2.0772-0.3011-2.9846
				l13.0545-15.9894c0.7431-0.9074,2.08-1.0428,2.986-0.3025c0.906,0.7417,1.0414,2.0772,0.3011,2.9846l-13.0545,15.9894
				C13.6898,124.2377,13.0793,124.5042,12.4661,124.5042z"/>
		</g>
		<g>
			<path fill="#FF6969" d="M25.493,124.8951c-0.4723,0-0.9475-0.1561-1.3425-0.4779c-0.906-0.7417-1.0414-2.0772-0.3011-2.9846
				l13.0545-15.9894c0.7431-0.9102,2.08-1.0441,2.986-0.3025c0.906,0.7417,1.0414,2.0772,0.3011,2.9846l-13.0545,15.9894
				C26.7167,124.6285,26.1062,124.8951,25.493,124.8951z"/>
		</g>
	</g>
	<g>
		<g>
			<path fill="#FF6969" d="M150.1297,124.1216c-0.4724,0-0.9475-0.1561-1.3425-0.4779c-0.906-0.7417-1.0414-2.0772-0.3011-2.9846
				l12.8308-15.716c0.743-0.9116,2.0772-1.0414,2.986-0.3025c0.906,0.7417,1.0414,2.0772,0.3011,2.9846l-12.8308,15.716
				C151.3534,123.8551,150.7429,124.1216,150.1297,124.1216z"/>
		</g>
		<g>
			<path fill="#FF6969" d="M162.9273,124.5056c-0.4724,0-0.9475-0.1561-1.3425-0.4779c-0.906-0.7417-1.0414-2.0772-0.3011-2.986
				l12.8335-15.716c0.7431-0.9074,2.08-1.04,2.986-0.3011c0.906,0.7417,1.0414,2.0772,0.3011,2.986l-12.8335,15.716
				C164.151,124.239,163.5406,124.5056,162.9273,124.5056z"/>
		</g>
	</g>
</g>
</svg>
