<?xml version="1.0" encoding="utf-8"?>
<!-- Generator: Adobe Illustrator 17.0.0, SVG Export Plug-In . SVG Version: 6.00 Build 0)  -->
<!DOCTYPE svg PUBLIC "-//W3C//DTD SVG 1.1//EN" "http://www.w3.org/Graphics/SVG/1.1/DTD/svg11.dtd">
<svg version="1.1" id="Layer_1" xmlns="http://www.w3.org/2000/svg" xmlns:xlink="http://www.w3.org/1999/xlink" x="0px" y="0px" viewBox="0 0 200 200" enable-background="new 0 0 200 200" xml:space="preserve">
<g>
	<g>
		<g>
			<path fill="#FF9700" d="M100.0014,199c-45.9119,0-94.7223-12.559-94.7223-35.8355c0-23.2686,48.8104-35.8222,94.7223-35.8222
				c45.9171,0,94.7196,12.5535,94.7196,35.8222C194.7209,186.441,145.9184,199,100.0014,199z"/>
			<path fill="#FFFFFF" d="M189.2601,163.1645c0,16.7798-39.9608,30.3747-89.2588,30.3747s-89.2588-13.5949-89.2588-30.3747
				c0-16.7717,39.9608-30.3614,89.2588-30.3614S189.2601,146.3928,189.2601,163.1645z"/>
			<path opacity="0.3" fill="#F2D1BB" d="M175.8956,162.187c0,13.6689-34.0391,24.747-76.0348,24.747
				c-41.9984,0-76.0294-11.0781-76.0294-24.747c0-13.6559,34.031-24.734,76.0294-24.734
				C141.8565,137.4529,175.8956,148.5311,175.8956,162.187z"/>
		</g>
		
			<radialGradient id="SVGID_1_" cx="150.5709" cy="117.588" r="0" gradientTransform="matrix(0.9568 0 0 0.9568 4.3569 4.3046)" gradientUnits="userSpaceOnUse">
			<stop  offset="0" style="stop-color:#F3C5AC"/>
			<stop  offset="0.3143" style="stop-color:#EEB99A"/>
			<stop  offset="0.6683" style="stop-color:#EBB08D"/>
			<stop  offset="1" style="stop-color:#EAAD89"/>
		</radialGradient>
		<path fill="url(#SVGID_1_)" d="M148.4197,116.8101"/>
		<path fill="#CC7015" d="M99.9959,177.4035c-34.1661,0-68.7565-7.7873-68.7565-22.6726V81.3775
			c0-2.2628,1.8336-4.0963,4.0963-4.0963h129.3363c2.2576,0,4.0909,1.8336,4.0909,4.0963v73.3534
			C168.763,169.6161,134.1701,177.4035,99.9959,177.4035z"/>
		
			<radialGradient id="SVGID_2_" cx="103.1124" cy="214.4704" r="184.2813" gradientTransform="matrix(0.9568 0 0 0.9568 4.3569 4.3046)" gradientUnits="userSpaceOnUse">
			<stop  offset="0.1174" style="stop-color:#FEEB65"/>
			<stop  offset="1" style="stop-color:#F6B330"/>
		</radialGradient>
		<path fill="url(#SVGID_2_)" d="M35.3358,81.3775v73.3534c0,10.2617,28.9492,18.5789,64.6602,18.5789
			c35.7218,0,64.6762-8.3172,64.6762-18.5789V81.3775H35.3358z"/>
		<g>
			<defs>
				<path id="SVGID_3_" d="M35.3358,81.3775v73.3534c0,10.2617,28.9492,18.5789,64.6602,18.5789
					c35.7218,0,64.6762-8.3172,64.6762-18.5789V81.3775H35.3358z"/>
			</defs>
			<clipPath id="SVGID_4_">
				<use xlink:href="#SVGID_3_"  overflow="visible"/>
			</clipPath>
			
				<path clip-path="url(#SVGID_4_)" fill="none" stroke="#CC7015" stroke-width="3" stroke-linecap="round" stroke-linejoin="round" stroke-miterlimit="10" d="
				M30.5321,131.1709c0,5.368,4.8037,9.7161,10.7336,9.7161c1.5896,0,3.0946-0.3367,4.4512-0.901
				c1.9817,6.0862,7.6943,10.4872,14.4349,10.4872c4.6897,0,8.8761-2.125,11.6582-5.4662
				c2.6706,5.1271,8.0228,8.6376,14.2015,8.6376c5.845,0,10.9587-3.1581,13.7487-7.8481c2.7954,4.69,7.8986,7.8481,13.7541,7.8481
				c6.3271,0,11.78-3.6883,14.3817-9.0245c2.7769,3.5559,7.0957,5.8531,11.9602,5.8531c6.7406,0,12.4532-4.401,14.4297-10.4845
				c1.362,0.5616,2.8562,0.8983,4.4512,0.8983c5.9299,0,10.7363-4.3481,10.7363-9.7161"/>
		</g>
	</g>
	<path fill="#820909" d="M113.4215,132.5329c-5.1428,0-10.0658-2.0137-13.7487-5.4714c-3.6856,3.4576-8.6059,5.4714-13.7514,5.4714
		c-5.7655,0-11.128-2.4429-14.8852-6.5976c-3.1901,2.215-7.0002,3.4286-10.9718,3.4286c-7.048,0-13.3778-3.7862-16.7481-9.7346
		c-0.71,0.1007-1.4228,0.1511-2.1407,0.1511c-8.1767,0-14.8299-6.1947-14.8299-13.8097V84.4589c0-0.2358,0.016-0.4688,0.045-0.6995
		c-0.029-0.3098-0.045-0.62-0.045-0.9352c0-18.1337,37.8175-27.9187,73.3987-27.9187c35.74,0,73.7349,9.785,73.7349,27.9187
		c0,0.3153-0.0184,0.6254-0.0478,0.9325c0.0293,0.2227,0.0478,0.4585,0.0478,0.7022v21.5119c0,7.615-6.6502,13.8097-14.8269,13.8097
		c-0.7182,0-1.4255-0.0505-2.1355-0.1511c-3.3757,5.9483-9.7083,9.7346-16.7508,9.7346c-4.1172,0-8.028-1.2877-11.2713-3.6405
		C124.7484,130.0156,119.3221,132.5329,113.4215,132.5329z"/>
	
		<radialGradient id="SVGID_5_" cx="100.9632" cy="74.8232" r="34.2977" gradientTransform="matrix(4.295603e-011 0.9568 -2.427 1.089653e-010 282.554 -20.7056)" gradientUnits="userSpaceOnUse">
		<stop  offset="0.0054" style="stop-color:#BD211C"/>
		<stop  offset="0.3903" style="stop-color:#B8201C"/>
		<stop  offset="0.8542" style="stop-color:#A91E1D"/>
		<stop  offset="1" style="stop-color:#A31D1D"/>
	</radialGradient>
	<path fill="url(#SVGID_5_)" d="M169.3832,82.8242c0-13.1605-31.3658-23.8251-69.6388-23.8251
		c-38.2733,0-69.3051,10.6646-69.3051,23.8251c0,0.3313,0.0317,0.6571,0.0716,0.983c-0.0133,0.2198-0.0716,0.4292-0.0716,0.6517
		v21.5119c0,5.3656,4.8091,9.7161,10.7363,9.7161c1.5948,0,3.0946-0.3364,4.4564-0.9008
		c1.9765,6.0886,7.6891,10.4842,14.4324,10.4842c4.6818,0,8.8734-2.1277,11.6555-5.4659c2.6706,5.1268,8.0228,8.6349,14.2015,8.6349
		c5.8556,0,10.9615-3.153,13.7514-7.8454c2.7927,4.6924,7.901,7.8454,13.7487,7.8454c6.335,0,11.7879-3.6856,14.3844-9.0218
		c2.7796,3.5583,7.0982,5.8528,11.9602,5.8528c6.7406,0,12.4532-4.3956,14.4324-10.4818c1.3593,0.5619,2.8616,0.8983,4.4539,0.8983
		c5.9245,0,10.7308-4.3506,10.7308-9.7161V84.4589c0-0.2252-0.0532-0.4344-0.0689-0.6544
		C169.3512,83.4813,169.3832,83.1527,169.3832,82.8242z M126.3592,102.9846c-0.0052,0.0108-0.0106,0.0187-0.0157,0.0293
		c-0.0054-0.0079-0.0106-0.016-0.0187-0.0266C126.3248,102.9873,126.3486,102.9873,126.3592,102.9846z"/>
	<g>
		<path fill="#FF5A76" d="M46.3634,80.9323c-7.2705,0-12.3525-4.5492-12.3525-11.0646c0-6.1445,4.9258-15.4338,12.3525-15.4338
			c7.424,0,12.3468,9.2893,12.3468,15.4338C58.7102,76.3831,53.6336,80.9323,46.3634,80.9323z"/>
		<path fill="none" stroke="#FFFFFF" stroke-linecap="round" stroke-linejoin="round" stroke-miterlimit="10" d="M42.5428,59.924
			c0,0-3.0472,1.6797-4.1123,6.7935"/>
	</g>
	<g>
		<path fill="#FF5A76" d="M154.9481,80.9323c-7.2702,0-12.3522-4.5492-12.3522-11.0646c0-6.1445,4.9282-15.4338,12.3522-15.4338
			c7.4189,0,12.3471,9.2893,12.3471,15.4338C167.2952,76.3831,162.2186,80.9323,154.9481,80.9323z"/>
		<path fill="none" stroke="#FFFFFF" stroke-linecap="round" stroke-linejoin="round" stroke-miterlimit="10" d="M151.1274,59.924
			c0,0-3.0469,1.6797-4.1148,6.7935"/>
	</g>
	<g>
		<path fill="#FF5A76" d="M100.0014,100.1629c-7.2705,0-12.3471-4.5467-12.3471-11.0646c0-6.1418,4.9255-15.4338,12.3471-15.4338
			c7.4295,0,12.3522,9.292,12.3522,15.4338C112.3536,95.6162,107.277,100.1629,100.0014,100.1629z"/>
		<path fill="none" stroke="#FFFFFF" stroke-linecap="round" stroke-linejoin="round" stroke-miterlimit="10" d="M96.1858,79.1543
			c0,0-3.0523,1.68-4.1172,6.7911"/>
	</g>
	<g>
		<g>
			<path fill="#FF9700" d="M122.5811,82.5168c-10.2275,0-12.0503-5.4687-12.0503-5.4687V43.6368
				c0-4.4618,6.2476-6.4915,12.0503-6.4915c5.8078,0,12.0608,2.0297,12.0608,6.4915v33.4113
				C134.642,77.0481,131.9288,82.5168,122.5811,82.5168z"/>
			<path fill="#FFFFFF" d="M122.5811,39.8585c-5.1509,0-9.3371,1.6957-9.3371,3.7784v32.9609l0,0
				c0.5695,1.8677,4.5785,3.3144,9.3371,3.3144c4.7744,0,8.7779-1.4467,9.3477-3.3144l0,0V43.6368
				C131.9288,41.5542,127.7478,39.8585,122.5811,39.8585z"/>
			<path fill="#191E2F" d="M124.7696,41.7026c0,1.2402-1.1498,2.247-2.5675,2.247l0,0c-1.4255,0-2.5726-1.0069-2.5726-2.247v-6.3059
				c0-1.2426,1.1471-2.2522,2.5726-2.2522l0,0c1.4176,0,2.5675,1.0096,2.5675,2.2522V41.7026z"/>
		</g>
		<path fill="#FF9700" d="M121.8128,41.1915c-3.9984-0.0982-7.6997-1.8629-10.4129-4.9627
			c-2.6364-3.01-4.0301-6.9368-3.9322-11.0567c0.191-7.5752,10.2753-18.7406,12.2942-20.9025L122.8142,1l2.8879,3.4178
			c1.9079,2.2603,11.4118,13.9131,11.2238,21.4883c-0.2067,8.4309-6.8255,15.2879-14.7583,15.2879L121.8128,41.1915z"/>
		<path fill="#FAF27F" d="M132.9514,25.8078c-0.1563,6.4519-5.1056,11.5603-11.0407,11.4118
			c-5.9429-0.1484-10.6275-5.4952-10.4658-11.9496c0.1614-6.4492,11.2208-18.2873,11.2208-18.2873
			S133.1131,19.3562,132.9514,25.8078z"/>
		<g>
			<defs>
				<rect id="SVGID_6_" x="113.244" y="43.6368" width="18.6848" height="32.9609"/>
			</defs>
			<clipPath id="SVGID_7_">
				<use xlink:href="#SVGID_6_"  overflow="visible"/>
			</clipPath>
			<path clip-path="url(#SVGID_7_)" fill="none" stroke="#EE2C44" stroke-width="3" stroke-miterlimit="10" d="M136.5547,45.4864
				c0,0-6.8437,18.1017-25.8331,23.6208"/>
		</g>
	</g>
	<g>
		<g>
			<path fill="#FF9700" d="M76.966,82.5168c-10.2275,0-12.0502-5.4687-12.0502-5.4687V43.6368
				c0-4.4618,6.2476-6.4915,12.0502-6.4915c5.8078,0,12.0608,2.0297,12.0608,6.4915v33.4113
				C89.0269,77.0481,86.3137,82.5168,76.966,82.5168z"/>
			<path fill="#FFFFFF" d="M76.966,39.8585c-5.1509,0-9.3371,1.6957-9.3371,3.7784v32.9609l0,0
				c0.5695,1.8677,4.5785,3.3144,9.3371,3.3144c4.7744,0,8.7779-1.4467,9.3477-3.3144l0,0V43.6368
				C86.3137,41.5542,82.1327,39.8585,76.966,39.8585z"/>
			<path fill="#191E2F" d="M79.1545,41.7026c0,1.2402-1.1498,2.247-2.5675,2.247l0,0c-1.4255,0-2.5726-1.0069-2.5726-2.247v-6.3059
				c0-1.2426,1.1471-2.2522,2.5726-2.2522l0,0c1.4176,0,2.5675,1.0096,2.5675,2.2522V41.7026z"/>
		</g>
		<path fill="#FF9700" d="M76.1977,41.1915c-3.9984-0.0982-7.6997-1.8629-10.4129-4.9627c-2.6364-3.01-4.0301-6.9368-3.9322-11.0567
			c0.191-7.5752,10.2753-18.7406,12.2942-20.9025L77.1991,1l2.8879,3.4178c1.9079,2.2603,11.4118,13.9131,11.2238,21.4883
			c-0.2067,8.4309-6.8255,15.2879-14.7583,15.2879L76.1977,41.1915z"/>
		<path fill="#FAF27F" d="M87.3363,25.8078c-0.1563,6.4519-5.1056,11.5603-11.0407,11.4118
			c-5.9429-0.1484-10.6275-5.4952-10.4658-11.9496c0.1614-6.4492,11.2208-18.2873,11.2208-18.2873S87.498,19.3562,87.3363,25.8078z"
			/>
		<g>
			<defs>
				<rect id="SVGID_8_" x="67.629" y="43.6368" width="18.6848" height="32.9609"/>
			</defs>
			<clipPath id="SVGID_9_">
				<use xlink:href="#SVGID_8_"  overflow="visible"/>
			</clipPath>
			<path clip-path="url(#SVGID_9_)" fill="none" stroke="#EE2C44" stroke-width="3" stroke-miterlimit="10" d="M90.9397,45.4864
				c0,0-6.8437,18.1017-25.8331,23.6208"/>
		</g>
	</g>
</g>
</svg>
