<?xml version="1.0" encoding="utf-8"?>
<!-- Generator: Adobe Illustrator 17.0.0, SVG Export Plug-In . SVG Version: 6.00 Build 0)  -->
<!DOCTYPE svg PUBLIC "-//W3C//DTD SVG 1.1//EN" "http://www.w3.org/Graphics/SVG/1.1/DTD/svg11.dtd">
<svg version="1.1" id="Layer_1" xmlns="http://www.w3.org/2000/svg" xmlns:xlink="http://www.w3.org/1999/xlink" x="0px" y="0px" viewBox="0 0 200 200" enable-background="new 0 0 200 200" xml:space="preserve">
<g>
	<g>
		<path fill="#DC0303" d="M193.4243,42.8515c-8.1319-18.1773-23.8206-29.0246-41.9714-29.0246
			c-1.1059,0-2.2221,0.0347-3.3519,0.1225c-14.3111,1.0393-22.9813,5.3423-33.9939,16.9331
			C106.1934,46.7922,92.41,83.2748,86.8224,97.815c-0.8153,2.1129,0.8101,4.3061,3.0242,3.8316l42.936-7.1008
			c2.281-0.4876,4.2714,1.6013,3.6586,3.8556c-4.956,18.2573-24.327,81.3263-26.4214,87.1215
			c17.5563-14.4843,63.2556-53.2263,76.0186-74.3318C204.0612,81.3591,200.0032,57.5623,193.4243,42.8515z"/>
		<path fill="#F42130" d="M188.455,45.4173c-7.2501-16.2027-21.8676-26.8636-39.981-25.5553
			c-17.3298,1.2578-30.943,10.9218-42.2806,26.9302l-19.451,51.1855c-0.9326,1.9318,0.7915,4.0821,2.8804,3.5866
			c11.0391-2.63,33.6982-5.3557,43.0879-6.6667c2.0728-0.2879,3.7702,1.6226,3.248,3.6477
			c-4.1593,16.0723-22.0542,73.9297-22.8536,76.9165c18.2573-15.3102,57.1114-48.9789,68.3022-67.5
			C196.2194,83.448,195.8011,61.8495,188.455,45.4173z"/>
		<g>
			<path fill="#DC0303" d="M96.5161,181.846l-3.3361,4.7268c0.7034,0.5648,1.4949,0.922,2.3181,1.087l22.2408-72.8396
				c0.7885-2.6859-1.5429-5.252-4.29-4.7271l-42.0541,6.7227c-1.953-0.1198-3.1121-1.7214-2.7525-3.613
				c4.7775-24.9346,19.7789-51.0417,27.1141-74.7638c-12.4726-16.2428-26.9089-24.7747-43.919-25.9736
				c-1.1299-0.0854-2.2463-0.1252-3.3546-0.1252c-18.1481,0-33.8368,10.8844-41.9769,29.1337
				c-6.5199,14.6922-10.5275,38.4596,7.4686,68.2517c14.0633,23.3385,68.2888,67.9797,79.0243,76.6928L96.5161,181.846z"/>
			<path fill="#F42130" d="M114.5946,109.96c-10.802,2.2382-29.1951,4.431-39.8318,6.464
				c-6.5093,1.2445-6.7306-2.2914-5.4116-6.5279c3.9462-12.6593,17.4259-48.4971,24.1139-65.0384
				C82.1916,29.1238,68.6557,19.5902,51.4669,18.378c-18.1186-1.3138-32.7361,9.4056-39.9837,25.6459
				c-7.2926,16.4295-7.6924,37.9559,7.1248,62.4775c14.5378,24.1406,75.9335,73.7406,77.908,75.3447
				c0.1599-0.1307,16.2507-50.6152,21.5131-68.1344C118.6767,111.5586,116.7957,109.5016,114.5946,109.96z"/>
			
				<radialGradient id="SVGID_1_" cx="99.1235" cy="-21.8655" r="162.8099" gradientTransform="matrix(1 0 0 1.0746 0 23.7619)" gradientUnits="userSpaceOnUse">
				<stop  offset="0" style="stop-color:#FF6B7C;stop-opacity:0.5"/>
				<stop  offset="0.0843" style="stop-color:#FD6174;stop-opacity:0.5"/>
				<stop  offset="0.2274" style="stop-color:#F6465E;stop-opacity:0.5"/>
				<stop  offset="0.3656" style="stop-color:#EE2644;stop-opacity:0.5"/>
				<stop  offset="0.5138" style="stop-color:#E61D33;stop-opacity:0.5606"/>
				<stop  offset="0.8051" style="stop-color:#D30508;stop-opacity:0.6797"/>
				<stop  offset="0.8548" style="stop-color:#CF0000;stop-opacity:0.7"/>
			</radialGradient>
			<path fill="url(#SVGID_1_)" d="M117.4963,115.4914c0.9007-2.9975,0.6636-6.3841-4.7508-5.3317
				c-11.223,2.177-28.9954,4.6417-40.0582,6.5096c-2.6701,0.4529-5.0681-2.4433-3.9863-4.9268c0,0,18.1986-50.6499,24.7641-66.8848
				C82.1916,29.1238,68.6557,19.5902,51.4669,18.378c-18.1186-1.3138-32.7361,9.4056-39.9837,25.6459
				c-7.2926,16.4295-7.6924,37.9559,7.1248,62.4775c14.5378,24.1406,75.9335,73.7406,77.908,75.3447
				C96.6705,181.7181,111.653,134.9372,117.4963,115.4914z"/>
		</g>
		
			<radialGradient id="SVGID_2_" cx="112.6003" cy="-20.419" r="160.0342" gradientTransform="matrix(1 0 0 1.0746 0 23.7619)" gradientUnits="userSpaceOnUse">
			<stop  offset="0" style="stop-color:#FF6B7C;stop-opacity:0.5"/>
			<stop  offset="0.0843" style="stop-color:#FD6174;stop-opacity:0.5"/>
			<stop  offset="0.2274" style="stop-color:#F6465E;stop-opacity:0.5"/>
			<stop  offset="0.3656" style="stop-color:#EE2644;stop-opacity:0.5"/>
			<stop  offset="0.5138" style="stop-color:#E61D33;stop-opacity:0.5606"/>
			<stop  offset="0.8051" style="stop-color:#D30508;stop-opacity:0.6797"/>
			<stop  offset="0.8548" style="stop-color:#CF0000;stop-opacity:0.7"/>
		</radialGradient>
		<path fill="url(#SVGID_2_)" d="M188.455,45.4173c-7.2501-16.2027-21.8676-26.8636-39.981-25.5553
			c-17.3298,1.2578-30.943,10.9218-42.2806,26.9302L86.9263,97.5913c-1.0046,2.0889,0.8499,4.4097,3.1069,3.8742
			c11.372-2.7072,30.9828-4.6736,41.5903-6.6853c3.544-0.6715,5.1268,0.2799,4.0422,4.8921
			c-3.0455,12.9468-14.8388,47.3992-19.9492,65.8482c-0.8475,3.0668-1.6788,6.4588-2.6114,9.9412
			c18.2573-15.3102,57.1114-48.9789,68.3022-67.5C196.2194,83.448,195.8011,61.8495,188.455,45.4173z"/>
		
			<linearGradient id="SVGID_3_" gradientUnits="userSpaceOnUse" x1="2393.4114" y1="42.0799" x2="2393.4114" y2="-47.3767" gradientTransform="matrix(-1 0 0 -1 2543.957 38.9082)">
			<stop  offset="0.2097" style="stop-color:#FFE8E5;stop-opacity:0.5"/>
			<stop  offset="0.5376" style="stop-color:#FFBAA9;stop-opacity:0.3"/>
			<stop  offset="0.6298" style="stop-color:#FFAE9F;stop-opacity:0.2402"/>
			<stop  offset="0.7954" style="stop-color:#FF8F83;stop-opacity:0.1327"/>
			<stop  offset="1" style="stop-color:#FF605A;stop-opacity:0"/>
		</linearGradient>
		<path fill="url(#SVGID_3_)" d="M110.739,57.8234c0-20.9617,17.8204-37.9508,39.8001-37.9508
			c21.9901,0,39.8132,16.9891,39.8132,37.9508c0,20.9565-17.8232,37.948-39.8132,37.948
			C134.448,95.7714,110.739,78.7745,110.739,57.8234z"/>
		
			<linearGradient id="SVGID_4_" gradientUnits="userSpaceOnUse" x1="-3598.4805" y1="43.6332" x2="-3598.4805" y2="-45.8234" gradientTransform="matrix(1 0 0 -1 3647.9451 38.9082)">
			<stop  offset="0.2097" style="stop-color:#FFE8E5;stop-opacity:0.5"/>
			<stop  offset="0.5376" style="stop-color:#FFBAA9;stop-opacity:0.3"/>
			<stop  offset="0.6298" style="stop-color:#FFAE9F;stop-opacity:0.2402"/>
			<stop  offset="0.7954" style="stop-color:#FF8F83;stop-opacity:0.1327"/>
			<stop  offset="1" style="stop-color:#FF605A;stop-opacity:0"/>
		</linearGradient>
		<path fill="url(#SVGID_4_)" d="M89.2125,54.0663c-1.2016-19.9279-18.4837-35.747-39.6853-35.747
			c-21.9876,0-39.8105,16.9888-39.8105,37.9508c0,20.9562,17.8229,37.948,39.8105,37.948c7.6203,0,14.7135-2.0783,20.7644-5.6195
			C75.7061,76.7147,83.2574,65.6811,89.2125,54.0663z"/>
	</g>
</g>
</svg>
