<?xml version="1.0" encoding="utf-8"?>
<!-- Generator: Adobe Illustrator 17.0.0, SVG Export Plug-In . SVG Version: 6.00 Build 0)  -->
<!DOCTYPE svg PUBLIC "-//W3C//DTD SVG 1.1//EN" "http://www.w3.org/Graphics/SVG/1.1/DTD/svg11.dtd">
<svg version="1.1" id="Layer_1" xmlns="http://www.w3.org/2000/svg" xmlns:xlink="http://www.w3.org/1999/xlink" x="0px" y="0px" viewBox="0 0 200 200" enable-background="new 0 0 200 200" xml:space="preserve">
<g>
	<path fill="#823308" d="M99.9988,199c-54.0762,0-96.4343-25.7938-96.4343-58.721c0-12.3251,5.9664-23.9385,17.3049-33.7879
		c-1.2822-3.5746-1.9312-7.233-1.9312-10.9226c0-18.2052,15.2402-34.3637,40.7696-43.2244
		c1.6383-0.5705,40.1967-11.7519,32.137-44.7132c-0.4135-1.6825,0.0158-3.4594,1.1461-4.7729C94.0142,1.6726,95.5005,1,97.0496,1
		c0.1648,0,0.3296,0.0078,0.4971,0.0236c0.4475,0.0418,43.9546,2.0097,48.6908,53.6338
		c21.832,9.2111,34.7485,24.3337,34.7485,40.9111c0,3.6686-0.641,7.3113-1.913,10.8727
		c11.3779,9.8601,17.3625,21.4891,17.3625,33.8377C196.4355,173.2062,154.0748,199,99.9988,199z"/>
	<radialGradient id="SVGID_1_" cx="27.6036" cy="104.7006" r="239.4395" gradientUnits="userSpaceOnUse">
		<stop  offset="0.0054" style="stop-color:#E57A2E"/>
		<stop  offset="0.1779" style="stop-color:#E0762C"/>
		<stop  offset="0.3864" style="stop-color:#D16A28"/>
		<stop  offset="0.6132" style="stop-color:#B95720"/>
		<stop  offset="0.8517" style="stop-color:#973D15"/>
		<stop  offset="1" style="stop-color:#7E290D"/>
	</radialGradient>
	<path fill="url(#SVGID_1_)" d="M172.5677,108.0428c1.9783-3.9567,3.059-8.1409,3.059-12.4743
		c0-15.5829-13.733-29.2768-34.4867-37.1821C138.2825,7.5133,97.0496,6.3592,97.0496,6.3592
		c9.3523,38.247-35.5886,51.0485-35.5886,51.0485h0.0027c-22.2428,7.7194-37.1663,21.913-37.1663,38.1607
		c0,4.349,1.086,8.5463,3.0799,12.5162c-11.5767,8.952-18.4536,20.0997-18.4536,32.1943c0,29.4705,40.775,53.3618,91.0751,53.3618
		s91.0775-23.8913,91.0775-53.3618C191.0763,128.1658,184.1758,116.9999,172.5677,108.0428z"/>
	
		<radialGradient id="SVGID_2_" cx="-235.5815" cy="40.8564" r="222.3555" gradientTransform="matrix(0.9129 0 0 1.0303 330.9112 -6.4887)" gradientUnits="userSpaceOnUse">
		<stop  offset="0.0054" style="stop-color:#D1532E"/>
		<stop  offset="0.201" style="stop-color:#CC502C"/>
		<stop  offset="0.4374" style="stop-color:#BD4926"/>
		<stop  offset="0.6947" style="stop-color:#A53D1C"/>
		<stop  offset="0.9652" style="stop-color:#832B0F"/>
		<stop  offset="1" style="stop-color:#7E290D"/>
	</radialGradient>
	<path fill="url(#SVGID_2_)" d="M174.1798,108.0428c1.8055-3.9567,2.7895-8.1409,2.7895-12.4743
		c0-15.5829-16.8836-29.2768-35.8292-37.1821c0-46.3619-44.0904-52.0271-44.0904-52.0271
		c8.5359,38.247-24.3021,51.0485-24.3021,51.0485h0.0024c-20.3063,7.7194-33.9267,21.913-33.9267,38.1607
		c0,4.349,0.989,8.5463,2.8104,12.5162c-10.5691,8.952-16.8496,20.0997-16.8496,32.1943c0,29.4705,37.2266,53.3618,83.1437,53.3618
		c45.9222,0,83.1485-23.8913,83.1485-53.3618C191.0763,128.1658,184.7779,116.9999,174.1798,108.0428z"/>
	<g>
		<g>
			<path fill="#FFFFFF" d="M89.322,107.2743c2.4324,14.6108-6.5843,28.3953-20.1401,30.7739
				c-13.5398,2.3839-26.5198-7.5341-28.9414-22.1529c-2.4216-14.616,6.6083-28.4033,20.1589-30.7844
				C73.9579,82.7268,86.9056,92.653,89.322,107.2743z"/>
			<radialGradient id="SVGID_3_" cx="64.7861" cy="111.578" r="30.343" gradientUnits="userSpaceOnUse">
				<stop  offset="0.0054" style="stop-color:#A34E1F"/>
				<stop  offset="0.3187" style="stop-color:#9E491D"/>
				<stop  offset="0.6963" style="stop-color:#8F3A15"/>
				<stop  offset="1" style="stop-color:#7E290D"/>
			</radialGradient>
			<path fill="url(#SVGID_3_)" d="M65.1511,142.851c-14.4653,0-26.7862-11.0319-29.2966-26.2343
				c-2.8198-16.9895,7.8463-33.0906,23.7752-35.8889c1.5876-0.2799,3.2074-0.4227,4.8083-0.4227
				c14.4493,0,26.762,11.0347,29.2778,26.2373c2.8253,16.9947-7.8352,33.0931-23.7589,35.8889
				C68.3693,142.7113,66.7547,142.851,65.1511,142.851z"/>
			<path fill="#FFFFFF" d="M40.246,115.8901c-2.4271-14.6108,6.6028-28.398,20.1534-30.7792
				c13.5586-2.3842,26.5063,7.5421,28.9254,22.1581c2.4296,14.616-6.5871,28.4005-20.1429,30.7792
				C55.642,140.4321,42.6621,130.5141,40.246,115.8901z"/>
			<g>
				<defs>
					<path id="SVGID_4_" d="M40.246,115.8901c-2.4271-14.6108,6.6028-28.398,20.1534-30.7792
						c13.5586-2.3842,26.5063,7.5421,28.9254,22.1581c2.4296,14.616-6.5871,28.4005-20.1429,30.7792
						C55.642,140.4321,42.6621,130.5141,40.246,115.8901z"/>
				</defs>
				<clipPath id="SVGID_5_">
					<use xlink:href="#SVGID_4_"  overflow="visible"/>
				</clipPath>
			</g>
			<g>
				<defs>
					<path id="SVGID_6_" d="M40.246,115.8901c-2.4271-14.6108,6.6028-28.398,20.1534-30.7792
						c13.5586-2.3842,26.5063,7.5421,28.9254,22.1581c2.4296,14.616-6.5871,28.4005-20.1429,30.7792
						C55.642,140.4321,42.6621,130.5141,40.246,115.8901z"/>
				</defs>
				<clipPath id="SVGID_7_">
					<use xlink:href="#SVGID_6_"  overflow="visible"/>
				</clipPath>
				<path clip-path="url(#SVGID_7_)" fill="#6D2F16" d="M84.7019,106.0096c1.2245,5.005-1.7273,10.0257-6.6056,11.2204
					c-4.873,1.1867-9.8078-1.9102-11.0347-6.9205c-2.2927-9.4661,9.0569-11.8095,6.6138-11.2149
					C78.551,97.8999,83.4857,101.0024,84.7019,106.0096z"/>
			</g>
		</g>
	</g>
	<g>
		<g>
			<path fill="#FFFFFF" d="M116.1914,107.2743c-2.4324,14.6108,6.5843,28.3953,20.1401,30.7739
				c13.5398,2.3839,26.5198-7.5341,28.9414-22.1529c2.4216-14.616-6.6083-28.4033-20.1589-30.7844
				C131.5555,82.7268,118.6078,92.653,116.1914,107.2743z"/>
			<radialGradient id="SVGID_8_" cx="140.7273" cy="111.578" r="30.343" gradientUnits="userSpaceOnUse">
				<stop  offset="0.0054" style="stop-color:#A34E1F"/>
				<stop  offset="0.3187" style="stop-color:#9E491D"/>
				<stop  offset="0.6963" style="stop-color:#8F3A15"/>
				<stop  offset="1" style="stop-color:#7E290D"/>
			</radialGradient>
			<path fill="url(#SVGID_8_)" d="M140.3622,142.851c14.4653,0,26.7862-11.0319,29.2966-26.2343
				c2.8198-16.9895-7.8463-33.0906-23.7752-35.8889c-1.5876-0.2799-3.2074-0.4227-4.8083-0.4227
				c-14.4493,0-26.7619,11.0347-29.2778,26.2373c-2.8253,16.9947,7.8355,33.0931,23.7592,35.8889
				C137.1441,142.7113,138.7587,142.851,140.3622,142.851z"/>
			<path fill="#FFFFFF" d="M165.2677,115.8901c2.4269-14.6108-6.6031-28.398-20.1536-30.7792
				c-13.5586-2.3842-26.5063,7.5421-28.9251,22.1581c-2.4299,14.616,6.5868,28.4005,20.1426,30.7792
				C149.8713,140.4321,162.8513,130.5141,165.2677,115.8901z"/>
			<g>
				<defs>
					<path id="SVGID_9_" d="M165.2677,115.8901c2.4269-14.6108-6.6031-28.398-20.1536-30.7792
						c-13.5586-2.3842-26.5063,7.5421-28.9251,22.1581c-2.4299,14.616,6.5868,28.4005,20.1426,30.7792
						C149.8713,140.4321,162.8513,130.5141,165.2677,115.8901z"/>
				</defs>
				<clipPath id="SVGID_10_">
					<use xlink:href="#SVGID_9_"  overflow="visible"/>
				</clipPath>
			</g>
			<g>
				<defs>
					<path id="SVGID_11_" d="M165.2677,115.8901c2.4269-14.6108-6.6031-28.398-20.1536-30.7792
						c-13.5586-2.3842-26.5063,7.5421-28.9251,22.1581c-2.4299,14.616,6.5868,28.4005,20.1426,30.7792
						C149.8713,140.4321,162.8513,130.5141,165.2677,115.8901z"/>
				</defs>
				<clipPath id="SVGID_12_">
					<use xlink:href="#SVGID_11_"  overflow="visible"/>
				</clipPath>
				<path clip-path="url(#SVGID_12_)" fill="#6D2F16" d="M120.8115,106.0096c-1.2242,5.005,1.7273,10.0257,6.6058,11.2204
					c4.8727,1.1867,9.8075-1.9102,11.0344-6.9205c2.2927-9.4661-9.0569-11.8095-6.6138-11.2149
					C126.9624,97.8999,122.0277,101.0024,120.8115,106.0096z"/>
			</g>
		</g>
	</g>
	<path opacity="0.8" fill="#F7AE6D" d="M59.0063,71.284c0,0-0.7761-0.6884-1.8433-2.132c-1.0722-1.441-2.4385-3.6371-3.5675-6.5808
		c-0.5517-1.4695-1.0234-3.1269-1.356-4.9443c-0.3197-1.8147-0.4538-3.7918-0.3764-5.8668c0.0826-1.031,0.2062-2.0906,0.3711-3.1551
		c0.2502-1.0519,0.4614-2.1397,0.8199-3.194c0.4176-1.0284,0.7449-2.1215,1.2734-3.119l1.4951-2.6861
		c0.4485-0.8172,1.0622-1.7451,1.3766-2.4617c0.2141-0.6831,0.5776-1.2192,0.8069-1.967c0.4846-1.4975,0.8943-3.0261,1.0954-4.5908
		c0.2164-1.5571,0.3249-3.1295,0.2888-4.6555c0.0103-1.526-0.0929-3.0081-0.25-4.3873c-0.1341-1.3869-0.307-2.6808-0.5028-3.8356
		c-0.2062-1.1472-0.3788-2.1756-0.5541-3.0211c-0.3688-1.7168-0.5776-2.699-0.5776-2.699s0.8172,0.6367,1.9874,1.9977
		c0.5775,0.6858,1.2889,1.5262,1.9541,2.5882c0.7011,1.0413,1.4539,2.2632,2.1009,3.6913c1.3275,2.8331,2.472,6.4703,2.5699,10.6564
		c0.0594,2.0829-0.1856,4.2894-0.7578,6.4779c-0.2682,1.1007-0.7734,2.3097-1.2322,3.4415
		c-0.4794,1.0516-0.9384,1.763-1.4127,2.6576l-1.4075,2.3767c-0.3864,0.7087-0.6908,1.4563-1.0516,2.1729
		c-0.2809,0.7605-0.5567,1.5133-0.8325,2.2582c-0.2088,0.7784-0.4099,1.5518-0.6134,2.3097
		c-0.2964,1.5621-0.5387,3.119-0.6472,4.6426c-0.0979,1.5233-0.1315,3.0031-0.0927,4.395c0.0568,2.784,0.33,5.1916,0.5414,6.9034
		C58.8646,70.2942,59.0063,71.284,59.0063,71.284z"/>
	<path opacity="0.8" fill="#F7AE6D" d="M45.8185,64.5666c0,0-0.537-0.4764-1.2756-1.4754c-0.742-0.9972-1.6875-2.517-2.4688-4.5541
		c-0.3818-1.0169-0.7082-2.1639-0.9384-3.4216c-0.2212-1.2559-0.314-2.6241-0.2605-4.06c0.0572-0.7135,0.1427-1.4467,0.2568-2.1835
		c0.1732-0.7279,0.3193-1.4807,0.5674-2.2103c0.289-0.7117,0.5155-1.4681,0.8812-2.1584l1.0346-1.8588
		c0.3104-0.5655,0.7351-1.2076,0.9526-1.7036c0.1481-0.4727,0.3997-0.8438,0.5584-1.3613c0.3354-1.0363,0.6189-2.0941,0.7581-3.177
		c0.1498-1.0776,0.2249-2.1657,0.1998-3.2218c0.0071-1.056-0.0643-2.0817-0.173-3.0362c-0.0928-0.9597-0.2124-1.8552-0.348-2.6544
		c-0.1427-0.7939-0.2621-1.5056-0.3834-2.0907c-0.2552-1.1881-0.3997-1.8678-0.3997-1.8678s0.5655,0.4406,1.3753,1.3824
		c0.3997,0.4746,0.892,1.0562,1.3523,1.7911c0.4852,0.7206,1.0061,1.5662,1.4539,2.5545c0.9186,1.9606,1.7107,4.4776,1.7785,7.3746
		c0.0411,1.4415-0.1284,2.9684-0.5244,4.4829c-0.1856,0.7617-0.5352,1.5984-0.8527,2.3817
		c-0.3317,0.7278-0.6494,1.2201-0.9776,1.8391l-0.974,1.6448c-0.2674,0.4905-0.478,1.0078-0.7278,1.5037
		c-0.1944,0.5263-0.3853,1.0472-0.5761,1.5627c-0.1445,0.5387-0.2837,1.0739-0.4245,1.5984
		c-0.2051,1.081-0.3728,2.1584-0.4479,3.2128c-0.0678,1.0542-0.091,2.0782-0.0641,3.0415c0.0393,1.9266,0.2283,3.5928,0.3747,4.7774
		C45.7204,63.8816,45.8185,64.5666,45.8185,64.5666z"/>
	<path opacity="0.8" fill="#F7AE6D" d="M166.8132,70.8142c0,0-0.776-0.6884-1.8432-2.132c-1.0722-1.441-2.4385-3.6371-3.5675-6.5809
		c-0.5517-1.4695-1.0234-3.1269-1.356-4.9443c-0.3197-1.8147-0.4538-3.7918-0.3764-5.8668c0.0826-1.031,0.2062-2.0906,0.3711-3.1551
		c0.2502-1.0519,0.4614-2.1397,0.8199-3.1939c0.4176-1.0284,0.7449-2.1215,1.2733-3.119l1.4951-2.6861
		c0.4485-0.8172,1.0622-1.7451,1.3766-2.4617c0.2141-0.6831,0.5775-1.2192,0.8069-1.967c0.4846-1.4975,0.8943-3.0261,1.0954-4.5908
		c0.2164-1.5571,0.3249-3.1295,0.2888-4.6555c0.0103-1.526-0.0929-3.0081-0.25-4.3873c-0.1341-1.3869-0.307-2.6808-0.5029-3.8356
		c-0.2061-1.1472-0.3788-2.1756-0.5541-3.0211c-0.3687-1.7168-0.5775-2.699-0.5775-2.699s0.8172,0.6367,1.9874,1.9977
		c0.5775,0.6858,1.2889,1.5262,1.9541,2.5882c0.7011,1.0413,1.4539,2.2632,2.1009,3.6913c1.3275,2.8331,2.472,6.4703,2.5699,10.6564
		c0.0594,2.0829-0.1856,4.2894-0.7578,6.4779c-0.2682,1.1007-0.7734,2.3097-1.2322,3.4415
		c-0.4794,1.0516-0.9384,1.763-1.4127,2.6576l-1.4074,2.3767c-0.3864,0.7087-0.6908,1.4563-1.0516,2.1729
		c-0.2809,0.7605-0.5567,1.5133-0.8325,2.2582c-0.2088,0.7784-0.4099,1.5518-0.6134,2.3097
		c-0.2964,1.5621-0.5387,3.119-0.6472,4.6426c-0.0979,1.5233-0.1315,3.0031-0.0927,4.395c0.0567,2.784,0.33,5.1916,0.5414,6.9034
		C166.6714,69.8243,166.8132,70.8142,166.8132,70.8142z"/>
	<path opacity="0.8" fill="#F7AE6D" d="M153.6253,69.7539c0,0-0.537-0.4764-1.2756-1.4754c-0.742-0.9972-1.6875-2.517-2.4688-4.5541
		c-0.3818-1.0169-0.7082-2.1639-0.9384-3.4216c-0.2212-1.2559-0.314-2.6241-0.2605-4.06c0.0572-0.7135,0.1427-1.4467,0.2568-2.1835
		c0.1732-0.7279,0.3193-1.4807,0.5674-2.2103c0.289-0.7117,0.5155-1.4681,0.8812-2.1584l1.0347-1.8588
		c0.3103-0.5655,0.7351-1.2076,0.9526-1.7036c0.1481-0.4728,0.3997-0.8438,0.5584-1.3613c0.3354-1.0363,0.6189-2.0941,0.7581-3.177
		c0.1498-1.0776,0.2249-2.1657,0.1998-3.2217c0.0071-1.056-0.0643-2.0817-0.173-3.0362c-0.0928-0.9598-0.2124-1.8552-0.348-2.6544
		c-0.1427-0.7939-0.2621-1.5056-0.3834-2.0907c-0.2552-1.1881-0.3997-1.8678-0.3997-1.8678s0.5655,0.4406,1.3753,1.3824
		c0.3997,0.4746,0.892,1.0562,1.3523,1.7911c0.4852,0.7206,1.0061,1.5662,1.4539,2.5545c0.9187,1.9606,1.7107,4.4776,1.7785,7.3746
		c0.0411,1.4415-0.1284,2.9684-0.5244,4.4829c-0.1856,0.7617-0.5352,1.5984-0.8527,2.3817
		c-0.3317,0.7278-0.6494,1.2201-0.9777,1.8391l-0.974,1.6448c-0.2674,0.4905-0.4781,1.0078-0.7278,1.5037
		c-0.1944,0.5263-0.3853,1.0472-0.5761,1.5627c-0.1445,0.5387-0.2837,1.0739-0.4245,1.5984
		c-0.2051,1.081-0.3728,2.1584-0.4479,3.2128c-0.0678,1.0542-0.091,2.0782-0.0641,3.0415c0.0393,1.9266,0.2283,3.5928,0.3746,4.7774
		C153.5272,69.0689,153.6253,69.7539,153.6253,69.7539z"/>
</g>
</svg>
