<?xml version="1.0" encoding="utf-8"?>
<!-- Generator: Adobe Illustrator 17.0.0, SVG Export Plug-In . SVG Version: 6.00 Build 0)  -->
<!DOCTYPE svg PUBLIC "-//W3C//DTD SVG 1.1//EN" "http://www.w3.org/Graphics/SVG/1.1/DTD/svg11.dtd">
<svg version="1.1" id="Layer_1" xmlns="http://www.w3.org/2000/svg" xmlns:xlink="http://www.w3.org/1999/xlink" x="0px" y="0px" viewBox="0 0 200 200" enable-background="new 0 0 200 200" xml:space="preserve">
<g>
	<g>
		<path fill="#CC7015" d="M48.5723,199c-1.1061,0-2.1956-0.3358-3.1366-1.0069c-1.871-1.3399-2.6909-3.7201-2.0415-5.9266
			l0.6438-2.168c1.4802-4.9524,3.3786-9.7974,5.0403-13.9519c1.7169-4.1629,3.6485-8.5456,5.932-13.4487
			c1.9369-4.0362,4.1765-8.6583,6.5977-13.2366c1.3785-2.7348,2.9385-5.566,4.5453-8.4577c0.817-1.4664,1.6287-2.9411,2.4266-4.4131
			c4.1325-7.2911,8.5566-14.6261,13.4293-22.2747c-2.1542-0.0797-4.2232-0.1679-6.2619-0.2724l-37.5367-1.8682
			c-2.1268-0.1045-3.9947-1.4555-4.7653-3.4445c-0.7675-1.9922-0.2916-4.2483,1.2134-5.7587l18.3211-18.365
			c7.2911-7.3105,14.6537-14.4007,21.8842-21.0753c8.3118-7.6599,15.9466-14.4004,23.3422-20.6048
			c4.0556-3.4144,8.056-6.7546,12.2849-10.1113c2.0525-1.656,4.1517-3.3482,6.3309-5.0129l2.2339-1.7332
			c1.3704-1.0703,2.7568-2.1432,4.1711-3.2053c4.8946-3.6896,9.261-6.8865,13.3467-9.7591
			c3.7942-2.6633,8.8429-6.1574,14.3317-9.5636l2.4652-1.5298C154.251,1.2668,155.2359,1,156.2209,1
			c1.2326,0,2.4627,0.4209,3.4558,1.2518c1.7885,1.4884,2.4212,3.9564,1.5681,6.119l-0.8199,2.0964
			c-1.7882,4.614-3.9122,9.0271-5.7556,12.7331c-1.8876,3.7584-4.0226,7.7534-6.5374,12.2353
			c-0.5995,1.0895-1.2546,2.2066-1.9122,3.3208l-1.5681,2.6742c-1.1419,1.9975-2.3798,3.9978-3.6291,6.0092
			c-2.3277,3.8353-4.8918,7.7478-7.5277,11.7482c-2.8503,4.3472-5.9069,8.8125-9.239,13.498
			c15.149,0.4291,36.5213,1.7499,37.5972,1.8186c1.9753,0.124,3.7226,1.318,4.5588,3.1118
			c0.8365,1.7938,0.6218,3.8987-0.5584,5.4916l-15.537,20.9652c-0.0716,0.0964-0.1485,0.1927-0.2254,0.2834
			c-14.0787,16.5382-28.8121,32.3721-43.8042,47.0698c-1.3233,1.2549-4.1959,4.028-4.1959,4.028l-0.5283,0.5063
			c-2.3936,2.3085-4.8532,4.6799-7.4009,6.9775c-3.7665,3.5245-7.7258,7.0544-12.4801,11.2557
			c-4.8617,4.2041-9.1894,7.8469-13.2752,11.1703c-4.2094,3.3732-9.1097,7.2553-14.3593,10.9725l-2.3497,1.6673
			C50.7622,198.667,49.6699,199,48.5723,199z"/>
		
			<radialGradient id="SVGID_1_" cx="145.6301" cy="-27.5733" r="203.295" gradientTransform="matrix(0.996 0 0 0.996 15.2038 0.3981)" gradientUnits="userSpaceOnUse">
			<stop  offset="0" style="stop-color:#FFF7C2"/>
			<stop  offset="0.3321" style="stop-color:#FFEB8F"/>
			<stop  offset="1" style="stop-color:#FED01F"/>
		</radialGradient>
		<path fill="url(#SVGID_1_)" d="M49.216,191.4311c1.414-4.7352,3.2574-9.4399,4.8752-13.4789
			c1.6563-4.0198,3.5603-8.3366,5.8136-13.1816c1.9975-4.152,4.1407-8.5761,6.474-12.9836
			c1.4197-2.8064,2.9797-5.6322,4.4957-8.3614c0.8252-1.4884,1.6453-2.9768,2.4542-4.4655
			c5.4502-9.6022,11.4813-19.4187,18.4394-29.9867c-5.9897-0.113-11.0218-0.2834-15.7542-0.5201l-37.531-1.871l18.3157-18.365
			c7.1781-7.1894,14.483-14.2328,21.7245-20.9184c8.1166-7.4781,15.6773-14.164,23.1526-20.4369
			c4.0308-3.3896,7.9926-6.7022,12.1747-10.0177c2.0496-1.6589,4.1131-3.318,6.2509-4.9524l2.2643-1.758
			c1.3566-1.0565,2.7103-2.1102,4.1024-3.1532c4.7543-3.5876,9.0711-6.7462,13.2118-9.6625
			c3.995-2.8064,8.8043-6.119,14.0759-9.3906l2.4652-1.5267l-0.8227,2.0936c-1.7414,4.4957-3.7939,8.7412-5.5632,12.3012
			c-1.8679,3.7198-3.9646,7.6379-6.4106,11.9958c-0.6959,1.2684-1.4442,2.5258-2.1871,3.7832l-1.2436,2.1325
			c-1.1337,1.9753-2.3443,3.9232-3.5603,5.8796c-2.3387,3.8601-4.8588,7.7035-7.4452,11.6298
			c-4.7104,7.1809-9.9653,14.6591-16.0596,22.8663c-0.3274,0.4429-1.2022,1.582-1.2022,1.582
			c0.5446,0.0028,1.1005-2.6633,1.6453-2.6796c11.8856-0.3468,48.1483,1.9065,48.1483,1.9065l-15.5395,20.968
			c-13.9795,16.4199-28.6084,32.1383-43.474,46.7123c-1.4059,1.3315-2.7816,2.6604-4.1627,3.9922
			c-2.5204,2.4294-5.1121,4.9386-7.803,7.368c-3.8077,3.5603-7.723,7.0572-12.4305,11.2145
			c-4.7377,4.0967-9.0187,7.7035-13.1101,11.0272c-4.1243,3.2989-8.9389,7.1234-14.073,10.7607l-2.355,1.6645L49.216,191.4311z"/>
		<g>
			<defs>
				<path id="SVGID_2_" d="M49.216,191.4311c1.414-4.7352,3.2574-9.4399,4.8752-13.4789c1.6563-4.0198,3.5603-8.3366,5.8136-13.1816
					c1.9975-4.152,4.1407-8.5761,6.474-12.9836c1.4197-2.8064,2.9797-5.6322,4.4957-8.3614
					c0.8252-1.4884,1.6453-2.9768,2.4542-4.4655c5.4502-9.6022,11.4813-19.4187,18.4394-29.9867
					c-5.9897-0.113-11.0218-0.2834-15.7542-0.5201l-37.531-1.871l18.3157-18.365c7.1781-7.1894,14.483-14.2328,21.7245-20.9184
					c8.1166-7.4781,15.6773-14.164,23.1526-20.4369c4.0308-3.3896,7.9926-6.7022,12.1747-10.0177
					c2.0496-1.6589,4.1131-3.318,6.2509-4.9524l2.2643-1.758c1.3566-1.0565,2.7103-2.1102,4.1024-3.1532
					c4.7543-3.5876,9.0711-6.7462,13.2118-9.6625c3.995-2.8064,8.8043-6.119,14.0759-9.3906l2.4652-1.5267l-0.8227,2.0936
					c-1.7414,4.4957-3.7939,8.7412-5.5632,12.3012c-1.8679,3.7198-3.9646,7.6379-6.4106,11.9958
					c-0.6959,1.2684-1.4442,2.5258-2.1871,3.7832l-1.2436,2.1325c-1.1337,1.9753-2.3443,3.9232-3.5603,5.8796
					c-2.3387,3.8601-4.8588,7.7035-7.4452,11.6298c-4.7104,7.1809-9.9653,14.6591-16.0596,22.8663
					c-0.3274,0.4429-1.2022,1.582-1.2022,1.582c0.5446,0.0028,1.1005-2.6633,1.6453-2.6796
					c11.8856-0.3468,48.1483,1.9065,48.1483,1.9065l-15.5395,20.968c-13.9795,16.4199-28.6084,32.1383-43.474,46.7123
					c-1.4059,1.3315-2.7816,2.6604-4.1627,3.9922c-2.5204,2.4294-5.1121,4.9386-7.803,7.368
					c-3.8077,3.5603-7.723,7.0572-12.4305,11.2145c-4.7377,4.0967-9.0187,7.7035-13.1101,11.0272
					c-4.1243,3.2989-8.9389,7.1234-14.073,10.7607l-2.355,1.6645L49.216,191.4311z"/>
			</defs>
			<clipPath id="SVGID_3_">
				<use xlink:href="#SVGID_2_"  overflow="visible"/>
			</clipPath>
			<g clip-path="url(#SVGID_3_)">
				
					<radialGradient id="SVGID_4_" cx="140.9183" cy="-6.892" r="78.1648" gradientTransform="matrix(0.996 0 0 0.996 15.2038 0.3981)" gradientUnits="userSpaceOnUse">
					<stop  offset="0" style="stop-color:#FFF7C2"/>
					<stop  offset="0.3321" style="stop-color:#FFE18F"/>
					<stop  offset="1" style="stop-color:#FEB01F"/>
				</radialGradient>
				<path fill="url(#SVGID_4_)" d="M156.2209,6.4009c0,0-49.923,60.0339-63.985,71.2924L132.4,78.3757"/>
				
					<radialGradient id="SVGID_5_" cx="231.1436" cy="265.0136" r="172.8274" gradientTransform="matrix(0.996 0 0 0.996 15.2038 0.3981)" gradientUnits="userSpaceOnUse">
					<stop  offset="0" style="stop-color:#FFF7C2"/>
					<stop  offset="0.3321" style="stop-color:#FFE18F"/>
					<stop  offset="1" style="stop-color:#FEB01F"/>
				</radialGradient>
				<path fill="url(#SVGID_5_)" d="M161.5201,79.8917c0,0-71.7384,48.9326-112.9478,113.7074
					c-41.2097,64.7747,45.3997-3.8987,45.3997-3.8987l62.2489-73.799l17.3666-39.2398"/>
			</g>
		</g>
	</g>
</g>
</svg>
