<?xml version="1.0" encoding="utf-8"?>
<!-- Generator: Adobe Illustrator 17.0.0, SVG Export Plug-In . SVG Version: 6.00 Build 0)  -->
<!DOCTYPE svg PUBLIC "-//W3C//DTD SVG 1.1//EN" "http://www.w3.org/Graphics/SVG/1.1/DTD/svg11.dtd">
<svg version="1.1" id="Layer_1" xmlns="http://www.w3.org/2000/svg" xmlns:xlink="http://www.w3.org/1999/xlink" x="0px" y="0px"
	viewBox="0 0 200 200" enable-background="new 0 0 200 200" xml:space="preserve">
<g>
	<path fill="#903F40" d="M191.4481,90.3796c3.1196-3.2885,5.0871-8.0314,5.0871-13.2978c0-7.6754-4.1774-14.2406-10.0305-16.802
		c2.2877-3.1239,3.6641-7.1695,3.6641-11.5773c0-8.5882-5.2216-15.7847-12.1742-17.5472c1.969-3.0102,3.1374-6.7626,3.1374-10.8293
		c0-9.8984-6.9379-17.951-15.4675-17.951l-47.9791,0.0031l-6.4215-0.015c-14.1567,0-39.0919,0.0239-52.5588,15.4317v-3.3366
		c0-2.8696-2.322-5.1947-5.1947-5.1947H1.3v102.7239h52.2104c2.8726,0,5.1947-2.3281,5.1947-5.2008v-0.4875
		c0.9398,1.146,1.9286,2.25,2.9833,3.2615c20.4333,15.7785,27.2948,39.9149,27.5731,43.5536
		c0.205,2.6391,0.1287,0.9456,0.0448,5.1438c-0.3037,15.4256-0.588,35.6566,8.4025,38.658c1.4423,0.4786,3.0746,0.721,4.8447,0.721
		c11.6208,0,28.1592-15.7905,28.9823-34.8039c0.6119-14.0041-5.5075-22.8374-9.5577-28.6844
		c-1.077-1.5499-2.5567-3.6776-2.7035-4.261c0-2.6033,0.4412-4.656,1.1579-5.5746h63.3927c8.5327,0,15.4749-8.1451,15.4749-18.1487
		C199.3,99.4075,196.1295,93.5008,191.4481,90.3796z"/>
	<g>
		<rect x="19.8825" y="14.4582" fill="#FFFFFF" width="29.4162" height="92.3284"/>
		<g>
			
				<radialGradient id="SVGID_1_" cx="-1061.8019" cy="356.2713" r="393.0827" gradientTransform="matrix(0.7351 0 0 -0.7351 985.3103 435.4748)" gradientUnits="userSpaceOnUse">
				<stop  offset="0.0538" style="stop-color:#F3B941"/>
				<stop  offset="0.2801" style="stop-color:#F4C14A"/>
				<stop  offset="0.6479" style="stop-color:#F8D662"/>
				<stop  offset="0.9508" style="stop-color:#FBEC7B"/>
			</radialGradient>
			<path fill="url(#SVGID_1_)" d="M165.2113,93.2256h19.4758c5.6821,0,10.2799,5.787,10.2799,12.9387
				c0,7.1398-4.5978,12.9479-10.2799,12.9479h-19.4758h-15.8129h-24.0527h-5.627c-3.7315,1.6638-4.7785,6.215-4.7785,10.7754
				c0,5.7214,13.0898,13.9054,12.2698,32.7181c-0.8138,18.8099-19.628,31.8264-26.9906,29.3757
				c-7.3671-2.4565-4.0891-28.6305-4.9091-39.2653c-0.6493-8.4564-9.8718-32.5897-29.0108-46.7642
				c-1.1714-1.1193-2.265-2.3312-3.2842-3.6387c-0.0941-0.1167-0.1688-0.1915-0.1688-0.1915l0.0389,0.0089
				c-4.55-5.9938-7.3598-14.0819-7.3598-25.0458v-30.875c0-40.5102,38.9423-38.631,63.0275-38.631h17.0042l0.0417-0.0061h30.9305
				c5.6675,0,10.271,5.7183,10.271,12.7533c0,7.0531-4.6036,12.7594-10.271,12.7594h-17.1311v2.8607h26.1633
				c5.6632,0,10.2714,5.7064,10.2714,12.7564c0,7.0381-4.6082,12.7444-10.2714,12.7444h-26.1633v3.055
				c0.5237-0.0987,1.0651-0.1704,1.6173-0.1704h30.9124c5.6718,0,10.2726,5.7091,10.2726,12.7502
				c0,7.0531-4.6008,12.7564-10.2726,12.7564h-30.9124c-0.5521,0-1.0936-0.0659-1.6173-0.1737v3.5612H165.2113z"/>
		</g>
		<g>
			<defs>
				<path id="SVGID_2_" d="M181.9281,89.8382h-30.9124c-0.5521,0-1.0936-0.0659-1.6173-0.1737v3.5612h15.8129h19.4758
					c5.6821,0,10.2799,5.787,10.2799,12.9387c0,7.1398-4.5978,12.9479-10.2799,12.9479h-19.4758h-15.8129h-24.0527h-5.627
					c-3.7315,1.6638-4.7785,6.215-4.7785,10.7754c0,5.7214,13.0898,13.9054,12.2698,32.7181
					c-0.8138,18.8099-19.628,31.8264-26.9906,29.3757c-7.3671-2.4565-4.0891-28.6305-4.9091-39.2653
					c-0.6493-8.4564-9.8718-36.0007-29.0108-46.7642c-1.1714-1.1193-2.265-2.3312-3.2842-3.6387
					c-0.0941-0.1167-0.1688-0.1915-0.1688-0.1915l0.0389,0.0089c-4.55-5.9938-7.3598-14.0819-7.3598-25.0458v-30.875
					c0-40.5102,38.9423-38.631,63.0275-38.631h17.0042l0.0417-0.0061h30.9305c5.6675,0,10.271,5.7183,10.271,12.7533
					c0,7.0531-4.6036,12.7594-10.271,12.7594h-17.1311v2.8607h26.1633c5.6632,0,10.2714,5.7064,10.2714,12.7564
					c0,7.0381-4.6082,12.7444-10.2714,12.7444h-26.1633v3.055c0.5237-0.0987,1.0651-0.1704,1.6173-0.1704h30.9124
					c5.6718,0,10.2726,5.7091,10.2726,12.7502C192.2007,84.1349,187.5998,89.8382,181.9281,89.8382z"/>
			</defs>
			<clipPath id="SVGID_3_">
				<use xlink:href="#SVGID_2_"  overflow="visible"/>
			</clipPath>
		</g>
		<g>
			<defs>
				<path id="SVGID_4_" d="M165.2113,93.2256h19.4758c5.6821,0,10.2799,5.787,10.2799,12.9387
					c0,7.1398-4.5978,12.9479-10.2799,12.9479h-19.4758h-15.8129h-24.0527h-5.627c-3.7315,1.6638-4.7785,6.215-4.7785,10.7754
					c0,5.7214,13.0898,13.9054,12.2698,32.7181c-0.8138,18.8099-19.628,31.8264-26.9906,29.3757
					c-7.3671-2.4565-4.0891-28.6305-4.9091-39.2653c-0.6493-8.4564-9.8718-32.5897-29.0108-46.7642
					c-1.1714-1.1193-2.265-2.3312-3.2842-3.6387c-0.0941-0.1167-0.1688-0.1915-0.1688-0.1915l0.0389,0.0089
					c-4.55-5.9938-7.3598-14.0819-7.3598-25.0458v-30.875c0-40.5102,38.9423-38.631,63.0275-38.631h17.0042l0.0417-0.0061h30.9305
					c5.6675,0,10.271,5.7183,10.271,12.7533c0,7.0531-4.6036,12.7594-10.271,12.7594h-17.1311v2.8607h26.1633
					c5.6632,0,10.2714,5.7064,10.2714,12.7564c0,7.0381-4.6082,12.7444-10.2714,12.7444h-26.1633v3.055
					c0.5237-0.0987,1.0651-0.1704,1.6173-0.1704h30.9124c5.6718,0,10.2726,5.7091,10.2726,12.7502
					c0,7.0531-4.6008,12.7564-10.2726,12.7564h-30.9124c-0.5521,0-1.0936-0.0659-1.6173-0.1737v3.5612H165.2113z"/>
			</defs>
			<clipPath id="SVGID_5_">
				<use xlink:href="#SVGID_4_"  overflow="visible"/>
			</clipPath>
		</g>
	</g>
	
		<radialGradient id="SVGID_6_" cx="-30.3211" cy="283.0102" r="198.7537" gradientTransform="matrix(1 0 0 -1 0 355.0352)" gradientUnits="userSpaceOnUse">
		<stop  offset="0.0054" style="stop-color:#711A12;stop-opacity:0.5"/>
		<stop  offset="0.5905" style="stop-color:#831D19;stop-opacity:0.2059"/>
		<stop  offset="1" style="stop-color:#931F1F;stop-opacity:0"/>
	</radialGradient>
	<path fill="url(#SVGID_6_)" d="M72.9291,111.6044c0,0-8.8244-13.8576-8.8244-35.3337c0-21.4757,6.7105-43.0118,22.0999-52.59
		c22.0941-13.7498,83.9516-15.0845,89.4395-9.2225c0,0-2.2549-6.9452-10.5796-6.9452c-8.3244,0-67.0295,0-67.0295,0
		S73.6504,9.2755,64.1047,20.5445c-9.5485,11.2693-8.579,28.595-8.579,28.595v32.1764
		C55.5257,81.3159,55.59,100.1708,72.9291,111.6044z"/>
	
		<radialGradient id="SVGID_7_" cx="-1228.0249" cy="82.6626" r="81.1386" gradientTransform="matrix(0.7351 0 0 -0.7351 985.3103 200.3645)" gradientUnits="userSpaceOnUse">
		<stop  offset="0.0054" style="stop-color:#711A12;stop-opacity:0.5"/>
		<stop  offset="0.5905" style="stop-color:#831D19;stop-opacity:0.2059"/>
		<stop  offset="1" style="stop-color:#931F1F;stop-opacity:0"/>
	</radialGradient>
	<path fill="url(#SVGID_7_)" d="M142.718,119.1122c0,0-21.2097-5.2636-28.7595-3.0433c-7.5421,2.2264-9.2553,14.1208-0.0015,21.2217
		c5.563,4.2671,12.6893,17.0802,12.6893,17.0802s-2.5825-9.6291-8.0704-17.2447c-7.3058-10.135-1.8284-16.6374-0.1391-17.511
		C119.6621,118.9866,142.718,119.1122,142.718,119.1122z"/>
</g>
</svg>
