<?xml version="1.0" encoding="utf-8"?>
<!-- Generator: Adobe Illustrator 17.0.0, SVG Export Plug-In . SVG Version: 6.00 Build 0)  -->
<!DOCTYPE svg PUBLIC "-//W3C//DTD SVG 1.1//EN" "http://www.w3.org/Graphics/SVG/1.1/DTD/svg11.dtd">
<svg version="1.1" id="Layer_1" xmlns="http://www.w3.org/2000/svg" xmlns:xlink="http://www.w3.org/1999/xlink" x="0px" y="0px"
	viewBox="0 0 200 200" enable-background="new 0 0 200 200" xml:space="preserve">
<g>
	<g>
		<polyline fill="none" stroke="#000000" stroke-width="0" stroke-linecap="round" stroke-linejoin="round" points="
			89.4993,55.1427 89.5053,55.1427 89.5053,55.1427 		"/>
	</g>
	<path fill="#903F40" d="M92.1149,199c-23.0067,0-56.991-17.7261-63.7146-54.9164c-0.5102-2.8237-2.8547-5.7093-4.4469-8.9153
		c-5.3302-10.7282-15.0208-18.9715-6.8729-28.7716c0.7968-0.9587,3.1719-2.9162,4.0937-3.7054c0,0-3.9226-4.8709-4.0861-9.8339
		c-0.1512-4.6489,1.8205-9.1281,5.5521-12.621c1.264-1.1806,2.7669-2.7713,4.4807-4.5748
		c8.8184-9.2884,22.1452-23.3274,37.9612-23.3274c0.7046,0,1.4089,0.0278,2.1163,0.0865
		c4.5858,0.3791,15.5558,7.0781,23.2517,15.6572c1.6911-13.681,5.0189-34.3821,10.9164-49.7804
		C105.5141,7.4647,113.1408,1,121.7695,1c4.1666,0,7.9105,1.9761,10.2717,5.4227c3.3695,4.9201,3.5637,11.918,0.5458,19.7019
		c-5.0773,13.1018-8.8724,30.0261-11.4079,43.7475c3.4143-12.288,7.5112-25.886,10.685-32.8899
		c5.1714-11.4158,12.0089-16.9647,20.9028-16.9647c4.1722,0,7.9102,2.1643,10.2563,5.9344
		c3.4033,5.4751,3.1984,13.2805-0.5487,20.8797c-2.4942,5.0619-4.7938,10.8545-6.8609,16.8072
		c0.1048-0.1941,0.208-0.3854,0.3128-0.5733c4.5533-8.2094,10.5464-12.729,16.8766-12.729c1.0083,0,2.0269,0.1143,3.0305,0.3422
		c3.4664,0.78,6.1872,2.7839,7.8673,5.8018c2.2397,4.0201,2.3982,9.5814,0.4347,15.2534c-1.2949,3.7426-3.2338,8.265-5.2854,13.0525
		c-5.0789,11.8441-11.3987,26.5859-10.6635,35.8866c2.7991,35.3193-13.8398,66.8837-16.6714,71.9642
		c-1.0389,3.7947-4.5426,6.3627-8.8585,6.3627H92.1149z M40.3227,104.544c4.5779,3.3417,9.546,14.0081,11.4309,19.1716
		c1.3334,3.6533,4.2683,11.1598,10.0546,13.0001c3.6145,1.15,9.5012-3.1075,13.1542-7.1027
		c3.6485-3.992,5.1266-11.1626,4.8229-14.5444c-0.7166-7.9812-11.4063-28.2599-18.8187-28.2599
		c-0.2358,0-0.4732,0.0249-0.7106,0.071c-4.8554,0.9742-8.0829,4.9634-11.5004,9.1868
		C46.2619,99.1491,43.6954,102.3213,40.3227,104.544z"/>
	<radialGradient id="SVGID_1_" cx="61.8084" cy="-79.7839" r="353.5837" gradientUnits="userSpaceOnUse">
		<stop  offset="0.1174" style="stop-color:#FBEC7B"/>
		<stop  offset="1" style="stop-color:#F3B941"/>
	</radialGradient>
	<path fill="url(#SVGID_1_)" d="M174.7931,55.2968c-7.377-1.6617-12.6409,6.3075-14.7246,10.0653
		C151.62,80.6,144.673,109.6399,144.673,109.6399c-3.4759,4.0937-5.7125-0.7431-5.4072-2.9288c0,0,7.3186-38.3586,18.962-61.9727
		c5.5676-11.2923,0.9281-19.9857-5.4608-19.9857c-6.3906,0-11.8625,3.7486-16.59,14.1839
		c-6.3889,14.1006-17.0199,57.2685-17.0199,57.2685c-4.9987,6.3167-6.5216-2.3676-6.5216-2.3676s5.0202-42.2894,15.5369-69.4239
		c4.4517-11.4865-0.0107-18.6785-6.4028-18.6785c-6.3905,0-12.4559,5.0495-15.9811,14.2546
		c-9.2559,24.1659-12.0875,62.7928-12.0875,62.7928c-2.5554-11.8378-22.0941-25.2477-26.8892-25.6423
		c-17.5071-1.4366-33.3742,19.4768-40.9361,26.5549c-2.9888,2.7962-4.1524,6.0206-4.0555,9.0046
		c0.2235,6.776,7.0288,12.3126,14.3133,8.7953c8.325-4.0261,11.8826-16.9893,23.1917-19.2581
		c12.3372-2.4755,24.4156,23.944,25.177,32.4091c1.1497,12.818-16.4682,38.8366-30.8708,20.8825
		c-6.8069-8.4838-5.5012-22.7507-21.6582-28.8177c-4.6581-1.7479-9.9772,0.4192-10.6616,0.9249
		c-11.5897,8.5608,8.5715,23.4907,10.7712,35.6583c6.3135,34.9216,39.6504,50.9705,60.0323,50.9705h50.5418
		c2.2012,0,4.0646-1.1715,4.3901-3.3481c0,0,19.3288-33.1551,16.4201-69.8709c-1.1453-14.4611,11.7084-37.8993,16.1938-50.8594
		C181.862,63.8238,181.0249,56.6996,174.7931,55.2968z"/>
</g>
<radialGradient id="SVGID_2_" cx="13.405" cy="60.1841" r="101.3164" gradientUnits="userSpaceOnUse">
	<stop  offset="0.0054" style="stop-color:#711A12;stop-opacity:0.5"/>
	<stop  offset="0.5905" style="stop-color:#831D19;stop-opacity:0.2059"/>
	<stop  offset="1" style="stop-color:#931F1F;stop-opacity:0"/>
</radialGradient>
<path fill="url(#SVGID_2_)" d="M24.0181,97.7191c0,0,8.8522,1.6895,15.6929-6.0853s12.627-17.871,25.254-17.0323
	c12.627,0.8384,24.3524,25.0873,24.5403,39.0061c0.1881,13.9187-5.5997,28.1055-18.2267,32.0606
	c-12.627,3.9554-23.1501-2.0901-25.254-8.0118c-2.104-5.9221-12.7751-32.2983-20.8595-32.2983c0,0,13.8108-1.788,20.3677,12.2848
	c9.5675,20.5343,15.2736,27.0698,25.1539,20.9289c16.6654-10.3579,15.7314-28.6144,8.1122-40.8528
	C71.18,85.4804,62.1274,73.3436,50.234,87.0159C39.711,99.1125,30.6123,107.285,24.0181,97.7191z"/>
</svg>
