<?xml version="1.0" encoding="utf-8"?>
<!-- Generator: Adobe Illustrator 17.0.0, SVG Export Plug-In . SVG Version: 6.00 Build 0)  -->
<!DOCTYPE svg PUBLIC "-//W3C//DTD SVG 1.1//EN" "http://www.w3.org/Graphics/SVG/1.1/DTD/svg11.dtd">
<svg version="1.1" id="Layer_1" xmlns="http://www.w3.org/2000/svg" xmlns:xlink="http://www.w3.org/1999/xlink" x="0px" y="0px"
	viewBox="0 0 200 200" enable-background="new 0 0 200 200" xml:space="preserve">
<g>
	<path fill="#903F40" d="M71.7275,199.0376c-2.1756,0-4.2671-0.1348-5.9877-1.7594c-0.1495-0.1437-0.2932-0.2932-0.4281-0.452
		c-0.7868-0.9337-1.2597-2.1035-1.3914-3.4772c0,0-2.4326-20.2041-2.4388-20.2819c-0.0089-0.1137-0.0748-0.3233-0.1973-0.5056
		c-0.4308-0.6254-1.0354-1.4754-1.7775-2.5197l-0.1557-0.2124c-12.6065-17.7148-26.952-39.8582-25.9224-53.919
		c1.161-15.8536,10.7184-20.6472,16.3142-22.0925c0.6135-0.1584,1.0293-0.8289,0.8828-1.4362L34.8679,26.8436
		c-1.3105-5.4251-0.2932-10.617,2.8665-14.6264c3.3096-4.2013,8.6391-6.712,14.2557-6.712c8.0881,0,14.3424,4.9884,16.3712,13.0438
		l14.5994,45.3249c0.4936,1.5321,1.7475,2.4446,3.3543,2.4446c1.6488,0,2.9146-0.9395,3.3905-2.5135l15.3088-50.9596
		c2.3879-7.4327,8.238-11.8077,15.6679-11.8077c5.7692,0,11.3646,2.7979,14.6083,7.2954c3.0225,4.1982,3.7346,9.4229,1.9991,14.7312
		c-0.5687,1.996-11.0389,38.7627-15.1412,54.8407c-0.0959,0.3769-0.0211,0.736,0.2154,1.0443
		c0.1556,0.2004,0.4308,0.4369,0.8647,0.4369c0.8377-0.0631,1.6068-0.099,2.3968-0.099c8.5193,0,15.2371,3.9947,19.4353,11.5564
		c0.2335,0.4219,0.6134,0.6643,1.0654,0.6882c5.6913,0.3083,19.139,3.3366,21.1947,24.7737
		c1.9749,20.5902-16.0509,45.9712-22.8405,55.5258c-0.6134,0.8616-1.1132,1.571-1.4932,2.1186c0,0-0.2065,0.3021-0.2246,0.323
		l-1.9301,18.8877c-0.1075,1.3406-0.4967,2.4507-1.1938,3.3844c-0.1468,0.1976-0.3052,0.3861-0.4848,0.5626
		c-1.8854,1.927-4.4259,1.927-6.2809,1.927L71.7275,199.0376z"/>
	<radialGradient id="SVGID_1_" cx="128.4406" cy="-64.0341" r="257.0173" gradientUnits="userSpaceOnUse">
		<stop  offset="0.1174" style="stop-color:#FEEB65"/>
		<stop  offset="1" style="stop-color:#F6B330"/>
	</radialGradient>
	<path fill="url(#SVGID_1_)" d="M145.8267,97.1037c-2.3698-0.1318-4.4795-1.4573-5.6405-3.552
		c-3.199-5.7661-8.0973-8.6869-14.5609-8.6869c-0.6312,0-1.2388,0.027-1.84,0.0809c-0.1888,0.0119-0.3772,0.0208-0.5568,0.0208
		c-2.0677,0-3.9886-0.9514-5.2725-2.6002c-1.2928-1.6666-1.7355-3.7971-1.2118-5.8409c0,0-4.2013,9.9285-2.0827,13.3009
		c2.1216,3.3724,13.0855,1.3406,18.035,6.4215c4.9492,5.084,3.5787,9.3601,9.3929,9.342c4.8355-0.015,12.0081-2.8518,18.1514,3.5939
		C157.0271,99.3687,150.1536,97.3372,145.8267,97.1037z"/>
</g>
<g>
	<defs>
		<path id="SVGID_2_" d="M71.7275,193.4599c-1.2658,0-1.9929-0.0778-2.1544-0.2366c-0.0239-0.0239-0.0809-0.1615-0.1048-0.4578
			l-2.4268-20.1293c-0.0836-1.1043-0.4909-2.2445-1.161-3.2287c-0.4728-0.6913-1.146-1.6399-1.9779-2.8129
			c-7.092-9.9585-25.9258-36.4257-24.9112-50.2742c0.8619-11.763,7.0797-15.7908,12.146-17.0983
			c3.5639-0.9248,5.7692-4.5785,4.9134-8.1451L40.2899,25.5389c-0.9155-3.7793-0.2782-7.1934,1.8253-9.8657
			c2.2295-2.8337,6.0116-4.5873,9.8748-4.5873c5.5329,0,9.6472,3.3574,11.0028,8.9859l14.6595,45.5134
			c1.2388,3.8333,4.6382,6.314,8.6627,6.314c4.1176,0,7.5439-2.5466,8.7289-6.4844l15.3116-50.9627
			c2.2742-7.0736,7.9778-7.8369,10.3268-7.8369c3.9497,0,7.9028,1.9509,10.0811,4.9765c1.3976,1.9359,2.7351,5.2155,1.1969,9.8326
			c-0.1345,0.4608-10.9908,38.5593-15.2159,55.1011c-0.5237,2.0438-0.0809,4.1743,1.2118,5.8409
			c1.2839,1.6488,3.2048,2.6002,5.2725,2.6002c0.1796,0,0.368-0.0089,0.5568-0.0208c0.6012-0.0539,1.2088-0.0809,1.84-0.0809
			c6.4635,0,11.3619,2.9208,14.5609,8.6869c1.161,2.0947,3.2707,3.4202,5.6405,3.552c5.2756,0.2844,14.3602,3.2256,15.9403,19.7344
			c1.7772,18.5197-15.3778,42.6708-21.8321,51.7646c-0.6315,0.8886-1.1582,1.6219-1.544,2.1903l-0.1529,0.2243
			c-0.4547,0.6496-0.9275,1.3197-1.0173,2.6094l-1.9448,19.0373c-0.027,0.4369-0.1078,0.5445-0.1078,0.5445
			c-0.2424,0.2485-1.7864,0.2485-2.2951,0.2485L71.7275,193.4599z"/>
	</defs>
	<clipPath id="SVGID_3_">
		<use xlink:href="#SVGID_2_"  overflow="visible"/>
	</clipPath>
</g>
<g>
	<defs>
		<path id="SVGID_4_" d="M71.7275,193.4599c-1.2658,0-1.9929-0.0778-2.1544-0.2366c-0.0239-0.0239-0.0809-0.1615-0.1048-0.4578
			l-2.4268-20.1293c-0.0836-1.1043-0.4909-2.2445-1.161-3.2287c-0.4728-0.6913-1.146-1.6399-1.9779-2.8129
			c-7.092-9.9585-25.9258-36.4257-24.9112-50.2742c0.8619-11.763,7.0797-15.7908,12.146-17.0983
			c3.5639-0.9248,5.7692-4.5785,4.9134-8.1451L40.2899,25.5389c-0.9155-3.7793-0.2782-7.1934,1.8253-9.8657
			c2.2295-2.8337,6.0116-4.5873,9.8748-4.5873c5.5329,0,9.6472,3.3574,11.0028,8.9859l14.6595,45.5134
			c1.2388,3.8333,4.6382,6.314,8.6627,6.314c4.1176,0,7.5439-2.5466,8.7289-6.4844l15.3116-50.9627
			c2.2742-7.0736,7.9778-7.8369,10.3268-7.8369c3.9497,0,7.9028,1.9509,10.0811,4.9765c1.3976,1.9359,2.7351,5.2155,1.1969,9.8326
			c-0.1345,0.4608-10.9908,38.5593-15.2159,55.1011c-0.5237,2.0438-0.0809,4.1743,1.2118,5.8409
			c1.2839,1.6488,3.2048,2.6002,5.2725,2.6002c0.1796,0,0.368-0.0089,0.5568-0.0208c0.6012-0.0539,1.2088-0.0809,1.84-0.0809
			c6.4635,0,11.3619,2.9208,14.5609,8.6869c1.161,2.0947,3.2707,3.4202,5.6405,3.552c5.2756,0.2844,14.3602,3.2256,15.9403,19.7344
			c1.7772,18.5197-15.3778,42.6708-21.8321,51.7646c-0.6315,0.8886-1.1582,1.6219-1.544,2.1903l-0.1529,0.2243
			c-0.4547,0.6496-0.9275,1.3197-1.0173,2.6094l-1.9448,19.0373c-0.027,0.4369-0.1078,0.5445-0.1078,0.5445
			c-0.2424,0.2485-1.7864,0.2485-2.2951,0.2485L71.7275,193.4599z"/>
	</defs>
	<radialGradient id="SVGID_5_" cx="-24.3234" cy="413.5386" r="399.0136" gradientUnits="userSpaceOnUse">
		<stop  offset="0.1174" style="stop-color:#FBEC7B"/>
		<stop  offset="1" style="stop-color:#F3B941"/>
	</radialGradient>
	<use xlink:href="#SVGID_4_"  overflow="visible" fill="url(#SVGID_5_)"/>
	<clipPath id="SVGID_6_">
		<use xlink:href="#SVGID_4_"  overflow="visible"/>
	</clipPath>
	<g clip-path="url(#SVGID_6_)">
		<radialGradient id="SVGID_7_" cx="128.4415" cy="-64.0329" r="257.0142" gradientUnits="userSpaceOnUse">
			<stop  offset="0.1174" style="stop-color:#FBEC7B"/>
			<stop  offset="1" style="stop-color:#F3B941"/>
		</radialGradient>
		<path fill="url(#SVGID_7_)" d="M161.767,116.838c-0.2813-2.9744-0.82-5.4968-1.5263-7.6543
			c-6.1433-6.4457-13.3159-3.609-18.1514-3.5939c-5.8142,0.0181-4.4436-4.2579-9.3929-9.342
			c-4.9495-5.081-15.9134-3.0491-18.035-6.4215c-2.1186-3.3724,2.0827-13.3009,2.0827-13.3009
			c4.2251-16.5418,15.0814-54.6403,15.2159-55.1011c1.5382-4.6171,0.2007-7.8966-1.1969-9.8326
			c-1.1941-1.6608-2.9324-2.9805-4.9075-3.8483c-5.0359,1.0562-10.3323,3.1031-11.8975,7.1009
			c-3.2318,8.2257-14.9767,54.601-18.1903,60.6754C91.6503,83.3,78.2447,84.7122,74.4175,74.368
			c-1.6038-4.3419-14.8179-48.09-16.9365-56.5731c-0.6435-2.5675-2.1397-4.7638-3.908-6.5892
			c-0.5178-0.0659-1.0384-0.1198-1.5829-0.1198c-3.8633,0-7.6454,1.7536-9.8748,4.5873c-2.1035,2.6722-2.7409,6.0863-1.8253,9.8657
			l15.7608,65.5382c0.8558,3.5667-1.3494,7.2204-4.9134,8.1451c-5.0663,1.3075-11.284,5.3353-12.146,17.0983
			c-1.0146,13.8484,17.8192,40.3157,24.9112,50.2742c0.8319,1.173,1.5051,2.1216,1.9779,2.8129
			c0.6701,0.9842,1.0774,2.1244,1.161,3.2287l2.4268,20.1293c0.0239,0.2963,0.0809,0.4339,0.1048,0.4578
			c0.1615,0.1587,0.8886,0.2366,2.1544,0.2366l61.1455-0.0031c0.5087,0,2.0527,0,2.2951-0.2485c0,0,0.0809-0.1076,0.1078-0.5445
			l1.9448-19.0373c0.0898-1.2897,0.5626-1.9598,1.0173-2.6094l0.1529-0.2243c0.3858-0.5684,0.9125-1.3017,1.544-2.1903
			C146.3893,159.5088,163.5442,135.3578,161.767,116.838z"/>
		<radialGradient id="SVGID_8_" cx="110.9584" cy="176.0818" r="106.3837" gradientUnits="userSpaceOnUse">
			<stop  offset="0.0054" style="stop-color:#711A12;stop-opacity:0.5"/>
			<stop  offset="0.5905" style="stop-color:#831D19;stop-opacity:0.2059"/>
			<stop  offset="1" style="stop-color:#931F1F;stop-opacity:0"/>
		</radialGradient>
		<path fill="url(#SVGID_8_)" d="M114.6615,89.8263c2.1216,3.3724,13.0855,1.3406,18.035,6.4215
			c4.9492,5.084,3.5787,9.3601,9.3929,9.342c4.8355-0.015,12.0081-2.8518,18.1514,3.5939
			c-3.2137-9.8151-10.0872-11.8466-14.4141-12.0801c-2.3698-0.1318-4.4795-1.4573-5.6405-3.552
			c-3.199-5.7661-8.0973-8.6869-14.5609-8.6869c-0.6312,0-1.2388,0.027-1.84,0.0809c-0.1888,0.0119-0.3772,0.0208-0.5568,0.0208
			c-2.0677,0-3.9886-0.9514-5.2725-2.6002c-1.2928-1.6666-1.7355-3.7971-1.2118-5.8409
			C116.7442,76.5254,112.543,86.4539,114.6615,89.8263z"/>
		<radialGradient id="SVGID_9_" cx="128.4413" cy="-64.0344" r="257.0186" gradientUnits="userSpaceOnUse">
			<stop  offset="0.1174" style="stop-color:#FBEC7B"/>
			<stop  offset="1" style="stop-color:#F3B941"/>
		</radialGradient>
		<path fill="url(#SVGID_9_)" d="M74.4175,74.368c3.8271,10.3443,17.2328,8.932,21.3504,1.1518
			c3.2137-6.0744,14.9586-52.4497,18.1903-60.6754c1.5652-3.9978,6.8616-6.0447,11.8975-7.1009
			c-1.6188-0.7121-3.3902-1.1282-5.1735-1.1282c-2.349,0-8.0526,0.7633-10.3268,7.8369L95.0439,65.4148
			c-1.1849,3.9377-4.6113,6.4844-8.7289,6.4844c-4.0245,0-7.4238-2.4807-8.6627-6.314L62.9929,20.0718
			c-1.2208-5.0749-4.6949-8.2796-9.4198-8.8661c1.7683,1.8253,3.2645,4.0217,3.908,6.5892
			C59.5996,26.2779,72.8138,70.0261,74.4175,74.368z"/>
		<radialGradient id="SVGID_10_" cx="16.3713" cy="170.2291" r="194.8385" gradientUnits="userSpaceOnUse">
			<stop  offset="0.0054" style="stop-color:#711A12;stop-opacity:0.5"/>
			<stop  offset="0.5905" style="stop-color:#831D19;stop-opacity:0.2059"/>
			<stop  offset="1" style="stop-color:#931F1F;stop-opacity:0"/>
		</radialGradient>
		<path fill="url(#SVGID_10_)" d="M74.4175,74.368c3.8271,10.3443,17.2328,8.932,21.3504,1.1518
			c3.2137-6.0744,14.9586-52.4497,18.1903-60.6754c1.5652-3.9978,6.8616-6.0447,11.8975-7.1009
			c-1.6188-0.7121-3.3902-1.1282-5.1735-1.1282c-2.349,0-8.0526,0.7633-10.3268,7.8369L95.0439,65.4148
			c-1.1849,3.9377-4.6113,6.4844-8.7289,6.4844c-4.0245,0-7.4238-2.4807-8.6627-6.314L62.9929,20.0718
			c-1.2208-5.0749-4.6949-8.2796-9.4198-8.8661c1.7683,1.8253,3.2645,4.0217,3.908,6.5892
			C59.5996,26.2779,72.8138,70.0261,74.4175,74.368z"/>
	</g>
</g>
<g>
	<defs>
		<path id="SVGID_11_" d="M71.7275,193.4599c-1.2658,0-1.9929-0.0778-2.1544-0.2366c-0.0239-0.0239-0.0809-0.1615-0.1048-0.4578
			l-2.4268-20.1293c-0.0836-1.1043-0.4909-2.2445-1.161-3.2287c-0.4728-0.6913-1.146-1.6399-1.9779-2.8129
			c-7.092-9.9585-25.9258-36.4257-24.9112-50.2742c0.8619-11.763,7.0797-15.7908,12.146-17.0983
			c3.5639-0.9248,5.7692-4.5785,4.9134-8.1451L40.2899,25.5389c-0.9155-3.7793-0.2782-7.1934,1.8253-9.8657
			c2.2295-2.8337,6.0116-4.5873,9.8748-4.5873c5.5329,0,9.6472,3.3574,11.0028,8.9859l14.6595,45.5134
			c1.2388,3.8333,4.6382,6.314,8.6627,6.314c4.1176,0,7.5439-2.5466,8.7289-6.4844l15.3116-50.9627
			c2.2742-7.0736,7.9778-7.8369,10.3268-7.8369c3.9497,0,7.9028,1.9509,10.0811,4.9765c1.3976,1.9359,2.7351,5.2155,1.1969,9.8326
			c-0.1345,0.4608-10.9908,38.5593-15.2159,55.1011c-0.5237,2.0438-0.0809,4.1743,1.2118,5.8409
			c1.2839,1.6488,3.2048,2.6002,5.2725,2.6002c0.1796,0,0.368-0.0089,0.5568-0.0208c0.6012-0.0539,1.2088-0.0809,1.84-0.0809
			c6.4635,0,11.3619,2.9208,14.5609,8.6869c1.161,2.0947,3.2707,3.4202,5.6405,3.552c5.2756,0.2844,14.3602,3.2256,15.9403,19.7344
			c1.7772,18.5197-15.3778,42.6708-21.8321,51.7646c-0.6315,0.8886-1.1582,1.6219-1.544,2.1903l-0.1529,0.2243
			c-0.4547,0.6496-0.9275,1.3197-1.0173,2.6094l-1.9448,19.0373c-0.027,0.4369-0.1078,0.5445-0.1078,0.5445
			c-0.2424,0.2485-1.7864,0.2485-2.2951,0.2485L71.7275,193.4599z"/>
	</defs>
	<clipPath id="SVGID_12_">
		<use xlink:href="#SVGID_11_"  overflow="visible"/>
	</clipPath>
</g>
</svg>
