<?xml version="1.0" encoding="utf-8"?>
<!-- Generator: Adobe Illustrator 17.0.0, SVG Export Plug-In . SVG Version: 6.00 Build 0)  -->
<!DOCTYPE svg PUBLIC "-//W3C//DTD SVG 1.1//EN" "http://www.w3.org/Graphics/SVG/1.1/DTD/svg11.dtd">
<svg version="1.1" id="Layer_1" xmlns="http://www.w3.org/2000/svg" xmlns:xlink="http://www.w3.org/1999/xlink" x="0px" y="0px"
	 viewBox="0 0 200 200" enable-background="new 0 0 200 200" xml:space="preserve">
<g>
	<path fill="#903F40" d="M1,113.9092l2.379-1.586c2.0526-1.3675,50.429-33.5765,65.5881-39.6357
		c4.4733-1.7925,9.2012-2.6992,14.0606-2.6992c11.2333,0,22.4783,5.0959,27.3438,12.3971
		c0.2991,0.4547,30.2997,46.8921,29.3152,55.7165c-0.8586,7.7231-23.2829,30.2341-34.3544,30.2341
		c-5.1734,0-13.6328-2.6661-16.2989-7.409c-6.3016,9.9973-21.5566,21.7481-35.7848,24.4172
		c-19.1537,3.5905-45.1566,3.0969-46.7457,3.1478L1,188.6596V113.9092z"/>
	<g>
		<radialGradient id="SVGID_1_" cx="-43.7608" cy="28.9039" r="207.1939" gradientUnits="userSpaceOnUse">
			<stop  offset="0.1174" style="stop-color:#FBEC7B"/>
			<stop  offset="1" style="stop-color:#F3B941"/>
		</radialGradient>
		<path fill="url(#SVGID_1_)" d="M100,91.0213c-4.4228-6.628-12.9747-17.6756-26.1228-14.3271
			C88.0846,76.2661,100,91.0213,100,91.0213z"/>
		<radialGradient id="SVGID_2_" cx="93.1041" cy="-8.9627" r="222.1788" gradientUnits="userSpaceOnUse">
			<stop  offset="0.1174" style="stop-color:#FBEC7B"/>
			<stop  offset="1" style="stop-color:#F3B941"/>
		</radialGradient>
		<path fill="url(#SVGID_2_)" d="M47.8774,164.6046c25.5899-10.9787,14.4528-27.2059,37.1461-43.6816
			c6.5532-4.7607,7.3551-15.3833,0-25.8592c-5.8828-8.3754-14.8566-13.7137-18.229-15.5182
			c-18.259,9.0878-60.4594,37.2212-60.4594,37.2212v52.9637C17.1586,169.9787,36.2464,169.5926,47.8774,164.6046z"/>
		<radialGradient id="SVGID_3_" cx="156.1739" cy="35.7758" r="166.7905" gradientUnits="userSpaceOnUse">
			<stop  offset="0.0054" style="stop-color:#711A12;stop-opacity:0.5"/>
			<stop  offset="0.5905" style="stop-color:#831D19;stop-opacity:0.2059"/>
			<stop  offset="1" style="stop-color:#931F1F;stop-opacity:0"/>
		</radialGradient>
		<path fill="url(#SVGID_3_)" d="M73.8773,76.6942c-2.747,0.0778-5.5807,0.721-8.4294,2.1605c0,0,0.5059,0.2362,1.3467,0.691
			c1.571-0.7807,2.9863-1.4392,4.1592-1.9089C71.9533,77.2356,72.9287,76.9335,73.8773,76.6942z"/>
		<radialGradient id="SVGID_4_" cx="93.107" cy="-8.9631" r="222.1792" gradientUnits="userSpaceOnUse">
			<stop  offset="0.1174" style="stop-color:#FBEC7B"/>
			<stop  offset="1" style="stop-color:#F3B941"/>
		</radialGradient>
		<path fill="url(#SVGID_4_)" d="M43.0806,181.0052c24.5818-3.1805,39.4176-18.7465,41.8024-27.7862
			c1.0292-3.9049-4.3777-12.7651,0.0748-21.6344c3.2078-6.3914,10.5868-9.9522,18.301-8.893
			c5.9036,0.8049,12.352,7.7231,11.5621,13.9322c-2.4715,0.778-5.057-4.0756-6.8195-5.6346
			c-2.5073-2.2203-7.2711-4.1323-10.9667-3.2826c-12.8996,2.9685-9.4108,18.6601-5.0089,26.6703
			c2.7228,4.9494,7.1305,8.6267,13.3065,8.6267c8.3068,0,28.4628-20.1591,29.0554-25.4881
			c0.5893-5.3383-29.6446-39.3756-34.3875-46.4941c0,0-11.9154-14.7552-26.1228-14.3271c-0.9486,0.2393-1.924,0.5414-2.9235,0.9425
			c-1.1729,0.4697-2.5882,1.1282-4.1592,1.9089c3.3724,1.8045,12.3462,7.1427,18.229,15.5182
			c7.3551,10.4759,6.5532,21.0985,0,25.8592c-22.6934,16.4757-11.5563,32.7029-37.1461,43.6816
			c-11.631,4.9881-30.7189,2.31-41.5422,2.0618v16.4904C6.3352,183.1568,24.7379,183.3783,43.0806,181.0052z"/>
		<radialGradient id="SVGID_5_" cx="156.1874" cy="33.1249" r="194.5999" gradientUnits="userSpaceOnUse">
			<stop  offset="0.0054" style="stop-color:#711A12;stop-opacity:0.5"/>
			<stop  offset="0.5905" style="stop-color:#831D19;stop-opacity:0.2059"/>
			<stop  offset="1" style="stop-color:#931F1F;stop-opacity:0"/>
		</radialGradient>
		<path fill="url(#SVGID_5_)" d="M43.0806,181.4213c24.5818-3.1808,39.4176-18.7468,41.8024-27.7865
			c1.0292-3.9049-4.3777-12.7651,0.0748-21.6341c3.2078-6.3917,10.5868-9.9525,18.301-8.8933
			c5.9036,0.8049,12.352,7.7231,11.5621,13.9322c-2.4715,0.778-5.057-4.0756-6.8195-5.6346
			c-2.5073-2.2202-7.2711-4.1322-10.9667-3.2823c-12.8996,2.9682-9.4108,18.6598-5.0089,26.6703
			c2.7228,4.9491,7.1305,8.6267,13.3065,8.6267c8.3068,0,28.4628-20.1591,29.0554-25.4884
			c0.5893-5.3383-29.6446-39.3756-34.3875-46.4941c0,0-7.9716-16.9512-22.1759-16.5235c-0.9517,0.2393-5.8708,2.7381-6.8703,3.1389
			c-1.1729,0.47-2.5882,1.1282-4.1592,1.9092c3.3724,1.8045,12.3462,7.1424,18.229,15.5179c7.3551,10.4762,6.5532,21.0988,0,25.8595
			c-22.6934,16.4754-11.5563,32.7026-37.1461,43.6816c-11.631,4.9881-30.7189,7.4626-41.5422,7.2141v11.3378
			C6.3352,183.5726,24.7379,183.7941,43.0806,181.4213z"/>
	</g>
	<path fill="#903F40" d="M181.7525,188.4951c-13.4952,0-31.802-2.6152-42.3977-15.0782
		c-15.623-18.3846-21.1647-41.8979-23.9745-57.9845c-2.1602-12.3554-23.0344-29.4801-27.0772-31.3173
		c-9.8716-4.4917-23.232-17.3254-20.581-30.6024c0.5537-2.7767,1.4303-4.958,2.5015-6.6666l-0.6073-0.7899
		c-4.7457-6.2241-7.6094-9.9795-7.2595-18.1484c0.2905-6.556,6.7778-16.6669,14.8211-16.6669
		c8.2915,0,22.7234,12.0649,43.7799,30.4704c4.7849,4.18,9.2941,8.118,12.7473,10.9248
		c14.2612,11.5891,61.6832,58.1821,63.7027,60.1631l1.5921,1.571v72.6227l-4.5333,0.6913
		C194.2513,187.714,189.0444,188.4951,181.7525,188.4951z"/>
	<g>
		<path fill="none" d="M74.5597,50.0567c5.2335-9.1653,18.5939-0.1048,24.2824,5.5148
			c7.9624,7.8548,33.4806,31.2545,35.5513,27.0144c3.7403,1.221-33.1365-30.186-38.2443-34.5907
			c-5.4042-4.6501-9.0489-6.6341-14.3183-6.5532c-5.1557,0.0837-7.3459,2.1994-7.3459,2.1994S74.0869,46.4122,74.5597,50.0567z"/>
		<radialGradient id="SVGID_6_" cx="93.1056" cy="-8.9618" r="222.1801" gradientUnits="userSpaceOnUse">
			<stop  offset="0.1174" style="stop-color:#FBEC7B"/>
			<stop  offset="1" style="stop-color:#F3B941"/>
		</radialGradient>
		<path fill="url(#SVGID_6_)" d="M96.149,47.9951c5.1079,4.4046,41.9847,35.8117,38.2443,34.5907
			c-2.0707,4.2401-27.5889-19.1595-35.5513-27.0144c-5.6885-5.6196-19.0489-14.6801-24.2824-5.5148
			c0.5206,4.0158,2.0974,9.0967,6.4781,12.7473c8.3546,6.9659,33.855,19.6593,41.1292,32.2567s18.16,43.7113,30.7817,56.4405
			c8.8391,8.9202,29.2674,10.5448,40.7161,10.7216v-45.6205c0,0-49.0977-48.2627-63.3231-59.8217
			c-14.2251-11.5593-43.9776-40.2017-53.1638-40.2017c-4.5664,0-9.3121,7.4568-9.4886,11.5593
			c-0.2782,6.5201,1.8372,8.98,6.7956,15.5031c0,0,2.1902-2.1158,7.3459-2.1994C87.1002,41.361,90.7449,43.3451,96.149,47.9951z"/>
		<radialGradient id="SVGID_7_" cx="93.1037" cy="-8.9621" r="222.1806" gradientUnits="userSpaceOnUse">
			<stop  offset="0.1174" style="stop-color:#FBEC7B"/>
			<stop  offset="1" style="stop-color:#F3B941"/>
		</radialGradient>
		<path fill="url(#SVGID_7_)" d="M122.167,95.0607c-7.2742-12.5975-32.7746-25.2908-41.1292-32.2567
			c-4.3808-3.6506-5.9575-8.7315-6.4781-12.7473c-0.6793,1.188-1.2388,2.6483-1.6099,4.5033
			c-2.0229,10.1171,9.3299,20.9493,17.5647,24.6985c4.8864,2.2233,27.538,20.4462,30.1235,35.2522
			c2.5821,14.8027,7.6691,37.6609,22.7893,55.4502c15.1168,17.777,50.2375,12.4479,50.2375,12.4479v-20.186
			c-11.4487-0.1768-31.8771-1.8014-40.7161-10.7216C140.327,138.772,129.4411,107.6582,122.167,95.0607z"/>
		<radialGradient id="SVGID_8_" cx="214.5941" cy="-8.1855" r="211.1137" gradientUnits="userSpaceOnUse">
			<stop  offset="0.0054" style="stop-color:#711A12;stop-opacity:0.5"/>
			<stop  offset="0.5905" style="stop-color:#831D19;stop-opacity:0.2059"/>
			<stop  offset="1" style="stop-color:#931F1F;stop-opacity:0"/>
		</radialGradient>
		<path fill="url(#SVGID_8_)" d="M122.167,95.0518c-7.2742-12.5975-32.7746-25.2908-41.1292-32.2571
			c-4.3808-3.6506-5.9575-8.7315-6.4781-12.747c-0.6793,1.188-1.2388,2.648-1.6099,4.5033
			c-2.0229,10.1171,9.3299,20.949,17.5647,24.6985c4.8864,2.223,27.538,20.4462,30.1235,35.2519
			c2.5821,14.803,7.6691,37.6612,22.7893,55.4502c15.1168,17.7773,50.2375,12.4479,50.2375,12.4479v-20.186
			c-11.4487-0.1765-31.8771-1.8014-40.7161-10.7213C140.327,138.7631,129.4411,107.6493,122.167,95.0518z"/>
	</g>
</g>
<g>
	<defs>
		<path id="SVGID_9_" d="M6.3352,116.7668c0,0,49.7978-33.2023,64.6186-39.1302c14.8177-5.9278,30.2311,0.5895,34.974,7.705
			c4.7426,7.1188,29.049,46.8354,28.4597,52.1737c-0.5926,5.3291-20.7486,25.4881-29.0554,25.4881
			c-6.176,0-10.5837-3.6772-13.3065-8.6267c-4.4019-8.0102-7.8907-23.7018,5.0089-26.6703
			c3.6956-0.8497,8.4594,1.0623,10.9667,3.2826c1.7625,1.559,4.348,6.4126,6.8195,5.6346
			c0.7899-6.2091-5.6585-13.1272-11.5621-13.9322c-7.7142-1.0593-15.0932,2.5015-18.301,8.893
			c-4.4524,8.8694,0.9545,17.7295-0.0748,21.6344c-2.3848,9.0397-17.2206,24.6057-41.8024,27.7862
			c-18.3427,2.3732-36.7454,2.1516-36.7454,2.1516V116.7668z"/>
	</defs>
	<clipPath id="SVGID_10_">
		<use xlink:href="#SVGID_9_"  overflow="visible"/>
	</clipPath>
</g>
<g>
	<defs>
		<path id="SVGID_11_" d="M193.6648,182.4088v-65.8066c0,0-49.0977-48.2627-63.3231-59.8217
			c-14.2251-11.5593-43.9776-40.2017-53.1638-40.2017c-4.5664,0-9.3121,7.4568-9.4886,11.5593
			c-0.2782,6.5201,1.8372,8.98,6.7956,15.5031c0,0,2.1902-2.1158,7.3459-2.1994c5.2694-0.0809,8.9141,1.9031,14.3183,6.5532
			c5.1079,4.4046,41.9847,35.8117,38.2443,34.5907c-2.0707,4.2401-27.5889-19.1595-35.5513-27.0144
			c-6.4306-6.3467-22.6698-17.1397-25.8923-1.0115c-2.0229,10.1171,9.3299,20.9493,17.5647,24.6985
			c4.8864,2.2233,27.538,20.4462,30.1235,35.2522c2.5821,14.8027,7.6691,37.6609,22.7893,55.4502
			C158.544,187.7379,193.6648,182.4088,193.6648,182.4088z"/>
	</defs>
	<clipPath id="SVGID_12_">
		<use xlink:href="#SVGID_11_"  overflow="visible"/>
	</clipPath>
</g>
</svg>
