<?xml version="1.0" encoding="utf-8"?>
<!-- Generator: Adobe Illustrator 17.0.0, SVG Export Plug-In . SVG Version: 6.00 Build 0)  -->
<!DOCTYPE svg PUBLIC "-//W3C//DTD SVG 1.1//EN" "http://www.w3.org/Graphics/SVG/1.1/DTD/svg11.dtd">
<svg version="1.1" id="Layer_1" xmlns="http://www.w3.org/2000/svg" xmlns:xlink="http://www.w3.org/1999/xlink" x="0px" y="0px"
	viewBox="0 0 200 200" enable-background="new 0 0 200 200" xml:space="preserve">
<g>
	<path fill="#903F40" d="M177.5329,74.2789c-4.8881-4.3798-10.7389-6.4994-16.9681-6.0667c-0.9228,0.0613-1.8889,0.2163-2.88,0.4216
		l-0.0217-8.7308c0.0217-0.2632,0.0324-0.5371,0.0324-0.8254c0-0.6094-0.0469-1.1609-0.1333-1.6548
		c-0.0468-1.402-0.1082-3.7633-0.2019-7.7072c-0.2957-12.9954-9.3366-22.0721-21.9898-22.0721
		c-8.3812,0-15.2232,4.2572-18.7558,10.9692c-2.8804-7.2528-9.8847-11.5244-19.6897-11.6831l-0.4396-0.0037
		c-10.9625,0-19.1781,7.0258-20.1548,16.9105c-3.7707-4.5673-10.0394-7.8696-16.5679-7.9741l-0.4326-0.0037
		c-11.1099,0-17.4978,7.2602-19.3471,14.8991c-3.767-4.3547-7.7467-6.341-13.5975-6.471h-0.382
		c-9.423,0-18.338,7.1882-19.0803,15.3786c-0.4437,4.9062-0.6238,8.4964-0.5227,10.2701c-0.1082,3.832-0.1805,10.1907-0.213,13.9722
		l-0.0107,0.739l0.065,0.4289c0.8509,5.8726,2.9162,13.5041,7.8511,16.8385c-0.1152,0.1369-0.2451,0.2702-0.3496,0.4182
		c-5.2701,7.3465-2.9885,48.8093,8.5256,64.797l21.4342,29.776l2.8298,0.0432c5.3244,0.0864,23.064,0.1152,41.3188,0.1152
		c22.5195,0,45.8175-0.0395,47.548-0.0395l1.0524-0.0037l0.9878-0.3784c11.8094-4.5928,58.1426-44.2136,56.704-77.8972
		C193.6464,107.3173,189.5984,85.0935,177.5329,74.2789z M84.4129,185.7841c-14.4808-0.0037-28.1577-0.0218-34.8733-0.0757
		l-18.1217-25.1762c-8.5651-11.8854-9.0265-38.3126-8.6012-48.6765c5.2993,0.7678,9.3329-0.0576,14.2752-1.8815
		c1.031-0.3787,1.9937-0.887,2.8767-1.471c2.4045,2.3433,5.6308,4.1709,9.5602,5.3857c6.0018,1.842,15.1043,2.581,21.9352,0.0576
		c2.0838-0.7678,4.0591-2.0941,5.8257-3.6589c2.5991,3.1904,5.8759,5.7028,9.0767,6.6873l1.2547,0.3965
		c3.0893,0.9804,6.0635,1.914,10.1763,1.3876c1.0672,1.7881,2.4802,3.9187,4.2141,5.9121
		c-19.1489,15.2955-20.5978,47.6562-20.6845,54.6099C81.2907,181.8834,82.4878,184.2123,84.4129,185.7841z M134.1993,185.7479
		c-4.4595,0.0037-20.8613,0.0288-38.3883,0.0362c1.4961-1.3555,2.4514-3.2912,2.6065-5.5732
		c0.7246-10.7064,1.1535-14.9275,1.5755-17.9703c0.9118-6.6182,2.0184-11.6436,8.7307-20.8071
		c4.5131-6.1461,20.9872-8.6119,30.8214-10.0863l0.7317-0.1118c12.5919-1.8852,28.5216-10.0394,31.1783-14.6573
		c0.0399-0.0683,3.4211-7.2314,0.0111-11.1822c-1.1391-1.3119-2.7541-2.0221-4.4304-2.0221c-0.7678,0-1.5467,0.155-2.2926,0.4614
		c-1.5825,0.6667-3.4537,1.5175-5.5515,2.4909c-10.912,5.0143-29.1562,13.4174-41.0918,8.183
		c-4.2716-1.8712-6.9645-4.488-7.3753-7.1808c-0.447-2.8516,1.7807-5.375,3.2551-6.7087c0.9948-0.5552,4.3402-1.7305,6.8131-2.5921
		c6.049-2.1196,13.5868-4.7582,18.8101-8.2587c8.9183-5.9767,17.4402-10.0213,21.7048-10.3063
		c3.1794-0.2196,6.0491,0.8328,8.695,3.2122c8.5651,7.6747,12.4402,26.4991,12.8729,36.5529
		C184.0179,145.8927,144.3756,180.6723,134.1993,185.7479z"/>
	<g>
		<g>
			<path fill="none" d="M44.8998,62.2244c0,0.0144-0.0465,1.3086-0.1226,3.3344c0.0255-0.1115,0.0543-0.2163,0.0543-0.3315
				L44.8998,62.2244z"/>
			
				<radialGradient id="SVGID_1_" cx="7785.2549" cy="13.2666" r="135.547" gradientTransform="matrix(-1 0 0 1 7867.1328 0)" gradientUnits="userSpaceOnUse">
				<stop  offset="0.1174" style="stop-color:#FBEC7B"/>
				<stop  offset="1" style="stop-color:#F3B941"/>
			</radialGradient>
			<path fill="url(#SVGID_1_)" d="M118.7307,86.7841c0,0,12.7865-5.9623,16.9681-8.118
				c10.2989-5.3063,16.3479-10.245,16.3479-10.245c-0.0975-24.1271,0.2308,5.5444-0.3208-18.5756
				c-0.2126-9.3436-6.0453-16.5679-16.3553-16.5679c-9.7725,0-15.6377,7.0944-15.7278,16.0559
				C119.6428,49.3334,119.6753,75.2128,118.7307,86.7841z"/>
			<g>
				
					<radialGradient id="SVGID_2_" cx="7789.2515" cy="-71.9955" r="271.7562" gradientTransform="matrix(-1 0 0 1 7867.1328 0)" gradientUnits="userSpaceOnUse">
					<stop  offset="0.1174" style="stop-color:#FBEC7B"/>
					<stop  offset="1" style="stop-color:#F3B941"/>
				</radialGradient>
				<path fill="url(#SVGID_2_)" d="M38.3248,85.5837c-0.0325-3.7453-0.3244-9.1885-0.3244-17.9662l-0.1587-7.9597
					c0.0612-5.9154-5.5622-9.6068-11.575-9.7293c-6.6474-0.1443-13.2512,4.9926-13.7274,10.2483
					c-0.7209,7.9128-0.5009,9.5817-0.5009,9.5817v0.2813c-0.1152,3.9003-0.1801,10.5045-0.22,14.232
					c0.1011,0.6523,0.2562,1.6257,0.4869,2.7397C17.806,89.787,26.7786,91.784,38.3248,85.5837z"/>
				
					<radialGradient id="SVGID_3_" cx="7789.2524" cy="-72.0107" r="271.7776" gradientTransform="matrix(-1 0 0 1 7867.1328 0)" gradientUnits="userSpaceOnUse">
					<stop  offset="0.1174" style="stop-color:#FBEC7B"/>
					<stop  offset="1" style="stop-color:#F3B941"/>
				</radialGradient>
				<path fill="url(#SVGID_3_)" d="M17.3228,97.3178c4.4485,2.8619,11.918,4.6611,17.6532-1.3916
					c2.8767-3.0424,3.3957-4.8486,3.3488-10.3424C26.7786,91.784,17.806,89.787,12.3051,87.0115
					C13.0331,90.5116,14.5292,95.5223,17.3228,97.3178z"/>
				<radialGradient id="SVGID_4_" cx="28.4377" cy="81.3839" r="37.2868" gradientUnits="userSpaceOnUse">
					<stop  offset="0.0054" style="stop-color:#711A12;stop-opacity:0.5"/>
					<stop  offset="0.5905" style="stop-color:#831D19;stop-opacity:0.2059"/>
					<stop  offset="1" style="stop-color:#931F1F;stop-opacity:0"/>
				</radialGradient>
				<path fill="url(#SVGID_4_)" d="M17.3228,97.3178c4.4485,2.8619,11.918,4.6611,17.6532-1.3916
					c2.8767-3.0424,3.3957-4.8486,3.3488-10.3424C26.7786,91.784,17.806,89.787,12.3051,87.0115
					C13.0331,90.5116,14.5292,95.5223,17.3228,97.3178z"/>
			</g>
			<g>
				<defs>
					<path id="SVGID_5_" d="M17.3228,97.3178c4.4485,2.8619,11.918,4.6611,17.6532-1.3916c4.8412-5.1151,3.0244-6.64,3.0244-28.3087
						l-0.1587-7.9597c0.0612-5.9154-5.5622-9.6068-11.575-9.7293c-6.6474-0.1443-13.2512,4.9926-13.7274,10.2483
						c-0.7209,7.9128-0.5009,9.5817-0.5009,9.5817v0.2813c-0.1152,3.9003-0.1801,10.5045-0.22,14.232
						C12.2151,86.9897,13.6425,94.9494,17.3228,97.3178z"/>
				</defs>
				<clipPath id="SVGID_6_">
					<use xlink:href="#SVGID_5_"  overflow="visible"/>
				</clipPath>
			</g>
			<g>
				
					<radialGradient id="SVGID_7_" cx="7784.5361" cy="-70.0924" r="269.9982" gradientTransform="matrix(-1 0 0 1 7867.1328 0)" gradientUnits="userSpaceOnUse">
					<stop  offset="0.1174" style="stop-color:#FBEC7B"/>
					<stop  offset="1" style="stop-color:#F3B941"/>
				</radialGradient>
				<path fill="url(#SVGID_7_)" d="M160.9362,73.8393c-6.3262,0.4219-16.5318,5.9298-24.4733,11.2472
					c-7.9449,5.3244-23.5213,8.9545-26.0267,11.1424c-8.7168,7.6171-6.8818,18.0603,5.4034,23.446
					c16.6617,7.3034,40.5691-6.2365,51.0843-10.6377c1.0491-0.4363-0.1694,4.4193-0.2994,4.6393
					c-1.1642,2.0188-14.4373,10.0756-27.1839,11.9862c-12.0836,1.8132-29.2426,4.2321-35.2554,12.4329
					c-7.217,9.8485-8.7057,15.6451-9.7762,23.3667c-0.4075,2.9416-0.8472,7.0077-1.6187,18.363
					c-0.2525,3.7888-5.8689,2.5847-5.829-0.4721c0.0506-4.0664-0.1768-17.0042,4.124-29.6028
					c-13.9976,13.3125-16.8311-30.2016-50.4173-37.7574c-12.0113-2.7035-19.4158-2.2816-23.7199-1.3119
					c-1.4311,11.8777,0.5589,40.183,9.8987,53.1496c19.7798,27.4796,19.7798,27.4796,19.7798,27.4796
					c11.9718,0.2019,88.7657,0.0723,88.7657,0.0723c10.2413-3.9726,54.4225-41.8415,53.1138-72.396
					C187.8609,103.929,180.6691,72.527,160.9362,73.8393z"/>
				
					<radialGradient id="SVGID_8_" cx="7784.5356" cy="-70.0899" r="269.9965" gradientTransform="matrix(-1 0 0 1 7867.1328 0)" gradientUnits="userSpaceOnUse">
					<stop  offset="0.1174" style="stop-color:#FBEC7B"/>
					<stop  offset="1" style="stop-color:#F3B941"/>
				</radialGradient>
				<path fill="url(#SVGID_8_)" d="M40.6681,111.9928c33.5862,7.5558,36.4197,51.0699,50.4173,37.7574
					c3.3488-9.8053,9.441-19.4088,20.5439-24.4552c-6.341-2.8154-10.8795-13.0246-10.8795-13.0246
					c-5.6272,1.9213-8.035,0.7608-12.7286-0.6848c-3.7995-1.1679-8.3598-6.193-9.791-11.1678
					c-2.0439,3.3632-5.4359,7.0221-8.7234,8.2443c-5.5839,2.0583-13.6193,1.2835-18.3198-0.162
					c-3.9582-1.2185-8.8969-3.7818-10.1549-8.9475c-1.6043,2.2927-3.6696,4.3152-5.894,5.1369
					c-5.5839,2.0583-11.3731,2.0332-16.0666,0.5877c-0.9483-0.2957-1.6906,1.8169-2.1233,5.4038
					C21.2523,109.7111,28.6568,109.2892,40.6681,111.9928z"/>
				<radialGradient id="SVGID_9_" cx="74.8573" cy="64.3548" r="97.6329" gradientUnits="userSpaceOnUse">
					<stop  offset="0.0054" style="stop-color:#711A12;stop-opacity:0.5"/>
					<stop  offset="0.5905" style="stop-color:#831D19;stop-opacity:0.2059"/>
					<stop  offset="1" style="stop-color:#931F1F;stop-opacity:0"/>
				</radialGradient>
				<path fill="url(#SVGID_9_)" d="M40.6681,111.9928c33.5862,7.5558,36.4197,51.0699,50.4173,37.7574
					c3.3488-9.8053,9.441-19.4088,20.5439-24.4552c-6.341-2.8154-10.8795-13.0246-10.8795-13.0246
					c-5.6272,1.9213-8.035,0.7608-12.7286-0.6848c-3.7995-1.1679-8.3598-6.193-9.791-11.1678
					c-2.0439,3.3632-5.4359,7.0221-8.7234,8.2443c-5.5839,2.0583-13.6193,1.2835-18.3198-0.162
					c-3.9582-1.2185-8.8969-3.7818-10.1549-8.9475c-1.6043,2.2927-3.6696,4.3152-5.894,5.1369
					c-5.5839,2.0583-11.3731,2.0332-16.0666,0.5877c-0.9483-0.2957-1.6906,1.8169-2.1233,5.4038
					C21.2523,109.7111,28.6568,109.2892,40.6681,111.9928z"/>
			</g>
			<radialGradient id="SVGID_10_" cx="140.7936" cy="104.6724" r="30.7568" gradientUnits="userSpaceOnUse">
				<stop  offset="0.0054" style="stop-color:#711A12;stop-opacity:0.5"/>
				<stop  offset="0.5905" style="stop-color:#831D19;stop-opacity:0.2059"/>
				<stop  offset="1" style="stop-color:#931F1F;stop-opacity:0"/>
			</radialGradient>
			<path fill="url(#SVGID_10_)" d="M119.7941,120.9871c18.0172,4.9169,47.1298-11.95,47.1298-11.95
				c-46.8592,16.9788-61.7472-4.1277-61.7472-4.1277S103.1291,116.6575,119.7941,120.9871"/>
			<g>
				<defs>
					<path id="SVGID_11_" d="M112.3789,124.9594c-0.2487,0.1082-0.4972,0.2237-0.7497,0.3355
						c-25.3707,11.1062-24.5741,46.8267-24.6679,54.0581c-0.0399,3.0568,5.5765,4.2609,5.829,0.4721
						c0.7715-11.3553,1.2111-15.4214,1.6187-18.363c1.0705-7.7216,2.5592-13.5181,9.7762-23.3667
						c6.0129-8.2007,23.1718-10.6197,35.2554-12.4329c12.7466-1.9106,26.0196-9.9674,27.1839-11.9862
						c0.1299-0.22,1.3485-5.0756,0.2994-4.6393c-10.5152,4.4012-34.4227,17.9411-51.0843,10.6377
						c-12.2852-5.3857-14.1202-15.8289-5.4034-23.446c2.5053-2.1879,18.0817-5.8179,26.0267-11.1424
						c7.9416-5.3174,18.1471-10.8253,24.4733-11.2472c19.7329-1.3123,26.9248,30.0897,27.57,45.1471
						c1.3086,30.5545-42.8725,68.4234-53.1138,72.396c0,0-76.7939,0.1296-88.7657-0.0723c0,0,0,0-19.7798-27.4796
						c-12.1627-16.885-11.8633-59.8114-7.7755-58.5534c4.6936,1.4455,10.4827,1.4706,16.0666-0.5877
						c2.2244-0.8217,4.2897-2.8442,5.894-5.1369c1.258,5.1657,6.1967,7.729,10.1549,8.9475
						c4.7006,1.4455,12.7359,2.2204,18.3198,0.162c3.2875-1.2222,6.6795-4.8811,8.7234-8.2443
						c1.4311,4.9748,5.9914,9.9999,9.791,11.1678c4.6936,1.4455,7.1014,2.6061,12.7286,0.6848c0,0,4.5385,10.2092,10.8795,13.0246"
						/>
				</defs>
				<clipPath id="SVGID_12_">
					<use xlink:href="#SVGID_11_"  overflow="visible"/>
				</clipPath>
			</g>
			<g>
				
					<radialGradient id="SVGID_13_" cx="7785.8921" cy="-78.7258" r="279.7006" gradientTransform="matrix(-1 0 0 1 7867.1328 0)" gradientUnits="userSpaceOnUse">
					<stop  offset="0.1174" style="stop-color:#FBEC7B"/>
					<stop  offset="1" style="stop-color:#F3B941"/>
				</radialGradient>
				<path fill="url(#SVGID_13_)" d="M73.5477,85.429c0.4758-5.9985,0.5153-13.5218,0.512-22.7325
					c-0.0506-0.1801-0.0757-0.3603-0.0757-0.5441l0.2883-9.1852c0.0469-5.007-6.6437-11.3373-14.6071-11.4668
					c-9.4011-0.1624-14.019,6.4599-14.5705,12.7466l-0.1949,7.9774l0,0l-0.0683,3.0029c0,0.1152-0.0288,0.22-0.0543,0.3315
					c-0.1694,4.7692-0.4684,13.6986-0.5478,20.3748C50.5668,89.3688,61.3851,92.653,73.5477,85.429z"/>
				
					<radialGradient id="SVGID_14_" cx="7785.8896" cy="-78.7474" r="279.7381" gradientTransform="matrix(-1 0 0 1 7867.1328 0)" gradientUnits="userSpaceOnUse">
					<stop  offset="0.1174" style="stop-color:#FBEC7B"/>
					<stop  offset="1" style="stop-color:#F3B941"/>
				</radialGradient>
				<path fill="url(#SVGID_14_)" d="M44.2007,89.0768c0.6235,3.4536,2.127,9.4591,5.2414,11.4635
					c4.4555,2.8623,14.1707,5.4108,19.906-0.6379c2.4873-2.6245,3.6445-7.4983,4.1997-14.4734
					c-12.1626,7.224-22.9809,3.9398-29.3182,0.5046c-0.0144,1.0742-0.0218,2.1052-0.0218,3.035
					C44.2077,88.9974,44.2007,89.0443,44.2007,89.0768z"/>
				<radialGradient id="SVGID_15_" cx="61.6861" cy="81.3954" r="36.97" gradientUnits="userSpaceOnUse">
					<stop  offset="0.0054" style="stop-color:#711A12;stop-opacity:0.5"/>
					<stop  offset="0.5905" style="stop-color:#831D19;stop-opacity:0.2059"/>
					<stop  offset="1" style="stop-color:#931F1F;stop-opacity:0"/>
				</radialGradient>
				<path fill="url(#SVGID_15_)" d="M44.2007,89.0768c0.6235,3.4536,2.127,9.4591,5.2414,11.4635
					c4.4555,2.8623,14.1707,5.4108,19.906-0.6379c2.4873-2.6245,3.6445-7.4983,4.1997-14.4734
					c-12.1626,7.224-22.9809,3.9398-29.3182,0.5046c-0.0144,1.0742-0.0218,2.1052-0.0218,3.035
					C44.2077,88.9974,44.2007,89.0443,44.2007,89.0768z"/>
			</g>
			<g>
				<defs>
					<path id="SVGID_16_" d="M44.8998,62.2244l-0.0683,3.0029c0,0.1152-0.0288,0.22-0.0543,0.3315
						c-0.1982,5.537-0.5696,16.7015-0.5696,23.4099c0,0.0288-0.007,0.0757-0.007,0.1082c0.6235,3.4536,2.127,9.4591,5.2414,11.4635
						c4.4555,2.8623,14.1707,5.4108,19.906-0.6379c4.6249-4.8774,4.7187-17.2888,4.7116-37.2059
						c-0.0506-0.1801-0.0757-0.3603-0.0757-0.5441l0.2883-9.1852c0.0469-5.007-6.6437-11.3373-14.6071-11.4668
						c-9.4011-0.1624-14.019,6.4599-14.5705,12.7466L44.8998,62.2244L44.8998,62.2244L44.8998,62.2244z"/>
				</defs>
				<clipPath id="SVGID_17_">
					<use xlink:href="#SVGID_16_"  overflow="visible"/>
				</clipPath>
			</g>
			<g>
				
					<radialGradient id="SVGID_18_" cx="7785.8872" cy="-80.5525" r="284.2835" gradientTransform="matrix(-1 0 0 1 7867.1328 0)" gradientUnits="userSpaceOnUse">
					<stop  offset="0.1174" style="stop-color:#FBEC7B"/>
					<stop  offset="1" style="stop-color:#F3B941"/>
				</radialGradient>
				<path fill="url(#SVGID_18_)" d="M111.7267,86.377c0.4072-6.5861,0.3677-14.7835,0.3603-24.3076
					c-0.0037-0.072-0.0214-0.1369-0.0214-0.2089l0.3134-16.5391c0-0.1226-0.0107-0.2632-0.0214-0.3857
					c-0.6596-7.1808-5.3894-12.2021-15.5262-12.3683c-9.1309-0.1513-14.8699,5.7463-14.9781,13.0785l-0.2525,14.1132
					c0,0.2809-0.0107,14.6067-0.6884,26.391l0.0074-0.0037c0,0-0.0074,0.0469-0.0074,0.1189c0,0,0,0.0107,0,0.0181
					c-0.0037,0.072-0.0071,0.1875-0.0144,0.3282C87.1308,90.2665,98.6844,94.4156,111.7267,86.377z"/>
				
					<radialGradient id="SVGID_19_" cx="7785.8877" cy="-80.5359" r="284.2554" gradientTransform="matrix(-1 0 0 1 7867.1328 0)" gradientUnits="userSpaceOnUse">
					<stop  offset="0.1174" style="stop-color:#FBEC7B"/>
					<stop  offset="1" style="stop-color:#F3B941"/>
				</radialGradient>
				<path fill="url(#SVGID_19_)" d="M85.786,103.125c3.605,3.8933,13.3018,4.5673,13.3018,4.5673
					c0-10.8829,12.3469-17.6314,12.3469-17.6314c0.1189-1.1606,0.2089-2.4009,0.292-3.684
					c-13.0423,8.0387-24.5959,3.8896-30.8287,0.2344C80.8079,88.7346,80.7574,97.6961,85.786,103.125z"/>
				<radialGradient id="SVGID_20_" cx="97.496" cy="82.6469" r="37.8326" gradientUnits="userSpaceOnUse">
					<stop  offset="0.0054" style="stop-color:#711A12;stop-opacity:0.5"/>
					<stop  offset="0.5905" style="stop-color:#831D19;stop-opacity:0.2059"/>
					<stop  offset="1" style="stop-color:#931F1F;stop-opacity:0"/>
				</radialGradient>
				<path fill="url(#SVGID_20_)" d="M85.786,103.125c3.605,3.8933,13.3018,4.5673,13.3018,4.5673
					c0-10.8829,12.3469-17.6314,12.3469-17.6314c0.1189-1.1606,0.2089-2.4009,0.292-3.684
					c-13.0423,8.0387-24.5959,3.8896-30.8287,0.2344C80.8079,88.7346,80.7574,97.6961,85.786,103.125z"/>
			</g>
			<g>
				<defs>
					<path id="SVGID_21_" d="M80.9198,86.1462c0,0-0.0074,0.0469-0.0074,0.1189c0,0,0,0.0107,0,0.0181
						c-0.0757,1.2292-0.4903,11.049,4.8736,16.8418c3.605,3.8933,13.3018,4.5673,13.3018,4.5673
						c0-10.8829,12.3469-17.6314,12.3469-17.6314c0.7246-7.0941,0.6596-16.6074,0.6523-27.9916
						c-0.0037-0.072-0.0214-0.1369-0.0214-0.2089l0.3134-16.5391c0-0.1226-0.0107-0.2632-0.0214-0.3857
						c-0.6596-7.1808-5.3894-12.2021-15.5262-12.3683c-9.1309-0.1513-14.8699,5.7463-14.9781,13.0785l-0.2525,14.1132
						c0,0.2809-0.0107,14.6067-0.6884,26.391L80.9198,86.1462z"/>
				</defs>
				<clipPath id="SVGID_22_">
					<use xlink:href="#SVGID_21_"  overflow="visible"/>
				</clipPath>
			</g>
		</g>
	</g>
</g>
</svg>
