<?xml version="1.0" encoding="utf-8"?>
<!-- Generator: Adobe Illustrator 17.0.0, SVG Export Plug-In . SVG Version: 6.00 Build 0)  -->
<!DOCTYPE svg PUBLIC "-//W3C//DTD SVG 1.1//EN" "http://www.w3.org/Graphics/SVG/1.1/DTD/svg11.dtd">
<svg version="1.1" id="Layer_1" xmlns="http://www.w3.org/2000/svg" xmlns:xlink="http://www.w3.org/1999/xlink" x="0px" y="0px"
	viewBox="0 0 200 200" enable-background="new 0 0 200 200" xml:space="preserve">
<g>
	<path fill="#903F40" d="M104.6244,169.3303c-5.7469,0-11.8506-2.815-18.6549-8.599c-1.6135-1.3737-3.565-2.6706-6.0361-4.3149
		c-5.575-3.7063-13.212-8.7803-24.3252-19.5861c-6.1251-5.9561-9.4472-10.5845-12.1149-14.3003
		c-2.8365-3.9461-4.5453-6.3278-8.1471-8.2025C26.9589,109.948,6.8085,97.9129,6.8085,97.9129
		c-0.406-0.2121-0.7654-0.4824-1.082-0.8022C2.7853,94.9594,1,91.5049,1,87.854c0-2.2744,0.6669-4.4717,1.9298-6.3678
		L29.351,35.9211c0.3289-0.7314,0.7531-1.4473,1.2664-2.1419c0.0799-0.1076,0.1599-0.209,0.249-0.3106
		c2.2035-2.7782,5.4765-4.3672,8.977-4.3672c2.0009,0,3.9647,0.535,5.7163,1.543c0.2244,0.1105,0.4456,0.2426,0.6546,0.3965
		l0.2798,0.1995c9.1768,6.6353,24.0873,18.563,32.7418,21.4488c4.2781,1.4259,9.9913,1.8439,16.0365,2.2832
		c9.6996,0.71,20.6866,1.5153,29.0798,6.9427c12.2717,7.9413,22.3612,14.9426,28.4127,19.7091
		c4.8188,3.7957,23.4922,22.9207,23.4922,32.7244c0,13.3014-8.6758,17.1493-11.3342,18.0129
		c-1.9577,0.6329-3.9401,0.9712-5.8916,0.9926c0.1812,2.9935-0.5561,6.3004-3.0672,9.4258
		c-3.3806,4.2168-7.9262,6.4417-13.1384,6.4417c-1.0325,0-2.0222-0.0831-2.9504-0.2307c-0.4825,3.0121-1.9732,6.2419-5.3015,8.9065
		c-3.4051,2.7232-7.4126,4.1645-11.5953,4.1645c-1.712,0-3.4455-0.2398-5.154-0.71c-0.9743,2.2681-2.6246,4.5053-5.2833,5.959
		C110.0858,168.6511,107.4243,169.3303,104.6244,169.3303z"/>
	<radialGradient id="SVGID_1_" cx="88.4593" cy="-77.5139" r="295.2884" gradientUnits="userSpaceOnUse">
		<stop  offset="0.1174" style="stop-color:#FBEC7B"/>
		<stop  offset="1" style="stop-color:#F3B941"/>
	</radialGradient>
	<path fill="url(#SVGID_1_)" d="M150.0542,85.0603c-5.833-4.5975-15.6802-11.4449-28.0778-19.4693
		c-12.3979-8.0216-32.0916-4.7392-44.1266-8.7529c-11.2114-3.7371-30.8457-19.8259-33.8606-22.0077
		c-0.0859-0.0617-0.169-0.1262-0.2612-0.1876c-0.0214-0.0154-0.0954-0.0708-0.0954-0.0708l-0.0091,0.0154
		c-1.0971-0.6946-2.388-1.1093-3.7803-1.1093c-2.2712,0-4.2718,1.0848-5.575,2.7442l-0.0214-0.0214l-0.0891,0.1507
		c-0.3534,0.4762-0.6668,0.9894-0.8975,1.5487L6.6392,83.8125l0,0c-0.7927,1.1525-1.2629,2.5387-1.2629,4.0415
		c0,2.6061,1.4196,4.8651,3.5096,6.1034L8.84,94.0345c0,0,20.1443,12.035,28.5344,16.4113
		c8.3869,4.3763,8.5931,10.9071,21.2858,23.2464c15.8644,15.425,24.4449,18.8547,30.1461,23.7043
		c4.8619,4.1368,13.6145,10.4555,21.6361,6.0729c4.4068-2.4063,4.241-8.1688,4.241-8.1688
		c5.2402,3.0703,11.6847,3.559,17.1553-0.8173c6.0758-4.8651,3.1593-11.6693,3.1593-11.6693s10.4523,6.0757,17.5515-2.7691
		c4.9912-6.2173-0.3072-12.8249-0.3072-12.8249s4.4994,3.193,11.3313,0.9772c2.2313-0.7222,8.307-3.5282,8.307-13.8483
		C171.8807,107.4187,155.8905,89.661,150.0542,85.0603z"/>
	<radialGradient id="SVGID_2_" cx="73.3569" cy="77.1713" r="122.159" gradientUnits="userSpaceOnUse">
		<stop  offset="0.0054" style="stop-color:#711A12;stop-opacity:0.5"/>
		<stop  offset="0.5905" style="stop-color:#831D19;stop-opacity:0.2059"/>
		<stop  offset="1" style="stop-color:#931F1F;stop-opacity:0"/>
	</radialGradient>
	<path fill="url(#SVGID_2_)" d="M153.8341,88.4872c0,0,3.4854,9.2351-2.7905,15.5141c-6.2756,6.2787-15.0835,4.9601-15.0835,4.9601
		s1.9575,10.6182-4.1214,15.1298c-6.0792,4.5148-11.6633,3.6972-11.6633,3.6972s0.7223,16.3286-18.9651,15.3574
		c0,0,0.129,14.7918-15.7416,11.7279c0,0,12.8312,13.0616,22.8347,9.4872c7.2436-2.5847,6.3741-7.6401,6.3741-7.6401
		s11.2051,4.567,17.5238-1.0234c6.3187-5.5933,3.267-12.204,3.267-12.204s9.5548,6.5645,16.6665-1.0757
		c7.1117-7.6404,0.6087-14.801,0.6087-14.801s7.6738,5.8699,16.1069-0.6763c8.4332-6.5431,1.9609-17.2258-0.0922-20.3206
		C166.7085,103.5248,157.6175,91.9109,153.8341,88.4872z"/>
	<path fill="#903F40" d="M174.9141,112.0102c-1.3555,0.0337-2.6955-0.5655-3.5773-1.7026
		c-10.4124-13.5318-20.539-22.4691-28.5112-25.1737c-17.3642-5.8853-24.7063-10.735-29.5682-13.9465
		c-3.6726-2.4311-4.9141-3.2484-8.2979-3.1656l-3.8602,0.0954c-16.7556,0.4148-42.0766,1.0357-46.9234-15.7844
		c-1.3614-4.7237-0.7868-9.1309,1.6166-12.407c2.1976-2.9935,5.7104-4.7665,9.6347-4.865c1.7579-0.0431,3.4945,0.2521,5.1634,0.8698
		c4.0383,1.509,8.6667,2.1727,14.1555,2.0346c7.969-0.1967,17.1735-2.0963,25.9387-4.1245
		c5.8177-1.346,11.3036-2.0406,17.2721-2.185c3.1838-0.0799,6.0052,0.006,8.7343,0.0859c2.2649,0.0708,4.4008,0.1353,6.4908,0.0831
		c3.7648-0.0922,6.6321-0.5747,9.4566-1.5952c0.0491-0.0337,0.1045-0.0645,0.1567-0.095c1.7825-1.1556,3.8322-1.7888,5.9285-1.841
		c3.3252-0.0831,6.4723,1.2755,8.7312,3.7434c0.2766,0.2549,0.5256,0.547,0.7345,0.8727c0.4733,0.63,0.8727,1.2787,1.1893,1.9455
		l27.5368,44.9008c1.306,1.8656,2.0283,4.0478,2.0805,6.3158c0.0922,3.6295-1.589,7.1054-4.45,9.3336
		c-8.4854,10.5999-17.1493,15.7816-17.5178,15.9965C176.3646,111.795,175.6395,111.9917,174.9141,112.0102z"/>
	
		<radialGradient id="SVGID_3_" cx="127.8136" cy="-0.6638" r="133.793" gradientTransform="matrix(0.9997 -0.0246 0.0246 0.9997 -8.6846 6.7851)" gradientUnits="userSpaceOnUse">
		<stop  offset="0.1174" style="stop-color:#FBEC7B"/>
		<stop  offset="1" style="stop-color:#F3B941"/>
	</radialGradient>
	<path fill="url(#SVGID_3_)" d="M174.8033,107.6368c0,0,8.3687-4.9418,16.5098-15.1912c0.0123-0.0154-0.0459-0.0768-0.0459-0.0768
		c2.0591-1.2909,3.4205-3.5836,3.356-6.1897c-0.0368-1.4999-0.541-2.8767-1.3645-4.0078h0.0031l-27.743-45.245
		c-0.2458-0.5533-0.5655-1.0574-0.9341-1.5244l-0.0922-0.1476l-0.0186,0.0186c-1.346-1.6226-3.3746-2.6615-5.6427-2.6033
		c-1.3923,0.034-2.6738,0.4796-3.7526,1.1987l-0.0091-0.0154c0,0-0.0705,0.0585-0.0954,0.0768
		c-0.0891,0.0617-0.1567,0.1539-0.2549,0.1935c-12.3761,4.77-22.3615-0.805-43.0509,3.9801
		c-17.0014,3.9338-30.9973,6.251-42.6053,1.9301c-6.0452-2.2498-13.3259,1.9052-10.6827,11.0852
		c4.0692,14.125,29.2517,12.9511,46.4715,12.53c10.397-0.2552,8.3378,6.8197,39.3814,17.3457
		C153.4502,84.1168,164.1792,93.8347,174.8033,107.6368z"/>
	
		<line fill="none" stroke="#903F40" stroke-linecap="round" stroke-linejoin="round" stroke-miterlimit="10" x1="117.1573" y1="158.4908" x2="100.3403" y2="142.4175"/>
	
		<line fill="none" stroke="#903F40" stroke-linecap="round" stroke-linejoin="round" stroke-miterlimit="10" x1="138.1205" y1="146.2129" x2="119.1059" y2="126.7344"/>
	
		<line fill="none" stroke="#903F40" stroke-linecap="round" stroke-linejoin="round" stroke-miterlimit="10" x1="155.7611" y1="130.4102" x2="136.0982" y2="109.9448"/>
	<g>
		<g>
			<path fill="#903F40" d="M37.8414,129.3745c-3.104,0.3408-6.1802-0.5105-8.6698-2.3974
				c-2.5875-1.9575-4.2533-4.8065-4.6989-8.0244c-0.4428-3.2176,0.3902-6.414,2.3509-9.0016l5.0866-6.5862
				c1.9915-2.6306,5.0369-4.3581,8.347-4.7237c3.098-0.338,6.1742,0.5101,8.6607,2.3943c5.3412,4.0474,6.3987,11.6847,2.354,17.0291
				l-5.0894,6.5862C44.1973,127.2845,41.1484,129.0116,37.8414,129.3745L37.8414,129.3745z"/>
			
				<radialGradient id="SVGID_4_" cx="-84.0823" cy="272.9193" r="40.4345" gradientTransform="matrix(0.7971 0.6038 -0.6038 0.7971 284.9092 -72.5798)" gradientUnits="userSpaceOnUse">
				<stop  offset="0.1174" style="stop-color:#FBEC7B"/>
				<stop  offset="1" style="stop-color:#F3B941"/>
			</radialGradient>
			<path fill="url(#SVGID_4_)" d="M29.1471,111.715c-3.0794,4.0629-2.2772,9.8591,1.7856,12.9389l0,0
				c4.0692,3.0794,9.8623,2.2832,12.9417-1.7828l5.068-6.5676c3.0794-4.0688,2.2832-9.8623-1.7856-12.9417l0,0
				c-4.066-3.0826-9.8591-2.2804-12.9385,1.7856L29.1471,111.715z"/>
			
				<radialGradient id="SVGID_5_" cx="-84.0823" cy="272.9193" r="40.4345" gradientTransform="matrix(0.7971 0.6038 -0.6038 0.7971 284.9092 -72.5798)" gradientUnits="userSpaceOnUse">
				<stop  offset="0.0054" style="stop-color:#711A12;stop-opacity:0.5"/>
				<stop  offset="0.5905" style="stop-color:#831D19;stop-opacity:0.2059"/>
				<stop  offset="1" style="stop-color:#931F1F;stop-opacity:0"/>
			</radialGradient>
			<path fill="url(#SVGID_5_)" d="M29.1471,111.715c-3.0794,4.0629-2.2772,9.8591,1.7856,12.9389l0,0
				c4.0692,3.0794,9.8623,2.2832,12.9417-1.7828l5.068-6.5676c3.0794-4.0688,2.2832-9.8623-1.7856-12.9417l0,0
				c-4.066-3.0826-9.8591-2.2804-12.9385,1.7856L29.1471,111.715z"/>
			
				<radialGradient id="SVGID_6_" cx="79.8255" cy="75.418" r="32.6432" gradientTransform="matrix(0.994 -0.109 0.109 0.994 -40.4278 29.2865)" gradientUnits="userSpaceOnUse">
				<stop  offset="0.1174" style="stop-color:#FBEC7B"/>
				<stop  offset="1" style="stop-color:#F3B941"/>
			</radialGradient>
			<path fill="url(#SVGID_6_)" d="M50.7187,109.2842c0.5287,4.8311-2.9595,9.18-7.7938,9.7084
				c-4.8314,0.5287-9.1772-2.9564-9.7087-7.7877c-0.5287-4.8374,2.9564-9.18,7.7909-9.7115
				C45.8413,100.9647,50.1839,104.4497,50.7187,109.2842z"/>
		</g>
		<g>
			<path fill="#903F40" d="M91.9102,170.3137c-2.9504,0-5.7563-1.1156-7.9016-3.1471c-2.231-2.1114-3.5096-4.9632-3.5927-8.0335
				c-0.0859-3.0671,1.0266-5.9867,3.1379-8.2179l5.3692-5.569c2.1391-2.265,5.1845-3.5773,8.3315-3.5773
				c2.9504,0,5.7535,1.1188,7.8954,3.1442c2.2344,2.1111,3.5096,4.9632,3.5958,8.0335c0.0859,3.0671-1.0297,5.9898-3.1411,8.2179
				l-5.3629,5.5719C98.103,169.0014,95.0605,170.3137,91.9102,170.3137L91.9102,170.3137z"/>
			
				<radialGradient id="SVGID_7_" cx="-22.0482" cy="303.2592" r="37.555" gradientTransform="matrix(0.7265 0.6871 -0.6871 0.7265 333.949 -65.9945)" gradientUnits="userSpaceOnUse">
				<stop  offset="0.1174" style="stop-color:#FBEC7B"/>
				<stop  offset="1" style="stop-color:#F3B941"/>
			</radialGradient>
			<path fill="url(#SVGID_7_)" d="M85.6743,152.9221c-3.2575,3.4419-3.104,8.8694,0.3352,12.1241l0,0
				c3.4482,3.2607,8.8788,3.1102,12.1335-0.3349l5.3443-5.5473c3.2547-3.4454,3.104-8.8757-0.3411-12.1304l0,0
				c-3.4423-3.2547-8.8697-3.104-12.1241,0.338L85.6743,152.9221z"/>
			
				<radialGradient id="SVGID_8_" cx="-22.0482" cy="303.2592" r="37.555" gradientTransform="matrix(0.7265 0.6871 -0.6871 0.7265 333.949 -65.9945)" gradientUnits="userSpaceOnUse">
				<stop  offset="0.0054" style="stop-color:#711A12;stop-opacity:0.5"/>
				<stop  offset="0.5905" style="stop-color:#831D19;stop-opacity:0.2059"/>
				<stop  offset="1" style="stop-color:#931F1F;stop-opacity:0"/>
			</radialGradient>
			<path fill="url(#SVGID_8_)" d="M85.6743,152.9221c-3.2575,3.4419-3.104,8.8694,0.3352,12.1241l0,0
				c3.4482,3.2607,8.8788,3.1102,12.1335-0.3349l5.3443-5.5473c3.2547-3.4454,3.104-8.8757-0.3411-12.1304l0,0
				c-3.4423-3.2547-8.8697-3.104-12.1241,0.338L85.6743,152.9221z"/>
			<radialGradient id="SVGID_9_" cx="101.7078" cy="138.8372" r="31.8948" gradientUnits="userSpaceOnUse">
				<stop  offset="0.1174" style="stop-color:#FBEC7B"/>
				<stop  offset="1" style="stop-color:#F3B941"/>
			</radialGradient>
			<path fill="url(#SVGID_9_)" d="M105.9185,153.2878c0,4.7543-3.8479,8.6022-8.5994,8.6022c-4.7543,0-8.6022-3.8479-8.6022-8.6022
				c0-4.7514,3.8479-8.599,8.6022-8.599C102.0705,144.6887,105.9185,148.5363,105.9185,153.2878z"/>
		</g>
		<g>
			<path fill="#903F40" d="M72.5114,161.7455c-3.5987-0.0985-6.9364-1.4999-9.3981-3.9492
				c-5.6119-5.6027-5.2307-15.1176,0.8422-21.2182l8.0149-7.9045c3.1748-3.187,7.4806-4.9573,11.8015-4.8437
				c3.599,0.0954,6.9305,1.4967,9.389,3.9433c5.6181,5.6024,5.237,15.1176-0.8418,21.2178l-8.0093,7.9076
				C81.1353,160.0858,76.8295,161.856,72.5114,161.7455L72.5114,161.7455z"/>
			
				<radialGradient id="SVGID_10_" cx="-8.1895" cy="319.4695" r="43.2088" gradientTransform="matrix(0.808 0.8054 -0.8943 0.8973 393.0026 -161.217)" gradientUnits="userSpaceOnUse">
				<stop  offset="0.1174" style="stop-color:#FBEC7B"/>
				<stop  offset="1" style="stop-color:#F3B941"/>
			</radialGradient>
			<path fill="url(#SVGID_10_)" d="M66.165,138.7757c-4.8742,4.8956-5.2521,12.4189-0.8481,16.811l0,0
				c4.4072,4.3917,11.9305,3.9861,16.8019-0.9067l7.9904-7.8862c4.8742-4.8927,5.2553-12.4193,0.8513-16.8141l0,0
				c-4.404-4.3854-11.9305-3.9798-16.8016,0.913L66.165,138.7757z"/>
			
				<radialGradient id="SVGID_11_" cx="-8.1895" cy="319.4695" r="43.2088" gradientTransform="matrix(0.808 0.8054 -0.8943 0.8973 393.0026 -161.217)" gradientUnits="userSpaceOnUse">
				<stop  offset="0.0054" style="stop-color:#711A12;stop-opacity:0.5"/>
				<stop  offset="0.5905" style="stop-color:#831D19;stop-opacity:0.2059"/>
				<stop  offset="1" style="stop-color:#931F1F;stop-opacity:0"/>
			</radialGradient>
			<path fill="url(#SVGID_11_)" d="M66.165,138.7757c-4.8742,4.8956-5.2521,12.4189-0.8481,16.811l0,0
				c4.4072,4.3917,11.9305,3.9861,16.8019-0.9067l7.9904-7.8862c4.8742-4.8927,5.2553-12.4193,0.8513-16.8141l0,0
				c-4.404-4.3854-11.9305-3.9798-16.8016,0.913L66.165,138.7757z"/>
			
				<radialGradient id="SVGID_12_" cx="80.3683" cy="125.6544" r="40.6586" gradientTransform="matrix(0.9997 0.0262 -0.0262 0.9997 10.6012 -6.3533)" gradientUnits="userSpaceOnUse">
				<stop  offset="0.1174" style="stop-color:#FBEC7B"/>
				<stop  offset="1" style="stop-color:#F3B941"/>
			</radialGradient>
			<path fill="url(#SVGID_12_)" d="M94.286,138.1948c-0.1567,6.0452-5.1939,10.8272-11.2454,10.6673
				c-6.0512-0.1596-10.8272-5.1939-10.6673-11.242c0.1599-6.0575,5.1908-10.8366,11.2451-10.6767
				C89.6699,127.1001,94.4455,132.1373,94.286,138.1948z"/>
		</g>
		<g>
			<path fill="#903F40" d="M54.2899,147.4824c-3.857,0.135-7.5205-1.1402-10.3142-3.6053
				c-6.3832-5.621-6.6013-15.8458-0.4916-22.7885l8.1748-9.1215c3.1965-3.6295,7.6958-5.8148,12.3365-5.9807
				c3.8539-0.1353,7.5111,1.1402,10.3048,3.6018c6.3895,5.6213,6.6076,15.8461,0.4916,22.7888l-8.1688,9.1246
				C63.4299,145.1312,58.9243,147.3162,54.2899,147.4824L54.2899,147.4824z"/>
			
				<radialGradient id="SVGID_13_" cx="-27.3854" cy="303.1721" r="47.0343" gradientTransform="matrix(0.8562 0.754 -0.8372 0.9508 359.2895 -168.3948)" gradientUnits="userSpaceOnUse">
				<stop  offset="0.1174" style="stop-color:#FBEC7B"/>
				<stop  offset="1" style="stop-color:#F3B941"/>
			</radialGradient>
			<path fill="url(#SVGID_13_)" d="M45.8627,123.1848c-4.9724,5.6424-4.8742,13.8421,0.2029,18.3169l0,0
				c5.0863,4.4776,13.2306,3.531,18.2001-2.1145l8.1503-9.1032c4.9695-5.6427,4.8776-13.8452-0.2027-18.32l0,0
				c-5.0831-4.4685-13.2274-3.525-18.197,2.1177L45.8627,123.1848z"/>
			
				<radialGradient id="SVGID_14_" cx="-27.3854" cy="303.1721" r="47.0343" gradientTransform="matrix(0.8562 0.754 -0.8372 0.9508 359.2895 -168.3948)" gradientUnits="userSpaceOnUse">
				<stop  offset="0.0054" style="stop-color:#711A12;stop-opacity:0.5"/>
				<stop  offset="0.5905" style="stop-color:#831D19;stop-opacity:0.2059"/>
				<stop  offset="1" style="stop-color:#931F1F;stop-opacity:0"/>
			</radialGradient>
			<path fill="url(#SVGID_14_)" d="M45.8627,123.1848c-4.9724,5.6424-4.8742,13.8421,0.2029,18.3169l0,0
				c5.0863,4.4776,13.2306,3.531,18.2001-2.1145l8.1503-9.1032c4.9695-5.6427,4.8776-13.8452-0.2027-18.32l0,0
				c-5.0831-4.4685-13.2274-3.525-18.197,2.1177L45.8627,123.1848z"/>
			
				<radialGradient id="SVGID_15_" cx="78.864" cy="99.5624" r="43.9548" gradientTransform="matrix(0.9994 -0.0356 0.0356 0.9994 -12.837 9.1981)" gradientUnits="userSpaceOnUse">
				<stop  offset="0.1174" style="stop-color:#FBEC7B"/>
				<stop  offset="1" style="stop-color:#F3B941"/>
			</radialGradient>
			<path fill="url(#SVGID_15_)" d="M76.3071,120.5784c0.2335,6.5431-4.8836,12.035-11.4266,12.2688
				c-6.5431,0.2304-12.0351-4.8836-12.2686-11.4235c-0.2307-6.5462,4.8833-12.035,11.4235-12.2688
				C70.5813,108.9214,76.0736,114.0354,76.3071,120.5784z"/>
		</g>
	</g>
</g>
</svg>
