<?xml version="1.0" encoding="utf-8"?>
<!-- Generator: Adobe Illustrator 17.0.0, SVG Export Plug-In . SVG Version: 6.00 Build 0)  -->
<!DOCTYPE svg PUBLIC "-//W3C//DTD SVG 1.1//EN" "http://www.w3.org/Graphics/SVG/1.1/DTD/svg11.dtd">
<svg version="1.1" id="Layer_1" xmlns="http://www.w3.org/2000/svg" xmlns:xlink="http://www.w3.org/1999/xlink" x="0px" y="0px"
	viewBox="0 0 200 200" enable-background="new 0 0 200 200" xml:space="preserve">
<g>
	<g>
		<g>
			<g>
				<g>
					<path fill="#E4A024" d="M99.9973,195.9253c-53.7398,0-97.4612-43.7214-97.4612-97.4626S46.2575,1,99.9973,1
						c53.7425,0,97.4667,43.7215,97.4667,97.4627S153.7398,195.9253,99.9973,195.9253z"/>
					<path fill="#E4A024" d="M99.9973,194.5567c-52.9832,0-96.0927-43.108-96.0927-96.094S47.014,2.3686,99.9973,2.3686
						c52.9887,0,96.0981,43.1082,96.0981,96.0941S152.986,194.5567,99.9973,194.5567z"/>
					<radialGradient id="SVGID_1_" cx="103.7369" cy="-9.1959" r="201.0702" gradientUnits="userSpaceOnUse">
						<stop  offset="0" style="stop-color:#FFF7C2"/>
						<stop  offset="0.3321" style="stop-color:#FFEB8F"/>
						<stop  offset="1" style="stop-color:#FED01F"/>
					</radialGradient>
					<path fill="url(#SVGID_1_)" d="M190.6212,98.4627c0,50.0483-40.5727,90.6198-90.6239,90.6198
						c-50.043,0-90.6185-40.5716-90.6185-90.6198c0-50.0485,40.5754-90.6199,90.6185-90.6199
						C150.0485,7.8428,190.6212,48.4142,190.6212,98.4627z"/>
					<g>
						<defs>
							<path id="SVGID_2_" d="M190.6212,98.4627c0,50.0483-40.5727,90.6198-90.6239,90.6198
								c-50.043,0-90.6185-40.5716-90.6185-90.6198c0-50.0485,40.5754-90.6199,90.6185-90.6199
								C150.0485,7.8428,190.6212,48.4142,190.6212,98.4627z"/>
						</defs>
						<clipPath id="SVGID_3_">
							<use xlink:href="#SVGID_2_"  overflow="visible"/>
						</clipPath>
					</g>
				</g>
			</g>
		</g>
	</g>
	<path fill="#AA5B26" d="M25.7615,199c-1.0907,0-2.1385-0.4344-2.9082-1.2082c-1.0453-1.0491-25.4545-26.1347-15.1343-65.8736
		c2.0153-7.746,7.7219-13.1548,13.8831-13.1548c4.8808,0,11.705,3.0927,16.5083,17.8284
		c3.5363,10.8444,6.9416,17.0856,16.7327,23.2227c17.3045,10.8483,17.5024,34.095,17.5024,35.0798
		c0,2.268-1.8391,4.1057-4.1057,4.1057H25.7615z"/>
	<radialGradient id="SVGID_4_" cx="41.0377" cy="91.405" r="140.0437" gradientUnits="userSpaceOnUse">
		<stop  offset="0.1174" style="stop-color:#FEEB65"/>
		<stop  offset="1" style="stop-color:#F6B330"/>
	</radialGradient>
	<path fill="url(#SVGID_4_)" d="M25.7615,194.8943c0,0-23.9177-24.0165-14.0652-61.9443
		c2.8387-10.9298,15.1825-17.5695,22.5116,4.9142c3.5656,10.9378,7.2678,18.4166,18.4541,25.4291
		c15.578,9.7657,15.578,31.601,15.578,31.601H25.7615z"/>
	<path fill="#AA5B26" d="M175.8425,198.8627c1.0905,0,2.1382-0.4344,2.9082-1.2082c1.045-1.0491,25.4545-26.1347,15.1315-65.8736
		c-2.0126-7.7463-7.7195-13.1548-13.8807-13.1548c-4.8808,0-11.7074,3.0927-16.508,17.8284
		c-3.5363,10.8444-6.9418,17.0856-16.7328,23.2227c-17.3048,10.8483-17.5024,34.095-17.5024,35.0798
		c0,2.268,1.8388,4.1057,4.1057,4.1057H175.8425z"/>
	
		<radialGradient id="SVGID_5_" cx="8198.5625" cy="91.2678" r="140.0437" gradientTransform="matrix(-1 0 0 1 8359.1289 0)" gradientUnits="userSpaceOnUse">
		<stop  offset="0.1174" style="stop-color:#FEEB65"/>
		<stop  offset="1" style="stop-color:#F6B330"/>
	</radialGradient>
	<path fill="url(#SVGID_5_)" d="M175.8425,194.7571c0,0,23.9176-24.0164,14.0652-61.9443
		c-2.8387-10.9298-15.1824-17.5695-22.5116,4.9142c-3.5659,10.9378-7.2651,18.4166-18.4541,25.4291
		c-15.578,9.7657-15.578,31.601-15.578,31.601H175.8425z"/>
	<g>
		<radialGradient id="SVGID_6_" cx="97.8342" cy="189.5248" r="74.7673" gradientUnits="userSpaceOnUse">
			<stop  offset="0.0054" style="stop-color:#A34E1F"/>
			<stop  offset="0.3187" style="stop-color:#9E491D"/>
			<stop  offset="0.6963" style="stop-color:#8F3A15"/>
			<stop  offset="1" style="stop-color:#7E290D"/>
		</radialGradient>
		<path fill="url(#SVGID_6_)" d="M134.3181,140.6965l-0.0454-0.0441c0.4784-1.4433,0.802-2.9588,0.802-4.5639
			c0-8.0485-6.5275-14.5732-14.5732-14.5732c-1.8016,0-3.5016,0.369-5.0946,0.9651l-0.0213-0.0241
			c-16.0058,6.4363-28.7744,2.0807-32.4763,0.5105c-0.3156-0.1511-0.6309-0.3008-0.9569-0.4275
			c-0.107-0.0523-0.1659-0.0829-0.1659-0.0829l-0.0268,0.0227c-1.5875-0.5961-3.2903-0.9637-5.0866-0.9637
			c-10.0315,0-14.5729,6.5247-14.5729,14.5732c0,3.0552,0.9462,5.8845,2.5526,8.2272c3.59,7.6259,15.0489,17.8032,34.6737,17.8032
			c23.6344,0,32.5352-15.6168,34.4971-20.1621c0.0482-0.1122,0.1043-0.222,0.1497-0.3356
			C134.2138,141.0321,134.3181,140.6965,134.3181,140.6965z"/>
		<linearGradient id="SVGID_7_" gradientUnits="userSpaceOnUse" x1="100.2143" y1="123.5625" x2="98.1614" y2="205.6794">
			<stop  offset="0" style="stop-color:#FFB18E"/>
			<stop  offset="1" style="stop-color:#FF6659"/>
		</linearGradient>
		<path fill="url(#SVGID_7_)" d="M77.59,152.662c0,0,21.5547,13.6855,43.7937,0c0,0-5.1321-10.8441-21.3836-10.8441
			S77.59,152.662,77.59,152.662z"/>
	</g>
	<g>
		<g>
			<radialGradient id="SVGID_8_" cx="38.792" cy="106.815" r="30.2495" gradientUnits="userSpaceOnUse">
				<stop  offset="0" style="stop-color:#F15860;stop-opacity:0.5"/>
				<stop  offset="0.1648" style="stop-color:#F26262;stop-opacity:0.4246"/>
				<stop  offset="0.4393" style="stop-color:#F57B68;stop-opacity:0.2991"/>
				<stop  offset="0.6559" style="stop-color:#F7946D;stop-opacity:0.2"/>
				<stop  offset="0.7133" style="stop-color:#F89E67;stop-opacity:0.165"/>
				<stop  offset="0.8113" style="stop-color:#FAB955;stop-opacity:0.1053"/>
				<stop  offset="0.9371" style="stop-color:#FEE53A;stop-opacity:0.0285"/>
				<stop  offset="0.9839" style="stop-color:#FFF72E;stop-opacity:0"/>
			</radialGradient>
			<path fill="url(#SVGID_8_)" d="M69.042,106.8131c0,16.7084-13.5413,30.251-30.2527,30.251
				c-16.7005,0-30.2472-13.5427-30.2472-30.251c0-16.7062,13.5468-30.2472,30.2472-30.2472
				C55.5007,76.5658,69.042,90.1069,69.042,106.8131z"/>
			<radialGradient id="SVGID_9_" cx="159.5347" cy="106.815" r="30.2495" gradientUnits="userSpaceOnUse">
				<stop  offset="0" style="stop-color:#F15860;stop-opacity:0.5"/>
				<stop  offset="0.1648" style="stop-color:#F26262;stop-opacity:0.4246"/>
				<stop  offset="0.4393" style="stop-color:#F57B68;stop-opacity:0.2991"/>
				<stop  offset="0.6559" style="stop-color:#F7946D;stop-opacity:0.2"/>
				<stop  offset="0.7133" style="stop-color:#F89E67;stop-opacity:0.165"/>
				<stop  offset="0.8113" style="stop-color:#FAB955;stop-opacity:0.1053"/>
				<stop  offset="0.9371" style="stop-color:#FEE53A;stop-opacity:0.0285"/>
				<stop  offset="0.9839" style="stop-color:#FFF72E;stop-opacity:0"/>
			</radialGradient>
			<circle fill="url(#SVGID_9_)" cx="159.5347" cy="106.8131" r="30.2498"/>
		</g>
		<g>
			<g>
				<path fill="#FF6969" d="M18.3412,116.8325c-0.4571,0-0.9167-0.1511-1.299-0.4623c-0.8767-0.7179-1.0078-2.0101-0.294-2.8882
					l12.6323-15.4726c0.7218-0.8819,2.0101-1.0089,2.8923-0.2926c0.8767,0.7177,1.0075,2.0101,0.2912,2.8882l-12.6323,15.4723
					C19.5228,116.5747,18.9346,116.8325,18.3412,116.8325z"/>
			</g>
			<g>
				<path fill="#FF6969" d="M30.9442,117.2108c-0.4571,0-0.9167-0.1511-1.299-0.4626c-0.8767-0.7177-1.0078-2.0099-0.2912-2.8879
					l12.6296-15.4726c0.719-0.8805,2.0129-1.0089,2.8896-0.2926c0.8767,0.7177,1.0075,2.0101,0.2912,2.8882l-12.6296,15.4723
					C32.1283,116.9527,31.5376,117.2108,30.9442,117.2108z"/>
			</g>
		</g>
		<g>
			<g>
				<path fill="#FF6969" d="M152.3898,116.8325c-0.4571,0-0.9167-0.1511-1.299-0.4623c-0.8767-0.7179-1.0075-2.0101-0.2912-2.8882
					l12.6323-15.4726c0.719-0.8819,2.0101-1.0089,2.8896-0.2926c0.8767,0.7177,1.0051,2.0101,0.2912,2.8882l-12.6323,15.4723
					C153.5739,116.5747,152.9832,116.8325,152.3898,116.8325z"/>
			</g>
			<g>
				<path fill="#FF6969" d="M164.9956,117.2108c-0.4571,0-0.9169-0.1511-1.299-0.4626c-0.8767-0.7177-1.0078-2.0099-0.294-2.8879
					l12.635-15.4726c0.719-0.8805,2.0101-1.0089,2.8893-0.2926c0.877,0.7177,1.0078,2.0101,0.2915,2.8882l-12.6323,15.4723
					C166.1797,116.9527,165.589,117.2108,164.9956,117.2108z"/>
			</g>
		</g>
	</g>
	<g>
		<g>
			<g>
				<path fill="#DC0303" d="M59.5261,109.566c-0.4357,0.0602-0.9008-0.0293-1.3152-0.2778l1.0105-1.9502l-1.0907,1.9034
					c-4.4826-2.7251-27.1786-16.7169-33.6686-24.7678c-8.3022-10.2787-8.032-19.4203-6.3402-25.2848
					c2.1224-7.2823,7.463-12.1872,14.2871-13.1241c0.4196-0.0575,0.8365-0.0988,1.2615-0.1256
					c6.5888-0.4357,12.5548,2.1265,18.1788,7.8051c3.8757-6.9897,8.9331-11.0689,15.3962-12.4374
					c0.4251-0.0933,0.8313-0.1656,1.2563-0.2231c6.8187-0.9355,13.29,2.3348,17.2832,8.7524
					c3.2344,5.1923,5.9822,13.9343,0.7431,26.0854c-3.9132,9.0708-20.6085,27.4247-25.639,32.8387l-0.1604,0.1711
					C60.4056,109.2893,59.9778,109.5034,59.5261,109.566z"/>
				
					<radialGradient id="SVGID_10_" cx="31.3051" cy="-533.374" r="79.5207" gradientTransform="matrix(0.9907 -0.136 0.136 0.9907 89.5325 569.4973)" gradientUnits="userSpaceOnUse">
					<stop  offset="0" style="stop-color:#FF6B7C;stop-opacity:0.5"/>
					<stop  offset="0.2193" style="stop-color:#FD6174;stop-opacity:0.5"/>
					<stop  offset="0.592" style="stop-color:#F6465E;stop-opacity:0.5"/>
					<stop  offset="0.9516" style="stop-color:#EE2644;stop-opacity:0.5"/>
				</radialGradient>
				<path fill="url(#SVGID_10_)" d="M57.1391,104.4994C45.4582,97.2356,31.5617,87.6692,27.202,82.2659
					c-7.3532-9.1028-7.1553-17.0415-5.6959-22.1013c1.7159-5.9007,5.974-9.8673,11.3839-10.6104
					c0.3342-0.0454,0.6684-0.0802,1.0078-0.1015c5.5331-0.3676,10.5795,1.8484,15.4523,6.768
					c0.7724,0.7886,1.879,1.1614,2.9777,1.0103h0.0055c1.0984-0.1497,2.0608-0.8113,2.5953-1.7816
					c3.3546-6.0501,7.6234-9.5489,13.036-10.6985c0.3501-0.0761,0.6763-0.1322,1.013-0.179
					c5.4102-0.7418,10.5797,1.9193,13.8166,7.1222c2.7932,4.4771,5.14,12.0709,0.505,22.8349
					c-2.721,6.2869-13.2123,18.9501-22.8483,29.5109C59.9003,103.8326,57.6124,104.1507,57.1391,104.4994z"/>
			</g>
		</g>
	</g>
	<g>
		<g>
			<g>
				<path fill="#DC0303" d="M140.3991,109.566c0.4355,0.0602,0.9008-0.0293,1.3149-0.2778l-1.0103-1.9502l1.0905,1.9034
					c4.4826-2.7251,27.1786-16.7169,33.6686-24.7678c8.3022-10.2787,8.0323-19.4203,6.3402-25.2848
					c-2.1223-7.2823-7.4627-12.1872-14.2869-13.1241c-0.4196-0.0575-0.8367-0.0988-1.2615-0.1256
					c-6.589-0.4357-12.5551,2.1265-18.1788,7.8051c-3.876-6.9897-8.9331-11.0689-15.3962-12.4374
					c-0.4251-0.0933-0.8315-0.1656-1.2563-0.2231c-6.8187-0.9355-13.29,2.3348-17.2835,8.7524
					c-3.2342,5.1923-5.9819,13.9343-0.7431,26.0854c3.9132,9.0708,20.6085,27.4247,25.639,32.8387l0.1604,0.1711
					C139.5197,109.2893,139.9472,109.5034,140.3991,109.566z"/>
				
					<radialGradient id="SVGID_11_" cx="8183.4507" cy="585.7254" r="79.5207" gradientTransform="matrix(-0.9907 -0.136 -0.136 0.9907 8338.9209 569.4973)" gradientUnits="userSpaceOnUse">
					<stop  offset="0" style="stop-color:#FF6B7C;stop-opacity:0.5"/>
					<stop  offset="0.2193" style="stop-color:#FD6174;stop-opacity:0.5"/>
					<stop  offset="0.592" style="stop-color:#F6465E;stop-opacity:0.5"/>
					<stop  offset="0.9516" style="stop-color:#EE2644;stop-opacity:0.5"/>
				</radialGradient>
				<path fill="url(#SVGID_11_)" d="M142.7859,104.4994c11.6809-7.2637,25.5777-16.8302,29.9371-22.2335
					c7.3535-9.1028,7.1556-17.0415,5.6962-22.1013c-1.7162-5.9007-5.974-9.8673-11.3842-10.6104
					c-0.3342-0.0454-0.6681-0.0802-1.0075-0.1015c-5.5331-0.3676-10.5797,1.8484-15.4526,6.768
					c-0.7724,0.7886-1.879,1.1614-2.9774,1.0103h-0.0055c-1.0987-0.1497-2.0608-0.8113-2.5953-1.7816
					c-3.3546-6.0501-7.6234-9.5489-13.036-10.6985c-0.3503-0.0761-0.6763-0.1322-1.0133-0.179
					c-5.4099-0.7418-10.5795,1.9193-13.8164,7.1222c-2.7932,4.4771-5.14,12.0709-0.5053,22.8349
					c2.7212,6.2869,13.2126,18.9501,22.8485,29.5109C140.025,103.8326,142.3129,104.1507,142.7859,104.4994z"/>
			</g>
		</g>
	</g>
</g>
</svg>
