<?xml version="1.0" encoding="utf-8"?>
<!-- Generator: Adobe Illustrator 17.0.0, SVG Export Plug-In . SVG Version: 6.00 Build 0)  -->
<!DOCTYPE svg PUBLIC "-//W3C//DTD SVG 1.1//EN" "http://www.w3.org/Graphics/SVG/1.1/DTD/svg11.dtd">
<svg version="1.1" id="Layer_1" xmlns="http://www.w3.org/2000/svg" xmlns:xlink="http://www.w3.org/1999/xlink" x="0px" y="0px"
	viewBox="0 0 200 200" enable-background="new 0 0 200 200" xml:space="preserve">
<g>
	<path fill="#903F40" d="M115.9125,123.9291c-0.9466,0-1.7121-0.0062-2.2306-0.012l0.0963-8.1805
		c11.3997,0.1265,39.8386-0.6812,42.8767-2.2186c9.8988-5.0125,30.8411-24.5807,33.8857-34.3554
		c0.666-2.1522-0.0183-0.2293-0.2352-0.5275c-1.022-1.3926-3.5569-2.2275-6.7669-2.2275c-4.669,0-24.0773,15.8848-26.3197,19.0466
		c-0.7386,1.0368-1.2692,1.7933-1.7423,2.339c-1.079,1.2599-18.0999,1.0368-39.8445,0.2833l0.2833-8.1774
		c7.3456,0.2562,31.1275,2.8513,33.7168,2.0979c0.2562-0.3528,0.5908-0.817,0.9192-1.275
		c3.7254-5.2477,24.1014-22.4948,32.9872-22.4948c5.977,0,10.7245,1.9741,13.356,5.552c2.1612,2.9448,2.6794,3.8794,1.4587,7.8157
		c-3.3004,10.5769-25.1502,32.7161-38.0027,39.2234C154.7894,123.6337,122.8479,123.9291,115.9125,123.9291z"/>
	<radialGradient id="SVGID_1_" cx="163.9882" cy="64.3278" r="62.135" gradientUnits="userSpaceOnUse">
		<stop  offset="0.1174" style="stop-color:#FBEC7B"/>
		<stop  offset="1" style="stop-color:#F3B941"/>
	</radialGradient>
	<path fill="url(#SVGID_1_)" d="M118.1247,94.0164c0,0,33.0655,3.5054,35.0128,1.2207c1.9652-2.285,21.9976-21.8319,29.8312-21.8319
		c7.825,0,12.3853,1.3232,10.4321,7.5897c-2.9297,9.4284-23.2995,29.5901-34.3856,35.2026
		c-5.5039,2.7881-42.8405,2.5501-42.8405,2.5501"/>
	<path fill="#903F40" d="M34.5388,169.9012c-15.2518,0-27.3537-1.0099-27.866-1.0519l-4.7986-0.4071L1,99.6861l1.0519-1.4287
		c0.8439-1.1454,8.503-11.2852,17.3617-15.4749c8.1111-3.8341,15.728-8.3373,22.6455-8.3373c6.8783,0,11.9001-8.3762,15.315-6.3838
		c6.2755-10.0824,20.4905-29.9188,35.2841-29.9188c3.0171,0,5.8746,0.7868,8.5151,2.33
		c7.2941,4.2591,29.4003,34.7986,33.4754,45.0891c2.7609,6.9808,0.2621,15.5289-3.1862,34.5273
		c-3.9454,21.705-22.1813,28.032-42.0356,40.6704c-9.5398,6.0706-28.0045,9.142-54.8823,9.142H34.5388z"/>
	<g>
		<radialGradient id="SVGID_2_" cx="82.4652" cy="19.189" r="153.1309" gradientUnits="userSpaceOnUse">
			<stop  offset="0.1174" style="stop-color:#FBEC7B"/>
			<stop  offset="1" style="stop-color:#F3B941"/>
		</radialGradient>
		<path fill="url(#SVGID_2_)" d="M129.0179,87.1983c-3.5236-8.9222-24.2008-38.4611-30.5155-42.1535
			C81.1892,34.9294,58.854,76.0066,58.854,76.0066s-4.2832-0.3769-14.1153,2.5016c4.3915,2.2427,8.1592,3.777,10.9294,4.2501
			c1.8961,0.3225,4.0961,7.3487,4.0961,7.3487c-27.7515,6.9265-23.6551,22.8834-23.6551,22.8834s-10.7787,0.8954-29.5722,5.5912
			l0.5818,44.9866c0,0,60.0423,5.085,79.4627-7.2762c19.4234-12.364,36.128-17.6931,39.6667-37.1465
			C129.7837,99.6919,131.1278,92.5093,129.0179,87.1983z"/>
		<radialGradient id="SVGID_3_" cx="82.4617" cy="19.1883" r="153.1315" gradientUnits="userSpaceOnUse">
			<stop  offset="0.1174" style="stop-color:#FBEC7B"/>
			<stop  offset="1" style="stop-color:#F3B941"/>
		</radialGradient>
		<path fill="url(#SVGID_3_)" d="M59.7642,90.1071c0,0-2.2-7.0261-4.0961-7.3487c-2.7701-0.4732-6.5379-2.0075-10.9294-4.2501
			c-5.7209,1.6791-13.3106,4.4551-23.0584,9.0639c-7.9092,3.7375-15.3635,13.8288-15.3635,13.8288l0.2201,17.1808
			c18.7935-4.6958,29.5722-5.5912,29.5722-5.5912S32.0127,97.0335,59.7642,90.1071z"/>
		<radialGradient id="SVGID_4_" cx="92.1388" cy="85.2029" r="172.8673" gradientUnits="userSpaceOnUse">
			<stop  offset="0.0054" style="stop-color:#711A12;stop-opacity:0.5"/>
			<stop  offset="0.5905" style="stop-color:#831D19;stop-opacity:0.2059"/>
			<stop  offset="1" style="stop-color:#931F1F;stop-opacity:0"/>
		</radialGradient>
		<path fill="url(#SVGID_4_)" d="M59.7642,90.1071c0,0-2.2-7.0261-4.0961-7.3487c-2.7701-0.4732-6.5379-2.0075-10.9294-4.2501
			c-5.7209,1.6791-13.3106,4.4551-23.0584,9.0639c-7.9092,3.7375-15.3635,13.8288-15.3635,13.8288l0.2201,17.1808
			c18.7935-4.6958,29.5722-5.5912,29.5722-5.5912S32.0127,97.0335,59.7642,90.1071z"/>
	</g>
	<g>
		<defs>
			<path id="SVGID_5_" d="M7.1187,163.5683c0,0,60.0423,5.085,79.4627-7.2762c19.4234-12.364,36.128-17.6931,39.6667-37.1465
				c3.5356-19.4537,4.8798-26.6363,2.7698-31.9473c-3.5236-8.9222-24.2008-38.4611-30.5155-42.1535
				C81.1892,34.9294,58.854,76.0066,58.854,76.0066s-10.6701-0.9707-37.1736,11.5655
				c-7.9092,3.7375-15.3635,13.8288-15.3635,13.8288L7.1187,163.5683z"/>
		</defs>
		<clipPath id="SVGID_6_">
			<use xlink:href="#SVGID_5_"  overflow="visible"/>
		</clipPath>
	</g>
	<path fill="#903F40" d="M56.6206,84.4344c-6.5499,0-12.7621-3.1649-16.6051-8.4669c-6.6462-9.154-4.6026-22.0035,4.5455-28.6376
		l18.7722-13.6273c3.5236-2.5618,7.6891-3.9152,12.0387-3.9152c6.5588,0,12.7621,3.168,16.6141,8.4697
		c3.2131,4.4279,4.5122,9.8503,3.6501,15.261c-0.8559,5.4134-3.7708,10.1608-8.2077,13.3767L68.6561,80.5219
		C65.1357,83.0778,60.9729,84.4344,56.6206,84.4344z"/>
	
		<radialGradient id="SVGID_7_" cx="1297.2782" cy="4341.4292" r="66.1328" gradientTransform="matrix(0.5874 0.8093 -0.8093 0.5874 2850.283 -3562.3052)" gradientUnits="userSpaceOnUse">
		<stop  offset="0.1174" style="stop-color:#FBEC7B"/>
		<stop  offset="1" style="stop-color:#F3B941"/>
	</radialGradient>
	<path fill="url(#SVGID_7_)" d="M65.7082,76.4557c-6.9175,5.0187-16.599,3.4844-21.6266-3.4421l0,0
		c-5.0187-6.9175-3.4754-16.5993,3.4362-21.6177l18.7691-13.6211c6.9268-5.0248,16.6052-3.4905,21.6208,3.43l0,0
		c5.0245,6.9206,3.4874,16.6082-3.4332,21.6238L65.7082,76.4557z"/>
	<radialGradient id="SVGID_8_" cx="10.704" cy="-68.2423" r="414.6325" gradientUnits="userSpaceOnUse">
		<stop  offset="0.1174" style="stop-color:#FBEC7B"/>
		<stop  offset="1" style="stop-color:#F3B941"/>
	</radialGradient>
	<path fill="url(#SVGID_8_)" d="M129.5667,80.3108c0,0-22.6306-41.9905-35.3866-40.5257
		c-12.768,1.459-19.2302,15.7523-12.9908,25.1113c0,0-13.5007-2.7158-19.6377,5.8113c-7.6317,10.5948,0.8924,18.9864,0.8924,18.9864
		s-26.1722,2.8272-26.1722,18.4015c0,10.2482,11.9995,26.8805,11.9995,26.8805"/>
	<path fill="#903F40" d="M36.2205,121.0685c-2.5167-5.1662-3.7677-9.8833-3.4692-14.1998
		c1.0639-15.6826,17.874-20.7948,24.5144-19.5015c0.5516,0.0994,0,0,0.5454,1.0278c-2.9538-5.2085-5.0125-14.5616,3.5235-22.1754
		c4.3495-3.8791,8.9642-5.6696,13.6723-5.3261c0.6121,0.0512,1.2056,0.1386,1.7815,0.2503
		c-2.2035-5.3835-2.7732-13.2927,4.6236-19.8997c4.3464-3.8791,8.9642-5.6696,13.6723-5.3171
		c7.3907,0.5426,12.2164,6.2274,12.4183,6.4715c0.0423,0.0454,0.0756,0.0994,0.1117,0.1478l23.5588,36.5891
		c0.8501,1.1905,0.5846,10.5948-0.6059,11.4417c-1.1846,0.8559-1.3473-3.9575-4.497-8.9219l-22.6757-35.9169
		c-0.4339-0.4855-3.9214-4.1989-8.7382-4.5304c-3.2251-0.2201-6.5045,1.1182-9.7145,3.9906
		c-8.4789,7.5657-1.9139,16.4968-1.6368,16.8644l3.5446,4.681c0.3377,0.3466,0.5367,0.5756,0.5787,0.621l24.3758,31.9291
		c0.8831,1.1605,0.6661,2.8214-0.5003,3.7106c-1.1605,0.883-2.8244,0.663-3.7133-0.5003l-9.0519-11.8488
		c-0.2321-0.1627-0.458-0.3435-0.6327-0.5818L82.8319,70.2132c-1.0732-1.0729-4.1748-3.7557-8.2589-4.0328
		c-3.2344-0.2139-6.4956,1.1182-9.7117,3.9878c-8.4728,7.5657-1.9201,16.4906-1.6368,16.8703l18.8206,24.8008
		c0.1417,0.1836,0.238,0.3766,0.3195,0.5756l1.3352,1.721c0.8954,1.1544,0.6812,2.8183-0.4701,3.7165
		c-1.1544,0.8982-2.8183,0.6874-3.7165-0.4793L64.4785,97.9678c0,0-5.061-5.4705-10.1759-5.8202
		c-3.2282-0.208-5.8113,1.2871-8.9641,2.7729c-4.1082,1.9442-11.2368,9.8111-6.2934,20.6954
		c5.2205,11.5232,6.5344,13.1267,9.1718,14.9353c3.0446,2.0766,11.1797-0.9494,10.2093-5.281
		c-0.9797-4.3224-4.3918-7.0953-3.1168-9.0154c1.284-1.9198,5.3533,1.6519,6.9567,6.4505c1.5945,4.8045,0.7988,9.763-5.2838,11.9995
		c-6.0795,2.2454-10.8331,2.4837-16.2705-5.8357c-1.5374-2.351-2.8665-6.5977-5.1814-8.1592
		c-2.6285-1.7754-9.537-2.3572-12.6957-2.535c-2.4174-0.1355-8.1806,1.1815-8.9732-1.6578
		c-1.4229-5.085,16.2372-3.4603,19.2092-3.4603"/>
</g>
</svg>
