<?xml version="1.0" encoding="utf-8"?>
<!-- Generator: Adobe Illustrator 17.0.0, SVG Export Plug-In . SVG Version: 6.00 Build 0)  -->
<!DOCTYPE svg PUBLIC "-//W3C//DTD SVG 1.1//EN" "http://www.w3.org/Graphics/SVG/1.1/DTD/svg11.dtd">
<svg version="1.1" id="Layer_1" xmlns="http://www.w3.org/2000/svg" xmlns:xlink="http://www.w3.org/1999/xlink" x="0px" y="0px"
	viewBox="0 0 200 200" enable-background="new 0 0 200 200" xml:space="preserve">
<path fill="#903F40" d="M161.8148,101.4495c-4.0341-3.6104-8.8894-5.3467-14.0159-4.9963c-0.3458,0.0208-0.729,0.1137-1.0836,0.1616
	c-0.0331-20.2035,2.483-53.5486,5.2762-71.7706c0.8485-5.541-0.3053-13.4767-4.8047-18.7186
	c-2.8665-3.3349-6.6219-5.1011-10.8488-5.1011c-9.9549,0-17.9688,8.4807-19.488,20.6197
	c-0.5417,4.3228-2.1777,22.9068-2.6372,26.9958c-0.6992,6.1578-1.422,12.5072-2.5311,20.8503
	c-3.0446-3.242-7.6053-5.1251-13.3961-5.2238h-0.3608c-8.2833,0-14.6759,4.8464-16.4002,11.9232
	c-3.1298-2.9186-7.5409-4.8823-12.2107-4.9571l-0.3427-0.0061c-8.2475,0-13.3649,4.8047-15.4754,10.3577
	c-2.5654-2.2751-6.1173-3.6999-10.1885-3.7839l-0.3234-0.0028c-7.864,0-15.306,6.0557-15.9361,12.9648
	c-0.2485,2.7812-0.5119,6.3104-0.4131,8.1337c-0.0853,3.0804-0.1377,8.1843-0.1676,11.0851l-0.003,0.419l0.0539,0.419
	c0.925,6.3285,2.8484,10.7501,5.7222,13.1987c-4.2973,7.349-2.0461,38.7096,6.966,51.2257l17.0259,23.6493l2.7408,0.0448
	c4.1009,0.0659,17.6153,0.0867,31.6494,0.0867c17.7291,0,36.2745-0.0297,37.6395-0.0328l1.0238-0.0031l0.9472-0.3682
	c9.3535-3.6313,46.0304-35.0336,44.8809-61.7572C174.726,127.7868,171.4883,110.1188,161.8148,101.4495z M85.0374,184.0806
	c-0.0224,1.4668,0.3905,2.841,1.1226,4.0114c-10.0269-0.0031-19.2621-0.0178-24.2749-0.0598l-13.809-19.1796
	c-6.1204-8.4958-7.4195-28.0258-6.8598-36.2371c3.5908,0.2603,7.2938-0.2455,10.7813-1.5358
	c0.6137-0.2247,1.1943-0.503,1.7467-0.8172c1.9097,1.6703,4.3556,2.9875,7.2653,3.8796c4.8495,1.4968,12.2227,2.0805,17.7818,0.0331
	c1.4984-0.557,2.8499-1.3893,4.0457-2.338c2.0238,2.242,4.4543,3.9663,6.8837,4.7118l0.976,0.3084
	c2.365,0.7483,4.6101,1.4907,7.6813,1.2062c0.6483,1.0508,1.4266,2.2062,2.3337,3.3349
	C86.2259,153.8845,85.1049,178.6683,85.0374,184.0806z M127.0715,188.0591c-3.6074,0.0089-14.9874,0.0239-27.505,0.0297
	c0.5315-0.9457,0.8577-2.0266,0.934-3.2061c0.5643-8.2919,0.8966-11.5639,1.2228-13.9289c0.7127-5.1428,1.5073-8.768,6.6115-15.731
	c3.2478-4.4335,15.8178-6.3074,23.3286-7.433l0.5613-0.0809c10.2575-1.5477,22.8394-8.0856,25.0698-11.9621
	c0.0389-0.0601,3.0789-6.2626-0.1214-9.9537l-2.8079-3.0207l-3.6521,1.5269c-1.2393,0.5208-2.7153,1.1943-4.3645,1.9517
	c-8.3431,3.8318-22.2978,10.247-31.1436,6.3702c-2.9455-1.2902-4.8571-3.0743-5.1266-4.7747
	c-0.2544-1.6765,1.1183-3.272,2.1001-4.1821c0.8381-0.4218,3.2509-1.266,5.038-1.8947c4.7808-1.6703,10.7277-3.7539,14.9111-6.5529
	c6.704-4.4905,13.2974-7.6485,16.3956-7.8582c2.2243-0.1199,4.1282,0.5628,5.9962,2.2331
	c5.7295,5.1339,9.2575,18.126,9.6723,27.7413C165.0402,157.1056,134.9309,183.9371,127.0715,188.0591z"/>
<g>
	<g>
		<g>
			<path fill="none" d="M57.721,92.852c0,0.012-0.0386,1.0208-0.0972,2.6013c0.0166-0.0929,0.0389-0.1677,0.0389-0.2603
				L57.721,92.852z"/>
			
				<radialGradient id="SVGID_1_" cx="7772.1284" cy="64.72" r="65.3139" gradientTransform="matrix(-3.767 0 0 3.767 29356.2988 -276.764)" gradientUnits="userSpaceOnUse">
				<stop  offset="0.1174" style="stop-color:#FBEC7B"/>
				<stop  offset="1" style="stop-color:#F3B941"/>
			</radialGradient>
			<path fill="url(#SVGID_1_)" d="M115.2678,111.9927c0,0,9.9595-4.6459,13.2211-6.3224c8.0301-4.1401,12.745-7.9927,12.745-7.9927
				c-0.0748-18.7995,2.2046-53.1087,5.354-73.6595c1.1029-7.1994-2.2092-17.5274-10.2501-17.5274
				c-7.62,0-12.9844,7.1905-14.0638,15.8301c-1.7108,13.6686-3.6626,38.156-7.0063,60.9458
				C113.611,94.5732,115.5118,109.0021,115.2678,111.9927z"/>
			
				<radialGradient id="SVGID_2_" cx="7770.9492" cy="70.3496" r="56.2251" gradientTransform="matrix(-3.767 0 0 3.767 29356.2988 -276.764)" gradientUnits="userSpaceOnUse">
				<stop  offset="0.1174" style="stop-color:#FBEC7B"/>
				<stop  offset="1" style="stop-color:#F3B941"/>
			</radialGradient>
			<path fill="url(#SVGID_2_)" d="M36.2184,120.204c3.471,2.2273,9.2906,3.6343,13.7615-1.0806
				c3.7701-3.9933,2.3542-5.179,2.3542-22.0715l-0.1211-6.2025c0.0478-4.6101-4.3333-7.4811-9.0196-7.5798
				c-5.1833-0.1107-10.3293,3.8888-10.7005,7.99c-0.5568,6.1636-0.3922,7.4658-0.3922,7.4658v0.2155
				c-0.0853,3.0415-0.1377,8.1874-0.1646,11.0943C32.24,112.1573,33.3491,118.3601,36.2184,120.204z"/>
			<g>
				<defs>
					<path id="SVGID_3_" d="M36.2184,120.204c3.471,2.2273,9.2906,3.6343,13.7615-1.0806c3.7701-3.9933,2.3542-5.179,2.3542-22.0715
						l-0.1211-6.2025c0.0478-4.6101-4.3333-7.4811-9.0196-7.5798c-5.1833-0.1107-10.3293,3.8888-10.7005,7.99
						c-0.5568,6.1636-0.3922,7.4658-0.3922,7.4658v0.2155c-0.0853,3.0415-0.1377,8.1874-0.1646,11.0943
						C32.24,112.1573,33.3491,118.3601,36.2184,120.204z"/>
				</defs>
				<clipPath id="SVGID_4_">
					<use xlink:href="#SVGID_3_"  overflow="visible"/>
				</clipPath>
				
					<radialGradient id="SVGID_5_" cx="85.9585" cy="102.0844" r="7.7162" gradientTransform="matrix(3.767 0 0 3.767 -278.9153 -276.764)" gradientUnits="userSpaceOnUse">
					<stop  offset="0.0054" style="stop-color:#711A12;stop-opacity:0.5"/>
					<stop  offset="0.5905" style="stop-color:#831D19;stop-opacity:0.2059"/>
					<stop  offset="1" style="stop-color:#931F1F;stop-opacity:0"/>
				</radialGradient>
				<path clip-path="url(#SVGID_4_)" fill="url(#SVGID_5_)" d="M27.5311,108.7418c0,0,11.464,12.7705,29.6421-0.5898
					c0,0,4.6027,27.7952-16.6859,26.2745"/>
			</g>
			<g>
				
					<radialGradient id="SVGID_6_" cx="7769.9688" cy="70.743" r="55.8661" gradientTransform="matrix(-3.767 0 0 3.767 29356.2988 -276.764)" gradientUnits="userSpaceOnUse">
					<stop  offset="0.1174" style="stop-color:#FBEC7B"/>
					<stop  offset="1" style="stop-color:#F3B941"/>
				</radialGradient>
				<path fill="url(#SVGID_6_)" d="M148.1639,101.9075c-4.9347,0.3234-12.8842,4.6189-19.0779,8.7652
					c-6.1936,4.149-18.3326,6.9778-20.2887,8.6843c-6.7926,5.942-5.3617,14.0816,4.2149,18.2726
					c12.9844,5.6937,31.6147-4.8556,39.8172-8.2861c0.8172-0.3442-0.133,3.4424-0.2336,3.6132
					c-0.907,1.5747-11.2571,7.849-21.1853,9.3427c-9.4252,1.4101-22.7989,3.2932-27.4853,9.6873
					c-5.6235,7.6785-6.7834,12.1957-7.6172,18.2159c-0.3173,2.296-0.6646,5.4632-1.2602,14.3121
					c-0.2005,2.9578-4.5727,2.0149-4.5442-0.362c0.0374-3.2751,0.5043-14.1327,4.3661-24.3019
					c-11.9413,13.9589-13.3768-22.1163-40.4505-28.2051c-9.3639-2.1075-15.1324-1.7782-18.4884-1.0238
					c-1.1149,9.2621,0.4344,31.3217,7.7101,41.4277c15.4199,21.422,15.4199,21.422,15.4199,21.422
					c9.3338,0.1526,69.1945,0.054,69.1945,0.054c7.9823-3.0985,42.4188-32.6119,41.4026-56.4286
					C169.1503,125.356,163.5449,100.8806,148.1639,101.9075z"/>
				
					<radialGradient id="SVGID_7_" cx="7769.9688" cy="70.738" r="55.8726" gradientTransform="matrix(-3.767 0 0 3.767 29356.2988 -276.764)" gradientUnits="userSpaceOnUse">
					<stop  offset="0.1174" style="stop-color:#FBEC7B"/>
					<stop  offset="1" style="stop-color:#F3B941"/>
				</radialGradient>
				<path fill="url(#SVGID_7_)" d="M54.4192,131.6456c27.0737,6.0888,28.5092,42.164,40.4505,28.2051
					c2.7944-7.3582,7.3505-14.351,14.8602-17.8385c-4.9424-2.1942-8.4795-10.1541-8.4795-10.1541
					c-4.3869,1.4968-6.2654,0.5928-9.9236-0.5328c-2.9621-0.9101-6.5167-4.8256-7.6273-8.6993
					c-1.5913,2.6163-4.2376,5.4721-6.8031,6.4211c-4.351,1.6075-10.6121,1.003-14.2747-0.1257
					c-3.085-0.9491-6.9376-2.9455-7.9152-6.9781c-1.2541,1.7871-2.8631,3.3707-4.6024,4.0114
					c-4.351,1.6017-8.8596,1.5805-12.5191,0.4521c-0.7409-0.2275-1.3172,1.4159-1.6541,4.2149
					C39.2869,129.8673,45.0554,129.5381,54.4192,131.6456z"/>
				
					<radialGradient id="SVGID_8_" cx="95.5632" cy="98.559" r="20.205" gradientTransform="matrix(3.767 0 0 3.767 -278.9153 -276.764)" gradientUnits="userSpaceOnUse">
					<stop  offset="0.0054" style="stop-color:#711A12;stop-opacity:0.5"/>
					<stop  offset="0.5905" style="stop-color:#831D19;stop-opacity:0.2059"/>
					<stop  offset="1" style="stop-color:#931F1F;stop-opacity:0"/>
				</radialGradient>
				<path fill="url(#SVGID_8_)" d="M54.4192,131.6456c27.0737,6.0888,28.5092,42.164,40.4505,28.2051
					c2.7944-7.3582,7.3505-14.351,14.8602-17.8385c-4.9424-2.1942-8.4795-10.1541-8.4795-10.1541
					c-4.3869,1.4968-6.2654,0.5928-9.9236-0.5328c-2.9621-0.9101-6.5167-4.8256-7.6273-8.6993
					c-1.5913,2.6163-4.2376,5.4721-6.8031,6.4211c-4.351,1.6075-10.6121,1.003-14.2747-0.1257
					c-3.085-0.9491-6.9376-2.9455-7.9152-6.9781c-1.2541,1.7871-2.8631,3.3707-4.6024,4.0114
					c-4.351,1.6017-8.8596,1.5805-12.5191,0.4521c-0.7409-0.2275-1.3172,1.4159-1.6541,4.2149
					C39.2869,129.8673,45.0554,129.5381,54.4192,131.6456z"/>
			</g>
			
				<radialGradient id="SVGID_9_" cx="109.0772" cy="106.6202" r="7.0217" gradientTransform="matrix(3.767 0 0 3.767 -278.9153 -276.764)" gradientUnits="userSpaceOnUse">
				<stop  offset="0.0054" style="stop-color:#711A12;stop-opacity:0.5"/>
				<stop  offset="0.5905" style="stop-color:#831D19;stop-opacity:0.2059"/>
				<stop  offset="1" style="stop-color:#931F1F;stop-opacity:0"/>
			</radialGradient>
			<path fill="url(#SVGID_9_)" d="M103.485,125.1046c0,0,12.8232,17.4704,49.3444,4.2388c0,0-16.273,13.932-37.5616,12.4173"/>
			<g>
				<defs>
					<path id="SVGID_10_" d="M110.3166,141.7547c-0.1962,0.0779-0.3924,0.1677-0.5867,0.2575
						c-17.8955,8.3073-19.1603,36.5004-19.2262,42.1404c-0.0285,2.3769,4.3437,3.3198,4.5442,0.362
						c0.5956-8.8489,0.9429-12.0161,1.2602-14.3121c0.8338-6.0201,1.9937-10.5373,7.6172-18.2159
						c4.6864-6.3941,18.0601-8.2772,27.4853-9.6873c9.9282-1.4938,20.2783-7.768,21.1853-9.3427
						c0.1006-0.1707,1.0508-3.9574,0.2336-3.6132c-8.2024,3.4305-26.8327,13.9798-39.8172,8.2861
						c-9.5766-4.191-11.0076-12.3306-4.2149-18.2726c1.956-1.7065,14.095-4.5353,20.2887-8.6843
						c6.1936-4.1463,14.1432-8.4418,19.0779-8.7652c15.381-1.0269,20.9864,23.4485,21.494,35.1893
						c1.0162,23.8167-33.4203,53.3301-41.4026,56.4286c0,0-59.8606,0.0987-69.1945-0.054c0,0,0,0-15.4199-21.422
						c-9.4747-13.1595-9.2427-46.6217-6.056-45.6426c3.6595,1.1284,8.1681,1.1495,12.5191-0.4521
						c1.7393-0.6407,3.3483-2.2243,4.6024-4.0114c0.9776,4.0325,4.8302,6.029,7.9152,6.9781
						c3.6625,1.1287,9.9236,1.7332,14.2747,0.1257c2.5654-0.9491,5.2118-3.8048,6.8031-6.4211
						c1.1106,3.8738,4.6652,7.7892,7.6273,8.6993c3.6583,1.1256,5.5367,2.0296,9.9236,0.5328c0,0,3.5372,7.9599,8.4795,10.1541"/>
				</defs>
				<clipPath id="SVGID_11_">
					<use xlink:href="#SVGID_10_"  overflow="visible"/>
				</clipPath>
			</g>
			
				<radialGradient id="SVGID_12_" cx="7770.2495" cy="68.9549" r="57.876" gradientTransform="matrix(-3.767 0 0 3.767 29356.2988 -276.764)" gradientUnits="userSpaceOnUse">
				<stop  offset="0.1174" style="stop-color:#FBEC7B"/>
				<stop  offset="1" style="stop-color:#F3B941"/>
			</radialGradient>
			<path fill="url(#SVGID_12_)" d="M57.721,92.852l-0.0582,2.341c0,0.0926-0.0224,0.1674-0.0389,0.2603
				c-0.1573,4.3136-0.4445,13.0191-0.4445,18.2428c0,0.027-0.0061,0.0659-0.0061,0.0867c0.4837,2.6942,1.6556,7.3732,4.0819,8.9329
				c3.4771,2.2301,11.0493,4.2208,15.514-0.4969c3.6089-3.802,3.6806-13.4712,3.6745-28.9987
				c-0.0374-0.1376-0.0567-0.2814-0.0567-0.4221l0.2229-7.1635c0.0405-3.9065-5.1787-8.8369-11.3843-8.9357
				c-7.3269-0.126-10.9282,5.0291-11.353,9.9295l-0.1514,6.2206l0,0V92.852z"/>
			<g>
				<defs>
					<path id="SVGID_13_" d="M57.721,92.852l-0.0582,2.341c0,0.0926-0.0224,0.1674-0.0389,0.2603
						c-0.1573,4.3136-0.4445,13.0191-0.4445,18.2428c0,0.027-0.0061,0.0659-0.0061,0.0867
						c0.4837,2.6942,1.6556,7.3732,4.0819,8.9329c3.4771,2.2301,11.0493,4.2208,15.514-0.4969
						c3.6089-3.802,3.6806-13.4712,3.6745-28.9987c-0.0374-0.1376-0.0567-0.2814-0.0567-0.4221l0.2229-7.1635
						c0.0405-3.9065-5.1787-8.8369-11.3843-8.9357c-7.3269-0.126-10.9282,5.0291-11.353,9.9295l-0.1514,6.2206l0,0V92.852z"/>
				</defs>
				<clipPath id="SVGID_14_">
					<use xlink:href="#SVGID_13_"  overflow="visible"/>
				</clipPath>
				
					<radialGradient id="SVGID_15_" cx="92.837" cy="102.0866" r="7.649" gradientTransform="matrix(3.767 0 0 3.767 -278.9153 -276.764)" gradientUnits="userSpaceOnUse">
					<stop  offset="0.0054" style="stop-color:#711A12;stop-opacity:0.5"/>
					<stop  offset="0.5905" style="stop-color:#831D19;stop-opacity:0.2059"/>
					<stop  offset="1" style="stop-color:#931F1F;stop-opacity:0"/>
				</radialGradient>
				<path clip-path="url(#SVGID_14_)" fill="url(#SVGID_15_)" d="M52.6005,108.152c0,0,14.6342,13.8572,31.3922,0
					c0,0,2.8484,27.2085-18.4433,25.6908"/>
			</g>
			
				<radialGradient id="SVGID_16_" cx="7770.248" cy="68.5787" r="58.822" gradientTransform="matrix(-3.767 0 0 3.767 29356.2988 -276.764)" gradientUnits="userSpaceOnUse">
				<stop  offset="0.1174" style="stop-color:#FBEC7B"/>
				<stop  offset="1" style="stop-color:#F3B941"/>
			</radialGradient>
			<path fill="url(#SVGID_16_)" d="M85.7918,111.5019c0,0-0.0061,0.0328-0.0061,0.0868c0,0.0031,0,0.0089,0,0.0089
				c-0.0567,0.9671-0.3832,8.6156,3.799,13.1359c2.8079,3.0323,10.3697,3.5623,10.3697,3.5623
				c0-8.4838,9.6241-13.7465,9.6241-13.7465c0.5628-5.5321,0.515-12.947,0.5119-21.8202c-0.0058-0.0536-0.0224-0.1018-0.0224-0.1615
				l0.2486-12.8903c0-0.1018-0.0107-0.2005-0.0165-0.3022c-0.5193-5.598-4.2014-9.5077-12.1031-9.6364
				c-7.12-0.1196-11.5909,4.4755-11.6734,10.1903L86.3215,90.93c0,0.2216-0.0058,11.3877-0.5358,20.5719H85.7918z"/>
			<g>
				<defs>
					<path id="SVGID_17_" d="M85.7918,111.5019c0,0-0.0061,0.0328-0.0061,0.0868c0,0.0031,0,0.0089,0,0.0089
						c-0.0567,0.9671-0.3832,8.6156,3.799,13.1359c2.8079,3.0323,10.3697,3.5623,10.3697,3.5623
						c0-8.4838,9.6241-13.7465,9.6241-13.7465c0.5628-5.5321,0.515-12.947,0.5119-21.8202
						c-0.0058-0.0536-0.0224-0.1018-0.0224-0.1615l0.2486-12.8903c0-0.1018-0.0107-0.2005-0.0165-0.3022
						c-0.5193-5.598-4.2014-9.5077-12.1031-9.6364c-7.12-0.1196-11.5909,4.4755-11.6734,10.1903L86.3215,90.93
						c0,0.2216-0.0058,11.3877-0.5358,20.5719H85.7918z"/>
				</defs>
				<clipPath id="SVGID_18_">
					<use xlink:href="#SVGID_17_"  overflow="visible"/>
				</clipPath>
				
					<radialGradient id="SVGID_19_" cx="100.2475" cy="102.3472" r="7.8272" gradientTransform="matrix(3.767 0 0 3.767 -278.9153 -276.764)" gradientUnits="userSpaceOnUse">
					<stop  offset="0.0054" style="stop-color:#711A12;stop-opacity:0.5"/>
					<stop  offset="0.5905" style="stop-color:#831D19;stop-opacity:0.2059"/>
					<stop  offset="1" style="stop-color:#931F1F;stop-opacity:0"/>
				</radialGradient>
				<path clip-path="url(#SVGID_18_)" fill="url(#SVGID_19_)" d="M81.9644,109.1339c0,0,14.6401,13.8483,31.3965,0
					c0,0,2.8425,27.2055-18.4448,25.6847c0,0-12.0835-0.7544-16.3852-15.5903"/>
			</g>
		</g>
	</g>
</g>
</svg>
