<?xml version="1.0" encoding="utf-8"?>
<!-- Generator: Adobe Illustrator 17.0.0, SVG Export Plug-In . SVG Version: 6.00 Build 0)  -->
<!DOCTYPE svg PUBLIC "-//W3C//DTD SVG 1.1//EN" "http://www.w3.org/Graphics/SVG/1.1/DTD/svg11.dtd">
<svg version="1.1" id="Layer_1" xmlns="http://www.w3.org/2000/svg" xmlns:xlink="http://www.w3.org/1999/xlink" x="0px" y="0px"
	 viewBox="0 0 200 200" enable-background="new 0 0 200 200" xml:space="preserve">
<path fill="#903F40" d="M150.3432,95.2734c-0.435,0-0.8712,0.0148-1.3165,0.0445c-0.9158,0.0591-1.8742,0.213-2.8594,0.4347v-6.4815
	c0.1257-6.9462-1.8739-12.8775-5.6369-16.7084c-3.0723-3.1299-7.1767-4.7836-11.8672-4.7836
	c-6.6635,0-10.6779,2.5322-12.9145,4.7124c-2.5752-5.8899-8.3645-9.369-16.4333-9.502l-0.3696-0.003
	c-8.3942,0-14.8802,4.8635-16.7232,11.9899c-3.0532-3.0263-7.2761-4.9165-12.0108-4.9965h-0.3593
	c-4.5279,0-6.0513,0.0061-8.7595,2.1981l0.9954-30.0859c0.0709-7.4372-6.3561-16.3921-15.0001-16.3921
	c-10.8288,0-15.8253,9.6886-16.4154,16.2176c-0.568,6.2743-3.6567,57.3434-3.6567,62.1094
	c-0.0915,3.0884-0.1478,8.3069-0.176,11.2562l-0.0058,0.4408c0,0,0.1315,0.8964,0.176,1.1657
	c0.1212,2.9169,0.1627,5.7302,0.2069,8.499c0.1999,12.8657,0.3817,25.0183,7.5481,42.0729
	c10.8421,25.808,21.2896,30.4674,23.2731,31.142l0.8591,0.2957l0.9097,0.0148C63.2968,198.9706,74.0072,199,91.6389,199
	c18.4535,0,37.7831-0.0324,37.7831-0.0324l1.0842-0.0061l1.0072-0.3905c9.4429-3.6594,46.4496-35.3603,45.2946-62.3519
	C176.0994,119.7622,168.4686,95.2734,150.3432,95.2734z"/>
<g>
	<g>
		<g>
			<path fill="none" d="M58.5563,92.0224c0,0.0118-0.0385,1.0266-0.0978,2.6122c0.0221-0.0918,0.037-0.1687,0.037-0.2602
				L58.5563,92.0224z"/>
			
				<radialGradient id="SVGID_1_" cx="7777.2954" cy="59.505" r="95.8436" gradientTransform="matrix(-1 0 0 1 7867.1328 0)" gradientUnits="userSpaceOnUse">
				<stop  offset="0.1174" style="stop-color:#FBEC7B"/>
				<stop  offset="1" style="stop-color:#F3B941"/>
			</radialGradient>
			<path fill="url(#SVGID_1_)" d="M116.3685,111.2484c0,0,10.0064-4.6684,13.2843-6.3515
				c8.0658-4.1535,10.7031-6.4581,10.7031-6.4581v-9.2711c0.1581-8.721-3.6182-15.5784-11.6928-15.5784
				c-7.6574,0-12.2947,4.1919-12.2768,13.1586C116.4085,100.5214,116.6111,108.2458,116.3685,111.2484z"/>
			<radialGradient id="SVGID_2_" cx="117.8783" cy="-166.278" r="363.7323" gradientUnits="userSpaceOnUse">
				<stop  offset="0.1174" style="stop-color:#FBEC7B"/>
				<stop  offset="1" style="stop-color:#F3B941"/>
			</radialGradient>
			<path fill="url(#SVGID_2_)" d="M149.4126,101.116c-4.9565,0.3314-12.9454,4.6445-19.1651,8.8098
				c-6.2213,4.1683-18.4138,7.0083-20.3783,8.721c-6.8277,5.9698-5.387,14.1468,4.2304,18.3593
				c13.0447,5.7184,31.7633-4.8784,39.9975-8.3275c0.8255-0.3432-0.1302,3.4582-0.2278,3.6297
				c-0.9127,1.5828-11.3126,7.8898-21.2847,9.3866c-9.468,1.4171-22.9048,3.3134-27.6114,9.7358
				c-5.6502,7.7123-6.8129,12.2504-7.6487,18.2942c-0.3223,2.3074-0.6731,5.4876-1.2678,14.3801
				c-0.2011,2.9672-4.5969,2.0236-4.566-0.3665c0.0651-5.6624,1.3371-33.985,19.3132-42.3304
				c-4.9653-2.2068-8.5199-10.2002-8.5199-10.2002c-4.4064,1.5059-6.2906,0.5947-9.9664-0.5353
				c-2.9775-0.9173-6.5469-4.8487-7.665-8.7419c-1.5974,2.6331-4.2556,5.4997-6.8323,6.4551
				c-4.3707,1.6091-10.6616,1.0057-14.3431-0.1303c-2.6552-0.8164-9.1709-3.5618-10.2078-17.4981
				c-0.0488-1.6597-0.0872-3.5649-0.1063-5.7926c0.0191-0.701,0.0251-1.3756,0.0679-2.1181
				c0.0076-0.1802-0.0457-0.3017-0.0827-0.4438c0-0.0385,0-0.0679,0-0.1033l3.1253-60.2637
				c0.2442-5.6266-4.3516-10.425-9.0642-10.5256c-5.2034-0.1094-9.4353,3.3843-10.7473,10.9309
				c-1.0666,6.1325-3.6418,61.5326-3.6418,61.5326v0.2248c-0.0872,3.0529-0.1403,8.2212-0.1684,11.1408
				c0.0385,0.2545,0.0872,0.5859,0.1539,0.9467c0.698,16.1437-1.006,29.1039,7.3173,48.9243
				c10.3762,24.699,19.7822,27.888,19.7822,27.888c9.3732,0.1597,69.5095,0.056,69.5095,0.056
				c8.014-3.109,42.6112-32.76,41.5907-56.6838C170.4949,124.6791,164.8653,100.0897,149.4126,101.116z"/>
			<g>
				<defs>
					<path id="SVGID_3_" d="M149.4126,101.116c-4.9565,0.3314-12.9454,4.6445-19.1651,8.8098
						c-6.2213,4.1683-18.4138,7.0083-20.3783,8.721c-6.8277,5.9698-5.387,14.1468,4.2304,18.3593
						c13.0447,5.7184,31.7633-4.8784,39.9975-8.3275c0.8255-0.3432-0.1302,3.4582-0.2278,3.6297
						c-0.9127,1.5828-11.3126,7.8898-21.2847,9.3866c-9.468,1.4171-22.9048,3.3134-27.6114,9.7358
						c-5.6502,7.7123-6.8129,12.2504-7.6487,18.2942c-0.3223,2.3074-0.6731,5.4876-1.2678,14.3801
						c-0.2011,2.9672-4.5969,2.0236-4.566-0.3665c0.0651-5.6624,1.3371-33.985,19.3132-42.3304
						c-4.9653-2.2068-8.5199-10.2002-8.5199-10.2002c-4.4064,1.5059-6.2906,0.5947-9.9664-0.5353
						c-2.9775-0.9173-6.5469-4.8487-7.665-8.7419c-1.5974,2.6331-4.2556,5.4997-6.8323,6.4551
						c-4.3707,1.6091-10.6616,1.0057-14.3431-0.1303c-2.6552-0.8164-9.1709-3.5618-10.2078-17.4981
						c-0.0488-1.6597-0.0872-3.5649-0.1063-5.7926c0.0191-0.701,0.0251-1.3756,0.0679-2.1181
						c0.0076-0.1802-0.0457-0.3017-0.0827-0.4438c0-0.0385,0-0.0679,0-0.1033l3.1253-60.2637
						c0.0476-4.6327-4.3516-10.425-9.0642-10.5256c-5.2034-0.1094-9.4353,2.4377-10.7473,10.9309
						c-0.9497,6.1504-3.6418,61.5326-3.6418,61.5326v0.2248c-0.0872,3.0529-0.1403,8.2212-0.1684,11.1408
						c0.0385,0.2545,0.0872,0.5859,0.1539,0.9467c0.698,16.1437-1.006,29.1039,7.3173,48.9243
						c10.3762,24.699,19.7822,27.888,19.7822,27.888c9.3732,0.1597,69.5095,0.056,69.5095,0.056
						c8.014-3.109,42.6112-32.76,41.5907-56.6838C170.4949,124.6791,164.8653,100.0897,149.4126,101.116z"/>
				</defs>
				<clipPath id="SVGID_4_">
					<use xlink:href="#SVGID_3_"  overflow="visible"/>
				</clipPath>
				<radialGradient id="SVGID_5_" cx="115.285" cy="58.969" r="132.5883" gradientUnits="userSpaceOnUse">
					<stop  offset="0.0054" style="stop-color:#711A12;stop-opacity:0.5"/>
					<stop  offset="0.5905" style="stop-color:#831D19;stop-opacity:0.2059"/>
					<stop  offset="1" style="stop-color:#931F1F;stop-opacity:0"/>
				</radialGradient>
				<path clip-path="url(#SVGID_4_)" fill="url(#SVGID_5_)" d="M139.1,137.3315c0,0,19.1875-7.8304,12.0005-6.4136
					c-30.3553,5.9698-45.6511,0.2011-46.5681-8.011c0,0-8.9549,8.9785-11.518,5.8899c-2.5634-3.0944-8.8558-10.5522-8.8558-10.5522
					s-1.6285,6.6326-8.1545,7.3957c-6.5275,0.7634-18.8489-3.5706-22.5437-12.9542c0,0-0.8194,14.4867,11.9781,21.2405
					c21.2835,11.2356,21.6637,33.0559,27.5329,35.7184c2.9317,1.3314,2.5691-11.4041,10.2963-19.4744
					C110.9948,142.1032,126.8113,138.7071,139.1,137.3315z"/>
			</g>
			<g>
				
					<radialGradient id="SVGID_6_" cx="7780.332" cy="-18.3495" r="218.9585" gradientTransform="matrix(-1 0 0 1 7867.1328 0)" gradientUnits="userSpaceOnUse">
					<stop  offset="0.1174" style="stop-color:#FBEC7B"/>
					<stop  offset="1" style="stop-color:#F3B941"/>
				</radialGradient>
				<path fill="url(#SVGID_6_)" d="M80.983,110.1921c0.3726-4.6948,0.4038-10.5907,0.4008-17.7971c-0.0354-0.1418,0-5.2628,0-5.4076
					c0-6.2982-5.0335-11.0908-11.2711-11.1941c-7.3557-0.1245-10.9724,5.0586-11.4044,9.9782l-0.1521,6.2479v0.003l-0.0609,2.3519
					c0,0.0915-0.0148,0.1684-0.037,0.2602c-0.1345,3.7333-0.3696,10.7237-0.432,15.951
					C62.989,113.2747,71.4571,115.8484,80.983,110.1921z"/>
				
					<radialGradient id="SVGID_7_" cx="7780.334" cy="-18.3568" r="218.9705" gradientTransform="matrix(-1 0 0 1 7867.1328 0)" gradientUnits="userSpaceOnUse">
					<stop  offset="0.1174" style="stop-color:#FBEC7B"/>
					<stop  offset="1" style="stop-color:#F3B941"/>
				</radialGradient>
				<path fill="url(#SVGID_7_)" d="M58.0074,113.0469c0.488,2.7097,1.6625,7.4075,4.0986,8.9785
					c3.491,2.2365,11.1027,4.2392,15.5887-0.5001c1.9497-2.0529,2.8533-5.872,3.2883-11.3332
					c-9.5259,5.6563-17.994,3.0826-22.9566,0.3935c-0.0103,0.8431-0.0161,1.6479-0.0161,2.3786
					C58.0104,112.9908,58.0074,113.0263,58.0074,113.0469z"/>
				<radialGradient id="SVGID_8_" cx="71.6936" cy="107.035" r="28.9452" gradientUnits="userSpaceOnUse">
					<stop  offset="0.0054" style="stop-color:#711A12;stop-opacity:0.5"/>
					<stop  offset="0.5905" style="stop-color:#831D19;stop-opacity:0.2059"/>
					<stop  offset="1" style="stop-color:#931F1F;stop-opacity:0"/>
				</radialGradient>
				<path fill="url(#SVGID_8_)" d="M58.0074,113.0469c0.488,2.7097,1.6625,7.4075,4.0986,8.9785
					c3.491,2.2365,11.1027,4.2392,15.5887-0.5001c1.9497-2.0529,2.8533-5.872,3.2883-11.3332
					c-9.5259,5.6563-17.994,3.0826-22.9566,0.3935c-0.0103,0.8431-0.0161,1.6479-0.0161,2.3786
					C58.0104,112.9908,58.0074,113.0263,58.0074,113.0469z"/>
			</g>
			<g>
				<defs>
					<path id="SVGID_9_" d="M58.5563,92.0224l-0.0609,2.3519c0,0.0915-0.0148,0.1684-0.037,0.2602
						c-0.1566,4.334-0.448,13.0787-0.448,18.3296c0,0.0267-0.003,0.0621-0.003,0.0827c0.488,2.7097,1.6625,7.4075,4.0986,8.9785
						c3.491,2.2365,11.1027,4.2392,15.5887-0.5001c3.6239-3.8221,3.6948-13.537,3.6891-29.1303
						c-0.0354-0.1418-0.0563-0.2869-0.0563-0.4259c0,0-4.9771-16.0725-11.2147-16.1758
						c-7.3557-0.1245-10.9724,5.0586-11.4044,9.9782l-0.1521,6.2479l0,0V92.0224z"/>
				</defs>
				<clipPath id="SVGID_10_">
					<use xlink:href="#SVGID_9_"  overflow="visible"/>
				</clipPath>
			</g>
			<g>
				
					<radialGradient id="SVGID_11_" cx="7780.1187" cy="-19.7614" r="222.576" gradientTransform="matrix(-1 0 0 1 7867.1328 0)" gradientUnits="userSpaceOnUse">
					<stop  offset="0.1174" style="stop-color:#FBEC7B"/>
					<stop  offset="1" style="stop-color:#F3B941"/>
				</radialGradient>
				<path fill="url(#SVGID_11_)" d="M110.8764,110.9346c0.3226-5.1562,0.2929-11.5728,0.2872-19.0364
					c-0.0061-0.0533-0.0164-0.1066-0.0164-0.1599l0.2454-12.9514c0-0.0975-0.0103-0.2039-0.0161-0.3017
					c-0.5192-5.6266-4.2216-9.5523-12.1572-9.6825c-7.1546-0.1212-11.6452,4.4937-11.7267,10.2387L87.29,90.0906
					c0,0.2248-0.0045,11.4425-0.5398,20.6667l0.0042-0.003c0,0-0.0042,0.0385-0.0042,0.0918c0,0,0,0.0088,0,0.0118
					c-0.003,0.0503-0.0061,0.1833-0.0118,0.2632C91.6225,113.9817,100.6658,117.23,110.8764,110.9346z"/>
				
					<radialGradient id="SVGID_12_" cx="7780.1177" cy="-19.7962" r="222.6307" gradientTransform="matrix(-1 0 0 1 7867.1328 0)" gradientUnits="userSpaceOnUse">
					<stop  offset="0.1174" style="stop-color:#FBEC7B"/>
					<stop  offset="1" style="stop-color:#F3B941"/>
				</radialGradient>
				<path fill="url(#SVGID_12_)" d="M90.5677,124.0517c2.8178,3.0441,10.4147,3.5737,10.4147,3.5737
					c0-8.5199,9.6677-13.8033,9.6677-13.8033c0.0933-0.9082,0.1642-1.8785,0.2263-2.8875
					c-10.2105,6.2955-19.2539,3.0472-24.138,0.1866C86.6732,112.6507,86.5757,119.7356,90.5677,124.0517z"/>
				<radialGradient id="SVGID_13_" cx="99.7377" cy="108.008" r="29.6297" gradientUnits="userSpaceOnUse">
					<stop  offset="0.0054" style="stop-color:#711A12;stop-opacity:0.5"/>
					<stop  offset="0.5905" style="stop-color:#831D19;stop-opacity:0.2059"/>
					<stop  offset="1" style="stop-color:#931F1F;stop-opacity:0"/>
				</radialGradient>
				<path fill="url(#SVGID_13_)" d="M90.5677,124.0517c2.8178,3.0441,10.4147,3.5737,10.4147,3.5737
					c0-8.5199,9.6677-13.8033,9.6677-13.8033c0.0933-0.9082,0.1642-1.8785,0.2263-2.8875
					c-10.2105,6.2955-19.2539,3.0472-24.138,0.1866C86.6732,112.6507,86.5757,119.7356,90.5677,124.0517z"/>
			</g>
			<g>
				<defs>
					<path id="SVGID_14_" d="M86.7544,110.7543c0,0-0.0042,0.0385-0.0042,0.0918c0,0,0,0.0088,0,0.0118
						c-0.0548,0.9672-0.3847,8.6529,3.8175,13.1938c2.8178,3.0441,10.4147,3.5737,10.4147,3.5737
						c0-8.5199,9.6677-13.8033,9.6677-13.8033c0.568-5.5587,0.5192-13.0078,0.5135-21.9239
						c-0.0061-0.0533-0.0164-0.1066-0.0164-0.1599l0.2454-12.9514c0-0.0975-0.0103-0.2039-0.0161-0.3017
						c-0.5192-5.6266-4.2216-9.5523-12.1572-9.6825c-7.1546-0.1212-11.6452,4.4937-11.7267,10.2387L87.29,90.0906
						c0,0.2248-0.0045,11.4425-0.5398,20.6667L86.7544,110.7543z"/>
				</defs>
				<clipPath id="SVGID_15_">
					<use xlink:href="#SVGID_14_"  overflow="visible"/>
				</clipPath>
			</g>
		</g>
	</g>
</g>
</svg>
