<?xml version="1.0" encoding="utf-8"?>
<!-- Generator: Adobe Illustrator 17.0.0, SVG Export Plug-In . SVG Version: 6.00 Build 0)  -->
<!DOCTYPE svg PUBLIC "-//W3C//DTD SVG 1.1//EN" "http://www.w3.org/Graphics/SVG/1.1/DTD/svg11.dtd">
<svg version="1.1" id="Layer_1" xmlns="http://www.w3.org/2000/svg" xmlns:xlink="http://www.w3.org/1999/xlink" x="0px" y="0px"
	viewBox="0 0 200 200" enable-background="new 0 0 200 200" xml:space="preserve">
<path fill="#903F40" d="M85.7017,198c-2.6185,0-5.035-1.5206-6.1574-3.8737c-3.566-7.3947-24.1507-36.6106-35.2423-47.3266
	c-0.4239-0.4106-0.8659-0.8088-1.3216-1.207c-4.735-4.124-11.134-7.6208-17.3232-10.9996
	c-12.9471-7.0749-26.3364-14.3877-22.829-27.8705c0.6349-2.4588,6.3038-10.9001,14.8147-12.4479
	c1.688-0.3046,3.4678-0.4646,5.3007-0.4826l0.6488-0.0031c1.4041,0,2.9083,0.0482,4.4981,0.181
	c8.078,0.6908,20.6056,3.8376,37.5306,22.6329c0.047-1.3544,0.059-2.5793,0.0711-3.6504l0.021-1.5085l-6.9825-89.1488
	c-0.0785-6.6526,2.0349-11.9502,6.0987-15.625C68.0905,3.7016,72.4394,2.0392,77.0629,2c8.5167,0,15.688,7.9646,15.8644,17.4319
	l4.7486,56.7047c2.545-7.1985,9.8702-11.0753,16.3037-11.0753c0.6939,0,1.3831,0.0454,2.0634,0.1298
	c7.8201,1.0047,12.881,6.6857,14.599,11.6818c0.3636-0.4918,0.768-0.9623,1.2129-1.4149c3.1196-3.1768,8.2272-5.2284,13.012-5.2284
	c7.3554,0.0664,12.4494,4.275,14.9747,8.4203c0.6531-12.7226,1.7121-27.0046,3.3909-36.1129
	c1.3003-7.0836,7.7129-12.481,14.916-12.5505c3.2596,0,6.8784,1.7288,9.5275,4.5135c2.1706,2.2809,4.6927,6.2964,4.385,12.4751
	c-1.8555,37.2652-2.0652,68.611-2.1783,85.4517c-0.0331,4.9479-0.0587,8.7008-0.1131,11.0633
	c-0.0392,1.7226-0.1161,3.1585-0.2323,4.2537c-2.6473,25.0225-11.9561,42.4214-13.6923,45.4866
	c-0.6305,1.6803-1.8752,3.035-2.5042,3.4876c-1.1539,0.8357-2.5296,1.2821-3.9642,1.2821H85.7017z"/>
<g>
	<g>
		<g>
			
				<radialGradient id="SVGID_1_" cx="116.8148" cy="-23.8455" r="229.0866" gradientTransform="matrix(0.9899 0 0 0.9899 0.9917 1.0101)" gradientUnits="userSpaceOnUse">
				<stop  offset="0.1174" style="stop-color:#FBEC7B"/>
				<stop  offset="1" style="stop-color:#F3B941"/>
			</radialGradient>
			<path fill="url(#SVGID_1_)" d="M83.7091,192.1321c0.371,0.7782,1.1647,1.2401,1.9914,1.2339c0.1869,0,83.4936,0,83.6583,0
				c0.4507,0,0.8882-0.1418,1.2595-0.4103c0.4449-0.3197,1.0377-1.6834,0.9682-1.6503
				c1.0396-1.7106,10.6484-18.7533,13.3244-44.0504c0.1057-0.9954,0.1721-2.305,0.2082-3.8737
				c-4.5602,14.3003-12.3407,33.099-23.0614,39.0212c-18.0609,9.974-44.2073,7.6026-66.0379-0.9503
				c-21.6208-8.4747-27.3997-32.9179-50.0134-39.353c0.5159,0.4495,1.0167,0.9021,1.498,1.3667
				C58.9566,154.532,79.8217,184.0708,83.7091,192.1321z"/>
			
				<radialGradient id="SVGID_2_" cx="137.845" cy="97.6414" r="183.3232" gradientTransform="matrix(0.9899 0 0 0.9899 0.9917 1.0101)" gradientUnits="userSpaceOnUse">
				<stop  offset="0.0054" style="stop-color:#711A12;stop-opacity:0.5"/>
				<stop  offset="0.5905" style="stop-color:#831D19;stop-opacity:0.2059"/>
				<stop  offset="1" style="stop-color:#931F1F;stop-opacity:0"/>
			</radialGradient>
			<path fill="url(#SVGID_2_)" d="M83.7091,192.1321c0.371,0.7782,1.1647,1.2401,1.9914,1.2339c0.1869,0,83.4936,0,83.6583,0
				c0.4507,0,0.8882-0.1418,1.2595-0.4103c0.4449-0.3197,1.0377-1.6834,0.9682-1.6503
				c1.0396-1.7106,10.6484-18.7533,13.3244-44.0504c0.1057-0.9954,0.1721-2.305,0.2082-3.8737
				c-4.5602,14.3003-12.3407,33.099-23.0614,39.0212c-18.0609,9.974-44.2073,7.6026-66.0379-0.9503
				c-21.6208-8.4747-27.3997-32.9179-50.0134-39.353c0.5159,0.4495,1.0167,0.9021,1.498,1.3667
				C58.9566,154.532,79.8217,184.0708,83.7091,192.1321z"/>
		</g>
	</g>
</g>
<g>
	<defs>
		<path id="SVGID_3_" d="M183.3269,80.1553l-0.0028-0.2354c-0.5175-17.6491,2.3411-24.775,2.2778-31.4001
			c-0.0423-4.2086-1.4786-7.5847-4.1409-9.7568c-2.1073-1.7047-2.1147-2.6278-5.1982-2.5978
			c-4.9689,0.0485-9.5214,3.9494-10.404,8.7552c-3.5147,19.0761-2.3711,61.0359-2.3711,61.0359
			c0.0105,1.2036-1.4091,2.2324-3.1076,2.2534c-1.6939,0.0151-3.1344-0.9895-3.1468-2.1931l-0.2172-21.9362
			c-0.0226-2.0937-3.9988-9.1445-12.0707-9.2168c-4.993-0.0423-12.1204,3.2071-12.0151,9.0901l0.2354,23.1488
			c0.0046,1.207-1.4149,2.2416-3.1088,2.2568c-1.6942,0.0182-3.1363-0.9895-3.1468-2.1931l-0.2685-26.7726
			c-0.0272-2.9868-3.6204-9.6298-11.2063-10.6045c-5.9977-0.7692-13.0031,3.2886-13.9642,10.2276
			c-0.0164,0.1053-0.0195,0.2172-0.0195,0.3228l0.2685,26.5248c0.009,1.2067-1.4118,2.2385-3.1045,2.2568
			c-1.6985,0.0151-3.1391-0.9895-3.1511-2.1965l-7.1864-87.2754C88.2075,12.2517,82.7316,6.5738,77.0855,6.634
			c-3.4832,0.0303-6.7428,1.2673-9.167,3.4724c-3.0563,2.7637-4.6371,6.8577-4.5858,11.8387l6.7972,99.0745
			c0.0093,0.8749-0.7572,1.7078-1.9216,2.0757c-0.3788,0.1146-0.7739,0.1779-1.1814,0.181
			c-0.9849,0.012-1.9911-0.2746-2.5401-0.9172C45.0381,99.5904,31.8976,98.3355,22.9691,98.426
			c-1.5824,0.0148-3.1029,0.1538-4.5148,0.4072c-6.7941,1.237-10.9922,8.4083-11.1596,9.0567
			c-4.1002,15.7606,23.7086,20.1141,38.0722,33.998c11.4507,11.0691,34.4549,42.1829,38.3422,50.2442
			c0.371,0.7782,1.1647,1.2401,1.9914,1.2339c0.1869,0,83.4936,0,83.6583,0c0.4507,0,0.8882-0.1418,1.2595-0.4103
			c0.5051-0.3652,1.2082-2.0878,0.8975-1.5509c-0.8975,1.5509,10.4537-16.3427,13.3951-44.1499
			C185.7181,139.6283,184.3331,114.5394,183.3269,80.1553z"/>
	</defs>
	<clipPath id="SVGID_4_">
		<use xlink:href="#SVGID_3_"  overflow="visible"/>
	</clipPath>
</g>
<g>
	<g>
		<path fill="none" d="M70.1298,121.0196l0.0695-3.4029c-0.0664,1.4118-0.181,2.8722-0.3695,4.2991
			C70.0078,121.635,70.1329,121.3335,70.1298,121.0196z"/>
		
			<radialGradient id="SVGID_5_" cx="118.2349" cy="-32.1148" r="237.3983" gradientTransform="matrix(0.9899 0 0 0.9899 0.9917 1.0101)" gradientUnits="userSpaceOnUse">
			<stop  offset="0.1174" style="stop-color:#FBEC7B"/>
			<stop  offset="1" style="stop-color:#F3B941"/>
		</radialGradient>
		<path fill="url(#SVGID_5_)" d="M187.415,46.7456c0.4208-8.4623-6.1561-12.155-9.2393-12.1251
			c-4.9689,0.0485-9.5217,3.9494-10.404,8.7552c-3.5148,19.0761-4.284,62.5806-4.284,62.5806
			c0.0105,1.2036-1.4091,2.2324-3.1076,2.2534c-1.6939,0.0151-3.1344-0.9895-3.1468-2.1931l-0.2172-21.9362
			c-0.0226-2.0937-3.9988-9.1445-12.0707-9.2168c-4.993-0.0423-12.1204,3.2071-12.0151,9.0901l0.2354,23.1488
			c0.0046,1.207-1.4149,2.2416-3.1088,2.2568c-1.6942,0.0182-3.1363-0.9895-3.1468-2.1931l-0.2685-26.7726
			c-0.0272-2.9868-3.6204-9.6298-11.2063-10.6045c-5.9977-0.7692-13.0031,3.2886-13.9642,10.2276
			c-0.0164,0.1053-0.0195,0.2172-0.0195,0.3228l0.2685,26.5248c0.009,1.2067-1.4118,2.2385-3.1045,2.2568
			c-1.6985,0.0151-3.1391-0.9895-3.1511-2.1965l-7.1864-87.2754C88.2075,12.2517,82.7316,6.5738,77.0855,6.634
			c-3.4832,0.0303-6.7428,1.2673-9.167,3.4724c-3.0563,2.7637-4.6371,6.8577-4.5858,11.8387l6.9949,89.3088
			c0,0.0182,0.0031,0.0482,0.0031,0.0664c-0.0349,1.6111-0.0198,3.8737-0.1313,6.2964l-0.0695,3.4029
			c0.0031,0.3139-0.122,0.6154-0.3,0.8962c-0.7226,5.4394-2.5901,10.2937-7.5877,9.2226
			c-8.5544-1.8283-11.4056-10.9996-19.2482-21.6616c-3.5855-4.8753-9.7098-8.4413-15.3108-10.8881
			c-1.6834-0.1418-3.2599-0.1779-4.714-0.1628c-1.5824,0.0148-3.1029,0.1538-4.5148,0.4072
			c-6.7941,1.237-10.9922,8.4083-11.1596,9.0567c-3.9627,15.2326,23.876,21.2878,38.7117,34.2093
			c22.6137,6.4351,28.3926,30.8783,50.0134,39.353c21.8306,8.5529,47.9769,10.9242,66.0379,0.9503
			c10.7206-5.9223,18.5012-24.721,23.0614-39.0212C185.3618,132.9065,185.018,94.8899,187.415,46.7456z"/>
		
			<radialGradient id="SVGID_6_" cx="116.8175" cy="-23.8572" r="229.1013" gradientTransform="matrix(0.9899 0 0 0.9899 0.9917 1.0101)" gradientUnits="userSpaceOnUse">
			<stop  offset="0.1174" style="stop-color:#FBEC7B"/>
			<stop  offset="1" style="stop-color:#F3B941"/>
		</radialGradient>
		<path fill="url(#SVGID_6_)" d="M42.9939,109.4769c7.8426,10.6619,10.6938,19.8333,19.2482,21.6616
			c4.9976,1.0711,6.8652-3.7832,7.5877-9.2226c-0.3213,0.5067-0.8749,0.9441-1.6216,1.1795
			c-0.3788,0.1146-0.7739,0.1779-1.1814,0.181c-0.9849,0.012-1.9911-0.2746-2.5401-0.9172
			c-16.287-19.064-28.1331-23.0314-36.8037-23.7704C33.2841,101.0356,39.4084,104.6016,42.9939,109.4769z"/>
		
			<radialGradient id="SVGID_7_" cx="49.0147" cy="19.0563" r="129.8382" gradientTransform="matrix(0.9899 0 0 0.9899 0.9917 1.0101)" gradientUnits="userSpaceOnUse">
			<stop  offset="0.0054" style="stop-color:#711A12;stop-opacity:0.5"/>
			<stop  offset="0.5905" style="stop-color:#831D19;stop-opacity:0.2059"/>
			<stop  offset="1" style="stop-color:#931F1F;stop-opacity:0"/>
		</radialGradient>
		<path fill="url(#SVGID_7_)" d="M42.9939,109.4769c7.8426,10.6619,10.6938,19.8333,19.2482,21.6616
			c4.9976,1.0711,6.8652-3.7832,7.5877-9.2226c-0.3213,0.5067-0.8749,0.9441-1.6216,1.1795
			c-0.3788,0.1146-0.7739,0.1779-1.1814,0.181c-0.9849,0.012-1.9911-0.2746-2.5401-0.9172
			c-16.287-19.064-28.1331-23.0314-36.8037-23.7704C33.2841,101.0356,39.4084,104.6016,42.9939,109.4769z"/>
		
			<radialGradient id="SVGID_8_" cx="116.9619" cy="-23.8318" r="229.1352" gradientTransform="matrix(0.9899 0 0 0.9899 0.9917 1.0101)" gradientUnits="userSpaceOnUse">
			<stop  offset="0.1174" style="stop-color:#FBEC7B"/>
			<stop  offset="1" style="stop-color:#F3B941"/>
		</radialGradient>
		<path fill="url(#SVGID_8_)" d="M70.3306,111.3203c0-0.0182-0.0031-0.0482-0.0031-0.0664l-0.1282,6.3628
			C70.3109,115.1941,70.2957,112.9314,70.3306,111.3203z"/>
		
			<radialGradient id="SVGID_9_" cx="48.953" cy="19.0753" r="129.8319" gradientTransform="matrix(0.9899 0 0 0.9899 0.9917 1.0101)" gradientUnits="userSpaceOnUse">
			<stop  offset="0.0054" style="stop-color:#711A12;stop-opacity:0.5"/>
			<stop  offset="0.5905" style="stop-color:#831D19;stop-opacity:0.2059"/>
			<stop  offset="1" style="stop-color:#931F1F;stop-opacity:0"/>
		</radialGradient>
		<path fill="url(#SVGID_9_)" d="M70.3306,111.3203c0-0.0182-0.0031-0.0482-0.0031-0.0664l-0.1282,6.3628
			C70.3109,115.1941,70.2957,112.9314,70.3306,111.3203z"/>
	</g>
</g>
</svg>
