<?xml version="1.0" encoding="utf-8"?>
<!-- Generator: Adobe Illustrator 17.0.0, SVG Export Plug-In . SVG Version: 6.00 Build 0)  -->
<!DOCTYPE svg PUBLIC "-//W3C//DTD SVG 1.1//EN" "http://www.w3.org/Graphics/SVG/1.1/DTD/svg11.dtd">
<svg version="1.1" id="Layer_1" xmlns="http://www.w3.org/2000/svg" xmlns:xlink="http://www.w3.org/1999/xlink" x="0px" y="0px" viewBox="0 0 200 200" enable-background="new 0 0 200 200" xml:space="preserve">
<g>
	<path fill="#911313" d="M6.4022,171.0949C3.4189,171.0949,1,168.676,1,165.6926V33.699c0-2.9834,2.4189-5.4023,5.4022-5.4023
		h187.1955c2.9834,0,5.4023,2.4189,5.4023,5.4023v131.9937c0,2.9834-2.4189,5.4023-5.4023,5.4023H6.4022z"/>
	<linearGradient id="SVGID_1_" gradientUnits="userSpaceOnUse" x1="100" y1="-96.1281" x2="100" y2="275.2177">
		<stop  offset="0.0054" style="stop-color:#EE312C"/>
		<stop  offset="0.316" style="stop-color:#EC2D2A"/>
		<stop  offset="0.6182" style="stop-color:#E62125"/>
		<stop  offset="0.9159" style="stop-color:#DC0E1B"/>
		<stop  offset="1" style="stop-color:#D90718"/>
	</linearGradient>
	<rect x="6.4023" y="33.699" fill="url(#SVGID_1_)" width="187.1955" height="131.9937"/>
	<linearGradient id="SVGID_2_" gradientUnits="userSpaceOnUse" x1="141.5953" y1="27.7447" x2="54.5" y2="179.0608">
		<stop  offset="0" style="stop-color:#FBB03B"/>
		<stop  offset="0.4921" style="stop-color:#FCEE21"/>
		<stop  offset="1" style="stop-color:#F7931E"/>
	</linearGradient>
	<polygon fill="url(#SVGID_2_)" points="100.8309,55.54 114.363,82.9575 144.6293,87.3549 122.73,108.7 127.8975,138.8397 
		100.8309,124.6085 73.7642,138.8397 78.9318,108.7 57.0378,87.3549 87.3015,82.9575 	"/>
</g>
</svg>
