<?xml version="1.0" encoding="utf-8"?>
<!-- Generator: Adobe Illustrator 17.0.0, SVG Export Plug-In . SVG Version: 6.00 Build 0)  -->
<!DOCTYPE svg PUBLIC "-//W3C//DTD SVG 1.1//EN" "http://www.w3.org/Graphics/SVG/1.1/DTD/svg11.dtd">
<svg version="1.1" id="Layer_1" xmlns="http://www.w3.org/2000/svg" xmlns:xlink="http://www.w3.org/1999/xlink" x="0px" y="0px"
	viewBox="0 0 200 200" enable-background="new 0 0 200 200" xml:space="preserve">
<g>
	<g>
		<g>
			<g>
				<path fill="#E4A024" d="M99.9961,199c-54.3778,0-98.6185-44.2405-98.6185-98.6196S45.6184,1.7608,99.9961,1.7608
					c54.383,0,98.6263,44.2405,98.6263,98.6196S154.3792,199,99.9961,199z"/>
				<path fill="#E4A024" d="M99.9961,197.6152c-53.615,0-97.2337-43.6198-97.2337-97.2348S46.3811,3.1456,99.9961,3.1456
					c53.6203,0,97.2415,43.6198,97.2415,97.2348S153.6164,197.6152,99.9961,197.6152z"/>
				
					<radialGradient id="SVGID_1_" cx="30.8111" cy="-2.3967" r="206.9914" gradientTransform="matrix(0.9829 0 0 0.9829 73.4961 -6.2005)" gradientUnits="userSpaceOnUse">
					<stop  offset="0" style="stop-color:#FFF7C2"/>
					<stop  offset="0.3321" style="stop-color:#FFEB8F"/>
					<stop  offset="1" style="stop-color:#FED01F"/>
				</radialGradient>
				<path fill="url(#SVGID_1_)" d="M191.6984,100.3804c0,50.6427-41.0599,91.6956-91.7023,91.6956
					c-50.6399,0-91.6945-41.0529-91.6945-91.6956c0-50.6424,41.0546-91.6956,91.6945-91.6956
					C150.6385,8.6848,191.6984,49.738,191.6984,100.3804z"/>
				<g>
					<defs>
						<path id="SVGID_2_" d="M191.6984,100.3804c0,50.6427-41.0599,91.6956-91.7023,91.6956
							c-50.6399,0-91.6945-41.0529-91.6945-91.6956c0-50.6424,41.0546-91.6956,91.6945-91.6956
							C150.6385,8.6848,191.6984,49.738,191.6984,100.3804z"/>
					</defs>
					<clipPath id="SVGID_3_">
						<use xlink:href="#SVGID_2_"  overflow="visible"/>
					</clipPath>
				</g>
			</g>
		</g>
	</g>
	<g>
		<path fill="#FFFFFF" d="M76.0028,63.0259c-4.7928,13.56-18.933,21.0318-31.5718,16.6866
			c-12.6283-4.3397-18.9898-18.861-14.1862-32.4171c4.8144-13.5613,18.9654-21.0315,31.5961-16.6879
			C74.4773,34.9527,80.8197,49.466,76.0028,63.0259z"/>
		<path fill="#AA5B26" d="M44.5094,85.1625c-0.5977-0.1637-1.1846-0.342-1.7634-0.5437
			c-7.1187-2.4464-12.8797-7.6192-16.2445-14.5756c-3.5916-7.4691-3.9974-16.3958-1.1414-24.4882
			c5.496-15.4979,21.486-24.4612,36.4269-20.3933c0.5788,0.1582,1.1657,0.3354,1.7471,0.5355
			c7.1134,2.4492,12.8689,7.6206,16.2229,14.5634c3.6024,7.4715,4.0082,16.3999,1.1466,24.5004
			C75.4076,80.2603,59.4231,89.2264,44.5094,85.1625z"/>
		<path fill="#FFFFFF" d="M30.2665,47.2955c4.7928-13.5613,18.9438-21.0315,31.5745-16.6879
			c12.6363,4.3452,18.9787,18.8585,14.1618,32.4171C71.21,76.5859,57.0698,84.0577,44.431,79.7125
			C31.8028,75.3728,25.4413,60.8515,30.2665,47.2955z"/>
		<g>
			<defs>
				<path id="SVGID_4_" d="M30.2665,47.2955c4.7928-13.5613,18.9438-21.0315,31.5745-16.6879
					c12.6363,4.3452,18.9787,18.8585,14.1618,32.4171C71.21,76.5859,57.0698,84.0577,44.431,79.7125
					C31.8028,75.3728,25.4413,60.8515,30.2665,47.2955z"/>
			</defs>
			<clipPath id="SVGID_5_">
				<use xlink:href="#SVGID_4_"  overflow="visible"/>
			</clipPath>
		</g>
		<path fill="#6D2F16" d="M66.9698,33.1692c-4.5771-0.9134-9.1652,1.9168-10.4456,6.6087
			c-1.3372,4.8927,1.4439,9.9085,6.2095,11.2041c4.7544,1.2943,9.6876-1.623,11.0249-6.5103
			c0.3672-1.3552,0.3935-2.7114,0.1788-4.0032C72.176,37.5649,69.8258,35.0657,66.9698,33.1692z"/>
		<path fill="none" d="M30.2665,47.2955c4.7928-13.5613,18.9438-21.0315,31.5745-16.6879
			c12.6363,4.3452,18.9787,18.8585,14.1618,32.4171C71.21,76.5859,57.0698,84.0577,44.431,79.7125
			C31.8028,75.3728,25.4413,60.8515,30.2665,47.2955z"/>
	</g>
	<g>
		<path fill="#FFFFFF" d="M160.3837,62.8218c0.2218,16.8746-12.3064,30.8414-27.9882,31.1862
			c-15.6709,0.3517-28.5643-13.0526-28.7778-29.93c-0.2083-16.8813,12.3388-30.8511,28.0098-31.2012
			C147.3036,32.5307,160.1781,45.9378,160.3837,62.8218z"/>
		<path fill="#AA5B26" d="M134.5809,98.8158c-0.6871,0.0595-1.3795,0.0986-2.0719,0.1122
			c-8.5196,0.1908-16.6663-3.0482-22.9572-9.1228c-6.77-6.5482-10.7269-15.9078-10.846-25.6731
			c-0.2379-18.6865,13.2694-34.528,30.747-36.063c0.6924-0.0593,1.3687-0.0958,2.0664-0.1094
			c8.5035-0.1894,16.6608,3.0468,22.9359,9.1148c6.7778,6.5454,10.7239,15.9077,10.8458,25.6811
			C165.5495,81.4435,152.0532,97.2837,134.5809,98.8158z"/>
		<path fill="#FFFFFF" d="M103.6229,64.0715c-0.2135-16.8746,12.3336-30.8445,28.0045-31.1946
			c15.6762-0.3462,28.5507,13.0609,28.7562,29.9394c0.2218,16.8802-12.3064,30.847-27.9882,31.1918
			C116.7245,94.3598,103.8312,80.9555,103.6229,64.0715z"/>
		<g>
			<defs>
				<path id="SVGID_6_" d="M103.6229,64.0715c-0.2135-16.8746,12.3336-30.8445,28.0045-31.1946
					c15.6762-0.3462,28.5507,13.0609,28.7562,29.9394c0.2218,16.8802-12.3064,30.847-27.9882,31.1918
					C116.7245,94.3598,103.8312,80.9555,103.6229,64.0715z"/>
			</defs>
			<clipPath id="SVGID_7_">
				<use xlink:href="#SVGID_6_"  overflow="visible"/>
			</clipPath>
		</g>
		<path fill="#6D2F16" d="M123.0905,34.6348c-0.2245,0.0197-0.4324,0.0925-0.6527,0.1261c-2.3156,0.9122-4.4995,2.116-6.4894,3.6058
			c-1.8652,2.1893-2.9031,5.1175-2.626,8.2539c0.5294,6.0924,5.7716,10.6145,11.7108,10.0952
			c5.9337-0.5221,10.3001-5.8854,9.7611-11.9789C134.265,38.6366,129.0284,34.1143,123.0905,34.6348z"/>
		<path fill="none" d="M103.6229,64.0715c-0.2135-16.8746,12.3336-30.8445,28.0045-31.1946
			c15.6762-0.3462,28.5507,13.0609,28.7562,29.9394c0.2218,16.8802-12.3064,30.847-27.9882,31.1918
			C116.7245,94.3598,103.8312,80.9555,103.6229,64.0715z"/>
	</g>
	<g>
		<path fill="#823308" d="M150.309,25.9182c-0.1164,0-0.2356-0.0069-0.3575-0.0222c-19.3171-2.4278-27.7118-17.1248-28.061-17.7484
			c-0.7622-1.3691-0.2688-3.0985,1.1003-3.8606c1.3552-0.7608,3.0957-0.2716,3.8606,1.0975
			c0.291,0.5155,7.4247,12.8208,23.8096,14.88c1.5548,0.1954,2.6578,1.6144,2.4611,3.1692
			C152.9419,24.8692,151.7197,25.9182,150.309,25.9182z"/>
	</g>
	<g>
		<path fill="#823308" d="M64.8788,21.9093c-0.0859,0-0.1718-0.0042-0.2605-0.0111c-1.5603-0.1427-2.7077-1.5215-2.5691-3.0805
			c0.1552-1.8125-0.0222-7.1282-2.6467-9.9897c-1.3303-1.4481-3.1622-2.152-5.6039-2.152c-9.5172,0-9.6253,11.8896-9.6253,12.3954
			c0,1.5673-1.2693,2.838-2.838,2.838s-2.838-1.2707-2.838-2.838C38.4972,12.8203,41.6955,1,53.7985,1
			c4.074,0,7.3749,1.3511,9.8082,4.0145c4.8528,5.3157,4.1295,13.9488,4.0962,14.3146
			C67.5671,20.8021,66.331,21.9093,64.8788,21.9093z"/>
	</g>
	<g>
		<path fill="#AA5B26" d="M39.9005,196.5212c-3.5756,0-6.4723-0.1446-9.112-0.457c-4.7468-0.5628-10.394-3.1565-14.097-5.3974
			c-11.6761-7.0929-16.4525-24.3124-10.0315-36.133c1.8606-3.4121,3.873-6.033,5.8151-8.5672
			c4.2328-5.5134,8.2277-10.7214,10.2021-24.2287c0.0595-0.4016,0.108-0.8464,0.1676-1.3169
			c0.4437-3.7002,1.1821-9.8911,6.4479-12.0915c1.0929-0.4542,2.2395-0.6827,3.4135-0.6827c1.6607,0,3.3158,0.4312,5.2199,1.359
			c3.6406,1.7756,5.0174,4.0746,6.1668,7.4461c1.8581,5.4159,0.5924,10.8172-0.8899,15.3868
			c-2.5666,7.9288-0.5924,8.8389,1.5067,9.8019c0.1892,0.0878,0.3758,0.1745,0.557,0.2609
			c1.9476,0.2515,10.1805,0.4681,14.9705,0.4802l19.6387,0.0485c3.0538,0.0097,5.6771,1.1131,7.4325,3.1105
			c1.4416,1.6227,2.245,3.7783,2.2395,6.0516c-0.0163,4.7078-3.408,8.2506-7.8867,8.2506c-1.4607-0.0039-2.8942-0.0324-4.333-0.0607
			c-1.4823-0.0285-2.9698-0.0582-4.4519-0.0582c-1.2632,0-2.5209,0.0216-3.7758,0.085c-0.7843,0.0393-1.2984,0.1219-1.6202,0.1975
			c0.1083,0.5653,0.4193,1.5864,1.1522,3.4121c1.5175,3.7932,1.2524,8.8483,1.0577,12.5388
			c-0.1975,3.8799-0.9738,7.2106-2.2935,10.1007c-3.0565,6.6656-8.7605,10.3372-16.0579,10.3372l-1.1117-0.0042
			c-1.6931,0-3.3861,0.0327-5.0847,0.0637C43.3949,196.4888,41.6479,196.5212,39.9005,196.5212z"/>
		
			<radialGradient id="SVGID_8_" cx="590.6744" cy="1960.7206" r="95.2492" gradientTransform="matrix(0.8634 0.4697 -0.4697 0.8634 486.4595 -1853.8772)" gradientUnits="userSpaceOnUse">
			<stop  offset="0.1174" style="stop-color:#FEEB65"/>
			<stop  offset="1" style="stop-color:#F6B330"/>
		</radialGradient>
		<path fill="url(#SVGID_8_)" d="M64.1021,184.5477c1.1577-2.5087,1.8013-5.442,1.9664-8.578
			c0.1784-3.4362,0.4517-8.0925-0.7927-11.2c-2.0825-5.1714-2.7533-8.2548,3.6406-8.5752c4.2192-0.2138,8.498,0.0188,12.7227,0.0282
			c2.9402,0.0136,4.2815-2.399,4.2898-4.6358c0.0025-1.3862-0.4733-2.6832-1.3363-3.6553c-1.0818-1.2267-2.6993-1.8759-4.679-1.8811
			c-0.1136,0.0014-0.2191,0.0014-0.3299,0.0014c-6.4534-0.0177-12.9097-0.0338-19.3603-0.0501
			c-3.7431-0.0108-15.3032-0.2149-16.1847-0.668c-2.7048-1.4039-8.2169-2.4519-4.279-14.6135
			c1.3848-4.2599,2.3749-8.8226,0.909-13.1002c-0.909-2.6627-1.7473-4.1029-4.325-5.3606c-1.785-0.8683-3.6919-1.405-5.6552-0.5896
			c-3.8301,1.5997-3.9597,7.3663-4.4305,10.5915c-3.0103,20.6205-10.6671,23.4524-16.4174,34.0007
			c-5.604,10.3101-1.1765,25.2914,8.7281,31.3081c3.8162,2.3123,8.912,4.4574,12.6443,4.8994
			c6.613,0.7805,13.3475,0.2543,19.9824,0.3058C57.5731,192.8252,61.8274,189.5161,64.1021,184.5477z"/>
	</g>
	<g>
		<path fill="#823308" d="M112.9608,138.2288H82.6383c-2.3502,0-4.257-1.9054-4.257-4.257c0-2.3516,1.9068-4.257,4.257-4.257
			h30.3225c2.3502,0,4.257,1.9054,4.257,4.257C117.2178,136.3234,115.311,138.2288,112.9608,138.2288z"/>
	</g>
</g>
</svg>
