<?xml version="1.0" encoding="utf-8"?>
<!-- Generator: Adobe Illustrator 19.0.0, SVG Export Plug-In . SVG Version: 6.00 Build 0)  -->
<svg version="1.1" id="Layer_1" xmlns="http://www.w3.org/2000/svg" xmlns:xlink="http://www.w3.org/1999/xlink" x="0px" y="0px"
	 viewBox="0 0 360 360" style="enable-background:new 0 0 360 360;" xml:space="preserve">
<style type="text/css">
	.st0{fill:#EA2329;}
	.st1{fill:#F5EA13;}
</style>
<g id="XMLID_61_">
	<rect id="XMLID_24_" x="0" y="41.1" class="st0" width="360" height="280.9"/>
	<g id="XMLID_20_">
		<path id="XMLID_23_" class="st1" d="M198,164.3c19.4,0,38.6,0,58,0c-0.2,0.7-0.7,0.9-1.1,1.1c-12,8.7-24,17.4-36,26.2
			c-2.8,2.1-5.7,4.1-8.5,6.2c-1.3,0.9-1.3,0.9-0.8,2.4c4.1,12.6,8.2,25.1,12.2,37.7c1.6,4.8,3.2,9.7,4.7,14.5
			c0.1,0.4,0.3,0.9,0.2,1.5c-15.6-11.3-31.1-22.6-46.8-34c-15.6,11.3-31.2,22.7-46.8,34c-0.1-0.1-0.2-0.1-0.3-0.2
			c5.9-18.3,11.9-36.6,17.9-55c-15.7-11.4-31.2-22.7-46.8-34c0-0.1,0-0.2,0.1-0.3c0.5,0,1.1,0,1.6,0c18.1,0,36.2,0,54.2,0
			c2.4,0,2,0.3,2.7-2c5.6-17.3,11.2-34.6,16.8-51.8c0.1-0.4,0.3-0.8,0.6-1.2C186.1,127.6,192,145.9,198,164.3z"/>
	</g>
</g>
</svg>
