<?xml version="1.0" encoding="utf-8"?>
<!-- Generator: Adobe Illustrator 19.0.0, SVG Export Plug-In . SVG Version: 6.00 Build 0)  -->
<svg version="1.1" id="Layer_1" xmlns="http://www.w3.org/2000/svg" xmlns:xlink="http://www.w3.org/1999/xlink" x="0px" y="0px"
	 viewBox="0 0 360 360" style="enable-background:new 0 0 360 360;" xml:space="preserve">
<style type="text/css">
	.st0{fill:#D9212D;}
	.st1{fill:url(#XMLID_28_);}
</style>
<g id="XMLID_20_">
	<path id="XMLID_24_" class="st0" d="M180,339.3l-4.5-2.8c-6.2-3.9-152.8-96.8-170.4-173.9C1.7,152.1,0,141.3,0,130.4
		c0-38.4,20.9-73.7,54.5-92.3C70.1,29.5,87.7,25,105.3,25c28.2,0,54.9,11.2,74.7,31c19.8-19.8,46.5-31,74.7-31
		c17.7,0,35.2,4.5,50.8,13.1l0,0c33.6,18.6,54.5,54,54.5,92.3c0,10.9-1.7,21.7-5.1,32.1c-17.6,77.1-164.1,170-170.4,173.9L180,339.3
		z M105.3,42c-15,0-29.4,3.7-42.6,11C34.5,68.6,17,98.3,17,130.4c0,9.2,1.5,18.3,4.4,27.2l0.2,0.8c6.4,28.7,36.3,65.9,86.5,107.6
		c31.2,25.9,60.8,45.8,71.9,53c11.1-7.2,40.7-27.1,71.9-53c50.2-41.8,80.2-79,86.5-107.6l0.2-0.8c2.9-8.8,4.4-18,4.4-27.2
		c0-32.2-17.5-61.8-45.7-77.4c-13.3-7.3-27.6-11-42.6-11c-26.4,0-51.2,11.7-68.2,32l-6.5,7.9l-6.5-7.9C156.5,53.7,131.7,42,105.3,42
		z"/>
	<linearGradient id="XMLID_28_" gradientUnits="userSpaceOnUse" x1="180" y1="13.1194" x2="180" y2="303.6851">
		<stop  offset="9.437971e-02" style="stop-color:#FFFFFF"/>
		<stop  offset="0.1075" style="stop-color:#FEF3F3"/>
		<stop  offset="0.1587" style="stop-color:#FACAC7"/>
		<stop  offset="0.2138" style="stop-color:#F6A6A0"/>
		<stop  offset="0.2721" style="stop-color:#F3887F"/>
		<stop  offset="0.3345" style="stop-color:#F06F65"/>
		<stop  offset="0.4027" style="stop-color:#EE5C50"/>
		<stop  offset="0.4794" style="stop-color:#ED4E42"/>
		<stop  offset="0.572" style="stop-color:#EC463A"/>
		<stop  offset="0.7231" style="stop-color:#EC4437"/>
		<stop  offset="0.7709" style="stop-color:#EB3C35"/>
		<stop  offset="0.899" style="stop-color:#E92D30"/>
		<stop  offset="1" style="stop-color:#E8272E"/>
	</linearGradient>
	<path id="XMLID_23_" class="st1" d="M301.4,46.3c-13.9-7.7-29.8-12-46.7-12c-30.1,0-56.9,13.6-74.7,35.1
		c-17.8-21.5-44.6-35.1-74.7-35.1c-16.9,0-32.8,4.4-46.7,12C28.7,62.9,8.5,94.6,8.5,131.2c0,10.4,1.7,20.5,4.8,29.8
		C29.9,235.8,180,330,180,330v0h0l0,0v0c0,0,150.1-94.2,166.7-168.9c3.1-9.4,4.8-19.4,4.8-29.8C351.5,94.6,331.3,62.9,301.4,46.3z"
		/>
</g>
</svg>
